  0
SECTION
  2
BLOCKS
  0
ENDSEC
  0
SECTION
  2
ENTITIES
  0
LINE
  8
0
 10
20.7455
 20
-8
 11
31.1364
 21
-8
  0
LINE
  8
0
 10
31.1364
 20
-8
 11
31.1364
 21
-11
  0
LINE
  8
0
 10
31.1364
 20
-11
 11
43.8364
 21
-11
  0
LINE
  8
0
 10
43.8364
 20
-11
 11
43.8364
 21
-8
  0
LINE
  8
0
 10
43.8364
 20
-8
 11
54.2273
 21
-8
  0
LINE
  8
0
 10
54.2273
 20
-8
 11
54.2273
 21
-11
  0
LINE
  8
0
 10
54.2273
 20
-11
 11
66.9273
 21
-11
  0
LINE
  8
0
 10
66.9273
 20
-11
 11
66.9273
 21
-8
  0
LINE
  8
0
 10
66.9273
 20
-8
 11
77.3182
 21
-8
  0
LINE
  8
0
 10
77.3182
 20
-8
 11
77.3182
 21
-11
  0
LINE
  8
0
 10
77.3182
 20
-11
 11
90.0182
 21
-11
  0
LINE
  8
0
 10
90.0182
 20
-11
 11
90.0182
 21
-8
  0
LINE
  8
0
 10
90.0182
 20
-8
 11
100.409
 21
-8
  0
LINE
  8
0
 10
100.409
 20
-8
 11
100.409
 21
-11
  0
LINE
  8
0
 10
100.409
 20
-11
 11
113.109
 21
-11
  0
LINE
  8
0
 10
113.109
 20
-11
 11
113.109
 21
-8
  0
LINE
  8
0
 10
113.109
 20
-8
 11
123.5
 21
-8
  0
LINE
  8
0
 10
123.5
 20
-8
 11
123.5
 21
-1.33333
  0
LINE
  8
0
 10
123.5
 20
-1.33333
 11
120.4
 21
-1.33333
  0
LINE
  8
0
 10
120.4
 20
-1.33333
 11
120.4
 21
5.33333
  0
LINE
  8
0
 10
120.4
 20
5.33333
 11
123.5
 21
5.33333
  0
LINE
  8
0
 10
123.5
 20
5.33333
 11
123.5
 21
12
  0
LINE
  8
0
 10
123.5
 20
12
 11
120.4
 21
12
  0
LINE
  8
0
 10
120.4
 20
12
 11
120.4
 21
18.6667
  0
LINE
  8
0
 10
120.4
 20
18.6667
 11
123.5
 21
18.6667
  0
LINE
  8
0
 10
123.5
 20
18.6667
 11
123.5
 21
25.3333
  0
LINE
  8
0
 10
123.5
 20
25.3333
 11
120.4
 21
25.3333
  0
LINE
  8
0
 10
120.4
 20
25.3333
 11
120.4
 21
32
  0
LINE
  8
0
 10
120.4
 20
32
 11
113.109
 21
32
  0
LINE
  8
0
 10
113.109
 20
32
 11
113.109
 21
35
  0
LINE
  8
0
 10
113.109
 20
35
 11
100.409
 21
35
  0
LINE
  8
0
 10
100.409
 20
35
 11
100.409
 21
32
  0
LINE
  8
0
 10
100.409
 20
32
 11
90.0182
 21
32
  0
LINE
  8
0
 10
90.0182
 20
32
 11
90.0182
 21
35
  0
LINE
  8
0
 10
90.0182
 20
35
 11
77.3182
 21
35
  0
LINE
  8
0
 10
77.3182
 20
35
 11
77.3182
 21
32
  0
LINE
  8
0
 10
77.3182
 20
32
 11
66.9273
 21
32
  0
LINE
  8
0
 10
66.9273
 20
32
 11
66.9273
 21
35
  0
LINE
  8
0
 10
66.9273
 20
35
 11
54.2273
 21
35
  0
LINE
  8
0
 10
54.2273
 20
35
 11
54.2273
 21
32
  0
LINE
  8
0
 10
54.2273
 20
32
 11
43.8364
 21
32
  0
LINE
  8
0
 10
43.8364
 20
32
 11
43.8364
 21
35
  0
LINE
  8
0
 10
43.8364
 20
35
 11
31.1364
 21
35
  0
LINE
  8
0
 10
31.1364
 20
35
 11
31.1364
 21
32
  0
LINE
  8
0
 10
31.1364
 20
32
 11
20.7455
 21
32
  0
LINE
  8
0
 10
20.7455
 20
32
 11
20.7455
 21
35
  0
LINE
  8
0
 10
20.7455
 20
35
 11
8.04544
 21
35
  0
LINE
  8
0
 10
8.04544
 20
35
 11
8.04544
 21
32
  0
LINE
  8
0
 10
8.04544
 20
32
 11
-0.399994
 21
32
  0
LINE
  8
0
 10
-0.399994
 20
32
 11
-0.399994
 21
25.3333
  0
LINE
  8
0
 10
-0.399994
 20
25.3333
 11
-3.5
 21
25.3333
  0
LINE
  8
0
 10
-3.5
 20
25.3333
 11
-3.5
 21
18.6667
  0
LINE
  8
0
 10
-3.5
 20
18.6667
 11
-0.399994
 21
18.6667
  0
LINE
  8
0
 10
-0.399994
 20
18.6667
 11
-0.399994
 21
12
  0
LINE
  8
0
 10
-0.399994
 20
12
 11
-3.5
 21
12
  0
LINE
  8
0
 10
-3.5
 20
12
 11
-3.5
 21
5.33333
  0
LINE
  8
0
 10
-3.5
 20
5.33333
 11
-0.399994
 21
5.33333
  0
LINE
  8
0
 10
-0.399994
 20
5.33333
 11
-0.399994
 21
-1.33333
  0
LINE
  8
0
 10
-0.399994
 20
-1.33333
 11
-3.5
 21
-1.33333
  0
LINE
  8
0
 10
-3.5
 20
-1.33333
 11
-3.5
 21
-8
  0
LINE
  8
0
 10
-3.5
 20
-8
 11
8.04544
 21
-8
  0
LINE
  8
0
 10
8.04544
 20
-8
 11
8.04544
 21
-11
  0
LINE
  8
0
 10
8.04544
 20
-11
 11
20.7455
 21
-11
  0
LINE
  8
0
 10
20.7455
 20
-11
 11
20.7455
 21
-8
  0
LINE
  8
0
 10
26.0967
 20
27.401
 11
25.9649
 21
27.4219
  0
LINE
  8
0
 10
25.9649
 20
27.4219
 11
25.836
 21
27.4564
  0
LINE
  8
0
 10
25.836
 20
27.4564
 11
25.7114
 21
27.5042
  0
LINE
  8
0
 10
25.7114
 20
27.5042
 11
25.5925
 21
27.5648
  0
LINE
  8
0
 10
25.5925
 20
27.5648
 11
25.4806
 21
27.6375
  0
LINE
  8
0
 10
25.4806
 20
27.6375
 11
25.3768
 21
27.7215
  0
LINE
  8
0
 10
25.3768
 20
27.7215
 11
25.2825
 21
27.8159
  0
LINE
  8
0
 10
25.2825
 20
27.8159
 11
25.1985
 21
27.9196
  0
LINE
  8
0
 10
25.1985
 20
27.9196
 11
25.1258
 21
28.0315
  0
LINE
  8
0
 10
25.1258
 20
28.0315
 11
25.0652
 21
28.1504
  0
LINE
  8
0
 10
25.0652
 20
28.1504
 11
25.0174
 21
28.275
  0
LINE
  8
0
 10
25.0174
 20
28.275
 11
24.9828
 21
28.4039
  0
LINE
  8
0
 10
24.9828
 20
28.4039
 11
24.962
 21
28.5357
  0
LINE
  8
0
 10
24.962
 20
28.5357
 11
24.955
 21
28.669
  0
LINE
  8
0
 10
24.955
 20
28.669
 11
24.962
 21
28.8023
  0
LINE
  8
0
 10
24.962
 20
28.8023
 11
24.9828
 21
28.9341
  0
LINE
  8
0
 10
24.9828
 20
28.9341
 11
25.0174
 21
29.063
  0
LINE
  8
0
 10
25.0174
 20
29.063
 11
25.0652
 21
29.1876
  0
LINE
  8
0
 10
25.0652
 20
29.1876
 11
25.1258
 21
29.3065
  0
LINE
  8
0
 10
25.1258
 20
29.3065
 11
25.1985
 21
29.4184
  0
LINE
  8
0
 10
25.1985
 20
29.4184
 11
25.2825
 21
29.5221
  0
LINE
  8
0
 10
25.2825
 20
29.5221
 11
25.3768
 21
29.6165
  0
LINE
  8
0
 10
25.3768
 20
29.6165
 11
25.4806
 21
29.7005
  0
LINE
  8
0
 10
25.4806
 20
29.7005
 11
25.5925
 21
29.7732
  0
LINE
  8
0
 10
25.5925
 20
29.7732
 11
25.7114
 21
29.8338
  0
LINE
  8
0
 10
25.7114
 20
29.8338
 11
25.836
 21
29.8816
  0
LINE
  8
0
 10
25.836
 20
29.8816
 11
25.9649
 21
29.9161
  0
LINE
  8
0
 10
25.9649
 20
29.9161
 11
26.0967
 21
29.937
  0
LINE
  8
0
 10
26.0967
 20
29.937
 11
26.23
 21
29.944
  0
LINE
  8
0
 10
26.23
 20
29.944
 11
26.3633
 21
29.937
  0
LINE
  8
0
 10
26.3633
 20
29.937
 11
26.4951
 21
29.9161
  0
LINE
  8
0
 10
26.4951
 20
29.9161
 11
26.624
 21
29.8816
  0
LINE
  8
0
 10
26.624
 20
29.8816
 11
26.7486
 21
29.8338
  0
LINE
  8
0
 10
26.7486
 20
29.8338
 11
26.8675
 21
29.7732
  0
LINE
  8
0
 10
26.8675
 20
29.7732
 11
26.9794
 21
29.7005
  0
LINE
  8
0
 10
26.9794
 20
29.7005
 11
27.0831
 21
29.6165
  0
LINE
  8
0
 10
27.0831
 20
29.6165
 11
27.1775
 21
29.5221
  0
LINE
  8
0
 10
27.1775
 20
29.5221
 11
27.2615
 21
29.4184
  0
LINE
  8
0
 10
27.2615
 20
29.4184
 11
27.3342
 21
29.3065
  0
LINE
  8
0
 10
27.3342
 20
29.3065
 11
27.3948
 21
29.1876
  0
LINE
  8
0
 10
27.3948
 20
29.1876
 11
27.4426
 21
29.063
  0
LINE
  8
0
 10
27.4426
 20
29.063
 11
27.4771
 21
28.9341
  0
LINE
  8
0
 10
27.4771
 20
28.9341
 11
27.498
 21
28.8023
  0
LINE
  8
0
 10
27.498
 20
28.8023
 11
27.505
 21
28.669
  0
LINE
  8
0
 10
27.505
 20
28.669
 11
27.498
 21
28.5357
  0
LINE
  8
0
 10
27.498
 20
28.5357
 11
27.4771
 21
28.4039
  0
LINE
  8
0
 10
27.4771
 20
28.4039
 11
27.4426
 21
28.275
  0
LINE
  8
0
 10
27.4426
 20
28.275
 11
27.3948
 21
28.1504
  0
LINE
  8
0
 10
27.3948
 20
28.1504
 11
27.3342
 21
28.0315
  0
LINE
  8
0
 10
27.3342
 20
28.0315
 11
27.2615
 21
27.9196
  0
LINE
  8
0
 10
27.2615
 20
27.9196
 11
27.1775
 21
27.8159
  0
LINE
  8
0
 10
27.1775
 20
27.8159
 11
27.0831
 21
27.7215
  0
LINE
  8
0
 10
27.0831
 20
27.7215
 11
26.9794
 21
27.6375
  0
LINE
  8
0
 10
26.9794
 20
27.6375
 11
26.8675
 21
27.5648
  0
LINE
  8
0
 10
26.8675
 20
27.5648
 11
26.7486
 21
27.5042
  0
LINE
  8
0
 10
26.7486
 20
27.5042
 11
26.624
 21
27.4564
  0
LINE
  8
0
 10
26.624
 20
27.4564
 11
26.4951
 21
27.4219
  0
LINE
  8
0
 10
26.4951
 20
27.4219
 11
26.3633
 21
27.401
  0
LINE
  8
0
 10
26.3633
 20
27.401
 11
26.23
 21
27.394
  0
LINE
  8
0
 10
26.23
 20
27.394
 11
26.0967
 21
27.401
  0
LINE
  8
0
 10
55.0467
 20
27.401
 11
54.9149
 21
27.4219
  0
LINE
  8
0
 10
54.9149
 20
27.4219
 11
54.786
 21
27.4564
  0
LINE
  8
0
 10
54.786
 20
27.4564
 11
54.6614
 21
27.5042
  0
LINE
  8
0
 10
54.6614
 20
27.5042
 11
54.5425
 21
27.5648
  0
LINE
  8
0
 10
54.5425
 20
27.5648
 11
54.4306
 21
27.6375
  0
LINE
  8
0
 10
54.4306
 20
27.6375
 11
54.3269
 21
27.7215
  0
LINE
  8
0
 10
54.3269
 20
27.7215
 11
54.2325
 21
27.8159
  0
LINE
  8
0
 10
54.2325
 20
27.8159
 11
54.1485
 21
27.9196
  0
LINE
  8
0
 10
54.1485
 20
27.9196
 11
54.0758
 21
28.0315
  0
LINE
  8
0
 10
54.0758
 20
28.0315
 11
54.0152
 21
28.1504
  0
LINE
  8
0
 10
54.0152
 20
28.1504
 11
53.9674
 21
28.275
  0
LINE
  8
0
 10
53.9674
 20
28.275
 11
53.9329
 21
28.4039
  0
LINE
  8
0
 10
53.9329
 20
28.4039
 11
53.912
 21
28.5357
  0
LINE
  8
0
 10
53.912
 20
28.5357
 11
53.905
 21
28.669
  0
LINE
  8
0
 10
53.905
 20
28.669
 11
53.912
 21
28.8023
  0
LINE
  8
0
 10
53.912
 20
28.8023
 11
53.9329
 21
28.9341
  0
LINE
  8
0
 10
53.9329
 20
28.9341
 11
53.9674
 21
29.063
  0
LINE
  8
0
 10
53.9674
 20
29.063
 11
54.0152
 21
29.1876
  0
LINE
  8
0
 10
54.0152
 20
29.1876
 11
54.0758
 21
29.3065
  0
LINE
  8
0
 10
54.0758
 20
29.3065
 11
54.1485
 21
29.4184
  0
LINE
  8
0
 10
54.1485
 20
29.4184
 11
54.2325
 21
29.5221
  0
LINE
  8
0
 10
54.2325
 20
29.5221
 11
54.3269
 21
29.6165
  0
LINE
  8
0
 10
54.3269
 20
29.6165
 11
54.4306
 21
29.7005
  0
LINE
  8
0
 10
54.4306
 20
29.7005
 11
54.5425
 21
29.7732
  0
LINE
  8
0
 10
54.5425
 20
29.7732
 11
54.6614
 21
29.8338
  0
LINE
  8
0
 10
54.6614
 20
29.8338
 11
54.786
 21
29.8816
  0
LINE
  8
0
 10
54.786
 20
29.8816
 11
54.9149
 21
29.9161
  0
LINE
  8
0
 10
54.9149
 20
29.9161
 11
55.0467
 21
29.937
  0
LINE
  8
0
 10
55.0467
 20
29.937
 11
55.18
 21
29.944
  0
LINE
  8
0
 10
55.18
 20
29.944
 11
55.3133
 21
29.937
  0
LINE
  8
0
 10
55.3133
 20
29.937
 11
55.4451
 21
29.9161
  0
LINE
  8
0
 10
55.4451
 20
29.9161
 11
55.574
 21
29.8816
  0
LINE
  8
0
 10
55.574
 20
29.8816
 11
55.6986
 21
29.8338
  0
LINE
  8
0
 10
55.6986
 20
29.8338
 11
55.8175
 21
29.7732
  0
LINE
  8
0
 10
55.8175
 20
29.7732
 11
55.9294
 21
29.7005
  0
LINE
  8
0
 10
55.9294
 20
29.7005
 11
56.0331
 21
29.6165
  0
LINE
  8
0
 10
56.0331
 20
29.6165
 11
56.1275
 21
29.5221
  0
LINE
  8
0
 10
56.1275
 20
29.5221
 11
56.2115
 21
29.4184
  0
LINE
  8
0
 10
56.2115
 20
29.4184
 11
56.2842
 21
29.3065
  0
LINE
  8
0
 10
56.2842
 20
29.3065
 11
56.3448
 21
29.1876
  0
LINE
  8
0
 10
56.3448
 20
29.1876
 11
56.3926
 21
29.063
  0
LINE
  8
0
 10
56.3926
 20
29.063
 11
56.4271
 21
28.9341
  0
LINE
  8
0
 10
56.4271
 20
28.9341
 11
56.448
 21
28.8023
  0
LINE
  8
0
 10
56.448
 20
28.8023
 11
56.455
 21
28.669
  0
LINE
  8
0
 10
56.455
 20
28.669
 11
56.448
 21
28.5357
  0
LINE
  8
0
 10
56.448
 20
28.5357
 11
56.4271
 21
28.4039
  0
LINE
  8
0
 10
56.4271
 20
28.4039
 11
56.3926
 21
28.275
  0
LINE
  8
0
 10
56.3926
 20
28.275
 11
56.3448
 21
28.1504
  0
LINE
  8
0
 10
56.3448
 20
28.1504
 11
56.2842
 21
28.0315
  0
LINE
  8
0
 10
56.2842
 20
28.0315
 11
56.2115
 21
27.9196
  0
LINE
  8
0
 10
56.2115
 20
27.9196
 11
56.1275
 21
27.8159
  0
LINE
  8
0
 10
56.1275
 20
27.8159
 11
56.0331
 21
27.7215
  0
LINE
  8
0
 10
56.0331
 20
27.7215
 11
55.9294
 21
27.6375
  0
LINE
  8
0
 10
55.9294
 20
27.6375
 11
55.8175
 21
27.5648
  0
LINE
  8
0
 10
55.8175
 20
27.5648
 11
55.6986
 21
27.5042
  0
LINE
  8
0
 10
55.6986
 20
27.5042
 11
55.574
 21
27.4564
  0
LINE
  8
0
 10
55.574
 20
27.4564
 11
55.4451
 21
27.4219
  0
LINE
  8
0
 10
55.4451
 20
27.4219
 11
55.3133
 21
27.401
  0
LINE
  8
0
 10
55.3133
 20
27.401
 11
55.18
 21
27.394
  0
LINE
  8
0
 10
55.18
 20
27.394
 11
55.0467
 21
27.401
  0
LINE
  8
0
 10
106.137
 20
27.401
 11
106.005
 21
27.4219
  0
LINE
  8
0
 10
106.005
 20
27.4219
 11
105.876
 21
27.4564
  0
LINE
  8
0
 10
105.876
 20
27.4564
 11
105.751
 21
27.5042
  0
LINE
  8
0
 10
105.751
 20
27.5042
 11
105.632
 21
27.5648
  0
LINE
  8
0
 10
105.632
 20
27.5648
 11
105.521
 21
27.6375
  0
LINE
  8
0
 10
105.521
 20
27.6375
 11
105.417
 21
27.7215
  0
LINE
  8
0
 10
105.417
 20
27.7215
 11
105.322
 21
27.8159
  0
LINE
  8
0
 10
105.322
 20
27.8159
 11
105.238
 21
27.9196
  0
LINE
  8
0
 10
105.238
 20
27.9196
 11
105.166
 21
28.0315
  0
LINE
  8
0
 10
105.166
 20
28.0315
 11
105.105
 21
28.1504
  0
LINE
  8
0
 10
105.105
 20
28.1504
 11
105.057
 21
28.275
  0
LINE
  8
0
 10
105.057
 20
28.275
 11
105.023
 21
28.4039
  0
LINE
  8
0
 10
105.023
 20
28.4039
 11
105.002
 21
28.5357
  0
LINE
  8
0
 10
105.002
 20
28.5357
 11
104.995
 21
28.669
  0
LINE
  8
0
 10
104.995
 20
28.669
 11
105.002
 21
28.8023
  0
LINE
  8
0
 10
105.002
 20
28.8023
 11
105.023
 21
28.9341
  0
LINE
  8
0
 10
105.023
 20
28.9341
 11
105.057
 21
29.063
  0
LINE
  8
0
 10
105.057
 20
29.063
 11
105.105
 21
29.1876
  0
LINE
  8
0
 10
105.105
 20
29.1876
 11
105.166
 21
29.3065
  0
LINE
  8
0
 10
105.166
 20
29.3065
 11
105.238
 21
29.4184
  0
LINE
  8
0
 10
105.238
 20
29.4184
 11
105.322
 21
29.5221
  0
LINE
  8
0
 10
105.322
 20
29.5221
 11
105.417
 21
29.6165
  0
LINE
  8
0
 10
105.417
 20
29.6165
 11
105.521
 21
29.7005
  0
LINE
  8
0
 10
105.521
 20
29.7005
 11
105.632
 21
29.7732
  0
LINE
  8
0
 10
105.632
 20
29.7732
 11
105.751
 21
29.8338
  0
LINE
  8
0
 10
105.751
 20
29.8338
 11
105.876
 21
29.8816
  0
LINE
  8
0
 10
105.876
 20
29.8816
 11
106.005
 21
29.9161
  0
LINE
  8
0
 10
106.005
 20
29.9161
 11
106.137
 21
29.937
  0
LINE
  8
0
 10
106.137
 20
29.937
 11
106.27
 21
29.944
  0
LINE
  8
0
 10
106.27
 20
29.944
 11
106.403
 21
29.937
  0
LINE
  8
0
 10
106.403
 20
29.937
 11
106.535
 21
29.9161
  0
LINE
  8
0
 10
106.535
 20
29.9161
 11
106.664
 21
29.8816
  0
LINE
  8
0
 10
106.664
 20
29.8816
 11
106.789
 21
29.8338
  0
LINE
  8
0
 10
106.789
 20
29.8338
 11
106.908
 21
29.7732
  0
LINE
  8
0
 10
106.908
 20
29.7732
 11
107.019
 21
29.7005
  0
LINE
  8
0
 10
107.019
 20
29.7005
 11
107.123
 21
29.6165
  0
LINE
  8
0
 10
107.123
 20
29.6165
 11
107.217
 21
29.5221
  0
LINE
  8
0
 10
107.217
 20
29.5221
 11
107.301
 21
29.4184
  0
LINE
  8
0
 10
107.301
 20
29.4184
 11
107.374
 21
29.3065
  0
LINE
  8
0
 10
107.374
 20
29.3065
 11
107.435
 21
29.1876
  0
LINE
  8
0
 10
107.435
 20
29.1876
 11
107.483
 21
29.063
  0
LINE
  8
0
 10
107.483
 20
29.063
 11
107.517
 21
28.9341
  0
LINE
  8
0
 10
107.517
 20
28.9341
 11
107.538
 21
28.8023
  0
LINE
  8
0
 10
107.538
 20
28.8023
 11
107.545
 21
28.669
  0
LINE
  8
0
 10
107.545
 20
28.669
 11
107.538
 21
28.5357
  0
LINE
  8
0
 10
107.538
 20
28.5357
 11
107.517
 21
28.4039
  0
LINE
  8
0
 10
107.517
 20
28.4039
 11
107.483
 21
28.275
  0
LINE
  8
0
 10
107.483
 20
28.275
 11
107.435
 21
28.1504
  0
LINE
  8
0
 10
107.435
 20
28.1504
 11
107.374
 21
28.0315
  0
LINE
  8
0
 10
107.374
 20
28.0315
 11
107.301
 21
27.9196
  0
LINE
  8
0
 10
107.301
 20
27.9196
 11
107.217
 21
27.8159
  0
LINE
  8
0
 10
107.217
 20
27.8159
 11
107.123
 21
27.7215
  0
LINE
  8
0
 10
107.123
 20
27.7215
 11
107.019
 21
27.6375
  0
LINE
  8
0
 10
107.019
 20
27.6375
 11
106.908
 21
27.5648
  0
LINE
  8
0
 10
106.908
 20
27.5648
 11
106.789
 21
27.5042
  0
LINE
  8
0
 10
106.789
 20
27.5042
 11
106.664
 21
27.4564
  0
LINE
  8
0
 10
106.664
 20
27.4564
 11
106.535
 21
27.4219
  0
LINE
  8
0
 10
106.535
 20
27.4219
 11
106.403
 21
27.401
  0
LINE
  8
0
 10
106.403
 20
27.401
 11
106.27
 21
27.394
  0
LINE
  8
0
 10
106.27
 20
27.394
 11
106.137
 21
27.401
  0
LINE
  8
0
 10
116.137
 20
27.401
 11
116.005
 21
27.4219
  0
LINE
  8
0
 10
116.005
 20
27.4219
 11
115.876
 21
27.4564
  0
LINE
  8
0
 10
115.876
 20
27.4564
 11
115.751
 21
27.5042
  0
LINE
  8
0
 10
115.751
 20
27.5042
 11
115.632
 21
27.5648
  0
LINE
  8
0
 10
115.632
 20
27.5648
 11
115.521
 21
27.6375
  0
LINE
  8
0
 10
115.521
 20
27.6375
 11
115.417
 21
27.7215
  0
LINE
  8
0
 10
115.417
 20
27.7215
 11
115.322
 21
27.8159
  0
LINE
  8
0
 10
115.322
 20
27.8159
 11
115.238
 21
27.9196
  0
LINE
  8
0
 10
115.238
 20
27.9196
 11
115.166
 21
28.0315
  0
LINE
  8
0
 10
115.166
 20
28.0315
 11
115.105
 21
28.1504
  0
LINE
  8
0
 10
115.105
 20
28.1504
 11
115.057
 21
28.275
  0
LINE
  8
0
 10
115.057
 20
28.275
 11
115.023
 21
28.4039
  0
LINE
  8
0
 10
115.023
 20
28.4039
 11
115.002
 21
28.5357
  0
LINE
  8
0
 10
115.002
 20
28.5357
 11
114.995
 21
28.669
  0
LINE
  8
0
 10
114.995
 20
28.669
 11
115.002
 21
28.8023
  0
LINE
  8
0
 10
115.002
 20
28.8023
 11
115.023
 21
28.9341
  0
LINE
  8
0
 10
115.023
 20
28.9341
 11
115.057
 21
29.063
  0
LINE
  8
0
 10
115.057
 20
29.063
 11
115.105
 21
29.1876
  0
LINE
  8
0
 10
115.105
 20
29.1876
 11
115.166
 21
29.3065
  0
LINE
  8
0
 10
115.166
 20
29.3065
 11
115.238
 21
29.4184
  0
LINE
  8
0
 10
115.238
 20
29.4184
 11
115.322
 21
29.5221
  0
LINE
  8
0
 10
115.322
 20
29.5221
 11
115.417
 21
29.6165
  0
LINE
  8
0
 10
115.417
 20
29.6165
 11
115.521
 21
29.7005
  0
LINE
  8
0
 10
115.521
 20
29.7005
 11
115.632
 21
29.7732
  0
LINE
  8
0
 10
115.632
 20
29.7732
 11
115.751
 21
29.8338
  0
LINE
  8
0
 10
115.751
 20
29.8338
 11
115.876
 21
29.8816
  0
LINE
  8
0
 10
115.876
 20
29.8816
 11
116.005
 21
29.9161
  0
LINE
  8
0
 10
116.005
 20
29.9161
 11
116.137
 21
29.937
  0
LINE
  8
0
 10
116.137
 20
29.937
 11
116.27
 21
29.944
  0
LINE
  8
0
 10
116.27
 20
29.944
 11
116.403
 21
29.937
  0
LINE
  8
0
 10
116.403
 20
29.937
 11
116.535
 21
29.9161
  0
LINE
  8
0
 10
116.535
 20
29.9161
 11
116.664
 21
29.8816
  0
LINE
  8
0
 10
116.664
 20
29.8816
 11
116.789
 21
29.8338
  0
LINE
  8
0
 10
116.789
 20
29.8338
 11
116.908
 21
29.7732
  0
LINE
  8
0
 10
116.908
 20
29.7732
 11
117.019
 21
29.7005
  0
LINE
  8
0
 10
117.019
 20
29.7005
 11
117.123
 21
29.6165
  0
LINE
  8
0
 10
117.123
 20
29.6165
 11
117.217
 21
29.5221
  0
LINE
  8
0
 10
117.217
 20
29.5221
 11
117.301
 21
29.4184
  0
LINE
  8
0
 10
117.301
 20
29.4184
 11
117.374
 21
29.3065
  0
LINE
  8
0
 10
117.374
 20
29.3065
 11
117.435
 21
29.1876
  0
LINE
  8
0
 10
117.435
 20
29.1876
 11
117.483
 21
29.063
  0
LINE
  8
0
 10
117.483
 20
29.063
 11
117.517
 21
28.9341
  0
LINE
  8
0
 10
117.517
 20
28.9341
 11
117.538
 21
28.8023
  0
LINE
  8
0
 10
117.538
 20
28.8023
 11
117.545
 21
28.669
  0
LINE
  8
0
 10
117.545
 20
28.669
 11
117.538
 21
28.5357
  0
LINE
  8
0
 10
117.538
 20
28.5357
 11
117.517
 21
28.4039
  0
LINE
  8
0
 10
117.517
 20
28.4039
 11
117.483
 21
28.275
  0
LINE
  8
0
 10
117.483
 20
28.275
 11
117.435
 21
28.1504
  0
LINE
  8
0
 10
117.435
 20
28.1504
 11
117.374
 21
28.0315
  0
LINE
  8
0
 10
117.374
 20
28.0315
 11
117.301
 21
27.9196
  0
LINE
  8
0
 10
117.301
 20
27.9196
 11
117.217
 21
27.8159
  0
LINE
  8
0
 10
117.217
 20
27.8159
 11
117.123
 21
27.7215
  0
LINE
  8
0
 10
117.123
 20
27.7215
 11
117.019
 21
27.6375
  0
LINE
  8
0
 10
117.019
 20
27.6375
 11
116.908
 21
27.5648
  0
LINE
  8
0
 10
116.908
 20
27.5648
 11
116.789
 21
27.5042
  0
LINE
  8
0
 10
116.789
 20
27.5042
 11
116.664
 21
27.4564
  0
LINE
  8
0
 10
116.664
 20
27.4564
 11
116.535
 21
27.4219
  0
LINE
  8
0
 10
116.535
 20
27.4219
 11
116.403
 21
27.401
  0
LINE
  8
0
 10
116.403
 20
27.401
 11
116.27
 21
27.394
  0
LINE
  8
0
 10
116.27
 20
27.394
 11
116.137
 21
27.401
  0
LINE
  8
0
 10
64.6967
 20
27.401
 11
64.5649
 21
27.4219
  0
LINE
  8
0
 10
64.5649
 20
27.4219
 11
64.436
 21
27.4564
  0
LINE
  8
0
 10
64.436
 20
27.4564
 11
64.3114
 21
27.5042
  0
LINE
  8
0
 10
64.3114
 20
27.5042
 11
64.1925
 21
27.5648
  0
LINE
  8
0
 10
64.1925
 20
27.5648
 11
64.0806
 21
27.6375
  0
LINE
  8
0
 10
64.0806
 20
27.6375
 11
63.9769
 21
27.7215
  0
LINE
  8
0
 10
63.9769
 20
27.7215
 11
63.8825
 21
27.8159
  0
LINE
  8
0
 10
63.8825
 20
27.8159
 11
63.7985
 21
27.9196
  0
LINE
  8
0
 10
63.7985
 20
27.9196
 11
63.7258
 21
28.0315
  0
LINE
  8
0
 10
63.7258
 20
28.0315
 11
63.6652
 21
28.1504
  0
LINE
  8
0
 10
63.6652
 20
28.1504
 11
63.6174
 21
28.275
  0
LINE
  8
0
 10
63.6174
 20
28.275
 11
63.5829
 21
28.4039
  0
LINE
  8
0
 10
63.5829
 20
28.4039
 11
63.562
 21
28.5357
  0
LINE
  8
0
 10
63.562
 20
28.5357
 11
63.555
 21
28.669
  0
LINE
  8
0
 10
63.555
 20
28.669
 11
63.562
 21
28.8023
  0
LINE
  8
0
 10
63.562
 20
28.8023
 11
63.5829
 21
28.9341
  0
LINE
  8
0
 10
63.5829
 20
28.9341
 11
63.6174
 21
29.063
  0
LINE
  8
0
 10
63.6174
 20
29.063
 11
63.6652
 21
29.1876
  0
LINE
  8
0
 10
63.6652
 20
29.1876
 11
63.7258
 21
29.3065
  0
LINE
  8
0
 10
63.7258
 20
29.3065
 11
63.7985
 21
29.4184
  0
LINE
  8
0
 10
63.7985
 20
29.4184
 11
63.8825
 21
29.5221
  0
LINE
  8
0
 10
63.8825
 20
29.5221
 11
63.9769
 21
29.6165
  0
LINE
  8
0
 10
63.9769
 20
29.6165
 11
64.0806
 21
29.7005
  0
LINE
  8
0
 10
64.0806
 20
29.7005
 11
64.1925
 21
29.7732
  0
LINE
  8
0
 10
64.1925
 20
29.7732
 11
64.3114
 21
29.8338
  0
LINE
  8
0
 10
64.3114
 20
29.8338
 11
64.436
 21
29.8816
  0
LINE
  8
0
 10
64.436
 20
29.8816
 11
64.5649
 21
29.9161
  0
LINE
  8
0
 10
64.5649
 20
29.9161
 11
64.6967
 21
29.937
  0
LINE
  8
0
 10
64.6967
 20
29.937
 11
64.83
 21
29.944
  0
LINE
  8
0
 10
64.83
 20
29.944
 11
64.9633
 21
29.937
  0
LINE
  8
0
 10
64.9633
 20
29.937
 11
65.0951
 21
29.9161
  0
LINE
  8
0
 10
65.0951
 20
29.9161
 11
65.224
 21
29.8816
  0
LINE
  8
0
 10
65.224
 20
29.8816
 11
65.3486
 21
29.8338
  0
LINE
  8
0
 10
65.3486
 20
29.8338
 11
65.4675
 21
29.7732
  0
LINE
  8
0
 10
65.4675
 20
29.7732
 11
65.5794
 21
29.7005
  0
LINE
  8
0
 10
65.5794
 20
29.7005
 11
65.6831
 21
29.6165
  0
LINE
  8
0
 10
65.6831
 20
29.6165
 11
65.7775
 21
29.5221
  0
LINE
  8
0
 10
65.7775
 20
29.5221
 11
65.8615
 21
29.4184
  0
LINE
  8
0
 10
65.8615
 20
29.4184
 11
65.9342
 21
29.3065
  0
LINE
  8
0
 10
65.9342
 20
29.3065
 11
65.9948
 21
29.1876
  0
LINE
  8
0
 10
65.9948
 20
29.1876
 11
66.0426
 21
29.063
  0
LINE
  8
0
 10
66.0426
 20
29.063
 11
66.0771
 21
28.9341
  0
LINE
  8
0
 10
66.0771
 20
28.9341
 11
66.098
 21
28.8023
  0
LINE
  8
0
 10
66.098
 20
28.8023
 11
66.105
 21
28.669
  0
LINE
  8
0
 10
66.105
 20
28.669
 11
66.098
 21
28.5357
  0
LINE
  8
0
 10
66.098
 20
28.5357
 11
66.0771
 21
28.4039
  0
LINE
  8
0
 10
66.0771
 20
28.4039
 11
66.0426
 21
28.275
  0
LINE
  8
0
 10
66.0426
 20
28.275
 11
65.9948
 21
28.1504
  0
LINE
  8
0
 10
65.9948
 20
28.1504
 11
65.9342
 21
28.0315
  0
LINE
  8
0
 10
65.9342
 20
28.0315
 11
65.8615
 21
27.9196
  0
LINE
  8
0
 10
65.8615
 20
27.9196
 11
65.7775
 21
27.8159
  0
LINE
  8
0
 10
65.7775
 20
27.8159
 11
65.6831
 21
27.7215
  0
LINE
  8
0
 10
65.6831
 20
27.7215
 11
65.5794
 21
27.6375
  0
LINE
  8
0
 10
65.5794
 20
27.6375
 11
65.4675
 21
27.5648
  0
LINE
  8
0
 10
65.4675
 20
27.5648
 11
65.3486
 21
27.5042
  0
LINE
  8
0
 10
65.3486
 20
27.5042
 11
65.224
 21
27.4564
  0
LINE
  8
0
 10
65.224
 20
27.4564
 11
65.0951
 21
27.4219
  0
LINE
  8
0
 10
65.0951
 20
27.4219
 11
64.9633
 21
27.401
  0
LINE
  8
0
 10
64.9633
 20
27.401
 11
64.83
 21
27.394
  0
LINE
  8
0
 10
64.83
 20
27.394
 11
64.6967
 21
27.401
  0
LINE
  8
0
 10
83.9967
 20
27.401
 11
83.8649
 21
27.4219
  0
LINE
  8
0
 10
83.8649
 20
27.4219
 11
83.736
 21
27.4564
  0
LINE
  8
0
 10
83.736
 20
27.4564
 11
83.6114
 21
27.5042
  0
LINE
  8
0
 10
83.6114
 20
27.5042
 11
83.4925
 21
27.5648
  0
LINE
  8
0
 10
83.4925
 20
27.5648
 11
83.3806
 21
27.6375
  0
LINE
  8
0
 10
83.3806
 20
27.6375
 11
83.2769
 21
27.7215
  0
LINE
  8
0
 10
83.2769
 20
27.7215
 11
83.1825
 21
27.8159
  0
LINE
  8
0
 10
83.1825
 20
27.8159
 11
83.0985
 21
27.9196
  0
LINE
  8
0
 10
83.0985
 20
27.9196
 11
83.0258
 21
28.0315
  0
LINE
  8
0
 10
83.0258
 20
28.0315
 11
82.9652
 21
28.1504
  0
LINE
  8
0
 10
82.9652
 20
28.1504
 11
82.9174
 21
28.275
  0
LINE
  8
0
 10
82.9174
 20
28.275
 11
82.8829
 21
28.4039
  0
LINE
  8
0
 10
82.8829
 20
28.4039
 11
82.862
 21
28.5357
  0
LINE
  8
0
 10
82.862
 20
28.5357
 11
82.855
 21
28.669
  0
LINE
  8
0
 10
82.855
 20
28.669
 11
82.862
 21
28.8023
  0
LINE
  8
0
 10
82.862
 20
28.8023
 11
82.8829
 21
28.9341
  0
LINE
  8
0
 10
82.8829
 20
28.9341
 11
82.9174
 21
29.063
  0
LINE
  8
0
 10
82.9174
 20
29.063
 11
82.9652
 21
29.1876
  0
LINE
  8
0
 10
82.9652
 20
29.1876
 11
83.0258
 21
29.3065
  0
LINE
  8
0
 10
83.0258
 20
29.3065
 11
83.0985
 21
29.4184
  0
LINE
  8
0
 10
83.0985
 20
29.4184
 11
83.1825
 21
29.5221
  0
LINE
  8
0
 10
83.1825
 20
29.5221
 11
83.2769
 21
29.6165
  0
LINE
  8
0
 10
83.2769
 20
29.6165
 11
83.3806
 21
29.7005
  0
LINE
  8
0
 10
83.3806
 20
29.7005
 11
83.4925
 21
29.7732
  0
LINE
  8
0
 10
83.4925
 20
29.7732
 11
83.6114
 21
29.8338
  0
LINE
  8
0
 10
83.6114
 20
29.8338
 11
83.736
 21
29.8816
  0
LINE
  8
0
 10
83.736
 20
29.8816
 11
83.8649
 21
29.9161
  0
LINE
  8
0
 10
83.8649
 20
29.9161
 11
83.9967
 21
29.937
  0
LINE
  8
0
 10
83.9967
 20
29.937
 11
84.13
 21
29.944
  0
LINE
  8
0
 10
84.13
 20
29.944
 11
84.2633
 21
29.937
  0
LINE
  8
0
 10
84.2633
 20
29.937
 11
84.3951
 21
29.9161
  0
LINE
  8
0
 10
84.3951
 20
29.9161
 11
84.524
 21
29.8816
  0
LINE
  8
0
 10
84.524
 20
29.8816
 11
84.6486
 21
29.8338
  0
LINE
  8
0
 10
84.6486
 20
29.8338
 11
84.7675
 21
29.7732
  0
LINE
  8
0
 10
84.7675
 20
29.7732
 11
84.8794
 21
29.7005
  0
LINE
  8
0
 10
84.8794
 20
29.7005
 11
84.9831
 21
29.6165
  0
LINE
  8
0
 10
84.9831
 20
29.6165
 11
85.0775
 21
29.5221
  0
LINE
  8
0
 10
85.0775
 20
29.5221
 11
85.1615
 21
29.4184
  0
LINE
  8
0
 10
85.1615
 20
29.4184
 11
85.2342
 21
29.3065
  0
LINE
  8
0
 10
85.2342
 20
29.3065
 11
85.2948
 21
29.1876
  0
LINE
  8
0
 10
85.2948
 20
29.1876
 11
85.3426
 21
29.063
  0
LINE
  8
0
 10
85.3426
 20
29.063
 11
85.3771
 21
28.9341
  0
LINE
  8
0
 10
85.3771
 20
28.9341
 11
85.398
 21
28.8023
  0
LINE
  8
0
 10
85.398
 20
28.8023
 11
85.405
 21
28.669
  0
LINE
  8
0
 10
85.405
 20
28.669
 11
85.398
 21
28.5357
  0
LINE
  8
0
 10
85.398
 20
28.5357
 11
85.3771
 21
28.4039
  0
LINE
  8
0
 10
85.3771
 20
28.4039
 11
85.3426
 21
28.275
  0
LINE
  8
0
 10
85.3426
 20
28.275
 11
85.2948
 21
28.1504
  0
LINE
  8
0
 10
85.2948
 20
28.1504
 11
85.2342
 21
28.0315
  0
LINE
  8
0
 10
85.2342
 20
28.0315
 11
85.1615
 21
27.9196
  0
LINE
  8
0
 10
85.1615
 20
27.9196
 11
85.0775
 21
27.8159
  0
LINE
  8
0
 10
85.0775
 20
27.8159
 11
84.9831
 21
27.7215
  0
LINE
  8
0
 10
84.9831
 20
27.7215
 11
84.8794
 21
27.6375
  0
LINE
  8
0
 10
84.8794
 20
27.6375
 11
84.7675
 21
27.5648
  0
LINE
  8
0
 10
84.7675
 20
27.5648
 11
84.6486
 21
27.5042
  0
LINE
  8
0
 10
84.6486
 20
27.5042
 11
84.524
 21
27.4564
  0
LINE
  8
0
 10
84.524
 20
27.4564
 11
84.3951
 21
27.4219
  0
LINE
  8
0
 10
84.3951
 20
27.4219
 11
84.2633
 21
27.401
  0
LINE
  8
0
 10
84.2633
 20
27.401
 11
84.13
 21
27.394
  0
LINE
  8
0
 10
84.13
 20
27.394
 11
83.9967
 21
27.401
  0
LINE
  8
0
 10
3.59673
 20
27.401
 11
3.4649
 21
27.4219
  0
LINE
  8
0
 10
3.4649
 20
27.4219
 11
3.336
 21
27.4564
  0
LINE
  8
0
 10
3.336
 20
27.4564
 11
3.2114
 21
27.5042
  0
LINE
  8
0
 10
3.2114
 20
27.5042
 11
3.0925
 21
27.5648
  0
LINE
  8
0
 10
3.0925
 20
27.5648
 11
2.98056
 21
27.6375
  0
LINE
  8
0
 10
2.98056
 20
27.6375
 11
2.87685
 21
27.7215
  0
LINE
  8
0
 10
2.87685
 20
27.7215
 11
2.78249
 21
27.8159
  0
LINE
  8
0
 10
2.78249
 20
27.8159
 11
2.6985
 21
27.9196
  0
LINE
  8
0
 10
2.6985
 20
27.9196
 11
2.62581
 21
28.0315
  0
LINE
  8
0
 10
2.62581
 20
28.0315
 11
2.56522
 21
28.1504
  0
LINE
  8
0
 10
2.56522
 20
28.1504
 11
2.5174
 21
28.275
  0
LINE
  8
0
 10
2.5174
 20
28.275
 11
2.48285
 21
28.4039
  0
LINE
  8
0
 10
2.48285
 20
28.4039
 11
2.46198
 21
28.5357
  0
LINE
  8
0
 10
2.46198
 20
28.5357
 11
2.45499
 21
28.669
  0
LINE
  8
0
 10
2.45499
 20
28.669
 11
2.46198
 21
28.8023
  0
LINE
  8
0
 10
2.46198
 20
28.8023
 11
2.48285
 21
28.9341
  0
LINE
  8
0
 10
2.48285
 20
28.9341
 11
2.5174
 21
29.063
  0
LINE
  8
0
 10
2.5174
 20
29.063
 11
2.56522
 21
29.1876
  0
LINE
  8
0
 10
2.56522
 20
29.1876
 11
2.62581
 21
29.3065
  0
LINE
  8
0
 10
2.62581
 20
29.3065
 11
2.6985
 21
29.4184
  0
LINE
  8
0
 10
2.6985
 20
29.4184
 11
2.78249
 21
29.5221
  0
LINE
  8
0
 10
2.78249
 20
29.5221
 11
2.87685
 21
29.6165
  0
LINE
  8
0
 10
2.87685
 20
29.6165
 11
2.98056
 21
29.7005
  0
LINE
  8
0
 10
2.98056
 20
29.7005
 11
3.0925
 21
29.7732
  0
LINE
  8
0
 10
3.0925
 20
29.7732
 11
3.2114
 21
29.8338
  0
LINE
  8
0
 10
3.2114
 20
29.8338
 11
3.336
 21
29.8816
  0
LINE
  8
0
 10
3.336
 20
29.8816
 11
3.4649
 21
29.9161
  0
LINE
  8
0
 10
3.4649
 20
29.9161
 11
3.59673
 21
29.937
  0
LINE
  8
0
 10
3.59673
 20
29.937
 11
3.73
 21
29.944
  0
LINE
  8
0
 10
3.73
 20
29.944
 11
3.86327
 21
29.937
  0
LINE
  8
0
 10
3.86327
 20
29.937
 11
3.99509
 21
29.9161
  0
LINE
  8
0
 10
3.99509
 20
29.9161
 11
4.12399
 21
29.8816
  0
LINE
  8
0
 10
4.12399
 20
29.8816
 11
4.24858
 21
29.8338
  0
LINE
  8
0
 10
4.24858
 20
29.8338
 11
4.36749
 21
29.7732
  0
LINE
  8
0
 10
4.36749
 20
29.7732
 11
4.47942
 21
29.7005
  0
LINE
  8
0
 10
4.47942
 20
29.7005
 11
4.58313
 21
29.6165
  0
LINE
  8
0
 10
4.58313
 20
29.6165
 11
4.67751
 21
29.5221
  0
LINE
  8
0
 10
4.67751
 20
29.5221
 11
4.76149
 21
29.4184
  0
LINE
  8
0
 10
4.76149
 20
29.4184
 11
4.83417
 21
29.3065
  0
LINE
  8
0
 10
4.83417
 20
29.3065
 11
4.89476
 21
29.1876
  0
LINE
  8
0
 10
4.89476
 20
29.1876
 11
4.9426
 21
29.063
  0
LINE
  8
0
 10
4.9426
 20
29.063
 11
4.97713
 21
28.9341
  0
LINE
  8
0
 10
4.97713
 20
28.9341
 11
4.998
 21
28.8023
  0
LINE
  8
0
 10
4.998
 20
28.8023
 11
5.00499
 21
28.669
  0
LINE
  8
0
 10
5.00499
 20
28.669
 11
4.998
 21
28.5357
  0
LINE
  8
0
 10
4.998
 20
28.5357
 11
4.97713
 21
28.4039
  0
LINE
  8
0
 10
4.97713
 20
28.4039
 11
4.9426
 21
28.275
  0
LINE
  8
0
 10
4.9426
 20
28.275
 11
4.89476
 21
28.1504
  0
LINE
  8
0
 10
4.89476
 20
28.1504
 11
4.83417
 21
28.0315
  0
LINE
  8
0
 10
4.83417
 20
28.0315
 11
4.76149
 21
27.9196
  0
LINE
  8
0
 10
4.76149
 20
27.9196
 11
4.67751
 21
27.8159
  0
LINE
  8
0
 10
4.67751
 20
27.8159
 11
4.58313
 21
27.7215
  0
LINE
  8
0
 10
4.58313
 20
27.7215
 11
4.47942
 21
27.6375
  0
LINE
  8
0
 10
4.47942
 20
27.6375
 11
4.36749
 21
27.5648
  0
LINE
  8
0
 10
4.36749
 20
27.5648
 11
4.24858
 21
27.5042
  0
LINE
  8
0
 10
4.24858
 20
27.5042
 11
4.12399
 21
27.4564
  0
LINE
  8
0
 10
4.12399
 20
27.4564
 11
3.99509
 21
27.4219
  0
LINE
  8
0
 10
3.99509
 20
27.4219
 11
3.86327
 21
27.401
  0
LINE
  8
0
 10
3.86327
 20
27.401
 11
3.73
 21
27.394
  0
LINE
  8
0
 10
3.73
 20
27.394
 11
3.59673
 21
27.401
  0
LINE
  8
0
 10
35.7467
 20
27.401
 11
35.6149
 21
27.4219
  0
LINE
  8
0
 10
35.6149
 20
27.4219
 11
35.486
 21
27.4564
  0
LINE
  8
0
 10
35.486
 20
27.4564
 11
35.3614
 21
27.5042
  0
LINE
  8
0
 10
35.3614
 20
27.5042
 11
35.2425
 21
27.5648
  0
LINE
  8
0
 10
35.2425
 20
27.5648
 11
35.1306
 21
27.6375
  0
LINE
  8
0
 10
35.1306
 20
27.6375
 11
35.0269
 21
27.7215
  0
LINE
  8
0
 10
35.0269
 20
27.7215
 11
34.9325
 21
27.8159
  0
LINE
  8
0
 10
34.9325
 20
27.8159
 11
34.8485
 21
27.9196
  0
LINE
  8
0
 10
34.8485
 20
27.9196
 11
34.7758
 21
28.0315
  0
LINE
  8
0
 10
34.7758
 20
28.0315
 11
34.7152
 21
28.1504
  0
LINE
  8
0
 10
34.7152
 20
28.1504
 11
34.6674
 21
28.275
  0
LINE
  8
0
 10
34.6674
 20
28.275
 11
34.6329
 21
28.4039
  0
LINE
  8
0
 10
34.6329
 20
28.4039
 11
34.612
 21
28.5357
  0
LINE
  8
0
 10
34.612
 20
28.5357
 11
34.605
 21
28.669
  0
LINE
  8
0
 10
34.605
 20
28.669
 11
34.612
 21
28.8023
  0
LINE
  8
0
 10
34.612
 20
28.8023
 11
34.6329
 21
28.9341
  0
LINE
  8
0
 10
34.6329
 20
28.9341
 11
34.6674
 21
29.063
  0
LINE
  8
0
 10
34.6674
 20
29.063
 11
34.7152
 21
29.1876
  0
LINE
  8
0
 10
34.7152
 20
29.1876
 11
34.7758
 21
29.3065
  0
LINE
  8
0
 10
34.7758
 20
29.3065
 11
34.8485
 21
29.4184
  0
LINE
  8
0
 10
34.8485
 20
29.4184
 11
34.9325
 21
29.5221
  0
LINE
  8
0
 10
34.9325
 20
29.5221
 11
35.0269
 21
29.6165
  0
LINE
  8
0
 10
35.0269
 20
29.6165
 11
35.1306
 21
29.7005
  0
LINE
  8
0
 10
35.1306
 20
29.7005
 11
35.2425
 21
29.7732
  0
LINE
  8
0
 10
35.2425
 20
29.7732
 11
35.3614
 21
29.8338
  0
LINE
  8
0
 10
35.3614
 20
29.8338
 11
35.486
 21
29.8816
  0
LINE
  8
0
 10
35.486
 20
29.8816
 11
35.6149
 21
29.9161
  0
LINE
  8
0
 10
35.6149
 20
29.9161
 11
35.7467
 21
29.937
  0
LINE
  8
0
 10
35.7467
 20
29.937
 11
35.88
 21
29.944
  0
LINE
  8
0
 10
35.88
 20
29.944
 11
36.0133
 21
29.937
  0
LINE
  8
0
 10
36.0133
 20
29.937
 11
36.1451
 21
29.9161
  0
LINE
  8
0
 10
36.1451
 20
29.9161
 11
36.274
 21
29.8816
  0
LINE
  8
0
 10
36.274
 20
29.8816
 11
36.3986
 21
29.8338
  0
LINE
  8
0
 10
36.3986
 20
29.8338
 11
36.5175
 21
29.7732
  0
LINE
  8
0
 10
36.5175
 20
29.7732
 11
36.6294
 21
29.7005
  0
LINE
  8
0
 10
36.6294
 20
29.7005
 11
36.7331
 21
29.6165
  0
LINE
  8
0
 10
36.7331
 20
29.6165
 11
36.8275
 21
29.5221
  0
LINE
  8
0
 10
36.8275
 20
29.5221
 11
36.9115
 21
29.4184
  0
LINE
  8
0
 10
36.9115
 20
29.4184
 11
36.9842
 21
29.3065
  0
LINE
  8
0
 10
36.9842
 20
29.3065
 11
37.0448
 21
29.1876
  0
LINE
  8
0
 10
37.0448
 20
29.1876
 11
37.0926
 21
29.063
  0
LINE
  8
0
 10
37.0926
 20
29.063
 11
37.1271
 21
28.9341
  0
LINE
  8
0
 10
37.1271
 20
28.9341
 11
37.148
 21
28.8023
  0
LINE
  8
0
 10
37.148
 20
28.8023
 11
37.155
 21
28.669
  0
LINE
  8
0
 10
37.155
 20
28.669
 11
37.148
 21
28.5357
  0
LINE
  8
0
 10
37.148
 20
28.5357
 11
37.1271
 21
28.4039
  0
LINE
  8
0
 10
37.1271
 20
28.4039
 11
37.0926
 21
28.275
  0
LINE
  8
0
 10
37.0926
 20
28.275
 11
37.0448
 21
28.1504
  0
LINE
  8
0
 10
37.0448
 20
28.1504
 11
36.9842
 21
28.0315
  0
LINE
  8
0
 10
36.9842
 20
28.0315
 11
36.9115
 21
27.9196
  0
LINE
  8
0
 10
36.9115
 20
27.9196
 11
36.8275
 21
27.8159
  0
LINE
  8
0
 10
36.8275
 20
27.8159
 11
36.7331
 21
27.7215
  0
LINE
  8
0
 10
36.7331
 20
27.7215
 11
36.6294
 21
27.6375
  0
LINE
  8
0
 10
36.6294
 20
27.6375
 11
36.5175
 21
27.5648
  0
LINE
  8
0
 10
36.5175
 20
27.5648
 11
36.3986
 21
27.5042
  0
LINE
  8
0
 10
36.3986
 20
27.5042
 11
36.274
 21
27.4564
  0
LINE
  8
0
 10
36.274
 20
27.4564
 11
36.1451
 21
27.4219
  0
LINE
  8
0
 10
36.1451
 20
27.4219
 11
36.0133
 21
27.401
  0
LINE
  8
0
 10
36.0133
 20
27.401
 11
35.88
 21
27.394
  0
LINE
  8
0
 10
35.88
 20
27.394
 11
35.7467
 21
27.401
  0
LINE
  8
0
 10
45.3967
 20
27.401
 11
45.2649
 21
27.4219
  0
LINE
  8
0
 10
45.2649
 20
27.4219
 11
45.136
 21
27.4564
  0
LINE
  8
0
 10
45.136
 20
27.4564
 11
45.0114
 21
27.5042
  0
LINE
  8
0
 10
45.0114
 20
27.5042
 11
44.8925
 21
27.5648
  0
LINE
  8
0
 10
44.8925
 20
27.5648
 11
44.7806
 21
27.6375
  0
LINE
  8
0
 10
44.7806
 20
27.6375
 11
44.6768
 21
27.7215
  0
LINE
  8
0
 10
44.6768
 20
27.7215
 11
44.5825
 21
27.8159
  0
LINE
  8
0
 10
44.5825
 20
27.8159
 11
44.4985
 21
27.9196
  0
LINE
  8
0
 10
44.4985
 20
27.9196
 11
44.4258
 21
28.0315
  0
LINE
  8
0
 10
44.4258
 20
28.0315
 11
44.3652
 21
28.1504
  0
LINE
  8
0
 10
44.3652
 20
28.1504
 11
44.3174
 21
28.275
  0
LINE
  8
0
 10
44.3174
 20
28.275
 11
44.2829
 21
28.4039
  0
LINE
  8
0
 10
44.2829
 20
28.4039
 11
44.262
 21
28.5357
  0
LINE
  8
0
 10
44.262
 20
28.5357
 11
44.255
 21
28.669
  0
LINE
  8
0
 10
44.255
 20
28.669
 11
44.262
 21
28.8023
  0
LINE
  8
0
 10
44.262
 20
28.8023
 11
44.2829
 21
28.9341
  0
LINE
  8
0
 10
44.2829
 20
28.9341
 11
44.3174
 21
29.063
  0
LINE
  8
0
 10
44.3174
 20
29.063
 11
44.3652
 21
29.1876
  0
LINE
  8
0
 10
44.3652
 20
29.1876
 11
44.4258
 21
29.3065
  0
LINE
  8
0
 10
44.4258
 20
29.3065
 11
44.4985
 21
29.4184
  0
LINE
  8
0
 10
44.4985
 20
29.4184
 11
44.5825
 21
29.5221
  0
LINE
  8
0
 10
44.5825
 20
29.5221
 11
44.6768
 21
29.6165
  0
LINE
  8
0
 10
44.6768
 20
29.6165
 11
44.7806
 21
29.7005
  0
LINE
  8
0
 10
44.7806
 20
29.7005
 11
44.8925
 21
29.7732
  0
LINE
  8
0
 10
44.8925
 20
29.7732
 11
45.0114
 21
29.8338
  0
LINE
  8
0
 10
45.0114
 20
29.8338
 11
45.136
 21
29.8816
  0
LINE
  8
0
 10
45.136
 20
29.8816
 11
45.2649
 21
29.9161
  0
LINE
  8
0
 10
45.2649
 20
29.9161
 11
45.3967
 21
29.937
  0
LINE
  8
0
 10
45.3967
 20
29.937
 11
45.53
 21
29.944
  0
LINE
  8
0
 10
45.53
 20
29.944
 11
45.6633
 21
29.937
  0
LINE
  8
0
 10
45.6633
 20
29.937
 11
45.7951
 21
29.9161
  0
LINE
  8
0
 10
45.7951
 20
29.9161
 11
45.924
 21
29.8816
  0
LINE
  8
0
 10
45.924
 20
29.8816
 11
46.0486
 21
29.8338
  0
LINE
  8
0
 10
46.0486
 20
29.8338
 11
46.1675
 21
29.7732
  0
LINE
  8
0
 10
46.1675
 20
29.7732
 11
46.2794
 21
29.7005
  0
LINE
  8
0
 10
46.2794
 20
29.7005
 11
46.3831
 21
29.6165
  0
LINE
  8
0
 10
46.3831
 20
29.6165
 11
46.4775
 21
29.5221
  0
LINE
  8
0
 10
46.4775
 20
29.5221
 11
46.5615
 21
29.4184
  0
LINE
  8
0
 10
46.5615
 20
29.4184
 11
46.6342
 21
29.3065
  0
LINE
  8
0
 10
46.6342
 20
29.3065
 11
46.6948
 21
29.1876
  0
LINE
  8
0
 10
46.6948
 20
29.1876
 11
46.7426
 21
29.063
  0
LINE
  8
0
 10
46.7426
 20
29.063
 11
46.7771
 21
28.9341
  0
LINE
  8
0
 10
46.7771
 20
28.9341
 11
46.798
 21
28.8023
  0
LINE
  8
0
 10
46.798
 20
28.8023
 11
46.805
 21
28.669
  0
LINE
  8
0
 10
46.805
 20
28.669
 11
46.798
 21
28.5357
  0
LINE
  8
0
 10
46.798
 20
28.5357
 11
46.7771
 21
28.4039
  0
LINE
  8
0
 10
46.7771
 20
28.4039
 11
46.7426
 21
28.275
  0
LINE
  8
0
 10
46.7426
 20
28.275
 11
46.6948
 21
28.1504
  0
LINE
  8
0
 10
46.6948
 20
28.1504
 11
46.6342
 21
28.0315
  0
LINE
  8
0
 10
46.6342
 20
28.0315
 11
46.5615
 21
27.9196
  0
LINE
  8
0
 10
46.5615
 20
27.9196
 11
46.4775
 21
27.8159
  0
LINE
  8
0
 10
46.4775
 20
27.8159
 11
46.3831
 21
27.7215
  0
LINE
  8
0
 10
46.3831
 20
27.7215
 11
46.2794
 21
27.6375
  0
LINE
  8
0
 10
46.2794
 20
27.6375
 11
46.1675
 21
27.5648
  0
LINE
  8
0
 10
46.1675
 20
27.5648
 11
46.0486
 21
27.5042
  0
LINE
  8
0
 10
46.0486
 20
27.5042
 11
45.924
 21
27.4564
  0
LINE
  8
0
 10
45.924
 20
27.4564
 11
45.7951
 21
27.4219
  0
LINE
  8
0
 10
45.7951
 20
27.4219
 11
45.6633
 21
27.401
  0
LINE
  8
0
 10
45.6633
 20
27.401
 11
45.53
 21
27.394
  0
LINE
  8
0
 10
45.53
 20
27.394
 11
45.3967
 21
27.401
  0
LINE
  8
0
 10
13.5967
 20
27.401
 11
13.4649
 21
27.4219
  0
LINE
  8
0
 10
13.4649
 20
27.4219
 11
13.336
 21
27.4564
  0
LINE
  8
0
 10
13.336
 20
27.4564
 11
13.2114
 21
27.5042
  0
LINE
  8
0
 10
13.2114
 20
27.5042
 11
13.0925
 21
27.5648
  0
LINE
  8
0
 10
13.0925
 20
27.5648
 11
12.9806
 21
27.6375
  0
LINE
  8
0
 10
12.9806
 20
27.6375
 11
12.8768
 21
27.7215
  0
LINE
  8
0
 10
12.8768
 20
27.7215
 11
12.7825
 21
27.8159
  0
LINE
  8
0
 10
12.7825
 20
27.8159
 11
12.6985
 21
27.9196
  0
LINE
  8
0
 10
12.6985
 20
27.9196
 11
12.6258
 21
28.0315
  0
LINE
  8
0
 10
12.6258
 20
28.0315
 11
12.5652
 21
28.1504
  0
LINE
  8
0
 10
12.5652
 20
28.1504
 11
12.5174
 21
28.275
  0
LINE
  8
0
 10
12.5174
 20
28.275
 11
12.4828
 21
28.4039
  0
LINE
  8
0
 10
12.4828
 20
28.4039
 11
12.462
 21
28.5357
  0
LINE
  8
0
 10
12.462
 20
28.5357
 11
12.455
 21
28.669
  0
LINE
  8
0
 10
12.455
 20
28.669
 11
12.462
 21
28.8023
  0
LINE
  8
0
 10
12.462
 20
28.8023
 11
12.4828
 21
28.9341
  0
LINE
  8
0
 10
12.4828
 20
28.9341
 11
12.5174
 21
29.063
  0
LINE
  8
0
 10
12.5174
 20
29.063
 11
12.5652
 21
29.1876
  0
LINE
  8
0
 10
12.5652
 20
29.1876
 11
12.6258
 21
29.3065
  0
LINE
  8
0
 10
12.6258
 20
29.3065
 11
12.6985
 21
29.4184
  0
LINE
  8
0
 10
12.6985
 20
29.4184
 11
12.7825
 21
29.5221
  0
LINE
  8
0
 10
12.7825
 20
29.5221
 11
12.8768
 21
29.6165
  0
LINE
  8
0
 10
12.8768
 20
29.6165
 11
12.9806
 21
29.7005
  0
LINE
  8
0
 10
12.9806
 20
29.7005
 11
13.0925
 21
29.7732
  0
LINE
  8
0
 10
13.0925
 20
29.7732
 11
13.2114
 21
29.8338
  0
LINE
  8
0
 10
13.2114
 20
29.8338
 11
13.336
 21
29.8816
  0
LINE
  8
0
 10
13.336
 20
29.8816
 11
13.4649
 21
29.9161
  0
LINE
  8
0
 10
13.4649
 20
29.9161
 11
13.5967
 21
29.937
  0
LINE
  8
0
 10
13.5967
 20
29.937
 11
13.73
 21
29.944
  0
LINE
  8
0
 10
13.73
 20
29.944
 11
13.8633
 21
29.937
  0
LINE
  8
0
 10
13.8633
 20
29.937
 11
13.9951
 21
29.9161
  0
LINE
  8
0
 10
13.9951
 20
29.9161
 11
14.124
 21
29.8816
  0
LINE
  8
0
 10
14.124
 20
29.8816
 11
14.2486
 21
29.8338
  0
LINE
  8
0
 10
14.2486
 20
29.8338
 11
14.3675
 21
29.7732
  0
LINE
  8
0
 10
14.3675
 20
29.7732
 11
14.4794
 21
29.7005
  0
LINE
  8
0
 10
14.4794
 20
29.7005
 11
14.5831
 21
29.6165
  0
LINE
  8
0
 10
14.5831
 20
29.6165
 11
14.6775
 21
29.5221
  0
LINE
  8
0
 10
14.6775
 20
29.5221
 11
14.7615
 21
29.4184
  0
LINE
  8
0
 10
14.7615
 20
29.4184
 11
14.8342
 21
29.3065
  0
LINE
  8
0
 10
14.8342
 20
29.3065
 11
14.8948
 21
29.1876
  0
LINE
  8
0
 10
14.8948
 20
29.1876
 11
14.9426
 21
29.063
  0
LINE
  8
0
 10
14.9426
 20
29.063
 11
14.9771
 21
28.9341
  0
LINE
  8
0
 10
14.9771
 20
28.9341
 11
14.998
 21
28.8023
  0
LINE
  8
0
 10
14.998
 20
28.8023
 11
15.005
 21
28.669
  0
LINE
  8
0
 10
15.005
 20
28.669
 11
14.998
 21
28.5357
  0
LINE
  8
0
 10
14.998
 20
28.5357
 11
14.9771
 21
28.4039
  0
LINE
  8
0
 10
14.9771
 20
28.4039
 11
14.9426
 21
28.275
  0
LINE
  8
0
 10
14.9426
 20
28.275
 11
14.8948
 21
28.1504
  0
LINE
  8
0
 10
14.8948
 20
28.1504
 11
14.8342
 21
28.0315
  0
LINE
  8
0
 10
14.8342
 20
28.0315
 11
14.7615
 21
27.9196
  0
LINE
  8
0
 10
14.7615
 20
27.9196
 11
14.6775
 21
27.8159
  0
LINE
  8
0
 10
14.6775
 20
27.8159
 11
14.5831
 21
27.7215
  0
LINE
  8
0
 10
14.5831
 20
27.7215
 11
14.4794
 21
27.6375
  0
LINE
  8
0
 10
14.4794
 20
27.6375
 11
14.3675
 21
27.5648
  0
LINE
  8
0
 10
14.3675
 20
27.5648
 11
14.2486
 21
27.5042
  0
LINE
  8
0
 10
14.2486
 20
27.5042
 11
14.124
 21
27.4564
  0
LINE
  8
0
 10
14.124
 20
27.4564
 11
13.9951
 21
27.4219
  0
LINE
  8
0
 10
13.9951
 20
27.4219
 11
13.8633
 21
27.401
  0
LINE
  8
0
 10
13.8633
 20
27.401
 11
13.73
 21
27.394
  0
LINE
  8
0
 10
13.73
 20
27.394
 11
13.5967
 21
27.401
  0
LINE
  8
0
 10
74.3467
 20
27.401
 11
74.2149
 21
27.4219
  0
LINE
  8
0
 10
74.2149
 20
27.4219
 11
74.086
 21
27.4564
  0
LINE
  8
0
 10
74.086
 20
27.4564
 11
73.9614
 21
27.5042
  0
LINE
  8
0
 10
73.9614
 20
27.5042
 11
73.8425
 21
27.5648
  0
LINE
  8
0
 10
73.8425
 20
27.5648
 11
73.7306
 21
27.6375
  0
LINE
  8
0
 10
73.7306
 20
27.6375
 11
73.6269
 21
27.7215
  0
LINE
  8
0
 10
73.6269
 20
27.7215
 11
73.5325
 21
27.8159
  0
LINE
  8
0
 10
73.5325
 20
27.8159
 11
73.4485
 21
27.9196
  0
LINE
  8
0
 10
73.4485
 20
27.9196
 11
73.3758
 21
28.0315
  0
LINE
  8
0
 10
73.3758
 20
28.0315
 11
73.3152
 21
28.1504
  0
LINE
  8
0
 10
73.3152
 20
28.1504
 11
73.2674
 21
28.275
  0
LINE
  8
0
 10
73.2674
 20
28.275
 11
73.2329
 21
28.4039
  0
LINE
  8
0
 10
73.2329
 20
28.4039
 11
73.212
 21
28.5357
  0
LINE
  8
0
 10
73.212
 20
28.5357
 11
73.205
 21
28.669
  0
LINE
  8
0
 10
73.205
 20
28.669
 11
73.212
 21
28.8023
  0
LINE
  8
0
 10
73.212
 20
28.8023
 11
73.2329
 21
28.9341
  0
LINE
  8
0
 10
73.2329
 20
28.9341
 11
73.2674
 21
29.063
  0
LINE
  8
0
 10
73.2674
 20
29.063
 11
73.3152
 21
29.1876
  0
LINE
  8
0
 10
73.3152
 20
29.1876
 11
73.3758
 21
29.3065
  0
LINE
  8
0
 10
73.3758
 20
29.3065
 11
73.4485
 21
29.4184
  0
LINE
  8
0
 10
73.4485
 20
29.4184
 11
73.5325
 21
29.5221
  0
LINE
  8
0
 10
73.5325
 20
29.5221
 11
73.6269
 21
29.6165
  0
LINE
  8
0
 10
73.6269
 20
29.6165
 11
73.7306
 21
29.7005
  0
LINE
  8
0
 10
73.7306
 20
29.7005
 11
73.8425
 21
29.7732
  0
LINE
  8
0
 10
73.8425
 20
29.7732
 11
73.9614
 21
29.8338
  0
LINE
  8
0
 10
73.9614
 20
29.8338
 11
74.086
 21
29.8816
  0
LINE
  8
0
 10
74.086
 20
29.8816
 11
74.2149
 21
29.9161
  0
LINE
  8
0
 10
74.2149
 20
29.9161
 11
74.3467
 21
29.937
  0
LINE
  8
0
 10
74.3467
 20
29.937
 11
74.48
 21
29.944
  0
LINE
  8
0
 10
74.48
 20
29.944
 11
74.6133
 21
29.937
  0
LINE
  8
0
 10
74.6133
 20
29.937
 11
74.7451
 21
29.9161
  0
LINE
  8
0
 10
74.7451
 20
29.9161
 11
74.874
 21
29.8816
  0
LINE
  8
0
 10
74.874
 20
29.8816
 11
74.9986
 21
29.8338
  0
LINE
  8
0
 10
74.9986
 20
29.8338
 11
75.1175
 21
29.7732
  0
LINE
  8
0
 10
75.1175
 20
29.7732
 11
75.2294
 21
29.7005
  0
LINE
  8
0
 10
75.2294
 20
29.7005
 11
75.3331
 21
29.6165
  0
LINE
  8
0
 10
75.3331
 20
29.6165
 11
75.4275
 21
29.5221
  0
LINE
  8
0
 10
75.4275
 20
29.5221
 11
75.5115
 21
29.4184
  0
LINE
  8
0
 10
75.5115
 20
29.4184
 11
75.5842
 21
29.3065
  0
LINE
  8
0
 10
75.5842
 20
29.3065
 11
75.6448
 21
29.1876
  0
LINE
  8
0
 10
75.6448
 20
29.1876
 11
75.6926
 21
29.063
  0
LINE
  8
0
 10
75.6926
 20
29.063
 11
75.7271
 21
28.9341
  0
LINE
  8
0
 10
75.7271
 20
28.9341
 11
75.748
 21
28.8023
  0
LINE
  8
0
 10
75.748
 20
28.8023
 11
75.755
 21
28.669
  0
LINE
  8
0
 10
75.755
 20
28.669
 11
75.748
 21
28.5357
  0
LINE
  8
0
 10
75.748
 20
28.5357
 11
75.7271
 21
28.4039
  0
LINE
  8
0
 10
75.7271
 20
28.4039
 11
75.6926
 21
28.275
  0
LINE
  8
0
 10
75.6926
 20
28.275
 11
75.6448
 21
28.1504
  0
LINE
  8
0
 10
75.6448
 20
28.1504
 11
75.5842
 21
28.0315
  0
LINE
  8
0
 10
75.5842
 20
28.0315
 11
75.5115
 21
27.9196
  0
LINE
  8
0
 10
75.5115
 20
27.9196
 11
75.4275
 21
27.8159
  0
LINE
  8
0
 10
75.4275
 20
27.8159
 11
75.3331
 21
27.7215
  0
LINE
  8
0
 10
75.3331
 20
27.7215
 11
75.2294
 21
27.6375
  0
LINE
  8
0
 10
75.2294
 20
27.6375
 11
75.1175
 21
27.5648
  0
LINE
  8
0
 10
75.1175
 20
27.5648
 11
74.9986
 21
27.5042
  0
LINE
  8
0
 10
74.9986
 20
27.5042
 11
74.874
 21
27.4564
  0
LINE
  8
0
 10
74.874
 20
27.4564
 11
74.7451
 21
27.4219
  0
LINE
  8
0
 10
74.7451
 20
27.4219
 11
74.6133
 21
27.401
  0
LINE
  8
0
 10
74.6133
 20
27.401
 11
74.48
 21
27.394
  0
LINE
  8
0
 10
74.48
 20
27.394
 11
74.3467
 21
27.401
  0
LINE
  8
0
 10
93.6467
 20
27.401
 11
93.5149
 21
27.4219
  0
LINE
  8
0
 10
93.5149
 20
27.4219
 11
93.386
 21
27.4564
  0
LINE
  8
0
 10
93.386
 20
27.4564
 11
93.2614
 21
27.5042
  0
LINE
  8
0
 10
93.2614
 20
27.5042
 11
93.1425
 21
27.5648
  0
LINE
  8
0
 10
93.1425
 20
27.5648
 11
93.0306
 21
27.6375
  0
LINE
  8
0
 10
93.0306
 20
27.6375
 11
92.9268
 21
27.7215
  0
LINE
  8
0
 10
92.9268
 20
27.7215
 11
92.8325
 21
27.8159
  0
LINE
  8
0
 10
92.8325
 20
27.8159
 11
92.7485
 21
27.9196
  0
LINE
  8
0
 10
92.7485
 20
27.9196
 11
92.6758
 21
28.0315
  0
LINE
  8
0
 10
92.6758
 20
28.0315
 11
92.6152
 21
28.1504
  0
LINE
  8
0
 10
92.6152
 20
28.1504
 11
92.5674
 21
28.275
  0
LINE
  8
0
 10
92.5674
 20
28.275
 11
92.5329
 21
28.4039
  0
LINE
  8
0
 10
92.5329
 20
28.4039
 11
92.512
 21
28.5357
  0
LINE
  8
0
 10
92.512
 20
28.5357
 11
92.505
 21
28.669
  0
LINE
  8
0
 10
92.505
 20
28.669
 11
92.512
 21
28.8023
  0
LINE
  8
0
 10
92.512
 20
28.8023
 11
92.5329
 21
28.9341
  0
LINE
  8
0
 10
92.5329
 20
28.9341
 11
92.5674
 21
29.063
  0
LINE
  8
0
 10
92.5674
 20
29.063
 11
92.6152
 21
29.1876
  0
LINE
  8
0
 10
92.6152
 20
29.1876
 11
92.6758
 21
29.3065
  0
LINE
  8
0
 10
92.6758
 20
29.3065
 11
92.7485
 21
29.4184
  0
LINE
  8
0
 10
92.7485
 20
29.4184
 11
92.8325
 21
29.5221
  0
LINE
  8
0
 10
92.8325
 20
29.5221
 11
92.9268
 21
29.6165
  0
LINE
  8
0
 10
92.9268
 20
29.6165
 11
93.0306
 21
29.7005
  0
LINE
  8
0
 10
93.0306
 20
29.7005
 11
93.1425
 21
29.7732
  0
LINE
  8
0
 10
93.1425
 20
29.7732
 11
93.2614
 21
29.8338
  0
LINE
  8
0
 10
93.2614
 20
29.8338
 11
93.386
 21
29.8816
  0
LINE
  8
0
 10
93.386
 20
29.8816
 11
93.5149
 21
29.9161
  0
LINE
  8
0
 10
93.5149
 20
29.9161
 11
93.6467
 21
29.937
  0
LINE
  8
0
 10
93.6467
 20
29.937
 11
93.78
 21
29.944
  0
LINE
  8
0
 10
93.78
 20
29.944
 11
93.9133
 21
29.937
  0
LINE
  8
0
 10
93.9133
 20
29.937
 11
94.0451
 21
29.9161
  0
LINE
  8
0
 10
94.0451
 20
29.9161
 11
94.174
 21
29.8816
  0
LINE
  8
0
 10
94.174
 20
29.8816
 11
94.2986
 21
29.8338
  0
LINE
  8
0
 10
94.2986
 20
29.8338
 11
94.4175
 21
29.7732
  0
LINE
  8
0
 10
94.4175
 20
29.7732
 11
94.5294
 21
29.7005
  0
LINE
  8
0
 10
94.5294
 20
29.7005
 11
94.6331
 21
29.6165
  0
LINE
  8
0
 10
94.6331
 20
29.6165
 11
94.7275
 21
29.5221
  0
LINE
  8
0
 10
94.7275
 20
29.5221
 11
94.8115
 21
29.4184
  0
LINE
  8
0
 10
94.8115
 20
29.4184
 11
94.8842
 21
29.3065
  0
LINE
  8
0
 10
94.8842
 20
29.3065
 11
94.9448
 21
29.1876
  0
LINE
  8
0
 10
94.9448
 20
29.1876
 11
94.9926
 21
29.063
  0
LINE
  8
0
 10
94.9926
 20
29.063
 11
95.0271
 21
28.9341
  0
LINE
  8
0
 10
95.0271
 20
28.9341
 11
95.048
 21
28.8023
  0
LINE
  8
0
 10
95.048
 20
28.8023
 11
95.055
 21
28.669
  0
LINE
  8
0
 10
95.055
 20
28.669
 11
95.048
 21
28.5357
  0
LINE
  8
0
 10
95.048
 20
28.5357
 11
95.0271
 21
28.4039
  0
LINE
  8
0
 10
95.0271
 20
28.4039
 11
94.9926
 21
28.275
  0
LINE
  8
0
 10
94.9926
 20
28.275
 11
94.9448
 21
28.1504
  0
LINE
  8
0
 10
94.9448
 20
28.1504
 11
94.8842
 21
28.0315
  0
LINE
  8
0
 10
94.8842
 20
28.0315
 11
94.8115
 21
27.9196
  0
LINE
  8
0
 10
94.8115
 20
27.9196
 11
94.7275
 21
27.8159
  0
LINE
  8
0
 10
94.7275
 20
27.8159
 11
94.6331
 21
27.7215
  0
LINE
  8
0
 10
94.6331
 20
27.7215
 11
94.5294
 21
27.6375
  0
LINE
  8
0
 10
94.5294
 20
27.6375
 11
94.4175
 21
27.5648
  0
LINE
  8
0
 10
94.4175
 20
27.5648
 11
94.2986
 21
27.5042
  0
LINE
  8
0
 10
94.2986
 20
27.5042
 11
94.174
 21
27.4564
  0
LINE
  8
0
 10
94.174
 20
27.4564
 11
94.0451
 21
27.4219
  0
LINE
  8
0
 10
94.0451
 20
27.4219
 11
93.9133
 21
27.401
  0
LINE
  8
0
 10
93.9133
 20
27.401
 11
93.78
 21
27.394
  0
LINE
  8
0
 10
93.78
 20
27.394
 11
93.6467
 21
27.401
  0
LINE
  8
0
 10
47.185
 20
18.874
 11
47.0713
 21
18.892
  0
LINE
  8
0
 10
47.0713
 20
18.892
 11
46.9601
 21
18.9218
  0
LINE
  8
0
 10
46.9601
 20
18.9218
 11
46.8526
 21
18.9631
  0
LINE
  8
0
 10
46.8526
 20
18.9631
 11
46.75
 21
19.0154
  0
LINE
  8
0
 10
46.75
 20
19.0154
 11
46.6534
 21
19.0781
  0
LINE
  8
0
 10
46.6534
 20
19.0781
 11
46.5639
 21
19.1505
  0
LINE
  8
0
 10
46.5639
 20
19.1505
 11
46.4825
 21
19.2319
  0
LINE
  8
0
 10
46.4825
 20
19.2319
 11
46.4101
 21
19.3214
  0
LINE
  8
0
 10
46.4101
 20
19.3214
 11
46.3474
 21
19.418
  0
LINE
  8
0
 10
46.3474
 20
19.418
 11
46.2951
 21
19.5206
  0
LINE
  8
0
 10
46.2951
 20
19.5206
 11
46.2538
 21
19.6281
  0
LINE
  8
0
 10
46.2538
 20
19.6281
 11
46.224
 21
19.7393
  0
LINE
  8
0
 10
46.224
 20
19.7393
 11
46.206
 21
19.853
  0
LINE
  8
0
 10
46.206
 20
19.853
 11
46.2
 21
19.968
  0
LINE
  8
0
 10
46.2
 20
19.968
 11
46.206
 21
20.083
  0
LINE
  8
0
 10
46.206
 20
20.083
 11
46.224
 21
20.1967
  0
LINE
  8
0
 10
46.224
 20
20.1967
 11
46.2538
 21
20.3079
  0
LINE
  8
0
 10
46.2538
 20
20.3079
 11
46.2951
 21
20.4154
  0
LINE
  8
0
 10
46.2951
 20
20.4154
 11
46.3474
 21
20.518
  0
LINE
  8
0
 10
46.3474
 20
20.518
 11
46.4101
 21
20.6146
  0
LINE
  8
0
 10
46.4101
 20
20.6146
 11
46.4825
 21
20.704
  0
LINE
  8
0
 10
46.4825
 20
20.704
 11
46.5639
 21
20.7854
  0
LINE
  8
0
 10
46.5639
 20
20.7854
 11
46.6534
 21
20.8579
  0
LINE
  8
0
 10
46.6534
 20
20.8579
 11
46.75
 21
20.9206
  0
LINE
  8
0
 10
46.75
 20
20.9206
 11
46.8526
 21
20.9729
  0
LINE
  8
0
 10
46.8526
 20
20.9729
 11
46.9601
 21
21.0142
  0
LINE
  8
0
 10
46.9601
 20
21.0142
 11
47.0713
 21
21.044
  0
LINE
  8
0
 10
47.0713
 20
21.044
 11
47.185
 21
21.062
  0
LINE
  8
0
 10
47.185
 20
21.062
 11
47.3
 21
21.068
  0
LINE
  8
0
 10
47.3
 20
21.068
 11
47.415
 21
21.062
  0
LINE
  8
0
 10
47.415
 20
21.062
 11
47.5287
 21
21.044
  0
LINE
  8
0
 10
47.5287
 20
21.044
 11
47.6399
 21
21.0142
  0
LINE
  8
0
 10
47.6399
 20
21.0142
 11
47.7474
 21
20.9729
  0
LINE
  8
0
 10
47.7474
 20
20.9729
 11
47.85
 21
20.9206
  0
LINE
  8
0
 10
47.85
 20
20.9206
 11
47.9466
 21
20.8579
  0
LINE
  8
0
 10
47.9466
 20
20.8579
 11
48.036
 21
20.7854
  0
LINE
  8
0
 10
48.036
 20
20.7854
 11
48.1174
 21
20.704
  0
LINE
  8
0
 10
48.1174
 20
20.704
 11
48.1899
 21
20.6146
  0
LINE
  8
0
 10
48.1899
 20
20.6146
 11
48.2526
 21
20.518
  0
LINE
  8
0
 10
48.2526
 20
20.518
 11
48.3049
 21
20.4154
  0
LINE
  8
0
 10
48.3049
 20
20.4154
 11
48.3462
 21
20.3079
  0
LINE
  8
0
 10
48.3462
 20
20.3079
 11
48.376
 21
20.1967
  0
LINE
  8
0
 10
48.376
 20
20.1967
 11
48.394
 21
20.083
  0
LINE
  8
0
 10
48.394
 20
20.083
 11
48.4
 21
19.968
  0
LINE
  8
0
 10
48.4
 20
19.968
 11
48.394
 21
19.853
  0
LINE
  8
0
 10
48.394
 20
19.853
 11
48.376
 21
19.7393
  0
LINE
  8
0
 10
48.376
 20
19.7393
 11
48.3462
 21
19.6281
  0
LINE
  8
0
 10
48.3462
 20
19.6281
 11
48.3049
 21
19.5206
  0
LINE
  8
0
 10
48.3049
 20
19.5206
 11
48.2526
 21
19.418
  0
LINE
  8
0
 10
48.2526
 20
19.418
 11
48.1899
 21
19.3214
  0
LINE
  8
0
 10
48.1899
 20
19.3214
 11
48.1174
 21
19.2319
  0
LINE
  8
0
 10
48.1174
 20
19.2319
 11
48.036
 21
19.1505
  0
LINE
  8
0
 10
48.036
 20
19.1505
 11
47.9466
 21
19.0781
  0
LINE
  8
0
 10
47.9466
 20
19.0781
 11
47.85
 21
19.0154
  0
LINE
  8
0
 10
47.85
 20
19.0154
 11
47.7474
 21
18.9631
  0
LINE
  8
0
 10
47.7474
 20
18.9631
 11
47.6399
 21
18.9218
  0
LINE
  8
0
 10
47.6399
 20
18.9218
 11
47.5287
 21
18.892
  0
LINE
  8
0
 10
47.5287
 20
18.892
 11
47.415
 21
18.874
  0
LINE
  8
0
 10
47.415
 20
18.874
 11
47.3
 21
18.868
  0
LINE
  8
0
 10
47.3
 20
18.868
 11
47.185
 21
18.874
  0
LINE
  8
0
 10
72.585
 20
18.874
 11
72.4713
 21
18.892
  0
LINE
  8
0
 10
72.4713
 20
18.892
 11
72.3601
 21
18.9218
  0
LINE
  8
0
 10
72.3601
 20
18.9218
 11
72.2526
 21
18.9631
  0
LINE
  8
0
 10
72.2526
 20
18.9631
 11
72.15
 21
19.0154
  0
LINE
  8
0
 10
72.15
 20
19.0154
 11
72.0534
 21
19.0781
  0
LINE
  8
0
 10
72.0534
 20
19.0781
 11
71.964
 21
19.1505
  0
LINE
  8
0
 10
71.964
 20
19.1505
 11
71.8825
 21
19.2319
  0
LINE
  8
0
 10
71.8825
 20
19.2319
 11
71.8101
 21
19.3214
  0
LINE
  8
0
 10
71.8101
 20
19.3214
 11
71.7474
 21
19.418
  0
LINE
  8
0
 10
71.7474
 20
19.418
 11
71.6951
 21
19.5206
  0
LINE
  8
0
 10
71.6951
 20
19.5206
 11
71.6538
 21
19.6281
  0
LINE
  8
0
 10
71.6538
 20
19.6281
 11
71.624
 21
19.7393
  0
LINE
  8
0
 10
71.624
 20
19.7393
 11
71.606
 21
19.853
  0
LINE
  8
0
 10
71.606
 20
19.853
 11
71.6
 21
19.968
  0
LINE
  8
0
 10
71.6
 20
19.968
 11
71.606
 21
20.083
  0
LINE
  8
0
 10
71.606
 20
20.083
 11
71.624
 21
20.1967
  0
LINE
  8
0
 10
71.624
 20
20.1967
 11
71.6538
 21
20.3079
  0
LINE
  8
0
 10
71.6538
 20
20.3079
 11
71.6951
 21
20.4154
  0
LINE
  8
0
 10
71.6951
 20
20.4154
 11
71.7474
 21
20.518
  0
LINE
  8
0
 10
71.7474
 20
20.518
 11
71.8101
 21
20.6146
  0
LINE
  8
0
 10
71.8101
 20
20.6146
 11
71.8825
 21
20.704
  0
LINE
  8
0
 10
71.8825
 20
20.704
 11
71.964
 21
20.7854
  0
LINE
  8
0
 10
71.964
 20
20.7854
 11
72.0534
 21
20.8579
  0
LINE
  8
0
 10
72.0534
 20
20.8579
 11
72.15
 21
20.9206
  0
LINE
  8
0
 10
72.15
 20
20.9206
 11
72.2526
 21
20.9729
  0
LINE
  8
0
 10
72.2526
 20
20.9729
 11
72.3601
 21
21.0142
  0
LINE
  8
0
 10
72.3601
 20
21.0142
 11
72.4713
 21
21.044
  0
LINE
  8
0
 10
72.4713
 20
21.044
 11
72.585
 21
21.062
  0
LINE
  8
0
 10
72.585
 20
21.062
 11
72.7
 21
21.068
  0
LINE
  8
0
 10
72.7
 20
21.068
 11
72.815
 21
21.062
  0
LINE
  8
0
 10
72.815
 20
21.062
 11
72.9287
 21
21.044
  0
LINE
  8
0
 10
72.9287
 20
21.044
 11
73.0399
 21
21.0142
  0
LINE
  8
0
 10
73.0399
 20
21.0142
 11
73.1474
 21
20.9729
  0
LINE
  8
0
 10
73.1474
 20
20.9729
 11
73.25
 21
20.9206
  0
LINE
  8
0
 10
73.25
 20
20.9206
 11
73.3466
 21
20.8579
  0
LINE
  8
0
 10
73.3466
 20
20.8579
 11
73.436
 21
20.7854
  0
LINE
  8
0
 10
73.436
 20
20.7854
 11
73.5175
 21
20.704
  0
LINE
  8
0
 10
73.5175
 20
20.704
 11
73.5899
 21
20.6146
  0
LINE
  8
0
 10
73.5899
 20
20.6146
 11
73.6526
 21
20.518
  0
LINE
  8
0
 10
73.6526
 20
20.518
 11
73.7049
 21
20.4154
  0
LINE
  8
0
 10
73.7049
 20
20.4154
 11
73.7462
 21
20.3079
  0
LINE
  8
0
 10
73.7462
 20
20.3079
 11
73.776
 21
20.1967
  0
LINE
  8
0
 10
73.776
 20
20.1967
 11
73.794
 21
20.083
  0
LINE
  8
0
 10
73.794
 20
20.083
 11
73.8
 21
19.968
  0
LINE
  8
0
 10
73.8
 20
19.968
 11
73.794
 21
19.853
  0
LINE
  8
0
 10
73.794
 20
19.853
 11
73.776
 21
19.7393
  0
LINE
  8
0
 10
73.776
 20
19.7393
 11
73.7462
 21
19.6281
  0
LINE
  8
0
 10
73.7462
 20
19.6281
 11
73.7049
 21
19.5206
  0
LINE
  8
0
 10
73.7049
 20
19.5206
 11
73.6526
 21
19.418
  0
LINE
  8
0
 10
73.6526
 20
19.418
 11
73.5899
 21
19.3214
  0
LINE
  8
0
 10
73.5899
 20
19.3214
 11
73.5175
 21
19.2319
  0
LINE
  8
0
 10
73.5175
 20
19.2319
 11
73.436
 21
19.1505
  0
LINE
  8
0
 10
73.436
 20
19.1505
 11
73.3466
 21
19.0781
  0
LINE
  8
0
 10
73.3466
 20
19.0781
 11
73.25
 21
19.0154
  0
LINE
  8
0
 10
73.25
 20
19.0154
 11
73.1474
 21
18.9631
  0
LINE
  8
0
 10
73.1474
 20
18.9631
 11
73.0399
 21
18.9218
  0
LINE
  8
0
 10
73.0399
 20
18.9218
 11
72.9287
 21
18.892
  0
LINE
  8
0
 10
72.9287
 20
18.892
 11
72.815
 21
18.874
  0
LINE
  8
0
 10
72.815
 20
18.874
 11
72.7
 21
18.868
  0
LINE
  8
0
 10
72.7
 20
18.868
 11
72.585
 21
18.874
  0
LINE
  8
0
 10
21.785
 20
18.874
 11
21.6713
 21
18.892
  0
LINE
  8
0
 10
21.6713
 20
18.892
 11
21.5601
 21
18.9218
  0
LINE
  8
0
 10
21.5601
 20
18.9218
 11
21.4526
 21
18.9631
  0
LINE
  8
0
 10
21.4526
 20
18.9631
 11
21.35
 21
19.0154
  0
LINE
  8
0
 10
21.35
 20
19.0154
 11
21.2534
 21
19.0781
  0
LINE
  8
0
 10
21.2534
 20
19.0781
 11
21.164
 21
19.1505
  0
LINE
  8
0
 10
21.164
 20
19.1505
 11
21.0825
 21
19.2319
  0
LINE
  8
0
 10
21.0825
 20
19.2319
 11
21.0101
 21
19.3214
  0
LINE
  8
0
 10
21.0101
 20
19.3214
 11
20.9474
 21
19.418
  0
LINE
  8
0
 10
20.9474
 20
19.418
 11
20.8951
 21
19.5206
  0
LINE
  8
0
 10
20.8951
 20
19.5206
 11
20.8538
 21
19.6281
  0
LINE
  8
0
 10
20.8538
 20
19.6281
 11
20.824
 21
19.7393
  0
LINE
  8
0
 10
20.824
 20
19.7393
 11
20.806
 21
19.853
  0
LINE
  8
0
 10
20.806
 20
19.853
 11
20.8
 21
19.968
  0
LINE
  8
0
 10
20.8
 20
19.968
 11
20.806
 21
20.083
  0
LINE
  8
0
 10
20.806
 20
20.083
 11
20.824
 21
20.1967
  0
LINE
  8
0
 10
20.824
 20
20.1967
 11
20.8538
 21
20.3079
  0
LINE
  8
0
 10
20.8538
 20
20.3079
 11
20.8951
 21
20.4154
  0
LINE
  8
0
 10
20.8951
 20
20.4154
 11
20.9474
 21
20.518
  0
LINE
  8
0
 10
20.9474
 20
20.518
 11
21.0101
 21
20.6146
  0
LINE
  8
0
 10
21.0101
 20
20.6146
 11
21.0825
 21
20.704
  0
LINE
  8
0
 10
21.0825
 20
20.704
 11
21.164
 21
20.7854
  0
LINE
  8
0
 10
21.164
 20
20.7854
 11
21.2534
 21
20.8579
  0
LINE
  8
0
 10
21.2534
 20
20.8579
 11
21.35
 21
20.9206
  0
LINE
  8
0
 10
21.35
 20
20.9206
 11
21.4526
 21
20.9729
  0
LINE
  8
0
 10
21.4526
 20
20.9729
 11
21.5601
 21
21.0142
  0
LINE
  8
0
 10
21.5601
 20
21.0142
 11
21.6713
 21
21.044
  0
LINE
  8
0
 10
21.6713
 20
21.044
 11
21.785
 21
21.062
  0
LINE
  8
0
 10
21.785
 20
21.062
 11
21.9
 21
21.068
  0
LINE
  8
0
 10
21.9
 20
21.068
 11
22.015
 21
21.062
  0
LINE
  8
0
 10
22.015
 20
21.062
 11
22.1287
 21
21.044
  0
LINE
  8
0
 10
22.1287
 20
21.044
 11
22.2399
 21
21.0142
  0
LINE
  8
0
 10
22.2399
 20
21.0142
 11
22.3474
 21
20.9729
  0
LINE
  8
0
 10
22.3474
 20
20.9729
 11
22.45
 21
20.9206
  0
LINE
  8
0
 10
22.45
 20
20.9206
 11
22.5466
 21
20.8579
  0
LINE
  8
0
 10
22.5466
 20
20.8579
 11
22.636
 21
20.7854
  0
LINE
  8
0
 10
22.636
 20
20.7854
 11
22.7175
 21
20.704
  0
LINE
  8
0
 10
22.7175
 20
20.704
 11
22.7899
 21
20.6146
  0
LINE
  8
0
 10
22.7899
 20
20.6146
 11
22.8526
 21
20.518
  0
LINE
  8
0
 10
22.8526
 20
20.518
 11
22.9049
 21
20.4154
  0
LINE
  8
0
 10
22.9049
 20
20.4154
 11
22.9462
 21
20.3079
  0
LINE
  8
0
 10
22.9462
 20
20.3079
 11
22.976
 21
20.1967
  0
LINE
  8
0
 10
22.976
 20
20.1967
 11
22.994
 21
20.083
  0
LINE
  8
0
 10
22.994
 20
20.083
 11
23
 21
19.968
  0
LINE
  8
0
 10
23
 20
19.968
 11
22.994
 21
19.853
  0
LINE
  8
0
 10
22.994
 20
19.853
 11
22.976
 21
19.7393
  0
LINE
  8
0
 10
22.976
 20
19.7393
 11
22.9462
 21
19.6281
  0
LINE
  8
0
 10
22.9462
 20
19.6281
 11
22.9049
 21
19.5206
  0
LINE
  8
0
 10
22.9049
 20
19.5206
 11
22.8526
 21
19.418
  0
LINE
  8
0
 10
22.8526
 20
19.418
 11
22.7899
 21
19.3214
  0
LINE
  8
0
 10
22.7899
 20
19.3214
 11
22.7175
 21
19.2319
  0
LINE
  8
0
 10
22.7175
 20
19.2319
 11
22.636
 21
19.1505
  0
LINE
  8
0
 10
22.636
 20
19.1505
 11
22.5466
 21
19.0781
  0
LINE
  8
0
 10
22.5466
 20
19.0781
 11
22.45
 21
19.0154
  0
LINE
  8
0
 10
22.45
 20
19.0154
 11
22.3474
 21
18.9631
  0
LINE
  8
0
 10
22.3474
 20
18.9631
 11
22.2399
 21
18.9218
  0
LINE
  8
0
 10
22.2399
 20
18.9218
 11
22.1287
 21
18.892
  0
LINE
  8
0
 10
22.1287
 20
18.892
 11
22.015
 21
18.874
  0
LINE
  8
0
 10
22.015
 20
18.874
 11
21.9
 21
18.868
  0
LINE
  8
0
 10
21.9
 20
18.868
 11
21.785
 21
18.874
  0
LINE
  8
0
 10
97.985
 20
18.874
 11
97.8713
 21
18.892
  0
LINE
  8
0
 10
97.8713
 20
18.892
 11
97.7601
 21
18.9218
  0
LINE
  8
0
 10
97.7601
 20
18.9218
 11
97.6526
 21
18.9631
  0
LINE
  8
0
 10
97.6526
 20
18.9631
 11
97.55
 21
19.0154
  0
LINE
  8
0
 10
97.55
 20
19.0154
 11
97.4534
 21
19.0781
  0
LINE
  8
0
 10
97.4534
 20
19.0781
 11
97.364
 21
19.1505
  0
LINE
  8
0
 10
97.364
 20
19.1505
 11
97.2825
 21
19.2319
  0
LINE
  8
0
 10
97.2825
 20
19.2319
 11
97.2101
 21
19.3214
  0
LINE
  8
0
 10
97.2101
 20
19.3214
 11
97.1474
 21
19.418
  0
LINE
  8
0
 10
97.1474
 20
19.418
 11
97.0951
 21
19.5206
  0
LINE
  8
0
 10
97.0951
 20
19.5206
 11
97.0538
 21
19.6281
  0
LINE
  8
0
 10
97.0538
 20
19.6281
 11
97.024
 21
19.7393
  0
LINE
  8
0
 10
97.024
 20
19.7393
 11
97.006
 21
19.853
  0
LINE
  8
0
 10
97.006
 20
19.853
 11
97
 21
19.968
  0
LINE
  8
0
 10
97
 20
19.968
 11
97.006
 21
20.083
  0
LINE
  8
0
 10
97.006
 20
20.083
 11
97.024
 21
20.1967
  0
LINE
  8
0
 10
97.024
 20
20.1967
 11
97.0538
 21
20.3079
  0
LINE
  8
0
 10
97.0538
 20
20.3079
 11
97.0951
 21
20.4154
  0
LINE
  8
0
 10
97.0951
 20
20.4154
 11
97.1474
 21
20.518
  0
LINE
  8
0
 10
97.1474
 20
20.518
 11
97.2101
 21
20.6146
  0
LINE
  8
0
 10
97.2101
 20
20.6146
 11
97.2825
 21
20.704
  0
LINE
  8
0
 10
97.2825
 20
20.704
 11
97.364
 21
20.7854
  0
LINE
  8
0
 10
97.364
 20
20.7854
 11
97.4534
 21
20.8579
  0
LINE
  8
0
 10
97.4534
 20
20.8579
 11
97.55
 21
20.9206
  0
LINE
  8
0
 10
97.55
 20
20.9206
 11
97.6526
 21
20.9729
  0
LINE
  8
0
 10
97.6526
 20
20.9729
 11
97.7601
 21
21.0142
  0
LINE
  8
0
 10
97.7601
 20
21.0142
 11
97.8713
 21
21.044
  0
LINE
  8
0
 10
97.8713
 20
21.044
 11
97.985
 21
21.062
  0
LINE
  8
0
 10
97.985
 20
21.062
 11
98.1
 21
21.068
  0
LINE
  8
0
 10
98.1
 20
21.068
 11
98.215
 21
21.062
  0
LINE
  8
0
 10
98.215
 20
21.062
 11
98.3287
 21
21.044
  0
LINE
  8
0
 10
98.3287
 20
21.044
 11
98.4399
 21
21.0142
  0
LINE
  8
0
 10
98.4399
 20
21.0142
 11
98.5474
 21
20.9729
  0
LINE
  8
0
 10
98.5474
 20
20.9729
 11
98.65
 21
20.9206
  0
LINE
  8
0
 10
98.65
 20
20.9206
 11
98.7466
 21
20.8579
  0
LINE
  8
0
 10
98.7466
 20
20.8579
 11
98.836
 21
20.7854
  0
LINE
  8
0
 10
98.836
 20
20.7854
 11
98.9174
 21
20.704
  0
LINE
  8
0
 10
98.9174
 20
20.704
 11
98.9899
 21
20.6146
  0
LINE
  8
0
 10
98.9899
 20
20.6146
 11
99.0526
 21
20.518
  0
LINE
  8
0
 10
99.0526
 20
20.518
 11
99.1049
 21
20.4154
  0
LINE
  8
0
 10
99.1049
 20
20.4154
 11
99.1462
 21
20.3079
  0
LINE
  8
0
 10
99.1462
 20
20.3079
 11
99.176
 21
20.1967
  0
LINE
  8
0
 10
99.176
 20
20.1967
 11
99.194
 21
20.083
  0
LINE
  8
0
 10
99.194
 20
20.083
 11
99.2
 21
19.968
  0
LINE
  8
0
 10
99.2
 20
19.968
 11
99.194
 21
19.853
  0
LINE
  8
0
 10
99.194
 20
19.853
 11
99.176
 21
19.7393
  0
LINE
  8
0
 10
99.176
 20
19.7393
 11
99.1462
 21
19.6281
  0
LINE
  8
0
 10
99.1462
 20
19.6281
 11
99.1049
 21
19.5206
  0
LINE
  8
0
 10
99.1049
 20
19.5206
 11
99.0526
 21
19.418
  0
LINE
  8
0
 10
99.0526
 20
19.418
 11
98.9899
 21
19.3214
  0
LINE
  8
0
 10
98.9899
 20
19.3214
 11
98.9174
 21
19.2319
  0
LINE
  8
0
 10
98.9174
 20
19.2319
 11
98.836
 21
19.1505
  0
LINE
  8
0
 10
98.836
 20
19.1505
 11
98.7466
 21
19.0781
  0
LINE
  8
0
 10
98.7466
 20
19.0781
 11
98.65
 21
19.0154
  0
LINE
  8
0
 10
98.65
 20
19.0154
 11
98.5474
 21
18.9631
  0
LINE
  8
0
 10
98.5474
 20
18.9631
 11
98.4399
 21
18.9218
  0
LINE
  8
0
 10
98.4399
 20
18.9218
 11
98.3287
 21
18.892
  0
LINE
  8
0
 10
98.3287
 20
18.892
 11
98.215
 21
18.874
  0
LINE
  8
0
 10
98.215
 20
18.874
 11
98.1
 21
18.868
  0
LINE
  8
0
 10
98.1
 20
18.868
 11
97.985
 21
18.874
  0
LINE
  8
0
 10
9.2
 20
13.09
 11
9.2
 21
18.09
  0
LINE
  8
0
 10
9.2
 20
18.09
 11
110.8
 21
18.09
  0
LINE
  8
0
 10
110.8
 20
18.09
 11
110.8
 21
13.09
  0
LINE
  8
0
 10
110.8
 20
13.09
 11
9.2
 21
13.09
  0
LINE
  8
0
 10
46.74
 20
6.39999
 11
46.757
 21
6.72403
  0
LINE
  8
0
 10
46.757
 20
6.72403
 11
46.8077
 21
7.04453
  0
LINE
  8
0
 10
46.8077
 20
7.04453
 11
46.8917
 21
7.35794
  0
LINE
  8
0
 10
46.8917
 20
7.35794
 11
47.008
 21
7.66087
  0
LINE
  8
0
 10
47.008
 20
7.66087
 11
47.1553
 21
7.95
  0
LINE
  8
0
 10
47.1553
 20
7.95
 11
47.332
 21
8.22212
  0
LINE
  8
0
 10
47.332
 20
8.22212
 11
47.5362
 21
8.4743
  0
LINE
  8
0
 10
47.5362
 20
8.4743
 11
47.7657
 21
8.70374
  0
LINE
  8
0
 10
47.7657
 20
8.70374
 11
48.0179
 21
8.90794
  0
LINE
  8
0
 10
48.0179
 20
8.90794
 11
48.29
 21
9.08467
  0
LINE
  8
0
 10
48.29
 20
9.08467
 11
48.5791
 21
9.23198
  0
LINE
  8
0
 10
48.5791
 20
9.23198
 11
48.882
 21
9.34827
  0
LINE
  8
0
 10
48.882
 20
9.34827
 11
49.1955
 21
9.43225
  0
LINE
  8
0
 10
49.1955
 20
9.43225
 11
49.516
 21
9.48302
  0
LINE
  8
0
 10
49.516
 20
9.48302
 11
49.84
 21
9.5
  0
LINE
  8
0
 10
49.84
 20
9.5
 11
50.164
 21
9.48302
  0
LINE
  8
0
 10
50.164
 20
9.48302
 11
50.4845
 21
9.43225
  0
LINE
  8
0
 10
50.4845
 20
9.43225
 11
50.7979
 21
9.34827
  0
LINE
  8
0
 10
50.7979
 20
9.34827
 11
51.1009
 21
9.23198
  0
LINE
  8
0
 10
51.1009
 20
9.23198
 11
51.39
 21
9.08467
  0
LINE
  8
0
 10
51.39
 20
9.08467
 11
51.6621
 21
8.90794
  0
LINE
  8
0
 10
51.6621
 20
8.90794
 11
51.9143
 21
8.70374
  0
LINE
  8
0
 10
51.9143
 20
8.70374
 11
52.1437
 21
8.4743
  0
LINE
  8
0
 10
52.1437
 20
8.4743
 11
52.3479
 21
8.22212
  0
LINE
  8
0
 10
52.3479
 20
8.22212
 11
52.5247
 21
7.95
  0
LINE
  8
0
 10
52.5247
 20
7.95
 11
52.672
 21
7.66087
  0
LINE
  8
0
 10
52.672
 20
7.66087
 11
52.7883
 21
7.35794
  0
LINE
  8
0
 10
52.7883
 20
7.35794
 11
52.8723
 21
7.04453
  0
LINE
  8
0
 10
52.8723
 20
7.04453
 11
52.923
 21
6.72403
  0
LINE
  8
0
 10
52.923
 20
6.72403
 11
52.94
 21
6.39999
  0
LINE
  8
0
 10
52.94
 20
6.39999
 11
52.923
 21
6.07596
  0
LINE
  8
0
 10
52.923
 20
6.07596
 11
52.8723
 21
5.75546
  0
LINE
  8
0
 10
52.8723
 20
5.75546
 11
52.7883
 21
5.44205
  0
LINE
  8
0
 10
52.7883
 20
5.44205
 11
52.672
 21
5.13911
  0
LINE
  8
0
 10
52.672
 20
5.13911
 11
52.5247
 21
4.84999
  0
LINE
  8
0
 10
52.5247
 20
4.84999
 11
52.3479
 21
4.57787
  0
LINE
  8
0
 10
52.3479
 20
4.57787
 11
52.1437
 21
4.32568
  0
LINE
  8
0
 10
52.1437
 20
4.32568
 11
51.9143
 21
4.09624
  0
LINE
  8
0
 10
51.9143
 20
4.09624
 11
51.6621
 21
3.89204
  0
LINE
  8
0
 10
51.6621
 20
3.89204
 11
51.39
 21
3.71532
  0
LINE
  8
0
 10
51.39
 20
3.71532
 11
51.1009
 21
3.56801
  0
LINE
  8
0
 10
51.1009
 20
3.56801
 11
50.7979
 21
3.45172
  0
LINE
  8
0
 10
50.7979
 20
3.45172
 11
50.4845
 21
3.36774
  0
LINE
  8
0
 10
50.4845
 20
3.36774
 11
50.164
 21
3.31697
  0
LINE
  8
0
 10
50.164
 20
3.31697
 11
49.84
 21
3.29999
  0
LINE
  8
0
 10
49.84
 20
3.29999
 11
49.516
 21
3.31697
  0
LINE
  8
0
 10
49.516
 20
3.31697
 11
49.1955
 21
3.36774
  0
LINE
  8
0
 10
49.1955
 20
3.36774
 11
48.882
 21
3.45172
  0
LINE
  8
0
 10
48.882
 20
3.45172
 11
48.5791
 21
3.56801
  0
LINE
  8
0
 10
48.5791
 20
3.56801
 11
48.29
 21
3.71532
  0
LINE
  8
0
 10
48.29
 20
3.71532
 11
48.0179
 21
3.89204
  0
LINE
  8
0
 10
48.0179
 20
3.89204
 11
47.7657
 21
4.09624
  0
LINE
  8
0
 10
47.7657
 20
4.09624
 11
47.5362
 21
4.32568
  0
LINE
  8
0
 10
47.5362
 20
4.32568
 11
47.332
 21
4.57787
  0
LINE
  8
0
 10
47.332
 20
4.57787
 11
47.1553
 21
4.84999
  0
LINE
  8
0
 10
47.1553
 20
4.84999
 11
47.008
 21
5.13911
  0
LINE
  8
0
 10
47.008
 20
5.13911
 11
46.8917
 21
5.44205
  0
LINE
  8
0
 10
46.8917
 20
5.44205
 11
46.8077
 21
5.75546
  0
LINE
  8
0
 10
46.8077
 20
5.75546
 11
46.757
 21
6.07596
  0
LINE
  8
0
 10
46.757
 20
6.07596
 11
46.74
 21
6.39999
  0
LINE
  8
0
 10
68
 20
2
 11
68
 21
8.09999
  0
LINE
  8
0
 10
68
 20
8.09999
 11
118
 21
8.09999
  0
LINE
  8
0
 10
118
 20
8.09999
 11
118
 21
2
  0
LINE
  8
0
 10
118
 20
2
 11
68
 21
2
  0
LINE
  8
0
 10
27.672
 20
5.13911
 11
27.5247
 21
4.84999
  0
LINE
  8
0
 10
27.5247
 20
4.84999
 11
27.3479
 21
4.57787
  0
LINE
  8
0
 10
27.3479
 20
4.57787
 11
27.1437
 21
4.32568
  0
LINE
  8
0
 10
27.1437
 20
4.32568
 11
26.9143
 21
4.09624
  0
LINE
  8
0
 10
26.9143
 20
4.09624
 11
26.6621
 21
3.89204
  0
LINE
  8
0
 10
26.6621
 20
3.89204
 11
26.39
 21
3.71532
  0
LINE
  8
0
 10
26.39
 20
3.71532
 11
26.1009
 21
3.56801
  0
LINE
  8
0
 10
26.1009
 20
3.56801
 11
25.7979
 21
3.45172
  0
LINE
  8
0
 10
25.7979
 20
3.45172
 11
25.4845
 21
3.36774
  0
LINE
  8
0
 10
25.4845
 20
3.36774
 11
25.164
 21
3.31697
  0
LINE
  8
0
 10
25.164
 20
3.31697
 11
24.84
 21
3.29999
  0
LINE
  8
0
 10
24.84
 20
3.29999
 11
24.516
 21
3.31697
  0
LINE
  8
0
 10
24.516
 20
3.31697
 11
24.1955
 21
3.36774
  0
LINE
  8
0
 10
24.1955
 20
3.36774
 11
23.882
 21
3.45172
  0
LINE
  8
0
 10
23.882
 20
3.45172
 11
23.5791
 21
3.56801
  0
LINE
  8
0
 10
23.5791
 20
3.56801
 11
23.29
 21
3.71532
  0
LINE
  8
0
 10
23.29
 20
3.71532
 11
23.0179
 21
3.89204
  0
LINE
  8
0
 10
23.0179
 20
3.89204
 11
22.7657
 21
4.09624
  0
LINE
  8
0
 10
22.7657
 20
4.09624
 11
22.5362
 21
4.32568
  0
LINE
  8
0
 10
22.5362
 20
4.32568
 11
22.332
 21
4.57787
  0
LINE
  8
0
 10
22.332
 20
4.57787
 11
22.1553
 21
4.84999
  0
LINE
  8
0
 10
22.1553
 20
4.84999
 11
22.008
 21
5.13911
  0
LINE
  8
0
 10
22.008
 20
5.13911
 11
21.8917
 21
5.44205
  0
LINE
  8
0
 10
21.8917
 20
5.44205
 11
21.8077
 21
5.75546
  0
LINE
  8
0
 10
21.8077
 20
5.75546
 11
21.757
 21
6.07596
  0
LINE
  8
0
 10
21.757
 20
6.07596
 11
21.74
 21
6.39999
  0
LINE
  8
0
 10
21.74
 20
6.39999
 11
21.757
 21
6.72403
  0
LINE
  8
0
 10
21.757
 20
6.72403
 11
21.8077
 21
7.04453
  0
LINE
  8
0
 10
21.8077
 20
7.04453
 11
21.8917
 21
7.35794
  0
LINE
  8
0
 10
21.8917
 20
7.35794
 11
22.008
 21
7.66087
  0
LINE
  8
0
 10
22.008
 20
7.66087
 11
22.1553
 21
7.95
  0
LINE
  8
0
 10
22.1553
 20
7.95
 11
22.332
 21
8.22212
  0
LINE
  8
0
 10
22.332
 20
8.22212
 11
22.5362
 21
8.4743
  0
LINE
  8
0
 10
22.5362
 20
8.4743
 11
22.7657
 21
8.70374
  0
LINE
  8
0
 10
22.7657
 20
8.70374
 11
23.0179
 21
8.90794
  0
LINE
  8
0
 10
23.0179
 20
8.90794
 11
23.29
 21
9.08467
  0
LINE
  8
0
 10
23.29
 20
9.08467
 11
23.5791
 21
9.23198
  0
LINE
  8
0
 10
23.5791
 20
9.23198
 11
23.882
 21
9.34827
  0
LINE
  8
0
 10
23.882
 20
9.34827
 11
24.1955
 21
9.43225
  0
LINE
  8
0
 10
24.1955
 20
9.43225
 11
24.516
 21
9.48302
  0
LINE
  8
0
 10
24.516
 20
9.48302
 11
24.84
 21
9.5
  0
LINE
  8
0
 10
24.84
 20
9.5
 11
25.164
 21
9.48302
  0
LINE
  8
0
 10
25.164
 20
9.48302
 11
25.4845
 21
9.43225
  0
LINE
  8
0
 10
25.4845
 20
9.43225
 11
25.7979
 21
9.34827
  0
LINE
  8
0
 10
25.7979
 20
9.34827
 11
26.1009
 21
9.23198
  0
LINE
  8
0
 10
26.1009
 20
9.23198
 11
26.39
 21
9.08467
  0
LINE
  8
0
 10
26.39
 20
9.08467
 11
26.6621
 21
8.90794
  0
LINE
  8
0
 10
26.6621
 20
8.90794
 11
26.9143
 21
8.70374
  0
LINE
  8
0
 10
26.9143
 20
8.70374
 11
27.1437
 21
8.4743
  0
LINE
  8
0
 10
27.1437
 20
8.4743
 11
27.3479
 21
8.22212
  0
LINE
  8
0
 10
27.3479
 20
8.22212
 11
27.5247
 21
7.95
  0
LINE
  8
0
 10
27.5247
 20
7.95
 11
27.672
 21
7.66087
  0
LINE
  8
0
 10
27.672
 20
7.66087
 11
27.7883
 21
7.35794
  0
LINE
  8
0
 10
27.7883
 20
7.35794
 11
27.8723
 21
7.04453
  0
LINE
  8
0
 10
27.8723
 20
7.04453
 11
27.923
 21
6.72403
  0
LINE
  8
0
 10
27.923
 20
6.72403
 11
27.94
 21
6.39999
  0
LINE
  8
0
 10
27.94
 20
6.39999
 11
27.923
 21
6.07596
  0
LINE
  8
0
 10
27.923
 20
6.07596
 11
27.8723
 21
5.75546
  0
LINE
  8
0
 10
27.8723
 20
5.75546
 11
27.7883
 21
5.44205
  0
LINE
  8
0
 10
27.7883
 20
5.44205
 11
27.672
 21
5.13911
  0
ENDSEC
  0
SECTION
  2
OBJECTS
  0
DICTIONARY
  0
ENDSEC
  0
EOF
