  0
SECTION
  2
BLOCKS
  0
ENDSEC
  0
SECTION
  2
ENTITIES
  0
LINE
  8
0
 10
-25.4333
 20
-0.5
 11
-18.5667
 21
-0.5
  0
LINE
  8
0
 10
-18.5667
 20
-0.5
 11
-18.5667
 21
-3.5
  0
LINE
  8
0
 10
-18.5667
 20
-3.5
 11
-12.1
 21
-3.5
  0
LINE
  8
0
 10
-12.1
 20
-3.5
 11
-12.1
 21
-0.5
  0
LINE
  8
0
 10
-12.1
 20
-0.5
 11
-5.23332
 21
-0.5
  0
LINE
  8
0
 10
-5.23332
 20
-0.5
 11
-5.23332
 21
-3.5
  0
LINE
  8
0
 10
-5.23332
 20
-3.5
 11
1.23332
 21
-3.5
  0
LINE
  8
0
 10
1.23332
 20
-3.5
 11
1.23332
 21
-0.5
  0
LINE
  8
0
 10
1.23332
 20
-0.5
 11
8
 21
-0.5
  0
LINE
  8
0
 10
8
 20
-0.5
 11
8
 21
6.22726
  0
LINE
  8
0
 10
8
 20
6.22726
 11
11
 21
6.22726
  0
LINE
  8
0
 10
11
 20
6.22726
 11
11
 21
15.4091
  0
LINE
  8
0
 10
11
 20
15.4091
 11
8
 21
15.4091
  0
LINE
  8
0
 10
8
 20
15.4091
 11
8
 21
25.6818
  0
LINE
  8
0
 10
8
 20
25.6818
 11
11
 21
25.6818
  0
LINE
  8
0
 10
11
 20
25.6818
 11
11
 21
34.8636
  0
LINE
  8
0
 10
11
 20
34.8636
 11
8
 21
34.8636
  0
LINE
  8
0
 10
8
 20
34.8636
 11
8
 21
45.1364
  0
LINE
  8
0
 10
8
 20
45.1364
 11
11
 21
45.1364
  0
LINE
  8
0
 10
11
 20
45.1364
 11
11
 21
54.3182
  0
LINE
  8
0
 10
11
 20
54.3182
 11
8
 21
54.3182
  0
LINE
  8
0
 10
8
 20
54.3182
 11
8
 21
64.5909
  0
LINE
  8
0
 10
8
 20
64.5909
 11
11
 21
64.5909
  0
LINE
  8
0
 10
11
 20
64.5909
 11
11
 21
73.7727
  0
LINE
  8
0
 10
11
 20
73.7727
 11
8
 21
73.7727
  0
LINE
  8
0
 10
8
 20
73.7727
 11
8
 21
84.0455
  0
LINE
  8
0
 10
8
 20
84.0455
 11
11
 21
84.0455
  0
LINE
  8
0
 10
11
 20
84.0455
 11
11
 21
93.2273
  0
LINE
  8
0
 10
11
 20
93.2273
 11
8
 21
93.2273
  0
LINE
  8
0
 10
8
 20
93.2273
 11
8
 21
100.5
  0
LINE
  8
0
 10
8
 20
100.5
 11
1.23332
 21
100.5
  0
LINE
  8
0
 10
1.23332
 20
100.5
 11
1.23332
 21
103.5
  0
LINE
  8
0
 10
1.23332
 20
103.5
 11
-5.23332
 21
103.5
  0
LINE
  8
0
 10
-5.23332
 20
103.5
 11
-5.23332
 21
100.5
  0
LINE
  8
0
 10
-5.23332
 20
100.5
 11
-12.1
 21
100.5
  0
LINE
  8
0
 10
-12.1
 20
100.5
 11
-12.1
 21
103.5
  0
LINE
  8
0
 10
-12.1
 20
103.5
 11
-18.5667
 21
103.5
  0
LINE
  8
0
 10
-18.5667
 20
103.5
 11
-18.5667
 21
100.5
  0
LINE
  8
0
 10
-18.5667
 20
100.5
 11
-25.4333
 21
100.5
  0
LINE
  8
0
 10
-25.4333
 20
100.5
 11
-25.4333
 21
103.5
  0
LINE
  8
0
 10
-25.4333
 20
103.5
 11
-31.9
 21
103.5
  0
LINE
  8
0
 10
-31.9
 20
103.5
 11
-31.9
 21
100.5
  0
LINE
  8
0
 10
-31.9
 20
100.5
 11
-32
 21
100.5
  0
LINE
  8
0
 10
-32
 20
100.5
 11
-32
 21
93.2273
  0
LINE
  8
0
 10
-32
 20
93.2273
 11
-35
 21
93.2273
  0
LINE
  8
0
 10
-35
 20
93.2273
 11
-35
 21
84.0455
  0
LINE
  8
0
 10
-35
 20
84.0455
 11
-32
 21
84.0455
  0
LINE
  8
0
 10
-32
 20
84.0455
 11
-32
 21
73.7727
  0
LINE
  8
0
 10
-32
 20
73.7727
 11
-35
 21
73.7727
  0
LINE
  8
0
 10
-35
 20
73.7727
 11
-35
 21
64.5909
  0
LINE
  8
0
 10
-35
 20
64.5909
 11
-32
 21
64.5909
  0
LINE
  8
0
 10
-32
 20
64.5909
 11
-32
 21
54.3182
  0
LINE
  8
0
 10
-32
 20
54.3182
 11
-35
 21
54.3182
  0
LINE
  8
0
 10
-35
 20
54.3182
 11
-35
 21
45.1364
  0
LINE
  8
0
 10
-35
 20
45.1364
 11
-32
 21
45.1364
  0
LINE
  8
0
 10
-32
 20
45.1364
 11
-32
 21
34.8636
  0
LINE
  8
0
 10
-32
 20
34.8636
 11
-35
 21
34.8636
  0
LINE
  8
0
 10
-35
 20
34.8636
 11
-35
 21
25.6818
  0
LINE
  8
0
 10
-35
 20
25.6818
 11
-32
 21
25.6818
  0
LINE
  8
0
 10
-32
 20
25.6818
 11
-32
 21
15.4091
  0
LINE
  8
0
 10
-32
 20
15.4091
 11
-35
 21
15.4091
  0
LINE
  8
0
 10
-35
 20
15.4091
 11
-35
 21
6.22726
  0
LINE
  8
0
 10
-35
 20
6.22726
 11
-32
 21
6.22726
  0
LINE
  8
0
 10
-32
 20
6.22726
 11
-32
 21
-0.5
  0
LINE
  8
0
 10
-32
 20
-0.5
 11
-31.9
 21
-0.5
  0
LINE
  8
0
 10
-31.9
 20
-0.5
 11
-31.9
 21
-3.5
  0
LINE
  8
0
 10
-31.9
 20
-3.5
 11
-25.4333
 21
-3.5
  0
LINE
  8
0
 10
-25.4333
 20
-3.5
 11
-25.4333
 21
-0.5
  0
LINE
  8
0
 10
-10.6794
 20
73.5356
 11
-11.3514
 21
73.642
  0
LINE
  8
0
 10
-11.3514
 20
73.642
 11
-12.0086
 21
73.8181
  0
LINE
  8
0
 10
-12.0086
 20
73.8181
 11
-12.6438
 21
74.062
  0
LINE
  8
0
 10
-12.6438
 20
74.062
 11
-13.25
 21
74.3708
  0
LINE
  8
0
 10
-13.25
 20
74.3708
 11
-13.8206
 21
74.7414
  0
LINE
  8
0
 10
-13.8206
 20
74.7414
 11
-14.3493
 21
75.1696
  0
LINE
  8
0
 10
-14.3493
 20
75.1696
 11
-14.8304
 21
75.6507
  0
LINE
  8
0
 10
-14.8304
 20
75.6507
 11
-15.2586
 21
76.1794
  0
LINE
  8
0
 10
-15.2586
 20
76.1794
 11
-15.6292
 21
76.75
  0
LINE
  8
0
 10
-15.6292
 20
76.75
 11
-15.938
 21
77.3562
  0
LINE
  8
0
 10
-15.938
 20
77.3562
 11
-16.1819
 21
77.9914
  0
LINE
  8
0
 10
-16.1819
 20
77.9914
 11
-16.358
 21
78.6486
  0
LINE
  8
0
 10
-16.358
 20
78.6486
 11
-16.4644
 21
79.3206
  0
LINE
  8
0
 10
-16.4644
 20
79.3206
 11
-16.5
 21
80
  0
LINE
  8
0
 10
-16.5
 20
80
 11
-16.4644
 21
80.6794
  0
LINE
  8
0
 10
-16.4644
 20
80.6794
 11
-16.358
 21
81.3514
  0
LINE
  8
0
 10
-16.358
 20
81.3514
 11
-16.1819
 21
82.0086
  0
LINE
  8
0
 10
-16.1819
 20
82.0086
 11
-15.938
 21
82.6438
  0
LINE
  8
0
 10
-15.938
 20
82.6438
 11
-15.6292
 21
83.25
  0
LINE
  8
0
 10
-15.6292
 20
83.25
 11
-15.2586
 21
83.8206
  0
LINE
  8
0
 10
-15.2586
 20
83.8206
 11
-14.8304
 21
84.3493
  0
LINE
  8
0
 10
-14.8304
 20
84.3493
 11
-14.3493
 21
84.8304
  0
LINE
  8
0
 10
-14.3493
 20
84.8304
 11
-13.8206
 21
85.2586
  0
LINE
  8
0
 10
-13.8206
 20
85.2586
 11
-13.25
 21
85.6292
  0
LINE
  8
0
 10
-13.25
 20
85.6292
 11
-12.6438
 21
85.938
  0
LINE
  8
0
 10
-12.6438
 20
85.938
 11
-12.0086
 21
86.1819
  0
LINE
  8
0
 10
-12.0086
 20
86.1819
 11
-11.3514
 21
86.358
  0
LINE
  8
0
 10
-11.3514
 20
86.358
 11
-10.6794
 21
86.4644
  0
LINE
  8
0
 10
-10.6794
 20
86.4644
 11
-10
 21
86.5
  0
LINE
  8
0
 10
-10
 20
86.5
 11
-9.32056
 21
86.4644
  0
LINE
  8
0
 10
-9.32056
 20
86.4644
 11
-8.64856
 21
86.358
  0
LINE
  8
0
 10
-8.64856
 20
86.358
 11
-7.99138
 21
86.1819
  0
LINE
  8
0
 10
-7.99138
 20
86.1819
 11
-7.3562
 21
85.938
  0
LINE
  8
0
 10
-7.3562
 20
85.938
 11
-6.75
 21
85.6292
  0
LINE
  8
0
 10
-6.75
 20
85.6292
 11
-6.17938
 21
85.2586
  0
LINE
  8
0
 10
-6.17938
 20
85.2586
 11
-5.65065
 21
84.8304
  0
LINE
  8
0
 10
-5.65065
 20
84.8304
 11
-5.16956
 21
84.3493
  0
LINE
  8
0
 10
-5.16956
 20
84.3493
 11
-4.74138
 21
83.8206
  0
LINE
  8
0
 10
-4.74138
 20
83.8206
 11
-4.37083
 21
83.25
  0
LINE
  8
0
 10
-4.37083
 20
83.25
 11
-4.06195
 21
82.6438
  0
LINE
  8
0
 10
-4.06195
 20
82.6438
 11
-3.81813
 21
82.0086
  0
LINE
  8
0
 10
-3.81813
 20
82.0086
 11
-3.64203
 21
81.3514
  0
LINE
  8
0
 10
-3.64203
 20
81.3514
 11
-3.5356
 21
80.6794
  0
LINE
  8
0
 10
-3.5356
 20
80.6794
 11
-3.5
 21
80
  0
LINE
  8
0
 10
-3.5
 20
80
 11
-3.5356
 21
79.3206
  0
LINE
  8
0
 10
-3.5356
 20
79.3206
 11
-3.64203
 21
78.6486
  0
LINE
  8
0
 10
-3.64203
 20
78.6486
 11
-3.81813
 21
77.9914
  0
LINE
  8
0
 10
-3.81813
 20
77.9914
 11
-4.06195
 21
77.3562
  0
LINE
  8
0
 10
-4.06195
 20
77.3562
 11
-4.37083
 21
76.75
  0
LINE
  8
0
 10
-4.37083
 20
76.75
 11
-4.74138
 21
76.1794
  0
LINE
  8
0
 10
-4.74138
 20
76.1794
 11
-5.16956
 21
75.6507
  0
LINE
  8
0
 10
-5.16956
 20
75.6507
 11
-5.65065
 21
75.1696
  0
LINE
  8
0
 10
-5.65065
 20
75.1696
 11
-6.17938
 21
74.7414
  0
LINE
  8
0
 10
-6.17938
 20
74.7414
 11
-6.75
 21
74.3708
  0
LINE
  8
0
 10
-6.75
 20
74.3708
 11
-7.3562
 21
74.062
  0
LINE
  8
0
 10
-7.3562
 20
74.062
 11
-7.99138
 21
73.8181
  0
LINE
  8
0
 10
-7.99138
 20
73.8181
 11
-8.64856
 21
73.642
  0
LINE
  8
0
 10
-8.64856
 20
73.642
 11
-9.32056
 21
73.5356
  0
LINE
  8
0
 10
-9.32056
 20
73.5356
 11
-10
 21
73.5
  0
LINE
  8
0
 10
-10
 20
73.5
 11
-10.6794
 21
73.5356
  0
LINE
  8
0
 10
-19.25
 20
45.2
 11
-19.25
 21
55.2
  0
LINE
  8
0
 10
-19.25
 20
55.2
 11
-11.75
 21
55.2
  0
LINE
  8
0
 10
-11.75
 20
55.2
 11
-11.75
 21
45.2
  0
LINE
  8
0
 10
-11.75
 20
45.2
 11
-19.25
 21
45.2
  0
LINE
  8
0
 10
-10.6794
 20
13.5356
 11
-11.3514
 21
13.642
  0
LINE
  8
0
 10
-11.3514
 20
13.642
 11
-12.0086
 21
13.8181
  0
LINE
  8
0
 10
-12.0086
 20
13.8181
 11
-12.6438
 21
14.062
  0
LINE
  8
0
 10
-12.6438
 20
14.062
 11
-13.25
 21
14.3708
  0
LINE
  8
0
 10
-13.25
 20
14.3708
 11
-13.8206
 21
14.7414
  0
LINE
  8
0
 10
-13.8206
 20
14.7414
 11
-14.3493
 21
15.1696
  0
LINE
  8
0
 10
-14.3493
 20
15.1696
 11
-14.8304
 21
15.6507
  0
LINE
  8
0
 10
-14.8304
 20
15.6507
 11
-15.2586
 21
16.1794
  0
LINE
  8
0
 10
-15.2586
 20
16.1794
 11
-15.6292
 21
16.75
  0
LINE
  8
0
 10
-15.6292
 20
16.75
 11
-15.938
 21
17.3562
  0
LINE
  8
0
 10
-15.938
 20
17.3562
 11
-16.1819
 21
17.9914
  0
LINE
  8
0
 10
-16.1819
 20
17.9914
 11
-16.358
 21
18.6486
  0
LINE
  8
0
 10
-16.358
 20
18.6486
 11
-16.4644
 21
19.3206
  0
LINE
  8
0
 10
-16.4644
 20
19.3206
 11
-16.5
 21
20
  0
LINE
  8
0
 10
-16.5
 20
20
 11
-16.4644
 21
20.6794
  0
LINE
  8
0
 10
-16.4644
 20
20.6794
 11
-16.358
 21
21.3514
  0
LINE
  8
0
 10
-16.358
 20
21.3514
 11
-16.1819
 21
22.0086
  0
LINE
  8
0
 10
-16.1819
 20
22.0086
 11
-15.938
 21
22.6438
  0
LINE
  8
0
 10
-15.938
 20
22.6438
 11
-15.6292
 21
23.25
  0
LINE
  8
0
 10
-15.6292
 20
23.25
 11
-15.2586
 21
23.8206
  0
LINE
  8
0
 10
-15.2586
 20
23.8206
 11
-14.8304
 21
24.3493
  0
LINE
  8
0
 10
-14.8304
 20
24.3493
 11
-14.3493
 21
24.8304
  0
LINE
  8
0
 10
-14.3493
 20
24.8304
 11
-13.8206
 21
25.2586
  0
LINE
  8
0
 10
-13.8206
 20
25.2586
 11
-13.25
 21
25.6292
  0
LINE
  8
0
 10
-13.25
 20
25.6292
 11
-12.6438
 21
25.938
  0
LINE
  8
0
 10
-12.6438
 20
25.938
 11
-12.0086
 21
26.1819
  0
LINE
  8
0
 10
-12.0086
 20
26.1819
 11
-11.3514
 21
26.358
  0
LINE
  8
0
 10
-11.3514
 20
26.358
 11
-10.6794
 21
26.4644
  0
LINE
  8
0
 10
-10.6794
 20
26.4644
 11
-10
 21
26.5
  0
LINE
  8
0
 10
-10
 20
26.5
 11
-9.32056
 21
26.4644
  0
LINE
  8
0
 10
-9.32056
 20
26.4644
 11
-8.64856
 21
26.358
  0
LINE
  8
0
 10
-8.64856
 20
26.358
 11
-7.99138
 21
26.1819
  0
LINE
  8
0
 10
-7.99138
 20
26.1819
 11
-7.3562
 21
25.938
  0
LINE
  8
0
 10
-7.3562
 20
25.938
 11
-6.75
 21
25.6292
  0
LINE
  8
0
 10
-6.75
 20
25.6292
 11
-6.17938
 21
25.2586
  0
LINE
  8
0
 10
-6.17938
 20
25.2586
 11
-5.65065
 21
24.8304
  0
LINE
  8
0
 10
-5.65065
 20
24.8304
 11
-5.16956
 21
24.3493
  0
LINE
  8
0
 10
-5.16956
 20
24.3493
 11
-4.74138
 21
23.8206
  0
LINE
  8
0
 10
-4.74138
 20
23.8206
 11
-4.37083
 21
23.25
  0
LINE
  8
0
 10
-4.37083
 20
23.25
 11
-4.06195
 21
22.6438
  0
LINE
  8
0
 10
-4.06195
 20
22.6438
 11
-3.81813
 21
22.0086
  0
LINE
  8
0
 10
-3.81813
 20
22.0086
 11
-3.64203
 21
21.3514
  0
LINE
  8
0
 10
-3.64203
 20
21.3514
 11
-3.5356
 21
20.6794
  0
LINE
  8
0
 10
-3.5356
 20
20.6794
 11
-3.5
 21
20
  0
LINE
  8
0
 10
-3.5
 20
20
 11
-3.5356
 21
19.3206
  0
LINE
  8
0
 10
-3.5356
 20
19.3206
 11
-3.64203
 21
18.6486
  0
LINE
  8
0
 10
-3.64203
 20
18.6486
 11
-3.81813
 21
17.9914
  0
LINE
  8
0
 10
-3.81813
 20
17.9914
 11
-4.06195
 21
17.3562
  0
LINE
  8
0
 10
-4.06195
 20
17.3562
 11
-4.37083
 21
16.75
  0
LINE
  8
0
 10
-4.37083
 20
16.75
 11
-4.74138
 21
16.1794
  0
LINE
  8
0
 10
-4.74138
 20
16.1794
 11
-5.16956
 21
15.6507
  0
LINE
  8
0
 10
-5.16956
 20
15.6507
 11
-5.65065
 21
15.1696
  0
LINE
  8
0
 10
-5.65065
 20
15.1696
 11
-6.17938
 21
14.7414
  0
LINE
  8
0
 10
-6.17938
 20
14.7414
 11
-6.75
 21
14.3708
  0
LINE
  8
0
 10
-6.75
 20
14.3708
 11
-7.3562
 21
14.062
  0
LINE
  8
0
 10
-7.3562
 20
14.062
 11
-7.99138
 21
13.8181
  0
LINE
  8
0
 10
-7.99138
 20
13.8181
 11
-8.64856
 21
13.642
  0
LINE
  8
0
 10
-8.64856
 20
13.642
 11
-9.32056
 21
13.5356
  0
LINE
  8
0
 10
-9.32056
 20
13.5356
 11
-10
 21
13.5
  0
LINE
  8
0
 10
-10
 20
13.5
 11
-10.6794
 21
13.5356
  0
ENDSEC
  0
SECTION
  2
OBJECTS
  0
DICTIONARY
  0
ENDSEC
  0
EOF
