  0
SECTION
  2
BLOCKS
  0
ENDSEC
  0
SECTION
  2
ENTITIES
  0
LINE
  8
0
 10
54.2273
 20
-11
 11
66.9273
 21
-11
  0
LINE
  8
0
 10
66.9273
 20
-11
 11
66.9273
 21
-8
  0
LINE
  8
0
 10
66.9273
 20
-8
 11
77.3182
 21
-8
  0
LINE
  8
0
 10
77.3182
 20
-8
 11
77.3182
 21
-11
  0
LINE
  8
0
 10
77.3182
 20
-11
 11
90.0182
 21
-11
  0
LINE
  8
0
 10
90.0182
 20
-11
 11
90.0182
 21
-8
  0
LINE
  8
0
 10
90.0182
 20
-8
 11
100.409
 21
-8
  0
LINE
  8
0
 10
100.409
 20
-8
 11
100.409
 21
-11
  0
LINE
  8
0
 10
100.409
 20
-11
 11
113.109
 21
-11
  0
LINE
  8
0
 10
113.109
 20
-11
 11
113.109
 21
-8
  0
LINE
  8
0
 10
113.109
 20
-8
 11
123.5
 21
-8
  0
LINE
  8
0
 10
123.5
 20
-8
 11
123.5
 21
-2
  0
LINE
  8
0
 10
123.5
 20
-2
 11
120.4
 21
-2
  0
LINE
  8
0
 10
120.4
 20
-2
 11
120.4
 21
4
  0
LINE
  8
0
 10
120.4
 20
4
 11
123.5
 21
4
  0
LINE
  8
0
 10
123.5
 20
4
 11
123.5
 21
10
  0
LINE
  8
0
 10
123.5
 20
10
 11
120.4
 21
10
  0
LINE
  8
0
 10
120.4
 20
10
 11
120.4
 21
16
  0
LINE
  8
0
 10
120.4
 20
16
 11
123.5
 21
16
  0
LINE
  8
0
 10
123.5
 20
16
 11
123.5
 21
22
  0
LINE
  8
0
 10
123.5
 20
22
 11
120.4
 21
22
  0
LINE
  8
0
 10
120.4
 20
22
 11
120.4
 21
28
  0
LINE
  8
0
 10
120.4
 20
28
 11
113.109
 21
28
  0
LINE
  8
0
 10
113.109
 20
28
 11
113.109
 21
31
  0
LINE
  8
0
 10
113.109
 20
31
 11
100.409
 21
31
  0
LINE
  8
0
 10
100.409
 20
31
 11
100.409
 21
28
  0
LINE
  8
0
 10
100.409
 20
28
 11
90.0182
 21
28
  0
LINE
  8
0
 10
90.0182
 20
28
 11
90.0182
 21
31
  0
LINE
  8
0
 10
90.0182
 20
31
 11
77.3182
 21
31
  0
LINE
  8
0
 10
77.3182
 20
31
 11
77.3182
 21
28
  0
LINE
  8
0
 10
77.3182
 20
28
 11
66.9273
 21
28
  0
LINE
  8
0
 10
66.9273
 20
28
 11
66.9273
 21
31
  0
LINE
  8
0
 10
66.9273
 20
31
 11
54.2273
 21
31
  0
LINE
  8
0
 10
54.2273
 20
31
 11
54.2273
 21
28
  0
LINE
  8
0
 10
54.2273
 20
28
 11
43.8364
 21
28
  0
LINE
  8
0
 10
43.8364
 20
28
 11
43.8364
 21
31
  0
LINE
  8
0
 10
43.8364
 20
31
 11
31.1364
 21
31
  0
LINE
  8
0
 10
31.1364
 20
31
 11
31.1364
 21
28
  0
LINE
  8
0
 10
31.1364
 20
28
 11
20.7455
 21
28
  0
LINE
  8
0
 10
20.7455
 20
28
 11
20.7455
 21
31
  0
LINE
  8
0
 10
20.7455
 20
31
 11
8.04544
 21
31
  0
LINE
  8
0
 10
8.04544
 20
31
 11
8.04544
 21
28
  0
LINE
  8
0
 10
8.04544
 20
28
 11
-0.399994
 21
28
  0
LINE
  8
0
 10
-0.399994
 20
28
 11
-0.399994
 21
22
  0
LINE
  8
0
 10
-0.399994
 20
22
 11
-3.5
 21
22
  0
LINE
  8
0
 10
-3.5
 20
22
 11
-3.5
 21
16
  0
LINE
  8
0
 10
-3.5
 20
16
 11
-0.399994
 21
16
  0
LINE
  8
0
 10
-0.399994
 20
16
 11
-0.399994
 21
10
  0
LINE
  8
0
 10
-0.399994
 20
10
 11
-3.5
 21
10
  0
LINE
  8
0
 10
-3.5
 20
10
 11
-3.5
 21
4
  0
LINE
  8
0
 10
-3.5
 20
4
 11
-0.399994
 21
4
  0
LINE
  8
0
 10
-0.399994
 20
4
 11
-0.399994
 21
-2
  0
LINE
  8
0
 10
-0.399994
 20
-2
 11
-3.5
 21
-2
  0
LINE
  8
0
 10
-3.5
 20
-2
 11
-3.5
 21
-8
  0
LINE
  8
0
 10
-3.5
 20
-8
 11
8.04544
 21
-8
  0
LINE
  8
0
 10
8.04544
 20
-8
 11
8.04544
 21
-11
  0
LINE
  8
0
 10
8.04544
 20
-11
 11
20.7455
 21
-11
  0
LINE
  8
0
 10
20.7455
 20
-11
 11
20.7455
 21
-8
  0
LINE
  8
0
 10
20.7455
 20
-8
 11
31.1364
 21
-8
  0
LINE
  8
0
 10
31.1364
 20
-8
 11
31.1364
 21
-11
  0
LINE
  8
0
 10
31.1364
 20
-11
 11
43.8364
 21
-11
  0
LINE
  8
0
 10
43.8364
 20
-11
 11
43.8364
 21
-8
  0
LINE
  8
0
 10
43.8364
 20
-8
 11
54.2273
 21
-8
  0
LINE
  8
0
 10
54.2273
 20
-8
 11
54.2273
 21
-11
  0
LINE
  8
0
 10
97.985
 20
24.374
 11
97.8713
 21
24.392
  0
LINE
  8
0
 10
97.8713
 20
24.392
 11
97.7601
 21
24.4218
  0
LINE
  8
0
 10
97.7601
 20
24.4218
 11
97.6526
 21
24.4631
  0
LINE
  8
0
 10
97.6526
 20
24.4631
 11
97.55
 21
24.5154
  0
LINE
  8
0
 10
97.55
 20
24.5154
 11
97.4534
 21
24.5781
  0
LINE
  8
0
 10
97.4534
 20
24.5781
 11
97.364
 21
24.6505
  0
LINE
  8
0
 10
97.364
 20
24.6505
 11
97.2825
 21
24.7319
  0
LINE
  8
0
 10
97.2825
 20
24.7319
 11
97.2101
 21
24.8214
  0
LINE
  8
0
 10
97.2101
 20
24.8214
 11
97.1474
 21
24.918
  0
LINE
  8
0
 10
97.1474
 20
24.918
 11
97.0951
 21
25.0206
  0
LINE
  8
0
 10
97.0951
 20
25.0206
 11
97.0538
 21
25.1281
  0
LINE
  8
0
 10
97.0538
 20
25.1281
 11
97.024
 21
25.2393
  0
LINE
  8
0
 10
97.024
 20
25.2393
 11
97.006
 21
25.353
  0
LINE
  8
0
 10
97.006
 20
25.353
 11
97
 21
25.468
  0
LINE
  8
0
 10
97
 20
25.468
 11
97.006
 21
25.583
  0
LINE
  8
0
 10
97.006
 20
25.583
 11
97.024
 21
25.6967
  0
LINE
  8
0
 10
97.024
 20
25.6967
 11
97.0538
 21
25.8079
  0
LINE
  8
0
 10
97.0538
 20
25.8079
 11
97.0951
 21
25.9154
  0
LINE
  8
0
 10
97.0951
 20
25.9154
 11
97.1474
 21
26.018
  0
LINE
  8
0
 10
97.1474
 20
26.018
 11
97.2101
 21
26.1146
  0
LINE
  8
0
 10
97.2101
 20
26.1146
 11
97.2825
 21
26.204
  0
LINE
  8
0
 10
97.2825
 20
26.204
 11
97.364
 21
26.2854
  0
LINE
  8
0
 10
97.364
 20
26.2854
 11
97.4534
 21
26.3579
  0
LINE
  8
0
 10
97.4534
 20
26.3579
 11
97.55
 21
26.4206
  0
LINE
  8
0
 10
97.55
 20
26.4206
 11
97.6526
 21
26.4729
  0
LINE
  8
0
 10
97.6526
 20
26.4729
 11
97.7601
 21
26.5142
  0
LINE
  8
0
 10
97.7601
 20
26.5142
 11
97.8713
 21
26.544
  0
LINE
  8
0
 10
97.8713
 20
26.544
 11
97.985
 21
26.562
  0
LINE
  8
0
 10
97.985
 20
26.562
 11
98.1
 21
26.568
  0
LINE
  8
0
 10
98.1
 20
26.568
 11
98.215
 21
26.562
  0
LINE
  8
0
 10
98.215
 20
26.562
 11
98.3287
 21
26.544
  0
LINE
  8
0
 10
98.3287
 20
26.544
 11
98.4399
 21
26.5142
  0
LINE
  8
0
 10
98.4399
 20
26.5142
 11
98.5474
 21
26.4729
  0
LINE
  8
0
 10
98.5474
 20
26.4729
 11
98.65
 21
26.4206
  0
LINE
  8
0
 10
98.65
 20
26.4206
 11
98.7466
 21
26.3579
  0
LINE
  8
0
 10
98.7466
 20
26.3579
 11
98.836
 21
26.2854
  0
LINE
  8
0
 10
98.836
 20
26.2854
 11
98.9174
 21
26.204
  0
LINE
  8
0
 10
98.9174
 20
26.204
 11
98.9899
 21
26.1146
  0
LINE
  8
0
 10
98.9899
 20
26.1146
 11
99.0526
 21
26.018
  0
LINE
  8
0
 10
99.0526
 20
26.018
 11
99.1049
 21
25.9154
  0
LINE
  8
0
 10
99.1049
 20
25.9154
 11
99.1462
 21
25.8079
  0
LINE
  8
0
 10
99.1462
 20
25.8079
 11
99.176
 21
25.6967
  0
LINE
  8
0
 10
99.176
 20
25.6967
 11
99.194
 21
25.583
  0
LINE
  8
0
 10
99.194
 20
25.583
 11
99.2
 21
25.468
  0
LINE
  8
0
 10
99.2
 20
25.468
 11
99.194
 21
25.353
  0
LINE
  8
0
 10
99.194
 20
25.353
 11
99.176
 21
25.2393
  0
LINE
  8
0
 10
99.176
 20
25.2393
 11
99.1462
 21
25.1281
  0
LINE
  8
0
 10
99.1462
 20
25.1281
 11
99.1049
 21
25.0206
  0
LINE
  8
0
 10
99.1049
 20
25.0206
 11
99.0526
 21
24.918
  0
LINE
  8
0
 10
99.0526
 20
24.918
 11
98.9899
 21
24.8214
  0
LINE
  8
0
 10
98.9899
 20
24.8214
 11
98.9174
 21
24.7319
  0
LINE
  8
0
 10
98.9174
 20
24.7319
 11
98.836
 21
24.6505
  0
LINE
  8
0
 10
98.836
 20
24.6505
 11
98.7466
 21
24.5781
  0
LINE
  8
0
 10
98.7466
 20
24.5781
 11
98.65
 21
24.5154
  0
LINE
  8
0
 10
98.65
 20
24.5154
 11
98.5474
 21
24.4631
  0
LINE
  8
0
 10
98.5474
 20
24.4631
 11
98.4399
 21
24.4218
  0
LINE
  8
0
 10
98.4399
 20
24.4218
 11
98.3287
 21
24.392
  0
LINE
  8
0
 10
98.3287
 20
24.392
 11
98.215
 21
24.374
  0
LINE
  8
0
 10
98.215
 20
24.374
 11
98.1
 21
24.368
  0
LINE
  8
0
 10
98.1
 20
24.368
 11
97.985
 21
24.374
  0
LINE
  8
0
 10
72.585
 20
24.374
 11
72.4713
 21
24.392
  0
LINE
  8
0
 10
72.4713
 20
24.392
 11
72.3601
 21
24.4218
  0
LINE
  8
0
 10
72.3601
 20
24.4218
 11
72.2526
 21
24.4631
  0
LINE
  8
0
 10
72.2526
 20
24.4631
 11
72.15
 21
24.5154
  0
LINE
  8
0
 10
72.15
 20
24.5154
 11
72.0534
 21
24.5781
  0
LINE
  8
0
 10
72.0534
 20
24.5781
 11
71.964
 21
24.6505
  0
LINE
  8
0
 10
71.964
 20
24.6505
 11
71.8825
 21
24.7319
  0
LINE
  8
0
 10
71.8825
 20
24.7319
 11
71.8101
 21
24.8214
  0
LINE
  8
0
 10
71.8101
 20
24.8214
 11
71.7474
 21
24.918
  0
LINE
  8
0
 10
71.7474
 20
24.918
 11
71.6951
 21
25.0206
  0
LINE
  8
0
 10
71.6951
 20
25.0206
 11
71.6538
 21
25.1281
  0
LINE
  8
0
 10
71.6538
 20
25.1281
 11
71.624
 21
25.2393
  0
LINE
  8
0
 10
71.624
 20
25.2393
 11
71.606
 21
25.353
  0
LINE
  8
0
 10
71.606
 20
25.353
 11
71.6
 21
25.468
  0
LINE
  8
0
 10
71.6
 20
25.468
 11
71.606
 21
25.583
  0
LINE
  8
0
 10
71.606
 20
25.583
 11
71.624
 21
25.6967
  0
LINE
  8
0
 10
71.624
 20
25.6967
 11
71.6538
 21
25.8079
  0
LINE
  8
0
 10
71.6538
 20
25.8079
 11
71.6951
 21
25.9154
  0
LINE
  8
0
 10
71.6951
 20
25.9154
 11
71.7474
 21
26.018
  0
LINE
  8
0
 10
71.7474
 20
26.018
 11
71.8101
 21
26.1146
  0
LINE
  8
0
 10
71.8101
 20
26.1146
 11
71.8825
 21
26.204
  0
LINE
  8
0
 10
71.8825
 20
26.204
 11
71.964
 21
26.2854
  0
LINE
  8
0
 10
71.964
 20
26.2854
 11
72.0534
 21
26.3579
  0
LINE
  8
0
 10
72.0534
 20
26.3579
 11
72.15
 21
26.4206
  0
LINE
  8
0
 10
72.15
 20
26.4206
 11
72.2526
 21
26.4729
  0
LINE
  8
0
 10
72.2526
 20
26.4729
 11
72.3601
 21
26.5142
  0
LINE
  8
0
 10
72.3601
 20
26.5142
 11
72.4713
 21
26.544
  0
LINE
  8
0
 10
72.4713
 20
26.544
 11
72.585
 21
26.562
  0
LINE
  8
0
 10
72.585
 20
26.562
 11
72.7
 21
26.568
  0
LINE
  8
0
 10
72.7
 20
26.568
 11
72.815
 21
26.562
  0
LINE
  8
0
 10
72.815
 20
26.562
 11
72.9287
 21
26.544
  0
LINE
  8
0
 10
72.9287
 20
26.544
 11
73.0399
 21
26.5142
  0
LINE
  8
0
 10
73.0399
 20
26.5142
 11
73.1474
 21
26.4729
  0
LINE
  8
0
 10
73.1474
 20
26.4729
 11
73.25
 21
26.4206
  0
LINE
  8
0
 10
73.25
 20
26.4206
 11
73.3466
 21
26.3579
  0
LINE
  8
0
 10
73.3466
 20
26.3579
 11
73.436
 21
26.2854
  0
LINE
  8
0
 10
73.436
 20
26.2854
 11
73.5175
 21
26.204
  0
LINE
  8
0
 10
73.5175
 20
26.204
 11
73.5899
 21
26.1146
  0
LINE
  8
0
 10
73.5899
 20
26.1146
 11
73.6526
 21
26.018
  0
LINE
  8
0
 10
73.6526
 20
26.018
 11
73.7049
 21
25.9154
  0
LINE
  8
0
 10
73.7049
 20
25.9154
 11
73.7462
 21
25.8079
  0
LINE
  8
0
 10
73.7462
 20
25.8079
 11
73.776
 21
25.6967
  0
LINE
  8
0
 10
73.776
 20
25.6967
 11
73.794
 21
25.583
  0
LINE
  8
0
 10
73.794
 20
25.583
 11
73.8
 21
25.468
  0
LINE
  8
0
 10
73.8
 20
25.468
 11
73.794
 21
25.353
  0
LINE
  8
0
 10
73.794
 20
25.353
 11
73.776
 21
25.2393
  0
LINE
  8
0
 10
73.776
 20
25.2393
 11
73.7462
 21
25.1281
  0
LINE
  8
0
 10
73.7462
 20
25.1281
 11
73.7049
 21
25.0206
  0
LINE
  8
0
 10
73.7049
 20
25.0206
 11
73.6526
 21
24.918
  0
LINE
  8
0
 10
73.6526
 20
24.918
 11
73.5899
 21
24.8214
  0
LINE
  8
0
 10
73.5899
 20
24.8214
 11
73.5175
 21
24.7319
  0
LINE
  8
0
 10
73.5175
 20
24.7319
 11
73.436
 21
24.6505
  0
LINE
  8
0
 10
73.436
 20
24.6505
 11
73.3466
 21
24.5781
  0
LINE
  8
0
 10
73.3466
 20
24.5781
 11
73.25
 21
24.5154
  0
LINE
  8
0
 10
73.25
 20
24.5154
 11
73.1474
 21
24.4631
  0
LINE
  8
0
 10
73.1474
 20
24.4631
 11
73.0399
 21
24.4218
  0
LINE
  8
0
 10
73.0399
 20
24.4218
 11
72.9287
 21
24.392
  0
LINE
  8
0
 10
72.9287
 20
24.392
 11
72.815
 21
24.374
  0
LINE
  8
0
 10
72.815
 20
24.374
 11
72.7
 21
24.368
  0
LINE
  8
0
 10
72.7
 20
24.368
 11
72.585
 21
24.374
  0
LINE
  8
0
 10
47.185
 20
24.374
 11
47.0713
 21
24.392
  0
LINE
  8
0
 10
47.0713
 20
24.392
 11
46.9601
 21
24.4218
  0
LINE
  8
0
 10
46.9601
 20
24.4218
 11
46.8526
 21
24.4631
  0
LINE
  8
0
 10
46.8526
 20
24.4631
 11
46.75
 21
24.5154
  0
LINE
  8
0
 10
46.75
 20
24.5154
 11
46.6534
 21
24.5781
  0
LINE
  8
0
 10
46.6534
 20
24.5781
 11
46.5639
 21
24.6505
  0
LINE
  8
0
 10
46.5639
 20
24.6505
 11
46.4825
 21
24.7319
  0
LINE
  8
0
 10
46.4825
 20
24.7319
 11
46.4101
 21
24.8214
  0
LINE
  8
0
 10
46.4101
 20
24.8214
 11
46.3474
 21
24.918
  0
LINE
  8
0
 10
46.3474
 20
24.918
 11
46.2951
 21
25.0206
  0
LINE
  8
0
 10
46.2951
 20
25.0206
 11
46.2538
 21
25.1281
  0
LINE
  8
0
 10
46.2538
 20
25.1281
 11
46.224
 21
25.2393
  0
LINE
  8
0
 10
46.224
 20
25.2393
 11
46.206
 21
25.353
  0
LINE
  8
0
 10
46.206
 20
25.353
 11
46.2
 21
25.468
  0
LINE
  8
0
 10
46.2
 20
25.468
 11
46.206
 21
25.583
  0
LINE
  8
0
 10
46.206
 20
25.583
 11
46.224
 21
25.6967
  0
LINE
  8
0
 10
46.224
 20
25.6967
 11
46.2538
 21
25.8079
  0
LINE
  8
0
 10
46.2538
 20
25.8079
 11
46.2951
 21
25.9154
  0
LINE
  8
0
 10
46.2951
 20
25.9154
 11
46.3474
 21
26.018
  0
LINE
  8
0
 10
46.3474
 20
26.018
 11
46.4101
 21
26.1146
  0
LINE
  8
0
 10
46.4101
 20
26.1146
 11
46.4825
 21
26.204
  0
LINE
  8
0
 10
46.4825
 20
26.204
 11
46.5639
 21
26.2854
  0
LINE
  8
0
 10
46.5639
 20
26.2854
 11
46.6534
 21
26.3579
  0
LINE
  8
0
 10
46.6534
 20
26.3579
 11
46.75
 21
26.4206
  0
LINE
  8
0
 10
46.75
 20
26.4206
 11
46.8526
 21
26.4729
  0
LINE
  8
0
 10
46.8526
 20
26.4729
 11
46.9601
 21
26.5142
  0
LINE
  8
0
 10
46.9601
 20
26.5142
 11
47.0713
 21
26.544
  0
LINE
  8
0
 10
47.0713
 20
26.544
 11
47.185
 21
26.562
  0
LINE
  8
0
 10
47.185
 20
26.562
 11
47.3
 21
26.568
  0
LINE
  8
0
 10
47.3
 20
26.568
 11
47.415
 21
26.562
  0
LINE
  8
0
 10
47.415
 20
26.562
 11
47.5287
 21
26.544
  0
LINE
  8
0
 10
47.5287
 20
26.544
 11
47.6399
 21
26.5142
  0
LINE
  8
0
 10
47.6399
 20
26.5142
 11
47.7474
 21
26.4729
  0
LINE
  8
0
 10
47.7474
 20
26.4729
 11
47.85
 21
26.4206
  0
LINE
  8
0
 10
47.85
 20
26.4206
 11
47.9466
 21
26.3579
  0
LINE
  8
0
 10
47.9466
 20
26.3579
 11
48.036
 21
26.2854
  0
LINE
  8
0
 10
48.036
 20
26.2854
 11
48.1174
 21
26.204
  0
LINE
  8
0
 10
48.1174
 20
26.204
 11
48.1899
 21
26.1146
  0
LINE
  8
0
 10
48.1899
 20
26.1146
 11
48.2526
 21
26.018
  0
LINE
  8
0
 10
48.2526
 20
26.018
 11
48.3049
 21
25.9154
  0
LINE
  8
0
 10
48.3049
 20
25.9154
 11
48.3462
 21
25.8079
  0
LINE
  8
0
 10
48.3462
 20
25.8079
 11
48.376
 21
25.6967
  0
LINE
  8
0
 10
48.376
 20
25.6967
 11
48.394
 21
25.583
  0
LINE
  8
0
 10
48.394
 20
25.583
 11
48.4
 21
25.468
  0
LINE
  8
0
 10
48.4
 20
25.468
 11
48.394
 21
25.353
  0
LINE
  8
0
 10
48.394
 20
25.353
 11
48.376
 21
25.2393
  0
LINE
  8
0
 10
48.376
 20
25.2393
 11
48.3462
 21
25.1281
  0
LINE
  8
0
 10
48.3462
 20
25.1281
 11
48.3049
 21
25.0206
  0
LINE
  8
0
 10
48.3049
 20
25.0206
 11
48.2526
 21
24.918
  0
LINE
  8
0
 10
48.2526
 20
24.918
 11
48.1899
 21
24.8214
  0
LINE
  8
0
 10
48.1899
 20
24.8214
 11
48.1174
 21
24.7319
  0
LINE
  8
0
 10
48.1174
 20
24.7319
 11
48.036
 21
24.6505
  0
LINE
  8
0
 10
48.036
 20
24.6505
 11
47.9466
 21
24.5781
  0
LINE
  8
0
 10
47.9466
 20
24.5781
 11
47.85
 21
24.5154
  0
LINE
  8
0
 10
47.85
 20
24.5154
 11
47.7474
 21
24.4631
  0
LINE
  8
0
 10
47.7474
 20
24.4631
 11
47.6399
 21
24.4218
  0
LINE
  8
0
 10
47.6399
 20
24.4218
 11
47.5287
 21
24.392
  0
LINE
  8
0
 10
47.5287
 20
24.392
 11
47.415
 21
24.374
  0
LINE
  8
0
 10
47.415
 20
24.374
 11
47.3
 21
24.368
  0
LINE
  8
0
 10
47.3
 20
24.368
 11
47.185
 21
24.374
  0
LINE
  8
0
 10
21.785
 20
24.374
 11
21.6713
 21
24.392
  0
LINE
  8
0
 10
21.6713
 20
24.392
 11
21.5601
 21
24.4218
  0
LINE
  8
0
 10
21.5601
 20
24.4218
 11
21.4526
 21
24.4631
  0
LINE
  8
0
 10
21.4526
 20
24.4631
 11
21.35
 21
24.5154
  0
LINE
  8
0
 10
21.35
 20
24.5154
 11
21.2534
 21
24.5781
  0
LINE
  8
0
 10
21.2534
 20
24.5781
 11
21.164
 21
24.6505
  0
LINE
  8
0
 10
21.164
 20
24.6505
 11
21.0825
 21
24.7319
  0
LINE
  8
0
 10
21.0825
 20
24.7319
 11
21.0101
 21
24.8214
  0
LINE
  8
0
 10
21.0101
 20
24.8214
 11
20.9474
 21
24.918
  0
LINE
  8
0
 10
20.9474
 20
24.918
 11
20.8951
 21
25.0206
  0
LINE
  8
0
 10
20.8951
 20
25.0206
 11
20.8538
 21
25.1281
  0
LINE
  8
0
 10
20.8538
 20
25.1281
 11
20.824
 21
25.2393
  0
LINE
  8
0
 10
20.824
 20
25.2393
 11
20.806
 21
25.353
  0
LINE
  8
0
 10
20.806
 20
25.353
 11
20.8
 21
25.468
  0
LINE
  8
0
 10
20.8
 20
25.468
 11
20.806
 21
25.583
  0
LINE
  8
0
 10
20.806
 20
25.583
 11
20.824
 21
25.6967
  0
LINE
  8
0
 10
20.824
 20
25.6967
 11
20.8538
 21
25.8079
  0
LINE
  8
0
 10
20.8538
 20
25.8079
 11
20.8951
 21
25.9154
  0
LINE
  8
0
 10
20.8951
 20
25.9154
 11
20.9474
 21
26.018
  0
LINE
  8
0
 10
20.9474
 20
26.018
 11
21.0101
 21
26.1146
  0
LINE
  8
0
 10
21.0101
 20
26.1146
 11
21.0825
 21
26.204
  0
LINE
  8
0
 10
21.0825
 20
26.204
 11
21.164
 21
26.2854
  0
LINE
  8
0
 10
21.164
 20
26.2854
 11
21.2534
 21
26.3579
  0
LINE
  8
0
 10
21.2534
 20
26.3579
 11
21.35
 21
26.4206
  0
LINE
  8
0
 10
21.35
 20
26.4206
 11
21.4526
 21
26.4729
  0
LINE
  8
0
 10
21.4526
 20
26.4729
 11
21.5601
 21
26.5142
  0
LINE
  8
0
 10
21.5601
 20
26.5142
 11
21.6713
 21
26.544
  0
LINE
  8
0
 10
21.6713
 20
26.544
 11
21.785
 21
26.562
  0
LINE
  8
0
 10
21.785
 20
26.562
 11
21.9
 21
26.568
  0
LINE
  8
0
 10
21.9
 20
26.568
 11
22.015
 21
26.562
  0
LINE
  8
0
 10
22.015
 20
26.562
 11
22.1287
 21
26.544
  0
LINE
  8
0
 10
22.1287
 20
26.544
 11
22.2399
 21
26.5142
  0
LINE
  8
0
 10
22.2399
 20
26.5142
 11
22.3474
 21
26.4729
  0
LINE
  8
0
 10
22.3474
 20
26.4729
 11
22.45
 21
26.4206
  0
LINE
  8
0
 10
22.45
 20
26.4206
 11
22.5466
 21
26.3579
  0
LINE
  8
0
 10
22.5466
 20
26.3579
 11
22.636
 21
26.2854
  0
LINE
  8
0
 10
22.636
 20
26.2854
 11
22.7175
 21
26.204
  0
LINE
  8
0
 10
22.7175
 20
26.204
 11
22.7899
 21
26.1146
  0
LINE
  8
0
 10
22.7899
 20
26.1146
 11
22.8526
 21
26.018
  0
LINE
  8
0
 10
22.8526
 20
26.018
 11
22.9049
 21
25.9154
  0
LINE
  8
0
 10
22.9049
 20
25.9154
 11
22.9462
 21
25.8079
  0
LINE
  8
0
 10
22.9462
 20
25.8079
 11
22.976
 21
25.6967
  0
LINE
  8
0
 10
22.976
 20
25.6967
 11
22.994
 21
25.583
  0
LINE
  8
0
 10
22.994
 20
25.583
 11
23
 21
25.468
  0
LINE
  8
0
 10
23
 20
25.468
 11
22.994
 21
25.353
  0
LINE
  8
0
 10
22.994
 20
25.353
 11
22.976
 21
25.2393
  0
LINE
  8
0
 10
22.976
 20
25.2393
 11
22.9462
 21
25.1281
  0
LINE
  8
0
 10
22.9462
 20
25.1281
 11
22.9049
 21
25.0206
  0
LINE
  8
0
 10
22.9049
 20
25.0206
 11
22.8526
 21
24.918
  0
LINE
  8
0
 10
22.8526
 20
24.918
 11
22.7899
 21
24.8214
  0
LINE
  8
0
 10
22.7899
 20
24.8214
 11
22.7175
 21
24.7319
  0
LINE
  8
0
 10
22.7175
 20
24.7319
 11
22.636
 21
24.6505
  0
LINE
  8
0
 10
22.636
 20
24.6505
 11
22.5466
 21
24.5781
  0
LINE
  8
0
 10
22.5466
 20
24.5781
 11
22.45
 21
24.5154
  0
LINE
  8
0
 10
22.45
 20
24.5154
 11
22.3474
 21
24.4631
  0
LINE
  8
0
 10
22.3474
 20
24.4631
 11
22.2399
 21
24.4218
  0
LINE
  8
0
 10
22.2399
 20
24.4218
 11
22.1287
 21
24.392
  0
LINE
  8
0
 10
22.1287
 20
24.392
 11
22.015
 21
24.374
  0
LINE
  8
0
 10
22.015
 20
24.374
 11
21.9
 21
24.368
  0
LINE
  8
0
 10
21.9
 20
24.368
 11
21.785
 21
24.374
  0
LINE
  8
0
 10
9.2
 20
18.59
 11
9.2
 21
23.59
  0
LINE
  8
0
 10
9.2
 20
23.59
 11
110.8
 21
23.59
  0
LINE
  8
0
 10
110.8
 20
23.59
 11
110.8
 21
18.59
  0
LINE
  8
0
 10
110.8
 20
18.59
 11
9.2
 21
18.59
  0
LINE
  8
0
 10
66.29
 20
2
 11
66.29
 21
14.5
  0
LINE
  8
0
 10
66.29
 20
14.5
 11
119.33
 21
14.5
  0
LINE
  8
0
 10
119.33
 20
14.5
 11
119.33
 21
2
  0
LINE
  8
0
 10
119.33
 20
2
 11
66.29
 21
2
  0
LINE
  8
0
 10
49.516
 20
3.31697
 11
49.1955
 21
3.36774
  0
LINE
  8
0
 10
49.1955
 20
3.36774
 11
48.882
 21
3.45172
  0
LINE
  8
0
 10
48.882
 20
3.45172
 11
48.5791
 21
3.56801
  0
LINE
  8
0
 10
48.5791
 20
3.56801
 11
48.29
 21
3.71532
  0
LINE
  8
0
 10
48.29
 20
3.71532
 11
48.0179
 21
3.89204
  0
LINE
  8
0
 10
48.0179
 20
3.89204
 11
47.7657
 21
4.09624
  0
LINE
  8
0
 10
47.7657
 20
4.09624
 11
47.5362
 21
4.32568
  0
LINE
  8
0
 10
47.5362
 20
4.32568
 11
47.332
 21
4.57787
  0
LINE
  8
0
 10
47.332
 20
4.57787
 11
47.1553
 21
4.84999
  0
LINE
  8
0
 10
47.1553
 20
4.84999
 11
47.008
 21
5.13911
  0
LINE
  8
0
 10
47.008
 20
5.13911
 11
46.8917
 21
5.44205
  0
LINE
  8
0
 10
46.8917
 20
5.44205
 11
46.8077
 21
5.75546
  0
LINE
  8
0
 10
46.8077
 20
5.75546
 11
46.757
 21
6.07596
  0
LINE
  8
0
 10
46.757
 20
6.07596
 11
46.74
 21
6.39999
  0
LINE
  8
0
 10
46.74
 20
6.39999
 11
46.757
 21
6.72403
  0
LINE
  8
0
 10
46.757
 20
6.72403
 11
46.8077
 21
7.04453
  0
LINE
  8
0
 10
46.8077
 20
7.04453
 11
46.8917
 21
7.35794
  0
LINE
  8
0
 10
46.8917
 20
7.35794
 11
47.008
 21
7.66087
  0
LINE
  8
0
 10
47.008
 20
7.66087
 11
47.1553
 21
7.95
  0
LINE
  8
0
 10
47.1553
 20
7.95
 11
47.332
 21
8.22212
  0
LINE
  8
0
 10
47.332
 20
8.22212
 11
47.5362
 21
8.4743
  0
LINE
  8
0
 10
47.5362
 20
8.4743
 11
47.7657
 21
8.70374
  0
LINE
  8
0
 10
47.7657
 20
8.70374
 11
48.0179
 21
8.90794
  0
LINE
  8
0
 10
48.0179
 20
8.90794
 11
48.29
 21
9.08467
  0
LINE
  8
0
 10
48.29
 20
9.08467
 11
48.5791
 21
9.23198
  0
LINE
  8
0
 10
48.5791
 20
9.23198
 11
48.882
 21
9.34827
  0
LINE
  8
0
 10
48.882
 20
9.34827
 11
49.1955
 21
9.43225
  0
LINE
  8
0
 10
49.1955
 20
9.43225
 11
49.516
 21
9.48302
  0
LINE
  8
0
 10
49.516
 20
9.48302
 11
49.84
 21
9.5
  0
LINE
  8
0
 10
49.84
 20
9.5
 11
50.164
 21
9.48302
  0
LINE
  8
0
 10
50.164
 20
9.48302
 11
50.4845
 21
9.43225
  0
LINE
  8
0
 10
50.4845
 20
9.43225
 11
50.7979
 21
9.34827
  0
LINE
  8
0
 10
50.7979
 20
9.34827
 11
51.1009
 21
9.23198
  0
LINE
  8
0
 10
51.1009
 20
9.23198
 11
51.39
 21
9.08467
  0
LINE
  8
0
 10
51.39
 20
9.08467
 11
51.6621
 21
8.90794
  0
LINE
  8
0
 10
51.6621
 20
8.90794
 11
51.9143
 21
8.70374
  0
LINE
  8
0
 10
51.9143
 20
8.70374
 11
52.1437
 21
8.4743
  0
LINE
  8
0
 10
52.1437
 20
8.4743
 11
52.3479
 21
8.22212
  0
LINE
  8
0
 10
52.3479
 20
8.22212
 11
52.5247
 21
7.95
  0
LINE
  8
0
 10
52.5247
 20
7.95
 11
52.672
 21
7.66087
  0
LINE
  8
0
 10
52.672
 20
7.66087
 11
52.7883
 21
7.35794
  0
LINE
  8
0
 10
52.7883
 20
7.35794
 11
52.8723
 21
7.04453
  0
LINE
  8
0
 10
52.8723
 20
7.04453
 11
52.923
 21
6.72403
  0
LINE
  8
0
 10
52.923
 20
6.72403
 11
52.94
 21
6.39999
  0
LINE
  8
0
 10
52.94
 20
6.39999
 11
52.923
 21
6.07596
  0
LINE
  8
0
 10
52.923
 20
6.07596
 11
52.8723
 21
5.75546
  0
LINE
  8
0
 10
52.8723
 20
5.75546
 11
52.7883
 21
5.44205
  0
LINE
  8
0
 10
52.7883
 20
5.44205
 11
52.672
 21
5.13911
  0
LINE
  8
0
 10
52.672
 20
5.13911
 11
52.5247
 21
4.84999
  0
LINE
  8
0
 10
52.5247
 20
4.84999
 11
52.3479
 21
4.57787
  0
LINE
  8
0
 10
52.3479
 20
4.57787
 11
52.1437
 21
4.32568
  0
LINE
  8
0
 10
52.1437
 20
4.32568
 11
51.9143
 21
4.09624
  0
LINE
  8
0
 10
51.9143
 20
4.09624
 11
51.6621
 21
3.89204
  0
LINE
  8
0
 10
51.6621
 20
3.89204
 11
51.39
 21
3.71532
  0
LINE
  8
0
 10
51.39
 20
3.71532
 11
51.1009
 21
3.56801
  0
LINE
  8
0
 10
51.1009
 20
3.56801
 11
50.7979
 21
3.45172
  0
LINE
  8
0
 10
50.7979
 20
3.45172
 11
50.4845
 21
3.36774
  0
LINE
  8
0
 10
50.4845
 20
3.36774
 11
50.164
 21
3.31697
  0
LINE
  8
0
 10
50.164
 20
3.31697
 11
49.84
 21
3.29999
  0
LINE
  8
0
 10
49.84
 20
3.29999
 11
49.516
 21
3.31697
  0
LINE
  8
0
 10
24.516
 20
3.31697
 11
24.1955
 21
3.36774
  0
LINE
  8
0
 10
24.1955
 20
3.36774
 11
23.882
 21
3.45172
  0
LINE
  8
0
 10
23.882
 20
3.45172
 11
23.5791
 21
3.56801
  0
LINE
  8
0
 10
23.5791
 20
3.56801
 11
23.29
 21
3.71532
  0
LINE
  8
0
 10
23.29
 20
3.71532
 11
23.0179
 21
3.89204
  0
LINE
  8
0
 10
23.0179
 20
3.89204
 11
22.7657
 21
4.09624
  0
LINE
  8
0
 10
22.7657
 20
4.09624
 11
22.5362
 21
4.32568
  0
LINE
  8
0
 10
22.5362
 20
4.32568
 11
22.332
 21
4.57787
  0
LINE
  8
0
 10
22.332
 20
4.57787
 11
22.1553
 21
4.84999
  0
LINE
  8
0
 10
22.1553
 20
4.84999
 11
22.008
 21
5.13911
  0
LINE
  8
0
 10
22.008
 20
5.13911
 11
21.8917
 21
5.44205
  0
LINE
  8
0
 10
21.8917
 20
5.44205
 11
21.8077
 21
5.75546
  0
LINE
  8
0
 10
21.8077
 20
5.75546
 11
21.757
 21
6.07596
  0
LINE
  8
0
 10
21.757
 20
6.07596
 11
21.74
 21
6.39999
  0
LINE
  8
0
 10
21.74
 20
6.39999
 11
21.757
 21
6.72403
  0
LINE
  8
0
 10
21.757
 20
6.72403
 11
21.8077
 21
7.04453
  0
LINE
  8
0
 10
21.8077
 20
7.04453
 11
21.8917
 21
7.35794
  0
LINE
  8
0
 10
21.8917
 20
7.35794
 11
22.008
 21
7.66087
  0
LINE
  8
0
 10
22.008
 20
7.66087
 11
22.1553
 21
7.95
  0
LINE
  8
0
 10
22.1553
 20
7.95
 11
22.332
 21
8.22212
  0
LINE
  8
0
 10
22.332
 20
8.22212
 11
22.5362
 21
8.4743
  0
LINE
  8
0
 10
22.5362
 20
8.4743
 11
22.7657
 21
8.70374
  0
LINE
  8
0
 10
22.7657
 20
8.70374
 11
23.0179
 21
8.90794
  0
LINE
  8
0
 10
23.0179
 20
8.90794
 11
23.29
 21
9.08467
  0
LINE
  8
0
 10
23.29
 20
9.08467
 11
23.5791
 21
9.23198
  0
LINE
  8
0
 10
23.5791
 20
9.23198
 11
23.882
 21
9.34827
  0
LINE
  8
0
 10
23.882
 20
9.34827
 11
24.1955
 21
9.43225
  0
LINE
  8
0
 10
24.1955
 20
9.43225
 11
24.516
 21
9.48302
  0
LINE
  8
0
 10
24.516
 20
9.48302
 11
24.84
 21
9.5
  0
LINE
  8
0
 10
24.84
 20
9.5
 11
25.164
 21
9.48302
  0
LINE
  8
0
 10
25.164
 20
9.48302
 11
25.4845
 21
9.43225
  0
LINE
  8
0
 10
25.4845
 20
9.43225
 11
25.7979
 21
9.34827
  0
LINE
  8
0
 10
25.7979
 20
9.34827
 11
26.1009
 21
9.23198
  0
LINE
  8
0
 10
26.1009
 20
9.23198
 11
26.39
 21
9.08467
  0
LINE
  8
0
 10
26.39
 20
9.08467
 11
26.6621
 21
8.90794
  0
LINE
  8
0
 10
26.6621
 20
8.90794
 11
26.9143
 21
8.70374
  0
LINE
  8
0
 10
26.9143
 20
8.70374
 11
27.1437
 21
8.4743
  0
LINE
  8
0
 10
27.1437
 20
8.4743
 11
27.3479
 21
8.22212
  0
LINE
  8
0
 10
27.3479
 20
8.22212
 11
27.5247
 21
7.95
  0
LINE
  8
0
 10
27.5247
 20
7.95
 11
27.672
 21
7.66087
  0
LINE
  8
0
 10
27.672
 20
7.66087
 11
27.7883
 21
7.35794
  0
LINE
  8
0
 10
27.7883
 20
7.35794
 11
27.8723
 21
7.04453
  0
LINE
  8
0
 10
27.8723
 20
7.04453
 11
27.923
 21
6.72403
  0
LINE
  8
0
 10
27.923
 20
6.72403
 11
27.94
 21
6.39999
  0
LINE
  8
0
 10
27.94
 20
6.39999
 11
27.923
 21
6.07596
  0
LINE
  8
0
 10
27.923
 20
6.07596
 11
27.8723
 21
5.75546
  0
LINE
  8
0
 10
27.8723
 20
5.75546
 11
27.7883
 21
5.44205
  0
LINE
  8
0
 10
27.7883
 20
5.44205
 11
27.672
 21
5.13911
  0
LINE
  8
0
 10
27.672
 20
5.13911
 11
27.5247
 21
4.84999
  0
LINE
  8
0
 10
27.5247
 20
4.84999
 11
27.3479
 21
4.57787
  0
LINE
  8
0
 10
27.3479
 20
4.57787
 11
27.1437
 21
4.32568
  0
LINE
  8
0
 10
27.1437
 20
4.32568
 11
26.9143
 21
4.09624
  0
LINE
  8
0
 10
26.9143
 20
4.09624
 11
26.6621
 21
3.89204
  0
LINE
  8
0
 10
26.6621
 20
3.89204
 11
26.39
 21
3.71532
  0
LINE
  8
0
 10
26.39
 20
3.71532
 11
26.1009
 21
3.56801
  0
LINE
  8
0
 10
26.1009
 20
3.56801
 11
25.7979
 21
3.45172
  0
LINE
  8
0
 10
25.7979
 20
3.45172
 11
25.4845
 21
3.36774
  0
LINE
  8
0
 10
25.4845
 20
3.36774
 11
25.164
 21
3.31697
  0
LINE
  8
0
 10
25.164
 20
3.31697
 11
24.84
 21
3.29999
  0
LINE
  8
0
 10
24.84
 20
3.29999
 11
24.516
 21
3.31697
  0
ENDSEC
  0
SECTION
  2
OBJECTS
  0
DICTIONARY
  0
ENDSEC
  0
EOF
