  0
SECTION
  2
BLOCKS
  0
ENDSEC
  0
SECTION
  2
ENTITIES
  0
LINE
  8
0
 10
3.89999
 20
-0.5
 11
10.1
 21
-0.5
  0
LINE
  8
0
 10
10.1
 20
-0.5
 11
10.1
 21
-3.5
  0
LINE
  8
0
 10
10.1
 20
-3.5
 11
15.9
 21
-3.5
  0
LINE
  8
0
 10
15.9
 20
-3.5
 11
15.9
 21
-0.5
  0
LINE
  8
0
 10
15.9
 20
-0.5
 11
22.1
 21
-0.5
  0
LINE
  8
0
 10
22.1
 20
-0.5
 11
22.1
 21
-3.5
  0
LINE
  8
0
 10
22.1
 20
-3.5
 11
27.9
 21
-3.5
  0
LINE
  8
0
 10
27.9
 20
-3.5
 11
27.9
 21
-0.5
  0
LINE
  8
0
 10
27.9
 20
-0.5
 11
28
 21
-0.5
  0
LINE
  8
0
 10
28
 20
-0.5
 11
28
 21
6.22726
  0
LINE
  8
0
 10
28
 20
6.22726
 11
31
 21
6.22726
  0
LINE
  8
0
 10
31
 20
6.22726
 11
31
 21
15.4091
  0
LINE
  8
0
 10
31
 20
15.4091
 11
28
 21
15.4091
  0
LINE
  8
0
 10
28
 20
15.4091
 11
28
 21
25.6818
  0
LINE
  8
0
 10
28
 20
25.6818
 11
31
 21
25.6818
  0
LINE
  8
0
 10
31
 20
25.6818
 11
31
 21
34.8636
  0
LINE
  8
0
 10
31
 20
34.8636
 11
28
 21
34.8636
  0
LINE
  8
0
 10
28
 20
34.8636
 11
28
 21
45.1364
  0
LINE
  8
0
 10
28
 20
45.1364
 11
31
 21
45.1364
  0
LINE
  8
0
 10
31
 20
45.1364
 11
31
 21
54.3182
  0
LINE
  8
0
 10
31
 20
54.3182
 11
28
 21
54.3182
  0
LINE
  8
0
 10
28
 20
54.3182
 11
28
 21
64.5909
  0
LINE
  8
0
 10
28
 20
64.5909
 11
31
 21
64.5909
  0
LINE
  8
0
 10
31
 20
64.5909
 11
31
 21
73.7727
  0
LINE
  8
0
 10
31
 20
73.7727
 11
28
 21
73.7727
  0
LINE
  8
0
 10
28
 20
73.7727
 11
28
 21
84.0455
  0
LINE
  8
0
 10
28
 20
84.0455
 11
31
 21
84.0455
  0
LINE
  8
0
 10
31
 20
84.0455
 11
31
 21
93.2273
  0
LINE
  8
0
 10
31
 20
93.2273
 11
28
 21
93.2273
  0
LINE
  8
0
 10
28
 20
93.2273
 11
28
 21
100.5
  0
LINE
  8
0
 10
28
 20
100.5
 11
27.9
 21
100.5
  0
LINE
  8
0
 10
27.9
 20
100.5
 11
27.9
 21
103.5
  0
LINE
  8
0
 10
27.9
 20
103.5
 11
22.1
 21
103.5
  0
LINE
  8
0
 10
22.1
 20
103.5
 11
22.1
 21
100.5
  0
LINE
  8
0
 10
22.1
 20
100.5
 11
15.9
 21
100.5
  0
LINE
  8
0
 10
15.9
 20
100.5
 11
15.9
 21
103.5
  0
LINE
  8
0
 10
15.9
 20
103.5
 11
10.1
 21
103.5
  0
LINE
  8
0
 10
10.1
 20
103.5
 11
10.1
 21
100.5
  0
LINE
  8
0
 10
10.1
 20
100.5
 11
3.89999
 21
100.5
  0
LINE
  8
0
 10
3.89999
 20
100.5
 11
3.89999
 21
103.5
  0
LINE
  8
0
 10
3.89999
 20
103.5
 11
-1.89999
 21
103.5
  0
LINE
  8
0
 10
-1.89999
 20
103.5
 11
-1.89999
 21
100.5
  0
LINE
  8
0
 10
-1.89999
 20
100.5
 11
-8
 21
100.5
  0
LINE
  8
0
 10
-8
 20
100.5
 11
-8
 21
93.2273
  0
LINE
  8
0
 10
-8
 20
93.2273
 11
-11
 21
93.2273
  0
LINE
  8
0
 10
-11
 20
93.2273
 11
-11
 21
84.0455
  0
LINE
  8
0
 10
-11
 20
84.0455
 11
-8
 21
84.0455
  0
LINE
  8
0
 10
-8
 20
84.0455
 11
-8
 21
73.7727
  0
LINE
  8
0
 10
-8
 20
73.7727
 11
-11
 21
73.7727
  0
LINE
  8
0
 10
-11
 20
73.7727
 11
-11
 21
64.5909
  0
LINE
  8
0
 10
-11
 20
64.5909
 11
-8
 21
64.5909
  0
LINE
  8
0
 10
-8
 20
64.5909
 11
-8
 21
54.3182
  0
LINE
  8
0
 10
-8
 20
54.3182
 11
-11
 21
54.3182
  0
LINE
  8
0
 10
-11
 20
54.3182
 11
-11
 21
45.1364
  0
LINE
  8
0
 10
-11
 20
45.1364
 11
-8
 21
45.1364
  0
LINE
  8
0
 10
-8
 20
45.1364
 11
-8
 21
34.8636
  0
LINE
  8
0
 10
-8
 20
34.8636
 11
-11
 21
34.8636
  0
LINE
  8
0
 10
-11
 20
34.8636
 11
-11
 21
25.6818
  0
LINE
  8
0
 10
-11
 20
25.6818
 11
-8
 21
25.6818
  0
LINE
  8
0
 10
-8
 20
25.6818
 11
-8
 21
15.4091
  0
LINE
  8
0
 10
-8
 20
15.4091
 11
-11
 21
15.4091
  0
LINE
  8
0
 10
-11
 20
15.4091
 11
-11
 21
6.22726
  0
LINE
  8
0
 10
-11
 20
6.22726
 11
-8
 21
6.22726
  0
LINE
  8
0
 10
-8
 20
6.22726
 11
-8
 21
-0.5
  0
LINE
  8
0
 10
-8
 20
-0.5
 11
-1.89999
 21
-0.5
  0
LINE
  8
0
 10
-1.89999
 20
-0.5
 11
-1.89999
 21
-3.5
  0
LINE
  8
0
 10
-1.89999
 20
-3.5
 11
3.89999
 21
-3.5
  0
LINE
  8
0
 10
3.89999
 20
-3.5
 11
3.89999
 21
-0.5
  0
ENDSEC
  0
SECTION
  2
OBJECTS
  0
DICTIONARY
  0
ENDSEC
  0
EOF
