  0
SECTION
  2
BLOCKS
  0
ENDSEC
  0
SECTION
  2
ENTITIES
  0
LINE
  8
0
 10
125.523
 20
-9.9726
 11
126.04
 21
-9.89073
  0
LINE
  8
0
 10
126.04
 20
-9.89073
 11
126.545
 21
-9.75528
  0
LINE
  8
0
 10
126.545
 20
-9.75528
 11
127.034
 21
-9.56772
  0
LINE
  8
0
 10
127.034
 20
-9.56772
 11
127.5
 21
-9.33012
  0
LINE
  8
0
 10
127.5
 20
-9.33012
 11
127.939
 21
-9.04507
  0
LINE
  8
0
 10
127.939
 20
-9.04507
 11
128.346
 21
-8.71571
  0
LINE
  8
0
 10
128.346
 20
-8.71571
 11
128.716
 21
-8.34564
  0
LINE
  8
0
 10
128.716
 20
-8.34564
 11
129.045
 21
-7.93892
  0
LINE
  8
0
 10
129.045
 20
-7.93892
 11
129.33
 21
-7.5
  0
LINE
  8
0
 10
129.33
 20
-7.5
 11
129.568
 21
-7.03368
  0
LINE
  8
0
 10
129.568
 20
-7.03368
 11
129.755
 21
-6.54507
  0
LINE
  8
0
 10
129.755
 20
-6.54507
 11
129.891
 21
-6.03955
  0
LINE
  8
0
 10
129.891
 20
-6.03955
 11
129.973
 21
-5.52263
  0
LINE
  8
0
 10
129.973
 20
-5.52263
 11
130
 21
-5
  0
LINE
  8
0
 10
130
 20
-5
 11
130
 21
105
  0
LINE
  8
0
 10
130
 20
105
 11
129.973
 21
105.523
  0
LINE
  8
0
 10
129.973
 20
105.523
 11
129.891
 21
106.04
  0
LINE
  8
0
 10
129.891
 20
106.04
 11
129.755
 21
106.545
  0
LINE
  8
0
 10
129.755
 20
106.545
 11
129.568
 21
107.034
  0
LINE
  8
0
 10
129.568
 20
107.034
 11
129.33
 21
107.5
  0
LINE
  8
0
 10
129.33
 20
107.5
 11
129.045
 21
107.939
  0
LINE
  8
0
 10
129.045
 20
107.939
 11
128.716
 21
108.346
  0
LINE
  8
0
 10
128.716
 20
108.346
 11
128.346
 21
108.716
  0
LINE
  8
0
 10
128.346
 20
108.716
 11
127.939
 21
109.045
  0
LINE
  8
0
 10
127.939
 20
109.045
 11
127.5
 21
109.33
  0
LINE
  8
0
 10
127.5
 20
109.33
 11
127.034
 21
109.568
  0
LINE
  8
0
 10
127.034
 20
109.568
 11
126.545
 21
109.755
  0
LINE
  8
0
 10
126.545
 20
109.755
 11
126.04
 21
109.891
  0
LINE
  8
0
 10
126.04
 20
109.891
 11
125.523
 21
109.973
  0
LINE
  8
0
 10
125.523
 20
109.973
 11
125
 21
110
  0
LINE
  8
0
 10
125
 20
110
 11
-5
 21
110
  0
LINE
  8
0
 10
-5
 20
110
 11
-5.52263
 21
109.973
  0
LINE
  8
0
 10
-5.52263
 20
109.973
 11
-6.03955
 21
109.891
  0
LINE
  8
0
 10
-6.03955
 20
109.891
 11
-6.54507
 21
109.755
  0
LINE
  8
0
 10
-6.54507
 20
109.755
 11
-7.03368
 21
109.568
  0
LINE
  8
0
 10
-7.03368
 20
109.568
 11
-7.5
 21
109.33
  0
LINE
  8
0
 10
-7.5
 20
109.33
 11
-7.93892
 21
109.045
  0
LINE
  8
0
 10
-7.93892
 20
109.045
 11
-8.34564
 21
108.716
  0
LINE
  8
0
 10
-8.34564
 20
108.716
 11
-8.71571
 21
108.346
  0
LINE
  8
0
 10
-8.71571
 20
108.346
 11
-9.04507
 21
107.939
  0
LINE
  8
0
 10
-9.04507
 20
107.939
 11
-9.33012
 21
107.5
  0
LINE
  8
0
 10
-9.33012
 20
107.5
 11
-9.56772
 21
107.034
  0
LINE
  8
0
 10
-9.56772
 20
107.034
 11
-9.75528
 21
106.545
  0
LINE
  8
0
 10
-9.75528
 20
106.545
 11
-9.89073
 21
106.04
  0
LINE
  8
0
 10
-9.89073
 20
106.04
 11
-9.9726
 21
105.523
  0
LINE
  8
0
 10
-9.9726
 20
105.523
 11
-10
 21
105
  0
LINE
  8
0
 10
-10
 20
105
 11
-10
 21
-5
  0
LINE
  8
0
 10
-10
 20
-5
 11
-9.9726
 21
-5.52263
  0
LINE
  8
0
 10
-9.9726
 20
-5.52263
 11
-9.89073
 21
-6.03955
  0
LINE
  8
0
 10
-9.89073
 20
-6.03955
 11
-9.75528
 21
-6.54507
  0
LINE
  8
0
 10
-9.75528
 20
-6.54507
 11
-9.56772
 21
-7.03368
  0
LINE
  8
0
 10
-9.56772
 20
-7.03368
 11
-9.33012
 21
-7.5
  0
LINE
  8
0
 10
-9.33012
 20
-7.5
 11
-9.04507
 21
-7.93892
  0
LINE
  8
0
 10
-9.04507
 20
-7.93892
 11
-8.71571
 21
-8.34564
  0
LINE
  8
0
 10
-8.71571
 20
-8.34564
 11
-8.34564
 21
-8.71571
  0
LINE
  8
0
 10
-8.34564
 20
-8.71571
 11
-7.93892
 21
-9.04507
  0
LINE
  8
0
 10
-7.93892
 20
-9.04507
 11
-7.5
 21
-9.33012
  0
LINE
  8
0
 10
-7.5
 20
-9.33012
 11
-7.03368
 21
-9.56772
  0
LINE
  8
0
 10
-7.03368
 20
-9.56772
 11
-6.54507
 21
-9.75528
  0
LINE
  8
0
 10
-6.54507
 20
-9.75528
 11
-6.03955
 21
-9.89073
  0
LINE
  8
0
 10
-6.03955
 20
-9.89073
 11
-5.52263
 21
-9.9726
  0
LINE
  8
0
 10
-5.52263
 20
-9.9726
 11
-5
 21
-10
  0
LINE
  8
0
 10
-5
 20
-10
 11
125
 21
-10
  0
LINE
  8
0
 10
125
 20
-10
 11
125.523
 21
-9.9726
  0
LINE
  8
0
 10
100.309
 20
100.4
 11
100.309
 21
103.6
  0
LINE
  8
0
 10
100.309
 20
103.6
 11
114.62
 21
103.6
  0
LINE
  8
0
 10
114.62
 20
103.6
 11
114.62
 21
100.4
  0
LINE
  8
0
 10
114.62
 20
100.4
 11
100.309
 21
100.4
  0
LINE
  8
0
 10
7.94545
 20
100.4
 11
7.94545
 21
103.6
  0
LINE
  8
0
 10
7.94545
 20
103.6
 11
22.2566
 21
103.6
  0
LINE
  8
0
 10
22.2566
 20
103.6
 11
22.2566
 21
100.4
  0
LINE
  8
0
 10
22.2566
 20
100.4
 11
7.94545
 21
100.4
  0
LINE
  8
0
 10
31.0364
 20
100.4
 11
31.0364
 21
103.6
  0
LINE
  8
0
 10
31.0364
 20
103.6
 11
45.3475
 21
103.6
  0
LINE
  8
0
 10
45.3475
 20
103.6
 11
45.3475
 21
100.4
  0
LINE
  8
0
 10
45.3475
 20
100.4
 11
31.0364
 21
100.4
  0
LINE
  8
0
 10
54.1273
 20
100.4
 11
54.1273
 21
103.6
  0
LINE
  8
0
 10
54.1273
 20
103.6
 11
68.4384
 21
103.6
  0
LINE
  8
0
 10
68.4384
 20
103.6
 11
68.4384
 21
100.4
  0
LINE
  8
0
 10
68.4384
 20
100.4
 11
54.1273
 21
100.4
  0
LINE
  8
0
 10
77.2182
 20
100.4
 11
77.2182
 21
103.6
  0
LINE
  8
0
 10
77.2182
 20
103.6
 11
91.5293
 21
103.6
  0
LINE
  8
0
 10
91.5293
 20
103.6
 11
91.5293
 21
100.4
  0
LINE
  8
0
 10
91.5293
 20
100.4
 11
77.2182
 21
100.4
  0
LINE
  8
0
 10
-3.59999
 20
83.9454
 11
-3.59999
 21
93.3273
  0
LINE
  8
0
 10
-3.59999
 20
93.3273
 11
-0.399994
 21
93.3273
  0
LINE
  8
0
 10
-0.399994
 20
93.3273
 11
-0.399994
 21
83.9454
  0
LINE
  8
0
 10
-0.399994
 20
83.9454
 11
-3.59999
 21
83.9454
  0
LINE
  8
0
 10
120.4
 20
83.9454
 11
120.4
 21
93.3273
  0
LINE
  8
0
 10
120.4
 20
93.3273
 11
123.6
 21
93.3273
  0
LINE
  8
0
 10
123.6
 20
93.3273
 11
123.6
 21
83.9454
  0
LINE
  8
0
 10
123.6
 20
83.9454
 11
120.4
 21
83.9454
  0
LINE
  8
0
 10
19.8327
 20
78.4088
 11
19.6673
 21
78.435
  0
LINE
  8
0
 10
19.6673
 20
78.435
 11
19.5056
 21
78.4783
  0
LINE
  8
0
 10
19.5056
 20
78.4783
 11
19.3492
 21
78.5383
  0
LINE
  8
0
 10
19.3492
 20
78.5383
 11
19.2
 21
78.6143
  0
LINE
  8
0
 10
19.2
 20
78.6143
 11
19.0595
 21
78.7056
  0
LINE
  8
0
 10
19.0595
 20
78.7056
 11
18.9294
 21
78.811
  0
LINE
  8
0
 10
18.9294
 20
78.811
 11
18.811
 21
78.9294
  0
LINE
  8
0
 10
18.811
 20
78.9294
 11
18.7056
 21
79.0595
  0
LINE
  8
0
 10
18.7056
 20
79.0595
 11
18.6143
 21
79.2
  0
LINE
  8
0
 10
18.6143
 20
79.2
 11
18.5383
 21
79.3492
  0
LINE
  8
0
 10
18.5383
 20
79.3492
 11
18.4783
 21
79.5056
  0
LINE
  8
0
 10
18.4783
 20
79.5056
 11
18.435
 21
79.6673
  0
LINE
  8
0
 10
18.435
 20
79.6673
 11
18.4088
 21
79.8327
  0
LINE
  8
0
 10
18.4088
 20
79.8327
 11
18.4
 21
80
  0
LINE
  8
0
 10
18.4
 20
80
 11
18.4088
 21
80.1672
  0
LINE
  8
0
 10
18.4088
 20
80.1672
 11
18.435
 21
80.3327
  0
LINE
  8
0
 10
18.435
 20
80.3327
 11
18.4783
 21
80.4944
  0
LINE
  8
0
 10
18.4783
 20
80.4944
 11
18.5383
 21
80.6508
  0
LINE
  8
0
 10
18.5383
 20
80.6508
 11
18.6143
 21
80.8
  0
LINE
  8
0
 10
18.6143
 20
80.8
 11
18.7056
 21
80.9405
  0
LINE
  8
0
 10
18.7056
 20
80.9405
 11
18.811
 21
81.0706
  0
LINE
  8
0
 10
18.811
 20
81.0706
 11
18.9294
 21
81.189
  0
LINE
  8
0
 10
18.9294
 20
81.189
 11
19.0595
 21
81.2944
  0
LINE
  8
0
 10
19.0595
 20
81.2944
 11
19.2
 21
81.3856
  0
LINE
  8
0
 10
19.2
 20
81.3856
 11
19.3492
 21
81.4617
  0
LINE
  8
0
 10
19.3492
 20
81.4617
 11
19.5056
 21
81.5217
  0
LINE
  8
0
 10
19.5056
 20
81.5217
 11
19.6673
 21
81.565
  0
LINE
  8
0
 10
19.6673
 20
81.565
 11
19.8327
 21
81.5912
  0
LINE
  8
0
 10
19.8327
 20
81.5912
 11
20
 21
81.6
  0
LINE
  8
0
 10
20
 20
81.6
 11
20.1672
 21
81.5912
  0
LINE
  8
0
 10
20.1672
 20
81.5912
 11
20.3327
 21
81.565
  0
LINE
  8
0
 10
20.3327
 20
81.565
 11
20.4944
 21
81.5217
  0
LINE
  8
0
 10
20.4944
 20
81.5217
 11
20.6508
 21
81.4617
  0
LINE
  8
0
 10
20.6508
 20
81.4617
 11
20.8
 21
81.3856
  0
LINE
  8
0
 10
20.8
 20
81.3856
 11
20.9404
 21
81.2944
  0
LINE
  8
0
 10
20.9404
 20
81.2944
 11
21.0706
 21
81.189
  0
LINE
  8
0
 10
21.0706
 20
81.189
 11
21.189
 21
81.0706
  0
LINE
  8
0
 10
21.189
 20
81.0706
 11
21.2944
 21
80.9405
  0
LINE
  8
0
 10
21.2944
 20
80.9405
 11
21.3856
 21
80.8
  0
LINE
  8
0
 10
21.3856
 20
80.8
 11
21.4617
 21
80.6508
  0
LINE
  8
0
 10
21.4617
 20
80.6508
 11
21.5217
 21
80.4944
  0
LINE
  8
0
 10
21.5217
 20
80.4944
 11
21.565
 21
80.3327
  0
LINE
  8
0
 10
21.565
 20
80.3327
 11
21.5912
 21
80.1672
  0
LINE
  8
0
 10
21.5912
 20
80.1672
 11
21.6
 21
80
  0
LINE
  8
0
 10
21.6
 20
80
 11
21.5912
 21
79.8327
  0
LINE
  8
0
 10
21.5912
 20
79.8327
 11
21.565
 21
79.6673
  0
LINE
  8
0
 10
21.565
 20
79.6673
 11
21.5217
 21
79.5056
  0
LINE
  8
0
 10
21.5217
 20
79.5056
 11
21.4617
 21
79.3492
  0
LINE
  8
0
 10
21.4617
 20
79.3492
 11
21.3856
 21
79.2
  0
LINE
  8
0
 10
21.3856
 20
79.2
 11
21.2944
 21
79.0595
  0
LINE
  8
0
 10
21.2944
 20
79.0595
 11
21.189
 21
78.9294
  0
LINE
  8
0
 10
21.189
 20
78.9294
 11
21.0706
 21
78.811
  0
LINE
  8
0
 10
21.0706
 20
78.811
 11
20.9404
 21
78.7056
  0
LINE
  8
0
 10
20.9404
 20
78.7056
 11
20.8
 21
78.6143
  0
LINE
  8
0
 10
20.8
 20
78.6143
 11
20.6508
 21
78.5383
  0
LINE
  8
0
 10
20.6508
 20
78.5383
 11
20.4944
 21
78.4783
  0
LINE
  8
0
 10
20.4944
 20
78.4783
 11
20.3327
 21
78.435
  0
LINE
  8
0
 10
20.3327
 20
78.435
 11
20.1672
 21
78.4088
  0
LINE
  8
0
 10
20.1672
 20
78.4088
 11
20
 21
78.4
  0
LINE
  8
0
 10
20
 20
78.4
 11
19.8327
 21
78.4088
  0
LINE
  8
0
 10
99.8327
 20
78.4088
 11
99.6673
 21
78.435
  0
LINE
  8
0
 10
99.6673
 20
78.435
 11
99.5056
 21
78.4783
  0
LINE
  8
0
 10
99.5056
 20
78.4783
 11
99.3492
 21
78.5383
  0
LINE
  8
0
 10
99.3492
 20
78.5383
 11
99.2
 21
78.6143
  0
LINE
  8
0
 10
99.2
 20
78.6143
 11
99.0595
 21
78.7056
  0
LINE
  8
0
 10
99.0595
 20
78.7056
 11
98.9294
 21
78.811
  0
LINE
  8
0
 10
98.9294
 20
78.811
 11
98.811
 21
78.9294
  0
LINE
  8
0
 10
98.811
 20
78.9294
 11
98.7056
 21
79.0595
  0
LINE
  8
0
 10
98.7056
 20
79.0595
 11
98.6143
 21
79.2
  0
LINE
  8
0
 10
98.6143
 20
79.2
 11
98.5383
 21
79.3492
  0
LINE
  8
0
 10
98.5383
 20
79.3492
 11
98.4783
 21
79.5056
  0
LINE
  8
0
 10
98.4783
 20
79.5056
 11
98.435
 21
79.6673
  0
LINE
  8
0
 10
98.435
 20
79.6673
 11
98.4088
 21
79.8327
  0
LINE
  8
0
 10
98.4088
 20
79.8327
 11
98.4
 21
80
  0
LINE
  8
0
 10
98.4
 20
80
 11
98.4088
 21
80.1672
  0
LINE
  8
0
 10
98.4088
 20
80.1672
 11
98.435
 21
80.3327
  0
LINE
  8
0
 10
98.435
 20
80.3327
 11
98.4783
 21
80.4944
  0
LINE
  8
0
 10
98.4783
 20
80.4944
 11
98.5383
 21
80.6508
  0
LINE
  8
0
 10
98.5383
 20
80.6508
 11
98.6143
 21
80.8
  0
LINE
  8
0
 10
98.6143
 20
80.8
 11
98.7056
 21
80.9405
  0
LINE
  8
0
 10
98.7056
 20
80.9405
 11
98.811
 21
81.0706
  0
LINE
  8
0
 10
98.811
 20
81.0706
 11
98.9294
 21
81.189
  0
LINE
  8
0
 10
98.9294
 20
81.189
 11
99.0595
 21
81.2944
  0
LINE
  8
0
 10
99.0595
 20
81.2944
 11
99.2
 21
81.3856
  0
LINE
  8
0
 10
99.2
 20
81.3856
 11
99.3492
 21
81.4617
  0
LINE
  8
0
 10
99.3492
 20
81.4617
 11
99.5056
 21
81.5217
  0
LINE
  8
0
 10
99.5056
 20
81.5217
 11
99.6673
 21
81.565
  0
LINE
  8
0
 10
99.6673
 20
81.565
 11
99.8327
 21
81.5912
  0
LINE
  8
0
 10
99.8327
 20
81.5912
 11
100
 21
81.6
  0
LINE
  8
0
 10
100
 20
81.6
 11
100.167
 21
81.5912
  0
LINE
  8
0
 10
100.167
 20
81.5912
 11
100.333
 21
81.565
  0
LINE
  8
0
 10
100.333
 20
81.565
 11
100.494
 21
81.5217
  0
LINE
  8
0
 10
100.494
 20
81.5217
 11
100.651
 21
81.4617
  0
LINE
  8
0
 10
100.651
 20
81.4617
 11
100.8
 21
81.3856
  0
LINE
  8
0
 10
100.8
 20
81.3856
 11
100.94
 21
81.2944
  0
LINE
  8
0
 10
100.94
 20
81.2944
 11
101.071
 21
81.189
  0
LINE
  8
0
 10
101.071
 20
81.189
 11
101.189
 21
81.0706
  0
LINE
  8
0
 10
101.189
 20
81.0706
 11
101.294
 21
80.9405
  0
LINE
  8
0
 10
101.294
 20
80.9405
 11
101.386
 21
80.8
  0
LINE
  8
0
 10
101.386
 20
80.8
 11
101.462
 21
80.6508
  0
LINE
  8
0
 10
101.462
 20
80.6508
 11
101.522
 21
80.4944
  0
LINE
  8
0
 10
101.522
 20
80.4944
 11
101.565
 21
80.3327
  0
LINE
  8
0
 10
101.565
 20
80.3327
 11
101.591
 21
80.1672
  0
LINE
  8
0
 10
101.591
 20
80.1672
 11
101.6
 21
80
  0
LINE
  8
0
 10
101.6
 20
80
 11
101.591
 21
79.8327
  0
LINE
  8
0
 10
101.591
 20
79.8327
 11
101.565
 21
79.6673
  0
LINE
  8
0
 10
101.565
 20
79.6673
 11
101.522
 21
79.5056
  0
LINE
  8
0
 10
101.522
 20
79.5056
 11
101.462
 21
79.3492
  0
LINE
  8
0
 10
101.462
 20
79.3492
 11
101.386
 21
79.2
  0
LINE
  8
0
 10
101.386
 20
79.2
 11
101.294
 21
79.0595
  0
LINE
  8
0
 10
101.294
 20
79.0595
 11
101.189
 21
78.9294
  0
LINE
  8
0
 10
101.189
 20
78.9294
 11
101.071
 21
78.811
  0
LINE
  8
0
 10
101.071
 20
78.811
 11
100.94
 21
78.7056
  0
LINE
  8
0
 10
100.94
 20
78.7056
 11
100.8
 21
78.6143
  0
LINE
  8
0
 10
100.8
 20
78.6143
 11
100.651
 21
78.5383
  0
LINE
  8
0
 10
100.651
 20
78.5383
 11
100.494
 21
78.4783
  0
LINE
  8
0
 10
100.494
 20
78.4783
 11
100.333
 21
78.435
  0
LINE
  8
0
 10
100.333
 20
78.435
 11
100.167
 21
78.4088
  0
LINE
  8
0
 10
100.167
 20
78.4088
 11
100
 21
78.4
  0
LINE
  8
0
 10
100
 20
78.4
 11
99.8327
 21
78.4088
  0
LINE
  8
0
 10
-3.59999
 20
64.4909
 11
-3.59999
 21
73.8727
  0
LINE
  8
0
 10
-3.59999
 20
73.8727
 11
-0.399994
 21
73.8727
  0
LINE
  8
0
 10
-0.399994
 20
73.8727
 11
-0.399994
 21
64.4909
  0
LINE
  8
0
 10
-0.399994
 20
64.4909
 11
-3.59999
 21
64.4909
  0
LINE
  8
0
 10
120.4
 20
64.4909
 11
120.4
 21
73.8727
  0
LINE
  8
0
 10
120.4
 20
73.8727
 11
123.6
 21
73.8727
  0
LINE
  8
0
 10
123.6
 20
73.8727
 11
123.6
 21
64.4909
  0
LINE
  8
0
 10
123.6
 20
64.4909
 11
120.4
 21
64.4909
  0
LINE
  8
0
 10
120.4
 20
45.0364
 11
120.4
 21
54.4182
  0
LINE
  8
0
 10
120.4
 20
54.4182
 11
123.6
 21
54.4182
  0
LINE
  8
0
 10
123.6
 20
54.4182
 11
123.6
 21
45.0364
  0
LINE
  8
0
 10
123.6
 20
45.0364
 11
120.4
 21
45.0364
  0
LINE
  8
0
 10
-3.59999
 20
45.0364
 11
-3.59999
 21
54.4182
  0
LINE
  8
0
 10
-3.59999
 20
54.4182
 11
-0.399994
 21
54.4182
  0
LINE
  8
0
 10
-0.399994
 20
54.4182
 11
-0.399994
 21
45.0364
  0
LINE
  8
0
 10
-0.399994
 20
45.0364
 11
-3.59999
 21
45.0364
  0
LINE
  8
0
 10
-3.59999
 20
25.5818
 11
-3.59999
 21
34.9636
  0
LINE
  8
0
 10
-3.59999
 20
34.9636
 11
-0.399994
 21
34.9636
  0
LINE
  8
0
 10
-0.399994
 20
34.9636
 11
-0.399994
 21
25.5818
  0
LINE
  8
0
 10
-0.399994
 20
25.5818
 11
-3.59999
 21
25.5818
  0
LINE
  8
0
 10
120.4
 20
25.5818
 11
120.4
 21
34.9636
  0
LINE
  8
0
 10
120.4
 20
34.9636
 11
123.6
 21
34.9636
  0
LINE
  8
0
 10
123.6
 20
34.9636
 11
123.6
 21
25.5818
  0
LINE
  8
0
 10
123.6
 20
25.5818
 11
120.4
 21
25.5818
  0
LINE
  8
0
 10
19.8327
 20
18.4088
 11
19.6673
 21
18.435
  0
LINE
  8
0
 10
19.6673
 20
18.435
 11
19.5056
 21
18.4783
  0
LINE
  8
0
 10
19.5056
 20
18.4783
 11
19.3492
 21
18.5383
  0
LINE
  8
0
 10
19.3492
 20
18.5383
 11
19.2
 21
18.6143
  0
LINE
  8
0
 10
19.2
 20
18.6143
 11
19.0595
 21
18.7056
  0
LINE
  8
0
 10
19.0595
 20
18.7056
 11
18.9294
 21
18.811
  0
LINE
  8
0
 10
18.9294
 20
18.811
 11
18.811
 21
18.9294
  0
LINE
  8
0
 10
18.811
 20
18.9294
 11
18.7056
 21
19.0595
  0
LINE
  8
0
 10
18.7056
 20
19.0595
 11
18.6143
 21
19.2
  0
LINE
  8
0
 10
18.6143
 20
19.2
 11
18.5383
 21
19.3492
  0
LINE
  8
0
 10
18.5383
 20
19.3492
 11
18.4783
 21
19.5056
  0
LINE
  8
0
 10
18.4783
 20
19.5056
 11
18.435
 21
19.6673
  0
LINE
  8
0
 10
18.435
 20
19.6673
 11
18.4088
 21
19.8327
  0
LINE
  8
0
 10
18.4088
 20
19.8327
 11
18.4
 21
20
  0
LINE
  8
0
 10
18.4
 20
20
 11
18.4088
 21
20.1672
  0
LINE
  8
0
 10
18.4088
 20
20.1672
 11
18.435
 21
20.3327
  0
LINE
  8
0
 10
18.435
 20
20.3327
 11
18.4783
 21
20.4944
  0
LINE
  8
0
 10
18.4783
 20
20.4944
 11
18.5383
 21
20.6508
  0
LINE
  8
0
 10
18.5383
 20
20.6508
 11
18.6143
 21
20.8
  0
LINE
  8
0
 10
18.6143
 20
20.8
 11
18.7056
 21
20.9404
  0
LINE
  8
0
 10
18.7056
 20
20.9404
 11
18.811
 21
21.0706
  0
LINE
  8
0
 10
18.811
 20
21.0706
 11
18.9294
 21
21.189
  0
LINE
  8
0
 10
18.9294
 20
21.189
 11
19.0595
 21
21.2944
  0
LINE
  8
0
 10
19.0595
 20
21.2944
 11
19.2
 21
21.3856
  0
LINE
  8
0
 10
19.2
 20
21.3856
 11
19.3492
 21
21.4617
  0
LINE
  8
0
 10
19.3492
 20
21.4617
 11
19.5056
 21
21.5217
  0
LINE
  8
0
 10
19.5056
 20
21.5217
 11
19.6673
 21
21.565
  0
LINE
  8
0
 10
19.6673
 20
21.565
 11
19.8327
 21
21.5912
  0
LINE
  8
0
 10
19.8327
 20
21.5912
 11
20
 21
21.6
  0
LINE
  8
0
 10
20
 20
21.6
 11
20.1672
 21
21.5912
  0
LINE
  8
0
 10
20.1672
 20
21.5912
 11
20.3327
 21
21.565
  0
LINE
  8
0
 10
20.3327
 20
21.565
 11
20.4944
 21
21.5217
  0
LINE
  8
0
 10
20.4944
 20
21.5217
 11
20.6508
 21
21.4617
  0
LINE
  8
0
 10
20.6508
 20
21.4617
 11
20.8
 21
21.3856
  0
LINE
  8
0
 10
20.8
 20
21.3856
 11
20.9404
 21
21.2944
  0
LINE
  8
0
 10
20.9404
 20
21.2944
 11
21.0706
 21
21.189
  0
LINE
  8
0
 10
21.0706
 20
21.189
 11
21.189
 21
21.0706
  0
LINE
  8
0
 10
21.189
 20
21.0706
 11
21.2944
 21
20.9404
  0
LINE
  8
0
 10
21.2944
 20
20.9404
 11
21.3856
 21
20.8
  0
LINE
  8
0
 10
21.3856
 20
20.8
 11
21.4617
 21
20.6508
  0
LINE
  8
0
 10
21.4617
 20
20.6508
 11
21.5217
 21
20.4944
  0
LINE
  8
0
 10
21.5217
 20
20.4944
 11
21.565
 21
20.3327
  0
LINE
  8
0
 10
21.565
 20
20.3327
 11
21.5912
 21
20.1672
  0
LINE
  8
0
 10
21.5912
 20
20.1672
 11
21.6
 21
20
  0
LINE
  8
0
 10
21.6
 20
20
 11
21.5912
 21
19.8327
  0
LINE
  8
0
 10
21.5912
 20
19.8327
 11
21.565
 21
19.6673
  0
LINE
  8
0
 10
21.565
 20
19.6673
 11
21.5217
 21
19.5056
  0
LINE
  8
0
 10
21.5217
 20
19.5056
 11
21.4617
 21
19.3492
  0
LINE
  8
0
 10
21.4617
 20
19.3492
 11
21.3856
 21
19.2
  0
LINE
  8
0
 10
21.3856
 20
19.2
 11
21.2944
 21
19.0595
  0
LINE
  8
0
 10
21.2944
 20
19.0595
 11
21.189
 21
18.9294
  0
LINE
  8
0
 10
21.189
 20
18.9294
 11
21.0706
 21
18.811
  0
LINE
  8
0
 10
21.0706
 20
18.811
 11
20.9404
 21
18.7056
  0
LINE
  8
0
 10
20.9404
 20
18.7056
 11
20.8
 21
18.6143
  0
LINE
  8
0
 10
20.8
 20
18.6143
 11
20.6508
 21
18.5383
  0
LINE
  8
0
 10
20.6508
 20
18.5383
 11
20.4944
 21
18.4783
  0
LINE
  8
0
 10
20.4944
 20
18.4783
 11
20.3327
 21
18.435
  0
LINE
  8
0
 10
20.3327
 20
18.435
 11
20.1672
 21
18.4088
  0
LINE
  8
0
 10
20.1672
 20
18.4088
 11
20
 21
18.4
  0
LINE
  8
0
 10
20
 20
18.4
 11
19.8327
 21
18.4088
  0
LINE
  8
0
 10
99.8327
 20
18.4088
 11
99.6673
 21
18.435
  0
LINE
  8
0
 10
99.6673
 20
18.435
 11
99.5056
 21
18.4783
  0
LINE
  8
0
 10
99.5056
 20
18.4783
 11
99.3492
 21
18.5383
  0
LINE
  8
0
 10
99.3492
 20
18.5383
 11
99.2
 21
18.6143
  0
LINE
  8
0
 10
99.2
 20
18.6143
 11
99.0595
 21
18.7056
  0
LINE
  8
0
 10
99.0595
 20
18.7056
 11
98.9294
 21
18.811
  0
LINE
  8
0
 10
98.9294
 20
18.811
 11
98.811
 21
18.9294
  0
LINE
  8
0
 10
98.811
 20
18.9294
 11
98.7056
 21
19.0595
  0
LINE
  8
0
 10
98.7056
 20
19.0595
 11
98.6143
 21
19.2
  0
LINE
  8
0
 10
98.6143
 20
19.2
 11
98.5383
 21
19.3492
  0
LINE
  8
0
 10
98.5383
 20
19.3492
 11
98.4783
 21
19.5056
  0
LINE
  8
0
 10
98.4783
 20
19.5056
 11
98.435
 21
19.6673
  0
LINE
  8
0
 10
98.435
 20
19.6673
 11
98.4088
 21
19.8327
  0
LINE
  8
0
 10
98.4088
 20
19.8327
 11
98.4
 21
20
  0
LINE
  8
0
 10
98.4
 20
20
 11
98.4088
 21
20.1672
  0
LINE
  8
0
 10
98.4088
 20
20.1672
 11
98.435
 21
20.3327
  0
LINE
  8
0
 10
98.435
 20
20.3327
 11
98.4783
 21
20.4944
  0
LINE
  8
0
 10
98.4783
 20
20.4944
 11
98.5383
 21
20.6508
  0
LINE
  8
0
 10
98.5383
 20
20.6508
 11
98.6143
 21
20.8
  0
LINE
  8
0
 10
98.6143
 20
20.8
 11
98.7056
 21
20.9404
  0
LINE
  8
0
 10
98.7056
 20
20.9404
 11
98.811
 21
21.0706
  0
LINE
  8
0
 10
98.811
 20
21.0706
 11
98.9294
 21
21.189
  0
LINE
  8
0
 10
98.9294
 20
21.189
 11
99.0595
 21
21.2944
  0
LINE
  8
0
 10
99.0595
 20
21.2944
 11
99.2
 21
21.3856
  0
LINE
  8
0
 10
99.2
 20
21.3856
 11
99.3492
 21
21.4617
  0
LINE
  8
0
 10
99.3492
 20
21.4617
 11
99.5056
 21
21.5217
  0
LINE
  8
0
 10
99.5056
 20
21.5217
 11
99.6673
 21
21.565
  0
LINE
  8
0
 10
99.6673
 20
21.565
 11
99.8327
 21
21.5912
  0
LINE
  8
0
 10
99.8327
 20
21.5912
 11
100
 21
21.6
  0
LINE
  8
0
 10
100
 20
21.6
 11
100.167
 21
21.5912
  0
LINE
  8
0
 10
100.167
 20
21.5912
 11
100.333
 21
21.565
  0
LINE
  8
0
 10
100.333
 20
21.565
 11
100.494
 21
21.5217
  0
LINE
  8
0
 10
100.494
 20
21.5217
 11
100.651
 21
21.4617
  0
LINE
  8
0
 10
100.651
 20
21.4617
 11
100.8
 21
21.3856
  0
LINE
  8
0
 10
100.8
 20
21.3856
 11
100.94
 21
21.2944
  0
LINE
  8
0
 10
100.94
 20
21.2944
 11
101.071
 21
21.189
  0
LINE
  8
0
 10
101.071
 20
21.189
 11
101.189
 21
21.0706
  0
LINE
  8
0
 10
101.189
 20
21.0706
 11
101.294
 21
20.9404
  0
LINE
  8
0
 10
101.294
 20
20.9404
 11
101.386
 21
20.8
  0
LINE
  8
0
 10
101.386
 20
20.8
 11
101.462
 21
20.6508
  0
LINE
  8
0
 10
101.462
 20
20.6508
 11
101.522
 21
20.4944
  0
LINE
  8
0
 10
101.522
 20
20.4944
 11
101.565
 21
20.3327
  0
LINE
  8
0
 10
101.565
 20
20.3327
 11
101.591
 21
20.1672
  0
LINE
  8
0
 10
101.591
 20
20.1672
 11
101.6
 21
20
  0
LINE
  8
0
 10
101.6
 20
20
 11
101.591
 21
19.8327
  0
LINE
  8
0
 10
101.591
 20
19.8327
 11
101.565
 21
19.6673
  0
LINE
  8
0
 10
101.565
 20
19.6673
 11
101.522
 21
19.5056
  0
LINE
  8
0
 10
101.522
 20
19.5056
 11
101.462
 21
19.3492
  0
LINE
  8
0
 10
101.462
 20
19.3492
 11
101.386
 21
19.2
  0
LINE
  8
0
 10
101.386
 20
19.2
 11
101.294
 21
19.0595
  0
LINE
  8
0
 10
101.294
 20
19.0595
 11
101.189
 21
18.9294
  0
LINE
  8
0
 10
101.189
 20
18.9294
 11
101.071
 21
18.811
  0
LINE
  8
0
 10
101.071
 20
18.811
 11
100.94
 21
18.7056
  0
LINE
  8
0
 10
100.94
 20
18.7056
 11
100.8
 21
18.6143
  0
LINE
  8
0
 10
100.8
 20
18.6143
 11
100.651
 21
18.5383
  0
LINE
  8
0
 10
100.651
 20
18.5383
 11
100.494
 21
18.4783
  0
LINE
  8
0
 10
100.494
 20
18.4783
 11
100.333
 21
18.435
  0
LINE
  8
0
 10
100.333
 20
18.435
 11
100.167
 21
18.4088
  0
LINE
  8
0
 10
100.167
 20
18.4088
 11
100
 21
18.4
  0
LINE
  8
0
 10
100
 20
18.4
 11
99.8327
 21
18.4088
  0
LINE
  8
0
 10
-3.59999
 20
6.12726
 11
-3.59999
 21
15.5091
  0
LINE
  8
0
 10
-3.59999
 20
15.5091
 11
-0.399994
 21
15.5091
  0
LINE
  8
0
 10
-0.399994
 20
15.5091
 11
-0.399994
 21
6.12726
  0
LINE
  8
0
 10
-0.399994
 20
6.12726
 11
-3.59999
 21
6.12726
  0
LINE
  8
0
 10
120.4
 20
6.12726
 11
120.4
 21
15.5091
  0
LINE
  8
0
 10
120.4
 20
15.5091
 11
123.6
 21
15.5091
  0
LINE
  8
0
 10
123.6
 20
15.5091
 11
123.6
 21
6.12726
  0
LINE
  8
0
 10
123.6
 20
6.12726
 11
120.4
 21
6.12726
  0
LINE
  8
0
 10
100.309
 20
-3.59999
 11
100.309
 21
-0.399994
  0
LINE
  8
0
 10
100.309
 20
-0.399994
 11
113.209
 21
-0.399994
  0
LINE
  8
0
 10
113.209
 20
-0.399994
 11
113.209
 21
-3.59999
  0
LINE
  8
0
 10
113.209
 20
-3.59999
 11
100.309
 21
-3.59999
  0
LINE
  8
0
 10
31.0364
 20
-3.59999
 11
31.0364
 21
-0.399994
  0
LINE
  8
0
 10
31.0364
 20
-0.399994
 11
43.9364
 21
-0.399994
  0
LINE
  8
0
 10
43.9364
 20
-0.399994
 11
43.9364
 21
-3.59999
  0
LINE
  8
0
 10
43.9364
 20
-3.59999
 11
31.0364
 21
-3.59999
  0
LINE
  8
0
 10
7.94545
 20
-3.59999
 11
7.94545
 21
-0.399994
  0
LINE
  8
0
 10
7.94545
 20
-0.399994
 11
20.8454
 21
-0.399994
  0
LINE
  8
0
 10
20.8454
 20
-0.399994
 11
20.8454
 21
-3.59999
  0
LINE
  8
0
 10
20.8454
 20
-3.59999
 11
7.94545
 21
-3.59999
  0
LINE
  8
0
 10
77.2182
 20
-3.59999
 11
77.2182
 21
-0.399994
  0
LINE
  8
0
 10
77.2182
 20
-0.399994
 11
90.1182
 21
-0.399994
  0
LINE
  8
0
 10
90.1182
 20
-0.399994
 11
90.1182
 21
-3.59999
  0
LINE
  8
0
 10
90.1182
 20
-3.59999
 11
77.2182
 21
-3.59999
  0
LINE
  8
0
 10
54.1273
 20
-3.59999
 11
54.1273
 21
-0.399994
  0
LINE
  8
0
 10
54.1273
 20
-0.399994
 11
67.0273
 21
-0.399994
  0
LINE
  8
0
 10
67.0273
 20
-0.399994
 11
67.0273
 21
-3.59999
  0
LINE
  8
0
 10
67.0273
 20
-3.59999
 11
54.1273
 21
-3.59999
  0
ENDSEC
  0
SECTION
  2
OBJECTS
  0
DICTIONARY
  0
ENDSEC
  0
EOF
