solid OpenSCAD_Model
  facet normal 1 -0 0
    outer loop
      vertex 120.4 6.12727 31
      vertex 120.4 15.5091 28
      vertex 120.4 15.5091 31
    endloop
  endfacet
  facet normal 1 0 0
    outer loop
      vertex 120.4 15.5091 28
      vertex 120.4 6.12727 31
      vertex 120.4 6.12727 28
    endloop
  endfacet
  facet normal -1 0 0
    outer loop
      vertex 123.6 6.12727 28
      vertex 123.6 15.5091 31
      vertex 123.6 15.5091 28
    endloop
  endfacet
  facet normal -1 -0 0
    outer loop
      vertex 123.6 15.5091 31
      vertex 123.6 6.12727 28
      vertex 123.6 6.12727 31
    endloop
  endfacet
  facet normal 0 0 -1
    outer loop
      vertex -3.6 73.8727 28
      vertex -0.4 83.9454 28
      vertex -0.4 73.8727 28
    endloop
  endfacet
  facet normal -0 0 -1
    outer loop
      vertex -0.4 83.9454 28
      vertex -3.6 73.8727 28
      vertex -3.6 83.9454 28
    endloop
  endfacet
  facet normal 0 0 -1
    outer loop
      vertex -3.6 54.4182 28
      vertex -0.4 64.4909 28
      vertex -0.4 54.4182 28
    endloop
  endfacet
  facet normal -0 0 -1
    outer loop
      vertex -0.4 64.4909 28
      vertex -3.6 54.4182 28
      vertex -3.6 64.4909 28
    endloop
  endfacet
  facet normal 0 0 -1
    outer loop
      vertex -3.6 34.9636 28
      vertex -0.4 45.0364 28
      vertex -0.4 34.9636 28
    endloop
  endfacet
  facet normal -0 0 -1
    outer loop
      vertex -0.4 45.0364 28
      vertex -3.6 34.9636 28
      vertex -3.6 45.0364 28
    endloop
  endfacet
  facet normal 0 0 -1
    outer loop
      vertex -3.6 15.5091 28
      vertex -0.4 25.5818 28
      vertex -0.4 15.5091 28
    endloop
  endfacet
  facet normal -0 0 -1
    outer loop
      vertex -0.4 25.5818 28
      vertex -3.6 15.5091 28
      vertex -3.6 25.5818 28
    endloop
  endfacet
  facet normal 0 0 -1
    outer loop
      vertex 120.4 73.8727 28
      vertex 123.6 83.9454 28
      vertex 123.6 73.8727 28
    endloop
  endfacet
  facet normal -0 0 -1
    outer loop
      vertex 123.6 83.9454 28
      vertex 120.4 73.8727 28
      vertex 120.4 83.9454 28
    endloop
  endfacet
  facet normal 0 0 -1
    outer loop
      vertex 120.4 54.4182 28
      vertex 123.6 64.4909 28
      vertex 123.6 54.4182 28
    endloop
  endfacet
  facet normal -0 0 -1
    outer loop
      vertex 123.6 64.4909 28
      vertex 120.4 54.4182 28
      vertex 120.4 64.4909 28
    endloop
  endfacet
  facet normal 0 0 -1
    outer loop
      vertex 120.4 34.9636 28
      vertex 123.6 45.0364 28
      vertex 123.6 34.9636 28
    endloop
  endfacet
  facet normal -0 0 -1
    outer loop
      vertex 123.6 45.0364 28
      vertex 120.4 34.9636 28
      vertex 120.4 45.0364 28
    endloop
  endfacet
  facet normal 0 0 -1
    outer loop
      vertex 120.4 15.5091 28
      vertex 123.6 25.5818 28
      vertex 123.6 15.5091 28
    endloop
  endfacet
  facet normal -0 0 -1
    outer loop
      vertex 123.6 25.5818 28
      vertex 120.4 15.5091 28
      vertex 120.4 25.5818 28
    endloop
  endfacet
  facet normal 0 0 -1
    outer loop
      vertex 125 -10 28
      vertex 130 -5 28
      vertex 129.973 -5.52264 28
    endloop
  endfacet
  facet normal 0 0 -1
    outer loop
      vertex 130 -5 28
      vertex 123.6 45.0364 28
      vertex 130 105 28
    endloop
  endfacet
  facet normal 0 0 -1
    outer loop
      vertex 125 -10 28
      vertex 129.973 -5.52264 28
      vertex 129.891 -6.03956 28
    endloop
  endfacet
  facet normal 0 0 -1
    outer loop
      vertex 123.6 54.4182 28
      vertex 130 105 28
      vertex 123.6 45.0364 28
    endloop
  endfacet
  facet normal 0 0 -1
    outer loop
      vertex 125 -10 28
      vertex 129.891 -6.03956 28
      vertex 129.755 -6.54508 28
    endloop
  endfacet
  facet normal 0 0 -1
    outer loop
      vertex 123.6 64.4909 28
      vertex 130 105 28
      vertex 123.6 54.4182 28
    endloop
  endfacet
  facet normal 0 0 -1
    outer loop
      vertex 125 -10 28
      vertex 129.755 -6.54508 28
      vertex 129.568 -7.03368 28
    endloop
  endfacet
  facet normal 0 0 -1
    outer loop
      vertex 123.6 73.8727 28
      vertex 130 105 28
      vertex 123.6 64.4909 28
    endloop
  endfacet
  facet normal 0 0 -1
    outer loop
      vertex 125 -10 28
      vertex 129.568 -7.03368 28
      vertex 129.33 -7.5 28
    endloop
  endfacet
  facet normal 0 0 -1
    outer loop
      vertex 123.6 83.9454 28
      vertex 130 105 28
      vertex 123.6 73.8727 28
    endloop
  endfacet
  facet normal 0 0 -1
    outer loop
      vertex 125 -10 28
      vertex 129.33 -7.5 28
      vertex 129.045 -7.93893 28
    endloop
  endfacet
  facet normal 0 0 -1
    outer loop
      vertex 123.6 93.3273 28
      vertex 130 105 28
      vertex 123.6 83.9454 28
    endloop
  endfacet
  facet normal 0 0 -1
    outer loop
      vertex 125 -10 28
      vertex 129.045 -7.93893 28
      vertex 128.716 -8.34565 28
    endloop
  endfacet
  facet normal 0 0 -1
    outer loop
      vertex 114.62 100.4 28
      vertex 130 105 28
      vertex 123.6 93.3273 28
    endloop
  endfacet
  facet normal 0 0 -1
    outer loop
      vertex 125 -10 28
      vertex 128.716 -8.34565 28
      vertex 128.346 -8.71572 28
    endloop
  endfacet
  facet normal 0 0 -1
    outer loop
      vertex 114.62 103.6 28
      vertex 130 105 28
      vertex 114.62 100.4 28
    endloop
  endfacet
  facet normal 0 0 -1
    outer loop
      vertex 125 -10 28
      vertex 128.346 -8.71572 28
      vertex 127.939 -9.04508 28
    endloop
  endfacet
  facet normal 0 -0 -1
    outer loop
      vertex 125 110 28
      vertex 130 105 28
      vertex 114.62 103.6 28
    endloop
  endfacet
  facet normal 0 0 -1
    outer loop
      vertex 125 -10 28
      vertex 127.939 -9.04508 28
      vertex 127.5 -9.33013 28
    endloop
  endfacet
  facet normal 0 0 -1
    outer loop
      vertex 130 105 28
      vertex 125 110 28
      vertex 129.973 105.523 28
    endloop
  endfacet
  facet normal 0 0 -1
    outer loop
      vertex 125 -10 28
      vertex 127.5 -9.33013 28
      vertex 127.034 -9.56773 28
    endloop
  endfacet
  facet normal 0 0 -1
    outer loop
      vertex 129.755 106.545 28
      vertex 125 110 28
      vertex 129.568 107.034 28
    endloop
  endfacet
  facet normal 0 0 -1
    outer loop
      vertex 125 -10 28
      vertex 127.034 -9.56773 28
      vertex 126.545 -9.75528 28
    endloop
  endfacet
  facet normal 0 0 -1
    outer loop
      vertex 129.568 107.034 28
      vertex 125 110 28
      vertex 129.33 107.5 28
    endloop
  endfacet
  facet normal 0 0 -1
    outer loop
      vertex 125 -10 28
      vertex 126.545 -9.75528 28
      vertex 126.04 -9.89074 28
    endloop
  endfacet
  facet normal 0 0 -1
    outer loop
      vertex 129.33 107.5 28
      vertex 125 110 28
      vertex 129.045 107.939 28
    endloop
  endfacet
  facet normal 0 0 -1
    outer loop
      vertex 125 -10 28
      vertex 126.04 -9.89074 28
      vertex 125.523 -9.97261 28
    endloop
  endfacet
  facet normal 0 0 -1
    outer loop
      vertex 129.045 107.939 28
      vertex 125 110 28
      vertex 128.716 108.346 28
    endloop
  endfacet
  facet normal -0 0 -1
    outer loop
      vertex 130 -5 28
      vertex 125 -10 28
      vertex 123.6 6.12727 28
    endloop
  endfacet
  facet normal 0 0 -1
    outer loop
      vertex 130 -5 28
      vertex 123.6 34.9636 28
      vertex 123.6 45.0364 28
    endloop
  endfacet
  facet normal 0 0 -1
    outer loop
      vertex 130 -5 28
      vertex 123.6 6.12727 28
      vertex 123.6 15.5091 28
    endloop
  endfacet
  facet normal 0 0 -1
    outer loop
      vertex 125 -10 28
      vertex 120.4 6.12727 28
      vertex 123.6 6.12727 28
    endloop
  endfacet
  facet normal 0 0 -1
    outer loop
      vertex 113.209 -0.4 28
      vertex 120.4 15.5091 28
      vertex 120.4 6.12727 28
    endloop
  endfacet
  facet normal -0 0 -1
    outer loop
      vertex 120.4 15.5091 28
      vertex 100.309 -0.4 28
      vertex 120.4 25.5818 28
    endloop
  endfacet
  facet normal 0 0 -1
    outer loop
      vertex 90.1182 -0.4 28
      vertex 120.4 25.5818 28
      vertex 100.309 -0.4 28
    endloop
  endfacet
  facet normal -0 0 -1
    outer loop
      vertex 120.4 25.5818 28
      vertex 90.1182 -0.4 28
      vertex 120.4 34.9636 28
    endloop
  endfacet
  facet normal 0 0 -1
    outer loop
      vertex 77.2182 -0.4 28
      vertex 120.4 34.9636 28
      vertex 90.1182 -0.4 28
    endloop
  endfacet
  facet normal -0 0 -1
    outer loop
      vertex 120.4 34.9636 28
      vertex 77.2182 -0.4 28
      vertex 120.4 45.0364 28
    endloop
  endfacet
  facet normal 0 0 -1
    outer loop
      vertex 67.0273 -0.4 28
      vertex 120.4 45.0364 28
      vertex 77.2182 -0.4 28
    endloop
  endfacet
  facet normal -0 0 -1
    outer loop
      vertex 120.4 45.0364 28
      vertex 67.0273 -0.4 28
      vertex 120.4 54.4182 28
    endloop
  endfacet
  facet normal -0 -0 -1
    outer loop
      vertex 77.2182 100.4 28
      vertex 120.4 54.4182 28
      vertex 68.4384 100.4 28
    endloop
  endfacet
  facet normal 0 0 -1
    outer loop
      vertex 113.209 -0.4 28
      vertex 120.4 6.12727 28
      vertex 113.209 -3.6 28
    endloop
  endfacet
  facet normal 0 0 -1
    outer loop
      vertex 125 -10 28
      vertex 113.209 -3.6 28
      vertex 120.4 6.12727 28
    endloop
  endfacet
  facet normal 0 0 -1
    outer loop
      vertex 125 -10 28
      vertex 100.309 -3.6 28
      vertex 113.209 -3.6 28
    endloop
  endfacet
  facet normal 0 0 -1
    outer loop
      vertex 90.1182 -0.4 28
      vertex 100.309 -0.4 28
      vertex 100.309 -3.6 28
    endloop
  endfacet
  facet normal 0 0 -1
    outer loop
      vertex 120.4 73.8727 28
      vertex 100.309 100.4 28
      vertex 120.4 83.9454 28
    endloop
  endfacet
  facet normal 0 0 -1
    outer loop
      vertex 100.309 100.4 28
      vertex 91.5293 100.4 28
      vertex 100.309 103.6 28
    endloop
  endfacet
  facet normal 0 0 -1
    outer loop
      vertex 90.1182 -0.4 28
      vertex 100.309 -3.6 28
      vertex 90.1182 -3.6 28
    endloop
  endfacet
  facet normal 0 0 -1
    outer loop
      vertex 125 -10 28
      vertex 90.1182 -3.6 28
      vertex 100.309 -3.6 28
    endloop
  endfacet
  facet normal 0 0 -1
    outer loop
      vertex 125 -10 28
      vertex 77.2182 -3.6 28
      vertex 90.1182 -3.6 28
    endloop
  endfacet
  facet normal 0 0 -1
    outer loop
      vertex 67.0273 -0.4 28
      vertex 77.2182 -0.4 28
      vertex 77.2182 -3.6 28
    endloop
  endfacet
  facet normal -0 0 -1
    outer loop
      vertex 120.4 54.4182 28
      vertex 67.0273 -0.4 28
      vertex 68.4384 100.4 28
    endloop
  endfacet
  facet normal 0 0 -1
    outer loop
      vertex 77.2182 100.4 28
      vertex 68.4384 100.4 28
      vertex 77.2182 103.6 28
    endloop
  endfacet
  facet normal 0 0 -1
    outer loop
      vertex 67.0273 -0.4 28
      vertex 77.2182 -3.6 28
      vertex 67.0273 -3.6 28
    endloop
  endfacet
  facet normal 0 0 -1
    outer loop
      vertex 125 -10 28
      vertex 67.0273 -3.6 28
      vertex 77.2182 -3.6 28
    endloop
  endfacet
  facet normal 0 0 -1
    outer loop
      vertex 125 -10 28
      vertex 54.1273 -3.6 28
      vertex 67.0273 -3.6 28
    endloop
  endfacet
  facet normal 0 0 -1
    outer loop
      vertex 43.9364 -0.4 28
      vertex 54.1273 -0.4 28
      vertex 54.1273 -3.6 28
    endloop
  endfacet
  facet normal 0 -0 -1
    outer loop
      vertex 45.3475 100.4 28
      vertex 54.1273 -0.4 28
      vertex 43.9364 -0.4 28
    endloop
  endfacet
  facet normal 0 0 -1
    outer loop
      vertex 54.1273 100.4 28
      vertex 45.3475 100.4 28
      vertex 54.1273 103.6 28
    endloop
  endfacet
  facet normal 0 0 -1
    outer loop
      vertex 43.9364 -0.4 28
      vertex 54.1273 -3.6 28
      vertex 43.9364 -3.6 28
    endloop
  endfacet
  facet normal 0 0 -1
    outer loop
      vertex -5 -10 28
      vertex 54.1273 -3.6 28
      vertex 125 -10 28
    endloop
  endfacet
  facet normal -0 0 -1
    outer loop
      vertex 54.1273 -3.6 28
      vertex -5 -10 28
      vertex 43.9364 -3.6 28
    endloop
  endfacet
  facet normal 0 0 -1
    outer loop
      vertex 20.8455 -0.4 28
      vertex 31.0364 -0.4 28
      vertex 31.0364 -3.6 28
    endloop
  endfacet
  facet normal 0 -0 -1
    outer loop
      vertex 22.2566 100.4 28
      vertex 31.0364 -0.4 28
      vertex 20.8455 -0.4 28
    endloop
  endfacet
  facet normal 0 0 -1
    outer loop
      vertex 31.0364 100.4 28
      vertex 22.2566 100.4 28
      vertex 31.0364 103.6 28
    endloop
  endfacet
  facet normal 0 0 -1
    outer loop
      vertex 20.8455 -0.4 28
      vertex 31.0364 -3.6 28
      vertex 20.8455 -3.6 28
    endloop
  endfacet
  facet normal -0 0 -1
    outer loop
      vertex 43.9364 -3.6 28
      vertex -5 -10 28
      vertex 31.0364 -3.6 28
    endloop
  endfacet
  facet normal -0 0 -1
    outer loop
      vertex 31.0364 -3.6 28
      vertex -5 -10 28
      vertex 20.8455 -3.6 28
    endloop
  endfacet
  facet normal 0 0 -1
    outer loop
      vertex -0.4 6.12727 28
      vertex 7.94545 -0.4 28
      vertex 7.94545 -3.6 28
    endloop
  endfacet
  facet normal 0 0 -1
    outer loop
      vertex 7.94545 -0.4 28
      vertex -0.4 45.0364 28
      vertex 7.94545 100.4 28
    endloop
  endfacet
  facet normal 0 0 -1
    outer loop
      vertex 7.94545 -0.4 28
      vertex -0.4 6.12727 28
      vertex -0.4 15.5091 28
    endloop
  endfacet
  facet normal 0 0 -1
    outer loop
      vertex -5 -10 28
      vertex -0.4 6.12727 28
      vertex 7.94545 -3.6 28
    endloop
  endfacet
  facet normal 0 0 -1
    outer loop
      vertex -10 -5 28
      vertex -3.6 15.5091 28
      vertex -3.6 6.12727 28
    endloop
  endfacet
  facet normal -0 0 -1
    outer loop
      vertex -3.6 15.5091 28
      vertex -10 -5 28
      vertex -3.6 25.5818 28
    endloop
  endfacet
  facet normal -0 0 -1
    outer loop
      vertex -3.6 25.5818 28
      vertex -10 -5 28
      vertex -3.6 34.9636 28
    endloop
  endfacet
  facet normal -0 0 -1
    outer loop
      vertex -3.6 34.9636 28
      vertex -10 -5 28
      vertex -3.6 45.0364 28
    endloop
  endfacet
  facet normal -0 0 -1
    outer loop
      vertex -3.6 45.0364 28
      vertex -10 -5 28
      vertex -3.6 54.4182 28
    endloop
  endfacet
  facet normal 0 0 -1
    outer loop
      vertex -10 105 28
      vertex -3.6 54.4182 28
      vertex -10 -5 28
    endloop
  endfacet
  facet normal 0 0 -1
    outer loop
      vertex -3.6 54.4182 28
      vertex -10 105 28
      vertex -3.6 64.4909 28
    endloop
  endfacet
  facet normal 0 0 -1
    outer loop
      vertex -3.6 64.4909 28
      vertex -10 105 28
      vertex -3.6 73.8727 28
    endloop
  endfacet
  facet normal 0 0 -1
    outer loop
      vertex -10 -5 28
      vertex -3.6 6.12727 28
      vertex -5 -10 28
    endloop
  endfacet
  facet normal -0 0 -1
    outer loop
      vertex -0.4 6.12727 28
      vertex -5 -10 28
      vertex -3.6 6.12727 28
    endloop
  endfacet
  facet normal -0 0 -1
    outer loop
      vertex 20.8455 -3.6 28
      vertex -5 -10 28
      vertex 7.94545 -3.6 28
    endloop
  endfacet
  facet normal 0 0 -1
    outer loop
      vertex 130 -5 28
      vertex 123.6 15.5091 28
      vertex 123.6 25.5818 28
    endloop
  endfacet
  facet normal 0 0 -1
    outer loop
      vertex 130 -5 28
      vertex 123.6 25.5818 28
      vertex 123.6 34.9636 28
    endloop
  endfacet
  facet normal 0 0 -1
    outer loop
      vertex 128.716 108.346 28
      vertex 125 110 28
      vertex 128.346 108.716 28
    endloop
  endfacet
  facet normal 0 0 -1
    outer loop
      vertex 128.346 108.716 28
      vertex 125 110 28
      vertex 127.939 109.045 28
    endloop
  endfacet
  facet normal 0 0 -1
    outer loop
      vertex 127.939 109.045 28
      vertex 125 110 28
      vertex 127.5 109.33 28
    endloop
  endfacet
  facet normal 0 0 -1
    outer loop
      vertex 127.5 109.33 28
      vertex 125 110 28
      vertex 127.034 109.568 28
    endloop
  endfacet
  facet normal 0 0 -1
    outer loop
      vertex 127.034 109.568 28
      vertex 125 110 28
      vertex 126.545 109.755 28
    endloop
  endfacet
  facet normal 0 0 -1
    outer loop
      vertex 126.545 109.755 28
      vertex 125 110 28
      vertex 126.04 109.891 28
    endloop
  endfacet
  facet normal 0 0 -1
    outer loop
      vertex 126.04 109.891 28
      vertex 125 110 28
      vertex 125.523 109.973 28
    endloop
  endfacet
  facet normal 0 0 -1
    outer loop
      vertex 114.62 100.4 28
      vertex 123.6 93.3273 28
      vertex 120.4 93.3273 28
    endloop
  endfacet
  facet normal 0 0 -1
    outer loop
      vertex 129.891 106.04 28
      vertex 125 110 28
      vertex 129.755 106.545 28
    endloop
  endfacet
  facet normal 0 0 -1
    outer loop
      vertex 129.973 105.523 28
      vertex 125 110 28
      vertex 129.891 106.04 28
    endloop
  endfacet
  facet normal 0 0 -1
    outer loop
      vertex 100.309 103.6 28
      vertex 125 110 28
      vertex 114.62 103.6 28
    endloop
  endfacet
  facet normal 0 0 -1
    outer loop
      vertex 91.5293 103.6 28
      vertex 100.309 103.6 28
      vertex 91.5293 100.4 28
    endloop
  endfacet
  facet normal 0 0 -1
    outer loop
      vertex 91.5293 103.6 28
      vertex 125 110 28
      vertex 100.309 103.6 28
    endloop
  endfacet
  facet normal 0 0 -1
    outer loop
      vertex 77.2182 103.6 28
      vertex 125 110 28
      vertex 91.5293 103.6 28
    endloop
  endfacet
  facet normal 0 0 -1
    outer loop
      vertex 68.4384 103.6 28
      vertex 77.2182 103.6 28
      vertex 68.4384 100.4 28
    endloop
  endfacet
  facet normal 0 0 -1
    outer loop
      vertex 68.4384 103.6 28
      vertex 125 110 28
      vertex 77.2182 103.6 28
    endloop
  endfacet
  facet normal 0 0 -1
    outer loop
      vertex 54.1273 103.6 28
      vertex 125 110 28
      vertex 68.4384 103.6 28
    endloop
  endfacet
  facet normal 0 0 -1
    outer loop
      vertex 45.3475 103.6 28
      vertex 54.1273 103.6 28
      vertex 45.3475 100.4 28
    endloop
  endfacet
  facet normal 0 0 -1
    outer loop
      vertex -5 110 28
      vertex 54.1273 103.6 28
      vertex 45.3475 103.6 28
    endloop
  endfacet
  facet normal 0 0 -1
    outer loop
      vertex -5 110 28
      vertex 45.3475 103.6 28
      vertex 31.0364 103.6 28
    endloop
  endfacet
  facet normal 0 0 -1
    outer loop
      vertex 22.2566 103.6 28
      vertex 31.0364 103.6 28
      vertex 22.2566 100.4 28
    endloop
  endfacet
  facet normal 0 0 -1
    outer loop
      vertex -5 110 28
      vertex 31.0364 103.6 28
      vertex 22.2566 103.6 28
    endloop
  endfacet
  facet normal 0 0 -1
    outer loop
      vertex -5 110 28
      vertex 22.2566 103.6 28
      vertex 7.94545 103.6 28
    endloop
  endfacet
  facet normal 0 0 -1
    outer loop
      vertex 7.94545 -0.4 28
      vertex -0.4 15.5091 28
      vertex -0.4 25.5818 28
    endloop
  endfacet
  facet normal 0 0 -1
    outer loop
      vertex 7.94545 -0.4 28
      vertex -0.4 25.5818 28
      vertex -0.4 34.9636 28
    endloop
  endfacet
  facet normal 0 0 -1
    outer loop
      vertex 7.94545 -0.4 28
      vertex -0.4 34.9636 28
      vertex -0.4 45.0364 28
    endloop
  endfacet
  facet normal 0 0 -1
    outer loop
      vertex -0.4 54.4182 28
      vertex 7.94545 100.4 28
      vertex -0.4 45.0364 28
    endloop
  endfacet
  facet normal 0 0 -1
    outer loop
      vertex -0.4 64.4909 28
      vertex 7.94545 100.4 28
      vertex -0.4 54.4182 28
    endloop
  endfacet
  facet normal 0 0 -1
    outer loop
      vertex -0.4 73.8727 28
      vertex 7.94545 100.4 28
      vertex -0.4 64.4909 28
    endloop
  endfacet
  facet normal 0 0 -1
    outer loop
      vertex -0.4 83.9454 28
      vertex 7.94545 100.4 28
      vertex -0.4 73.8727 28
    endloop
  endfacet
  facet normal 0 0 -1
    outer loop
      vertex -0.4 93.3273 28
      vertex 7.94545 100.4 28
      vertex -0.4 83.9454 28
    endloop
  endfacet
  facet normal -0 0 -1
    outer loop
      vertex 7.94545 100.4 28
      vertex -0.4 93.3273 28
      vertex 7.94545 103.6 28
    endloop
  endfacet
  facet normal 0 0 -1
    outer loop
      vertex -10 105 28
      vertex -0.4 93.3273 28
      vertex -3.6 93.3273 28
    endloop
  endfacet
  facet normal 0 0 -1
    outer loop
      vertex 54.1273 103.6 28
      vertex -5 110 28
      vertex 125 110 28
    endloop
  endfacet
  facet normal 0 0 -1
    outer loop
      vertex -0.4 93.3273 28
      vertex -5 110 28
      vertex 7.94545 103.6 28
    endloop
  endfacet
  facet normal 0 0 -1
    outer loop
      vertex -3.6 73.8727 28
      vertex -10 105 28
      vertex -3.6 83.9454 28
    endloop
  endfacet
  facet normal 0 0 -1
    outer loop
      vertex -10 -5 28
      vertex -5 -10 28
      vertex -5.52264 -9.97261 28
    endloop
  endfacet
  facet normal 0 0 -1
    outer loop
      vertex -3.6 83.9454 28
      vertex -10 105 28
      vertex -3.6 93.3273 28
    endloop
  endfacet
  facet normal 0 0 -1
    outer loop
      vertex -10 -5 28
      vertex -5.52264 -9.97261 28
      vertex -6.03956 -9.89074 28
    endloop
  endfacet
  facet normal 0 0 -1
    outer loop
      vertex -0.4 93.3273 28
      vertex -10 105 28
      vertex -5 110 28
    endloop
  endfacet
  facet normal 0 0 -1
    outer loop
      vertex -10 -5 28
      vertex -6.03956 -9.89074 28
      vertex -6.54508 -9.75528 28
    endloop
  endfacet
  facet normal 0 0 -1
    outer loop
      vertex -5 110 28
      vertex -10 105 28
      vertex -5.52264 109.973 28
    endloop
  endfacet
  facet normal 0 0 -1
    outer loop
      vertex -10 -5 28
      vertex -6.54508 -9.75528 28
      vertex -7.03368 -9.56773 28
    endloop
  endfacet
  facet normal 0 0 -1
    outer loop
      vertex -5.52264 109.973 28
      vertex -10 105 28
      vertex -6.03956 109.891 28
    endloop
  endfacet
  facet normal 0 0 -1
    outer loop
      vertex -10 -5 28
      vertex -7.03368 -9.56773 28
      vertex -7.5 -9.33013 28
    endloop
  endfacet
  facet normal 0 0 -1
    outer loop
      vertex -6.03956 109.891 28
      vertex -10 105 28
      vertex -6.54508 109.755 28
    endloop
  endfacet
  facet normal 0 0 -1
    outer loop
      vertex -10 -5 28
      vertex -7.5 -9.33013 28
      vertex -7.93893 -9.04508 28
    endloop
  endfacet
  facet normal 0 0 -1
    outer loop
      vertex -6.54508 109.755 28
      vertex -10 105 28
      vertex -7.03368 109.568 28
    endloop
  endfacet
  facet normal 0 0 -1
    outer loop
      vertex -10 -5 28
      vertex -7.93893 -9.04508 28
      vertex -8.34565 -8.71572 28
    endloop
  endfacet
  facet normal 0 0 -1
    outer loop
      vertex -7.03368 109.568 28
      vertex -10 105 28
      vertex -7.5 109.33 28
    endloop
  endfacet
  facet normal 0 0 -1
    outer loop
      vertex -10 -5 28
      vertex -8.34565 -8.71572 28
      vertex -8.71572 -8.34565 28
    endloop
  endfacet
  facet normal 0 0 -1
    outer loop
      vertex -7.5 109.33 28
      vertex -10 105 28
      vertex -7.93893 109.045 28
    endloop
  endfacet
  facet normal 0 0 -1
    outer loop
      vertex -10 -5 28
      vertex -8.71572 -8.34565 28
      vertex -9.04508 -7.93893 28
    endloop
  endfacet
  facet normal 0 0 -1
    outer loop
      vertex -7.93893 109.045 28
      vertex -10 105 28
      vertex -8.34565 108.716 28
    endloop
  endfacet
  facet normal 0 0 -1
    outer loop
      vertex -10 -5 28
      vertex -9.04508 -7.93893 28
      vertex -9.33013 -7.5 28
    endloop
  endfacet
  facet normal 0 0 -1
    outer loop
      vertex -8.34565 108.716 28
      vertex -10 105 28
      vertex -8.71572 108.346 28
    endloop
  endfacet
  facet normal 0 0 -1
    outer loop
      vertex -10 -5 28
      vertex -9.33013 -7.5 28
      vertex -9.56773 -7.03368 28
    endloop
  endfacet
  facet normal 0 0 -1
    outer loop
      vertex -8.71572 108.346 28
      vertex -10 105 28
      vertex -9.04508 107.939 28
    endloop
  endfacet
  facet normal 0 0 -1
    outer loop
      vertex -10 -5 28
      vertex -9.56773 -7.03368 28
      vertex -9.75528 -6.54508 28
    endloop
  endfacet
  facet normal 0 0 -1
    outer loop
      vertex -9.04508 107.939 28
      vertex -10 105 28
      vertex -9.33013 107.5 28
    endloop
  endfacet
  facet normal 0 0 -1
    outer loop
      vertex -10 -5 28
      vertex -9.75528 -6.54508 28
      vertex -9.89074 -6.03956 28
    endloop
  endfacet
  facet normal 0 0 -1
    outer loop
      vertex -9.33013 107.5 28
      vertex -10 105 28
      vertex -9.56773 107.034 28
    endloop
  endfacet
  facet normal 0 0 -1
    outer loop
      vertex -10 -5 28
      vertex -9.89074 -6.03956 28
      vertex -9.97261 -5.52264 28
    endloop
  endfacet
  facet normal 0 0 -1
    outer loop
      vertex -9.56773 107.034 28
      vertex -10 105 28
      vertex -9.75528 106.545 28
    endloop
  endfacet
  facet normal 0 0 -1
    outer loop
      vertex -9.75528 106.545 28
      vertex -10 105 28
      vertex -9.89074 106.04 28
    endloop
  endfacet
  facet normal 0 0 -1
    outer loop
      vertex -9.89074 106.04 28
      vertex -10 105 28
      vertex -9.97261 105.523 28
    endloop
  endfacet
  facet normal 0 0 -1
    outer loop
      vertex 120.4 15.5091 28
      vertex 113.209 -0.4 28
      vertex 100.309 -0.4 28
    endloop
  endfacet
  facet normal -0 -0 -1
    outer loop
      vertex 91.5293 100.4 28
      vertex 120.4 64.4909 28
      vertex 77.2182 100.4 28
    endloop
  endfacet
  facet normal 0 0 -1
    outer loop
      vertex 120.4 93.3273 28
      vertex 100.309 100.4 28
      vertex 114.62 100.4 28
    endloop
  endfacet
  facet normal 0 0 -1
    outer loop
      vertex 120.4 83.9454 28
      vertex 100.309 100.4 28
      vertex 120.4 93.3273 28
    endloop
  endfacet
  facet normal 0 0 -1
    outer loop
      vertex 120.4 64.4909 28
      vertex 91.5293 100.4 28
      vertex 120.4 73.8727 28
    endloop
  endfacet
  facet normal -0 -0 -1
    outer loop
      vertex 100.309 100.4 28
      vertex 120.4 73.8727 28
      vertex 91.5293 100.4 28
    endloop
  endfacet
  facet normal 0 0 -1
    outer loop
      vertex 120.4 54.4182 28
      vertex 77.2182 100.4 28
      vertex 120.4 64.4909 28
    endloop
  endfacet
  facet normal 0 0 -1
    outer loop
      vertex 54.1273 100.4 28
      vertex 67.0273 -0.4 28
      vertex 54.1273 -0.4 28
    endloop
  endfacet
  facet normal 0 0 -1
    outer loop
      vertex 67.0273 -0.4 28
      vertex 54.1273 100.4 28
      vertex 68.4384 100.4 28
    endloop
  endfacet
  facet normal 0 0 -1
    outer loop
      vertex 54.1273 -0.4 28
      vertex 45.3475 100.4 28
      vertex 54.1273 100.4 28
    endloop
  endfacet
  facet normal 0 0 -1
    outer loop
      vertex 31.0364 100.4 28
      vertex 43.9364 -0.4 28
      vertex 31.0364 -0.4 28
    endloop
  endfacet
  facet normal 0 0 -1
    outer loop
      vertex 43.9364 -0.4 28
      vertex 31.0364 100.4 28
      vertex 45.3475 100.4 28
    endloop
  endfacet
  facet normal 0 0 -1
    outer loop
      vertex 31.0364 -0.4 28
      vertex 22.2566 100.4 28
      vertex 31.0364 100.4 28
    endloop
  endfacet
  facet normal 0 0 -1
    outer loop
      vertex 7.94545 100.4 28
      vertex 20.8455 -0.4 28
      vertex 7.94545 -0.4 28
    endloop
  endfacet
  facet normal 0 0 -1
    outer loop
      vertex 20.8455 -0.4 28
      vertex 7.94545 100.4 28
      vertex 22.2566 100.4 28
    endloop
  endfacet
  facet normal 0 1 -0
    outer loop
      vertex 123.6 6.12727 28
      vertex 120.4 6.12727 31
      vertex 123.6 6.12727 31
    endloop
  endfacet
  facet normal 0 1 0
    outer loop
      vertex 120.4 6.12727 31
      vertex 123.6 6.12727 28
      vertex 120.4 6.12727 28
    endloop
  endfacet
  facet normal 0 -1 0
    outer loop
      vertex 120.4 15.5091 28
      vertex 123.6 15.5091 31
      vertex 120.4 15.5091 31
    endloop
  endfacet
  facet normal 0 -1 -0
    outer loop
      vertex 123.6 15.5091 31
      vertex 120.4 15.5091 28
      vertex 123.6 15.5091 28
    endloop
  endfacet
  facet normal 1 -0 0
    outer loop
      vertex -3.6 6.12727 31
      vertex -3.6 15.5091 28
      vertex -3.6 15.5091 31
    endloop
  endfacet
  facet normal 1 0 0
    outer loop
      vertex -3.6 15.5091 28
      vertex -3.6 6.12727 31
      vertex -3.6 6.12727 28
    endloop
  endfacet
  facet normal -1 0 0
    outer loop
      vertex -0.4 6.12727 28
      vertex -0.4 15.5091 31
      vertex -0.4 15.5091 28
    endloop
  endfacet
  facet normal -1 -0 0
    outer loop
      vertex -0.4 15.5091 31
      vertex -0.4 6.12727 28
      vertex -0.4 6.12727 31
    endloop
  endfacet
  facet normal 0 -1 0
    outer loop
      vertex -3.6 15.5091 28
      vertex -0.4 15.5091 31
      vertex -3.6 15.5091 31
    endloop
  endfacet
  facet normal 0 -1 -0
    outer loop
      vertex -0.4 15.5091 31
      vertex -3.6 15.5091 28
      vertex -0.4 15.5091 28
    endloop
  endfacet
  facet normal 0 1 -0
    outer loop
      vertex -0.4 6.12727 28
      vertex -3.6 6.12727 31
      vertex -0.4 6.12727 31
    endloop
  endfacet
  facet normal 0 1 0
    outer loop
      vertex -3.6 6.12727 31
      vertex -0.4 6.12727 28
      vertex -3.6 6.12727 28
    endloop
  endfacet
  facet normal 1 -0 0
    outer loop
      vertex 7.94545 100.4 31
      vertex 7.94545 103.6 28
      vertex 7.94545 103.6 31
    endloop
  endfacet
  facet normal 1 0 0
    outer loop
      vertex 7.94545 103.6 28
      vertex 7.94545 100.4 31
      vertex 7.94545 100.4 28
    endloop
  endfacet
  facet normal -1 0 0
    outer loop
      vertex 22.2566 100.4 28
      vertex 22.2566 103.6 31
      vertex 22.2566 103.6 28
    endloop
  endfacet
  facet normal -1 -0 0
    outer loop
      vertex 22.2566 103.6 31
      vertex 22.2566 100.4 28
      vertex 22.2566 100.4 31
    endloop
  endfacet
  facet normal 0 -1 0
    outer loop
      vertex 7.94545 103.6 28
      vertex 22.2566 103.6 31
      vertex 7.94545 103.6 31
    endloop
  endfacet
  facet normal 0 -1 -0
    outer loop
      vertex 22.2566 103.6 31
      vertex 7.94545 103.6 28
      vertex 22.2566 103.6 28
    endloop
  endfacet
  facet normal 0 1 -0
    outer loop
      vertex 22.2566 100.4 28
      vertex 7.94545 100.4 31
      vertex 22.2566 100.4 31
    endloop
  endfacet
  facet normal 0 1 0
    outer loop
      vertex 7.94545 100.4 31
      vertex 22.2566 100.4 28
      vertex 7.94545 100.4 28
    endloop
  endfacet
  facet normal 1 -0 0
    outer loop
      vertex 7.94545 -3.6 31
      vertex 7.94545 -0.4 28
      vertex 7.94545 -0.4 31
    endloop
  endfacet
  facet normal 1 0 0
    outer loop
      vertex 7.94545 -0.4 28
      vertex 7.94545 -3.6 31
      vertex 7.94545 -3.6 28
    endloop
  endfacet
  facet normal -1 0 0
    outer loop
      vertex 20.8455 -3.6 28
      vertex 20.8455 -0.4 31
      vertex 20.8455 -0.4 28
    endloop
  endfacet
  facet normal -1 -0 0
    outer loop
      vertex 20.8455 -0.4 31
      vertex 20.8455 -3.6 28
      vertex 20.8455 -3.6 31
    endloop
  endfacet
  facet normal 0 -1 0
    outer loop
      vertex 7.94545 -0.4 28
      vertex 20.8455 -0.4 31
      vertex 7.94545 -0.4 31
    endloop
  endfacet
  facet normal 0 -1 -0
    outer loop
      vertex 20.8455 -0.4 31
      vertex 7.94545 -0.4 28
      vertex 20.8455 -0.4 28
    endloop
  endfacet
  facet normal 0 1 -0
    outer loop
      vertex 20.8455 -3.6 28
      vertex 7.94545 -3.6 31
      vertex 20.8455 -3.6 31
    endloop
  endfacet
  facet normal 0 1 0
    outer loop
      vertex 7.94545 -3.6 31
      vertex 20.8455 -3.6 28
      vertex 7.94545 -3.6 28
    endloop
  endfacet
  facet normal 1 -0 0
    outer loop
      vertex 120.4 25.5818 31
      vertex 120.4 34.9636 28
      vertex 120.4 34.9636 31
    endloop
  endfacet
  facet normal 1 0 0
    outer loop
      vertex 120.4 34.9636 28
      vertex 120.4 25.5818 31
      vertex 120.4 25.5818 28
    endloop
  endfacet
  facet normal -1 0 0
    outer loop
      vertex 123.6 25.5818 28
      vertex 123.6 34.9636 31
      vertex 123.6 34.9636 28
    endloop
  endfacet
  facet normal -1 -0 0
    outer loop
      vertex 123.6 34.9636 31
      vertex 123.6 25.5818 28
      vertex 123.6 25.5818 31
    endloop
  endfacet
  facet normal 0 1 -0
    outer loop
      vertex 123.6 25.5818 28
      vertex 120.4 25.5818 31
      vertex 123.6 25.5818 31
    endloop
  endfacet
  facet normal 0 1 0
    outer loop
      vertex 120.4 25.5818 31
      vertex 123.6 25.5818 28
      vertex 120.4 25.5818 28
    endloop
  endfacet
  facet normal 0 -1 0
    outer loop
      vertex 120.4 34.9636 28
      vertex 123.6 34.9636 31
      vertex 120.4 34.9636 31
    endloop
  endfacet
  facet normal 0 -1 -0
    outer loop
      vertex 123.6 34.9636 31
      vertex 120.4 34.9636 28
      vertex 123.6 34.9636 28
    endloop
  endfacet
  facet normal 1 -0 0
    outer loop
      vertex -3.6 25.5818 31
      vertex -3.6 34.9636 28
      vertex -3.6 34.9636 31
    endloop
  endfacet
  facet normal 1 0 0
    outer loop
      vertex -3.6 34.9636 28
      vertex -3.6 25.5818 31
      vertex -3.6 25.5818 28
    endloop
  endfacet
  facet normal -1 0 0
    outer loop
      vertex -0.4 25.5818 28
      vertex -0.4 34.9636 31
      vertex -0.4 34.9636 28
    endloop
  endfacet
  facet normal -1 -0 0
    outer loop
      vertex -0.4 34.9636 31
      vertex -0.4 25.5818 28
      vertex -0.4 25.5818 31
    endloop
  endfacet
  facet normal 0 -1 0
    outer loop
      vertex -3.6 34.9636 28
      vertex -0.4 34.9636 31
      vertex -3.6 34.9636 31
    endloop
  endfacet
  facet normal 0 -1 -0
    outer loop
      vertex -0.4 34.9636 31
      vertex -3.6 34.9636 28
      vertex -0.4 34.9636 28
    endloop
  endfacet
  facet normal 0 1 -0
    outer loop
      vertex -0.4 25.5818 28
      vertex -3.6 25.5818 31
      vertex -0.4 25.5818 31
    endloop
  endfacet
  facet normal 0 1 0
    outer loop
      vertex -3.6 25.5818 31
      vertex -0.4 25.5818 28
      vertex -3.6 25.5818 28
    endloop
  endfacet
  facet normal 1 -0 0
    outer loop
      vertex 31.0364 100.4 31
      vertex 31.0364 103.6 28
      vertex 31.0364 103.6 31
    endloop
  endfacet
  facet normal 1 0 0
    outer loop
      vertex 31.0364 103.6 28
      vertex 31.0364 100.4 31
      vertex 31.0364 100.4 28
    endloop
  endfacet
  facet normal -1 0 0
    outer loop
      vertex 45.3475 100.4 28
      vertex 45.3475 103.6 31
      vertex 45.3475 103.6 28
    endloop
  endfacet
  facet normal -1 -0 0
    outer loop
      vertex 45.3475 103.6 31
      vertex 45.3475 100.4 28
      vertex 45.3475 100.4 31
    endloop
  endfacet
  facet normal 0 -1 0
    outer loop
      vertex 31.0364 103.6 28
      vertex 45.3475 103.6 31
      vertex 31.0364 103.6 31
    endloop
  endfacet
  facet normal 0 -1 -0
    outer loop
      vertex 45.3475 103.6 31
      vertex 31.0364 103.6 28
      vertex 45.3475 103.6 28
    endloop
  endfacet
  facet normal 0 1 -0
    outer loop
      vertex 45.3475 100.4 28
      vertex 31.0364 100.4 31
      vertex 45.3475 100.4 31
    endloop
  endfacet
  facet normal 0 1 0
    outer loop
      vertex 31.0364 100.4 31
      vertex 45.3475 100.4 28
      vertex 31.0364 100.4 28
    endloop
  endfacet
  facet normal 1 -0 0
    outer loop
      vertex 31.0364 -3.6 31
      vertex 31.0364 -0.4 28
      vertex 31.0364 -0.4 31
    endloop
  endfacet
  facet normal 1 0 0
    outer loop
      vertex 31.0364 -0.4 28
      vertex 31.0364 -3.6 31
      vertex 31.0364 -3.6 28
    endloop
  endfacet
  facet normal -1 0 0
    outer loop
      vertex 43.9364 -3.6 28
      vertex 43.9364 -0.4 31
      vertex 43.9364 -0.4 28
    endloop
  endfacet
  facet normal -1 -0 0
    outer loop
      vertex 43.9364 -0.4 31
      vertex 43.9364 -3.6 28
      vertex 43.9364 -3.6 31
    endloop
  endfacet
  facet normal 0 -1 0
    outer loop
      vertex 31.0364 -0.4 28
      vertex 43.9364 -0.4 31
      vertex 31.0364 -0.4 31
    endloop
  endfacet
  facet normal 0 -1 -0
    outer loop
      vertex 43.9364 -0.4 31
      vertex 31.0364 -0.4 28
      vertex 43.9364 -0.4 28
    endloop
  endfacet
  facet normal 0 1 -0
    outer loop
      vertex 43.9364 -3.6 28
      vertex 31.0364 -3.6 31
      vertex 43.9364 -3.6 31
    endloop
  endfacet
  facet normal 0 1 0
    outer loop
      vertex 31.0364 -3.6 31
      vertex 43.9364 -3.6 28
      vertex 31.0364 -3.6 28
    endloop
  endfacet
  facet normal 1 -0 0
    outer loop
      vertex 120.4 45.0364 31
      vertex 120.4 54.4182 28
      vertex 120.4 54.4182 31
    endloop
  endfacet
  facet normal 1 0 0
    outer loop
      vertex 120.4 54.4182 28
      vertex 120.4 45.0364 31
      vertex 120.4 45.0364 28
    endloop
  endfacet
  facet normal -1 0 0
    outer loop
      vertex 123.6 45.0364 28
      vertex 123.6 54.4182 31
      vertex 123.6 54.4182 28
    endloop
  endfacet
  facet normal -1 -0 0
    outer loop
      vertex 123.6 54.4182 31
      vertex 123.6 45.0364 28
      vertex 123.6 45.0364 31
    endloop
  endfacet
  facet normal 0 1 -0
    outer loop
      vertex 123.6 45.0364 28
      vertex 120.4 45.0364 31
      vertex 123.6 45.0364 31
    endloop
  endfacet
  facet normal 0 1 0
    outer loop
      vertex 120.4 45.0364 31
      vertex 123.6 45.0364 28
      vertex 120.4 45.0364 28
    endloop
  endfacet
  facet normal 0 -1 0
    outer loop
      vertex 120.4 54.4182 28
      vertex 123.6 54.4182 31
      vertex 120.4 54.4182 31
    endloop
  endfacet
  facet normal 0 -1 -0
    outer loop
      vertex 123.6 54.4182 31
      vertex 120.4 54.4182 28
      vertex 123.6 54.4182 28
    endloop
  endfacet
  facet normal 1 -0 0
    outer loop
      vertex -3.6 45.0364 31
      vertex -3.6 54.4182 28
      vertex -3.6 54.4182 31
    endloop
  endfacet
  facet normal 1 0 0
    outer loop
      vertex -3.6 54.4182 28
      vertex -3.6 45.0364 31
      vertex -3.6 45.0364 28
    endloop
  endfacet
  facet normal -1 0 0
    outer loop
      vertex -0.4 45.0364 28
      vertex -0.4 54.4182 31
      vertex -0.4 54.4182 28
    endloop
  endfacet
  facet normal -1 -0 0
    outer loop
      vertex -0.4 54.4182 31
      vertex -0.4 45.0364 28
      vertex -0.4 45.0364 31
    endloop
  endfacet
  facet normal 0 -1 0
    outer loop
      vertex -3.6 54.4182 28
      vertex -0.4 54.4182 31
      vertex -3.6 54.4182 31
    endloop
  endfacet
  facet normal 0 -1 -0
    outer loop
      vertex -0.4 54.4182 31
      vertex -3.6 54.4182 28
      vertex -0.4 54.4182 28
    endloop
  endfacet
  facet normal 0 1 -0
    outer loop
      vertex -0.4 45.0364 28
      vertex -3.6 45.0364 31
      vertex -0.4 45.0364 31
    endloop
  endfacet
  facet normal 0 1 0
    outer loop
      vertex -3.6 45.0364 31
      vertex -0.4 45.0364 28
      vertex -3.6 45.0364 28
    endloop
  endfacet
  facet normal 1 -0 0
    outer loop
      vertex 54.1273 100.4 31
      vertex 54.1273 103.6 28
      vertex 54.1273 103.6 31
    endloop
  endfacet
  facet normal 1 0 0
    outer loop
      vertex 54.1273 103.6 28
      vertex 54.1273 100.4 31
      vertex 54.1273 100.4 28
    endloop
  endfacet
  facet normal -1 0 0
    outer loop
      vertex 68.4384 100.4 28
      vertex 68.4384 103.6 31
      vertex 68.4384 103.6 28
    endloop
  endfacet
  facet normal -1 -0 0
    outer loop
      vertex 68.4384 103.6 31
      vertex 68.4384 100.4 28
      vertex 68.4384 100.4 31
    endloop
  endfacet
  facet normal 0 -1 0
    outer loop
      vertex 54.1273 103.6 28
      vertex 68.4384 103.6 31
      vertex 54.1273 103.6 31
    endloop
  endfacet
  facet normal 0 -1 -0
    outer loop
      vertex 68.4384 103.6 31
      vertex 54.1273 103.6 28
      vertex 68.4384 103.6 28
    endloop
  endfacet
  facet normal 0 1 -0
    outer loop
      vertex 68.4384 100.4 28
      vertex 54.1273 100.4 31
      vertex 68.4384 100.4 31
    endloop
  endfacet
  facet normal 0 1 0
    outer loop
      vertex 54.1273 100.4 31
      vertex 68.4384 100.4 28
      vertex 54.1273 100.4 28
    endloop
  endfacet
  facet normal 1 -0 0
    outer loop
      vertex 54.1273 -3.6 31
      vertex 54.1273 -0.4 28
      vertex 54.1273 -0.4 31
    endloop
  endfacet
  facet normal 1 0 0
    outer loop
      vertex 54.1273 -0.4 28
      vertex 54.1273 -3.6 31
      vertex 54.1273 -3.6 28
    endloop
  endfacet
  facet normal -1 0 0
    outer loop
      vertex 67.0273 -3.6 28
      vertex 67.0273 -0.4 31
      vertex 67.0273 -0.4 28
    endloop
  endfacet
  facet normal -1 -0 0
    outer loop
      vertex 67.0273 -0.4 31
      vertex 67.0273 -3.6 28
      vertex 67.0273 -3.6 31
    endloop
  endfacet
  facet normal 0 -1 0
    outer loop
      vertex 54.1273 -0.4 28
      vertex 67.0273 -0.4 31
      vertex 54.1273 -0.4 31
    endloop
  endfacet
  facet normal 0 -1 -0
    outer loop
      vertex 67.0273 -0.4 31
      vertex 54.1273 -0.4 28
      vertex 67.0273 -0.4 28
    endloop
  endfacet
  facet normal 0 1 -0
    outer loop
      vertex 67.0273 -3.6 28
      vertex 54.1273 -3.6 31
      vertex 67.0273 -3.6 31
    endloop
  endfacet
  facet normal 0 1 0
    outer loop
      vertex 54.1273 -3.6 31
      vertex 67.0273 -3.6 28
      vertex 54.1273 -3.6 28
    endloop
  endfacet
  facet normal 1 -0 0
    outer loop
      vertex 120.4 64.4909 31
      vertex 120.4 73.8727 28
      vertex 120.4 73.8727 31
    endloop
  endfacet
  facet normal 1 0 0
    outer loop
      vertex 120.4 73.8727 28
      vertex 120.4 64.4909 31
      vertex 120.4 64.4909 28
    endloop
  endfacet
  facet normal -1 0 0
    outer loop
      vertex 123.6 64.4909 28
      vertex 123.6 73.8727 31
      vertex 123.6 73.8727 28
    endloop
  endfacet
  facet normal -1 -0 0
    outer loop
      vertex 123.6 73.8727 31
      vertex 123.6 64.4909 28
      vertex 123.6 64.4909 31
    endloop
  endfacet
  facet normal 0 -1 0
    outer loop
      vertex 120.4 73.8727 28
      vertex 123.6 73.8727 31
      vertex 120.4 73.8727 31
    endloop
  endfacet
  facet normal 0 -1 -0
    outer loop
      vertex 123.6 73.8727 31
      vertex 120.4 73.8727 28
      vertex 123.6 73.8727 28
    endloop
  endfacet
  facet normal 0 1 -0
    outer loop
      vertex 123.6 64.4909 28
      vertex 120.4 64.4909 31
      vertex 123.6 64.4909 31
    endloop
  endfacet
  facet normal 0 1 0
    outer loop
      vertex 120.4 64.4909 31
      vertex 123.6 64.4909 28
      vertex 120.4 64.4909 28
    endloop
  endfacet
  facet normal 1 -0 0
    outer loop
      vertex -3.6 64.4909 31
      vertex -3.6 73.8727 28
      vertex -3.6 73.8727 31
    endloop
  endfacet
  facet normal 1 0 0
    outer loop
      vertex -3.6 73.8727 28
      vertex -3.6 64.4909 31
      vertex -3.6 64.4909 28
    endloop
  endfacet
  facet normal -1 0 0
    outer loop
      vertex -0.4 64.4909 28
      vertex -0.4 73.8727 31
      vertex -0.4 73.8727 28
    endloop
  endfacet
  facet normal -1 -0 0
    outer loop
      vertex -0.4 73.8727 31
      vertex -0.4 64.4909 28
      vertex -0.4 64.4909 31
    endloop
  endfacet
  facet normal 0 -1 0
    outer loop
      vertex -3.6 73.8727 28
      vertex -0.4 73.8727 31
      vertex -3.6 73.8727 31
    endloop
  endfacet
  facet normal 0 -1 -0
    outer loop
      vertex -0.4 73.8727 31
      vertex -3.6 73.8727 28
      vertex -0.4 73.8727 28
    endloop
  endfacet
  facet normal 0 1 -0
    outer loop
      vertex -0.4 64.4909 28
      vertex -3.6 64.4909 31
      vertex -0.4 64.4909 31
    endloop
  endfacet
  facet normal 0 1 0
    outer loop
      vertex -3.6 64.4909 31
      vertex -0.4 64.4909 28
      vertex -3.6 64.4909 28
    endloop
  endfacet
  facet normal 1 -0 0
    outer loop
      vertex 77.2182 100.4 31
      vertex 77.2182 103.6 28
      vertex 77.2182 103.6 31
    endloop
  endfacet
  facet normal 1 0 0
    outer loop
      vertex 77.2182 103.6 28
      vertex 77.2182 100.4 31
      vertex 77.2182 100.4 28
    endloop
  endfacet
  facet normal -1 0 0
    outer loop
      vertex 91.5293 100.4 28
      vertex 91.5293 103.6 31
      vertex 91.5293 103.6 28
    endloop
  endfacet
  facet normal -1 -0 0
    outer loop
      vertex 91.5293 103.6 31
      vertex 91.5293 100.4 28
      vertex 91.5293 100.4 31
    endloop
  endfacet
  facet normal 0 1 -0
    outer loop
      vertex 91.5293 100.4 28
      vertex 77.2182 100.4 31
      vertex 91.5293 100.4 31
    endloop
  endfacet
  facet normal 0 1 0
    outer loop
      vertex 77.2182 100.4 31
      vertex 91.5293 100.4 28
      vertex 77.2182 100.4 28
    endloop
  endfacet
  facet normal 0 -1 0
    outer loop
      vertex 77.2182 103.6 28
      vertex 91.5293 103.6 31
      vertex 77.2182 103.6 31
    endloop
  endfacet
  facet normal 0 -1 -0
    outer loop
      vertex 91.5293 103.6 31
      vertex 77.2182 103.6 28
      vertex 91.5293 103.6 28
    endloop
  endfacet
  facet normal 1 -0 0
    outer loop
      vertex 77.2182 -3.6 31
      vertex 77.2182 -0.4 28
      vertex 77.2182 -0.4 31
    endloop
  endfacet
  facet normal 1 0 0
    outer loop
      vertex 77.2182 -0.4 28
      vertex 77.2182 -3.6 31
      vertex 77.2182 -3.6 28
    endloop
  endfacet
  facet normal -1 0 0
    outer loop
      vertex 90.1182 -3.6 28
      vertex 90.1182 -0.4 31
      vertex 90.1182 -0.4 28
    endloop
  endfacet
  facet normal -1 -0 0
    outer loop
      vertex 90.1182 -0.4 31
      vertex 90.1182 -3.6 28
      vertex 90.1182 -3.6 31
    endloop
  endfacet
  facet normal 0 1 -0
    outer loop
      vertex 90.1182 -3.6 28
      vertex 77.2182 -3.6 31
      vertex 90.1182 -3.6 31
    endloop
  endfacet
  facet normal 0 1 0
    outer loop
      vertex 77.2182 -3.6 31
      vertex 90.1182 -3.6 28
      vertex 77.2182 -3.6 28
    endloop
  endfacet
  facet normal 0 -1 0
    outer loop
      vertex 77.2182 -0.4 28
      vertex 90.1182 -0.4 31
      vertex 77.2182 -0.4 31
    endloop
  endfacet
  facet normal 0 -1 -0
    outer loop
      vertex 90.1182 -0.4 31
      vertex 77.2182 -0.4 28
      vertex 90.1182 -0.4 28
    endloop
  endfacet
  facet normal 1 -0 0
    outer loop
      vertex 120.4 83.9454 31
      vertex 120.4 93.3273 28
      vertex 120.4 93.3273 31
    endloop
  endfacet
  facet normal 1 0 0
    outer loop
      vertex 120.4 93.3273 28
      vertex 120.4 83.9454 31
      vertex 120.4 83.9454 28
    endloop
  endfacet
  facet normal -1 0 0
    outer loop
      vertex 123.6 83.9454 28
      vertex 123.6 93.3273 31
      vertex 123.6 93.3273 28
    endloop
  endfacet
  facet normal -1 -0 0
    outer loop
      vertex 123.6 93.3273 31
      vertex 123.6 83.9454 28
      vertex 123.6 83.9454 31
    endloop
  endfacet
  facet normal 0 -1 0
    outer loop
      vertex 120.4 93.3273 28
      vertex 123.6 93.3273 31
      vertex 120.4 93.3273 31
    endloop
  endfacet
  facet normal 0 -1 -0
    outer loop
      vertex 123.6 93.3273 31
      vertex 120.4 93.3273 28
      vertex 123.6 93.3273 28
    endloop
  endfacet
  facet normal 0 1 -0
    outer loop
      vertex 123.6 83.9454 28
      vertex 120.4 83.9454 31
      vertex 123.6 83.9454 31
    endloop
  endfacet
  facet normal 0 1 0
    outer loop
      vertex 120.4 83.9454 31
      vertex 123.6 83.9454 28
      vertex 120.4 83.9454 28
    endloop
  endfacet
  facet normal 1 -0 0
    outer loop
      vertex -3.6 83.9454 31
      vertex -3.6 93.3273 28
      vertex -3.6 93.3273 31
    endloop
  endfacet
  facet normal 1 0 0
    outer loop
      vertex -3.6 93.3273 28
      vertex -3.6 83.9454 31
      vertex -3.6 83.9454 28
    endloop
  endfacet
  facet normal -1 0 0
    outer loop
      vertex -0.4 83.9454 28
      vertex -0.4 93.3273 31
      vertex -0.4 93.3273 28
    endloop
  endfacet
  facet normal -1 -0 0
    outer loop
      vertex -0.4 93.3273 31
      vertex -0.4 83.9454 28
      vertex -0.4 83.9454 31
    endloop
  endfacet
  facet normal 0 1 -0
    outer loop
      vertex -0.4 83.9454 28
      vertex -3.6 83.9454 31
      vertex -0.4 83.9454 31
    endloop
  endfacet
  facet normal 0 1 0
    outer loop
      vertex -3.6 83.9454 31
      vertex -0.4 83.9454 28
      vertex -3.6 83.9454 28
    endloop
  endfacet
  facet normal 0 -1 0
    outer loop
      vertex -3.6 93.3273 28
      vertex -0.4 93.3273 31
      vertex -3.6 93.3273 31
    endloop
  endfacet
  facet normal 0 -1 -0
    outer loop
      vertex -0.4 93.3273 31
      vertex -3.6 93.3273 28
      vertex -0.4 93.3273 28
    endloop
  endfacet
  facet normal 1 -0 0
    outer loop
      vertex 100.309 100.4 31
      vertex 100.309 103.6 28
      vertex 100.309 103.6 31
    endloop
  endfacet
  facet normal 1 0 0
    outer loop
      vertex 100.309 103.6 28
      vertex 100.309 100.4 31
      vertex 100.309 100.4 28
    endloop
  endfacet
  facet normal -1 0 0
    outer loop
      vertex 114.62 100.4 28
      vertex 114.62 103.6 31
      vertex 114.62 103.6 28
    endloop
  endfacet
  facet normal -1 -0 0
    outer loop
      vertex 114.62 103.6 31
      vertex 114.62 100.4 28
      vertex 114.62 100.4 31
    endloop
  endfacet
  facet normal 0 -1 0
    outer loop
      vertex 100.309 103.6 28
      vertex 114.62 103.6 31
      vertex 100.309 103.6 31
    endloop
  endfacet
  facet normal 0 -1 -0
    outer loop
      vertex 114.62 103.6 31
      vertex 100.309 103.6 28
      vertex 114.62 103.6 28
    endloop
  endfacet
  facet normal 0 1 -0
    outer loop
      vertex 114.62 100.4 28
      vertex 100.309 100.4 31
      vertex 114.62 100.4 31
    endloop
  endfacet
  facet normal 0 1 0
    outer loop
      vertex 100.309 100.4 31
      vertex 114.62 100.4 28
      vertex 100.309 100.4 28
    endloop
  endfacet
  facet normal 1 -0 0
    outer loop
      vertex 100.309 -3.6 31
      vertex 100.309 -0.4 28
      vertex 100.309 -0.4 31
    endloop
  endfacet
  facet normal 1 0 0
    outer loop
      vertex 100.309 -0.4 28
      vertex 100.309 -3.6 31
      vertex 100.309 -3.6 28
    endloop
  endfacet
  facet normal -1 0 0
    outer loop
      vertex 113.209 -3.6 28
      vertex 113.209 -0.4 31
      vertex 113.209 -0.4 28
    endloop
  endfacet
  facet normal -1 -0 0
    outer loop
      vertex 113.209 -0.4 31
      vertex 113.209 -3.6 28
      vertex 113.209 -3.6 31
    endloop
  endfacet
  facet normal 0 -1 0
    outer loop
      vertex 100.309 -0.4 28
      vertex 113.209 -0.4 31
      vertex 100.309 -0.4 31
    endloop
  endfacet
  facet normal 0 -1 -0
    outer loop
      vertex 113.209 -0.4 31
      vertex 100.309 -0.4 28
      vertex 113.209 -0.4 28
    endloop
  endfacet
  facet normal 0 1 -0
    outer loop
      vertex 113.209 -3.6 28
      vertex 100.309 -3.6 31
      vertex 113.209 -3.6 31
    endloop
  endfacet
  facet normal 0 1 0
    outer loop
      vertex 100.309 -3.6 31
      vertex 113.209 -3.6 28
      vertex 100.309 -3.6 28
    endloop
  endfacet
  facet normal 0 1 -0
    outer loop
      vertex 125 110 28
      vertex -5 110 31
      vertex 125 110 31
    endloop
  endfacet
  facet normal 0 1 0
    outer loop
      vertex -5 110 31
      vertex 125 110 28
      vertex -5 110 28
    endloop
  endfacet
  facet normal 0.0515566 0.99867 -0
    outer loop
      vertex 125.523 109.973 28
      vertex 125 110 31
      vertex 125.523 109.973 31
    endloop
  endfacet
  facet normal 0.0515566 0.99867 0
    outer loop
      vertex 125 110 31
      vertex 125.523 109.973 28
      vertex 125 110 28
    endloop
  endfacet
  facet normal 0.0522993 -0.998631 0
    outer loop
      vertex 125 -10 28
      vertex 125.523 -9.97261 31
      vertex 125 -10 31
    endloop
  endfacet
  facet normal 0.0522993 -0.998631 0
    outer loop
      vertex 125.523 -9.97261 31
      vertex 125 -10 28
      vertex 125.523 -9.97261 28
    endloop
  endfacet
  facet normal -0.629326 -0.777142 0
    outer loop
      vertex -8.34565 -8.71572 28
      vertex -7.93893 -9.04508 31
      vertex -8.34565 -8.71572 31
    endloop
  endfacet
  facet normal -0.629326 -0.777142 -0
    outer loop
      vertex -7.93893 -9.04508 31
      vertex -8.34565 -8.71572 28
      vertex -7.93893 -9.04508 28
    endloop
  endfacet
  facet normal -0 0 1
    outer loop
      vertex -3.6 25.5818 31
      vertex -0.4 15.5091 31
      vertex -0.4 25.5818 31
    endloop
  endfacet
  facet normal 0 0 1
    outer loop
      vertex -0.4 15.5091 31
      vertex -3.6 25.5818 31
      vertex -3.6 15.5091 31
    endloop
  endfacet
  facet normal -0 0 1
    outer loop
      vertex -3.6 45.0364 31
      vertex -0.4 34.9636 31
      vertex -0.4 45.0364 31
    endloop
  endfacet
  facet normal 0 0 1
    outer loop
      vertex -0.4 34.9636 31
      vertex -3.6 45.0364 31
      vertex -3.6 34.9636 31
    endloop
  endfacet
  facet normal -0 0 1
    outer loop
      vertex -3.6 64.4909 31
      vertex -0.4 54.4182 31
      vertex -0.4 64.4909 31
    endloop
  endfacet
  facet normal 0 0 1
    outer loop
      vertex -0.4 54.4182 31
      vertex -3.6 64.4909 31
      vertex -3.6 54.4182 31
    endloop
  endfacet
  facet normal -0 0 1
    outer loop
      vertex -3.6 83.9454 31
      vertex -0.4 73.8727 31
      vertex -0.4 83.9454 31
    endloop
  endfacet
  facet normal 0 0 1
    outer loop
      vertex -0.4 73.8727 31
      vertex -3.6 83.9454 31
      vertex -3.6 73.8727 31
    endloop
  endfacet
  facet normal 0 0 1
    outer loop
      vertex -0.4 83.9454 31
      vertex 22.2566 100.4 31
      vertex 7.94545 100.4 31
    endloop
  endfacet
  facet normal 0 0 1
    outer loop
      vertex -0.4 54.4182 31
      vertex 22.2566 100.4 31
      vertex -0.4 64.4909 31
    endloop
  endfacet
  facet normal -0 0 1
    outer loop
      vertex 31.0364 100.4 31
      vertex 43.9364 -0.4 31
      vertex 45.3475 100.4 31
    endloop
  endfacet
  facet normal 0 0 1
    outer loop
      vertex 43.9364 -0.4 31
      vertex 31.0364 100.4 31
      vertex 31.0364 -0.4 31
    endloop
  endfacet
  facet normal -0 0 1
    outer loop
      vertex 54.1273 100.4 31
      vertex 67.0273 -0.4 31
      vertex 68.4384 100.4 31
    endloop
  endfacet
  facet normal 0 0 1
    outer loop
      vertex 67.0273 -0.4 31
      vertex 54.1273 100.4 31
      vertex 54.1273 -0.4 31
    endloop
  endfacet
  facet normal 0 0 1
    outer loop
      vertex 120.4 54.4182 31
      vertex 68.4384 100.4 31
      vertex 120.4 45.0364 31
    endloop
  endfacet
  facet normal 0 0 1
    outer loop
      vertex 120.4 45.0364 31
      vertex 77.2182 -0.4 31
      vertex 90.1182 -0.4 31
    endloop
  endfacet
  facet normal -0 0 1
    outer loop
      vertex 68.4384 100.4 31
      vertex 120.4 54.4182 31
      vertex 77.2182 100.4 31
    endloop
  endfacet
  facet normal 0 0 1
    outer loop
      vertex 120.4 34.9636 31
      vertex 100.309 -0.4 31
      vertex 113.209 -0.4 31
    endloop
  endfacet
  facet normal -0 0 1
    outer loop
      vertex 120.4 25.5818 31
      vertex 123.6 15.5091 31
      vertex 123.6 25.5818 31
    endloop
  endfacet
  facet normal 0 0 1
    outer loop
      vertex 123.6 15.5091 31
      vertex 120.4 25.5818 31
      vertex 120.4 15.5091 31
    endloop
  endfacet
  facet normal -0 0 1
    outer loop
      vertex 120.4 45.0364 31
      vertex 123.6 34.9636 31
      vertex 123.6 45.0364 31
    endloop
  endfacet
  facet normal 0 0 1
    outer loop
      vertex 123.6 34.9636 31
      vertex 120.4 45.0364 31
      vertex 120.4 34.9636 31
    endloop
  endfacet
  facet normal -0 0 1
    outer loop
      vertex 120.4 64.4909 31
      vertex 123.6 54.4182 31
      vertex 123.6 64.4909 31
    endloop
  endfacet
  facet normal 0 0 1
    outer loop
      vertex 123.6 54.4182 31
      vertex 120.4 64.4909 31
      vertex 120.4 54.4182 31
    endloop
  endfacet
  facet normal -0 0 1
    outer loop
      vertex 120.4 83.9454 31
      vertex 123.6 73.8727 31
      vertex 123.6 83.9454 31
    endloop
  endfacet
  facet normal 0 0 1
    outer loop
      vertex 123.6 73.8727 31
      vertex 120.4 83.9454 31
      vertex 120.4 73.8727 31
    endloop
  endfacet
  facet normal 0 0 1
    outer loop
      vertex 125 110 31
      vertex 130 105 31
      vertex 129.973 105.523 31
    endloop
  endfacet
  facet normal 0 0 1
    outer loop
      vertex 130 105 31
      vertex 123.6 54.4182 31
      vertex 130 -5 31
    endloop
  endfacet
  facet normal 0 0 1
    outer loop
      vertex 125 110 31
      vertex 129.973 105.523 31
      vertex 129.891 106.04 31
    endloop
  endfacet
  facet normal -0 0 1
    outer loop
      vertex 123.6 45.0364 31
      vertex 130 -5 31
      vertex 123.6 54.4182 31
    endloop
  endfacet
  facet normal 0 0 1
    outer loop
      vertex 125 110 31
      vertex 129.891 106.04 31
      vertex 129.755 106.545 31
    endloop
  endfacet
  facet normal -0 0 1
    outer loop
      vertex 123.6 34.9636 31
      vertex 130 -5 31
      vertex 123.6 45.0364 31
    endloop
  endfacet
  facet normal 0 0 1
    outer loop
      vertex 125 110 31
      vertex 129.755 106.545 31
      vertex 129.568 107.034 31
    endloop
  endfacet
  facet normal -0 0 1
    outer loop
      vertex 123.6 25.5818 31
      vertex 130 -5 31
      vertex 123.6 34.9636 31
    endloop
  endfacet
  facet normal 0 0 1
    outer loop
      vertex 125 110 31
      vertex 129.568 107.034 31
      vertex 129.33 107.5 31
    endloop
  endfacet
  facet normal -0 0 1
    outer loop
      vertex 123.6 15.5091 31
      vertex 130 -5 31
      vertex 123.6 25.5818 31
    endloop
  endfacet
  facet normal 0 0 1
    outer loop
      vertex 125 110 31
      vertex 129.33 107.5 31
      vertex 129.045 107.939 31
    endloop
  endfacet
  facet normal -0 0 1
    outer loop
      vertex 123.6 6.12727 31
      vertex 130 -5 31
      vertex 123.6 15.5091 31
    endloop
  endfacet
  facet normal 0 0 1
    outer loop
      vertex 125 110 31
      vertex 129.045 107.939 31
      vertex 128.716 108.346 31
    endloop
  endfacet
  facet normal 0 -0 1
    outer loop
      vertex 125 -10 31
      vertex 130 -5 31
      vertex 123.6 6.12727 31
    endloop
  endfacet
  facet normal 0 0 1
    outer loop
      vertex 125 110 31
      vertex 128.716 108.346 31
      vertex 128.346 108.716 31
    endloop
  endfacet
  facet normal 0 0 1
    outer loop
      vertex 130 -5 31
      vertex 125 -10 31
      vertex 129.973 -5.52264 31
    endloop
  endfacet
  facet normal 0 0 1
    outer loop
      vertex 125 110 31
      vertex 128.346 108.716 31
      vertex 127.939 109.045 31
    endloop
  endfacet
  facet normal 0 0 1
    outer loop
      vertex 129.973 -5.52264 31
      vertex 125 -10 31
      vertex 129.891 -6.03956 31
    endloop
  endfacet
  facet normal 0 0 1
    outer loop
      vertex 125 110 31
      vertex 127.939 109.045 31
      vertex 127.5 109.33 31
    endloop
  endfacet
  facet normal 0 0 1
    outer loop
      vertex 129.891 -6.03956 31
      vertex 125 -10 31
      vertex 129.755 -6.54508 31
    endloop
  endfacet
  facet normal 0 0 1
    outer loop
      vertex 125 110 31
      vertex 127.5 109.33 31
      vertex 127.034 109.568 31
    endloop
  endfacet
  facet normal 0 0 1
    outer loop
      vertex 129.755 -6.54508 31
      vertex 125 -10 31
      vertex 129.568 -7.03368 31
    endloop
  endfacet
  facet normal 0 0 1
    outer loop
      vertex 125 110 31
      vertex 127.034 109.568 31
      vertex 126.545 109.755 31
    endloop
  endfacet
  facet normal 0 0 1
    outer loop
      vertex 129.568 -7.03368 31
      vertex 125 -10 31
      vertex 129.33 -7.5 31
    endloop
  endfacet
  facet normal 0 0 1
    outer loop
      vertex 125 110 31
      vertex 126.545 109.755 31
      vertex 126.04 109.891 31
    endloop
  endfacet
  facet normal 0 0 1
    outer loop
      vertex 129.33 -7.5 31
      vertex 125 -10 31
      vertex 129.045 -7.93893 31
    endloop
  endfacet
  facet normal 0 0 1
    outer loop
      vertex 125 110 31
      vertex 126.04 109.891 31
      vertex 125.523 109.973 31
    endloop
  endfacet
  facet normal 0 0 1
    outer loop
      vertex 129.045 -7.93893 31
      vertex 125 -10 31
      vertex 128.716 -8.34565 31
    endloop
  endfacet
  facet normal 0 0 1
    outer loop
      vertex 130 105 31
      vertex 125 110 31
      vertex 114.62 103.6 31
    endloop
  endfacet
  facet normal 0 0 1
    outer loop
      vertex 130 105 31
      vertex 123.6 64.4909 31
      vertex 123.6 54.4182 31
    endloop
  endfacet
  facet normal 0 0 1
    outer loop
      vertex 130 105 31
      vertex 123.6 93.3273 31
      vertex 123.6 83.9454 31
    endloop
  endfacet
  facet normal 0 0 1
    outer loop
      vertex 130 105 31
      vertex 114.62 100.4 31
      vertex 123.6 93.3273 31
    endloop
  endfacet
  facet normal 0 0 1
    outer loop
      vertex 114.62 100.4 31
      vertex 120.4 83.9454 31
      vertex 120.4 93.3273 31
    endloop
  endfacet
  facet normal -0 0 1
    outer loop
      vertex 100.309 100.4 31
      vertex 120.4 83.9454 31
      vertex 114.62 100.4 31
    endloop
  endfacet
  facet normal 0 0 1
    outer loop
      vertex 120.4 83.9454 31
      vertex 100.309 100.4 31
      vertex 120.4 73.8727 31
    endloop
  endfacet
  facet normal -0 0 1
    outer loop
      vertex 91.5293 100.4 31
      vertex 120.4 73.8727 31
      vertex 100.309 100.4 31
    endloop
  endfacet
  facet normal 0 0 1
    outer loop
      vertex 120.4 73.8727 31
      vertex 91.5293 100.4 31
      vertex 120.4 64.4909 31
    endloop
  endfacet
  facet normal -0 0 1
    outer loop
      vertex 77.2182 100.4 31
      vertex 120.4 64.4909 31
      vertex 91.5293 100.4 31
    endloop
  endfacet
  facet normal 0 0 1
    outer loop
      vertex 120.4 64.4909 31
      vertex 77.2182 100.4 31
      vertex 120.4 54.4182 31
    endloop
  endfacet
  facet normal 0 0 1
    outer loop
      vertex 120.4 34.9636 31
      vertex 113.209 -0.4 31
      vertex 120.4 25.5818 31
    endloop
  endfacet
  facet normal 0 0 1
    outer loop
      vertex 123.6 93.3273 31
      vertex 114.62 100.4 31
      vertex 120.4 93.3273 31
    endloop
  endfacet
  facet normal 0 0 1
    outer loop
      vertex 130 105 31
      vertex 114.62 103.6 31
      vertex 114.62 100.4 31
    endloop
  endfacet
  facet normal 0 0 1
    outer loop
      vertex 125 110 31
      vertex 100.309 103.6 31
      vertex 114.62 103.6 31
    endloop
  endfacet
  facet normal 0 0 1
    outer loop
      vertex 91.5293 100.4 31
      vertex 100.309 100.4 31
      vertex 100.309 103.6 31
    endloop
  endfacet
  facet normal 0 0 1
    outer loop
      vertex 120.4 45.0364 31
      vertex 90.1182 -0.4 31
      vertex 120.4 34.9636 31
    endloop
  endfacet
  facet normal 0 0 1
    outer loop
      vertex 91.5293 100.4 31
      vertex 100.309 103.6 31
      vertex 91.5293 103.6 31
    endloop
  endfacet
  facet normal 0 0 1
    outer loop
      vertex 125 110 31
      vertex 91.5293 103.6 31
      vertex 100.309 103.6 31
    endloop
  endfacet
  facet normal 0 0 1
    outer loop
      vertex 125 110 31
      vertex 77.2182 103.6 31
      vertex 91.5293 103.6 31
    endloop
  endfacet
  facet normal 0 0 1
    outer loop
      vertex 68.4384 100.4 31
      vertex 77.2182 100.4 31
      vertex 77.2182 103.6 31
    endloop
  endfacet
  facet normal 0 0 1
    outer loop
      vertex 67.0273 -0.4 31
      vertex 120.4 45.0364 31
      vertex 68.4384 100.4 31
    endloop
  endfacet
  facet normal 0 0 1
    outer loop
      vertex 68.4384 100.4 31
      vertex 77.2182 103.6 31
      vertex 68.4384 103.6 31
    endloop
  endfacet
  facet normal 0 0 1
    outer loop
      vertex 125 110 31
      vertex 68.4384 103.6 31
      vertex 77.2182 103.6 31
    endloop
  endfacet
  facet normal 0 0 1
    outer loop
      vertex 125 110 31
      vertex 54.1273 103.6 31
      vertex 68.4384 103.6 31
    endloop
  endfacet
  facet normal 0 0 1
    outer loop
      vertex 45.3475 100.4 31
      vertex 54.1273 100.4 31
      vertex 54.1273 103.6 31
    endloop
  endfacet
  facet normal 0 0 1
    outer loop
      vertex 54.1273 100.4 31
      vertex 45.3475 100.4 31
      vertex 54.1273 -0.4 31
    endloop
  endfacet
  facet normal 0 0 1
    outer loop
      vertex 45.3475 100.4 31
      vertex 54.1273 103.6 31
      vertex 45.3475 103.6 31
    endloop
  endfacet
  facet normal -0 0 1
    outer loop
      vertex -5 110 31
      vertex 54.1273 103.6 31
      vertex 125 110 31
    endloop
  endfacet
  facet normal 0 0 1
    outer loop
      vertex 54.1273 103.6 31
      vertex -5 110 31
      vertex 45.3475 103.6 31
    endloop
  endfacet
  facet normal 0 0 1
    outer loop
      vertex 22.2566 100.4 31
      vertex 31.0364 100.4 31
      vertex 31.0364 103.6 31
    endloop
  endfacet
  facet normal 0 0 1
    outer loop
      vertex 31.0364 100.4 31
      vertex 22.2566 100.4 31
      vertex 31.0364 -0.4 31
    endloop
  endfacet
  facet normal 0 0 1
    outer loop
      vertex 22.2566 100.4 31
      vertex 31.0364 103.6 31
      vertex 22.2566 103.6 31
    endloop
  endfacet
  facet normal 0 0 1
    outer loop
      vertex 45.3475 103.6 31
      vertex -5 110 31
      vertex 31.0364 103.6 31
    endloop
  endfacet
  facet normal 0 0 1
    outer loop
      vertex 31.0364 103.6 31
      vertex -5 110 31
      vertex 22.2566 103.6 31
    endloop
  endfacet
  facet normal 0 0 1
    outer loop
      vertex -0.4 93.3273 31
      vertex 7.94545 100.4 31
      vertex 7.94545 103.6 31
    endloop
  endfacet
  facet normal -0 0 1
    outer loop
      vertex -0.4 45.0364 31
      vertex 20.8455 -0.4 31
      vertex -0.4 54.4182 31
    endloop
  endfacet
  facet normal 0 0 1
    outer loop
      vertex 7.94545 100.4 31
      vertex -0.4 93.3273 31
      vertex -0.4 83.9454 31
    endloop
  endfacet
  facet normal 0 0 1
    outer loop
      vertex -5 110 31
      vertex -0.4 93.3273 31
      vertex 7.94545 103.6 31
    endloop
  endfacet
  facet normal 0 0 1
    outer loop
      vertex -10 105 31
      vertex -3.6 83.9454 31
      vertex -3.6 93.3273 31
    endloop
  endfacet
  facet normal 0 0 1
    outer loop
      vertex -3.6 83.9454 31
      vertex -10 105 31
      vertex -3.6 73.8727 31
    endloop
  endfacet
  facet normal 0 0 1
    outer loop
      vertex -3.6 73.8727 31
      vertex -10 105 31
      vertex -3.6 64.4909 31
    endloop
  endfacet
  facet normal 0 0 1
    outer loop
      vertex -3.6 64.4909 31
      vertex -10 105 31
      vertex -3.6 54.4182 31
    endloop
  endfacet
  facet normal 0 0 1
    outer loop
      vertex -3.6 54.4182 31
      vertex -10 105 31
      vertex -3.6 45.0364 31
    endloop
  endfacet
  facet normal 0 0 1
    outer loop
      vertex -10 -5 31
      vertex -3.6 45.0364 31
      vertex -10 105 31
    endloop
  endfacet
  facet normal 0 0 1
    outer loop
      vertex -3.6 45.0364 31
      vertex -10 -5 31
      vertex -3.6 34.9636 31
    endloop
  endfacet
  facet normal 0 0 1
    outer loop
      vertex -3.6 34.9636 31
      vertex -10 -5 31
      vertex -3.6 25.5818 31
    endloop
  endfacet
  facet normal 0 0 1
    outer loop
      vertex -0.4 93.3273 31
      vertex -10 105 31
      vertex -3.6 93.3273 31
    endloop
  endfacet
  facet normal -0 0 1
    outer loop
      vertex -10 105 31
      vertex -0.4 93.3273 31
      vertex -5 110 31
    endloop
  endfacet
  facet normal 0 0 1
    outer loop
      vertex 22.2566 103.6 31
      vertex -5 110 31
      vertex 7.94545 103.6 31
    endloop
  endfacet
  facet normal 0 0 1
    outer loop
      vertex 130 105 31
      vertex 123.6 83.9454 31
      vertex 123.6 73.8727 31
    endloop
  endfacet
  facet normal 0 0 1
    outer loop
      vertex 130 105 31
      vertex 123.6 73.8727 31
      vertex 123.6 64.4909 31
    endloop
  endfacet
  facet normal 0 0 1
    outer loop
      vertex 128.716 -8.34565 31
      vertex 125 -10 31
      vertex 128.346 -8.71572 31
    endloop
  endfacet
  facet normal 0 0 1
    outer loop
      vertex 128.346 -8.71572 31
      vertex 125 -10 31
      vertex 127.939 -9.04508 31
    endloop
  endfacet
  facet normal 0 0 1
    outer loop
      vertex 127.939 -9.04508 31
      vertex 125 -10 31
      vertex 127.5 -9.33013 31
    endloop
  endfacet
  facet normal 0 0 1
    outer loop
      vertex 127.5 -9.33013 31
      vertex 125 -10 31
      vertex 127.034 -9.56773 31
    endloop
  endfacet
  facet normal 0 0 1
    outer loop
      vertex 127.034 -9.56773 31
      vertex 125 -10 31
      vertex 126.545 -9.75528 31
    endloop
  endfacet
  facet normal 0 0 1
    outer loop
      vertex 126.545 -9.75528 31
      vertex 125 -10 31
      vertex 126.04 -9.89074 31
    endloop
  endfacet
  facet normal 0 0 1
    outer loop
      vertex 126.04 -9.89074 31
      vertex 125 -10 31
      vertex 125.523 -9.97261 31
    endloop
  endfacet
  facet normal -0 0 1
    outer loop
      vertex 120.4 6.12727 31
      vertex 125 -10 31
      vertex 123.6 6.12727 31
    endloop
  endfacet
  facet normal 0 0 1
    outer loop
      vertex 120.4 25.5818 31
      vertex 113.209 -0.4 31
      vertex 120.4 15.5091 31
    endloop
  endfacet
  facet normal 0 0 1
    outer loop
      vertex 120.4 15.5091 31
      vertex 113.209 -0.4 31
      vertex 120.4 6.12727 31
    endloop
  endfacet
  facet normal 0 0 1
    outer loop
      vertex 113.209 -3.6 31
      vertex 120.4 6.12727 31
      vertex 113.209 -0.4 31
    endloop
  endfacet
  facet normal 0 0 1
    outer loop
      vertex 120.4 6.12727 31
      vertex 113.209 -3.6 31
      vertex 125 -10 31
    endloop
  endfacet
  facet normal -0 0 1
    outer loop
      vertex 100.309 -3.6 31
      vertex 125 -10 31
      vertex 113.209 -3.6 31
    endloop
  endfacet
  facet normal 0 0 1
    outer loop
      vertex 120.4 34.9636 31
      vertex 90.1182 -0.4 31
      vertex 100.309 -0.4 31
    endloop
  endfacet
  facet normal 0 0 1
    outer loop
      vertex 100.309 -0.4 31
      vertex 90.1182 -0.4 31
      vertex 100.309 -3.6 31
    endloop
  endfacet
  facet normal 0 0 1
    outer loop
      vertex 90.1182 -3.6 31
      vertex 100.309 -3.6 31
      vertex 90.1182 -0.4 31
    endloop
  endfacet
  facet normal -0 0 1
    outer loop
      vertex 90.1182 -3.6 31
      vertex 125 -10 31
      vertex 100.309 -3.6 31
    endloop
  endfacet
  facet normal -0 0 1
    outer loop
      vertex 77.2182 -3.6 31
      vertex 125 -10 31
      vertex 90.1182 -3.6 31
    endloop
  endfacet
  facet normal 0 0 1
    outer loop
      vertex 120.4 45.0364 31
      vertex 67.0273 -0.4 31
      vertex 77.2182 -0.4 31
    endloop
  endfacet
  facet normal 0 0 1
    outer loop
      vertex 77.2182 -0.4 31
      vertex 67.0273 -0.4 31
      vertex 77.2182 -3.6 31
    endloop
  endfacet
  facet normal 0 0 1
    outer loop
      vertex 67.0273 -3.6 31
      vertex 77.2182 -3.6 31
      vertex 67.0273 -0.4 31
    endloop
  endfacet
  facet normal -0 0 1
    outer loop
      vertex 67.0273 -3.6 31
      vertex 125 -10 31
      vertex 77.2182 -3.6 31
    endloop
  endfacet
  facet normal -0 0 1
    outer loop
      vertex 54.1273 -3.6 31
      vertex 125 -10 31
      vertex 67.0273 -3.6 31
    endloop
  endfacet
  facet normal 0 0 1
    outer loop
      vertex 43.9364 -0.4 31
      vertex 54.1273 -0.4 31
      vertex 45.3475 100.4 31
    endloop
  endfacet
  facet normal 0 0 1
    outer loop
      vertex 54.1273 -0.4 31
      vertex 43.9364 -0.4 31
      vertex 54.1273 -3.6 31
    endloop
  endfacet
  facet normal 0 0 1
    outer loop
      vertex 43.9364 -3.6 31
      vertex 54.1273 -3.6 31
      vertex 43.9364 -0.4 31
    endloop
  endfacet
  facet normal 0 0 1
    outer loop
      vertex -5 -10 31
      vertex 54.1273 -3.6 31
      vertex 43.9364 -3.6 31
    endloop
  endfacet
  facet normal 0 0 1
    outer loop
      vertex -5 -10 31
      vertex 43.9364 -3.6 31
      vertex 31.0364 -3.6 31
    endloop
  endfacet
  facet normal 0 0 1
    outer loop
      vertex 20.8455 -0.4 31
      vertex 31.0364 -0.4 31
      vertex 22.2566 100.4 31
    endloop
  endfacet
  facet normal 0 0 1
    outer loop
      vertex 31.0364 -0.4 31
      vertex 20.8455 -0.4 31
      vertex 31.0364 -3.6 31
    endloop
  endfacet
  facet normal 0 0 1
    outer loop
      vertex 20.8455 -3.6 31
      vertex 31.0364 -3.6 31
      vertex 20.8455 -0.4 31
    endloop
  endfacet
  facet normal 0 0 1
    outer loop
      vertex -5 -10 31
      vertex 31.0364 -3.6 31
      vertex 20.8455 -3.6 31
    endloop
  endfacet
  facet normal 0 0 1
    outer loop
      vertex -5 -10 31
      vertex 20.8455 -3.6 31
      vertex 7.94545 -3.6 31
    endloop
  endfacet
  facet normal 0 0 1
    outer loop
      vertex 22.2566 100.4 31
      vertex -0.4 83.9454 31
      vertex -0.4 73.8727 31
    endloop
  endfacet
  facet normal 0 0 1
    outer loop
      vertex 22.2566 100.4 31
      vertex -0.4 73.8727 31
      vertex -0.4 64.4909 31
    endloop
  endfacet
  facet normal 0 0 1
    outer loop
      vertex 22.2566 100.4 31
      vertex -0.4 54.4182 31
      vertex 20.8455 -0.4 31
    endloop
  endfacet
  facet normal -0 0 1
    outer loop
      vertex -0.4 34.9636 31
      vertex 20.8455 -0.4 31
      vertex -0.4 45.0364 31
    endloop
  endfacet
  facet normal -0 0 1
    outer loop
      vertex -0.4 25.5818 31
      vertex 20.8455 -0.4 31
      vertex -0.4 34.9636 31
    endloop
  endfacet
  facet normal -0 0 1
    outer loop
      vertex -0.4 15.5091 31
      vertex 20.8455 -0.4 31
      vertex -0.4 25.5818 31
    endloop
  endfacet
  facet normal 0 0 1
    outer loop
      vertex 20.8455 -0.4 31
      vertex -0.4 15.5091 31
      vertex 7.94545 -0.4 31
    endloop
  endfacet
  facet normal -0 0 1
    outer loop
      vertex -0.4 6.12727 31
      vertex 7.94545 -0.4 31
      vertex -0.4 15.5091 31
    endloop
  endfacet
  facet normal 0 0 1
    outer loop
      vertex 7.94545 -0.4 31
      vertex -0.4 6.12727 31
      vertex 7.94545 -3.6 31
    endloop
  endfacet
  facet normal 0 0 1
    outer loop
      vertex -5 -10 31
      vertex -0.4 6.12727 31
      vertex -3.6 6.12727 31
    endloop
  endfacet
  facet normal 0 0 1
    outer loop
      vertex 54.1273 -3.6 31
      vertex -5 -10 31
      vertex 125 -10 31
    endloop
  endfacet
  facet normal 0 0 1
    outer loop
      vertex -0.4 6.12727 31
      vertex -5 -10 31
      vertex 7.94545 -3.6 31
    endloop
  endfacet
  facet normal 0 0 1
    outer loop
      vertex -3.6 25.5818 31
      vertex -10 -5 31
      vertex -3.6 15.5091 31
    endloop
  endfacet
  facet normal 0 0 1
    outer loop
      vertex -10 105 31
      vertex -5 110 31
      vertex -5.52264 109.973 31
    endloop
  endfacet
  facet normal 0 0 1
    outer loop
      vertex -3.6 15.5091 31
      vertex -10 -5 31
      vertex -3.6 6.12727 31
    endloop
  endfacet
  facet normal 0 0 1
    outer loop
      vertex -10 105 31
      vertex -5.52264 109.973 31
      vertex -6.03956 109.891 31
    endloop
  endfacet
  facet normal 0 0 1
    outer loop
      vertex -3.6 6.12727 31
      vertex -10 -5 31
      vertex -5 -10 31
    endloop
  endfacet
  facet normal 0 0 1
    outer loop
      vertex -10 105 31
      vertex -6.03956 109.891 31
      vertex -6.54508 109.755 31
    endloop
  endfacet
  facet normal 0 0 1
    outer loop
      vertex -5 -10 31
      vertex -10 -5 31
      vertex -5.52264 -9.97261 31
    endloop
  endfacet
  facet normal 0 0 1
    outer loop
      vertex -10 105 31
      vertex -6.54508 109.755 31
      vertex -7.03368 109.568 31
    endloop
  endfacet
  facet normal 0 0 1
    outer loop
      vertex -5.52264 -9.97261 31
      vertex -10 -5 31
      vertex -6.03956 -9.89074 31
    endloop
  endfacet
  facet normal 0 0 1
    outer loop
      vertex -10 105 31
      vertex -7.03368 109.568 31
      vertex -7.5 109.33 31
    endloop
  endfacet
  facet normal 0 0 1
    outer loop
      vertex -6.03956 -9.89074 31
      vertex -10 -5 31
      vertex -6.54508 -9.75528 31
    endloop
  endfacet
  facet normal 0 0 1
    outer loop
      vertex -10 105 31
      vertex -7.5 109.33 31
      vertex -7.93893 109.045 31
    endloop
  endfacet
  facet normal 0 0 1
    outer loop
      vertex -6.54508 -9.75528 31
      vertex -10 -5 31
      vertex -7.03368 -9.56773 31
    endloop
  endfacet
  facet normal 0 0 1
    outer loop
      vertex -10 105 31
      vertex -7.93893 109.045 31
      vertex -8.34565 108.716 31
    endloop
  endfacet
  facet normal 0 0 1
    outer loop
      vertex -7.03368 -9.56773 31
      vertex -10 -5 31
      vertex -7.5 -9.33013 31
    endloop
  endfacet
  facet normal 0 0 1
    outer loop
      vertex -10 105 31
      vertex -8.34565 108.716 31
      vertex -8.71572 108.346 31
    endloop
  endfacet
  facet normal 0 0 1
    outer loop
      vertex -7.5 -9.33013 31
      vertex -10 -5 31
      vertex -7.93893 -9.04508 31
    endloop
  endfacet
  facet normal 0 0 1
    outer loop
      vertex -10 105 31
      vertex -8.71572 108.346 31
      vertex -9.04508 107.939 31
    endloop
  endfacet
  facet normal 0 0 1
    outer loop
      vertex -7.93893 -9.04508 31
      vertex -10 -5 31
      vertex -8.34565 -8.71572 31
    endloop
  endfacet
  facet normal 0 0 1
    outer loop
      vertex -10 105 31
      vertex -9.04508 107.939 31
      vertex -9.33013 107.5 31
    endloop
  endfacet
  facet normal 0 0 1
    outer loop
      vertex -8.34565 -8.71572 31
      vertex -10 -5 31
      vertex -8.71572 -8.34565 31
    endloop
  endfacet
  facet normal 0 0 1
    outer loop
      vertex -10 105 31
      vertex -9.33013 107.5 31
      vertex -9.56773 107.034 31
    endloop
  endfacet
  facet normal 0 0 1
    outer loop
      vertex -8.71572 -8.34565 31
      vertex -10 -5 31
      vertex -9.04508 -7.93893 31
    endloop
  endfacet
  facet normal 0 0 1
    outer loop
      vertex -10 105 31
      vertex -9.56773 107.034 31
      vertex -9.75528 106.545 31
    endloop
  endfacet
  facet normal 0 0 1
    outer loop
      vertex -9.04508 -7.93893 31
      vertex -10 -5 31
      vertex -9.33013 -7.5 31
    endloop
  endfacet
  facet normal 0 0 1
    outer loop
      vertex -10 105 31
      vertex -9.75528 106.545 31
      vertex -9.89074 106.04 31
    endloop
  endfacet
  facet normal 0 0 1
    outer loop
      vertex -9.33013 -7.5 31
      vertex -10 -5 31
      vertex -9.56773 -7.03368 31
    endloop
  endfacet
  facet normal 0 0 1
    outer loop
      vertex -10 105 31
      vertex -9.89074 106.04 31
      vertex -9.97261 105.523 31
    endloop
  endfacet
  facet normal 0 0 1
    outer loop
      vertex -9.56773 -7.03368 31
      vertex -10 -5 31
      vertex -9.75528 -6.54508 31
    endloop
  endfacet
  facet normal 0 0 1
    outer loop
      vertex -9.75528 -6.54508 31
      vertex -10 -5 31
      vertex -9.89074 -6.03956 31
    endloop
  endfacet
  facet normal 0 0 1
    outer loop
      vertex -9.89074 -6.03956 31
      vertex -10 -5 31
      vertex -9.97261 -5.52264 31
    endloop
  endfacet
  facet normal 0 -1 0
    outer loop
      vertex -5 -10 28
      vertex 125 -10 31
      vertex -5 -10 31
    endloop
  endfacet
  facet normal 0 -1 -0
    outer loop
      vertex 125 -10 31
      vertex -5 -10 28
      vertex 125 -10 28
    endloop
  endfacet
  facet normal -0.707107 -0.707107 0
    outer loop
      vertex -8.34565 -8.71572 28
      vertex -8.71572 -8.34565 31
      vertex -8.71572 -8.34565 28
    endloop
  endfacet
  facet normal -0.707107 -0.707107 0
    outer loop
      vertex -8.71572 -8.34565 31
      vertex -8.34565 -8.71572 28
      vertex -8.34565 -8.71572 31
    endloop
  endfacet
  facet normal 0.707107 0.707107 0
    outer loop
      vertex 128.716 108.346 31
      vertex 128.346 108.716 28
      vertex 128.346 108.716 31
    endloop
  endfacet
  facet normal 0.707107 0.707107 0
    outer loop
      vertex 128.346 108.716 28
      vertex 128.716 108.346 31
      vertex 128.716 108.346 28
    endloop
  endfacet
  facet normal 1 -0 0
    outer loop
      vertex 130 -5 31
      vertex 130 105 28
      vertex 130 105 31
    endloop
  endfacet
  facet normal 1 0 0
    outer loop
      vertex 130 105 28
      vertex 130 -5 31
      vertex 130 -5 28
    endloop
  endfacet
  facet normal 0.965597 0.260042 0
    outer loop
      vertex 129.891 106.04 31
      vertex 129.755 106.545 28
      vertex 129.755 106.545 31
    endloop
  endfacet
  facet normal 0.965597 0.260042 0
    outer loop
      vertex 129.755 106.545 28
      vertex 129.891 106.04 31
      vertex 129.891 106.04 28
    endloop
  endfacet
  facet normal -0.99863 -0.0523352 0
    outer loop
      vertex -9.97261 -5.52264 28
      vertex -10 -5 31
      vertex -10 -5 28
    endloop
  endfacet
  facet normal -0.99863 -0.0523352 0
    outer loop
      vertex -10 -5 31
      vertex -9.97261 -5.52264 28
      vertex -9.97261 -5.52264 31
    endloop
  endfacet
  facet normal -1 0 0
    outer loop
      vertex -10 -5 28
      vertex -10 105 31
      vertex -10 105 28
    endloop
  endfacet
  facet normal -1 -0 0
    outer loop
      vertex -10 105 31
      vertex -10 -5 28
      vertex -10 -5 31
    endloop
  endfacet
  facet normal -0.25883 -0.965923 0
    outer loop
      vertex -6.54508 -9.75528 28
      vertex -6.03956 -9.89074 31
      vertex -6.54508 -9.75528 31
    endloop
  endfacet
  facet normal -0.25883 -0.965923 -0
    outer loop
      vertex -6.03956 -9.89074 31
      vertex -6.54508 -9.75528 28
      vertex -6.03956 -9.89074 28
    endloop
  endfacet
  facet normal -0.156431 -0.987689 0
    outer loop
      vertex -6.03956 -9.89074 28
      vertex -5.52264 -9.97261 31
      vertex -6.03956 -9.89074 31
    endloop
  endfacet
  facet normal -0.156431 -0.987689 -0
    outer loop
      vertex -5.52264 -9.97261 31
      vertex -6.03956 -9.89074 28
      vertex -5.52264 -9.97261 28
    endloop
  endfacet
  facet normal 0.357186 0.934033 -0
    outer loop
      vertex 127.034 109.568 28
      vertex 126.545 109.755 31
      vertex 127.034 109.568 31
    endloop
  endfacet
  facet normal 0.357186 0.934033 0
    outer loop
      vertex 126.545 109.755 31
      vertex 127.034 109.568 28
      vertex 126.545 109.755 28
    endloop
  endfacet
  facet normal 0.934033 0.357186 0
    outer loop
      vertex 129.755 106.545 31
      vertex 129.568 107.034 28
      vertex 129.568 107.034 31
    endloop
  endfacet
  facet normal 0.934033 0.357186 0
    outer loop
      vertex 129.568 107.034 28
      vertex 129.755 106.545 31
      vertex 129.755 106.545 28
    endloop
  endfacet
  facet normal -0.933682 0.358102 0
    outer loop
      vertex -9.75528 106.545 28
      vertex -9.56773 107.034 31
      vertex -9.56773 107.034 28
    endloop
  endfacet
  facet normal -0.933682 0.358102 0
    outer loop
      vertex -9.56773 107.034 31
      vertex -9.75528 106.545 28
      vertex -9.75528 106.545 31
    endloop
  endfacet
  facet normal -0.890882 0.454235 0
    outer loop
      vertex -9.56773 107.034 28
      vertex -9.33013 107.5 31
      vertex -9.33013 107.5 28
    endloop
  endfacet
  facet normal -0.890882 0.454235 0
    outer loop
      vertex -9.33013 107.5 31
      vertex -9.56773 107.034 28
      vertex -9.56773 107.034 31
    endloop
  endfacet
  facet normal -0.453988 -0.891008 0
    outer loop
      vertex -7.5 -9.33013 28
      vertex -7.03368 -9.56773 31
      vertex -7.5 -9.33013 31
    endloop
  endfacet
  facet normal -0.453988 -0.891008 -0
    outer loop
      vertex -7.03368 -9.56773 31
      vertex -7.5 -9.33013 28
      vertex -7.03368 -9.56773 28
    endloop
  endfacet
  facet normal 0.156649 0.987654 -0
    outer loop
      vertex 126.04 109.891 28
      vertex 125.523 109.973 31
      vertex 126.04 109.891 31
    endloop
  endfacet
  facet normal 0.156649 0.987654 0
    outer loop
      vertex 125.523 109.973 31
      vertex 126.04 109.891 28
      vertex 125.523 109.973 28
    endloop
  endfacet
  facet normal 0.260042 0.965597 -0
    outer loop
      vertex 126.545 109.755 28
      vertex 126.04 109.891 31
      vertex 126.545 109.755 31
    endloop
  endfacet
  facet normal 0.260042 0.965597 0
    outer loop
      vertex 126.04 109.891 31
      vertex 126.545 109.755 28
      vertex 126.04 109.891 28
    endloop
  endfacet
  facet normal 0.838749 0.544518 0
    outer loop
      vertex 129.33 107.5 31
      vertex 129.045 107.939 28
      vertex 129.045 107.939 31
    endloop
  endfacet
  facet normal 0.838749 0.544518 0
    outer loop
      vertex 129.045 107.939 28
      vertex 129.33 107.5 31
      vertex 129.33 107.5 28
    endloop
  endfacet
  facet normal -0.259793 0.965664 0
    outer loop
      vertex -6.03956 109.891 28
      vertex -6.54508 109.755 31
      vertex -6.03956 109.891 31
    endloop
  endfacet
  facet normal -0.259793 0.965664 0
    outer loop
      vertex -6.54508 109.755 31
      vertex -6.03956 109.891 28
      vertex -6.54508 109.755 28
    endloop
  endfacet
  facet normal -0.777142 -0.629326 0
    outer loop
      vertex -8.71572 -8.34565 28
      vertex -9.04508 -7.93893 31
      vertex -9.04508 -7.93893 28
    endloop
  endfacet
  facet normal -0.777142 -0.629326 0
    outer loop
      vertex -9.04508 -7.93893 31
      vertex -8.71572 -8.34565 28
      vertex -8.71572 -8.34565 31
    endloop
  endfacet
  facet normal -0.891008 -0.453988 0
    outer loop
      vertex -9.33013 -7.5 28
      vertex -9.56773 -7.03368 31
      vertex -9.56773 -7.03368 28
    endloop
  endfacet
  facet normal -0.891008 -0.453988 0
    outer loop
      vertex -9.56773 -7.03368 31
      vertex -9.33013 -7.5 28
      vertex -9.33013 -7.5 31
    endloop
  endfacet
  facet normal -0.838666 -0.544646 0
    outer loop
      vertex -9.04508 -7.93893 28
      vertex -9.33013 -7.5 31
      vertex -9.33013 -7.5 28
    endloop
  endfacet
  facet normal -0.838666 -0.544646 0
    outer loop
      vertex -9.33013 -7.5 31
      vertex -9.04508 -7.93893 28
      vertex -9.04508 -7.93893 31
    endloop
  endfacet
  facet normal -0.998631 0.0522993 0
    outer loop
      vertex -10 105 28
      vertex -9.97261 105.523 31
      vertex -9.97261 105.523 28
    endloop
  endfacet
  facet normal -0.998631 0.0522993 0
    outer loop
      vertex -9.97261 105.523 31
      vertex -10 105 28
      vertex -10 105 31
    endloop
  endfacet
  facet normal -0.965856 0.259079 0
    outer loop
      vertex -9.89074 106.04 28
      vertex -9.75528 106.545 31
      vertex -9.75528 106.545 28
    endloop
  endfacet
  facet normal -0.965856 0.259079 0
    outer loop
      vertex -9.75528 106.545 31
      vertex -9.89074 106.04 28
      vertex -9.89074 106.04 31
    endloop
  endfacet
  facet normal -0.777353 0.629064 0
    outer loop
      vertex -9.04508 107.939 28
      vertex -8.71572 108.346 31
      vertex -8.71572 108.346 28
    endloop
  endfacet
  facet normal -0.777353 0.629064 0
    outer loop
      vertex -8.71572 108.346 31
      vertex -9.04508 107.939 28
      vertex -9.04508 107.939 31
    endloop
  endfacet
  facet normal -0.70704 0.707174 0
    outer loop
      vertex -8.71572 108.346 28
      vertex -8.34565 108.716 31
      vertex -8.34565 108.716 28
    endloop
  endfacet
  facet normal -0.70704 0.707174 0
    outer loop
      vertex -8.34565 108.716 31
      vertex -8.71572 108.346 28
      vertex -8.71572 108.346 31
    endloop
  endfacet
  facet normal -0.62891 0.777478 0
    outer loop
      vertex -7.93893 109.045 28
      vertex -8.34565 108.716 31
      vertex -7.93893 109.045 31
    endloop
  endfacet
  facet normal -0.62891 0.777478 0
    outer loop
      vertex -8.34565 108.716 31
      vertex -7.93893 109.045 28
      vertex -8.34565 108.716 28
    endloop
  endfacet
  facet normal -0.544579 0.838709 0
    outer loop
      vertex -7.5 109.33 28
      vertex -7.93893 109.045 31
      vertex -7.5 109.33 31
    endloop
  endfacet
  facet normal -0.544579 0.838709 0
    outer loop
      vertex -7.93893 109.045 31
      vertex -7.5 109.33 28
      vertex -7.93893 109.045 28
    endloop
  endfacet
  facet normal -0.0523352 -0.99863 0
    outer loop
      vertex -5.52264 -9.97261 28
      vertex -5 -10 31
      vertex -5.52264 -9.97261 31
    endloop
  endfacet
  facet normal -0.0523352 -0.99863 -0
    outer loop
      vertex -5 -10 31
      vertex -5.52264 -9.97261 28
      vertex -5 -10 28
    endloop
  endfacet
  facet normal -0.358358 -0.933584 0
    outer loop
      vertex -7.03368 -9.56773 28
      vertex -6.54508 -9.75528 31
      vertex -7.03368 -9.56773 31
    endloop
  endfacet
  facet normal -0.358358 -0.933584 -0
    outer loop
      vertex -6.54508 -9.75528 31
      vertex -7.03368 -9.56773 28
      vertex -6.54508 -9.75528 28
    endloop
  endfacet
  facet normal -0.544646 -0.838666 0
    outer loop
      vertex -7.93893 -9.04508 28
      vertex -7.5 -9.33013 31
      vertex -7.93893 -9.04508 31
    endloop
  endfacet
  facet normal -0.544646 -0.838666 -0
    outer loop
      vertex -7.5 -9.33013 31
      vertex -7.93893 -9.04508 28
      vertex -7.5 -9.33013 28
    endloop
  endfacet
  facet normal 0.628648 0.77769 -0
    outer loop
      vertex 128.346 108.716 28
      vertex 127.939 109.045 31
      vertex 128.346 108.716 31
    endloop
  endfacet
  facet normal 0.628648 0.77769 0
    outer loop
      vertex 127.939 109.045 31
      vertex 128.346 108.716 28
      vertex 127.939 109.045 28
    endloop
  endfacet
  facet normal 0.454842 0.890572 -0
    outer loop
      vertex 127.5 109.33 28
      vertex 127.034 109.568 31
      vertex 127.5 109.33 31
    endloop
  endfacet
  facet normal 0.454842 0.890572 0
    outer loop
      vertex 127.034 109.568 31
      vertex 127.5 109.33 28
      vertex 127.034 109.568 28
    endloop
  endfacet
  facet normal 0.544518 0.838749 -0
    outer loop
      vertex 127.939 109.045 28
      vertex 127.5 109.33 31
      vertex 127.939 109.045 31
    endloop
  endfacet
  facet normal 0.544518 0.838749 0
    outer loop
      vertex 127.5 109.33 31
      vertex 127.939 109.045 28
      vertex 127.5 109.33 28
    endloop
  endfacet
  facet normal 0.259079 -0.965856 0
    outer loop
      vertex 126.04 -9.89074 28
      vertex 126.545 -9.75528 31
      vertex 126.04 -9.89074 31
    endloop
  endfacet
  facet normal 0.259079 -0.965856 0
    outer loop
      vertex 126.545 -9.75528 31
      vertex 126.04 -9.89074 28
      vertex 126.545 -9.75528 28
    endloop
  endfacet
  facet normal 0.987654 0.156649 0
    outer loop
      vertex 129.973 105.523 31
      vertex 129.891 106.04 28
      vertex 129.891 106.04 31
    endloop
  endfacet
  facet normal 0.987654 0.156649 0
    outer loop
      vertex 129.891 106.04 28
      vertex 129.973 105.523 31
      vertex 129.973 105.523 28
    endloop
  endfacet
  facet normal 0.99867 0.0515566 0
    outer loop
      vertex 130 105 31
      vertex 129.973 105.523 28
      vertex 129.973 105.523 31
    endloop
  endfacet
  facet normal 0.99867 0.0515566 0
    outer loop
      vertex 129.973 105.523 28
      vertex 130 105 31
      vertex 130 105 28
    endloop
  endfacet
  facet normal 0.890572 0.454842 0
    outer loop
      vertex 129.568 107.034 31
      vertex 129.33 107.5 28
      vertex 129.33 107.5 31
    endloop
  endfacet
  facet normal 0.890572 0.454842 0
    outer loop
      vertex 129.33 107.5 28
      vertex 129.568 107.034 31
      vertex 129.568 107.034 28
    endloop
  endfacet
  facet normal 0.77769 0.628648 0
    outer loop
      vertex 129.045 107.939 31
      vertex 128.716 108.346 28
      vertex 128.716 108.346 31
    endloop
  endfacet
  facet normal 0.77769 0.628648 0
    outer loop
      vertex 128.716 108.346 28
      vertex 129.045 107.939 31
      vertex 129.045 107.939 28
    endloop
  endfacet
  facet normal -0.987689 -0.156431 0
    outer loop
      vertex -9.89074 -6.03956 28
      vertex -9.97261 -5.52264 31
      vertex -9.97261 -5.52264 28
    endloop
  endfacet
  facet normal -0.987689 -0.156431 0
    outer loop
      vertex -9.97261 -5.52264 31
      vertex -9.89074 -6.03956 28
      vertex -9.89074 -6.03956 31
    endloop
  endfacet
  facet normal -0.933584 -0.358358 0
    outer loop
      vertex -9.56773 -7.03368 28
      vertex -9.75528 -6.54508 31
      vertex -9.75528 -6.54508 28
    endloop
  endfacet
  facet normal -0.933584 -0.358358 0
    outer loop
      vertex -9.75528 -6.54508 31
      vertex -9.56773 -7.03368 28
      vertex -9.56773 -7.03368 31
    endloop
  endfacet
  facet normal -0.965923 -0.25883 0
    outer loop
      vertex -9.75528 -6.54508 28
      vertex -9.89074 -6.03956 31
      vertex -9.89074 -6.03956 28
    endloop
  endfacet
  facet normal -0.965923 -0.25883 0
    outer loop
      vertex -9.89074 -6.03956 31
      vertex -9.75528 -6.54508 28
      vertex -9.75528 -6.54508 31
    endloop
  endfacet
  facet normal -0.987693 0.156407 0
    outer loop
      vertex -9.97261 105.523 28
      vertex -9.89074 106.04 31
      vertex -9.89074 106.04 28
    endloop
  endfacet
  facet normal -0.987693 0.156407 0
    outer loop
      vertex -9.89074 106.04 31
      vertex -9.97261 105.523 28
      vertex -9.97261 105.523 31
    endloop
  endfacet
  facet normal -0.838705 0.544585 0
    outer loop
      vertex -9.33013 107.5 28
      vertex -9.04508 107.939 31
      vertex -9.04508 107.939 28
    endloop
  endfacet
  facet normal -0.838705 0.544585 0
    outer loop
      vertex -9.04508 107.939 31
      vertex -9.33013 107.5 28
      vertex -9.33013 107.5 31
    endloop
  endfacet
  facet normal -0.454594 0.890699 0
    outer loop
      vertex -7.03368 109.568 28
      vertex -7.5 109.33 31
      vertex -7.03368 109.568 31
    endloop
  endfacet
  facet normal -0.454594 0.890699 0
    outer loop
      vertex -7.5 109.33 31
      vertex -7.03368 109.568 28
      vertex -7.5 109.33 28
    endloop
  endfacet
  facet normal -0.357442 0.933936 0
    outer loop
      vertex -6.54508 109.755 28
      vertex -7.03368 109.568 31
      vertex -6.54508 109.755 31
    endloop
  endfacet
  facet normal -0.357442 0.933936 0
    outer loop
      vertex -7.03368 109.568 31
      vertex -6.54508 109.755 28
      vertex -7.03368 109.568 28
    endloop
  endfacet
  facet normal -0.156673 0.987651 0
    outer loop
      vertex -5.52264 109.973 28
      vertex -6.03956 109.891 31
      vertex -5.52264 109.973 31
    endloop
  endfacet
  facet normal -0.156673 0.987651 0
    outer loop
      vertex -6.03956 109.891 31
      vertex -5.52264 109.973 28
      vertex -6.03956 109.891 28
    endloop
  endfacet
  facet normal -0.051592 0.998668 0
    outer loop
      vertex -5 110 28
      vertex -5.52264 109.973 31
      vertex -5 110 31
    endloop
  endfacet
  facet normal -0.051592 0.998668 0
    outer loop
      vertex -5.52264 109.973 31
      vertex -5 110 28
      vertex -5.52264 109.973 28
    endloop
  endfacet
  facet normal 0.358102 -0.933682 0
    outer loop
      vertex 126.545 -9.75528 28
      vertex 127.034 -9.56773 31
      vertex 126.545 -9.75528 31
    endloop
  endfacet
  facet normal 0.358102 -0.933682 0
    outer loop
      vertex 127.034 -9.56773 31
      vertex 126.545 -9.75528 28
      vertex 127.034 -9.56773 28
    endloop
  endfacet
  facet normal 0.156407 -0.987693 0
    outer loop
      vertex 125.523 -9.97261 28
      vertex 126.04 -9.89074 31
      vertex 125.523 -9.97261 31
    endloop
  endfacet
  facet normal 0.156407 -0.987693 0
    outer loop
      vertex 126.04 -9.89074 31
      vertex 125.523 -9.97261 28
      vertex 126.04 -9.89074 28
    endloop
  endfacet
  facet normal 0.838709 -0.544579 0
    outer loop
      vertex 129.045 -7.93893 31
      vertex 129.33 -7.5 28
      vertex 129.33 -7.5 31
    endloop
  endfacet
  facet normal 0.838709 -0.544579 0
    outer loop
      vertex 129.33 -7.5 28
      vertex 129.045 -7.93893 31
      vertex 129.045 -7.93893 28
    endloop
  endfacet
  facet normal 0.998668 -0.051592 0
    outer loop
      vertex 129.973 -5.52264 31
      vertex 130 -5 28
      vertex 130 -5 31
    endloop
  endfacet
  facet normal 0.998668 -0.051592 0
    outer loop
      vertex 130 -5 28
      vertex 129.973 -5.52264 31
      vertex 129.973 -5.52264 28
    endloop
  endfacet
  facet normal 0.454235 -0.890882 0
    outer loop
      vertex 127.034 -9.56773 28
      vertex 127.5 -9.33013 31
      vertex 127.034 -9.56773 31
    endloop
  endfacet
  facet normal 0.454235 -0.890882 0
    outer loop
      vertex 127.5 -9.33013 31
      vertex 127.034 -9.56773 28
      vertex 127.5 -9.33013 28
    endloop
  endfacet
  facet normal 0.629064 -0.777353 0
    outer loop
      vertex 127.939 -9.04508 28
      vertex 128.346 -8.71572 31
      vertex 127.939 -9.04508 31
    endloop
  endfacet
  facet normal 0.629064 -0.777353 0
    outer loop
      vertex 128.346 -8.71572 31
      vertex 127.939 -9.04508 28
      vertex 128.346 -8.71572 28
    endloop
  endfacet
  facet normal 0.544585 -0.838705 0
    outer loop
      vertex 127.5 -9.33013 28
      vertex 127.939 -9.04508 31
      vertex 127.5 -9.33013 31
    endloop
  endfacet
  facet normal 0.544585 -0.838705 0
    outer loop
      vertex 127.939 -9.04508 31
      vertex 127.5 -9.33013 28
      vertex 127.939 -9.04508 28
    endloop
  endfacet
  facet normal 0.777478 -0.62891 0
    outer loop
      vertex 128.716 -8.34565 31
      vertex 129.045 -7.93893 28
      vertex 129.045 -7.93893 31
    endloop
  endfacet
  facet normal 0.777478 -0.62891 0
    outer loop
      vertex 129.045 -7.93893 28
      vertex 128.716 -8.34565 31
      vertex 128.716 -8.34565 28
    endloop
  endfacet
  facet normal 0.707174 -0.70704 0
    outer loop
      vertex 128.346 -8.71572 31
      vertex 128.716 -8.34565 28
      vertex 128.716 -8.34565 31
    endloop
  endfacet
  facet normal 0.707174 -0.70704 0
    outer loop
      vertex 128.716 -8.34565 28
      vertex 128.346 -8.71572 31
      vertex 128.346 -8.71572 28
    endloop
  endfacet
  facet normal 0.890699 -0.454594 0
    outer loop
      vertex 129.33 -7.5 31
      vertex 129.568 -7.03368 28
      vertex 129.568 -7.03368 31
    endloop
  endfacet
  facet normal 0.890699 -0.454594 0
    outer loop
      vertex 129.568 -7.03368 28
      vertex 129.33 -7.5 31
      vertex 129.33 -7.5 28
    endloop
  endfacet
  facet normal 0.987651 -0.156673 0
    outer loop
      vertex 129.891 -6.03956 31
      vertex 129.973 -5.52264 28
      vertex 129.973 -5.52264 31
    endloop
  endfacet
  facet normal 0.987651 -0.156673 0
    outer loop
      vertex 129.973 -5.52264 28
      vertex 129.891 -6.03956 31
      vertex 129.891 -6.03956 28
    endloop
  endfacet
  facet normal 0.965664 -0.259793 0
    outer loop
      vertex 129.755 -6.54508 31
      vertex 129.891 -6.03956 28
      vertex 129.891 -6.03956 31
    endloop
  endfacet
  facet normal 0.965664 -0.259793 0
    outer loop
      vertex 129.891 -6.03956 28
      vertex 129.755 -6.54508 31
      vertex 129.755 -6.54508 28
    endloop
  endfacet
  facet normal 0.933936 -0.357442 0
    outer loop
      vertex 129.568 -7.03368 31
      vertex 129.755 -6.54508 28
      vertex 129.755 -6.54508 31
    endloop
  endfacet
  facet normal 0.933936 -0.357442 0
    outer loop
      vertex 129.755 -6.54508 28
      vertex 129.568 -7.03368 31
      vertex 129.568 -7.03368 28
    endloop
  endfacet
endsolid OpenSCAD_Model
