solid OpenSCAD_Model
  facet normal 0 0 -1
    outer loop
      vertex -3.5 100.5 4
      vertex -0.4 103.5 4
      vertex -0.4 100.5 4
    endloop
  endfacet
  facet normal -0 0 -1
    outer loop
      vertex -0.4 103.5 4
      vertex -3.5 100.5 4
      vertex -3.5 103.5 4
    endloop
  endfacet
  facet normal -1 0 0
    outer loop
      vertex -0.4 100.5 -2
      vertex -0.4 103.5 4
      vertex -0.4 103.5 -2
    endloop
  endfacet
  facet normal -1 -0 0
    outer loop
      vertex -0.4 103.5 4
      vertex -0.4 100.5 -2
      vertex -0.4 100.5 4
    endloop
  endfacet
  facet normal -0 0 1
    outer loop
      vertex -3.5 103.5 -2
      vertex -0.4 100.5 -2
      vertex -0.4 103.5 -2
    endloop
  endfacet
  facet normal 0 0 1
    outer loop
      vertex -0.4 100.5 -2
      vertex -3.5 103.5 -2
      vertex -3.5 100.5 -2
    endloop
  endfacet
  facet normal 1 -0 0
    outer loop
      vertex 120.4 100.5 4
      vertex 120.4 103.5 -2
      vertex 120.4 103.5 4
    endloop
  endfacet
  facet normal 1 0 0
    outer loop
      vertex 120.4 103.5 -2
      vertex 120.4 100.5 4
      vertex 120.4 100.5 -2
    endloop
  endfacet
  facet normal 0 0 -1
    outer loop
      vertex 120.4 100.5 4
      vertex 123.5 103.5 4
      vertex 123.5 100.5 4
    endloop
  endfacet
  facet normal -0 0 -1
    outer loop
      vertex 123.5 103.5 4
      vertex 120.4 100.5 4
      vertex 120.4 103.5 4
    endloop
  endfacet
  facet normal -0 0 1
    outer loop
      vertex 120.4 103.5 -2
      vertex 123.5 100.5 -2
      vertex 123.5 103.5 -2
    endloop
  endfacet
  facet normal 0 0 1
    outer loop
      vertex 123.5 100.5 -2
      vertex 120.4 103.5 -2
      vertex 120.4 100.5 -2
    endloop
  endfacet
  facet normal 0 0 -1
    outer loop
      vertex -3.5 100.5 16
      vertex -0.4 103.5 16
      vertex -0.4 100.5 16
    endloop
  endfacet
  facet normal -0 0 -1
    outer loop
      vertex -0.4 103.5 16
      vertex -3.5 100.5 16
      vertex -3.5 103.5 16
    endloop
  endfacet
  facet normal -1 0 0
    outer loop
      vertex -0.4 100.5 10
      vertex -0.4 103.5 16
      vertex -0.4 103.5 10
    endloop
  endfacet
  facet normal -1 -0 0
    outer loop
      vertex -0.4 103.5 16
      vertex -0.4 100.5 10
      vertex -0.4 100.5 16
    endloop
  endfacet
  facet normal -0 0 1
    outer loop
      vertex -3.5 103.5 10
      vertex -0.4 100.5 10
      vertex -0.4 103.5 10
    endloop
  endfacet
  facet normal 0 0 1
    outer loop
      vertex -0.4 100.5 10
      vertex -3.5 103.5 10
      vertex -3.5 100.5 10
    endloop
  endfacet
  facet normal 1 -0 0
    outer loop
      vertex 120.4 100.5 16
      vertex 120.4 103.5 10
      vertex 120.4 103.5 16
    endloop
  endfacet
  facet normal 1 0 0
    outer loop
      vertex 120.4 103.5 10
      vertex 120.4 100.5 16
      vertex 120.4 100.5 10
    endloop
  endfacet
  facet normal 0 0 -1
    outer loop
      vertex 120.4 100.5 16
      vertex 123.5 103.5 16
      vertex 123.5 100.5 16
    endloop
  endfacet
  facet normal -0 0 -1
    outer loop
      vertex 123.5 103.5 16
      vertex 120.4 100.5 16
      vertex 120.4 103.5 16
    endloop
  endfacet
  facet normal -0 0 1
    outer loop
      vertex 120.4 103.5 10
      vertex 123.5 100.5 10
      vertex 123.5 103.5 10
    endloop
  endfacet
  facet normal 0 0 1
    outer loop
      vertex 123.5 100.5 10
      vertex 120.4 103.5 10
      vertex 120.4 100.5 10
    endloop
  endfacet
  facet normal -0 0 1
    outer loop
      vertex 91.4293 103.5 28
      vertex 100.409 100.5 28
      vertex 100.409 103.5 28
    endloop
  endfacet
  facet normal 0 0 1
    outer loop
      vertex 100.409 100.5 28
      vertex 91.4293 103.5 28
      vertex 91.4293 100.5 28
    endloop
  endfacet
  facet normal -0 0 1
    outer loop
      vertex 114.52 103.5 28
      vertex 120.4 100.5 28
      vertex 120.4 103.5 28
    endloop
  endfacet
  facet normal 0 0 1
    outer loop
      vertex 120.4 100.5 28
      vertex 114.52 103.5 28
      vertex 114.52 100.5 28
    endloop
  endfacet
  facet normal -0 0 1
    outer loop
      vertex 68.3384 103.5 28
      vertex 77.3182 100.5 28
      vertex 77.3182 103.5 28
    endloop
  endfacet
  facet normal 0 0 1
    outer loop
      vertex 77.3182 100.5 28
      vertex 68.3384 103.5 28
      vertex 68.3384 100.5 28
    endloop
  endfacet
  facet normal -0 0 1
    outer loop
      vertex 45.2475 103.5 28
      vertex 54.2273 100.5 28
      vertex 54.2273 103.5 28
    endloop
  endfacet
  facet normal 0 0 1
    outer loop
      vertex 54.2273 100.5 28
      vertex 45.2475 103.5 28
      vertex 45.2475 100.5 28
    endloop
  endfacet
  facet normal -0 0 1
    outer loop
      vertex 22.1566 103.5 28
      vertex 31.1364 100.5 28
      vertex 31.1364 103.5 28
    endloop
  endfacet
  facet normal 0 0 1
    outer loop
      vertex 31.1364 100.5 28
      vertex 22.1566 103.5 28
      vertex 22.1566 100.5 28
    endloop
  endfacet
  facet normal -0 0 1
    outer loop
      vertex -0.4 103.5 28
      vertex 8.04545 100.5 28
      vertex 8.04545 103.5 28
    endloop
  endfacet
  facet normal 0 0 1
    outer loop
      vertex 8.04545 100.5 28
      vertex -0.4 103.5 28
      vertex -0.4 100.5 28
    endloop
  endfacet
  facet normal -1 0 0
    outer loop
      vertex -0.4 100.5 22
      vertex -0.4 103.5 28
      vertex -0.4 103.5 22
    endloop
  endfacet
  facet normal -1 -0 0
    outer loop
      vertex -0.4 103.5 28
      vertex -0.4 100.5 22
      vertex -0.4 100.5 28
    endloop
  endfacet
  facet normal -0 0 1
    outer loop
      vertex -3.5 103.5 22
      vertex -0.4 100.5 22
      vertex -0.4 103.5 22
    endloop
  endfacet
  facet normal 0 0 1
    outer loop
      vertex -0.4 100.5 22
      vertex -3.5 103.5 22
      vertex -3.5 100.5 22
    endloop
  endfacet
  facet normal 1 -0 0
    outer loop
      vertex 120.4 100.5 28
      vertex 120.4 103.5 22
      vertex 120.4 103.5 28
    endloop
  endfacet
  facet normal 1 0 0
    outer loop
      vertex 120.4 103.5 22
      vertex 120.4 100.5 28
      vertex 120.4 100.5 22
    endloop
  endfacet
  facet normal -0 0 1
    outer loop
      vertex 120.4 103.5 22
      vertex 123.5 100.5 22
      vertex 123.5 103.5 22
    endloop
  endfacet
  facet normal 0 0 1
    outer loop
      vertex 123.5 100.5 22
      vertex 120.4 103.5 22
      vertex 120.4 100.5 22
    endloop
  endfacet
  facet normal -0 0 1
    outer loop
      vertex 66.29 103.5 2
      vertex 119.33 100.5 2
      vertex 119.33 103.5 2
    endloop
  endfacet
  facet normal 0 0 1
    outer loop
      vertex 119.33 100.5 2
      vertex 66.29 103.5 2
      vertex 66.29 100.5 2
    endloop
  endfacet
  facet normal -1 0 0
    outer loop
      vertex 119.33 100.5 2
      vertex 119.33 103.5 14.5
      vertex 119.33 103.5 2
    endloop
  endfacet
  facet normal -1 -0 0
    outer loop
      vertex 119.33 103.5 14.5
      vertex 119.33 100.5 2
      vertex 119.33 100.5 14.5
    endloop
  endfacet
  facet normal 0 0 -1
    outer loop
      vertex 66.29 100.5 14.5
      vertex 119.33 103.5 14.5
      vertex 119.33 100.5 14.5
    endloop
  endfacet
  facet normal -0 0 -1
    outer loop
      vertex 119.33 103.5 14.5
      vertex 66.29 100.5 14.5
      vertex 66.29 103.5 14.5
    endloop
  endfacet
  facet normal 1 -0 0
    outer loop
      vertex 66.29 100.5 14.5
      vertex 66.29 103.5 2
      vertex 66.29 103.5 14.5
    endloop
  endfacet
  facet normal 1 0 0
    outer loop
      vertex 66.29 103.5 2
      vertex 66.29 100.5 14.5
      vertex 66.29 100.5 2
    endloop
  endfacet
  facet normal -1 0 0
    outer loop
      vertex -3.5 100.5 -8
      vertex -3.5 103.5 -2
      vertex -3.5 103.5 -8
    endloop
  endfacet
  facet normal -1 -0 0
    outer loop
      vertex -3.5 103.5 -2
      vertex -3.5 100.5 -8
      vertex -3.5 100.5 -2
    endloop
  endfacet
  facet normal -1 0 0
    outer loop
      vertex -3.5 100.5 4
      vertex -3.5 103.5 10
      vertex -3.5 103.5 4
    endloop
  endfacet
  facet normal -1 -0 0
    outer loop
      vertex -3.5 103.5 10
      vertex -3.5 100.5 4
      vertex -3.5 100.5 10
    endloop
  endfacet
  facet normal -1 0 0
    outer loop
      vertex -3.5 100.5 16
      vertex -3.5 103.5 22
      vertex -3.5 103.5 16
    endloop
  endfacet
  facet normal -1 -0 0
    outer loop
      vertex -3.5 103.5 22
      vertex -3.5 100.5 16
      vertex -3.5 100.5 22
    endloop
  endfacet
  facet normal 1 -0 0
    outer loop
      vertex 123.5 100.5 -2
      vertex 123.5 103.5 -8
      vertex 123.5 103.5 -2
    endloop
  endfacet
  facet normal 1 0 0
    outer loop
      vertex 123.5 103.5 -8
      vertex 123.5 100.5 -2
      vertex 123.5 100.5 -8
    endloop
  endfacet
  facet normal 1 -0 0
    outer loop
      vertex 123.5 100.5 10
      vertex 123.5 103.5 4
      vertex 123.5 103.5 10
    endloop
  endfacet
  facet normal 1 0 0
    outer loop
      vertex 123.5 103.5 4
      vertex 123.5 100.5 10
      vertex 123.5 100.5 4
    endloop
  endfacet
  facet normal 1 -0 0
    outer loop
      vertex 123.5 100.5 22
      vertex 123.5 103.5 16
      vertex 123.5 103.5 22
    endloop
  endfacet
  facet normal 1 0 0
    outer loop
      vertex 123.5 103.5 16
      vertex 123.5 100.5 22
      vertex 123.5 100.5 16
    endloop
  endfacet
  facet normal 0 1 0
    outer loop
      vertex 123.5 103.5 10
      vertex 123.5 103.5 4
      vertex 120.4 103.5 10
    endloop
  endfacet
  facet normal 0 1 0
    outer loop
      vertex 45.2475 103.5 28
      vertex -0.4 103.5 16
      vertex -0.4 103.5 22
    endloop
  endfacet
  facet normal 0 1 -0
    outer loop
      vertex 120.4 103.5 10
      vertex 119.33 103.5 14.5
      vertex 120.4 103.5 16
    endloop
  endfacet
  facet normal 0 1 0
    outer loop
      vertex 120.4 103.5 4
      vertex 120.4 103.5 10
      vertex 123.5 103.5 4
    endloop
  endfacet
  facet normal 0 1 0
    outer loop
      vertex 119.33 103.5 2
      vertex 120.4 103.5 10
      vertex 120.4 103.5 4
    endloop
  endfacet
  facet normal 0 1 0
    outer loop
      vertex 120.4 103.5 10
      vertex 119.33 103.5 2
      vertex 119.33 103.5 14.5
    endloop
  endfacet
  facet normal 0 1 0
    outer loop
      vertex 114.52 103.5 -8
      vertex 119.33 103.5 2
      vertex 120.4 103.5 -2
    endloop
  endfacet
  facet normal 0 1 -0
    outer loop
      vertex 120.4 103.5 -2
      vertex 119.33 103.5 2
      vertex 120.4 103.5 4
    endloop
  endfacet
  facet normal 0 1 0
    outer loop
      vertex 120.4 103.5 16
      vertex 120.4 103.5 22
      vertex 123.5 103.5 22
    endloop
  endfacet
  facet normal 0 1 0
    outer loop
      vertex 119.33 103.5 14.5
      vertex 120.4 103.5 22
      vertex 120.4 103.5 16
    endloop
  endfacet
  facet normal 0 1 0
    outer loop
      vertex 120.4 103.5 16
      vertex 123.5 103.5 22
      vertex 123.5 103.5 16
    endloop
  endfacet
  facet normal 0 1 0
    outer loop
      vertex 54.2273 103.5 28
      vertex -0.4 103.5 16
      vertex 45.2475 103.5 28
    endloop
  endfacet
  facet normal 0 1 0
    outer loop
      vertex -0.4 103.5 22
      vertex -0.4 103.5 16
      vertex -3.5 103.5 22
    endloop
  endfacet
  facet normal 0 1 0
    outer loop
      vertex -3.5 103.5 22
      vertex -0.4 103.5 16
      vertex -3.5 103.5 16
    endloop
  endfacet
  facet normal 0 1 -0
    outer loop
      vertex 120.4 103.5 22
      vertex 114.52 103.5 28
      vertex 120.4 103.5 28
    endloop
  endfacet
  facet normal 0 1 -0
    outer loop
      vertex 119.33 103.5 14.5
      vertex 114.52 103.5 28
      vertex 120.4 103.5 22
    endloop
  endfacet
  facet normal 0 1 0
    outer loop
      vertex 114.52 103.5 28
      vertex 119.33 103.5 14.5
      vertex 100.409 103.5 28
    endloop
  endfacet
  facet normal 0 1 0
    outer loop
      vertex 100.409 103.5 28
      vertex 119.33 103.5 14.5
      vertex 91.4293 103.5 28
    endloop
  endfacet
  facet normal 0 1 0
    outer loop
      vertex 66.29 103.5 14.5
      vertex 91.4293 103.5 28
      vertex 119.33 103.5 14.5
    endloop
  endfacet
  facet normal 0 1 0
    outer loop
      vertex 91.4293 103.5 28
      vertex 66.29 103.5 14.5
      vertex 77.3182 103.5 28
    endloop
  endfacet
  facet normal 0 1 0
    outer loop
      vertex 77.3182 103.5 28
      vertex 66.29 103.5 14.5
      vertex 68.3384 103.5 28
    endloop
  endfacet
  facet normal 0 1 0
    outer loop
      vertex 68.3384 103.5 28
      vertex 66.29 103.5 14.5
      vertex 54.2273 103.5 28
    endloop
  endfacet
  facet normal 0 1 0
    outer loop
      vertex 45.2475 103.5 28
      vertex -0.4 103.5 22
      vertex 31.1364 103.5 28
    endloop
  endfacet
  facet normal 0 1 0
    outer loop
      vertex 31.1364 103.5 28
      vertex -0.4 103.5 22
      vertex 22.1566 103.5 28
    endloop
  endfacet
  facet normal 0 1 0
    outer loop
      vertex 22.1566 103.5 28
      vertex -0.4 103.5 22
      vertex 8.04545 103.5 28
    endloop
  endfacet
  facet normal 0 1 0
    outer loop
      vertex 8.04545 103.5 28
      vertex -0.4 103.5 22
      vertex -0.4 103.5 28
    endloop
  endfacet
  facet normal 0 1 -0
    outer loop
      vertex 114.52 103.5 28
      vertex 100.409 103.5 31
      vertex 114.52 103.5 31
    endloop
  endfacet
  facet normal 0 1 0
    outer loop
      vertex 100.409 103.5 31
      vertex 114.52 103.5 28
      vertex 100.409 103.5 28
    endloop
  endfacet
  facet normal 0 1 -0
    outer loop
      vertex 91.4293 103.5 28
      vertex 77.3182 103.5 31
      vertex 91.4293 103.5 31
    endloop
  endfacet
  facet normal 0 1 0
    outer loop
      vertex 77.3182 103.5 31
      vertex 91.4293 103.5 28
      vertex 77.3182 103.5 28
    endloop
  endfacet
  facet normal 0 1 -0
    outer loop
      vertex 68.3384 103.5 28
      vertex 54.2273 103.5 31
      vertex 68.3384 103.5 31
    endloop
  endfacet
  facet normal 0 1 0
    outer loop
      vertex 54.2273 103.5 31
      vertex 68.3384 103.5 28
      vertex 54.2273 103.5 28
    endloop
  endfacet
  facet normal 0 1 -0
    outer loop
      vertex 45.2475 103.5 28
      vertex 31.1364 103.5 31
      vertex 45.2475 103.5 31
    endloop
  endfacet
  facet normal 0 1 0
    outer loop
      vertex 31.1364 103.5 31
      vertex 45.2475 103.5 28
      vertex 31.1364 103.5 28
    endloop
  endfacet
  facet normal 0 1 -0
    outer loop
      vertex 22.1566 103.5 28
      vertex 8.04545 103.5 31
      vertex 22.1566 103.5 31
    endloop
  endfacet
  facet normal 0 1 0
    outer loop
      vertex 8.04545 103.5 31
      vertex 22.1566 103.5 28
      vertex 8.04545 103.5 28
    endloop
  endfacet
  facet normal 0 1 0
    outer loop
      vertex 45.2475 103.5 -8
      vertex 54.2273 103.5 28
      vertex 66.29 103.5 14.5
    endloop
  endfacet
  facet normal 0 1 0
    outer loop
      vertex 54.2273 103.5 28
      vertex 31.1364 103.5 -8
      vertex -0.4 103.5 16
    endloop
  endfacet
  facet normal 0 1 0
    outer loop
      vertex -0.4 103.5 10
      vertex -0.4 103.5 4
      vertex -3.5 103.5 10
    endloop
  endfacet
  facet normal 0 1 -0
    outer loop
      vertex 22.1566 103.5 -8
      vertex -0.4 103.5 16
      vertex 31.1364 103.5 -8
    endloop
  endfacet
  facet normal 0 1 0
    outer loop
      vertex 54.2273 103.5 -8
      vertex 66.29 103.5 14.5
      vertex 66.29 103.5 2
    endloop
  endfacet
  facet normal 0 1 0
    outer loop
      vertex 91.4293 103.5 -8
      vertex 119.33 103.5 2
      vertex 100.409 103.5 -8
    endloop
  endfacet
  facet normal 0 1 0
    outer loop
      vertex 54.2273 103.5 -8
      vertex 66.29 103.5 2
      vertex 68.3384 103.5 -8
    endloop
  endfacet
  facet normal 0 1 -0
    outer loop
      vertex 22.1566 103.5 -11
      vertex 8.04545 103.5 -8
      vertex 22.1566 103.5 -8
    endloop
  endfacet
  facet normal 0 1 0
    outer loop
      vertex 8.04545 103.5 -8
      vertex 22.1566 103.5 -11
      vertex 8.04545 103.5 -11
    endloop
  endfacet
  facet normal 0 1 -0
    outer loop
      vertex 45.2475 103.5 -11
      vertex 31.1364 103.5 -8
      vertex 45.2475 103.5 -8
    endloop
  endfacet
  facet normal 0 1 0
    outer loop
      vertex 31.1364 103.5 -8
      vertex 45.2475 103.5 -11
      vertex 31.1364 103.5 -11
    endloop
  endfacet
  facet normal 0 1 -0
    outer loop
      vertex 68.3384 103.5 -11
      vertex 54.2273 103.5 -8
      vertex 68.3384 103.5 -8
    endloop
  endfacet
  facet normal 0 1 0
    outer loop
      vertex 54.2273 103.5 -8
      vertex 68.3384 103.5 -11
      vertex 54.2273 103.5 -11
    endloop
  endfacet
  facet normal 0 1 -0
    outer loop
      vertex 91.4293 103.5 -11
      vertex 77.3182 103.5 -8
      vertex 91.4293 103.5 -8
    endloop
  endfacet
  facet normal 0 1 0
    outer loop
      vertex 77.3182 103.5 -8
      vertex 91.4293 103.5 -11
      vertex 77.3182 103.5 -11
    endloop
  endfacet
  facet normal 0 1 -0
    outer loop
      vertex 114.52 103.5 -11
      vertex 100.409 103.5 -8
      vertex 114.52 103.5 -8
    endloop
  endfacet
  facet normal 0 1 0
    outer loop
      vertex 100.409 103.5 -8
      vertex 114.52 103.5 -11
      vertex 100.409 103.5 -11
    endloop
  endfacet
  facet normal 0 1 -0
    outer loop
      vertex 123.5 103.5 -8
      vertex 120.4 103.5 -2
      vertex 123.5 103.5 -2
    endloop
  endfacet
  facet normal 0 1 0
    outer loop
      vertex 66.29 103.5 14.5
      vertex 54.2273 103.5 -8
      vertex 45.2475 103.5 -8
    endloop
  endfacet
  facet normal 0 1 0
    outer loop
      vertex 120.4 103.5 -2
      vertex 123.5 103.5 -8
      vertex 114.52 103.5 -8
    endloop
  endfacet
  facet normal 0 1 0
    outer loop
      vertex 119.33 103.5 2
      vertex 114.52 103.5 -8
      vertex 100.409 103.5 -8
    endloop
  endfacet
  facet normal 0 1 0
    outer loop
      vertex 119.33 103.5 2
      vertex 91.4293 103.5 -8
      vertex 66.29 103.5 2
    endloop
  endfacet
  facet normal 0 1 0
    outer loop
      vertex 66.29 103.5 2
      vertex 91.4293 103.5 -8
      vertex 77.3182 103.5 -8
    endloop
  endfacet
  facet normal 0 1 0
    outer loop
      vertex 66.29 103.5 2
      vertex 77.3182 103.5 -8
      vertex 68.3384 103.5 -8
    endloop
  endfacet
  facet normal 0 1 0
    outer loop
      vertex 54.2273 103.5 28
      vertex 45.2475 103.5 -8
      vertex 31.1364 103.5 -8
    endloop
  endfacet
  facet normal 0 1 0
    outer loop
      vertex -0.4 103.5 16
      vertex 22.1566 103.5 -8
      vertex -0.4 103.5 10
    endloop
  endfacet
  facet normal 0 1 0
    outer loop
      vertex -0.4 103.5 10
      vertex 22.1566 103.5 -8
      vertex -0.4 103.5 4
    endloop
  endfacet
  facet normal 0 1 -0
    outer loop
      vertex 8.04545 103.5 -8
      vertex -0.4 103.5 4
      vertex 22.1566 103.5 -8
    endloop
  endfacet
  facet normal 0 1 0
    outer loop
      vertex -0.4 103.5 4
      vertex 8.04545 103.5 -8
      vertex -0.4 103.5 -2
    endloop
  endfacet
  facet normal 0 1 0
    outer loop
      vertex -3.5 103.5 -8
      vertex -0.4 103.5 -2
      vertex 8.04545 103.5 -8
    endloop
  endfacet
  facet normal 0 1 0
    outer loop
      vertex -0.4 103.5 -2
      vertex -3.5 103.5 -8
      vertex -3.5 103.5 -2
    endloop
  endfacet
  facet normal 0 1 0
    outer loop
      vertex -3.5 103.5 10
      vertex -0.4 103.5 4
      vertex -3.5 103.5 4
    endloop
  endfacet
  facet normal 0 0 -1
    outer loop
      vertex 114.52 100.5 -8
      vertex 123.5 103.5 -8
      vertex 123.5 100.5 -8
    endloop
  endfacet
  facet normal -0 0 -1
    outer loop
      vertex 123.5 103.5 -8
      vertex 114.52 100.5 -8
      vertex 114.52 103.5 -8
    endloop
  endfacet
  facet normal 0 0 -1
    outer loop
      vertex 91.4293 100.5 -8
      vertex 100.409 103.5 -8
      vertex 100.409 100.5 -8
    endloop
  endfacet
  facet normal -0 0 -1
    outer loop
      vertex 100.409 103.5 -8
      vertex 91.4293 100.5 -8
      vertex 91.4293 103.5 -8
    endloop
  endfacet
  facet normal 0 0 -1
    outer loop
      vertex 68.3384 100.5 -8
      vertex 77.3182 103.5 -8
      vertex 77.3182 100.5 -8
    endloop
  endfacet
  facet normal -0 0 -1
    outer loop
      vertex 77.3182 103.5 -8
      vertex 68.3384 100.5 -8
      vertex 68.3384 103.5 -8
    endloop
  endfacet
  facet normal 0 0 -1
    outer loop
      vertex 45.2475 100.5 -8
      vertex 54.2273 103.5 -8
      vertex 54.2273 100.5 -8
    endloop
  endfacet
  facet normal -0 0 -1
    outer loop
      vertex 54.2273 103.5 -8
      vertex 45.2475 100.5 -8
      vertex 45.2475 103.5 -8
    endloop
  endfacet
  facet normal 0 0 -1
    outer loop
      vertex 22.1566 100.5 -8
      vertex 31.1364 103.5 -8
      vertex 31.1364 100.5 -8
    endloop
  endfacet
  facet normal -0 0 -1
    outer loop
      vertex 31.1364 103.5 -8
      vertex 22.1566 100.5 -8
      vertex 22.1566 103.5 -8
    endloop
  endfacet
  facet normal 0 0 -1
    outer loop
      vertex -3.5 100.5 -8
      vertex 8.04545 103.5 -8
      vertex 8.04545 100.5 -8
    endloop
  endfacet
  facet normal -0 0 -1
    outer loop
      vertex 8.04545 103.5 -8
      vertex -3.5 100.5 -8
      vertex -3.5 103.5 -8
    endloop
  endfacet
  facet normal 0 -1 0
    outer loop
      vertex -3.5 100.5 10
      vertex -3.5 100.5 4
      vertex -0.4 100.5 10
    endloop
  endfacet
  facet normal 0 -1 0
    outer loop
      vertex 100.409 100.5 28
      vertex 120.4 100.5 16
      vertex 120.4 100.5 22
    endloop
  endfacet
  facet normal 0 -1 0
    outer loop
      vertex 31.1364 100.5 -8
      vertex -0.4 100.5 16
      vertex -0.4 100.5 10
    endloop
  endfacet
  facet normal 0 -1 0
    outer loop
      vertex -0.4 100.5 4
      vertex -0.4 100.5 10
      vertex -3.5 100.5 4
    endloop
  endfacet
  facet normal 0 -1 0
    outer loop
      vertex 31.1364 100.5 -8
      vertex -0.4 100.5 10
      vertex -0.4 100.5 4
    endloop
  endfacet
  facet normal 0 -1 0
    outer loop
      vertex -0.4 100.5 22
      vertex 31.1364 100.5 -8
      vertex 66.29 100.5 14.5
    endloop
  endfacet
  facet normal 0 -1 0
    outer loop
      vertex 45.2475 100.5 -8
      vertex 66.29 100.5 14.5
      vertex 31.1364 100.5 -8
    endloop
  endfacet
  facet normal 0 -1 0
    outer loop
      vertex 31.1364 100.5 -8
      vertex -0.4 100.5 4
      vertex -0.4 100.5 -2
    endloop
  endfacet
  facet normal 0 -1 0
    outer loop
      vertex -0.4 100.5 16
      vertex -0.4 100.5 22
      vertex -3.5 100.5 22
    endloop
  endfacet
  facet normal 0 -1 0
    outer loop
      vertex 31.1364 100.5 -8
      vertex -0.4 100.5 22
      vertex -0.4 100.5 16
    endloop
  endfacet
  facet normal 0 -1 0
    outer loop
      vertex -0.4 100.5 16
      vertex -3.5 100.5 22
      vertex -3.5 100.5 16
    endloop
  endfacet
  facet normal 0 -1 0
    outer loop
      vertex 91.4293 100.5 28
      vertex 120.4 100.5 16
      vertex 100.409 100.5 28
    endloop
  endfacet
  facet normal 0 -1 0
    outer loop
      vertex 120.4 100.5 22
      vertex 120.4 100.5 16
      vertex 123.5 100.5 22
    endloop
  endfacet
  facet normal 0 -1 -0
    outer loop
      vertex 123.5 100.5 22
      vertex 120.4 100.5 16
      vertex 123.5 100.5 16
    endloop
  endfacet
  facet normal 0 -1 0
    outer loop
      vertex -0.4 100.5 22
      vertex 8.04545 100.5 28
      vertex -0.4 100.5 28
    endloop
  endfacet
  facet normal 0 -1 -0
    outer loop
      vertex 8.04545 100.5 28
      vertex -0.4 100.5 22
      vertex 22.1566 100.5 28
    endloop
  endfacet
  facet normal 0 -1 -0
    outer loop
      vertex 22.1566 100.5 28
      vertex -0.4 100.5 22
      vertex 31.1364 100.5 28
    endloop
  endfacet
  facet normal 0 -1 0
    outer loop
      vertex 66.29 100.5 14.5
      vertex 31.1364 100.5 28
      vertex -0.4 100.5 22
    endloop
  endfacet
  facet normal 0 -1 0
    outer loop
      vertex 31.1364 100.5 28
      vertex 66.29 100.5 14.5
      vertex 45.2475 100.5 28
    endloop
  endfacet
  facet normal 0 -1 0
    outer loop
      vertex 45.2475 100.5 28
      vertex 66.29 100.5 14.5
      vertex 54.2273 100.5 28
    endloop
  endfacet
  facet normal 0 -1 0
    outer loop
      vertex 54.2273 100.5 28
      vertex 66.29 100.5 14.5
      vertex 68.3384 100.5 28
    endloop
  endfacet
  facet normal 0 -1 0
    outer loop
      vertex 66.29 100.5 14.5
      vertex 77.3182 100.5 28
      vertex 68.3384 100.5 28
    endloop
  endfacet
  facet normal 0 -1 0
    outer loop
      vertex 66.29 100.5 14.5
      vertex 91.4293 100.5 28
      vertex 77.3182 100.5 28
    endloop
  endfacet
  facet normal 0 -1 0
    outer loop
      vertex 119.33 100.5 14.5
      vertex 91.4293 100.5 28
      vertex 66.29 100.5 14.5
    endloop
  endfacet
  facet normal 0 -1 0
    outer loop
      vertex 100.409 100.5 28
      vertex 120.4 100.5 22
      vertex 114.52 100.5 28
    endloop
  endfacet
  facet normal 0 -1 0
    outer loop
      vertex 114.52 100.5 28
      vertex 120.4 100.5 22
      vertex 120.4 100.5 28
    endloop
  endfacet
  facet normal 0 -1 0
    outer loop
      vertex 8.04545 100.5 28
      vertex 22.1566 100.5 31
      vertex 8.04545 100.5 31
    endloop
  endfacet
  facet normal 0 -1 -0
    outer loop
      vertex 22.1566 100.5 31
      vertex 8.04545 100.5 28
      vertex 22.1566 100.5 28
    endloop
  endfacet
  facet normal 0 -1 0
    outer loop
      vertex 31.1364 100.5 28
      vertex 45.2475 100.5 31
      vertex 31.1364 100.5 31
    endloop
  endfacet
  facet normal 0 -1 -0
    outer loop
      vertex 45.2475 100.5 31
      vertex 31.1364 100.5 28
      vertex 45.2475 100.5 28
    endloop
  endfacet
  facet normal 0 -1 0
    outer loop
      vertex 54.2273 100.5 28
      vertex 68.3384 100.5 31
      vertex 54.2273 100.5 31
    endloop
  endfacet
  facet normal 0 -1 -0
    outer loop
      vertex 68.3384 100.5 31
      vertex 54.2273 100.5 28
      vertex 68.3384 100.5 28
    endloop
  endfacet
  facet normal 0 -1 0
    outer loop
      vertex 77.3182 100.5 28
      vertex 91.4293 100.5 31
      vertex 77.3182 100.5 31
    endloop
  endfacet
  facet normal 0 -1 -0
    outer loop
      vertex 91.4293 100.5 31
      vertex 77.3182 100.5 28
      vertex 91.4293 100.5 28
    endloop
  endfacet
  facet normal 0 -1 0
    outer loop
      vertex 100.409 100.5 28
      vertex 114.52 100.5 31
      vertex 100.409 100.5 31
    endloop
  endfacet
  facet normal 0 -1 -0
    outer loop
      vertex 114.52 100.5 31
      vertex 100.409 100.5 28
      vertex 114.52 100.5 28
    endloop
  endfacet
  facet normal 0 -1 0
    outer loop
      vertex 91.4293 100.5 28
      vertex 119.33 100.5 14.5
      vertex 120.4 100.5 16
    endloop
  endfacet
  facet normal 0 -1 0
    outer loop
      vertex 119.33 100.5 14.5
      vertex 120.4 100.5 10
      vertex 120.4 100.5 16
    endloop
  endfacet
  facet normal 0 -1 0
    outer loop
      vertex 120.4 100.5 10
      vertex 120.4 100.5 4
      vertex 123.5 100.5 10
    endloop
  endfacet
  facet normal 0 -1 0
    outer loop
      vertex 119.33 100.5 2
      vertex 120.4 100.5 10
      vertex 119.33 100.5 14.5
    endloop
  endfacet
  facet normal 0 -1 -0
    outer loop
      vertex 120.4 100.5 10
      vertex 119.33 100.5 2
      vertex 120.4 100.5 4
    endloop
  endfacet
  facet normal 0 -1 0
    outer loop
      vertex 119.33 100.5 2
      vertex 120.4 100.5 -2
      vertex 120.4 100.5 4
    endloop
  endfacet
  facet normal 0 -1 0
    outer loop
      vertex 68.3384 100.5 -8
      vertex 66.29 100.5 2
      vertex 54.2273 100.5 -8
    endloop
  endfacet
  facet normal 0 -1 0
    outer loop
      vertex 100.409 100.5 -11
      vertex 114.52 100.5 -8
      vertex 100.409 100.5 -8
    endloop
  endfacet
  facet normal 0 -1 -0
    outer loop
      vertex 114.52 100.5 -8
      vertex 100.409 100.5 -11
      vertex 114.52 100.5 -11
    endloop
  endfacet
  facet normal 0 -1 0
    outer loop
      vertex 77.3182 100.5 -11
      vertex 91.4293 100.5 -8
      vertex 77.3182 100.5 -8
    endloop
  endfacet
  facet normal 0 -1 -0
    outer loop
      vertex 91.4293 100.5 -8
      vertex 77.3182 100.5 -11
      vertex 91.4293 100.5 -11
    endloop
  endfacet
  facet normal 0 -1 0
    outer loop
      vertex 54.2273 100.5 -11
      vertex 68.3384 100.5 -8
      vertex 54.2273 100.5 -8
    endloop
  endfacet
  facet normal 0 -1 -0
    outer loop
      vertex 68.3384 100.5 -8
      vertex 54.2273 100.5 -11
      vertex 68.3384 100.5 -11
    endloop
  endfacet
  facet normal 0 -1 0
    outer loop
      vertex 31.1364 100.5 -11
      vertex 45.2475 100.5 -8
      vertex 31.1364 100.5 -8
    endloop
  endfacet
  facet normal 0 -1 -0
    outer loop
      vertex 45.2475 100.5 -8
      vertex 31.1364 100.5 -11
      vertex 45.2475 100.5 -11
    endloop
  endfacet
  facet normal 0 -1 0
    outer loop
      vertex 8.04545 100.5 -11
      vertex 22.1566 100.5 -8
      vertex 8.04545 100.5 -8
    endloop
  endfacet
  facet normal 0 -1 -0
    outer loop
      vertex 22.1566 100.5 -8
      vertex 8.04545 100.5 -11
      vertex 22.1566 100.5 -11
    endloop
  endfacet
  facet normal 0 -1 0
    outer loop
      vertex -3.5 100.5 -8
      vertex -0.4 100.5 -2
      vertex -3.5 100.5 -2
    endloop
  endfacet
  facet normal 0 -1 0
    outer loop
      vertex 77.3182 100.5 -8
      vertex 66.29 100.5 2
      vertex 68.3384 100.5 -8
    endloop
  endfacet
  facet normal 0 -1 -0
    outer loop
      vertex -0.4 100.5 -2
      vertex -3.5 100.5 -8
      vertex 8.04545 100.5 -8
    endloop
  endfacet
  facet normal 0 -1 0
    outer loop
      vertex -0.4 100.5 -2
      vertex 8.04545 100.5 -8
      vertex 22.1566 100.5 -8
    endloop
  endfacet
  facet normal 0 -1 0
    outer loop
      vertex -0.4 100.5 -2
      vertex 22.1566 100.5 -8
      vertex 31.1364 100.5 -8
    endloop
  endfacet
  facet normal 0 -1 0
    outer loop
      vertex 54.2273 100.5 -8
      vertex 66.29 100.5 14.5
      vertex 45.2475 100.5 -8
    endloop
  endfacet
  facet normal 0 -1 -0
    outer loop
      vertex 66.29 100.5 14.5
      vertex 54.2273 100.5 -8
      vertex 66.29 100.5 2
    endloop
  endfacet
  facet normal 0 -1 0
    outer loop
      vertex 91.4293 100.5 -8
      vertex 66.29 100.5 2
      vertex 77.3182 100.5 -8
    endloop
  endfacet
  facet normal 0 -1 0
    outer loop
      vertex 66.29 100.5 2
      vertex 91.4293 100.5 -8
      vertex 119.33 100.5 2
    endloop
  endfacet
  facet normal 0 -1 0
    outer loop
      vertex 100.409 100.5 -8
      vertex 119.33 100.5 2
      vertex 91.4293 100.5 -8
    endloop
  endfacet
  facet normal 0 -1 0
    outer loop
      vertex 114.52 100.5 -8
      vertex 119.33 100.5 2
      vertex 100.409 100.5 -8
    endloop
  endfacet
  facet normal 0 -1 -0
    outer loop
      vertex 119.33 100.5 2
      vertex 114.52 100.5 -8
      vertex 120.4 100.5 -2
    endloop
  endfacet
  facet normal 0 -1 0
    outer loop
      vertex 123.5 100.5 -8
      vertex 120.4 100.5 -2
      vertex 114.52 100.5 -8
    endloop
  endfacet
  facet normal 0 -1 0
    outer loop
      vertex 120.4 100.5 -2
      vertex 123.5 100.5 -8
      vertex 123.5 100.5 -2
    endloop
  endfacet
  facet normal 0 -1 -0
    outer loop
      vertex 123.5 100.5 10
      vertex 120.4 100.5 4
      vertex 123.5 100.5 4
    endloop
  endfacet
  facet normal -1 0 0
    outer loop
      vertex 8.04545 100.5 -11
      vertex 8.04545 103.5 -8
      vertex 8.04545 103.5 -11
    endloop
  endfacet
  facet normal -1 -0 0
    outer loop
      vertex 8.04545 103.5 -8
      vertex 8.04545 100.5 -11
      vertex 8.04545 100.5 -8
    endloop
  endfacet
  facet normal 1 -0 0
    outer loop
      vertex 22.1566 100.5 -8
      vertex 22.1566 103.5 -11
      vertex 22.1566 103.5 -8
    endloop
  endfacet
  facet normal 1 0 0
    outer loop
      vertex 22.1566 103.5 -11
      vertex 22.1566 100.5 -8
      vertex 22.1566 100.5 -11
    endloop
  endfacet
  facet normal 0 0 -1
    outer loop
      vertex 8.04545 100.5 -11
      vertex 22.1566 103.5 -11
      vertex 22.1566 100.5 -11
    endloop
  endfacet
  facet normal -0 0 -1
    outer loop
      vertex 22.1566 103.5 -11
      vertex 8.04545 100.5 -11
      vertex 8.04545 103.5 -11
    endloop
  endfacet
  facet normal -1 0 0
    outer loop
      vertex 8.04545 100.5 28
      vertex 8.04545 103.5 31
      vertex 8.04545 103.5 28
    endloop
  endfacet
  facet normal -1 -0 0
    outer loop
      vertex 8.04545 103.5 31
      vertex 8.04545 100.5 28
      vertex 8.04545 100.5 31
    endloop
  endfacet
  facet normal -0 0 1
    outer loop
      vertex 8.04545 103.5 31
      vertex 22.1566 100.5 31
      vertex 22.1566 103.5 31
    endloop
  endfacet
  facet normal 0 0 1
    outer loop
      vertex 22.1566 100.5 31
      vertex 8.04545 103.5 31
      vertex 8.04545 100.5 31
    endloop
  endfacet
  facet normal 1 -0 0
    outer loop
      vertex 22.1566 100.5 31
      vertex 22.1566 103.5 28
      vertex 22.1566 103.5 31
    endloop
  endfacet
  facet normal 1 0 0
    outer loop
      vertex 22.1566 103.5 28
      vertex 22.1566 100.5 31
      vertex 22.1566 100.5 28
    endloop
  endfacet
  facet normal -1 0 0
    outer loop
      vertex 31.1364 100.5 -11
      vertex 31.1364 103.5 -8
      vertex 31.1364 103.5 -11
    endloop
  endfacet
  facet normal -1 -0 0
    outer loop
      vertex 31.1364 103.5 -8
      vertex 31.1364 100.5 -11
      vertex 31.1364 100.5 -8
    endloop
  endfacet
  facet normal 1 -0 0
    outer loop
      vertex 45.2475 100.5 -8
      vertex 45.2475 103.5 -11
      vertex 45.2475 103.5 -8
    endloop
  endfacet
  facet normal 1 0 0
    outer loop
      vertex 45.2475 103.5 -11
      vertex 45.2475 100.5 -8
      vertex 45.2475 100.5 -11
    endloop
  endfacet
  facet normal 0 0 -1
    outer loop
      vertex 31.1364 100.5 -11
      vertex 45.2475 103.5 -11
      vertex 45.2475 100.5 -11
    endloop
  endfacet
  facet normal -0 0 -1
    outer loop
      vertex 45.2475 103.5 -11
      vertex 31.1364 100.5 -11
      vertex 31.1364 103.5 -11
    endloop
  endfacet
  facet normal -1 0 0
    outer loop
      vertex 31.1364 100.5 28
      vertex 31.1364 103.5 31
      vertex 31.1364 103.5 28
    endloop
  endfacet
  facet normal -1 -0 0
    outer loop
      vertex 31.1364 103.5 31
      vertex 31.1364 100.5 28
      vertex 31.1364 100.5 31
    endloop
  endfacet
  facet normal -0 0 1
    outer loop
      vertex 31.1364 103.5 31
      vertex 45.2475 100.5 31
      vertex 45.2475 103.5 31
    endloop
  endfacet
  facet normal 0 0 1
    outer loop
      vertex 45.2475 100.5 31
      vertex 31.1364 103.5 31
      vertex 31.1364 100.5 31
    endloop
  endfacet
  facet normal 1 -0 0
    outer loop
      vertex 45.2475 100.5 31
      vertex 45.2475 103.5 28
      vertex 45.2475 103.5 31
    endloop
  endfacet
  facet normal 1 0 0
    outer loop
      vertex 45.2475 103.5 28
      vertex 45.2475 100.5 31
      vertex 45.2475 100.5 28
    endloop
  endfacet
  facet normal -1 0 0
    outer loop
      vertex 54.2273 100.5 -11
      vertex 54.2273 103.5 -8
      vertex 54.2273 103.5 -11
    endloop
  endfacet
  facet normal -1 -0 0
    outer loop
      vertex 54.2273 103.5 -8
      vertex 54.2273 100.5 -11
      vertex 54.2273 100.5 -8
    endloop
  endfacet
  facet normal 1 -0 0
    outer loop
      vertex 68.3384 100.5 -8
      vertex 68.3384 103.5 -11
      vertex 68.3384 103.5 -8
    endloop
  endfacet
  facet normal 1 0 0
    outer loop
      vertex 68.3384 103.5 -11
      vertex 68.3384 100.5 -8
      vertex 68.3384 100.5 -11
    endloop
  endfacet
  facet normal 0 0 -1
    outer loop
      vertex 54.2273 100.5 -11
      vertex 68.3384 103.5 -11
      vertex 68.3384 100.5 -11
    endloop
  endfacet
  facet normal -0 0 -1
    outer loop
      vertex 68.3384 103.5 -11
      vertex 54.2273 100.5 -11
      vertex 54.2273 103.5 -11
    endloop
  endfacet
  facet normal -1 0 0
    outer loop
      vertex 54.2273 100.5 28
      vertex 54.2273 103.5 31
      vertex 54.2273 103.5 28
    endloop
  endfacet
  facet normal -1 -0 0
    outer loop
      vertex 54.2273 103.5 31
      vertex 54.2273 100.5 28
      vertex 54.2273 100.5 31
    endloop
  endfacet
  facet normal -0 0 1
    outer loop
      vertex 54.2273 103.5 31
      vertex 68.3384 100.5 31
      vertex 68.3384 103.5 31
    endloop
  endfacet
  facet normal 0 0 1
    outer loop
      vertex 68.3384 100.5 31
      vertex 54.2273 103.5 31
      vertex 54.2273 100.5 31
    endloop
  endfacet
  facet normal 1 -0 0
    outer loop
      vertex 68.3384 100.5 31
      vertex 68.3384 103.5 28
      vertex 68.3384 103.5 31
    endloop
  endfacet
  facet normal 1 0 0
    outer loop
      vertex 68.3384 103.5 28
      vertex 68.3384 100.5 31
      vertex 68.3384 100.5 28
    endloop
  endfacet
  facet normal -1 0 0
    outer loop
      vertex 77.3182 100.5 -11
      vertex 77.3182 103.5 -8
      vertex 77.3182 103.5 -11
    endloop
  endfacet
  facet normal -1 -0 0
    outer loop
      vertex 77.3182 103.5 -8
      vertex 77.3182 100.5 -11
      vertex 77.3182 100.5 -8
    endloop
  endfacet
  facet normal 1 -0 0
    outer loop
      vertex 91.4293 100.5 -8
      vertex 91.4293 103.5 -11
      vertex 91.4293 103.5 -8
    endloop
  endfacet
  facet normal 1 0 0
    outer loop
      vertex 91.4293 103.5 -11
      vertex 91.4293 100.5 -8
      vertex 91.4293 100.5 -11
    endloop
  endfacet
  facet normal 0 0 -1
    outer loop
      vertex 77.3182 100.5 -11
      vertex 91.4293 103.5 -11
      vertex 91.4293 100.5 -11
    endloop
  endfacet
  facet normal -0 0 -1
    outer loop
      vertex 91.4293 103.5 -11
      vertex 77.3182 100.5 -11
      vertex 77.3182 103.5 -11
    endloop
  endfacet
  facet normal -1 0 0
    outer loop
      vertex 77.3182 100.5 28
      vertex 77.3182 103.5 31
      vertex 77.3182 103.5 28
    endloop
  endfacet
  facet normal -1 -0 0
    outer loop
      vertex 77.3182 103.5 31
      vertex 77.3182 100.5 28
      vertex 77.3182 100.5 31
    endloop
  endfacet
  facet normal -0 0 1
    outer loop
      vertex 77.3182 103.5 31
      vertex 91.4293 100.5 31
      vertex 91.4293 103.5 31
    endloop
  endfacet
  facet normal 0 0 1
    outer loop
      vertex 91.4293 100.5 31
      vertex 77.3182 103.5 31
      vertex 77.3182 100.5 31
    endloop
  endfacet
  facet normal 1 -0 0
    outer loop
      vertex 91.4293 100.5 31
      vertex 91.4293 103.5 28
      vertex 91.4293 103.5 31
    endloop
  endfacet
  facet normal 1 0 0
    outer loop
      vertex 91.4293 103.5 28
      vertex 91.4293 100.5 31
      vertex 91.4293 100.5 28
    endloop
  endfacet
  facet normal -1 0 0
    outer loop
      vertex 100.409 100.5 -11
      vertex 100.409 103.5 -8
      vertex 100.409 103.5 -11
    endloop
  endfacet
  facet normal -1 -0 0
    outer loop
      vertex 100.409 103.5 -8
      vertex 100.409 100.5 -11
      vertex 100.409 100.5 -8
    endloop
  endfacet
  facet normal 1 -0 0
    outer loop
      vertex 114.52 100.5 -8
      vertex 114.52 103.5 -11
      vertex 114.52 103.5 -8
    endloop
  endfacet
  facet normal 1 0 0
    outer loop
      vertex 114.52 103.5 -11
      vertex 114.52 100.5 -8
      vertex 114.52 100.5 -11
    endloop
  endfacet
  facet normal 0 0 -1
    outer loop
      vertex 100.409 100.5 -11
      vertex 114.52 103.5 -11
      vertex 114.52 100.5 -11
    endloop
  endfacet
  facet normal -0 0 -1
    outer loop
      vertex 114.52 103.5 -11
      vertex 100.409 100.5 -11
      vertex 100.409 103.5 -11
    endloop
  endfacet
  facet normal -1 0 0
    outer loop
      vertex 100.409 100.5 28
      vertex 100.409 103.5 31
      vertex 100.409 103.5 28
    endloop
  endfacet
  facet normal -1 -0 0
    outer loop
      vertex 100.409 103.5 31
      vertex 100.409 100.5 28
      vertex 100.409 100.5 31
    endloop
  endfacet
  facet normal -0 0 1
    outer loop
      vertex 100.409 103.5 31
      vertex 114.52 100.5 31
      vertex 114.52 103.5 31
    endloop
  endfacet
  facet normal 0 0 1
    outer loop
      vertex 114.52 100.5 31
      vertex 100.409 103.5 31
      vertex 100.409 100.5 31
    endloop
  endfacet
  facet normal 1 -0 0
    outer loop
      vertex 114.52 100.5 31
      vertex 114.52 103.5 28
      vertex 114.52 103.5 31
    endloop
  endfacet
  facet normal 1 0 0
    outer loop
      vertex 114.52 103.5 28
      vertex 114.52 100.5 31
      vertex 114.52 100.5 28
    endloop
  endfacet
endsolid OpenSCAD_Model
