  0
SECTION
  2
BLOCKS
  0
ENDSEC
  0
SECTION
  2
ENTITIES
  0
LINE
  8
0
 10
22.1566
 20
-32
 11
31.1364
 21
-32
  0
LINE
  8
0
 10
31.1364
 20
-32
 11
31.1364
 21
-35
  0
LINE
  8
0
 10
31.1364
 20
-35
 11
45.2475
 21
-35
  0
LINE
  8
0
 10
45.2475
 20
-35
 11
45.2475
 21
-32
  0
LINE
  8
0
 10
45.2475
 20
-32
 11
54.2273
 21
-32
  0
LINE
  8
0
 10
54.2273
 20
-32
 11
54.2273
 21
-35
  0
LINE
  8
0
 10
54.2273
 20
-35
 11
68.3384
 21
-35
  0
LINE
  8
0
 10
68.3384
 20
-35
 11
68.3384
 21
-32
  0
LINE
  8
0
 10
68.3384
 20
-32
 11
77.3182
 21
-32
  0
LINE
  8
0
 10
77.3182
 20
-32
 11
77.3182
 21
-35
  0
LINE
  8
0
 10
77.3182
 20
-35
 11
91.4293
 21
-35
  0
LINE
  8
0
 10
91.4293
 20
-35
 11
91.4293
 21
-32
  0
LINE
  8
0
 10
91.4293
 20
-32
 11
100.409
 21
-32
  0
LINE
  8
0
 10
100.409
 20
-32
 11
100.409
 21
-35
  0
LINE
  8
0
 10
100.409
 20
-35
 11
114.52
 21
-35
  0
LINE
  8
0
 10
114.52
 20
-35
 11
114.52
 21
-32
  0
LINE
  8
0
 10
114.52
 20
-32
 11
120.4
 21
-32
  0
LINE
  8
0
 10
120.4
 20
-32
 11
120.4
 21
-25.3333
  0
LINE
  8
0
 10
120.4
 20
-25.3333
 11
123.5
 21
-25.3333
  0
LINE
  8
0
 10
123.5
 20
-25.3333
 11
123.5
 21
-18.6667
  0
LINE
  8
0
 10
123.5
 20
-18.6667
 11
120.4
 21
-18.6667
  0
LINE
  8
0
 10
120.4
 20
-18.6667
 11
120.4
 21
-12
  0
LINE
  8
0
 10
120.4
 20
-12
 11
123.5
 21
-12
  0
LINE
  8
0
 10
123.5
 20
-12
 11
123.5
 21
-5.33333
  0
LINE
  8
0
 10
123.5
 20
-5.33333
 11
120.4
 21
-5.33333
  0
LINE
  8
0
 10
120.4
 20
-5.33333
 11
120.4
 21
1.33333
  0
LINE
  8
0
 10
120.4
 20
1.33333
 11
123.5
 21
1.33333
  0
LINE
  8
0
 10
123.5
 20
1.33333
 11
123.5
 21
8
  0
LINE
  8
0
 10
123.5
 20
8
 11
114.52
 21
8
  0
LINE
  8
0
 10
114.52
 20
8
 11
114.52
 21
11
  0
LINE
  8
0
 10
114.52
 20
11
 11
100.409
 21
11
  0
LINE
  8
0
 10
100.409
 20
11
 11
100.409
 21
8
  0
LINE
  8
0
 10
100.409
 20
8
 11
91.4293
 21
8
  0
LINE
  8
0
 10
91.4293
 20
8
 11
91.4293
 21
11
  0
LINE
  8
0
 10
91.4293
 20
11
 11
77.3182
 21
11
  0
LINE
  8
0
 10
77.3182
 20
11
 11
77.3182
 21
8
  0
LINE
  8
0
 10
77.3182
 20
8
 11
68.3384
 21
8
  0
LINE
  8
0
 10
68.3384
 20
8
 11
68.3384
 21
11
  0
LINE
  8
0
 10
68.3384
 20
11
 11
54.2273
 21
11
  0
LINE
  8
0
 10
54.2273
 20
11
 11
54.2273
 21
8
  0
LINE
  8
0
 10
54.2273
 20
8
 11
45.2475
 21
8
  0
LINE
  8
0
 10
45.2475
 20
8
 11
45.2475
 21
11
  0
LINE
  8
0
 10
45.2475
 20
11
 11
31.1364
 21
11
  0
LINE
  8
0
 10
31.1364
 20
11
 11
31.1364
 21
8
  0
LINE
  8
0
 10
31.1364
 20
8
 11
22.1566
 21
8
  0
LINE
  8
0
 10
22.1566
 20
8
 11
22.1566
 21
11
  0
LINE
  8
0
 10
22.1566
 20
11
 11
8.04544
 21
11
  0
LINE
  8
0
 10
8.04544
 20
11
 11
8.04544
 21
8
  0
LINE
  8
0
 10
8.04544
 20
8
 11
-3.5
 21
8
  0
LINE
  8
0
 10
-3.5
 20
8
 11
-3.5
 21
1.33333
  0
LINE
  8
0
 10
-3.5
 20
1.33333
 11
-0.399994
 21
1.33333
  0
LINE
  8
0
 10
-0.399994
 20
1.33333
 11
-0.399994
 21
-5.33333
  0
LINE
  8
0
 10
-0.399994
 20
-5.33333
 11
-3.5
 21
-5.33333
  0
LINE
  8
0
 10
-3.5
 20
-5.33333
 11
-3.5
 21
-12
  0
LINE
  8
0
 10
-3.5
 20
-12
 11
-0.399994
 21
-12
  0
LINE
  8
0
 10
-0.399994
 20
-12
 11
-0.399994
 21
-18.6667
  0
LINE
  8
0
 10
-0.399994
 20
-18.6667
 11
-3.5
 21
-18.6667
  0
LINE
  8
0
 10
-3.5
 20
-18.6667
 11
-3.5
 21
-25.3333
  0
LINE
  8
0
 10
-3.5
 20
-25.3333
 11
-0.399994
 21
-25.3333
  0
LINE
  8
0
 10
-0.399994
 20
-25.3333
 11
-0.399994
 21
-32
  0
LINE
  8
0
 10
-0.399994
 20
-32
 11
8.04544
 21
-32
  0
LINE
  8
0
 10
8.04544
 20
-32
 11
8.04544
 21
-35
  0
LINE
  8
0
 10
8.04544
 20
-35
 11
22.1566
 21
-35
  0
LINE
  8
0
 10
22.1566
 20
-35
 11
22.1566
 21
-32
  0
LINE
  8
0
 10
20.5
 20
-13
 11
20.5
 21
-2
  0
LINE
  8
0
 10
20.5
 20
-2
 11
29.5
 21
-2
  0
LINE
  8
0
 10
29.5
 20
-2
 11
29.5
 21
-13
  0
LINE
  8
0
 10
29.5
 20
-13
 11
20.5
 21
-13
  0
ENDSEC
  0
SECTION
  2
OBJECTS
  0
DICTIONARY
  0
ENDSEC
  0
EOF
