  0
SECTION
  2
BLOCKS
  0
ENDSEC
  0
SECTION
  2
ENTITIES
  0
LINE
  8
0
 10
20.7455
 20
-8
 11
31.1364
 21
-8
  0
LINE
  8
0
 10
31.1364
 20
-8
 11
31.1364
 21
-11
  0
LINE
  8
0
 10
31.1364
 20
-11
 11
43.8364
 21
-11
  0
LINE
  8
0
 10
43.8364
 20
-11
 11
43.8364
 21
-8
  0
LINE
  8
0
 10
43.8364
 20
-8
 11
54.2273
 21
-8
  0
LINE
  8
0
 10
54.2273
 20
-8
 11
54.2273
 21
-11
  0
LINE
  8
0
 10
54.2273
 20
-11
 11
66.9273
 21
-11
  0
LINE
  8
0
 10
66.9273
 20
-11
 11
66.9273
 21
-8
  0
LINE
  8
0
 10
66.9273
 20
-8
 11
77.3182
 21
-8
  0
LINE
  8
0
 10
77.3182
 20
-8
 11
77.3182
 21
-11
  0
LINE
  8
0
 10
77.3182
 20
-11
 11
90.0182
 21
-11
  0
LINE
  8
0
 10
90.0182
 20
-11
 11
90.0182
 21
-8
  0
LINE
  8
0
 10
90.0182
 20
-8
 11
100.409
 21
-8
  0
LINE
  8
0
 10
100.409
 20
-8
 11
100.409
 21
-11
  0
LINE
  8
0
 10
100.409
 20
-11
 11
113.109
 21
-11
  0
LINE
  8
0
 10
113.109
 20
-11
 11
113.109
 21
-8
  0
LINE
  8
0
 10
113.109
 20
-8
 11
123.5
 21
-8
  0
LINE
  8
0
 10
123.5
 20
-8
 11
123.5
 21
-1.33333
  0
LINE
  8
0
 10
123.5
 20
-1.33333
 11
120.4
 21
-1.33333
  0
LINE
  8
0
 10
120.4
 20
-1.33333
 11
120.4
 21
5.33333
  0
LINE
  8
0
 10
120.4
 20
5.33333
 11
123.5
 21
5.33333
  0
LINE
  8
0
 10
123.5
 20
5.33333
 11
123.5
 21
12
  0
LINE
  8
0
 10
123.5
 20
12
 11
120.4
 21
12
  0
LINE
  8
0
 10
120.4
 20
12
 11
120.4
 21
18.6667
  0
LINE
  8
0
 10
120.4
 20
18.6667
 11
123.5
 21
18.6667
  0
LINE
  8
0
 10
123.5
 20
18.6667
 11
123.5
 21
25.3333
  0
LINE
  8
0
 10
123.5
 20
25.3333
 11
120.4
 21
25.3333
  0
LINE
  8
0
 10
120.4
 20
25.3333
 11
120.4
 21
32
  0
LINE
  8
0
 10
120.4
 20
32
 11
113.109
 21
32
  0
LINE
  8
0
 10
113.109
 20
32
 11
113.109
 21
35
  0
LINE
  8
0
 10
113.109
 20
35
 11
100.409
 21
35
  0
LINE
  8
0
 10
100.409
 20
35
 11
100.409
 21
32
  0
LINE
  8
0
 10
100.409
 20
32
 11
90.0182
 21
32
  0
LINE
  8
0
 10
90.0182
 20
32
 11
90.0182
 21
35
  0
LINE
  8
0
 10
90.0182
 20
35
 11
77.3182
 21
35
  0
LINE
  8
0
 10
77.3182
 20
35
 11
77.3182
 21
32
  0
LINE
  8
0
 10
77.3182
 20
32
 11
66.9273
 21
32
  0
LINE
  8
0
 10
66.9273
 20
32
 11
66.9273
 21
35
  0
LINE
  8
0
 10
66.9273
 20
35
 11
54.2273
 21
35
  0
LINE
  8
0
 10
54.2273
 20
35
 11
54.2273
 21
32
  0
LINE
  8
0
 10
54.2273
 20
32
 11
43.8364
 21
32
  0
LINE
  8
0
 10
43.8364
 20
32
 11
43.8364
 21
35
  0
LINE
  8
0
 10
43.8364
 20
35
 11
31.1364
 21
35
  0
LINE
  8
0
 10
31.1364
 20
35
 11
31.1364
 21
32
  0
LINE
  8
0
 10
31.1364
 20
32
 11
20.7455
 21
32
  0
LINE
  8
0
 10
20.7455
 20
32
 11
20.7455
 21
35
  0
LINE
  8
0
 10
20.7455
 20
35
 11
8.04544
 21
35
  0
LINE
  8
0
 10
8.04544
 20
35
 11
8.04544
 21
32
  0
LINE
  8
0
 10
8.04544
 20
32
 11
-0.399994
 21
32
  0
LINE
  8
0
 10
-0.399994
 20
32
 11
-0.399994
 21
25.3333
  0
LINE
  8
0
 10
-0.399994
 20
25.3333
 11
-3.5
 21
25.3333
  0
LINE
  8
0
 10
-3.5
 20
25.3333
 11
-3.5
 21
18.6667
  0
LINE
  8
0
 10
-3.5
 20
18.6667
 11
-0.399994
 21
18.6667
  0
LINE
  8
0
 10
-0.399994
 20
18.6667
 11
-0.399994
 21
12
  0
LINE
  8
0
 10
-0.399994
 20
12
 11
-3.5
 21
12
  0
LINE
  8
0
 10
-3.5
 20
12
 11
-3.5
 21
5.33333
  0
LINE
  8
0
 10
-3.5
 20
5.33333
 11
-0.399994
 21
5.33333
  0
LINE
  8
0
 10
-0.399994
 20
5.33333
 11
-0.399994
 21
-1.33333
  0
LINE
  8
0
 10
-0.399994
 20
-1.33333
 11
-3.5
 21
-1.33333
  0
LINE
  8
0
 10
-3.5
 20
-1.33333
 11
-3.5
 21
-8
  0
LINE
  8
0
 10
-3.5
 20
-8
 11
8.04544
 21
-8
  0
LINE
  8
0
 10
8.04544
 20
-8
 11
8.04544
 21
-11
  0
LINE
  8
0
 10
8.04544
 20
-11
 11
20.7455
 21
-11
  0
LINE
  8
0
 10
20.7455
 20
-11
 11
20.7455
 21
-8
  0
LINE
  8
0
 10
13.5967
 20
27.401
 11
13.4649
 21
27.4219
  0
LINE
  8
0
 10
13.4649
 20
27.4219
 11
13.336
 21
27.4564
  0
LINE
  8
0
 10
13.336
 20
27.4564
 11
13.2114
 21
27.5042
  0
LINE
  8
0
 10
13.2114
 20
27.5042
 11
13.0925
 21
27.5648
  0
LINE
  8
0
 10
13.0925
 20
27.5648
 11
12.9806
 21
27.6375
  0
LINE
  8
0
 10
12.9806
 20
27.6375
 11
12.8768
 21
27.7215
  0
LINE
  8
0
 10
12.8768
 20
27.7215
 11
12.7825
 21
27.8159
  0
LINE
  8
0
 10
12.7825
 20
27.8159
 11
12.6985
 21
27.9196
  0
LINE
  8
0
 10
12.6985
 20
27.9196
 11
12.6258
 21
28.0315
  0
LINE
  8
0
 10
12.6258
 20
28.0315
 11
12.5652
 21
28.1504
  0
LINE
  8
0
 10
12.5652
 20
28.1504
 11
12.5174
 21
28.275
  0
LINE
  8
0
 10
12.5174
 20
28.275
 11
12.4828
 21
28.4039
  0
LINE
  8
0
 10
12.4828
 20
28.4039
 11
12.462
 21
28.5357
  0
LINE
  8
0
 10
12.462
 20
28.5357
 11
12.455
 21
28.669
  0
LINE
  8
0
 10
12.455
 20
28.669
 11
12.462
 21
28.8023
  0
LINE
  8
0
 10
12.462
 20
28.8023
 11
12.4828
 21
28.9341
  0
LINE
  8
0
 10
12.4828
 20
28.9341
 11
12.5174
 21
29.063
  0
LINE
  8
0
 10
12.5174
 20
29.063
 11
12.5652
 21
29.1876
  0
LINE
  8
0
 10
12.5652
 20
29.1876
 11
12.6258
 21
29.3065
  0
LINE
  8
0
 10
12.6258
 20
29.3065
 11
12.6985
 21
29.4184
  0
LINE
  8
0
 10
12.6985
 20
29.4184
 11
12.7825
 21
29.5221
  0
LINE
  8
0
 10
12.7825
 20
29.5221
 11
12.8768
 21
29.6165
  0
LINE
  8
0
 10
12.8768
 20
29.6165
 11
12.9806
 21
29.7005
  0
LINE
  8
0
 10
12.9806
 20
29.7005
 11
13.0925
 21
29.7732
  0
LINE
  8
0
 10
13.0925
 20
29.7732
 11
13.2114
 21
29.8338
  0
LINE
  8
0
 10
13.2114
 20
29.8338
 11
13.336
 21
29.8816
  0
LINE
  8
0
 10
13.336
 20
29.8816
 11
13.4649
 21
29.9161
  0
LINE
  8
0
 10
13.4649
 20
29.9161
 11
13.5967
 21
29.937
  0
LINE
  8
0
 10
13.5967
 20
29.937
 11
13.73
 21
29.944
  0
LINE
  8
0
 10
13.73
 20
29.944
 11
13.8633
 21
29.937
  0
LINE
  8
0
 10
13.8633
 20
29.937
 11
13.9951
 21
29.9161
  0
LINE
  8
0
 10
13.9951
 20
29.9161
 11
14.124
 21
29.8816
  0
LINE
  8
0
 10
14.124
 20
29.8816
 11
14.2486
 21
29.8338
  0
LINE
  8
0
 10
14.2486
 20
29.8338
 11
14.3675
 21
29.7732
  0
LINE
  8
0
 10
14.3675
 20
29.7732
 11
14.4794
 21
29.7005
  0
LINE
  8
0
 10
14.4794
 20
29.7005
 11
14.5831
 21
29.6165
  0
LINE
  8
0
 10
14.5831
 20
29.6165
 11
14.6775
 21
29.5221
  0
LINE
  8
0
 10
14.6775
 20
29.5221
 11
14.7615
 21
29.4184
  0
LINE
  8
0
 10
14.7615
 20
29.4184
 11
14.8342
 21
29.3065
  0
LINE
  8
0
 10
14.8342
 20
29.3065
 11
14.8948
 21
29.1876
  0
LINE
  8
0
 10
14.8948
 20
29.1876
 11
14.9426
 21
29.063
  0
LINE
  8
0
 10
14.9426
 20
29.063
 11
14.9771
 21
28.9341
  0
LINE
  8
0
 10
14.9771
 20
28.9341
 11
14.998
 21
28.8023
  0
LINE
  8
0
 10
14.998
 20
28.8023
 11
15.005
 21
28.669
  0
LINE
  8
0
 10
15.005
 20
28.669
 11
14.998
 21
28.5357
  0
LINE
  8
0
 10
14.998
 20
28.5357
 11
14.9771
 21
28.4039
  0
LINE
  8
0
 10
14.9771
 20
28.4039
 11
14.9426
 21
28.275
  0
LINE
  8
0
 10
14.9426
 20
28.275
 11
14.8948
 21
28.1504
  0
LINE
  8
0
 10
14.8948
 20
28.1504
 11
14.8342
 21
28.0315
  0
LINE
  8
0
 10
14.8342
 20
28.0315
 11
14.7615
 21
27.9196
  0
LINE
  8
0
 10
14.7615
 20
27.9196
 11
14.6775
 21
27.8159
  0
LINE
  8
0
 10
14.6775
 20
27.8159
 11
14.5831
 21
27.7215
  0
LINE
  8
0
 10
14.5831
 20
27.7215
 11
14.4794
 21
27.6375
  0
LINE
  8
0
 10
14.4794
 20
27.6375
 11
14.3675
 21
27.5648
  0
LINE
  8
0
 10
14.3675
 20
27.5648
 11
14.2486
 21
27.5042
  0
LINE
  8
0
 10
14.2486
 20
27.5042
 11
14.124
 21
27.4564
  0
LINE
  8
0
 10
14.124
 20
27.4564
 11
13.9951
 21
27.4219
  0
LINE
  8
0
 10
13.9951
 20
27.4219
 11
13.8633
 21
27.401
  0
LINE
  8
0
 10
13.8633
 20
27.401
 11
13.73
 21
27.394
  0
LINE
  8
0
 10
13.73
 20
27.394
 11
13.5967
 21
27.401
  0
LINE
  8
0
 10
35.7467
 20
27.401
 11
35.6149
 21
27.4219
  0
LINE
  8
0
 10
35.6149
 20
27.4219
 11
35.486
 21
27.4564
  0
LINE
  8
0
 10
35.486
 20
27.4564
 11
35.3614
 21
27.5042
  0
LINE
  8
0
 10
35.3614
 20
27.5042
 11
35.2425
 21
27.5648
  0
LINE
  8
0
 10
35.2425
 20
27.5648
 11
35.1306
 21
27.6375
  0
LINE
  8
0
 10
35.1306
 20
27.6375
 11
35.0269
 21
27.7215
  0
LINE
  8
0
 10
35.0269
 20
27.7215
 11
34.9325
 21
27.8159
  0
LINE
  8
0
 10
34.9325
 20
27.8159
 11
34.8485
 21
27.9196
  0
LINE
  8
0
 10
34.8485
 20
27.9196
 11
34.7758
 21
28.0315
  0
LINE
  8
0
 10
34.7758
 20
28.0315
 11
34.7152
 21
28.1504
  0
LINE
  8
0
 10
34.7152
 20
28.1504
 11
34.6674
 21
28.275
  0
LINE
  8
0
 10
34.6674
 20
28.275
 11
34.6329
 21
28.4039
  0
LINE
  8
0
 10
34.6329
 20
28.4039
 11
34.612
 21
28.5357
  0
LINE
  8
0
 10
34.612
 20
28.5357
 11
34.605
 21
28.669
  0
LINE
  8
0
 10
34.605
 20
28.669
 11
34.612
 21
28.8023
  0
LINE
  8
0
 10
34.612
 20
28.8023
 11
34.6329
 21
28.9341
  0
LINE
  8
0
 10
34.6329
 20
28.9341
 11
34.6674
 21
29.063
  0
LINE
  8
0
 10
34.6674
 20
29.063
 11
34.7152
 21
29.1876
  0
LINE
  8
0
 10
34.7152
 20
29.1876
 11
34.7758
 21
29.3065
  0
LINE
  8
0
 10
34.7758
 20
29.3065
 11
34.8485
 21
29.4184
  0
LINE
  8
0
 10
34.8485
 20
29.4184
 11
34.9325
 21
29.5221
  0
LINE
  8
0
 10
34.9325
 20
29.5221
 11
35.0269
 21
29.6165
  0
LINE
  8
0
 10
35.0269
 20
29.6165
 11
35.1306
 21
29.7005
  0
LINE
  8
0
 10
35.1306
 20
29.7005
 11
35.2425
 21
29.7732
  0
LINE
  8
0
 10
35.2425
 20
29.7732
 11
35.3614
 21
29.8338
  0
LINE
  8
0
 10
35.3614
 20
29.8338
 11
35.486
 21
29.8816
  0
LINE
  8
0
 10
35.486
 20
29.8816
 11
35.6149
 21
29.9161
  0
LINE
  8
0
 10
35.6149
 20
29.9161
 11
35.7467
 21
29.937
  0
LINE
  8
0
 10
35.7467
 20
29.937
 11
35.88
 21
29.944
  0
LINE
  8
0
 10
35.88
 20
29.944
 11
36.0133
 21
29.937
  0
LINE
  8
0
 10
36.0133
 20
29.937
 11
36.1451
 21
29.9161
  0
LINE
  8
0
 10
36.1451
 20
29.9161
 11
36.274
 21
29.8816
  0
LINE
  8
0
 10
36.274
 20
29.8816
 11
36.3986
 21
29.8338
  0
LINE
  8
0
 10
36.3986
 20
29.8338
 11
36.5175
 21
29.7732
  0
LINE
  8
0
 10
36.5175
 20
29.7732
 11
36.6294
 21
29.7005
  0
LINE
  8
0
 10
36.6294
 20
29.7005
 11
36.7331
 21
29.6165
  0
LINE
  8
0
 10
36.7331
 20
29.6165
 11
36.8275
 21
29.5221
  0
LINE
  8
0
 10
36.8275
 20
29.5221
 11
36.9115
 21
29.4184
  0
LINE
  8
0
 10
36.9115
 20
29.4184
 11
36.9842
 21
29.3065
  0
LINE
  8
0
 10
36.9842
 20
29.3065
 11
37.0448
 21
29.1876
  0
LINE
  8
0
 10
37.0448
 20
29.1876
 11
37.0926
 21
29.063
  0
LINE
  8
0
 10
37.0926
 20
29.063
 11
37.1271
 21
28.9341
  0
LINE
  8
0
 10
37.1271
 20
28.9341
 11
37.148
 21
28.8023
  0
LINE
  8
0
 10
37.148
 20
28.8023
 11
37.155
 21
28.669
  0
LINE
  8
0
 10
37.155
 20
28.669
 11
37.148
 21
28.5357
  0
LINE
  8
0
 10
37.148
 20
28.5357
 11
37.1271
 21
28.4039
  0
LINE
  8
0
 10
37.1271
 20
28.4039
 11
37.0926
 21
28.275
  0
LINE
  8
0
 10
37.0926
 20
28.275
 11
37.0448
 21
28.1504
  0
LINE
  8
0
 10
37.0448
 20
28.1504
 11
36.9842
 21
28.0315
  0
LINE
  8
0
 10
36.9842
 20
28.0315
 11
36.9115
 21
27.9196
  0
LINE
  8
0
 10
36.9115
 20
27.9196
 11
36.8275
 21
27.8159
  0
LINE
  8
0
 10
36.8275
 20
27.8159
 11
36.7331
 21
27.7215
  0
LINE
  8
0
 10
36.7331
 20
27.7215
 11
36.6294
 21
27.6375
  0
LINE
  8
0
 10
36.6294
 20
27.6375
 11
36.5175
 21
27.5648
  0
LINE
  8
0
 10
36.5175
 20
27.5648
 11
36.3986
 21
27.5042
  0
LINE
  8
0
 10
36.3986
 20
27.5042
 11
36.274
 21
27.4564
  0
LINE
  8
0
 10
36.274
 20
27.4564
 11
36.1451
 21
27.4219
  0
LINE
  8
0
 10
36.1451
 20
27.4219
 11
36.0133
 21
27.401
  0
LINE
  8
0
 10
36.0133
 20
27.401
 11
35.88
 21
27.394
  0
LINE
  8
0
 10
35.88
 20
27.394
 11
35.7467
 21
27.401
  0
LINE
  8
0
 10
3.59673
 20
27.401
 11
3.4649
 21
27.4219
  0
LINE
  8
0
 10
3.4649
 20
27.4219
 11
3.336
 21
27.4564
  0
LINE
  8
0
 10
3.336
 20
27.4564
 11
3.2114
 21
27.5042
  0
LINE
  8
0
 10
3.2114
 20
27.5042
 11
3.0925
 21
27.5648
  0
LINE
  8
0
 10
3.0925
 20
27.5648
 11
2.98056
 21
27.6375
  0
LINE
  8
0
 10
2.98056
 20
27.6375
 11
2.87685
 21
27.7215
  0
LINE
  8
0
 10
2.87685
 20
27.7215
 11
2.78249
 21
27.8159
  0
LINE
  8
0
 10
2.78249
 20
27.8159
 11
2.6985
 21
27.9196
  0
LINE
  8
0
 10
2.6985
 20
27.9196
 11
2.62581
 21
28.0315
  0
LINE
  8
0
 10
2.62581
 20
28.0315
 11
2.56522
 21
28.1504
  0
LINE
  8
0
 10
2.56522
 20
28.1504
 11
2.5174
 21
28.275
  0
LINE
  8
0
 10
2.5174
 20
28.275
 11
2.48285
 21
28.4039
  0
LINE
  8
0
 10
2.48285
 20
28.4039
 11
2.46198
 21
28.5357
  0
LINE
  8
0
 10
2.46198
 20
28.5357
 11
2.45499
 21
28.669
  0
LINE
  8
0
 10
2.45499
 20
28.669
 11
2.46198
 21
28.8023
  0
LINE
  8
0
 10
2.46198
 20
28.8023
 11
2.48285
 21
28.9341
  0
LINE
  8
0
 10
2.48285
 20
28.9341
 11
2.5174
 21
29.063
  0
LINE
  8
0
 10
2.5174
 20
29.063
 11
2.56522
 21
29.1876
  0
LINE
  8
0
 10
2.56522
 20
29.1876
 11
2.62581
 21
29.3065
  0
LINE
  8
0
 10
2.62581
 20
29.3065
 11
2.6985
 21
29.4184
  0
LINE
  8
0
 10
2.6985
 20
29.4184
 11
2.78249
 21
29.5221
  0
LINE
  8
0
 10
2.78249
 20
29.5221
 11
2.87685
 21
29.6165
  0
LINE
  8
0
 10
2.87685
 20
29.6165
 11
2.98056
 21
29.7005
  0
LINE
  8
0
 10
2.98056
 20
29.7005
 11
3.0925
 21
29.7732
  0
LINE
  8
0
 10
3.0925
 20
29.7732
 11
3.2114
 21
29.8338
  0
LINE
  8
0
 10
3.2114
 20
29.8338
 11
3.336
 21
29.8816
  0
LINE
  8
0
 10
3.336
 20
29.8816
 11
3.4649
 21
29.9161
  0
LINE
  8
0
 10
3.4649
 20
29.9161
 11
3.59673
 21
29.937
  0
LINE
  8
0
 10
3.59673
 20
29.937
 11
3.73
 21
29.944
  0
LINE
  8
0
 10
3.73
 20
29.944
 11
3.86327
 21
29.937
  0
LINE
  8
0
 10
3.86327
 20
29.937
 11
3.99509
 21
29.9161
  0
LINE
  8
0
 10
3.99509
 20
29.9161
 11
4.12399
 21
29.8816
  0
LINE
  8
0
 10
4.12399
 20
29.8816
 11
4.24858
 21
29.8338
  0
LINE
  8
0
 10
4.24858
 20
29.8338
 11
4.36749
 21
29.7732
  0
LINE
  8
0
 10
4.36749
 20
29.7732
 11
4.47942
 21
29.7005
  0
LINE
  8
0
 10
4.47942
 20
29.7005
 11
4.58313
 21
29.6165
  0
LINE
  8
0
 10
4.58313
 20
29.6165
 11
4.67751
 21
29.5221
  0
LINE
  8
0
 10
4.67751
 20
29.5221
 11
4.76149
 21
29.4184
  0
LINE
  8
0
 10
4.76149
 20
29.4184
 11
4.83417
 21
29.3065
  0
LINE
  8
0
 10
4.83417
 20
29.3065
 11
4.89476
 21
29.1876
  0
LINE
  8
0
 10
4.89476
 20
29.1876
 11
4.9426
 21
29.063
  0
LINE
  8
0
 10
4.9426
 20
29.063
 11
4.97713
 21
28.9341
  0
LINE
  8
0
 10
4.97713
 20
28.9341
 11
4.998
 21
28.8023
  0
LINE
  8
0
 10
4.998
 20
28.8023
 11
5.00499
 21
28.669
  0
LINE
  8
0
 10
5.00499
 20
28.669
 11
4.998
 21
28.5357
  0
LINE
  8
0
 10
4.998
 20
28.5357
 11
4.97713
 21
28.4039
  0
LINE
  8
0
 10
4.97713
 20
28.4039
 11
4.9426
 21
28.275
  0
LINE
  8
0
 10
4.9426
 20
28.275
 11
4.89476
 21
28.1504
  0
LINE
  8
0
 10
4.89476
 20
28.1504
 11
4.83417
 21
28.0315
  0
LINE
  8
0
 10
4.83417
 20
28.0315
 11
4.76149
 21
27.9196
  0
LINE
  8
0
 10
4.76149
 20
27.9196
 11
4.67751
 21
27.8159
  0
LINE
  8
0
 10
4.67751
 20
27.8159
 11
4.58313
 21
27.7215
  0
LINE
  8
0
 10
4.58313
 20
27.7215
 11
4.47942
 21
27.6375
  0
LINE
  8
0
 10
4.47942
 20
27.6375
 11
4.36749
 21
27.5648
  0
LINE
  8
0
 10
4.36749
 20
27.5648
 11
4.24858
 21
27.5042
  0
LINE
  8
0
 10
4.24858
 20
27.5042
 11
4.12399
 21
27.4564
  0
LINE
  8
0
 10
4.12399
 20
27.4564
 11
3.99509
 21
27.4219
  0
LINE
  8
0
 10
3.99509
 20
27.4219
 11
3.86327
 21
27.401
  0
LINE
  8
0
 10
3.86327
 20
27.401
 11
3.73
 21
27.394
  0
LINE
  8
0
 10
3.73
 20
27.394
 11
3.59673
 21
27.401
  0
LINE
  8
0
 10
26.0967
 20
27.401
 11
25.9649
 21
27.4219
  0
LINE
  8
0
 10
25.9649
 20
27.4219
 11
25.836
 21
27.4564
  0
LINE
  8
0
 10
25.836
 20
27.4564
 11
25.7114
 21
27.5042
  0
LINE
  8
0
 10
25.7114
 20
27.5042
 11
25.5925
 21
27.5648
  0
LINE
  8
0
 10
25.5925
 20
27.5648
 11
25.4806
 21
27.6375
  0
LINE
  8
0
 10
25.4806
 20
27.6375
 11
25.3768
 21
27.7215
  0
LINE
  8
0
 10
25.3768
 20
27.7215
 11
25.2825
 21
27.8159
  0
LINE
  8
0
 10
25.2825
 20
27.8159
 11
25.1985
 21
27.9196
  0
LINE
  8
0
 10
25.1985
 20
27.9196
 11
25.1258
 21
28.0315
  0
LINE
  8
0
 10
25.1258
 20
28.0315
 11
25.0652
 21
28.1504
  0
LINE
  8
0
 10
25.0652
 20
28.1504
 11
25.0174
 21
28.275
  0
LINE
  8
0
 10
25.0174
 20
28.275
 11
24.9828
 21
28.4039
  0
LINE
  8
0
 10
24.9828
 20
28.4039
 11
24.962
 21
28.5357
  0
LINE
  8
0
 10
24.962
 20
28.5357
 11
24.955
 21
28.669
  0
LINE
  8
0
 10
24.955
 20
28.669
 11
24.962
 21
28.8023
  0
LINE
  8
0
 10
24.962
 20
28.8023
 11
24.9828
 21
28.9341
  0
LINE
  8
0
 10
24.9828
 20
28.9341
 11
25.0174
 21
29.063
  0
LINE
  8
0
 10
25.0174
 20
29.063
 11
25.0652
 21
29.1876
  0
LINE
  8
0
 10
25.0652
 20
29.1876
 11
25.1258
 21
29.3065
  0
LINE
  8
0
 10
25.1258
 20
29.3065
 11
25.1985
 21
29.4184
  0
LINE
  8
0
 10
25.1985
 20
29.4184
 11
25.2825
 21
29.5221
  0
LINE
  8
0
 10
25.2825
 20
29.5221
 11
25.3768
 21
29.6165
  0
LINE
  8
0
 10
25.3768
 20
29.6165
 11
25.4806
 21
29.7005
  0
LINE
  8
0
 10
25.4806
 20
29.7005
 11
25.5925
 21
29.7732
  0
LINE
  8
0
 10
25.5925
 20
29.7732
 11
25.7114
 21
29.8338
  0
LINE
  8
0
 10
25.7114
 20
29.8338
 11
25.836
 21
29.8816
  0
LINE
  8
0
 10
25.836
 20
29.8816
 11
25.9649
 21
29.9161
  0
LINE
  8
0
 10
25.9649
 20
29.9161
 11
26.0967
 21
29.937
  0
LINE
  8
0
 10
26.0967
 20
29.937
 11
26.23
 21
29.944
  0
LINE
  8
0
 10
26.23
 20
29.944
 11
26.3633
 21
29.937
  0
LINE
  8
0
 10
26.3633
 20
29.937
 11
26.4951
 21
29.9161
  0
LINE
  8
0
 10
26.4951
 20
29.9161
 11
26.624
 21
29.8816
  0
LINE
  8
0
 10
26.624
 20
29.8816
 11
26.7486
 21
29.8338
  0
LINE
  8
0
 10
26.7486
 20
29.8338
 11
26.8675
 21
29.7732
  0
LINE
  8
0
 10
26.8675
 20
29.7732
 11
26.9794
 21
29.7005
  0
LINE
  8
0
 10
26.9794
 20
29.7005
 11
27.0831
 21
29.6165
  0
LINE
  8
0
 10
27.0831
 20
29.6165
 11
27.1775
 21
29.5221
  0
LINE
  8
0
 10
27.1775
 20
29.5221
 11
27.2615
 21
29.4184
  0
LINE
  8
0
 10
27.2615
 20
29.4184
 11
27.3342
 21
29.3065
  0
LINE
  8
0
 10
27.3342
 20
29.3065
 11
27.3948
 21
29.1876
  0
LINE
  8
0
 10
27.3948
 20
29.1876
 11
27.4426
 21
29.063
  0
LINE
  8
0
 10
27.4426
 20
29.063
 11
27.4771
 21
28.9341
  0
LINE
  8
0
 10
27.4771
 20
28.9341
 11
27.498
 21
28.8023
  0
LINE
  8
0
 10
27.498
 20
28.8023
 11
27.505
 21
28.669
  0
LINE
  8
0
 10
27.505
 20
28.669
 11
27.498
 21
28.5357
  0
LINE
  8
0
 10
27.498
 20
28.5357
 11
27.4771
 21
28.4039
  0
LINE
  8
0
 10
27.4771
 20
28.4039
 11
27.4426
 21
28.275
  0
LINE
  8
0
 10
27.4426
 20
28.275
 11
27.3948
 21
28.1504
  0
LINE
  8
0
 10
27.3948
 20
28.1504
 11
27.3342
 21
28.0315
  0
LINE
  8
0
 10
27.3342
 20
28.0315
 11
27.2615
 21
27.9196
  0
LINE
  8
0
 10
27.2615
 20
27.9196
 11
27.1775
 21
27.8159
  0
LINE
  8
0
 10
27.1775
 20
27.8159
 11
27.0831
 21
27.7215
  0
LINE
  8
0
 10
27.0831
 20
27.7215
 11
26.9794
 21
27.6375
  0
LINE
  8
0
 10
26.9794
 20
27.6375
 11
26.8675
 21
27.5648
  0
LINE
  8
0
 10
26.8675
 20
27.5648
 11
26.7486
 21
27.5042
  0
LINE
  8
0
 10
26.7486
 20
27.5042
 11
26.624
 21
27.4564
  0
LINE
  8
0
 10
26.624
 20
27.4564
 11
26.4951
 21
27.4219
  0
LINE
  8
0
 10
26.4951
 20
27.4219
 11
26.3633
 21
27.401
  0
LINE
  8
0
 10
26.3633
 20
27.401
 11
26.23
 21
27.394
  0
LINE
  8
0
 10
26.23
 20
27.394
 11
26.0967
 21
27.401
  0
LINE
  8
0
 10
47.185
 20
18.874
 11
47.0713
 21
18.892
  0
LINE
  8
0
 10
47.0713
 20
18.892
 11
46.9601
 21
18.9218
  0
LINE
  8
0
 10
46.9601
 20
18.9218
 11
46.8526
 21
18.9631
  0
LINE
  8
0
 10
46.8526
 20
18.9631
 11
46.75
 21
19.0154
  0
LINE
  8
0
 10
46.75
 20
19.0154
 11
46.6534
 21
19.0781
  0
LINE
  8
0
 10
46.6534
 20
19.0781
 11
46.5639
 21
19.1505
  0
LINE
  8
0
 10
46.5639
 20
19.1505
 11
46.4825
 21
19.2319
  0
LINE
  8
0
 10
46.4825
 20
19.2319
 11
46.4101
 21
19.3214
  0
LINE
  8
0
 10
46.4101
 20
19.3214
 11
46.3474
 21
19.418
  0
LINE
  8
0
 10
46.3474
 20
19.418
 11
46.2951
 21
19.5206
  0
LINE
  8
0
 10
46.2951
 20
19.5206
 11
46.2538
 21
19.6281
  0
LINE
  8
0
 10
46.2538
 20
19.6281
 11
46.224
 21
19.7393
  0
LINE
  8
0
 10
46.224
 20
19.7393
 11
46.206
 21
19.853
  0
LINE
  8
0
 10
46.206
 20
19.853
 11
46.2
 21
19.968
  0
LINE
  8
0
 10
46.2
 20
19.968
 11
46.206
 21
20.083
  0
LINE
  8
0
 10
46.206
 20
20.083
 11
46.224
 21
20.1967
  0
LINE
  8
0
 10
46.224
 20
20.1967
 11
46.2538
 21
20.3079
  0
LINE
  8
0
 10
46.2538
 20
20.3079
 11
46.2951
 21
20.4154
  0
LINE
  8
0
 10
46.2951
 20
20.4154
 11
46.3474
 21
20.518
  0
LINE
  8
0
 10
46.3474
 20
20.518
 11
46.4101
 21
20.6146
  0
LINE
  8
0
 10
46.4101
 20
20.6146
 11
46.4825
 21
20.704
  0
LINE
  8
0
 10
46.4825
 20
20.704
 11
46.5639
 21
20.7854
  0
LINE
  8
0
 10
46.5639
 20
20.7854
 11
46.6534
 21
20.8579
  0
LINE
  8
0
 10
46.6534
 20
20.8579
 11
46.75
 21
20.9206
  0
LINE
  8
0
 10
46.75
 20
20.9206
 11
46.8526
 21
20.9729
  0
LINE
  8
0
 10
46.8526
 20
20.9729
 11
46.9601
 21
21.0142
  0
LINE
  8
0
 10
46.9601
 20
21.0142
 11
47.0713
 21
21.044
  0
LINE
  8
0
 10
47.0713
 20
21.044
 11
47.185
 21
21.062
  0
LINE
  8
0
 10
47.185
 20
21.062
 11
47.3
 21
21.068
  0
LINE
  8
0
 10
47.3
 20
21.068
 11
47.415
 21
21.062
  0
LINE
  8
0
 10
47.415
 20
21.062
 11
47.5287
 21
21.044
  0
LINE
  8
0
 10
47.5287
 20
21.044
 11
47.6399
 21
21.0142
  0
LINE
  8
0
 10
47.6399
 20
21.0142
 11
47.7474
 21
20.9729
  0
LINE
  8
0
 10
47.7474
 20
20.9729
 11
47.85
 21
20.9206
  0
LINE
  8
0
 10
47.85
 20
20.9206
 11
47.9466
 21
20.8579
  0
LINE
  8
0
 10
47.9466
 20
20.8579
 11
48.036
 21
20.7854
  0
LINE
  8
0
 10
48.036
 20
20.7854
 11
48.1174
 21
20.704
  0
LINE
  8
0
 10
48.1174
 20
20.704
 11
48.1899
 21
20.6146
  0
LINE
  8
0
 10
48.1899
 20
20.6146
 11
48.2526
 21
20.518
  0
LINE
  8
0
 10
48.2526
 20
20.518
 11
48.3049
 21
20.4154
  0
LINE
  8
0
 10
48.3049
 20
20.4154
 11
48.3462
 21
20.3079
  0
LINE
  8
0
 10
48.3462
 20
20.3079
 11
48.376
 21
20.1967
  0
LINE
  8
0
 10
48.376
 20
20.1967
 11
48.394
 21
20.083
  0
LINE
  8
0
 10
48.394
 20
20.083
 11
48.4
 21
19.968
  0
LINE
  8
0
 10
48.4
 20
19.968
 11
48.394
 21
19.853
  0
LINE
  8
0
 10
48.394
 20
19.853
 11
48.376
 21
19.7393
  0
LINE
  8
0
 10
48.376
 20
19.7393
 11
48.3462
 21
19.6281
  0
LINE
  8
0
 10
48.3462
 20
19.6281
 11
48.3049
 21
19.5206
  0
LINE
  8
0
 10
48.3049
 20
19.5206
 11
48.2526
 21
19.418
  0
LINE
  8
0
 10
48.2526
 20
19.418
 11
48.1899
 21
19.3214
  0
LINE
  8
0
 10
48.1899
 20
19.3214
 11
48.1174
 21
19.2319
  0
LINE
  8
0
 10
48.1174
 20
19.2319
 11
48.036
 21
19.1505
  0
LINE
  8
0
 10
48.036
 20
19.1505
 11
47.9466
 21
19.0781
  0
LINE
  8
0
 10
47.9466
 20
19.0781
 11
47.85
 21
19.0154
  0
LINE
  8
0
 10
47.85
 20
19.0154
 11
47.7474
 21
18.9631
  0
LINE
  8
0
 10
47.7474
 20
18.9631
 11
47.6399
 21
18.9218
  0
LINE
  8
0
 10
47.6399
 20
18.9218
 11
47.5287
 21
18.892
  0
LINE
  8
0
 10
47.5287
 20
18.892
 11
47.415
 21
18.874
  0
LINE
  8
0
 10
47.415
 20
18.874
 11
47.3
 21
18.868
  0
LINE
  8
0
 10
47.3
 20
18.868
 11
47.185
 21
18.874
  0
LINE
  8
0
 10
21.785
 20
18.874
 11
21.6713
 21
18.892
  0
LINE
  8
0
 10
21.6713
 20
18.892
 11
21.5601
 21
18.9218
  0
LINE
  8
0
 10
21.5601
 20
18.9218
 11
21.4526
 21
18.9631
  0
LINE
  8
0
 10
21.4526
 20
18.9631
 11
21.35
 21
19.0154
  0
LINE
  8
0
 10
21.35
 20
19.0154
 11
21.2534
 21
19.0781
  0
LINE
  8
0
 10
21.2534
 20
19.0781
 11
21.164
 21
19.1505
  0
LINE
  8
0
 10
21.164
 20
19.1505
 11
21.0825
 21
19.2319
  0
LINE
  8
0
 10
21.0825
 20
19.2319
 11
21.0101
 21
19.3214
  0
LINE
  8
0
 10
21.0101
 20
19.3214
 11
20.9474
 21
19.418
  0
LINE
  8
0
 10
20.9474
 20
19.418
 11
20.8951
 21
19.5206
  0
LINE
  8
0
 10
20.8951
 20
19.5206
 11
20.8538
 21
19.6281
  0
LINE
  8
0
 10
20.8538
 20
19.6281
 11
20.824
 21
19.7393
  0
LINE
  8
0
 10
20.824
 20
19.7393
 11
20.806
 21
19.853
  0
LINE
  8
0
 10
20.806
 20
19.853
 11
20.8
 21
19.968
  0
LINE
  8
0
 10
20.8
 20
19.968
 11
20.806
 21
20.083
  0
LINE
  8
0
 10
20.806
 20
20.083
 11
20.824
 21
20.1967
  0
LINE
  8
0
 10
20.824
 20
20.1967
 11
20.8538
 21
20.3079
  0
LINE
  8
0
 10
20.8538
 20
20.3079
 11
20.8951
 21
20.4154
  0
LINE
  8
0
 10
20.8951
 20
20.4154
 11
20.9474
 21
20.518
  0
LINE
  8
0
 10
20.9474
 20
20.518
 11
21.0101
 21
20.6146
  0
LINE
  8
0
 10
21.0101
 20
20.6146
 11
21.0825
 21
20.704
  0
LINE
  8
0
 10
21.0825
 20
20.704
 11
21.164
 21
20.7854
  0
LINE
  8
0
 10
21.164
 20
20.7854
 11
21.2534
 21
20.8579
  0
LINE
  8
0
 10
21.2534
 20
20.8579
 11
21.35
 21
20.9206
  0
LINE
  8
0
 10
21.35
 20
20.9206
 11
21.4526
 21
20.9729
  0
LINE
  8
0
 10
21.4526
 20
20.9729
 11
21.5601
 21
21.0142
  0
LINE
  8
0
 10
21.5601
 20
21.0142
 11
21.6713
 21
21.044
  0
LINE
  8
0
 10
21.6713
 20
21.044
 11
21.785
 21
21.062
  0
LINE
  8
0
 10
21.785
 20
21.062
 11
21.9
 21
21.068
  0
LINE
  8
0
 10
21.9
 20
21.068
 11
22.015
 21
21.062
  0
LINE
  8
0
 10
22.015
 20
21.062
 11
22.1287
 21
21.044
  0
LINE
  8
0
 10
22.1287
 20
21.044
 11
22.2399
 21
21.0142
  0
LINE
  8
0
 10
22.2399
 20
21.0142
 11
22.3474
 21
20.9729
  0
LINE
  8
0
 10
22.3474
 20
20.9729
 11
22.45
 21
20.9206
  0
LINE
  8
0
 10
22.45
 20
20.9206
 11
22.5466
 21
20.8579
  0
LINE
  8
0
 10
22.5466
 20
20.8579
 11
22.636
 21
20.7854
  0
LINE
  8
0
 10
22.636
 20
20.7854
 11
22.7175
 21
20.704
  0
LINE
  8
0
 10
22.7175
 20
20.704
 11
22.7899
 21
20.6146
  0
LINE
  8
0
 10
22.7899
 20
20.6146
 11
22.8526
 21
20.518
  0
LINE
  8
0
 10
22.8526
 20
20.518
 11
22.9049
 21
20.4154
  0
LINE
  8
0
 10
22.9049
 20
20.4154
 11
22.9462
 21
20.3079
  0
LINE
  8
0
 10
22.9462
 20
20.3079
 11
22.976
 21
20.1967
  0
LINE
  8
0
 10
22.976
 20
20.1967
 11
22.994
 21
20.083
  0
LINE
  8
0
 10
22.994
 20
20.083
 11
23
 21
19.968
  0
LINE
  8
0
 10
23
 20
19.968
 11
22.994
 21
19.853
  0
LINE
  8
0
 10
22.994
 20
19.853
 11
22.976
 21
19.7393
  0
LINE
  8
0
 10
22.976
 20
19.7393
 11
22.9462
 21
19.6281
  0
LINE
  8
0
 10
22.9462
 20
19.6281
 11
22.9049
 21
19.5206
  0
LINE
  8
0
 10
22.9049
 20
19.5206
 11
22.8526
 21
19.418
  0
LINE
  8
0
 10
22.8526
 20
19.418
 11
22.7899
 21
19.3214
  0
LINE
  8
0
 10
22.7899
 20
19.3214
 11
22.7175
 21
19.2319
  0
LINE
  8
0
 10
22.7175
 20
19.2319
 11
22.636
 21
19.1505
  0
LINE
  8
0
 10
22.636
 20
19.1505
 11
22.5466
 21
19.0781
  0
LINE
  8
0
 10
22.5466
 20
19.0781
 11
22.45
 21
19.0154
  0
LINE
  8
0
 10
22.45
 20
19.0154
 11
22.3474
 21
18.9631
  0
LINE
  8
0
 10
22.3474
 20
18.9631
 11
22.2399
 21
18.9218
  0
LINE
  8
0
 10
22.2399
 20
18.9218
 11
22.1287
 21
18.892
  0
LINE
  8
0
 10
22.1287
 20
18.892
 11
22.015
 21
18.874
  0
LINE
  8
0
 10
22.015
 20
18.874
 11
21.9
 21
18.868
  0
LINE
  8
0
 10
21.9
 20
18.868
 11
21.785
 21
18.874
  0
LINE
  8
0
 10
9.2
 20
13.09
 11
9.2
 21
18.09
  0
LINE
  8
0
 10
9.2
 20
18.09
 11
60
 21
18.09
  0
LINE
  8
0
 10
60
 20
18.09
 11
60
 21
13.09
  0
LINE
  8
0
 10
60
 20
13.09
 11
9.2
 21
13.09
  0
LINE
  8
0
 10
24.516
 20
3.31697
 11
24.1955
 21
3.36774
  0
LINE
  8
0
 10
24.1955
 20
3.36774
 11
23.882
 21
3.45172
  0
LINE
  8
0
 10
23.882
 20
3.45172
 11
23.5791
 21
3.56801
  0
LINE
  8
0
 10
23.5791
 20
3.56801
 11
23.29
 21
3.71532
  0
LINE
  8
0
 10
23.29
 20
3.71532
 11
23.0179
 21
3.89204
  0
LINE
  8
0
 10
23.0179
 20
3.89204
 11
22.7657
 21
4.09624
  0
LINE
  8
0
 10
22.7657
 20
4.09624
 11
22.5362
 21
4.32568
  0
LINE
  8
0
 10
22.5362
 20
4.32568
 11
22.332
 21
4.57787
  0
LINE
  8
0
 10
22.332
 20
4.57787
 11
22.1553
 21
4.84999
  0
LINE
  8
0
 10
22.1553
 20
4.84999
 11
22.008
 21
5.13911
  0
LINE
  8
0
 10
22.008
 20
5.13911
 11
21.8917
 21
5.44205
  0
LINE
  8
0
 10
21.8917
 20
5.44205
 11
21.8077
 21
5.75546
  0
LINE
  8
0
 10
21.8077
 20
5.75546
 11
21.757
 21
6.07596
  0
LINE
  8
0
 10
21.757
 20
6.07596
 11
21.74
 21
6.39999
  0
LINE
  8
0
 10
21.74
 20
6.39999
 11
21.757
 21
6.72403
  0
LINE
  8
0
 10
21.757
 20
6.72403
 11
21.8077
 21
7.04453
  0
LINE
  8
0
 10
21.8077
 20
7.04453
 11
21.8917
 21
7.35794
  0
LINE
  8
0
 10
21.8917
 20
7.35794
 11
22.008
 21
7.66087
  0
LINE
  8
0
 10
22.008
 20
7.66087
 11
22.1553
 21
7.95
  0
LINE
  8
0
 10
22.1553
 20
7.95
 11
22.332
 21
8.22212
  0
LINE
  8
0
 10
22.332
 20
8.22212
 11
22.5362
 21
8.4743
  0
LINE
  8
0
 10
22.5362
 20
8.4743
 11
22.7657
 21
8.70374
  0
LINE
  8
0
 10
22.7657
 20
8.70374
 11
23.0179
 21
8.90794
  0
LINE
  8
0
 10
23.0179
 20
8.90794
 11
23.29
 21
9.08467
  0
LINE
  8
0
 10
23.29
 20
9.08467
 11
23.5791
 21
9.23198
  0
LINE
  8
0
 10
23.5791
 20
9.23198
 11
23.882
 21
9.34827
  0
LINE
  8
0
 10
23.882
 20
9.34827
 11
24.1955
 21
9.43225
  0
LINE
  8
0
 10
24.1955
 20
9.43225
 11
24.516
 21
9.48302
  0
LINE
  8
0
 10
24.516
 20
9.48302
 11
24.84
 21
9.5
  0
LINE
  8
0
 10
24.84
 20
9.5
 11
25.164
 21
9.48302
  0
LINE
  8
0
 10
25.164
 20
9.48302
 11
25.4845
 21
9.43225
  0
LINE
  8
0
 10
25.4845
 20
9.43225
 11
25.7979
 21
9.34827
  0
LINE
  8
0
 10
25.7979
 20
9.34827
 11
26.1009
 21
9.23198
  0
LINE
  8
0
 10
26.1009
 20
9.23198
 11
26.39
 21
9.08467
  0
LINE
  8
0
 10
26.39
 20
9.08467
 11
26.6621
 21
8.90794
  0
LINE
  8
0
 10
26.6621
 20
8.90794
 11
26.9143
 21
8.70374
  0
LINE
  8
0
 10
26.9143
 20
8.70374
 11
27.1437
 21
8.4743
  0
LINE
  8
0
 10
27.1437
 20
8.4743
 11
27.3479
 21
8.22212
  0
LINE
  8
0
 10
27.3479
 20
8.22212
 11
27.5247
 21
7.95
  0
LINE
  8
0
 10
27.5247
 20
7.95
 11
27.672
 21
7.66087
  0
LINE
  8
0
 10
27.672
 20
7.66087
 11
27.7883
 21
7.35794
  0
LINE
  8
0
 10
27.7883
 20
7.35794
 11
27.8723
 21
7.04453
  0
LINE
  8
0
 10
27.8723
 20
7.04453
 11
27.923
 21
6.72403
  0
LINE
  8
0
 10
27.923
 20
6.72403
 11
27.94
 21
6.39999
  0
LINE
  8
0
 10
27.94
 20
6.39999
 11
27.923
 21
6.07596
  0
LINE
  8
0
 10
27.923
 20
6.07596
 11
27.8723
 21
5.75546
  0
LINE
  8
0
 10
27.8723
 20
5.75546
 11
27.7883
 21
5.44205
  0
LINE
  8
0
 10
27.7883
 20
5.44205
 11
27.672
 21
5.13911
  0
LINE
  8
0
 10
27.672
 20
5.13911
 11
27.5247
 21
4.84999
  0
LINE
  8
0
 10
27.5247
 20
4.84999
 11
27.3479
 21
4.57787
  0
LINE
  8
0
 10
27.3479
 20
4.57787
 11
27.1437
 21
4.32568
  0
LINE
  8
0
 10
27.1437
 20
4.32568
 11
26.9143
 21
4.09624
  0
LINE
  8
0
 10
26.9143
 20
4.09624
 11
26.6621
 21
3.89204
  0
LINE
  8
0
 10
26.6621
 20
3.89204
 11
26.39
 21
3.71532
  0
LINE
  8
0
 10
26.39
 20
3.71532
 11
26.1009
 21
3.56801
  0
LINE
  8
0
 10
26.1009
 20
3.56801
 11
25.7979
 21
3.45172
  0
LINE
  8
0
 10
25.7979
 20
3.45172
 11
25.4845
 21
3.36774
  0
LINE
  8
0
 10
25.4845
 20
3.36774
 11
25.164
 21
3.31697
  0
LINE
  8
0
 10
25.164
 20
3.31697
 11
24.84
 21
3.29999
  0
LINE
  8
0
 10
24.84
 20
3.29999
 11
24.516
 21
3.31697
  0
LINE
  8
0
 10
49.516
 20
3.31697
 11
49.1955
 21
3.36774
  0
LINE
  8
0
 10
49.1955
 20
3.36774
 11
48.882
 21
3.45172
  0
LINE
  8
0
 10
48.882
 20
3.45172
 11
48.5791
 21
3.56801
  0
LINE
  8
0
 10
48.5791
 20
3.56801
 11
48.29
 21
3.71532
  0
LINE
  8
0
 10
48.29
 20
3.71532
 11
48.0179
 21
3.89204
  0
LINE
  8
0
 10
48.0179
 20
3.89204
 11
47.7657
 21
4.09624
  0
LINE
  8
0
 10
47.7657
 20
4.09624
 11
47.5362
 21
4.32568
  0
LINE
  8
0
 10
47.5362
 20
4.32568
 11
47.332
 21
4.57787
  0
LINE
  8
0
 10
47.332
 20
4.57787
 11
47.1553
 21
4.84999
  0
LINE
  8
0
 10
47.1553
 20
4.84999
 11
47.008
 21
5.13911
  0
LINE
  8
0
 10
47.008
 20
5.13911
 11
46.8917
 21
5.44205
  0
LINE
  8
0
 10
46.8917
 20
5.44205
 11
46.8077
 21
5.75546
  0
LINE
  8
0
 10
46.8077
 20
5.75546
 11
46.757
 21
6.07596
  0
LINE
  8
0
 10
46.757
 20
6.07596
 11
46.74
 21
6.39999
  0
LINE
  8
0
 10
46.74
 20
6.39999
 11
46.757
 21
6.72403
  0
LINE
  8
0
 10
46.757
 20
6.72403
 11
46.8077
 21
7.04453
  0
LINE
  8
0
 10
46.8077
 20
7.04453
 11
46.8917
 21
7.35794
  0
LINE
  8
0
 10
46.8917
 20
7.35794
 11
47.008
 21
7.66087
  0
LINE
  8
0
 10
47.008
 20
7.66087
 11
47.1553
 21
7.95
  0
LINE
  8
0
 10
47.1553
 20
7.95
 11
47.332
 21
8.22212
  0
LINE
  8
0
 10
47.332
 20
8.22212
 11
47.5362
 21
8.4743
  0
LINE
  8
0
 10
47.5362
 20
8.4743
 11
47.7657
 21
8.70374
  0
LINE
  8
0
 10
47.7657
 20
8.70374
 11
48.0179
 21
8.90794
  0
LINE
  8
0
 10
48.0179
 20
8.90794
 11
48.29
 21
9.08467
  0
LINE
  8
0
 10
48.29
 20
9.08467
 11
48.5791
 21
9.23198
  0
LINE
  8
0
 10
48.5791
 20
9.23198
 11
48.882
 21
9.34827
  0
LINE
  8
0
 10
48.882
 20
9.34827
 11
49.1955
 21
9.43225
  0
LINE
  8
0
 10
49.1955
 20
9.43225
 11
49.516
 21
9.48302
  0
LINE
  8
0
 10
49.516
 20
9.48302
 11
49.84
 21
9.5
  0
LINE
  8
0
 10
49.84
 20
9.5
 11
50.164
 21
9.48302
  0
LINE
  8
0
 10
50.164
 20
9.48302
 11
50.4845
 21
9.43225
  0
LINE
  8
0
 10
50.4845
 20
9.43225
 11
50.7979
 21
9.34827
  0
LINE
  8
0
 10
50.7979
 20
9.34827
 11
51.1009
 21
9.23198
  0
LINE
  8
0
 10
51.1009
 20
9.23198
 11
51.39
 21
9.08467
  0
LINE
  8
0
 10
51.39
 20
9.08467
 11
51.6621
 21
8.90794
  0
LINE
  8
0
 10
51.6621
 20
8.90794
 11
51.9143
 21
8.70374
  0
LINE
  8
0
 10
51.9143
 20
8.70374
 11
52.1437
 21
8.4743
  0
LINE
  8
0
 10
52.1437
 20
8.4743
 11
52.3479
 21
8.22212
  0
LINE
  8
0
 10
52.3479
 20
8.22212
 11
52.5247
 21
7.95
  0
LINE
  8
0
 10
52.5247
 20
7.95
 11
52.672
 21
7.66087
  0
LINE
  8
0
 10
52.672
 20
7.66087
 11
52.7883
 21
7.35794
  0
LINE
  8
0
 10
52.7883
 20
7.35794
 11
52.8723
 21
7.04453
  0
LINE
  8
0
 10
52.8723
 20
7.04453
 11
52.923
 21
6.72403
  0
LINE
  8
0
 10
52.923
 20
6.72403
 11
52.94
 21
6.39999
  0
LINE
  8
0
 10
52.94
 20
6.39999
 11
52.923
 21
6.07596
  0
LINE
  8
0
 10
52.923
 20
6.07596
 11
52.8723
 21
5.75546
  0
LINE
  8
0
 10
52.8723
 20
5.75546
 11
52.7883
 21
5.44205
  0
LINE
  8
0
 10
52.7883
 20
5.44205
 11
52.672
 21
5.13911
  0
LINE
  8
0
 10
52.672
 20
5.13911
 11
52.5247
 21
4.84999
  0
LINE
  8
0
 10
52.5247
 20
4.84999
 11
52.3479
 21
4.57787
  0
LINE
  8
0
 10
52.3479
 20
4.57787
 11
52.1437
 21
4.32568
  0
LINE
  8
0
 10
52.1437
 20
4.32568
 11
51.9143
 21
4.09624
  0
LINE
  8
0
 10
51.9143
 20
4.09624
 11
51.6621
 21
3.89204
  0
LINE
  8
0
 10
51.6621
 20
3.89204
 11
51.39
 21
3.71532
  0
LINE
  8
0
 10
51.39
 20
3.71532
 11
51.1009
 21
3.56801
  0
LINE
  8
0
 10
51.1009
 20
3.56801
 11
50.7979
 21
3.45172
  0
LINE
  8
0
 10
50.7979
 20
3.45172
 11
50.4845
 21
3.36774
  0
LINE
  8
0
 10
50.4845
 20
3.36774
 11
50.164
 21
3.31697
  0
LINE
  8
0
 10
50.164
 20
3.31697
 11
49.84
 21
3.29999
  0
LINE
  8
0
 10
49.84
 20
3.29999
 11
49.516
 21
3.31697
  0
LINE
  8
0
 10
68
 20
2
 11
68
 21
8.09999
  0
LINE
  8
0
 10
68
 20
8.09999
 11
118
 21
8.09999
  0
LINE
  8
0
 10
118
 20
8.09999
 11
118
 21
2
  0
LINE
  8
0
 10
118
 20
2
 11
68
 21
2
  0
ENDSEC
  0
SECTION
  2
OBJECTS
  0
DICTIONARY
  0
ENDSEC
  0
EOF
