  0
SECTION
  2
BLOCKS
  0
ENDSEC
  0
SECTION
  2
ENTITIES
  0
LINE
  8
0
 10
5.23332
 20
-0.5
 11
12.1
 21
-0.5
  0
LINE
  8
0
 10
12.1
 20
-0.5
 11
12.1
 21
-3.5
  0
LINE
  8
0
 10
12.1
 20
-3.5
 11
18.5667
 21
-3.5
  0
LINE
  8
0
 10
18.5667
 20
-3.5
 11
18.5667
 21
-0.5
  0
LINE
  8
0
 10
18.5667
 20
-0.5
 11
25.4333
 21
-0.5
  0
LINE
  8
0
 10
25.4333
 20
-0.5
 11
25.4333
 21
-3.5
  0
LINE
  8
0
 10
25.4333
 20
-3.5
 11
31.9
 21
-3.5
  0
LINE
  8
0
 10
31.9
 20
-3.5
 11
31.9
 21
-0.5
  0
LINE
  8
0
 10
31.9
 20
-0.5
 11
32
 21
-0.5
  0
LINE
  8
0
 10
32
 20
-0.5
 11
32
 21
6.22726
  0
LINE
  8
0
 10
32
 20
6.22726
 11
35
 21
6.22726
  0
LINE
  8
0
 10
35
 20
6.22726
 11
35
 21
15.4091
  0
LINE
  8
0
 10
35
 20
15.4091
 11
32
 21
15.4091
  0
LINE
  8
0
 10
32
 20
15.4091
 11
32
 21
25.6818
  0
LINE
  8
0
 10
32
 20
25.6818
 11
35
 21
25.6818
  0
LINE
  8
0
 10
35
 20
25.6818
 11
35
 21
34.8636
  0
LINE
  8
0
 10
35
 20
34.8636
 11
32
 21
34.8636
  0
LINE
  8
0
 10
32
 20
34.8636
 11
32
 21
45.1364
  0
LINE
  8
0
 10
32
 20
45.1364
 11
35
 21
45.1364
  0
LINE
  8
0
 10
35
 20
45.1364
 11
35
 21
54.3182
  0
LINE
  8
0
 10
35
 20
54.3182
 11
32
 21
54.3182
  0
LINE
  8
0
 10
32
 20
54.3182
 11
32
 21
64.5909
  0
LINE
  8
0
 10
32
 20
64.5909
 11
35
 21
64.5909
  0
LINE
  8
0
 10
35
 20
64.5909
 11
35
 21
73.7727
  0
LINE
  8
0
 10
35
 20
73.7727
 11
32
 21
73.7727
  0
LINE
  8
0
 10
32
 20
73.7727
 11
32
 21
84.0455
  0
LINE
  8
0
 10
32
 20
84.0455
 11
35
 21
84.0455
  0
LINE
  8
0
 10
35
 20
84.0455
 11
35
 21
93.2273
  0
LINE
  8
0
 10
35
 20
93.2273
 11
32
 21
93.2273
  0
LINE
  8
0
 10
32
 20
93.2273
 11
32
 21
100.5
  0
LINE
  8
0
 10
32
 20
100.5
 11
31.9
 21
100.5
  0
LINE
  8
0
 10
31.9
 20
100.5
 11
31.9
 21
103.5
  0
LINE
  8
0
 10
31.9
 20
103.5
 11
25.4333
 21
103.5
  0
LINE
  8
0
 10
25.4333
 20
103.5
 11
25.4333
 21
100.5
  0
LINE
  8
0
 10
25.4333
 20
100.5
 11
18.5667
 21
100.5
  0
LINE
  8
0
 10
18.5667
 20
100.5
 11
18.5667
 21
103.5
  0
LINE
  8
0
 10
18.5667
 20
103.5
 11
12.1
 21
103.5
  0
LINE
  8
0
 10
12.1
 20
103.5
 11
12.1
 21
100.5
  0
LINE
  8
0
 10
12.1
 20
100.5
 11
5.23332
 21
100.5
  0
LINE
  8
0
 10
5.23332
 20
100.5
 11
5.23332
 21
103.5
  0
LINE
  8
0
 10
5.23332
 20
103.5
 11
-1.23332
 21
103.5
  0
LINE
  8
0
 10
-1.23332
 20
103.5
 11
-1.23332
 21
100.5
  0
LINE
  8
0
 10
-1.23332
 20
100.5
 11
-8
 21
100.5
  0
LINE
  8
0
 10
-8
 20
100.5
 11
-8
 21
93.2273
  0
LINE
  8
0
 10
-8
 20
93.2273
 11
-11
 21
93.2273
  0
LINE
  8
0
 10
-11
 20
93.2273
 11
-11
 21
84.0455
  0
LINE
  8
0
 10
-11
 20
84.0455
 11
-8
 21
84.0455
  0
LINE
  8
0
 10
-8
 20
84.0455
 11
-8
 21
73.7727
  0
LINE
  8
0
 10
-8
 20
73.7727
 11
-11
 21
73.7727
  0
LINE
  8
0
 10
-11
 20
73.7727
 11
-11
 21
64.5909
  0
LINE
  8
0
 10
-11
 20
64.5909
 11
-8
 21
64.5909
  0
LINE
  8
0
 10
-8
 20
64.5909
 11
-8
 21
54.3182
  0
LINE
  8
0
 10
-8
 20
54.3182
 11
-11
 21
54.3182
  0
LINE
  8
0
 10
-11
 20
54.3182
 11
-11
 21
45.1364
  0
LINE
  8
0
 10
-11
 20
45.1364
 11
-8
 21
45.1364
  0
LINE
  8
0
 10
-8
 20
45.1364
 11
-8
 21
34.8636
  0
LINE
  8
0
 10
-8
 20
34.8636
 11
-11
 21
34.8636
  0
LINE
  8
0
 10
-11
 20
34.8636
 11
-11
 21
25.6818
  0
LINE
  8
0
 10
-11
 20
25.6818
 11
-8
 21
25.6818
  0
LINE
  8
0
 10
-8
 20
25.6818
 11
-8
 21
15.4091
  0
LINE
  8
0
 10
-8
 20
15.4091
 11
-11
 21
15.4091
  0
LINE
  8
0
 10
-11
 20
15.4091
 11
-11
 21
6.22726
  0
LINE
  8
0
 10
-11
 20
6.22726
 11
-8
 21
6.22726
  0
LINE
  8
0
 10
-8
 20
6.22726
 11
-8
 21
-0.5
  0
LINE
  8
0
 10
-8
 20
-0.5
 11
-1.23332
 21
-0.5
  0
LINE
  8
0
 10
-1.23332
 20
-0.5
 11
-1.23332
 21
-3.5
  0
LINE
  8
0
 10
-1.23332
 20
-3.5
 11
5.23332
 21
-3.5
  0
LINE
  8
0
 10
5.23332
 20
-3.5
 11
5.23332
 21
-0.5
  0
LINE
  8
0
 10
10.9025
 20
39.5575
 11
9.81693
 21
39.7294
  0
LINE
  8
0
 10
9.81693
 20
39.7294
 11
8.75531
 21
40.0139
  0
LINE
  8
0
 10
8.75531
 20
40.0139
 11
7.72926
 21
40.4078
  0
LINE
  8
0
 10
7.72926
 20
40.4078
 11
6.75
 21
40.9067
  0
LINE
  8
0
 10
6.75
 20
40.9067
 11
5.82825
 21
41.5053
  0
LINE
  8
0
 10
5.82825
 20
41.5053
 11
4.97412
 21
42.197
  0
LINE
  8
0
 10
4.97412
 20
42.197
 11
4.19698
 21
42.9741
  0
LINE
  8
0
 10
4.19698
 20
42.9741
 11
3.50531
 21
43.8282
  0
LINE
  8
0
 10
3.50531
 20
43.8282
 11
2.90672
 21
44.75
  0
LINE
  8
0
 10
2.90672
 20
44.75
 11
2.40776
 21
45.7293
  0
LINE
  8
0
 10
2.40776
 20
45.7293
 11
2.0139
 21
46.7553
  0
LINE
  8
0
 10
2.0139
 20
46.7553
 11
1.72945
 21
47.8169
  0
LINE
  8
0
 10
1.72945
 20
47.8169
 11
1.55751
 21
48.9025
  0
LINE
  8
0
 10
1.55751
 20
48.9025
 11
1.5
 21
50
  0
LINE
  8
0
 10
1.5
 20
50
 11
1.55751
 21
51.0975
  0
LINE
  8
0
 10
1.55751
 20
51.0975
 11
1.72945
 21
52.1831
  0
LINE
  8
0
 10
1.72945
 20
52.1831
 11
2.0139
 21
53.2447
  0
LINE
  8
0
 10
2.0139
 20
53.2447
 11
2.40776
 21
54.2707
  0
LINE
  8
0
 10
2.40776
 20
54.2707
 11
2.90672
 21
55.25
  0
LINE
  8
0
 10
2.90672
 20
55.25
 11
3.50531
 21
56.1717
  0
LINE
  8
0
 10
3.50531
 20
56.1717
 11
4.19698
 21
57.0259
  0
LINE
  8
0
 10
4.19698
 20
57.0259
 11
4.97412
 21
57.803
  0
LINE
  8
0
 10
4.97412
 20
57.803
 11
5.82825
 21
58.4947
  0
LINE
  8
0
 10
5.82825
 20
58.4947
 11
6.75
 21
59.0933
  0
LINE
  8
0
 10
6.75
 20
59.0933
 11
7.72926
 21
59.5922
  0
LINE
  8
0
 10
7.72926
 20
59.5922
 11
8.75531
 21
59.9861
  0
LINE
  8
0
 10
8.75531
 20
59.9861
 11
9.81693
 21
60.2705
  0
LINE
  8
0
 10
9.81693
 20
60.2705
 11
10.9025
 21
60.4425
  0
LINE
  8
0
 10
10.9025
 20
60.4425
 11
12
 21
60.5
  0
LINE
  8
0
 10
12
 20
60.5
 11
13.0975
 21
60.4425
  0
LINE
  8
0
 10
13.0975
 20
60.4425
 11
14.1831
 21
60.2705
  0
LINE
  8
0
 10
14.1831
 20
60.2705
 11
15.2447
 21
59.9861
  0
LINE
  8
0
 10
15.2447
 20
59.9861
 11
16.2707
 21
59.5922
  0
LINE
  8
0
 10
16.2707
 20
59.5922
 11
17.25
 21
59.0933
  0
LINE
  8
0
 10
17.25
 20
59.0933
 11
18.1717
 21
58.4947
  0
LINE
  8
0
 10
18.1717
 20
58.4947
 11
19.0259
 21
57.803
  0
LINE
  8
0
 10
19.0259
 20
57.803
 11
19.803
 21
57.0259
  0
LINE
  8
0
 10
19.803
 20
57.0259
 11
20.4947
 21
56.1717
  0
LINE
  8
0
 10
20.4947
 20
56.1717
 11
21.0933
 21
55.25
  0
LINE
  8
0
 10
21.0933
 20
55.25
 11
21.5922
 21
54.2707
  0
LINE
  8
0
 10
21.5922
 20
54.2707
 11
21.9861
 21
53.2447
  0
LINE
  8
0
 10
21.9861
 20
53.2447
 11
22.2705
 21
52.1831
  0
LINE
  8
0
 10
22.2705
 20
52.1831
 11
22.4425
 21
51.0975
  0
LINE
  8
0
 10
22.4425
 20
51.0975
 11
22.5
 21
50
  0
LINE
  8
0
 10
22.5
 20
50
 11
22.4425
 21
48.9025
  0
LINE
  8
0
 10
22.4425
 20
48.9025
 11
22.2705
 21
47.8169
  0
LINE
  8
0
 10
22.2705
 20
47.8169
 11
21.9861
 21
46.7553
  0
LINE
  8
0
 10
21.9861
 20
46.7553
 11
21.5922
 21
45.7293
  0
LINE
  8
0
 10
21.5922
 20
45.7293
 11
21.0933
 21
44.75
  0
LINE
  8
0
 10
21.0933
 20
44.75
 11
20.4947
 21
43.8282
  0
LINE
  8
0
 10
20.4947
 20
43.8282
 11
19.803
 21
42.9741
  0
LINE
  8
0
 10
19.803
 20
42.9741
 11
19.0259
 21
42.197
  0
LINE
  8
0
 10
19.0259
 20
42.197
 11
18.1717
 21
41.5053
  0
LINE
  8
0
 10
18.1717
 20
41.5053
 11
17.25
 21
40.9067
  0
LINE
  8
0
 10
17.25
 20
40.9067
 11
16.2707
 21
40.4078
  0
LINE
  8
0
 10
16.2707
 20
40.4078
 11
15.2447
 21
40.0139
  0
LINE
  8
0
 10
15.2447
 20
40.0139
 11
14.1831
 21
39.7294
  0
LINE
  8
0
 10
14.1831
 20
39.7294
 11
13.0975
 21
39.5575
  0
LINE
  8
0
 10
13.0975
 20
39.5575
 11
12
 21
39.5
  0
LINE
  8
0
 10
12
 20
39.5
 11
10.9025
 21
39.5575
  0
ENDSEC
  0
SECTION
  2
OBJECTS
  0
DICTIONARY
  0
ENDSEC
  0
EOF
