solid OpenSCAD_Model
  facet normal 0 0 -1
    outer loop
      vertex 120.5 10 8.1
      vertex 123.5 98 8.1
      vertex 123.5 10 8.1
    endloop
  endfacet
  facet normal -0 0 -1
    outer loop
      vertex 123.5 98 8.1
      vertex 120.5 10 8.1
      vertex 120.5 98 8.1
    endloop
  endfacet
  facet normal -0 0 1
    outer loop
      vertex 120.5 98 2
      vertex 123.5 10 2
      vertex 123.5 98 2
    endloop
  endfacet
  facet normal 0 0 1
    outer loop
      vertex 123.5 10 2
      vertex 120.5 98 2
      vertex 120.5 10 2
    endloop
  endfacet
  facet normal 0 -1 0
    outer loop
      vertex 120.5 98 2
      vertex 123.5 98 8.1
      vertex 120.5 98 8.1
    endloop
  endfacet
  facet normal 0 -1 -0
    outer loop
      vertex 123.5 98 8.1
      vertex 120.5 98 2
      vertex 123.5 98 2
    endloop
  endfacet
  facet normal 0 1 -0
    outer loop
      vertex 123.5 10 2
      vertex 120.5 10 8.1
      vertex 123.5 10 8.1
    endloop
  endfacet
  facet normal 0 1 0
    outer loop
      vertex 120.5 10 8.1
      vertex 123.5 10 2
      vertex 120.5 10 2
    endloop
  endfacet
  facet normal -1 0 0
    outer loop
      vertex 120.5 34.8636 -11
      vertex 120.5 25.6818 -11
      vertex 120.5 34.8636 -8
    endloop
  endfacet
  facet normal -1 0 0
    outer loop
      vertex 120.5 54.3182 -11
      vertex 120.5 45.1364 -11
      vertex 120.5 54.3182 -8
    endloop
  endfacet
  facet normal -1 0 0
    outer loop
      vertex 120.5 73.7727 -11
      vertex 120.5 64.5909 -11
      vertex 120.5 73.7727 -8
    endloop
  endfacet
  facet normal -1 0 0
    outer loop
      vertex 120.5 93.2273 -11
      vertex 120.5 84.0455 -11
      vertex 120.5 93.2273 -8
    endloop
  endfacet
  facet normal -1 0 0
    outer loop
      vertex 120.5 93.2273 -8
      vertex 120.5 100.5 -1.23333
      vertex 120.5 100.5 -8
    endloop
  endfacet
  facet normal -1 0 0
    outer loop
      vertex 120.5 100.5 -1.23333
      vertex 120.5 98 2
      vertex 120.5 100.5 5.23333
    endloop
  endfacet
  facet normal -1 0 0
    outer loop
      vertex 120.5 98 8.1
      vertex 120.5 100.5 5.23333
      vertex 120.5 98 2
    endloop
  endfacet
  facet normal -1 -0 0
    outer loop
      vertex 120.5 100.5 12.1
      vertex 120.5 98 8.1
      vertex 120.5 100.5 18.5667
    endloop
  endfacet
  facet normal -1 0 0
    outer loop
      vertex 120.5 84.0455 32
      vertex 120.5 100.5 18.5667
      vertex 120.5 98 8.1
    endloop
  endfacet
  facet normal -1 -0 -0
    outer loop
      vertex 120.5 93.2273 32
      vertex 120.5 100.5 18.5667
      vertex 120.5 84.0455 32
    endloop
  endfacet
  facet normal -1 0 0
    outer loop
      vertex 120.5 100.5 5.23333
      vertex 120.5 98 8.1
      vertex 120.5 100.5 12.1
    endloop
  endfacet
  facet normal -1 -0 0
    outer loop
      vertex 120.5 100.5 -1.23333
      vertex 120.5 93.2273 -8
      vertex 120.5 98 2
    endloop
  endfacet
  facet normal -1 0 0
    outer loop
      vertex 120.5 84.0455 -8
      vertex 120.5 93.2273 -8
      vertex 120.5 84.0455 -11
    endloop
  endfacet
  facet normal -1 0 0
    outer loop
      vertex 120.5 93.2273 -8
      vertex 120.5 84.0455 -8
      vertex 120.5 98 2
    endloop
  endfacet
  facet normal -1 0 0
    outer loop
      vertex 120.5 73.7727 -8
      vertex 120.5 98 2
      vertex 120.5 84.0455 -8
    endloop
  endfacet
  facet normal -1 0 0
    outer loop
      vertex 120.5 64.5909 -8
      vertex 120.5 73.7727 -8
      vertex 120.5 64.5909 -11
    endloop
  endfacet
  facet normal -1 0 0
    outer loop
      vertex 120.5 73.7727 -8
      vertex 120.5 64.5909 -8
      vertex 120.5 98 2
    endloop
  endfacet
  facet normal -1 0 0
    outer loop
      vertex 120.5 54.3182 -8
      vertex 120.5 98 2
      vertex 120.5 64.5909 -8
    endloop
  endfacet
  facet normal -1 0 0
    outer loop
      vertex 120.5 45.1364 -8
      vertex 120.5 54.3182 -8
      vertex 120.5 45.1364 -11
    endloop
  endfacet
  facet normal -1 0 0
    outer loop
      vertex 120.5 10 2
      vertex 120.5 54.3182 -8
      vertex 120.5 45.1364 -8
    endloop
  endfacet
  facet normal -1 0 0
    outer loop
      vertex 120.5 10 2
      vertex 120.5 45.1364 -8
      vertex 120.5 34.8636 -8
    endloop
  endfacet
  facet normal -1 0 0
    outer loop
      vertex 120.5 25.6818 -8
      vertex 120.5 34.8636 -8
      vertex 120.5 25.6818 -11
    endloop
  endfacet
  facet normal -1 0 0
    outer loop
      vertex 120.5 10 2
      vertex 120.5 34.8636 -8
      vertex 120.5 25.6818 -8
    endloop
  endfacet
  facet normal -1 0 0
    outer loop
      vertex 120.5 10 2
      vertex 120.5 25.6818 -8
      vertex 120.5 15.4091 -8
    endloop
  endfacet
  facet normal -1 0 0
    outer loop
      vertex 120.5 54.3182 -8
      vertex 120.5 10 2
      vertex 120.5 98 2
    endloop
  endfacet
  facet normal -1 0 0
    outer loop
      vertex 120.5 100.5 -1.23333
      vertex 120.5 103.5 5.23333
      vertex 120.5 103.5 -1.23333
    endloop
  endfacet
  facet normal -1 -0 0
    outer loop
      vertex 120.5 103.5 5.23333
      vertex 120.5 100.5 -1.23333
      vertex 120.5 100.5 5.23333
    endloop
  endfacet
  facet normal -1 0 0
    outer loop
      vertex 120.5 100.5 12.1
      vertex 120.5 103.5 18.5667
      vertex 120.5 103.5 12.1
    endloop
  endfacet
  facet normal -1 -0 0
    outer loop
      vertex 120.5 103.5 18.5667
      vertex 120.5 100.5 12.1
      vertex 120.5 100.5 18.5667
    endloop
  endfacet
  facet normal -1 0 0
    outer loop
      vertex 120.5 100.5 25.4333
      vertex 120.5 103.5 31.9
      vertex 120.5 103.5 25.4333
    endloop
  endfacet
  facet normal -1 -0 0
    outer loop
      vertex 120.5 103.5 31.9
      vertex 120.5 100.5 25.4333
      vertex 120.5 100.5 31.9
    endloop
  endfacet
  facet normal -1 0 0
    outer loop
      vertex 120.5 100.5 25.4333
      vertex 120.5 93.2273 32
      vertex 120.5 100.5 31.9
    endloop
  endfacet
  facet normal -1 0 0
    outer loop
      vertex 120.5 100.5 31.9
      vertex 120.5 93.2273 32
      vertex 120.5 100.5 32
    endloop
  endfacet
  facet normal -1 0 0
    outer loop
      vertex 120.5 93.2273 32
      vertex 120.5 84.0455 32
      vertex 120.5 93.2273 35
    endloop
  endfacet
  facet normal -1 0 0
    outer loop
      vertex 120.5 100.5 18.5667
      vertex 120.5 93.2273 32
      vertex 120.5 100.5 25.4333
    endloop
  endfacet
  facet normal -1 0 0
    outer loop
      vertex 120.5 98 8.1
      vertex 120.5 73.7727 32
      vertex 120.5 84.0455 32
    endloop
  endfacet
  facet normal -1 0 0
    outer loop
      vertex 120.5 73.7727 32
      vertex 120.5 64.5909 32
      vertex 120.5 73.7727 35
    endloop
  endfacet
  facet normal -1 0 0
    outer loop
      vertex 120.5 98 8.1
      vertex 120.5 64.5909 32
      vertex 120.5 73.7727 32
    endloop
  endfacet
  facet normal -1 0 0
    outer loop
      vertex 120.5 98 8.1
      vertex 120.5 54.3182 32
      vertex 120.5 64.5909 32
    endloop
  endfacet
  facet normal -1 0 0
    outer loop
      vertex 120.5 54.3182 32
      vertex 120.5 45.1364 32
      vertex 120.5 54.3182 35
    endloop
  endfacet
  facet normal -1 0 0
    outer loop
      vertex 120.5 10 8.1
      vertex 120.5 54.3182 32
      vertex 120.5 98 8.1
    endloop
  endfacet
  facet normal -1 -0 0
    outer loop
      vertex 120.5 54.3182 32
      vertex 120.5 10 8.1
      vertex 120.5 45.1364 32
    endloop
  endfacet
  facet normal -1 0 0
    outer loop
      vertex 120.5 34.8636 32
      vertex 120.5 25.6818 32
      vertex 120.5 34.8636 35
    endloop
  endfacet
  facet normal -1 -0 0
    outer loop
      vertex 120.5 45.1364 32
      vertex 120.5 10 8.1
      vertex 120.5 34.8636 32
    endloop
  endfacet
  facet normal -1 -0 0
    outer loop
      vertex 120.5 34.8636 32
      vertex 120.5 10 8.1
      vertex 120.5 25.6818 32
    endloop
  endfacet
  facet normal -1 -0 0
    outer loop
      vertex 120.5 25.6818 32
      vertex 120.5 10 8.1
      vertex 120.5 15.4091 32
    endloop
  endfacet
  facet normal -1 0 0
    outer loop
      vertex 120.5 -0.5 18.5667
      vertex 120.5 15.4091 32
      vertex 120.5 10 8.1
    endloop
  endfacet
  facet normal -1 0 0
    outer loop
      vertex 120.5 -0.5 -1.23333
      vertex 120.5 10 2
      vertex 120.5 6.22727 -8
    endloop
  endfacet
  facet normal -1 0 0
    outer loop
      vertex 120.5 -0.5 5.23333
      vertex 120.5 10 2
      vertex 120.5 -0.5 -1.23333
    endloop
  endfacet
  facet normal -1 0 0
    outer loop
      vertex 120.5 -0.5 18.5667
      vertex 120.5 10 8.1
      vertex 120.5 -0.5 12.1
    endloop
  endfacet
  facet normal -1 -0 0
    outer loop
      vertex 120.5 15.4091 35
      vertex 120.5 6.22727 32
      vertex 120.5 6.22727 35
    endloop
  endfacet
  facet normal -1 -0 0
    outer loop
      vertex 120.5 93.2273 35
      vertex 120.5 84.0455 32
      vertex 120.5 84.0455 35
    endloop
  endfacet
  facet normal -1 -0 0
    outer loop
      vertex 120.5 73.7727 35
      vertex 120.5 64.5909 32
      vertex 120.5 64.5909 35
    endloop
  endfacet
  facet normal -1 -0 0
    outer loop
      vertex 120.5 54.3182 35
      vertex 120.5 45.1364 32
      vertex 120.5 45.1364 35
    endloop
  endfacet
  facet normal -1 0 0
    outer loop
      vertex 120.5 -3.5 25.4333
      vertex 120.5 -0.5 31.9
      vertex 120.5 -0.5 25.4333
    endloop
  endfacet
  facet normal -1 -0 0
    outer loop
      vertex 120.5 -0.5 31.9
      vertex 120.5 -3.5 25.4333
      vertex 120.5 -3.5 31.9
    endloop
  endfacet
  facet normal -1 0 0
    outer loop
      vertex 120.5 -3.5 12.1
      vertex 120.5 -0.5 18.5667
      vertex 120.5 -0.5 12.1
    endloop
  endfacet
  facet normal -1 -0 0
    outer loop
      vertex 120.5 -0.5 18.5667
      vertex 120.5 -3.5 12.1
      vertex 120.5 -3.5 18.5667
    endloop
  endfacet
  facet normal -1 0 0
    outer loop
      vertex 120.5 -3.5 -1.23333
      vertex 120.5 -0.5 5.23333
      vertex 120.5 -0.5 -1.23333
    endloop
  endfacet
  facet normal -1 -0 0
    outer loop
      vertex 120.5 -0.5 5.23333
      vertex 120.5 -3.5 -1.23333
      vertex 120.5 -3.5 5.23333
    endloop
  endfacet
  facet normal -1 0 0
    outer loop
      vertex 120.5 -0.5 -1.23333
      vertex 120.5 6.22727 -8
      vertex 120.5 -0.5 -8
    endloop
  endfacet
  facet normal -1 0 0
    outer loop
      vertex 120.5 10 2
      vertex 120.5 -0.5 5.23333
      vertex 120.5 10 8.1
    endloop
  endfacet
  facet normal -1 -0 0
    outer loop
      vertex 120.5 10 8.1
      vertex 120.5 -0.5 5.23333
      vertex 120.5 -0.5 12.1
    endloop
  endfacet
  facet normal -1 -0 0
    outer loop
      vertex 120.5 15.4091 32
      vertex 120.5 -0.5 18.5667
      vertex 120.5 6.22727 32
    endloop
  endfacet
  facet normal -1 0 0
    outer loop
      vertex 120.5 15.4091 32
      vertex 120.5 6.22727 32
      vertex 120.5 15.4091 35
    endloop
  endfacet
  facet normal -1 0 0
    outer loop
      vertex 120.5 -0.5 25.4333
      vertex 120.5 6.22727 32
      vertex 120.5 -0.5 18.5667
    endloop
  endfacet
  facet normal -1 0 0
    outer loop
      vertex 120.5 -0.5 31.9
      vertex 120.5 6.22727 32
      vertex 120.5 -0.5 25.4333
    endloop
  endfacet
  facet normal -1 -0 0
    outer loop
      vertex 120.5 6.22727 32
      vertex 120.5 -0.5 31.9
      vertex 120.5 -0.5 32
    endloop
  endfacet
  facet normal -1 0 0
    outer loop
      vertex 120.5 6.22727 -11
      vertex 120.5 15.4091 -8
      vertex 120.5 15.4091 -11
    endloop
  endfacet
  facet normal -1 0 0
    outer loop
      vertex 120.5 15.4091 -8
      vertex 120.5 6.22727 -8
      vertex 120.5 10 2
    endloop
  endfacet
  facet normal -1 0 0
    outer loop
      vertex 120.5 6.22727 -8
      vertex 120.5 15.4091 -8
      vertex 120.5 6.22727 -11
    endloop
  endfacet
  facet normal -1 -0 0
    outer loop
      vertex 120.5 34.8636 35
      vertex 120.5 25.6818 32
      vertex 120.5 25.6818 35
    endloop
  endfacet
  facet normal -0 0 1
    outer loop
      vertex 120.5 84.0455 32
      vertex 123.5 73.7727 32
      vertex 123.5 84.0455 32
    endloop
  endfacet
  facet normal 0 0 1
    outer loop
      vertex 123.5 73.7727 32
      vertex 120.5 84.0455 32
      vertex 120.5 73.7727 32
    endloop
  endfacet
  facet normal -0 0 1
    outer loop
      vertex 120.5 100.5 32
      vertex 123.5 93.2273 32
      vertex 123.5 100.5 32
    endloop
  endfacet
  facet normal 0 0 1
    outer loop
      vertex 123.5 93.2273 32
      vertex 120.5 100.5 32
      vertex 120.5 93.2273 32
    endloop
  endfacet
  facet normal -0 0 1
    outer loop
      vertex 120.5 64.5909 32
      vertex 123.5 54.3182 32
      vertex 123.5 64.5909 32
    endloop
  endfacet
  facet normal 0 0 1
    outer loop
      vertex 123.5 54.3182 32
      vertex 120.5 64.5909 32
      vertex 120.5 54.3182 32
    endloop
  endfacet
  facet normal -0 0 1
    outer loop
      vertex 120.5 45.1364 32
      vertex 123.5 34.8636 32
      vertex 123.5 45.1364 32
    endloop
  endfacet
  facet normal 0 0 1
    outer loop
      vertex 123.5 34.8636 32
      vertex 120.5 45.1364 32
      vertex 120.5 34.8636 32
    endloop
  endfacet
  facet normal -0 0 1
    outer loop
      vertex 120.5 25.6818 32
      vertex 123.5 15.4091 32
      vertex 123.5 25.6818 32
    endloop
  endfacet
  facet normal 0 0 1
    outer loop
      vertex 123.5 15.4091 32
      vertex 120.5 25.6818 32
      vertex 120.5 15.4091 32
    endloop
  endfacet
  facet normal -0 0 1
    outer loop
      vertex 120.5 6.22727 32
      vertex 123.5 -0.5 32
      vertex 123.5 6.22727 32
    endloop
  endfacet
  facet normal 0 0 1
    outer loop
      vertex 123.5 -0.5 32
      vertex 120.5 6.22727 32
      vertex 120.5 -0.5 32
    endloop
  endfacet
  facet normal 1 0 0
    outer loop
      vertex 123.5 34.8636 35
      vertex 123.5 25.6818 35
      vertex 123.5 34.8636 32
    endloop
  endfacet
  facet normal 1 0 0
    outer loop
      vertex 123.5 54.3182 35
      vertex 123.5 45.1364 35
      vertex 123.5 54.3182 32
    endloop
  endfacet
  facet normal 1 0 0
    outer loop
      vertex 123.5 73.7727 35
      vertex 123.5 64.5909 35
      vertex 123.5 73.7727 32
    endloop
  endfacet
  facet normal 1 0 0
    outer loop
      vertex 123.5 93.2273 35
      vertex 123.5 84.0455 35
      vertex 123.5 93.2273 32
    endloop
  endfacet
  facet normal 1 -0 0
    outer loop
      vertex 123.5 93.2273 32
      vertex 123.5 100.5 31.9
      vertex 123.5 100.5 32
    endloop
  endfacet
  facet normal 1 0 0
    outer loop
      vertex 123.5 100.5 31.9
      vertex 123.5 93.2273 32
      vertex 123.5 100.5 25.4333
    endloop
  endfacet
  facet normal 1 0 0
    outer loop
      vertex 123.5 100.5 25.4333
      vertex 123.5 93.2273 32
      vertex 123.5 100.5 18.5667
    endloop
  endfacet
  facet normal 1 -0 0
    outer loop
      vertex 123.5 84.0455 32
      vertex 123.5 100.5 18.5667
      vertex 123.5 93.2273 32
    endloop
  endfacet
  facet normal 1 0 0
    outer loop
      vertex 123.5 100.5 12.1
      vertex 123.5 98 8.1
      vertex 123.5 100.5 5.23333
    endloop
  endfacet
  facet normal 1 0 0
    outer loop
      vertex 123.5 98 2
      vertex 123.5 100.5 5.23333
      vertex 123.5 98 8.1
    endloop
  endfacet
  facet normal 1 0 0
    outer loop
      vertex 123.5 100.5 5.23333
      vertex 123.5 98 2
      vertex 123.5 100.5 -1.23333
    endloop
  endfacet
  facet normal 1 0 -0
    outer loop
      vertex 123.5 98 8.1
      vertex 123.5 100.5 18.5667
      vertex 123.5 84.0455 32
    endloop
  endfacet
  facet normal 1 0 0
    outer loop
      vertex 123.5 84.0455 32
      vertex 123.5 93.2273 32
      vertex 123.5 84.0455 35
    endloop
  endfacet
  facet normal 1 0 0
    outer loop
      vertex 123.5 100.5 18.5667
      vertex 123.5 98 8.1
      vertex 123.5 100.5 12.1
    endloop
  endfacet
  facet normal 1 -0 0
    outer loop
      vertex 123.5 73.7727 32
      vertex 123.5 98 8.1
      vertex 123.5 84.0455 32
    endloop
  endfacet
  facet normal 1 0 0
    outer loop
      vertex 123.5 64.5909 32
      vertex 123.5 73.7727 32
      vertex 123.5 64.5909 35
    endloop
  endfacet
  facet normal 1 0 0
    outer loop
      vertex 123.5 73.7727 32
      vertex 123.5 64.5909 32
      vertex 123.5 98 8.1
    endloop
  endfacet
  facet normal 1 -0 0
    outer loop
      vertex 123.5 54.3182 32
      vertex 123.5 98 8.1
      vertex 123.5 64.5909 32
    endloop
  endfacet
  facet normal 1 0 0
    outer loop
      vertex 123.5 45.1364 32
      vertex 123.5 54.3182 32
      vertex 123.5 45.1364 35
    endloop
  endfacet
  facet normal 1 0 0
    outer loop
      vertex 123.5 10 8.1
      vertex 123.5 54.3182 32
      vertex 123.5 45.1364 32
    endloop
  endfacet
  facet normal 1 0 0
    outer loop
      vertex 123.5 10 8.1
      vertex 123.5 45.1364 32
      vertex 123.5 34.8636 32
    endloop
  endfacet
  facet normal 1 0 0
    outer loop
      vertex 123.5 25.6818 32
      vertex 123.5 34.8636 32
      vertex 123.5 25.6818 35
    endloop
  endfacet
  facet normal 1 0 0
    outer loop
      vertex 123.5 10 8.1
      vertex 123.5 34.8636 32
      vertex 123.5 25.6818 32
    endloop
  endfacet
  facet normal 1 0 0
    outer loop
      vertex 123.5 10 8.1
      vertex 123.5 25.6818 32
      vertex 123.5 15.4091 32
    endloop
  endfacet
  facet normal 1 0 0
    outer loop
      vertex 123.5 54.3182 32
      vertex 123.5 10 8.1
      vertex 123.5 98 8.1
    endloop
  endfacet
  facet normal 1 -0 0
    outer loop
      vertex 123.5 100.5 31.9
      vertex 123.5 103.5 25.4333
      vertex 123.5 103.5 31.9
    endloop
  endfacet
  facet normal 1 0 0
    outer loop
      vertex 123.5 103.5 25.4333
      vertex 123.5 100.5 31.9
      vertex 123.5 100.5 25.4333
    endloop
  endfacet
  facet normal 1 -0 0
    outer loop
      vertex 123.5 100.5 18.5667
      vertex 123.5 103.5 12.1
      vertex 123.5 103.5 18.5667
    endloop
  endfacet
  facet normal 1 0 0
    outer loop
      vertex 123.5 103.5 12.1
      vertex 123.5 100.5 18.5667
      vertex 123.5 100.5 12.1
    endloop
  endfacet
  facet normal 1 -0 0
    outer loop
      vertex 123.5 100.5 5.23333
      vertex 123.5 103.5 -1.23333
      vertex 123.5 103.5 5.23333
    endloop
  endfacet
  facet normal 1 0 0
    outer loop
      vertex 123.5 103.5 -1.23333
      vertex 123.5 100.5 5.23333
      vertex 123.5 100.5 -1.23333
    endloop
  endfacet
  facet normal 1 0 0
    outer loop
      vertex 123.5 93.2273 -8
      vertex 123.5 100.5 -1.23333
      vertex 123.5 98 2
    endloop
  endfacet
  facet normal 1 0 0
    outer loop
      vertex 123.5 100.5 -1.23333
      vertex 123.5 93.2273 -8
      vertex 123.5 100.5 -8
    endloop
  endfacet
  facet normal 1 0 0
    outer loop
      vertex 123.5 93.2273 -8
      vertex 123.5 84.0455 -8
      vertex 123.5 93.2273 -11
    endloop
  endfacet
  facet normal 1 0 0
    outer loop
      vertex 123.5 98 2
      vertex 123.5 84.0455 -8
      vertex 123.5 93.2273 -8
    endloop
  endfacet
  facet normal 1 0 0
    outer loop
      vertex 123.5 98 2
      vertex 123.5 73.7727 -8
      vertex 123.5 84.0455 -8
    endloop
  endfacet
  facet normal 1 0 0
    outer loop
      vertex 123.5 73.7727 -8
      vertex 123.5 64.5909 -8
      vertex 123.5 73.7727 -11
    endloop
  endfacet
  facet normal 1 0 0
    outer loop
      vertex 123.5 98 2
      vertex 123.5 64.5909 -8
      vertex 123.5 73.7727 -8
    endloop
  endfacet
  facet normal 1 0 0
    outer loop
      vertex 123.5 98 2
      vertex 123.5 54.3182 -8
      vertex 123.5 64.5909 -8
    endloop
  endfacet
  facet normal 1 0 0
    outer loop
      vertex 123.5 54.3182 -8
      vertex 123.5 45.1364 -8
      vertex 123.5 54.3182 -11
    endloop
  endfacet
  facet normal 1 -0 0
    outer loop
      vertex 123.5 10 2
      vertex 123.5 54.3182 -8
      vertex 123.5 98 2
    endloop
  endfacet
  facet normal 1 0 0
    outer loop
      vertex 123.5 54.3182 -8
      vertex 123.5 10 2
      vertex 123.5 45.1364 -8
    endloop
  endfacet
  facet normal 1 0 0
    outer loop
      vertex 123.5 34.8636 -8
      vertex 123.5 25.6818 -8
      vertex 123.5 34.8636 -11
    endloop
  endfacet
  facet normal 1 0 0
    outer loop
      vertex 123.5 45.1364 -8
      vertex 123.5 10 2
      vertex 123.5 34.8636 -8
    endloop
  endfacet
  facet normal 1 0 0
    outer loop
      vertex 123.5 34.8636 -8
      vertex 123.5 10 2
      vertex 123.5 25.6818 -8
    endloop
  endfacet
  facet normal 1 0 0
    outer loop
      vertex 123.5 25.6818 -8
      vertex 123.5 10 2
      vertex 123.5 15.4091 -8
    endloop
  endfacet
  facet normal 1 0 0
    outer loop
      vertex 123.5 6.22727 -8
      vertex 123.5 15.4091 -8
      vertex 123.5 10 2
    endloop
  endfacet
  facet normal 1 0 0
    outer loop
      vertex 123.5 15.4091 32
      vertex 123.5 -0.5 18.5667
      vertex 123.5 10 8.1
    endloop
  endfacet
  facet normal 1 -0 0
    outer loop
      vertex 123.5 -0.5 12.1
      vertex 123.5 10 8.1
      vertex 123.5 -0.5 18.5667
    endloop
  endfacet
  facet normal 1 0 0
    outer loop
      vertex 123.5 15.4091 -8
      vertex 123.5 6.22727 -8
      vertex 123.5 15.4091 -11
    endloop
  endfacet
  facet normal 1 0 0
    outer loop
      vertex 123.5 15.4091 -11
      vertex 123.5 6.22727 -8
      vertex 123.5 6.22727 -11
    endloop
  endfacet
  facet normal 1 0 0
    outer loop
      vertex 123.5 93.2273 -11
      vertex 123.5 84.0455 -8
      vertex 123.5 84.0455 -11
    endloop
  endfacet
  facet normal 1 0 0
    outer loop
      vertex 123.5 73.7727 -11
      vertex 123.5 64.5909 -8
      vertex 123.5 64.5909 -11
    endloop
  endfacet
  facet normal 1 0 0
    outer loop
      vertex 123.5 54.3182 -11
      vertex 123.5 45.1364 -8
      vertex 123.5 45.1364 -11
    endloop
  endfacet
  facet normal 1 -0 0
    outer loop
      vertex 123.5 -3.5 5.23333
      vertex 123.5 -0.5 -1.23333
      vertex 123.5 -0.5 5.23333
    endloop
  endfacet
  facet normal 1 0 0
    outer loop
      vertex 123.5 -0.5 -1.23333
      vertex 123.5 -3.5 5.23333
      vertex 123.5 -3.5 -1.23333
    endloop
  endfacet
  facet normal 1 -0 0
    outer loop
      vertex 123.5 -3.5 18.5667
      vertex 123.5 -0.5 12.1
      vertex 123.5 -0.5 18.5667
    endloop
  endfacet
  facet normal 1 0 0
    outer loop
      vertex 123.5 -0.5 12.1
      vertex 123.5 -3.5 18.5667
      vertex 123.5 -3.5 12.1
    endloop
  endfacet
  facet normal 1 -0 0
    outer loop
      vertex 123.5 -3.5 31.9
      vertex 123.5 -0.5 25.4333
      vertex 123.5 -0.5 31.9
    endloop
  endfacet
  facet normal 1 0 0
    outer loop
      vertex 123.5 -0.5 25.4333
      vertex 123.5 -3.5 31.9
      vertex 123.5 -3.5 25.4333
    endloop
  endfacet
  facet normal 1 0 0
    outer loop
      vertex 123.5 -0.5 31.9
      vertex 123.5 6.22727 32
      vertex 123.5 -0.5 32
    endloop
  endfacet
  facet normal 1 0 0
    outer loop
      vertex 123.5 -0.5 25.4333
      vertex 123.5 6.22727 32
      vertex 123.5 -0.5 31.9
    endloop
  endfacet
  facet normal 1 0 0
    outer loop
      vertex 123.5 -0.5 18.5667
      vertex 123.5 6.22727 32
      vertex 123.5 -0.5 25.4333
    endloop
  endfacet
  facet normal 1 0 0
    outer loop
      vertex 123.5 -0.5 5.23333
      vertex 123.5 10 8.1
      vertex 123.5 -0.5 12.1
    endloop
  endfacet
  facet normal 1 0 0
    outer loop
      vertex 123.5 10 8.1
      vertex 123.5 -0.5 5.23333
      vertex 123.5 10 2
    endloop
  endfacet
  facet normal 1 0 0
    outer loop
      vertex 123.5 -0.5 -1.23333
      vertex 123.5 10 2
      vertex 123.5 -0.5 5.23333
    endloop
  endfacet
  facet normal 1 0 0
    outer loop
      vertex 123.5 10 2
      vertex 123.5 -0.5 -1.23333
      vertex 123.5 6.22727 -8
    endloop
  endfacet
  facet normal 1 0 0
    outer loop
      vertex 123.5 6.22727 -8
      vertex 123.5 -0.5 -1.23333
      vertex 123.5 -0.5 -8
    endloop
  endfacet
  facet normal 1 -0 0
    outer loop
      vertex 123.5 6.22727 35
      vertex 123.5 15.4091 32
      vertex 123.5 15.4091 35
    endloop
  endfacet
  facet normal 1 0 0
    outer loop
      vertex 123.5 -0.5 18.5667
      vertex 123.5 15.4091 32
      vertex 123.5 6.22727 32
    endloop
  endfacet
  facet normal 1 0 0
    outer loop
      vertex 123.5 6.22727 32
      vertex 123.5 15.4091 32
      vertex 123.5 6.22727 35
    endloop
  endfacet
  facet normal 1 0 0
    outer loop
      vertex 123.5 34.8636 -11
      vertex 123.5 25.6818 -8
      vertex 123.5 25.6818 -11
    endloop
  endfacet
  facet normal 0 1 -0
    outer loop
      vertex 123.5 100.5 -8
      vertex 120.5 100.5 -1.23333
      vertex 123.5 100.5 -1.23333
    endloop
  endfacet
  facet normal 0 1 0
    outer loop
      vertex 120.5 100.5 -1.23333
      vertex 123.5 100.5 -8
      vertex 120.5 100.5 -8
    endloop
  endfacet
  facet normal 0 1 -0
    outer loop
      vertex 123.5 100.5 5.23333
      vertex 120.5 100.5 12.1
      vertex 123.5 100.5 12.1
    endloop
  endfacet
  facet normal 0 1 0
    outer loop
      vertex 120.5 100.5 12.1
      vertex 123.5 100.5 5.23333
      vertex 120.5 100.5 5.23333
    endloop
  endfacet
  facet normal 0 1 -0
    outer loop
      vertex 123.5 100.5 18.5667
      vertex 120.5 100.5 25.4333
      vertex 123.5 100.5 25.4333
    endloop
  endfacet
  facet normal 0 1 0
    outer loop
      vertex 120.5 100.5 25.4333
      vertex 123.5 100.5 18.5667
      vertex 120.5 100.5 18.5667
    endloop
  endfacet
  facet normal 0 1 -0
    outer loop
      vertex 123.5 100.5 31.9
      vertex 120.5 100.5 32
      vertex 123.5 100.5 32
    endloop
  endfacet
  facet normal 0 1 0
    outer loop
      vertex 120.5 100.5 32
      vertex 123.5 100.5 31.9
      vertex 120.5 100.5 31.9
    endloop
  endfacet
  facet normal 0 0 -1
    outer loop
      vertex 120.5 73.7727 -8
      vertex 123.5 84.0455 -8
      vertex 123.5 73.7727 -8
    endloop
  endfacet
  facet normal -0 0 -1
    outer loop
      vertex 123.5 84.0455 -8
      vertex 120.5 73.7727 -8
      vertex 120.5 84.0455 -8
    endloop
  endfacet
  facet normal 0 0 -1
    outer loop
      vertex 120.5 93.2273 -8
      vertex 123.5 100.5 -8
      vertex 123.5 93.2273 -8
    endloop
  endfacet
  facet normal -0 0 -1
    outer loop
      vertex 123.5 100.5 -8
      vertex 120.5 93.2273 -8
      vertex 120.5 100.5 -8
    endloop
  endfacet
  facet normal 0 0 -1
    outer loop
      vertex 120.5 54.3182 -8
      vertex 123.5 64.5909 -8
      vertex 123.5 54.3182 -8
    endloop
  endfacet
  facet normal -0 0 -1
    outer loop
      vertex 123.5 64.5909 -8
      vertex 120.5 54.3182 -8
      vertex 120.5 64.5909 -8
    endloop
  endfacet
  facet normal 0 0 -1
    outer loop
      vertex 120.5 34.8636 -8
      vertex 123.5 45.1364 -8
      vertex 123.5 34.8636 -8
    endloop
  endfacet
  facet normal -0 0 -1
    outer loop
      vertex 123.5 45.1364 -8
      vertex 120.5 34.8636 -8
      vertex 120.5 45.1364 -8
    endloop
  endfacet
  facet normal 0 0 -1
    outer loop
      vertex 120.5 15.4091 -8
      vertex 123.5 25.6818 -8
      vertex 123.5 15.4091 -8
    endloop
  endfacet
  facet normal -0 0 -1
    outer loop
      vertex 123.5 25.6818 -8
      vertex 120.5 15.4091 -8
      vertex 120.5 25.6818 -8
    endloop
  endfacet
  facet normal 0 0 -1
    outer loop
      vertex 120.5 -0.5 -8
      vertex 123.5 6.22727 -8
      vertex 123.5 -0.5 -8
    endloop
  endfacet
  facet normal -0 0 -1
    outer loop
      vertex 123.5 6.22727 -8
      vertex 120.5 -0.5 -8
      vertex 120.5 6.22727 -8
    endloop
  endfacet
  facet normal 0 -1 0
    outer loop
      vertex 120.5 -0.5 -8
      vertex 123.5 -0.5 -1.23333
      vertex 120.5 -0.5 -1.23333
    endloop
  endfacet
  facet normal 0 -1 -0
    outer loop
      vertex 123.5 -0.5 -1.23333
      vertex 120.5 -0.5 -8
      vertex 123.5 -0.5 -8
    endloop
  endfacet
  facet normal 0 -1 0
    outer loop
      vertex 120.5 -0.5 5.23333
      vertex 123.5 -0.5 12.1
      vertex 120.5 -0.5 12.1
    endloop
  endfacet
  facet normal 0 -1 -0
    outer loop
      vertex 123.5 -0.5 12.1
      vertex 120.5 -0.5 5.23333
      vertex 123.5 -0.5 5.23333
    endloop
  endfacet
  facet normal 0 -1 0
    outer loop
      vertex 120.5 -0.5 18.5667
      vertex 123.5 -0.5 25.4333
      vertex 120.5 -0.5 25.4333
    endloop
  endfacet
  facet normal 0 -1 -0
    outer loop
      vertex 123.5 -0.5 25.4333
      vertex 120.5 -0.5 18.5667
      vertex 123.5 -0.5 18.5667
    endloop
  endfacet
  facet normal 0 -1 0
    outer loop
      vertex 120.5 -0.5 31.9
      vertex 123.5 -0.5 32
      vertex 120.5 -0.5 32
    endloop
  endfacet
  facet normal 0 -1 -0
    outer loop
      vertex 123.5 -0.5 32
      vertex 120.5 -0.5 31.9
      vertex 123.5 -0.5 31.9
    endloop
  endfacet
  facet normal 0 0 -1
    outer loop
      vertex 120.5 -3.5 -1.23333
      vertex 123.5 -0.5 -1.23333
      vertex 123.5 -3.5 -1.23333
    endloop
  endfacet
  facet normal -0 0 -1
    outer loop
      vertex 123.5 -0.5 -1.23333
      vertex 120.5 -3.5 -1.23333
      vertex 120.5 -0.5 -1.23333
    endloop
  endfacet
  facet normal 0 0 -1
    outer loop
      vertex 120.5 -3.5 12.1
      vertex 123.5 -0.5 12.1
      vertex 123.5 -3.5 12.1
    endloop
  endfacet
  facet normal -0 0 -1
    outer loop
      vertex 123.5 -0.5 12.1
      vertex 120.5 -3.5 12.1
      vertex 120.5 -0.5 12.1
    endloop
  endfacet
  facet normal -0 0 1
    outer loop
      vertex 120.5 -0.5 5.23333
      vertex 123.5 -3.5 5.23333
      vertex 123.5 -0.5 5.23333
    endloop
  endfacet
  facet normal 0 0 1
    outer loop
      vertex 123.5 -3.5 5.23333
      vertex 120.5 -0.5 5.23333
      vertex 120.5 -3.5 5.23333
    endloop
  endfacet
  facet normal 0 0 -1
    outer loop
      vertex 120.5 -3.5 25.4333
      vertex 123.5 -0.5 25.4333
      vertex 123.5 -3.5 25.4333
    endloop
  endfacet
  facet normal -0 0 -1
    outer loop
      vertex 123.5 -0.5 25.4333
      vertex 120.5 -3.5 25.4333
      vertex 120.5 -0.5 25.4333
    endloop
  endfacet
  facet normal -0 0 1
    outer loop
      vertex 120.5 -0.5 18.5667
      vertex 123.5 -3.5 18.5667
      vertex 123.5 -0.5 18.5667
    endloop
  endfacet
  facet normal 0 0 1
    outer loop
      vertex 123.5 -3.5 18.5667
      vertex 120.5 -0.5 18.5667
      vertex 120.5 -3.5 18.5667
    endloop
  endfacet
  facet normal -0 0 1
    outer loop
      vertex 120.5 -0.5 31.9
      vertex 123.5 -3.5 31.9
      vertex 123.5 -0.5 31.9
    endloop
  endfacet
  facet normal 0 0 1
    outer loop
      vertex 123.5 -3.5 31.9
      vertex 120.5 -0.5 31.9
      vertex 120.5 -3.5 31.9
    endloop
  endfacet
  facet normal 0 -1 0
    outer loop
      vertex 120.5 -3.5 -1.23333
      vertex 123.5 -3.5 5.23333
      vertex 120.5 -3.5 5.23333
    endloop
  endfacet
  facet normal 0 -1 -0
    outer loop
      vertex 123.5 -3.5 5.23333
      vertex 120.5 -3.5 -1.23333
      vertex 123.5 -3.5 -1.23333
    endloop
  endfacet
  facet normal 0 -1 0
    outer loop
      vertex 120.5 -3.5 12.1
      vertex 123.5 -3.5 18.5667
      vertex 120.5 -3.5 18.5667
    endloop
  endfacet
  facet normal 0 -1 -0
    outer loop
      vertex 123.5 -3.5 18.5667
      vertex 120.5 -3.5 12.1
      vertex 123.5 -3.5 12.1
    endloop
  endfacet
  facet normal 0 -1 0
    outer loop
      vertex 120.5 -3.5 25.4333
      vertex 123.5 -3.5 31.9
      vertex 120.5 -3.5 31.9
    endloop
  endfacet
  facet normal 0 -1 -0
    outer loop
      vertex 123.5 -3.5 31.9
      vertex 120.5 -3.5 25.4333
      vertex 123.5 -3.5 25.4333
    endloop
  endfacet
  facet normal 0 0 -1
    outer loop
      vertex 120.5 100.5 -1.23333
      vertex 123.5 103.5 -1.23333
      vertex 123.5 100.5 -1.23333
    endloop
  endfacet
  facet normal -0 0 -1
    outer loop
      vertex 123.5 103.5 -1.23333
      vertex 120.5 100.5 -1.23333
      vertex 120.5 103.5 -1.23333
    endloop
  endfacet
  facet normal 0 0 -1
    outer loop
      vertex 120.5 100.5 12.1
      vertex 123.5 103.5 12.1
      vertex 123.5 100.5 12.1
    endloop
  endfacet
  facet normal -0 0 -1
    outer loop
      vertex 123.5 103.5 12.1
      vertex 120.5 100.5 12.1
      vertex 120.5 103.5 12.1
    endloop
  endfacet
  facet normal -0 0 1
    outer loop
      vertex 120.5 103.5 5.23333
      vertex 123.5 100.5 5.23333
      vertex 123.5 103.5 5.23333
    endloop
  endfacet
  facet normal 0 0 1
    outer loop
      vertex 123.5 100.5 5.23333
      vertex 120.5 103.5 5.23333
      vertex 120.5 100.5 5.23333
    endloop
  endfacet
  facet normal 0 0 -1
    outer loop
      vertex 120.5 100.5 25.4333
      vertex 123.5 103.5 25.4333
      vertex 123.5 100.5 25.4333
    endloop
  endfacet
  facet normal -0 0 -1
    outer loop
      vertex 123.5 103.5 25.4333
      vertex 120.5 100.5 25.4333
      vertex 120.5 103.5 25.4333
    endloop
  endfacet
  facet normal -0 0 1
    outer loop
      vertex 120.5 103.5 18.5667
      vertex 123.5 100.5 18.5667
      vertex 123.5 103.5 18.5667
    endloop
  endfacet
  facet normal 0 0 1
    outer loop
      vertex 123.5 100.5 18.5667
      vertex 120.5 103.5 18.5667
      vertex 120.5 100.5 18.5667
    endloop
  endfacet
  facet normal -0 0 1
    outer loop
      vertex 120.5 103.5 31.9
      vertex 123.5 100.5 31.9
      vertex 123.5 103.5 31.9
    endloop
  endfacet
  facet normal 0 0 1
    outer loop
      vertex 123.5 100.5 31.9
      vertex 120.5 103.5 31.9
      vertex 120.5 100.5 31.9
    endloop
  endfacet
  facet normal 0 1 -0
    outer loop
      vertex 123.5 103.5 -1.23333
      vertex 120.5 103.5 5.23333
      vertex 123.5 103.5 5.23333
    endloop
  endfacet
  facet normal 0 1 0
    outer loop
      vertex 120.5 103.5 5.23333
      vertex 123.5 103.5 -1.23333
      vertex 120.5 103.5 -1.23333
    endloop
  endfacet
  facet normal 0 1 -0
    outer loop
      vertex 123.5 103.5 12.1
      vertex 120.5 103.5 18.5667
      vertex 123.5 103.5 18.5667
    endloop
  endfacet
  facet normal 0 1 0
    outer loop
      vertex 120.5 103.5 18.5667
      vertex 123.5 103.5 12.1
      vertex 120.5 103.5 12.1
    endloop
  endfacet
  facet normal 0 1 -0
    outer loop
      vertex 123.5 103.5 25.4333
      vertex 120.5 103.5 31.9
      vertex 123.5 103.5 31.9
    endloop
  endfacet
  facet normal 0 1 0
    outer loop
      vertex 120.5 103.5 31.9
      vertex 123.5 103.5 25.4333
      vertex 120.5 103.5 25.4333
    endloop
  endfacet
  facet normal 0 1 -0
    outer loop
      vertex 123.5 15.4091 -11
      vertex 120.5 15.4091 -8
      vertex 123.5 15.4091 -8
    endloop
  endfacet
  facet normal 0 1 0
    outer loop
      vertex 120.5 15.4091 -8
      vertex 123.5 15.4091 -11
      vertex 120.5 15.4091 -11
    endloop
  endfacet
  facet normal 0 0 -1
    outer loop
      vertex 120.5 6.22727 -11
      vertex 123.5 15.4091 -11
      vertex 123.5 6.22727 -11
    endloop
  endfacet
  facet normal -0 0 -1
    outer loop
      vertex 123.5 15.4091 -11
      vertex 120.5 6.22727 -11
      vertex 120.5 15.4091 -11
    endloop
  endfacet
  facet normal 0 -1 0
    outer loop
      vertex 120.5 6.22727 -11
      vertex 123.5 6.22727 -8
      vertex 120.5 6.22727 -8
    endloop
  endfacet
  facet normal 0 -1 -0
    outer loop
      vertex 123.5 6.22727 -8
      vertex 120.5 6.22727 -11
      vertex 123.5 6.22727 -11
    endloop
  endfacet
  facet normal -0 0 1
    outer loop
      vertex 120.5 15.4091 35
      vertex 123.5 6.22727 35
      vertex 123.5 15.4091 35
    endloop
  endfacet
  facet normal 0 0 1
    outer loop
      vertex 123.5 6.22727 35
      vertex 120.5 15.4091 35
      vertex 120.5 6.22727 35
    endloop
  endfacet
  facet normal 0 -1 0
    outer loop
      vertex 120.5 6.22727 32
      vertex 123.5 6.22727 35
      vertex 120.5 6.22727 35
    endloop
  endfacet
  facet normal 0 -1 -0
    outer loop
      vertex 123.5 6.22727 35
      vertex 120.5 6.22727 32
      vertex 123.5 6.22727 32
    endloop
  endfacet
  facet normal 0 1 -0
    outer loop
      vertex 123.5 15.4091 32
      vertex 120.5 15.4091 35
      vertex 123.5 15.4091 35
    endloop
  endfacet
  facet normal 0 1 0
    outer loop
      vertex 120.5 15.4091 35
      vertex 123.5 15.4091 32
      vertex 120.5 15.4091 32
    endloop
  endfacet
  facet normal 0 1 -0
    outer loop
      vertex 123.5 34.8636 -11
      vertex 120.5 34.8636 -8
      vertex 123.5 34.8636 -8
    endloop
  endfacet
  facet normal 0 1 0
    outer loop
      vertex 120.5 34.8636 -8
      vertex 123.5 34.8636 -11
      vertex 120.5 34.8636 -11
    endloop
  endfacet
  facet normal 0 0 -1
    outer loop
      vertex 120.5 25.6818 -11
      vertex 123.5 34.8636 -11
      vertex 123.5 25.6818 -11
    endloop
  endfacet
  facet normal -0 0 -1
    outer loop
      vertex 123.5 34.8636 -11
      vertex 120.5 25.6818 -11
      vertex 120.5 34.8636 -11
    endloop
  endfacet
  facet normal 0 -1 0
    outer loop
      vertex 120.5 25.6818 -11
      vertex 123.5 25.6818 -8
      vertex 120.5 25.6818 -8
    endloop
  endfacet
  facet normal 0 -1 -0
    outer loop
      vertex 123.5 25.6818 -8
      vertex 120.5 25.6818 -11
      vertex 123.5 25.6818 -11
    endloop
  endfacet
  facet normal -0 0 1
    outer loop
      vertex 120.5 34.8636 35
      vertex 123.5 25.6818 35
      vertex 123.5 34.8636 35
    endloop
  endfacet
  facet normal 0 0 1
    outer loop
      vertex 123.5 25.6818 35
      vertex 120.5 34.8636 35
      vertex 120.5 25.6818 35
    endloop
  endfacet
  facet normal 0 1 -0
    outer loop
      vertex 123.5 34.8636 32
      vertex 120.5 34.8636 35
      vertex 123.5 34.8636 35
    endloop
  endfacet
  facet normal 0 1 0
    outer loop
      vertex 120.5 34.8636 35
      vertex 123.5 34.8636 32
      vertex 120.5 34.8636 32
    endloop
  endfacet
  facet normal 0 -1 0
    outer loop
      vertex 120.5 25.6818 32
      vertex 123.5 25.6818 35
      vertex 120.5 25.6818 35
    endloop
  endfacet
  facet normal 0 -1 -0
    outer loop
      vertex 123.5 25.6818 35
      vertex 120.5 25.6818 32
      vertex 123.5 25.6818 32
    endloop
  endfacet
  facet normal 0 1 -0
    outer loop
      vertex 123.5 54.3182 -11
      vertex 120.5 54.3182 -8
      vertex 123.5 54.3182 -8
    endloop
  endfacet
  facet normal 0 1 0
    outer loop
      vertex 120.5 54.3182 -8
      vertex 123.5 54.3182 -11
      vertex 120.5 54.3182 -11
    endloop
  endfacet
  facet normal 0 0 -1
    outer loop
      vertex 120.5 45.1364 -11
      vertex 123.5 54.3182 -11
      vertex 123.5 45.1364 -11
    endloop
  endfacet
  facet normal -0 0 -1
    outer loop
      vertex 123.5 54.3182 -11
      vertex 120.5 45.1364 -11
      vertex 120.5 54.3182 -11
    endloop
  endfacet
  facet normal 0 -1 0
    outer loop
      vertex 120.5 45.1364 -11
      vertex 123.5 45.1364 -8
      vertex 120.5 45.1364 -8
    endloop
  endfacet
  facet normal 0 -1 -0
    outer loop
      vertex 123.5 45.1364 -8
      vertex 120.5 45.1364 -11
      vertex 123.5 45.1364 -11
    endloop
  endfacet
  facet normal -0 0 1
    outer loop
      vertex 120.5 54.3182 35
      vertex 123.5 45.1364 35
      vertex 123.5 54.3182 35
    endloop
  endfacet
  facet normal 0 0 1
    outer loop
      vertex 123.5 45.1364 35
      vertex 120.5 54.3182 35
      vertex 120.5 45.1364 35
    endloop
  endfacet
  facet normal 0 1 -0
    outer loop
      vertex 123.5 54.3182 32
      vertex 120.5 54.3182 35
      vertex 123.5 54.3182 35
    endloop
  endfacet
  facet normal 0 1 0
    outer loop
      vertex 120.5 54.3182 35
      vertex 123.5 54.3182 32
      vertex 120.5 54.3182 32
    endloop
  endfacet
  facet normal 0 -1 0
    outer loop
      vertex 120.5 45.1364 32
      vertex 123.5 45.1364 35
      vertex 120.5 45.1364 35
    endloop
  endfacet
  facet normal 0 -1 -0
    outer loop
      vertex 123.5 45.1364 35
      vertex 120.5 45.1364 32
      vertex 123.5 45.1364 32
    endloop
  endfacet
  facet normal 0 1 -0
    outer loop
      vertex 123.5 73.7727 -11
      vertex 120.5 73.7727 -8
      vertex 123.5 73.7727 -8
    endloop
  endfacet
  facet normal 0 1 0
    outer loop
      vertex 120.5 73.7727 -8
      vertex 123.5 73.7727 -11
      vertex 120.5 73.7727 -11
    endloop
  endfacet
  facet normal 0 0 -1
    outer loop
      vertex 120.5 64.5909 -11
      vertex 123.5 73.7727 -11
      vertex 123.5 64.5909 -11
    endloop
  endfacet
  facet normal -0 0 -1
    outer loop
      vertex 123.5 73.7727 -11
      vertex 120.5 64.5909 -11
      vertex 120.5 73.7727 -11
    endloop
  endfacet
  facet normal 0 -1 0
    outer loop
      vertex 120.5 64.5909 -11
      vertex 123.5 64.5909 -8
      vertex 120.5 64.5909 -8
    endloop
  endfacet
  facet normal 0 -1 -0
    outer loop
      vertex 123.5 64.5909 -8
      vertex 120.5 64.5909 -11
      vertex 123.5 64.5909 -11
    endloop
  endfacet
  facet normal -0 0 1
    outer loop
      vertex 120.5 73.7727 35
      vertex 123.5 64.5909 35
      vertex 123.5 73.7727 35
    endloop
  endfacet
  facet normal 0 0 1
    outer loop
      vertex 123.5 64.5909 35
      vertex 120.5 73.7727 35
      vertex 120.5 64.5909 35
    endloop
  endfacet
  facet normal 0 1 -0
    outer loop
      vertex 123.5 73.7727 32
      vertex 120.5 73.7727 35
      vertex 123.5 73.7727 35
    endloop
  endfacet
  facet normal 0 1 0
    outer loop
      vertex 120.5 73.7727 35
      vertex 123.5 73.7727 32
      vertex 120.5 73.7727 32
    endloop
  endfacet
  facet normal 0 -1 0
    outer loop
      vertex 120.5 64.5909 32
      vertex 123.5 64.5909 35
      vertex 120.5 64.5909 35
    endloop
  endfacet
  facet normal 0 -1 -0
    outer loop
      vertex 123.5 64.5909 35
      vertex 120.5 64.5909 32
      vertex 123.5 64.5909 32
    endloop
  endfacet
  facet normal 0 0 -1
    outer loop
      vertex 120.5 84.0455 -11
      vertex 123.5 93.2273 -11
      vertex 123.5 84.0455 -11
    endloop
  endfacet
  facet normal -0 0 -1
    outer loop
      vertex 123.5 93.2273 -11
      vertex 120.5 84.0455 -11
      vertex 120.5 93.2273 -11
    endloop
  endfacet
  facet normal 0 -1 0
    outer loop
      vertex 120.5 84.0455 -11
      vertex 123.5 84.0455 -8
      vertex 120.5 84.0455 -8
    endloop
  endfacet
  facet normal 0 -1 -0
    outer loop
      vertex 123.5 84.0455 -8
      vertex 120.5 84.0455 -11
      vertex 123.5 84.0455 -11
    endloop
  endfacet
  facet normal 0 1 -0
    outer loop
      vertex 123.5 93.2273 -11
      vertex 120.5 93.2273 -8
      vertex 123.5 93.2273 -8
    endloop
  endfacet
  facet normal 0 1 0
    outer loop
      vertex 120.5 93.2273 -8
      vertex 123.5 93.2273 -11
      vertex 120.5 93.2273 -11
    endloop
  endfacet
  facet normal -0 0 1
    outer loop
      vertex 120.5 93.2273 35
      vertex 123.5 84.0455 35
      vertex 123.5 93.2273 35
    endloop
  endfacet
  facet normal 0 0 1
    outer loop
      vertex 123.5 84.0455 35
      vertex 120.5 93.2273 35
      vertex 120.5 84.0455 35
    endloop
  endfacet
  facet normal 0 1 -0
    outer loop
      vertex 123.5 93.2273 32
      vertex 120.5 93.2273 35
      vertex 123.5 93.2273 35
    endloop
  endfacet
  facet normal 0 1 0
    outer loop
      vertex 120.5 93.2273 35
      vertex 123.5 93.2273 32
      vertex 120.5 93.2273 32
    endloop
  endfacet
  facet normal 0 -1 0
    outer loop
      vertex 120.5 84.0455 32
      vertex 123.5 84.0455 35
      vertex 120.5 84.0455 35
    endloop
  endfacet
  facet normal 0 -1 -0
    outer loop
      vertex 123.5 84.0455 35
      vertex 120.5 84.0455 32
      vertex 123.5 84.0455 32
    endloop
  endfacet
endsolid OpenSCAD_Model
