  0
SECTION
  2
BLOCKS
  0
ENDSEC
  0
SECTION
  2
ENTITIES
  0
LINE
  8
0
 10
125.523
 20
-9.9726
 11
126.04
 21
-9.89073
  0
LINE
  8
0
 10
126.04
 20
-9.89073
 11
126.545
 21
-9.75528
  0
LINE
  8
0
 10
126.545
 20
-9.75528
 11
127.034
 21
-9.56772
  0
LINE
  8
0
 10
127.034
 20
-9.56772
 11
127.5
 21
-9.33012
  0
LINE
  8
0
 10
127.5
 20
-9.33012
 11
127.939
 21
-9.04507
  0
LINE
  8
0
 10
127.939
 20
-9.04507
 11
128.346
 21
-8.71571
  0
LINE
  8
0
 10
128.346
 20
-8.71571
 11
128.716
 21
-8.34564
  0
LINE
  8
0
 10
128.716
 20
-8.34564
 11
129.045
 21
-7.93892
  0
LINE
  8
0
 10
129.045
 20
-7.93892
 11
129.33
 21
-7.5
  0
LINE
  8
0
 10
129.33
 20
-7.5
 11
129.568
 21
-7.03368
  0
LINE
  8
0
 10
129.568
 20
-7.03368
 11
129.755
 21
-6.54507
  0
LINE
  8
0
 10
129.755
 20
-6.54507
 11
129.891
 21
-6.03955
  0
LINE
  8
0
 10
129.891
 20
-6.03955
 11
129.973
 21
-5.52263
  0
LINE
  8
0
 10
129.973
 20
-5.52263
 11
130
 21
-5
  0
LINE
  8
0
 10
130
 20
-5
 11
130
 21
105
  0
LINE
  8
0
 10
130
 20
105
 11
129.973
 21
105.523
  0
LINE
  8
0
 10
129.973
 20
105.523
 11
129.891
 21
106.04
  0
LINE
  8
0
 10
129.891
 20
106.04
 11
129.755
 21
106.545
  0
LINE
  8
0
 10
129.755
 20
106.545
 11
129.568
 21
107.034
  0
LINE
  8
0
 10
129.568
 20
107.034
 11
129.33
 21
107.5
  0
LINE
  8
0
 10
129.33
 20
107.5
 11
129.045
 21
107.939
  0
LINE
  8
0
 10
129.045
 20
107.939
 11
128.716
 21
108.346
  0
LINE
  8
0
 10
128.716
 20
108.346
 11
128.346
 21
108.716
  0
LINE
  8
0
 10
128.346
 20
108.716
 11
127.939
 21
109.045
  0
LINE
  8
0
 10
127.939
 20
109.045
 11
127.5
 21
109.33
  0
LINE
  8
0
 10
127.5
 20
109.33
 11
127.034
 21
109.568
  0
LINE
  8
0
 10
127.034
 20
109.568
 11
126.545
 21
109.755
  0
LINE
  8
0
 10
126.545
 20
109.755
 11
126.04
 21
109.891
  0
LINE
  8
0
 10
126.04
 20
109.891
 11
125.523
 21
109.973
  0
LINE
  8
0
 10
125.523
 20
109.973
 11
125
 21
110
  0
LINE
  8
0
 10
125
 20
110
 11
-5
 21
110
  0
LINE
  8
0
 10
-5
 20
110
 11
-5.52263
 21
109.973
  0
LINE
  8
0
 10
-5.52263
 20
109.973
 11
-6.03955
 21
109.891
  0
LINE
  8
0
 10
-6.03955
 20
109.891
 11
-6.54507
 21
109.755
  0
LINE
  8
0
 10
-6.54507
 20
109.755
 11
-7.03368
 21
109.568
  0
LINE
  8
0
 10
-7.03368
 20
109.568
 11
-7.5
 21
109.33
  0
LINE
  8
0
 10
-7.5
 20
109.33
 11
-7.93892
 21
109.045
  0
LINE
  8
0
 10
-7.93892
 20
109.045
 11
-8.34564
 21
108.716
  0
LINE
  8
0
 10
-8.34564
 20
108.716
 11
-8.71571
 21
108.346
  0
LINE
  8
0
 10
-8.71571
 20
108.346
 11
-9.04507
 21
107.939
  0
LINE
  8
0
 10
-9.04507
 20
107.939
 11
-9.33012
 21
107.5
  0
LINE
  8
0
 10
-9.33012
 20
107.5
 11
-9.56772
 21
107.034
  0
LINE
  8
0
 10
-9.56772
 20
107.034
 11
-9.75528
 21
106.545
  0
LINE
  8
0
 10
-9.75528
 20
106.545
 11
-9.89073
 21
106.04
  0
LINE
  8
0
 10
-9.89073
 20
106.04
 11
-9.9726
 21
105.523
  0
LINE
  8
0
 10
-9.9726
 20
105.523
 11
-10
 21
105
  0
LINE
  8
0
 10
-10
 20
105
 11
-10
 21
-5
  0
LINE
  8
0
 10
-10
 20
-5
 11
-9.9726
 21
-5.52263
  0
LINE
  8
0
 10
-9.9726
 20
-5.52263
 11
-9.89073
 21
-6.03955
  0
LINE
  8
0
 10
-9.89073
 20
-6.03955
 11
-9.75528
 21
-6.54507
  0
LINE
  8
0
 10
-9.75528
 20
-6.54507
 11
-9.56772
 21
-7.03368
  0
LINE
  8
0
 10
-9.56772
 20
-7.03368
 11
-9.33012
 21
-7.5
  0
LINE
  8
0
 10
-9.33012
 20
-7.5
 11
-9.04507
 21
-7.93892
  0
LINE
  8
0
 10
-9.04507
 20
-7.93892
 11
-8.71571
 21
-8.34564
  0
LINE
  8
0
 10
-8.71571
 20
-8.34564
 11
-8.34564
 21
-8.71571
  0
LINE
  8
0
 10
-8.34564
 20
-8.71571
 11
-7.93892
 21
-9.04507
  0
LINE
  8
0
 10
-7.93892
 20
-9.04507
 11
-7.5
 21
-9.33012
  0
LINE
  8
0
 10
-7.5
 20
-9.33012
 11
-7.03368
 21
-9.56772
  0
LINE
  8
0
 10
-7.03368
 20
-9.56772
 11
-6.54507
 21
-9.75528
  0
LINE
  8
0
 10
-6.54507
 20
-9.75528
 11
-6.03955
 21
-9.89073
  0
LINE
  8
0
 10
-6.03955
 20
-9.89073
 11
-5.52263
 21
-9.9726
  0
LINE
  8
0
 10
-5.52263
 20
-9.9726
 11
-5
 21
-10
  0
LINE
  8
0
 10
-5
 20
-10
 11
125
 21
-10
  0
LINE
  8
0
 10
125
 20
-10
 11
125.523
 21
-9.9726
  0
LINE
  8
0
 10
100.309
 20
100.4
 11
100.309
 21
103.6
  0
LINE
  8
0
 10
100.309
 20
103.6
 11
114.62
 21
103.6
  0
LINE
  8
0
 10
114.62
 20
103.6
 11
114.62
 21
100.4
  0
LINE
  8
0
 10
114.62
 20
100.4
 11
100.309
 21
100.4
  0
LINE
  8
0
 10
7.94545
 20
100.4
 11
7.94545
 21
103.6
  0
LINE
  8
0
 10
7.94545
 20
103.6
 11
22.2566
 21
103.6
  0
LINE
  8
0
 10
22.2566
 20
103.6
 11
22.2566
 21
100.4
  0
LINE
  8
0
 10
22.2566
 20
100.4
 11
7.94545
 21
100.4
  0
LINE
  8
0
 10
31.0364
 20
100.4
 11
31.0364
 21
103.6
  0
LINE
  8
0
 10
31.0364
 20
103.6
 11
45.3475
 21
103.6
  0
LINE
  8
0
 10
45.3475
 20
103.6
 11
45.3475
 21
100.4
  0
LINE
  8
0
 10
45.3475
 20
100.4
 11
31.0364
 21
100.4
  0
LINE
  8
0
 10
77.2182
 20
100.4
 11
77.2182
 21
103.6
  0
LINE
  8
0
 10
77.2182
 20
103.6
 11
91.5293
 21
103.6
  0
LINE
  8
0
 10
91.5293
 20
103.6
 11
91.5293
 21
100.4
  0
LINE
  8
0
 10
91.5293
 20
100.4
 11
77.2182
 21
100.4
  0
LINE
  8
0
 10
54.1273
 20
100.4
 11
54.1273
 21
103.6
  0
LINE
  8
0
 10
54.1273
 20
103.6
 11
68.4384
 21
103.6
  0
LINE
  8
0
 10
68.4384
 20
103.6
 11
68.4384
 21
100.4
  0
LINE
  8
0
 10
68.4384
 20
100.4
 11
54.1273
 21
100.4
  0
LINE
  8
0
 10
-3.59999
 20
83.9454
 11
-3.59999
 21
93.3273
  0
LINE
  8
0
 10
-3.59999
 20
93.3273
 11
-0.399994
 21
93.3273
  0
LINE
  8
0
 10
-0.399994
 20
93.3273
 11
-0.399994
 21
83.9454
  0
LINE
  8
0
 10
-0.399994
 20
83.9454
 11
-3.59999
 21
83.9454
  0
LINE
  8
0
 10
120.4
 20
83.9454
 11
120.4
 21
93.3273
  0
LINE
  8
0
 10
120.4
 20
93.3273
 11
123.6
 21
93.3273
  0
LINE
  8
0
 10
123.6
 20
93.3273
 11
123.6
 21
83.9454
  0
LINE
  8
0
 10
123.6
 20
83.9454
 11
120.4
 21
83.9454
  0
LINE
  8
0
 10
120.4
 20
64.4909
 11
120.4
 21
73.8727
  0
LINE
  8
0
 10
120.4
 20
73.8727
 11
123.6
 21
73.8727
  0
LINE
  8
0
 10
123.6
 20
73.8727
 11
123.6
 21
64.4909
  0
LINE
  8
0
 10
123.6
 20
64.4909
 11
120.4
 21
64.4909
  0
LINE
  8
0
 10
-3.59999
 20
64.4909
 11
-3.59999
 21
73.8727
  0
LINE
  8
0
 10
-3.59999
 20
73.8727
 11
-0.399994
 21
73.8727
  0
LINE
  8
0
 10
-0.399994
 20
73.8727
 11
-0.399994
 21
64.4909
  0
LINE
  8
0
 10
-0.399994
 20
64.4909
 11
-3.59999
 21
64.4909
  0
LINE
  8
0
 10
-3.59999
 20
45.0364
 11
-3.59999
 21
54.4182
  0
LINE
  8
0
 10
-3.59999
 20
54.4182
 11
-0.399994
 21
54.4182
  0
LINE
  8
0
 10
-0.399994
 20
54.4182
 11
-0.399994
 21
45.0364
  0
LINE
  8
0
 10
-0.399994
 20
45.0364
 11
-3.59999
 21
45.0364
  0
LINE
  8
0
 10
120.4
 20
45.0364
 11
120.4
 21
54.4182
  0
LINE
  8
0
 10
120.4
 20
54.4182
 11
123.6
 21
54.4182
  0
LINE
  8
0
 10
123.6
 20
54.4182
 11
123.6
 21
45.0364
  0
LINE
  8
0
 10
123.6
 20
45.0364
 11
120.4
 21
45.0364
  0
LINE
  8
0
 10
-3.59999
 20
25.5818
 11
-3.59999
 21
34.9636
  0
LINE
  8
0
 10
-3.59999
 20
34.9636
 11
-0.399994
 21
34.9636
  0
LINE
  8
0
 10
-0.399994
 20
34.9636
 11
-0.399994
 21
25.5818
  0
LINE
  8
0
 10
-0.399994
 20
25.5818
 11
-3.59999
 21
25.5818
  0
LINE
  8
0
 10
120.4
 20
25.5818
 11
120.4
 21
34.9636
  0
LINE
  8
0
 10
120.4
 20
34.9636
 11
123.6
 21
34.9636
  0
LINE
  8
0
 10
123.6
 20
34.9636
 11
123.6
 21
25.5818
  0
LINE
  8
0
 10
123.6
 20
25.5818
 11
120.4
 21
25.5818
  0
LINE
  8
0
 10
120.4
 20
6.12726
 11
120.4
 21
15.5091
  0
LINE
  8
0
 10
120.4
 20
15.5091
 11
123.6
 21
15.5091
  0
LINE
  8
0
 10
123.6
 20
15.5091
 11
123.6
 21
6.12726
  0
LINE
  8
0
 10
123.6
 20
6.12726
 11
120.4
 21
6.12726
  0
LINE
  8
0
 10
-3.59999
 20
6.12726
 11
-3.59999
 21
15.5091
  0
LINE
  8
0
 10
-3.59999
 20
15.5091
 11
-0.399994
 21
15.5091
  0
LINE
  8
0
 10
-0.399994
 20
15.5091
 11
-0.399994
 21
6.12726
  0
LINE
  8
0
 10
-0.399994
 20
6.12726
 11
-3.59999
 21
6.12726
  0
LINE
  8
0
 10
100.309
 20
-3.59999
 11
100.309
 21
-0.399994
  0
LINE
  8
0
 10
100.309
 20
-0.399994
 11
113.209
 21
-0.399994
  0
LINE
  8
0
 10
113.209
 20
-0.399994
 11
113.209
 21
-3.59999
  0
LINE
  8
0
 10
113.209
 20
-3.59999
 11
100.309
 21
-3.59999
  0
LINE
  8
0
 10
7.94545
 20
-3.59999
 11
7.94545
 21
-0.399994
  0
LINE
  8
0
 10
7.94545
 20
-0.399994
 11
20.8454
 21
-0.399994
  0
LINE
  8
0
 10
20.8454
 20
-0.399994
 11
20.8454
 21
-3.59999
  0
LINE
  8
0
 10
20.8454
 20
-3.59999
 11
7.94545
 21
-3.59999
  0
LINE
  8
0
 10
31.0364
 20
-3.59999
 11
31.0364
 21
-0.399994
  0
LINE
  8
0
 10
31.0364
 20
-0.399994
 11
43.9364
 21
-0.399994
  0
LINE
  8
0
 10
43.9364
 20
-0.399994
 11
43.9364
 21
-3.59999
  0
LINE
  8
0
 10
43.9364
 20
-3.59999
 11
31.0364
 21
-3.59999
  0
LINE
  8
0
 10
54.1273
 20
-3.59999
 11
54.1273
 21
-0.399994
  0
LINE
  8
0
 10
54.1273
 20
-0.399994
 11
67.0273
 21
-0.399994
  0
LINE
  8
0
 10
67.0273
 20
-0.399994
 11
67.0273
 21
-3.59999
  0
LINE
  8
0
 10
67.0273
 20
-3.59999
 11
54.1273
 21
-3.59999
  0
LINE
  8
0
 10
77.2182
 20
-3.59999
 11
77.2182
 21
-0.399994
  0
LINE
  8
0
 10
77.2182
 20
-0.399994
 11
90.1182
 21
-0.399994
  0
LINE
  8
0
 10
90.1182
 20
-0.399994
 11
90.1182
 21
-3.59999
  0
LINE
  8
0
 10
90.1182
 20
-3.59999
 11
77.2182
 21
-3.59999
  0
ENDSEC
  0
SECTION
  2
OBJECTS
  0
DICTIONARY
  0
ENDSEC
  0
EOF
