M48
; DRILL file {KiCad (6.0.4)} date Fri Jun  2 21:46:21 2023
; FORMAT={-:-/ absolute / inch / decimal}
; #@! TF.CreationDate,2023-06-02T21:46:21+02:00
; #@! TF.GenerationSoftware,Kicad,Pcbnew,(6.0.4)
; #@! TF.FileFunction,Plated,1,2,PTH
FMAT,2
INCH
; #@! TA.AperFunction,Plated,PTH,ComponentDrill
T1C0.0374
; #@! TA.AperFunction,Plated,PTH,ComponentDrill
T2C0.0394
%
G90
G05
T1
X3.8543Y-3.4035
X3.8543Y-3.502
X3.8543Y-3.6004
X3.8543Y-3.6988
X3.8543Y-3.7972
X3.8543Y-3.8957
X3.8543Y-3.9941
X3.8543Y-4.0925
X3.8543Y-4.1909
X3.8543Y-4.2894
X3.8543Y-4.3878
X3.8543Y-4.4862
X6.5689Y-3.4075
X6.5689Y-3.5059
X6.5689Y-3.6043
X6.5689Y-3.7028
X6.5689Y-3.8012
X6.5689Y-3.8996
X6.5689Y-3.998
X6.5689Y-4.0965
X6.5689Y-4.1949
X6.5689Y-4.2933
X6.5689Y-4.3917
X6.5689Y-4.4902
T2
X2.0594Y-2.1161
X2.0594Y-2.6161
X2.0594Y-5.5756
X2.1594Y-2.3161
X2.1594Y-5.2756
X2.1594Y-5.7756
X2.4531Y-2.1161
X2.4531Y-2.6161
X2.4531Y-5.5756
X2.5531Y-2.3161
X2.5531Y-5.2756
X2.5531Y-5.7756
X2.9453Y-2.1161
X2.9453Y-2.6161
X2.9453Y-5.5756
X3.0453Y-2.3161
X3.0453Y-5.2756
X3.0453Y-5.7756
X3.3252Y-2.1161
X3.3252Y-2.6161
X3.3252Y-5.5756
X3.4252Y-2.3161
X3.4252Y-5.2756
X3.4252Y-5.7756
X3.7051Y-2.1161
X3.7051Y-2.6161
X3.7051Y-5.5756
X3.8051Y-2.3161
X3.8051Y-5.2756
X3.8051Y-5.7756
X3.9173Y-4.7244
X3.9173Y-4.8228
X4.085Y-2.1161
X4.085Y-2.6161
X4.085Y-5.5756
X4.185Y-2.3161
X4.185Y-5.2756
X4.185Y-5.7756
X4.465Y-2.1161
X4.465Y-2.6161
X4.465Y-5.5756
X4.565Y-2.3161
X4.565Y-5.2756
X4.565Y-5.7756
X4.8449Y-2.1161
X4.8449Y-2.6161
X4.8449Y-5.5756
X4.9449Y-2.3161
X4.9449Y-5.2756
X4.9449Y-5.7756
X5.2248Y-2.1161
X5.2248Y-2.6161
X5.2248Y-5.5756
X5.3248Y-2.3161
X5.3248Y-5.2756
X5.3248Y-5.7756
X5.6047Y-2.1161
X5.6047Y-2.6161
X5.6047Y-5.5756
X5.7047Y-2.3161
X5.7047Y-5.2756
X5.7047Y-5.7756
X6.0965Y-2.1161
X6.0965Y-2.6161
X6.0965Y-5.5756
X6.1965Y-2.3161
X6.1965Y-5.2756
X6.1965Y-5.7756
X6.4902Y-2.1161
X6.4902Y-2.6161
X6.4902Y-5.5756
X6.5902Y-2.3161
X6.5902Y-5.2756
X6.5902Y-5.7756
T0
M30
