%TF.GenerationSoftware,KiCad,Pcbnew,(6.0.4)*%
%TF.CreationDate,2023-06-02T21:46:19+02:00*%
%TF.ProjectId,LED-Zappelin-V2-ResistorBoard,4c45442d-5a61-4707-9065-6c696e2d5632,rev?*%
%TF.SameCoordinates,Original*%
%TF.FileFunction,Soldermask,Top*%
%TF.FilePolarity,Negative*%
%FSLAX46Y46*%
G04 Gerber Fmt 4.6, Leading zero omitted, Abs format (unit mm)*
G04 Created by KiCad (PCBNEW (6.0.4)) date 2023-06-02 21:46:19*
%MOMM*%
%LPD*%
G01*
G04 APERTURE LIST*
G04 Aperture macros list*
%AMRoundRect*
0 Rectangle with rounded corners*
0 $1 Rounding radius*
0 $2 $3 $4 $5 $6 $7 $8 $9 X,Y pos of 4 corners*
0 Add a 4 corners polygon primitive as box body*
4,1,4,$2,$3,$4,$5,$6,$7,$8,$9,$2,$3,0*
0 Add four circle primitives for the rounded corners*
1,1,$1+$1,$2,$3*
1,1,$1+$1,$4,$5*
1,1,$1+$1,$6,$7*
1,1,$1+$1,$8,$9*
0 Add four rect primitives between the rounded corners*
20,1,$1+$1,$2,$3,$4,$5,0*
20,1,$1+$1,$4,$5,$6,$7,0*
20,1,$1+$1,$6,$7,$8,$9,0*
20,1,$1+$1,$8,$9,$2,$3,0*%
G04 Aperture macros list end*
%TA.AperFunction,Profile*%
%ADD10C,0.100000*%
%TD*%
%ADD11C,1.800000*%
%ADD12RoundRect,0.250000X-0.725000X0.600000X-0.725000X-0.600000X0.725000X-0.600000X0.725000X0.600000X0*%
%ADD13O,1.950000X1.700000*%
%ADD14O,2.000000X1.700000*%
%ADD15RoundRect,0.250000X0.750000X-0.600000X0.750000X0.600000X-0.750000X0.600000X-0.750000X-0.600000X0*%
%ADD16RoundRect,0.250000X0.725000X-0.600000X0.725000X0.600000X-0.725000X0.600000X-0.725000X-0.600000X0*%
%ADD17C,3.000000*%
G04 APERTURE END LIST*
D10*
X52850000Y-150250000D02*
X166850000Y-150250000D01*
X169850000Y-147250000D02*
X169850000Y-53250000D01*
X154150000Y-125250000D02*
G75*
G03*
X157150000Y-122250000I0J3000000D01*
G01*
X52850000Y-50250000D02*
G75*
G03*
X49850000Y-53250000I0J-3000000D01*
G01*
X169850000Y-53250000D02*
G75*
G03*
X166850000Y-50250000I-3000000J0D01*
G01*
X157150000Y-78250000D02*
G75*
G03*
X154150000Y-75250000I-3000000J0D01*
G01*
X154150000Y-75250000D02*
X110550000Y-75250000D01*
X110550000Y-75250000D02*
G75*
G03*
X107550000Y-78250000I0J-3000000D01*
G01*
X107550000Y-122250000D02*
X107550000Y-78250000D01*
X157150000Y-78250000D02*
X157150000Y-122250000D01*
X49850000Y-147250000D02*
G75*
G03*
X52850000Y-150250000I3000000J0D01*
G01*
X154150000Y-125250000D02*
X110550000Y-125250000D01*
X166850000Y-50250000D02*
X52850000Y-50250000D01*
X107550000Y-122250000D02*
G75*
G03*
X110550000Y-125250000I3000000J0D01*
G01*
X49850000Y-53250000D02*
X49850000Y-147250000D01*
X166850000Y-150250000D02*
G75*
G03*
X169850000Y-147250000I0J3000000D01*
G01*
D11*
%TO.C,RV12*%
X167390000Y-134000000D03*
X164850000Y-141620000D03*
X167390000Y-146700000D03*
%TD*%
D12*
%TO.C,J3*%
X166850000Y-86550000D03*
D13*
X166850000Y-89050000D03*
X166850000Y-91550000D03*
X166850000Y-94050000D03*
X166850000Y-96550000D03*
X166850000Y-99050000D03*
X166850000Y-101550000D03*
X166850000Y-104050000D03*
X166850000Y-106550000D03*
X166850000Y-109050000D03*
X166850000Y-111550000D03*
X166850000Y-114050000D03*
%TD*%
D11*
%TO.C,RV9*%
X135250000Y-134000000D03*
X132710000Y-141620000D03*
X135250000Y-146700000D03*
%TD*%
%TO.C,RV3*%
X77350000Y-134000000D03*
X74810000Y-141620000D03*
X77350000Y-146700000D03*
%TD*%
%TO.C,RV18*%
X113410000Y-66450000D03*
X115950000Y-58830000D03*
X113410000Y-53750000D03*
%TD*%
%TO.C,RV2*%
X64850000Y-134000000D03*
X62310000Y-141620000D03*
X64850000Y-146700000D03*
%TD*%
%TO.C,RV11*%
X157390000Y-134000000D03*
X154850000Y-141620000D03*
X157390000Y-146700000D03*
%TD*%
D14*
%TO.C,J1*%
X99500000Y-120000000D03*
D15*
X99500000Y-122500000D03*
%TD*%
D11*
%TO.C,RV13*%
X164850000Y-66450000D03*
X167390000Y-58830000D03*
X164850000Y-53750000D03*
%TD*%
%TO.C,RV15*%
X142360000Y-66450000D03*
X144900000Y-58830000D03*
X142360000Y-53750000D03*
%TD*%
%TO.C,RV16*%
X132710000Y-66450000D03*
X135250000Y-58830000D03*
X132710000Y-53750000D03*
%TD*%
%TO.C,RV8*%
X125600000Y-134000000D03*
X123060000Y-141620000D03*
X125600000Y-146700000D03*
%TD*%
D16*
%TO.C,J2*%
X97900000Y-113950000D03*
D13*
X97900000Y-111450000D03*
X97900000Y-108950000D03*
X97900000Y-106450000D03*
X97900000Y-103950000D03*
X97900000Y-101450000D03*
X97900000Y-98950000D03*
X97900000Y-96450000D03*
X97900000Y-93950000D03*
X97900000Y-91450000D03*
X97900000Y-88950000D03*
X97900000Y-86450000D03*
%TD*%
D11*
%TO.C,RV20*%
X94110000Y-66450000D03*
X96650000Y-58830000D03*
X94110000Y-53750000D03*
%TD*%
%TO.C,RV10*%
X144900000Y-134000000D03*
X142360000Y-141620000D03*
X144900000Y-146700000D03*
%TD*%
D17*
%TO.C,H4*%
X149850000Y-130250000D03*
%TD*%
%TO.C,H2*%
X149850000Y-70250000D03*
%TD*%
%TO.C,H1*%
X69850000Y-70250000D03*
%TD*%
D11*
%TO.C,RV1*%
X54850000Y-134000000D03*
X52310000Y-141620000D03*
X54850000Y-146700000D03*
%TD*%
%TO.C,RV22*%
X74810000Y-66450000D03*
X77350000Y-58830000D03*
X74810000Y-53750000D03*
%TD*%
%TO.C,RV5*%
X96650000Y-134000000D03*
X94110000Y-141620000D03*
X96650000Y-146700000D03*
%TD*%
%TO.C,RV4*%
X87000000Y-134000000D03*
X84460000Y-141620000D03*
X87000000Y-146700000D03*
%TD*%
%TO.C,RV21*%
X84460000Y-66450000D03*
X87000000Y-58830000D03*
X84460000Y-53750000D03*
%TD*%
%TO.C,RV14*%
X154850000Y-66450000D03*
X157390000Y-58830000D03*
X154850000Y-53750000D03*
%TD*%
%TO.C,RV19*%
X103760000Y-66450000D03*
X106300000Y-58830000D03*
X103760000Y-53750000D03*
%TD*%
%TO.C,RV24*%
X52310000Y-66450000D03*
X54850000Y-58830000D03*
X52310000Y-53750000D03*
%TD*%
%TO.C,RV7*%
X115950000Y-134000000D03*
X113410000Y-141620000D03*
X115950000Y-146700000D03*
%TD*%
%TO.C,RV6*%
X106300000Y-134000000D03*
X103760000Y-141620000D03*
X106300000Y-146700000D03*
%TD*%
%TO.C,RV23*%
X62310000Y-66450000D03*
X64850000Y-58830000D03*
X62310000Y-53750000D03*
%TD*%
D17*
%TO.C,H3*%
X69850000Y-130250000D03*
%TD*%
D11*
%TO.C,RV17*%
X123060000Y-66450000D03*
X125600000Y-58830000D03*
X123060000Y-53750000D03*
%TD*%
M02*
