M48
; DRILL file {KiCad (6.0.4)} date Fri Jun  2 21:55:02 2023
; FORMAT={-:-/ absolute / inch / decimal}
; #@! TF.CreationDate,2023-06-02T21:55:02+02:00
; #@! TF.GenerationSoftware,Kicad,Pcbnew,(6.0.4)
; #@! TF.FileFunction,Plated,1,2,PTH
FMAT,2
INCH
; #@! TA.AperFunction,Plated,PTH,ViaDrill
T1C0.0157
; #@! TA.AperFunction,Plated,PTH,ComponentDrill
T2C0.0217
; #@! TA.AperFunction,Plated,PTH,ComponentDrill
T3C0.0315
; #@! TA.AperFunction,Plated,PTH,ComponentDrill
T4C0.0354
; #@! TA.AperFunction,Plated,PTH,ComponentDrill
T5C0.0374
; #@! TA.AperFunction,Plated,PTH,ComponentDrill
T6C0.0394
; #@! TA.AperFunction,Plated,PTH,ComponentDrill
T7C0.0394
; #@! TA.AperFunction,Plated,PTH,ComponentDrill
T8C0.0409
; #@! TA.AperFunction,Plated,PTH,ComponentDrill
T9C0.0728
; #@! TA.AperFunction,Plated,PTH,ComponentDrill
T10C0.0866
; #@! TA.AperFunction,Plated,PTH,ComponentDrill
T11C0.1260
%
G90
G05
T1
X3.4665Y-3.0197
X4.815Y-3.4331
X5.2028Y-3.1417
X5.3839Y-3.0472
X6.0522Y-3.5167
X6.1614Y-3.4547
T3
X2.2913Y-4.0669
X2.3913Y-4.0669
X2.4913Y-4.0669
X2.6587Y-4.1594
X2.6587Y-4.3091
X2.6594Y-4.0098
X3.2587Y-4.1594
X3.2587Y-4.3091
X3.2594Y-4.0098
X3.2992Y-4.6083
X3.3992Y-4.6083
X3.4992Y-4.6083
X3.6264Y-4.4587
X3.6272Y-4.0098
X3.6272Y-4.1594
X3.6272Y-4.3091
X3.6272Y-4.6083
X4.2264Y-4.4587
X4.2272Y-4.0098
X4.2272Y-4.1594
X4.2272Y-4.3091
X4.2272Y-4.6083
X4.7224Y-3.0406
X4.7224Y-3.1406
X4.7224Y-3.2406
X4.7224Y-3.3406
X4.7224Y-3.4406
X4.7224Y-3.5406
X4.7224Y-3.6406
X5.0224Y-3.0406
X5.0224Y-3.1406
X5.0224Y-3.2406
X5.0224Y-3.3406
X5.0224Y-3.4406
X5.0224Y-3.5406
X5.0224Y-3.6406
X5.5098Y-3.0406
X5.5098Y-3.1406
X5.5098Y-3.2406
X5.5098Y-3.3406
X5.5098Y-3.4406
X5.5098Y-3.5406
X5.5098Y-3.6406
X5.8098Y-3.0406
X5.8098Y-3.1406
X5.8098Y-3.2406
X5.8098Y-3.3406
X5.8098Y-3.4406
X5.8098Y-3.5406
X5.8098Y-3.6406
X6.2972Y-3.0406
X6.2972Y-3.1406
X6.2972Y-3.2406
X6.2972Y-3.3406
X6.2972Y-3.4406
X6.2972Y-3.5406
X6.2972Y-3.6406
X6.5972Y-3.0406
X6.5972Y-3.1406
X6.5972Y-3.2406
X6.5972Y-3.3406
X6.5972Y-3.4406
X6.5972Y-3.5406
X6.5972Y-3.6406
T4
X2.5673Y-5.1122
X2.6673Y-5.1122
X3.2317Y-5.1122
X3.3317Y-5.1122
X3.5516Y-5.1122
X3.6516Y-5.1122
X4.2159Y-5.1122
X4.3159Y-5.1122
T5
X4.6713Y-4.0295
X4.7697Y-4.0295
X4.8681Y-4.0295
T6
X4.9616Y-1.8028
X4.9659Y-4.8783
X5.0161Y-1.6909
X5.0205Y-4.9902
X5.0707Y-1.8028
X5.075Y-4.8783
X5.1252Y-1.6909
X5.1295Y-4.9902
X5.1797Y-1.8028
X5.1841Y-4.8783
X5.2343Y-1.6909
X5.2386Y-4.9902
X5.2888Y-1.8028
X5.2931Y-4.8783
X5.3433Y-1.6909
X5.3476Y-4.9902
X5.3978Y-1.8028
X5.4022Y-4.8783
X5.4524Y-1.6909
X5.4567Y-4.9902
X5.5069Y-1.8028
X5.5112Y-4.8783
X5.5614Y-1.6909
X5.5657Y-4.9902
X5.6159Y-1.8028
X5.6203Y-4.8783
X5.6705Y-1.6909
X5.6748Y-4.9902
X5.725Y-1.8028
X5.7293Y-4.8783
X5.7795Y-1.6909
X5.7839Y-4.9902
X5.8341Y-1.8028
X5.8384Y-4.8783
X5.8886Y-1.6909
X5.8929Y-4.9902
X5.9431Y-1.8028
X5.9474Y-4.8783
X5.9976Y-1.6909
X6.002Y-4.9902
X6.0522Y-1.8028
X6.0565Y-4.8783
X6.1067Y-1.6909
X6.111Y-4.9902
X6.1612Y-1.8028
X6.1656Y-4.8783
X6.2157Y-1.6909
X6.2201Y-4.9902
X6.2703Y-1.8028
X6.2746Y-4.8783
T7
X2.4548Y-2.1594
X2.4548Y-2.2578
X2.4548Y-4.5217
X2.4548Y-4.6201
T8
X2.1669Y-2.8406
X2.1669Y-3.8406
X2.2669Y-2.8406
X2.2669Y-3.8406
X2.3669Y-2.8406
X2.3669Y-3.8406
X2.4669Y-2.8406
X2.4669Y-3.8406
X2.5669Y-2.8406
X2.5669Y-3.8406
X2.6669Y-2.8406
X2.6669Y-3.8406
X2.7669Y-2.8406
X2.7669Y-3.8406
X2.8669Y-2.8406
X2.8669Y-3.8406
X2.9669Y-2.8406
X2.9669Y-3.8406
X3.0669Y-2.8406
X3.0669Y-3.8406
X3.1669Y-2.8406
X3.1669Y-3.8406
X3.2669Y-2.8406
X3.2669Y-3.8406
X3.3669Y-2.8406
X3.3669Y-3.8406
X3.4669Y-2.8406
X3.4669Y-3.8406
X3.5669Y-2.8406
X3.5669Y-3.8406
X3.6669Y-2.8406
X3.6669Y-3.8406
X3.7669Y-2.8406
X3.7669Y-3.8406
X3.8669Y-2.8406
X3.8669Y-3.8406
X3.9669Y-2.8406
X3.9669Y-3.8406
T9
X2.8445Y-5.1004
X3.0571Y-5.1004
X3.8287Y-5.1004
X4.0413Y-5.1004
T10
X2.2869Y-1.9586
X2.2869Y-2.3601
X2.2869Y-4.3209
X2.2869Y-4.7224
T11
X4.6888Y-1.7469
X4.6931Y-4.9343
X6.5431Y-1.7469
X6.5474Y-4.9343
T2
G00X2.8508Y-4.7807
M15
G01X2.8508Y-4.8201
M16
G05
G00X2.8508Y-4.8807
M15
G01X2.8508Y-4.9201
M16
G05
G00X2.9508Y-4.7807
M15
G01X2.9508Y-4.8201
M16
G05
G00X2.9508Y-4.8807
M15
G01X2.9508Y-4.9201
M16
G05
G00X3.0508Y-4.7807
M15
G01X3.0508Y-4.8201
M16
G05
G00X3.0508Y-4.8807
M15
G01X3.0508Y-4.9201
M16
G05
G00X3.835Y-4.7807
M15
G01X3.835Y-4.8201
M16
G05
G00X3.835Y-4.8807
M15
G01X3.835Y-4.9201
M16
G05
G00X3.935Y-4.7807
M15
G01X3.935Y-4.8201
M16
G05
G00X3.935Y-4.8807
M15
G01X3.935Y-4.9201
M16
G05
G00X4.035Y-4.7807
M15
G01X4.035Y-4.8201
M16
G05
G00X4.035Y-4.8807
M15
G01X4.035Y-4.9201
M16
G05
T0
M30
