%TF.GenerationSoftware,KiCad,Pcbnew,(6.0.4)*%
%TF.CreationDate,2023-06-02T21:54:59+02:00*%
%TF.ProjectId,LED-Zappelin-V2-Chrolis,4c45442d-5a61-4707-9065-6c696e2d5632,rev?*%
%TF.SameCoordinates,Original*%
%TF.FileFunction,Copper,L1,Top*%
%TF.FilePolarity,Positive*%
%FSLAX46Y46*%
G04 Gerber Fmt 4.6, Leading zero omitted, Abs format (unit mm)*
G04 Created by KiCad (PCBNEW (6.0.4)) date 2023-06-02 21:54:59*
%MOMM*%
%LPD*%
G01*
G04 APERTURE LIST*
G04 Aperture macros list*
%AMRoundRect*
0 Rectangle with rounded corners*
0 $1 Rounding radius*
0 $2 $3 $4 $5 $6 $7 $8 $9 X,Y pos of 4 corners*
0 Add a 4 corners polygon primitive as box body*
4,1,4,$2,$3,$4,$5,$6,$7,$8,$9,$2,$3,0*
0 Add four circle primitives for the rounded corners*
1,1,$1+$1,$2,$3*
1,1,$1+$1,$4,$5*
1,1,$1+$1,$6,$7*
1,1,$1+$1,$8,$9*
0 Add four rect primitives between the rounded corners*
20,1,$1+$1,$2,$3,$4,$5,0*
20,1,$1+$1,$4,$5,$6,$7,0*
20,1,$1+$1,$6,$7,$8,$9,0*
20,1,$1+$1,$8,$9,$2,$3,0*%
G04 Aperture macros list end*
%TA.AperFunction,ComponentPad*%
%ADD10R,1.560000X1.560000*%
%TD*%
%TA.AperFunction,ComponentPad*%
%ADD11C,1.560000*%
%TD*%
%TA.AperFunction,ComponentPad*%
%ADD12R,1.800000X1.800000*%
%TD*%
%TA.AperFunction,ComponentPad*%
%ADD13C,1.800000*%
%TD*%
%TA.AperFunction,ComponentPad*%
%ADD14RoundRect,0.250000X-0.600000X-0.725000X0.600000X-0.725000X0.600000X0.725000X-0.600000X0.725000X0*%
%TD*%
%TA.AperFunction,ComponentPad*%
%ADD15O,1.700000X1.950000*%
%TD*%
%TA.AperFunction,ComponentPad*%
%ADD16R,0.750000X1.750000*%
%TD*%
%TA.AperFunction,ComponentPad*%
%ADD17C,1.850000*%
%TD*%
%TA.AperFunction,ComponentPad*%
%ADD18C,1.600000*%
%TD*%
%TA.AperFunction,ComponentPad*%
%ADD19O,1.600000X1.600000*%
%TD*%
%TA.AperFunction,ComponentPad*%
%ADD20C,4.000000*%
%TD*%
%TA.AperFunction,ComponentPad*%
%ADD21R,1.600000X1.600000*%
%TD*%
%TA.AperFunction,ComponentPad*%
%ADD22O,2.499360X1.600200*%
%TD*%
%TA.AperFunction,ComponentPad*%
%ADD23O,7.000240X3.500120*%
%TD*%
%TA.AperFunction,ComponentPad*%
%ADD24R,2.400000X1.600000*%
%TD*%
%TA.AperFunction,ComponentPad*%
%ADD25O,2.400000X1.600000*%
%TD*%
%TA.AperFunction,ComponentPad*%
%ADD26R,1.500000X1.500000*%
%TD*%
%TA.AperFunction,ComponentPad*%
%ADD27C,1.500000*%
%TD*%
%TA.AperFunction,ViaPad*%
%ADD28C,0.800000*%
%TD*%
%TA.AperFunction,Conductor*%
%ADD29C,0.250000*%
%TD*%
G04 APERTURE END LIST*
D10*
%TO.P,U1,1,3V3*%
%TO.N,3.3V*%
X100760000Y-72150000D03*
D11*
%TO.P,U1,2,EN*%
%TO.N,unconnected-(U1-Pad2)*%
X98220000Y-72150000D03*
%TO.P,U1,3,SENSOR_VP*%
%TO.N,unconnected-(U1-Pad3)*%
X95680000Y-72150000D03*
%TO.P,U1,4,SENSOR_VN*%
%TO.N,unconnected-(U1-Pad4)*%
X93140000Y-72150000D03*
%TO.P,U1,5,IO34*%
%TO.N,unconnected-(U1-Pad5)*%
X90600000Y-72150000D03*
%TO.P,U1,6,IO35*%
%TO.N,Net-(R1-Pad1)*%
X88060000Y-72150000D03*
%TO.P,U1,7,IO32*%
%TO.N,NeoPixel*%
X85520000Y-72150000D03*
%TO.P,U1,8,IO33*%
%TO.N,Trigger*%
X82980000Y-72150000D03*
%TO.P,U1,9,IO25*%
%TO.N,GPIO25*%
X80440000Y-72150000D03*
%TO.P,U1,10,IO26*%
%TO.N,GPIO26*%
X77900000Y-72150000D03*
%TO.P,U1,11,IO27*%
%TO.N,GPIO27*%
X75360000Y-72150000D03*
%TO.P,U1,12,IO14*%
%TO.N,GPIO28*%
X72820000Y-72150000D03*
%TO.P,U1,13,IO12*%
%TO.N,GPIO12*%
X70280000Y-72150000D03*
%TO.P,U1,14,GND1*%
%TO.N,GNDREF*%
X67740000Y-72150000D03*
%TO.P,U1,15,IO13*%
%TO.N,GPIO13*%
X65200000Y-72150000D03*
%TO.P,U1,16,SD2*%
%TO.N,unconnected-(U1-Pad16)*%
X62660000Y-72150000D03*
%TO.P,U1,17,SD3*%
%TO.N,unconnected-(U1-Pad17)*%
X60120000Y-72150000D03*
%TO.P,U1,18,CMD*%
%TO.N,unconnected-(U1-Pad18)*%
X57580000Y-72150000D03*
%TO.P,U1,19,EXT_5V*%
%TO.N,5V*%
X55040000Y-72150000D03*
%TO.P,U1,20,GND3*%
%TO.N,GNDREF*%
X100760000Y-97550000D03*
%TO.P,U1,21,IO23*%
%TO.N,GPIO23*%
X98220000Y-97550000D03*
%TO.P,U1,22,IO22*%
%TO.N,GPIO22*%
X95680000Y-97550000D03*
%TO.P,U1,23,TXD0*%
%TO.N,unconnected-(U1-Pad23)*%
X93140000Y-97550000D03*
%TO.P,U1,24,RXD0*%
%TO.N,unconnected-(U1-Pad24)*%
X90600000Y-97550000D03*
%TO.P,U1,25,IO21*%
%TO.N,GPIO21*%
X88060000Y-97550000D03*
%TO.P,U1,26,GND2*%
%TO.N,GNDREF*%
X85520000Y-97550000D03*
%TO.P,U1,27,IO19*%
%TO.N,GPIO19*%
X82980000Y-97550000D03*
%TO.P,U1,28,IO18*%
%TO.N,GPIO18*%
X80440000Y-97550000D03*
%TO.P,U1,29,IO5*%
%TO.N,GPIO05*%
X77900000Y-97550000D03*
%TO.P,U1,30,IO17*%
%TO.N,GPIO17*%
X75360000Y-97550000D03*
%TO.P,U1,31,IO16*%
%TO.N,GPIO16*%
X72820000Y-97550000D03*
%TO.P,U1,32,IO4*%
%TO.N,GPIO04*%
X70280000Y-97550000D03*
%TO.P,U1,33,IO0*%
%TO.N,GPIO00*%
X67740000Y-97550000D03*
%TO.P,U1,34,IO2*%
%TO.N,GPIO02*%
X65200000Y-97550000D03*
%TO.P,U1,35,IO15*%
%TO.N,GPIO15*%
X62660000Y-97550000D03*
%TO.P,U1,36,SD1*%
%TO.N,unconnected-(U1-Pad36)*%
X60120000Y-97550000D03*
%TO.P,U1,37,SD0*%
%TO.N,unconnected-(U1-Pad37)*%
X57580000Y-97550000D03*
%TO.P,U1,38,CLK*%
%TO.N,unconnected-(U1-Pad38)*%
X55040000Y-97550000D03*
%TD*%
D12*
%TO.P,D3,1,K*%
%TO.N,GNDREF*%
X109625000Y-129850000D03*
D13*
%TO.P,D3,2,A*%
%TO.N,Net-(D3-Pad2)*%
X107085000Y-129850000D03*
%TD*%
D14*
%TO.P,J5,1,Pin_1*%
%TO.N,GNDREF*%
X118650000Y-102350000D03*
D15*
%TO.P,J5,2,Pin_2*%
%TO.N,NeoPixel*%
X121150000Y-102350000D03*
%TO.P,J5,3,Pin_3*%
%TO.N,3.3V*%
X123650000Y-102350000D03*
%TD*%
D16*
%TO.P,SW1,1,A*%
%TO.N,unconnected-(SW1-Pad1)*%
X72410000Y-121930000D03*
%TO.P,SW1,2,B*%
%TO.N,Net-(SW1-Pad2)*%
X74950000Y-121930000D03*
%TO.P,SW1,3,C*%
%TO.N,Net-(SW1-Pad3)*%
X77490000Y-121930000D03*
%TO.P,SW1,4,A*%
%TO.N,Net-(R4-Pad2)*%
X72410000Y-124470000D03*
%TO.P,SW1,5,B*%
%TO.N,3.3V*%
X74950000Y-124470000D03*
%TO.P,SW1,6,C*%
%TO.N,Net-(R3-Pad2)*%
X77490000Y-124470000D03*
D17*
%TO.P,SW1,7*%
%TO.N,N/C*%
X72250000Y-129550000D03*
%TO.P,SW1,8*%
X77650000Y-129550000D03*
%TD*%
D18*
%TO.P,R4,1*%
%TO.N,Net-(D2-Pad2)*%
X82770000Y-105650000D03*
D19*
%TO.P,R4,2*%
%TO.N,Net-(R4-Pad2)*%
X67530000Y-105650000D03*
%TD*%
D16*
%TO.P,SW2,1,A*%
%TO.N,Net-(R6-Pad2)*%
X97410000Y-121930000D03*
%TO.P,SW2,2,B*%
%TO.N,Net-(SW1-Pad3)*%
X99950000Y-121930000D03*
%TO.P,SW2,3,C*%
%TO.N,Blanking*%
X102490000Y-121930000D03*
%TO.P,SW2,4,A*%
%TO.N,Net-(R7-Pad2)*%
X97410000Y-124470000D03*
%TO.P,SW2,5,B*%
%TO.N,Net-(SW2-Pad5)*%
X99950000Y-124470000D03*
%TO.P,SW2,6,C*%
%TO.N,Net-(R8-Pad2)*%
X102490000Y-124470000D03*
D17*
%TO.P,SW2,7*%
%TO.N,N/C*%
X97250000Y-129550000D03*
%TO.P,SW2,8*%
X102650000Y-129550000D03*
%TD*%
D12*
%TO.P,D1,1,K*%
%TO.N,GNDREF*%
X67750000Y-129850000D03*
D13*
%TO.P,D1,2,A*%
%TO.N,Net-(D1-Pad2)*%
X65210000Y-129850000D03*
%TD*%
D18*
%TO.P,R3,1*%
%TO.N,Net-(D1-Pad2)*%
X67530000Y-109450000D03*
D19*
%TO.P,R3,2*%
%TO.N,Net-(R3-Pad2)*%
X82770000Y-109450000D03*
%TD*%
D20*
%TO.P,J3,0*%
%TO.N,N/C*%
X119095000Y-44370000D03*
X166195000Y-44370000D03*
D21*
%TO.P,J3,1,1*%
%TO.N,GPIO15*%
X126025000Y-45790000D03*
D18*
%TO.P,J3,2,2*%
%TO.N,GPIO02*%
X128795000Y-45790000D03*
%TO.P,J3,3,3*%
%TO.N,GPIO00*%
X131565000Y-45790000D03*
%TO.P,J3,4,4*%
%TO.N,GPIO04*%
X134335000Y-45790000D03*
%TO.P,J3,5,5*%
%TO.N,GPIO16*%
X137105000Y-45790000D03*
%TO.P,J3,6,6*%
%TO.N,GPIO17*%
X139875000Y-45790000D03*
%TO.P,J3,7,7*%
%TO.N,GPIO Input 6*%
X142645000Y-45790000D03*
%TO.P,J3,8,8*%
%TO.N,GPIO Input 5*%
X145415000Y-45790000D03*
%TO.P,J3,9,9*%
%TO.N,GPIO Input 4*%
X148185000Y-45790000D03*
%TO.P,J3,10,10*%
%TO.N,GPIO Input 3*%
X150955000Y-45790000D03*
%TO.P,J3,11,11*%
%TO.N,GPIO Input 2*%
X153725000Y-45790000D03*
%TO.P,J3,12,12*%
%TO.N,GPIO Input 1*%
X156495000Y-45790000D03*
%TO.P,J3,13,13*%
%TO.N,GNDREF*%
X159265000Y-45790000D03*
%TO.P,J3,14,P14*%
X127410000Y-42950000D03*
%TO.P,J3,15,P15*%
X130180000Y-42950000D03*
%TO.P,J3,16,P16*%
X132950000Y-42950000D03*
%TO.P,J3,17,P17*%
X135720000Y-42950000D03*
%TO.P,J3,18,P18*%
X138490000Y-42950000D03*
%TO.P,J3,19,P19*%
X141260000Y-42950000D03*
%TO.P,J3,20,P20*%
X144030000Y-42950000D03*
%TO.P,J3,21,P21*%
X146800000Y-42950000D03*
%TO.P,J3,22,P22*%
X149570000Y-42950000D03*
%TO.P,J3,23,P23*%
X152340000Y-42950000D03*
%TO.P,J3,24,P24*%
X155110000Y-42950000D03*
%TO.P,J3,25,P25*%
X157880000Y-42950000D03*
%TD*%
D22*
%TO.P,J1,1,In*%
%TO.N,Net-(SW1-Pad2)*%
X62351260Y-54850000D03*
%TO.P,J1,2,Ext*%
%TO.N,GNDREF*%
X62351260Y-57349360D03*
D23*
X58086600Y-59947780D03*
X58086600Y-49749680D03*
%TD*%
D24*
%TO.P,U2,1*%
%TO.N,Blanking*%
X119950000Y-77230000D03*
D25*
%TO.P,U2,2*%
%TO.N,GPIO23*%
X119950000Y-79770000D03*
%TO.P,U2,3*%
%TO.N,GPIO Input 1*%
X119950000Y-82310000D03*
%TO.P,U2,4*%
%TO.N,Blanking*%
X119950000Y-84850000D03*
%TO.P,U2,5*%
%TO.N,GPIO22*%
X119950000Y-87390000D03*
%TO.P,U2,6*%
%TO.N,GPIO Input 2*%
X119950000Y-89930000D03*
%TO.P,U2,7,GND*%
%TO.N,GNDREF*%
X119950000Y-92470000D03*
%TO.P,U2,8*%
%TO.N,GPIO Input 3*%
X127570000Y-92470000D03*
%TO.P,U2,9*%
%TO.N,Blanking*%
X127570000Y-89930000D03*
%TO.P,U2,10*%
%TO.N,GPIO21*%
X127570000Y-87390000D03*
%TO.P,U2,11*%
%TO.N,GPIO Input 4*%
X127570000Y-84850000D03*
%TO.P,U2,12*%
%TO.N,Blanking*%
X127570000Y-82310000D03*
%TO.P,U2,13*%
%TO.N,GPIO19*%
X127570000Y-79770000D03*
%TO.P,U2,14,VCC*%
%TO.N,5V*%
X127570000Y-77230000D03*
%TD*%
D24*
%TO.P,U4,1*%
%TO.N,Blanking*%
X159950000Y-77230000D03*
D25*
%TO.P,U4,2*%
%TO.N,GPIO27*%
X159950000Y-79770000D03*
%TO.P,U4,3*%
%TO.N,GPIO Input 9*%
X159950000Y-82310000D03*
%TO.P,U4,4*%
%TO.N,Blanking*%
X159950000Y-84850000D03*
%TO.P,U4,5*%
%TO.N,GPIO28*%
X159950000Y-87390000D03*
%TO.P,U4,6*%
%TO.N,GPIO Input 10*%
X159950000Y-89930000D03*
%TO.P,U4,7,GND*%
%TO.N,GNDREF*%
X159950000Y-92470000D03*
%TO.P,U4,8*%
%TO.N,GPIO Input 11*%
X167570000Y-92470000D03*
%TO.P,U4,9*%
%TO.N,Blanking*%
X167570000Y-89930000D03*
%TO.P,U4,10*%
%TO.N,GPIO12*%
X167570000Y-87390000D03*
%TO.P,U4,11*%
%TO.N,GPIO Input 12*%
X167570000Y-84850000D03*
%TO.P,U4,12*%
%TO.N,Blanking*%
X167570000Y-82310000D03*
%TO.P,U4,13*%
%TO.N,GPIO13*%
X167570000Y-79770000D03*
%TO.P,U4,14,VCC*%
%TO.N,5V*%
X167570000Y-77230000D03*
%TD*%
D18*
%TO.P,R8,1*%
%TO.N,Net-(D4-Pad2)*%
X92130000Y-117050000D03*
D19*
%TO.P,R8,2*%
%TO.N,Net-(R8-Pad2)*%
X107370000Y-117050000D03*
%TD*%
D24*
%TO.P,U3,1*%
%TO.N,Blanking*%
X139950000Y-77230000D03*
D25*
%TO.P,U3,2*%
%TO.N,GPIO18*%
X139950000Y-79770000D03*
%TO.P,U3,3*%
%TO.N,GPIO Input 5*%
X139950000Y-82310000D03*
%TO.P,U3,4*%
%TO.N,Blanking*%
X139950000Y-84850000D03*
%TO.P,U3,5*%
%TO.N,GPIO05*%
X139950000Y-87390000D03*
%TO.P,U3,6*%
%TO.N,GPIO Input 6*%
X139950000Y-89930000D03*
%TO.P,U3,7,GND*%
%TO.N,GNDREF*%
X139950000Y-92470000D03*
%TO.P,U3,8*%
%TO.N,GPIO Input 7*%
X147570000Y-92470000D03*
%TO.P,U3,9*%
%TO.N,Blanking*%
X147570000Y-89930000D03*
%TO.P,U3,10*%
%TO.N,GPIO25*%
X147570000Y-87390000D03*
%TO.P,U3,11*%
%TO.N,GPIO Input 8*%
X147570000Y-84850000D03*
%TO.P,U3,12*%
%TO.N,Blanking*%
X147570000Y-82310000D03*
%TO.P,U3,13*%
%TO.N,GPIO26*%
X147570000Y-79770000D03*
%TO.P,U3,14,VCC*%
%TO.N,5V*%
X147570000Y-77230000D03*
%TD*%
D20*
%TO.P,J4,0*%
%TO.N,N/C*%
X166305000Y-125330000D03*
X119205000Y-125330000D03*
D21*
%TO.P,J4,1,1*%
%TO.N,unconnected-(J4-Pad1)*%
X159375000Y-123910000D03*
D18*
%TO.P,J4,2,2*%
%TO.N,unconnected-(J4-Pad2)*%
X156605000Y-123910000D03*
%TO.P,J4,3,3*%
%TO.N,unconnected-(J4-Pad3)*%
X153835000Y-123910000D03*
%TO.P,J4,4,4*%
%TO.N,unconnected-(J4-Pad4)*%
X151065000Y-123910000D03*
%TO.P,J4,5,5*%
%TO.N,unconnected-(J4-Pad5)*%
X148295000Y-123910000D03*
%TO.P,J4,6,6*%
%TO.N,unconnected-(J4-Pad6)*%
X145525000Y-123910000D03*
%TO.P,J4,7,7*%
%TO.N,GPIO Input 12*%
X142755000Y-123910000D03*
%TO.P,J4,8,8*%
%TO.N,GPIO Input 11*%
X139985000Y-123910000D03*
%TO.P,J4,9,9*%
%TO.N,GPIO Input 10*%
X137215000Y-123910000D03*
%TO.P,J4,10,10*%
%TO.N,GPIO Input 9*%
X134445000Y-123910000D03*
%TO.P,J4,11,11*%
%TO.N,GPIO Input 8*%
X131675000Y-123910000D03*
%TO.P,J4,12,12*%
%TO.N,GPIO Input 7*%
X128905000Y-123910000D03*
%TO.P,J4,13,13*%
%TO.N,GNDREF*%
X126135000Y-123910000D03*
%TO.P,J4,14,P14*%
X157990000Y-126750000D03*
%TO.P,J4,15,P15*%
X155220000Y-126750000D03*
%TO.P,J4,16,P16*%
X152450000Y-126750000D03*
%TO.P,J4,17,P17*%
X149680000Y-126750000D03*
%TO.P,J4,18,P18*%
X146910000Y-126750000D03*
%TO.P,J4,19,P19*%
X144140000Y-126750000D03*
%TO.P,J4,20,P20*%
X141370000Y-126750000D03*
%TO.P,J4,21,P21*%
X138600000Y-126750000D03*
%TO.P,J4,22,P22*%
X135830000Y-126750000D03*
%TO.P,J4,23,P23*%
X133060000Y-126750000D03*
%TO.P,J4,24,P24*%
X130290000Y-126750000D03*
%TO.P,J4,25,P25*%
X127520000Y-126750000D03*
%TD*%
%TO.P,R7,1*%
%TO.N,Net-(D3-Pad2)*%
X107350000Y-113250000D03*
D19*
%TO.P,R7,2*%
%TO.N,Net-(R7-Pad2)*%
X92110000Y-113250000D03*
%TD*%
D18*
%TO.P,R5,1*%
%TO.N,Blanking*%
X67550000Y-101850000D03*
D19*
%TO.P,R5,2*%
%TO.N,5V*%
X82790000Y-101850000D03*
%TD*%
D26*
%TO.P,Q2,1,E*%
%TO.N,Net-(SW2-Pad5)*%
X83800000Y-117050000D03*
D27*
%TO.P,Q2,2,B*%
%TO.N,Net-(SW1-Pad3)*%
X86340000Y-117050000D03*
%TO.P,Q2,3,C*%
%TO.N,3.3V*%
X88880000Y-117050000D03*
%TD*%
D18*
%TO.P,R6,1*%
%TO.N,Net-(Q1-Pad2)*%
X92130000Y-101850000D03*
D19*
%TO.P,R6,2*%
%TO.N,Net-(R6-Pad2)*%
X107370000Y-101850000D03*
%TD*%
D18*
%TO.P,R1,1*%
%TO.N,Net-(R1-Pad1)*%
X92130000Y-105650000D03*
D19*
%TO.P,R1,2*%
%TO.N,Blanking*%
X107370000Y-105650000D03*
%TD*%
D22*
%TO.P,J2,1,In*%
%TO.N,Trigger*%
X62351260Y-114850000D03*
D23*
%TO.P,J2,2,Ext*%
%TO.N,GNDREF*%
X58086600Y-109749680D03*
X58086600Y-119947780D03*
D22*
X62351260Y-117349360D03*
%TD*%
D12*
%TO.P,D2,1,K*%
%TO.N,GNDREF*%
X84625000Y-129850000D03*
D13*
%TO.P,D2,2,A*%
%TO.N,Net-(D2-Pad2)*%
X82085000Y-129850000D03*
%TD*%
D26*
%TO.P,Q1,1,E*%
%TO.N,GNDREF*%
X58200000Y-103300000D03*
D27*
%TO.P,Q1,2,B*%
%TO.N,Net-(Q1-Pad2)*%
X60740000Y-103300000D03*
%TO.P,Q1,3,C*%
%TO.N,Blanking*%
X63280000Y-103300000D03*
%TD*%
D18*
%TO.P,R2,1*%
%TO.N,GNDREF*%
X92130000Y-109450000D03*
D19*
%TO.P,R2,2*%
%TO.N,Blanking*%
X107370000Y-109450000D03*
%TD*%
D12*
%TO.P,D4,1,K*%
%TO.N,GNDREF*%
X92750000Y-129850000D03*
D13*
%TO.P,D4,2,A*%
%TO.N,Net-(D4-Pad2)*%
X90210000Y-129850000D03*
%TD*%
D28*
%TO.N,GPIO Input 2*%
X153725000Y-89325000D03*
%TO.N,GPIO Input 1*%
X122300000Y-87200000D03*
X156500000Y-87750000D03*
%TO.N,Net-(R1-Pad1)*%
X88050000Y-76700000D03*
%TO.N,GPIO19*%
X132150000Y-79800000D03*
%TO.N,GPIO18*%
X136750000Y-77400000D03*
%TD*%
D29*
%TO.N,Net-(D1-Pad2)*%
X65210000Y-111770000D02*
X67530000Y-109450000D01*
X65210000Y-129850000D02*
X65210000Y-111770000D01*
%TO.N,Net-(D2-Pad2)*%
X84450000Y-112500000D02*
X84450000Y-107330000D01*
X82085000Y-129850000D02*
X82085000Y-114865000D01*
X82085000Y-114865000D02*
X84450000Y-112500000D01*
X84450000Y-107330000D02*
X82770000Y-105650000D01*
%TO.N,Net-(D3-Pad2)*%
X109250000Y-120950000D02*
X109250000Y-115150000D01*
X107085000Y-129850000D02*
X107085000Y-123115000D01*
X109250000Y-115150000D02*
X107350000Y-113250000D01*
X107085000Y-123115000D02*
X109250000Y-120950000D01*
%TO.N,Net-(D4-Pad2)*%
X90210000Y-129850000D02*
X90210000Y-118970000D01*
X90210000Y-118970000D02*
X92130000Y-117050000D01*
%TO.N,Net-(SW1-Pad2)*%
X51950000Y-124700000D02*
X61600000Y-134350000D01*
X73700000Y-123150000D02*
X73700000Y-130966086D01*
X74920000Y-121930000D02*
X73700000Y-123150000D01*
X62351260Y-54850000D02*
X56800000Y-54850000D01*
X70316086Y-134350000D02*
X68550000Y-134350000D01*
X73700000Y-130966086D02*
X70316086Y-134350000D01*
X61600000Y-134350000D02*
X68550000Y-134350000D01*
X51950000Y-59700000D02*
X51950000Y-124700000D01*
X68550000Y-134350000D02*
X68800000Y-134350000D01*
X56800000Y-54850000D02*
X51950000Y-59700000D01*
X74950000Y-121930000D02*
X74920000Y-121930000D01*
%TO.N,Trigger*%
X53200000Y-110700000D02*
X53200000Y-77300000D01*
X62351260Y-114850000D02*
X57350000Y-114850000D01*
X80330000Y-74800000D02*
X82980000Y-72150000D01*
X57350000Y-114850000D02*
X53200000Y-110700000D01*
X53200000Y-77300000D02*
X55700000Y-74800000D01*
X55700000Y-74800000D02*
X80330000Y-74800000D01*
%TO.N,GPIO15*%
X62660000Y-97550000D02*
X80310000Y-79900000D01*
X126025000Y-54880331D02*
X126025000Y-45790000D01*
X101005331Y-79900000D02*
X126025000Y-54880331D01*
X80310000Y-79900000D02*
X101005331Y-79900000D01*
%TO.N,GPIO02*%
X65200000Y-97550000D02*
X82400480Y-80349520D01*
X82400480Y-80349520D02*
X101191529Y-80349520D01*
X126812666Y-56862666D02*
X128795000Y-54880331D01*
X128795000Y-54880331D02*
X128795000Y-45790000D01*
X124678383Y-56862666D02*
X126812666Y-56862666D01*
X101191529Y-80349520D02*
X124678383Y-56862666D01*
%TO.N,GPIO00*%
X131565000Y-54880331D02*
X131565000Y-45790000D01*
X129112186Y-57312186D02*
X129122666Y-57322666D01*
X124864581Y-57312186D02*
X129112186Y-57312186D01*
X84490960Y-80799040D02*
X101377727Y-80799040D01*
X67740000Y-97550000D02*
X84490960Y-80799040D01*
X101377727Y-80799040D02*
X124864581Y-57312186D01*
X129122666Y-57322666D02*
X131565000Y-54880331D01*
%TO.N,GPIO04*%
X70280000Y-97550000D02*
X86581440Y-81248560D01*
X86581440Y-81248560D02*
X101563925Y-81248560D01*
X125061259Y-57772186D02*
X131443145Y-57772186D01*
X134335000Y-54880331D02*
X134335000Y-45790000D01*
X101563925Y-81248560D02*
X125050779Y-57761706D01*
X125050779Y-57761706D02*
X125061259Y-57772186D01*
X131443145Y-57772186D02*
X134335000Y-54880331D01*
%TO.N,GPIO16*%
X133763625Y-58221706D02*
X137105000Y-54880331D01*
X72820000Y-97550000D02*
X88671920Y-81698080D01*
X125226497Y-58221706D02*
X133763625Y-58221706D01*
X88671920Y-81698080D02*
X101750123Y-81698080D01*
X137105000Y-54880331D02*
X137105000Y-45790000D01*
X101750123Y-81698080D02*
X125226497Y-58221706D01*
%TO.N,GPIO17*%
X101936321Y-82147600D02*
X125366961Y-58716960D01*
X90762400Y-82147600D02*
X101936321Y-82147600D01*
X75360000Y-97550000D02*
X90762400Y-82147600D01*
X125366961Y-58716960D02*
X136038371Y-58716960D01*
X136038371Y-58716960D02*
X139875000Y-54880331D01*
X139875000Y-54880331D02*
X139875000Y-45790000D01*
%TO.N,GPIO Input 6*%
X139950000Y-89930000D02*
X142645000Y-87235000D01*
X142645000Y-87235000D02*
X142645000Y-45790000D01*
%TO.N,GPIO Input 5*%
X141474511Y-80785489D02*
X141474511Y-44849211D01*
X139950000Y-82310000D02*
X141474511Y-80785489D01*
X143875000Y-44250000D02*
X145415000Y-45790000D01*
X141474511Y-44849211D02*
X142073722Y-44250000D01*
X142073722Y-44250000D02*
X143875000Y-44250000D01*
%TO.N,GPIO Input 4*%
X134950000Y-95150000D02*
X141150000Y-95150000D01*
X143800000Y-50175000D02*
X148185000Y-45790000D01*
X127570000Y-84850000D02*
X129500000Y-84850000D01*
X143800000Y-92500000D02*
X143800000Y-50175000D01*
X141150000Y-95150000D02*
X143800000Y-92500000D01*
X130900000Y-91100000D02*
X134950000Y-95150000D01*
X130900000Y-86250000D02*
X130900000Y-91100000D01*
X129500000Y-84850000D02*
X130900000Y-86250000D01*
%TO.N,GPIO Input 3*%
X141650000Y-96550000D02*
X145050000Y-93150000D01*
X130070000Y-92470000D02*
X134150000Y-96550000D01*
X145050000Y-51695000D02*
X150955000Y-45790000D01*
X134150000Y-96550000D02*
X141650000Y-96550000D01*
X127570000Y-92470000D02*
X130070000Y-92470000D01*
X145050000Y-93150000D02*
X145050000Y-51695000D01*
%TO.N,GPIO Input 2*%
X153725000Y-89325000D02*
X153725000Y-89375000D01*
X153725000Y-89325000D02*
X153725000Y-45790000D01*
%TO.N,GPIO Input 1*%
X156500000Y-82810000D02*
X156500000Y-87750000D01*
X119950000Y-82310000D02*
X122300000Y-84660000D01*
X156495000Y-45790000D02*
X156495000Y-82805000D01*
X156495000Y-82805000D02*
X156500000Y-82810000D01*
X122300000Y-84660000D02*
X122300000Y-87200000D01*
%TO.N,GPIO Input 12*%
X169300000Y-86580000D02*
X167570000Y-84850000D01*
X142755000Y-123910000D02*
X142755000Y-114850000D01*
X142755000Y-114850000D02*
X147605000Y-110000000D01*
X169300000Y-95200000D02*
X169300000Y-86580000D01*
X147605000Y-110000000D02*
X154500000Y-110000000D01*
X154500000Y-110000000D02*
X169300000Y-95200000D01*
%TO.N,GPIO Input 11*%
X167570000Y-93680000D02*
X167570000Y-92470000D01*
X139985000Y-114850000D02*
X146535000Y-108300000D01*
X139985000Y-123910000D02*
X139985000Y-114850000D01*
X146535000Y-108300000D02*
X152950000Y-108300000D01*
X152950000Y-108300000D02*
X167570000Y-93680000D01*
%TO.N,GPIO Input 10*%
X137215000Y-112665000D02*
X159950000Y-89930000D01*
X137215000Y-123910000D02*
X137215000Y-112665000D01*
%TO.N,GPIO Input 9*%
X134445000Y-112955000D02*
X158250000Y-89150000D01*
X158250000Y-84010000D02*
X159950000Y-82310000D01*
X134445000Y-123910000D02*
X134445000Y-112955000D01*
X158250000Y-89150000D02*
X158250000Y-84010000D01*
%TO.N,GPIO Input 8*%
X131675000Y-123910000D02*
X131675000Y-112375000D01*
X131675000Y-112375000D02*
X150300000Y-93750000D01*
X150300000Y-93750000D02*
X150300000Y-87580000D01*
X150300000Y-87580000D02*
X147570000Y-84850000D01*
%TO.N,GPIO Input 7*%
X128905000Y-123910000D02*
X128905000Y-111135000D01*
X128905000Y-111135000D02*
X147570000Y-92470000D01*
%TO.N,Net-(Q1-Pad2)*%
X89880000Y-99600000D02*
X92130000Y-101850000D01*
X60740000Y-103300000D02*
X64440000Y-99600000D01*
X64440000Y-99600000D02*
X89880000Y-99600000D01*
%TO.N,Blanking*%
X64095000Y-104115000D02*
X63280000Y-103300000D01*
X125650000Y-103050000D02*
X123050000Y-105650000D01*
X127570000Y-89930000D02*
X125650000Y-91850000D01*
X125650000Y-91850000D02*
X125650000Y-103050000D01*
X102490000Y-114330000D02*
X107370000Y-109450000D01*
X67550000Y-101850000D02*
X64730000Y-101850000D01*
X105835000Y-104115000D02*
X64095000Y-104115000D01*
X102490000Y-121930000D02*
X102490000Y-114330000D01*
X105835000Y-104115000D02*
X107370000Y-105650000D01*
X123050000Y-105650000D02*
X107370000Y-105650000D01*
X64730000Y-101850000D02*
X63280000Y-103300000D01*
X107370000Y-105650000D02*
X107370000Y-109450000D01*
%TO.N,Net-(R1-Pad1)*%
X88060000Y-76690000D02*
X88050000Y-76700000D01*
X88060000Y-72150000D02*
X88060000Y-76690000D01*
%TO.N,Net-(R3-Pad2)*%
X81320000Y-110900000D02*
X82770000Y-109450000D01*
X81200000Y-123300000D02*
X81300000Y-123200000D01*
X77490000Y-124470000D02*
X80030000Y-124470000D01*
X80030000Y-124470000D02*
X81200000Y-123300000D01*
X81300000Y-110900000D02*
X81320000Y-110900000D01*
X81300000Y-123200000D02*
X81300000Y-110900000D01*
%TO.N,Net-(R4-Pad2)*%
X72410000Y-124470000D02*
X71300000Y-123360000D01*
X71300000Y-119100000D02*
X73650000Y-116750000D01*
X73650000Y-116750000D02*
X73650000Y-110100000D01*
X71300000Y-123360000D02*
X71300000Y-119100000D01*
X73650000Y-110100000D02*
X69200000Y-105650000D01*
X69200000Y-105650000D02*
X67530000Y-105650000D01*
%TO.N,5V*%
X124150000Y-94600000D02*
X115350000Y-103400000D01*
X115350000Y-103400000D02*
X84340000Y-103400000D01*
X124150000Y-80600000D02*
X124150000Y-94600000D01*
X84340000Y-103400000D02*
X82790000Y-101850000D01*
X127570000Y-77230000D02*
X127520000Y-77230000D01*
X127520000Y-77230000D02*
X124150000Y-80600000D01*
%TO.N,Net-(R7-Pad2)*%
X92110000Y-113250000D02*
X94000000Y-113250000D01*
X94700000Y-113950000D02*
X94700000Y-122760000D01*
X94000000Y-113250000D02*
X94700000Y-113950000D01*
X96410000Y-124470000D02*
X97410000Y-124470000D01*
X94700000Y-122760000D02*
X96410000Y-124470000D01*
%TO.N,Net-(R8-Pad2)*%
X107370000Y-120590000D02*
X107370000Y-117050000D01*
X103490000Y-124470000D02*
X107370000Y-120590000D01*
X102490000Y-124470000D02*
X103490000Y-124470000D01*
%TO.N,Net-(SW2-Pad5)*%
X95100000Y-127750000D02*
X97650000Y-127750000D01*
X83800000Y-117050000D02*
X86250000Y-114600000D01*
X99950000Y-125450000D02*
X99950000Y-124470000D01*
X97650000Y-127750000D02*
X99950000Y-125450000D01*
X86250000Y-114600000D02*
X92350000Y-114600000D01*
X92350000Y-114600000D02*
X93625000Y-115875000D01*
X93625000Y-115875000D02*
X93625000Y-126275000D01*
X93625000Y-126275000D02*
X95100000Y-127750000D01*
%TO.N,Net-(SW1-Pad3)*%
X82534520Y-118134520D02*
X83500000Y-119100000D01*
X97700000Y-111750000D02*
X86950978Y-111750000D01*
X83500000Y-119100000D02*
X84290000Y-119100000D01*
X99950000Y-121930000D02*
X99950000Y-114000000D01*
X84290000Y-119100000D02*
X86340000Y-117050000D01*
X82534520Y-116166458D02*
X82534520Y-118134520D01*
X86950978Y-111750000D02*
X82534520Y-116166458D01*
X99950000Y-114000000D02*
X97700000Y-111750000D01*
%TO.N,GPIO25*%
X150850000Y-43450000D02*
X152324511Y-44924511D01*
X112390480Y-40199520D02*
X148409820Y-40199520D01*
X145800000Y-85620000D02*
X145800000Y-53100978D01*
X149600000Y-40200000D02*
X150850000Y-41450000D01*
X150850000Y-41450000D02*
X150850000Y-43450000D01*
X148410300Y-40200000D02*
X149600000Y-40200000D01*
X152325489Y-46575489D02*
X152325489Y-44924511D01*
X145800000Y-53100978D02*
X152325489Y-46575489D01*
X148409820Y-40199520D02*
X148410300Y-40200000D01*
X152324511Y-44924511D02*
X152325489Y-44924511D01*
X147570000Y-87390000D02*
X145800000Y-85620000D01*
X80440000Y-72150000D02*
X112390480Y-40199520D01*
%TO.N,GPIO26*%
X155100000Y-45051278D02*
X155100000Y-90750000D01*
X155100000Y-90750000D02*
X154200000Y-91650000D01*
X152400000Y-90800000D02*
X152400000Y-84600000D01*
X154200000Y-91650000D02*
X153250000Y-91650000D01*
X152400000Y-84600000D02*
X147570000Y-79770000D01*
X153674361Y-43625639D02*
X155100000Y-45051278D01*
X151700000Y-39750000D02*
X153674361Y-41724361D01*
X77900000Y-72150000D02*
X110300000Y-39750000D01*
X110300000Y-39750000D02*
X151700000Y-39750000D01*
X153250000Y-91650000D02*
X152400000Y-90800000D01*
X153674361Y-41724361D02*
X153674361Y-43625639D01*
%TO.N,GPIO27*%
X156963802Y-39048560D02*
X162500960Y-44585718D01*
X162500960Y-44585718D02*
X162500960Y-77328062D01*
X75360000Y-72150000D02*
X108461440Y-39048560D01*
X160059022Y-79770000D02*
X159950000Y-79770000D01*
X108461440Y-39048560D02*
X156963802Y-39048560D01*
X162500960Y-77328062D02*
X160059022Y-79770000D01*
%TO.N,GPIO28*%
X162950480Y-84389520D02*
X159950000Y-87390000D01*
X157150000Y-38599040D02*
X162950480Y-44399520D01*
X72820000Y-72150000D02*
X106370960Y-38599040D01*
X162950480Y-44399520D02*
X162950480Y-84389520D01*
X106370960Y-38599040D02*
X157150000Y-38599040D01*
%TO.N,GPIO12*%
X104280480Y-38149520D02*
X157363802Y-38149520D01*
X163400000Y-83220000D02*
X167570000Y-87390000D01*
X162057141Y-42842859D02*
X163400000Y-44185718D01*
X163400000Y-44185718D02*
X163400000Y-83220000D01*
X157363802Y-38149520D02*
X162057141Y-42842859D01*
X70280000Y-72150000D02*
X104280480Y-38149520D01*
%TO.N,GPIO13*%
X169250000Y-49400000D02*
X169250000Y-78090000D01*
X99650000Y-37700000D02*
X157550000Y-37700000D01*
X65200000Y-72150000D02*
X99650000Y-37700000D01*
X157550000Y-37700000D02*
X169250000Y-49400000D01*
X169250000Y-78090000D02*
X167570000Y-79770000D01*
%TO.N,GPIO23*%
X116550000Y-91550000D02*
X113300000Y-94800000D01*
X113300000Y-94800000D02*
X99000000Y-94800000D01*
X99000000Y-94800000D02*
X98220000Y-95580000D01*
X98220000Y-95580000D02*
X98220000Y-97550000D01*
X119950000Y-79770000D02*
X116550000Y-83170000D01*
X116550000Y-83170000D02*
X116550000Y-91550000D01*
%TO.N,GPIO22*%
X95680000Y-97550000D02*
X97530000Y-99400000D01*
X97530000Y-99400000D02*
X115900000Y-99400000D01*
X115900000Y-99400000D02*
X122100000Y-93200000D01*
X122100000Y-89540000D02*
X119950000Y-87390000D01*
X122100000Y-93200000D02*
X122100000Y-89540000D01*
%TO.N,GPIO21*%
X93400000Y-99000000D02*
X94850000Y-100450000D01*
X123450000Y-78600000D02*
X126250000Y-75800000D01*
X128600000Y-75800000D02*
X129700000Y-76900000D01*
X126045480Y-85865480D02*
X127570000Y-87390000D01*
X126250000Y-75800000D02*
X128600000Y-75800000D01*
X89510000Y-99000000D02*
X93400000Y-99000000D01*
X116300000Y-100450000D02*
X123450000Y-93300000D01*
X126715480Y-83434520D02*
X126045480Y-84104520D01*
X128465480Y-83434520D02*
X126715480Y-83434520D01*
X129700000Y-82200000D02*
X128465480Y-83434520D01*
X88060000Y-97550000D02*
X89510000Y-99000000D01*
X123450000Y-93300000D02*
X123450000Y-78600000D01*
X126045480Y-84104520D02*
X126045480Y-85865480D01*
X94850000Y-100450000D02*
X116300000Y-100450000D01*
X129700000Y-76900000D02*
X129700000Y-82200000D01*
%TO.N,GPIO19*%
X133000000Y-78950000D02*
X132200000Y-79750000D01*
X102494914Y-83496160D02*
X115442034Y-70549040D01*
X133000000Y-74299040D02*
X133000000Y-78950000D01*
X82980000Y-97550000D02*
X97033840Y-83496160D01*
X129250000Y-70549040D02*
X133000000Y-74299040D01*
X115442034Y-70549040D02*
X129250000Y-70549040D01*
X97033840Y-83496160D02*
X102494914Y-83496160D01*
%TO.N,GPIO18*%
X129449520Y-70099520D02*
X115255837Y-70099520D01*
X102308716Y-83046640D02*
X94943360Y-83046640D01*
X94943360Y-83046640D02*
X80440000Y-97550000D01*
X136750000Y-77400000D02*
X129449520Y-70099520D01*
X115255837Y-70099520D02*
X102308716Y-83046640D01*
%TO.N,GPIO05*%
X115069639Y-69650000D02*
X134400000Y-69650000D01*
X138425480Y-73675480D02*
X138425480Y-85865480D01*
X77900000Y-97550000D02*
X92852880Y-82597120D01*
X134400000Y-69650000D02*
X138425480Y-73675480D01*
X102122519Y-82597120D02*
X115069639Y-69650000D01*
X92852880Y-82597120D02*
X102122519Y-82597120D01*
X138425480Y-85865480D02*
X139950000Y-87390000D01*
%TD*%
M02*
