  0
SECTION
  2
BLOCKS
  0
ENDSEC
  0
SECTION
  2
ENTITIES
  0
LINE
  8
0
 10
5.23332
 20
-0.5
 11
12.1
 21
-0.5
  0
LINE
  8
0
 10
12.1
 20
-0.5
 11
12.1
 21
-3.5
  0
LINE
  8
0
 10
12.1
 20
-3.5
 11
18.5667
 21
-3.5
  0
LINE
  8
0
 10
18.5667
 20
-3.5
 11
18.5667
 21
-0.5
  0
LINE
  8
0
 10
18.5667
 20
-0.5
 11
25.4333
 21
-0.5
  0
LINE
  8
0
 10
25.4333
 20
-0.5
 11
25.4333
 21
-3.5
  0
LINE
  8
0
 10
25.4333
 20
-3.5
 11
31.9
 21
-3.5
  0
LINE
  8
0
 10
31.9
 20
-3.5
 11
31.9
 21
-0.5
  0
LINE
  8
0
 10
31.9
 20
-0.5
 11
32
 21
-0.5
  0
LINE
  8
0
 10
32
 20
-0.5
 11
32
 21
6.22726
  0
LINE
  8
0
 10
32
 20
6.22726
 11
35
 21
6.22726
  0
LINE
  8
0
 10
35
 20
6.22726
 11
35
 21
15.4091
  0
LINE
  8
0
 10
35
 20
15.4091
 11
32
 21
15.4091
  0
LINE
  8
0
 10
32
 20
15.4091
 11
32
 21
25.6818
  0
LINE
  8
0
 10
32
 20
25.6818
 11
35
 21
25.6818
  0
LINE
  8
0
 10
35
 20
25.6818
 11
35
 21
34.8636
  0
LINE
  8
0
 10
35
 20
34.8636
 11
32
 21
34.8636
  0
LINE
  8
0
 10
32
 20
34.8636
 11
32
 21
45.1364
  0
LINE
  8
0
 10
32
 20
45.1364
 11
35
 21
45.1364
  0
LINE
  8
0
 10
35
 20
45.1364
 11
35
 21
54.3182
  0
LINE
  8
0
 10
35
 20
54.3182
 11
32
 21
54.3182
  0
LINE
  8
0
 10
32
 20
54.3182
 11
32
 21
64.5909
  0
LINE
  8
0
 10
32
 20
64.5909
 11
35
 21
64.5909
  0
LINE
  8
0
 10
35
 20
64.5909
 11
35
 21
73.7727
  0
LINE
  8
0
 10
35
 20
73.7727
 11
32
 21
73.7727
  0
LINE
  8
0
 10
32
 20
73.7727
 11
32
 21
84.0455
  0
LINE
  8
0
 10
32
 20
84.0455
 11
35
 21
84.0455
  0
LINE
  8
0
 10
35
 20
84.0455
 11
35
 21
93.2273
  0
LINE
  8
0
 10
35
 20
93.2273
 11
32
 21
93.2273
  0
LINE
  8
0
 10
32
 20
93.2273
 11
32
 21
100.5
  0
LINE
  8
0
 10
32
 20
100.5
 11
31.9
 21
100.5
  0
LINE
  8
0
 10
31.9
 20
100.5
 11
31.9
 21
103.5
  0
LINE
  8
0
 10
31.9
 20
103.5
 11
25.4333
 21
103.5
  0
LINE
  8
0
 10
25.4333
 20
103.5
 11
25.4333
 21
100.5
  0
LINE
  8
0
 10
25.4333
 20
100.5
 11
18.5667
 21
100.5
  0
LINE
  8
0
 10
18.5667
 20
100.5
 11
18.5667
 21
103.5
  0
LINE
  8
0
 10
18.5667
 20
103.5
 11
12.1
 21
103.5
  0
LINE
  8
0
 10
12.1
 20
103.5
 11
12.1
 21
100.5
  0
LINE
  8
0
 10
12.1
 20
100.5
 11
5.23332
 21
100.5
  0
LINE
  8
0
 10
5.23332
 20
100.5
 11
5.23332
 21
103.5
  0
LINE
  8
0
 10
5.23332
 20
103.5
 11
-1.23332
 21
103.5
  0
LINE
  8
0
 10
-1.23332
 20
103.5
 11
-1.23332
 21
100.5
  0
LINE
  8
0
 10
-1.23332
 20
100.5
 11
-8
 21
100.5
  0
LINE
  8
0
 10
-8
 20
100.5
 11
-8
 21
93.2273
  0
LINE
  8
0
 10
-8
 20
93.2273
 11
-11
 21
93.2273
  0
LINE
  8
0
 10
-11
 20
93.2273
 11
-11
 21
84.0455
  0
LINE
  8
0
 10
-11
 20
84.0455
 11
-8
 21
84.0455
  0
LINE
  8
0
 10
-8
 20
84.0455
 11
-8
 21
73.7727
  0
LINE
  8
0
 10
-8
 20
73.7727
 11
-11
 21
73.7727
  0
LINE
  8
0
 10
-11
 20
73.7727
 11
-11
 21
64.5909
  0
LINE
  8
0
 10
-11
 20
64.5909
 11
-8
 21
64.5909
  0
LINE
  8
0
 10
-8
 20
64.5909
 11
-8
 21
54.3182
  0
LINE
  8
0
 10
-8
 20
54.3182
 11
-11
 21
54.3182
  0
LINE
  8
0
 10
-11
 20
54.3182
 11
-11
 21
45.1364
  0
LINE
  8
0
 10
-11
 20
45.1364
 11
-8
 21
45.1364
  0
LINE
  8
0
 10
-8
 20
45.1364
 11
-8
 21
34.8636
  0
LINE
  8
0
 10
-8
 20
34.8636
 11
-11
 21
34.8636
  0
LINE
  8
0
 10
-11
 20
34.8636
 11
-11
 21
25.6818
  0
LINE
  8
0
 10
-11
 20
25.6818
 11
-8
 21
25.6818
  0
LINE
  8
0
 10
-8
 20
25.6818
 11
-8
 21
15.4091
  0
LINE
  8
0
 10
-8
 20
15.4091
 11
-11
 21
15.4091
  0
LINE
  8
0
 10
-11
 20
15.4091
 11
-11
 21
6.22726
  0
LINE
  8
0
 10
-11
 20
6.22726
 11
-8
 21
6.22726
  0
LINE
  8
0
 10
-8
 20
6.22726
 11
-8
 21
-0.5
  0
LINE
  8
0
 10
-8
 20
-0.5
 11
-1.23332
 21
-0.5
  0
LINE
  8
0
 10
-1.23332
 20
-0.5
 11
-1.23332
 21
-3.5
  0
LINE
  8
0
 10
-1.23332
 20
-3.5
 11
5.23332
 21
-3.5
  0
LINE
  8
0
 10
5.23332
 20
-3.5
 11
5.23332
 21
-0.5
  0
LINE
  8
0
 10
2
 20
10
 11
2
 21
98
  0
LINE
  8
0
 10
2
 20
98
 11
8.09999
 21
98
  0
LINE
  8
0
 10
8.09999
 20
98
 11
8.09999
 21
10
  0
LINE
  8
0
 10
8.09999
 20
10
 11
2
 21
10
  0
ENDSEC
  0
SECTION
  2
OBJECTS
  0
DICTIONARY
  0
ENDSEC
  0
EOF
