M48
; DRILL file {KiCad (6.0.4)} date Fri Jun  2 21:22:24 2023
; FORMAT={-:-/ absolute / inch / decimal}
; #@! TF.CreationDate,2023-06-02T21:22:24+02:00
; #@! TF.GenerationSoftware,Kicad,Pcbnew,(6.0.4)
; #@! TF.FileFunction,Plated,1,2,PTH
FMAT,2
INCH
; #@! TA.AperFunction,Plated,PTH,ViaDrill
T1C0.0157
; #@! TA.AperFunction,Plated,PTH,ComponentDrill
T2C0.0217
; #@! TA.AperFunction,Plated,PTH,ComponentDrill
T3C0.0315
; #@! TA.AperFunction,Plated,PTH,ComponentDrill
T4C0.0354
; #@! TA.AperFunction,Plated,PTH,ComponentDrill
T5C0.0374
; #@! TA.AperFunction,Plated,PTH,ComponentDrill
T6C0.0394
; #@! TA.AperFunction,Plated,PTH,ComponentDrill
T7C0.0394
; #@! TA.AperFunction,Plated,PTH,ComponentDrill
T8C0.0400
; #@! TA.AperFunction,Plated,PTH,ComponentDrill
T9C0.0409
; #@! TA.AperFunction,Plated,PTH,ComponentDrill
T10C0.0728
; #@! TA.AperFunction,Plated,PTH,ComponentDrill
T11C0.0866
%
G90
G05
T1
X3.2835Y-4.5413
X4.3898Y-3.9744
X4.4Y-4.8114
X4.7244Y-4.4429
X4.752Y-4.4941
X4.7756Y-4.9311
X4.7756Y-5.1358
X4.7835Y-4.5728
X4.8228Y-4.6398
X4.8346Y-5.0138
X4.8346Y-5.2697
X4.8858Y-5.0886
X4.8858Y-5.3957
X4.9646Y-4.6634
X5.0079Y-4.7539
X5.0551Y-4.872
X5.315Y-2.9941
X5.3425Y-3.7972
X5.4567Y-3.4587
X5.4921Y-3.9232
X5.4961Y-3.7815
X5.689Y-4.0374
X5.7283Y-3.0453
T3
X2.6555Y-4.378
X2.7555Y-4.378
X2.8555Y-4.378
X3.0228Y-4.4705
X3.0228Y-4.6201
X3.0236Y-4.3209
X3.6228Y-4.4705
X3.6228Y-4.6201
X3.6236Y-4.3209
X3.6614Y-4.9173
X3.7614Y-4.9173
X3.8614Y-4.9173
X3.9906Y-4.7697
X3.9913Y-4.3209
X3.9913Y-4.4705
X3.9913Y-4.6201
X3.9913Y-4.9193
X4.5906Y-4.7697
X4.5913Y-4.3209
X4.5913Y-4.4705
X4.5913Y-4.6201
X4.5913Y-4.9193
T4
X2.9315Y-5.4232
X3.0315Y-5.4232
X3.5959Y-5.4232
X3.6959Y-5.4232
X3.9157Y-5.4232
X4.0157Y-5.4232
X4.5801Y-5.4232
X4.6801Y-5.4232
T5
X4.8898Y-3.1102
X4.8898Y-3.2087
X4.8898Y-3.3071
X4.8898Y-3.4055
X4.8898Y-3.5039
X4.8898Y-3.6024
X4.8898Y-3.7008
X4.8898Y-3.7992
X4.8898Y-3.8976
X4.8898Y-3.9961
X4.8898Y-4.0945
X4.8898Y-4.1929
X5.6063Y-4.7894
X5.6063Y-4.8878
X5.6063Y-4.9862
X5.9331Y-4.7894
X5.9331Y-4.8878
X5.9331Y-4.9862
X6.2677Y-3.1102
X6.2677Y-3.2087
X6.2677Y-3.3071
X6.2677Y-3.4055
X6.2677Y-3.5039
X6.2677Y-3.6024
X6.2677Y-3.7008
X6.2677Y-3.7992
X6.2677Y-3.8976
X6.2677Y-3.9961
X6.2677Y-4.0945
X6.2677Y-4.1929
T6
X3.9035Y-2.002
X4.002Y-2.002
X4.25Y-2.002
X4.3484Y-2.002
X4.5965Y-2.002
X4.6949Y-2.002
X4.9429Y-2.002
X5.0413Y-2.002
X5.124Y-5.3012
X5.1287Y-2.9516
X5.1287Y-3.0516
X5.1287Y-3.1516
X5.1287Y-3.3516
X5.1287Y-3.4516
X5.1287Y-3.5516
X5.1287Y-3.7516
X5.1287Y-3.8516
X5.1287Y-3.9516
X5.1287Y-4.1516
X5.1287Y-4.2516
X5.1287Y-4.3516
X5.2224Y-5.3012
X5.2287Y-2.9516
X5.2287Y-3.0516
X5.2287Y-3.1516
X5.2287Y-3.3516
X5.2287Y-3.4516
X5.2287Y-3.5516
X5.2287Y-3.7516
X5.2287Y-3.8516
X5.2287Y-3.9516
X5.2287Y-4.1516
X5.2287Y-4.2516
X5.2287Y-4.3516
X5.2756Y-4.8366
X5.2756Y-4.935
X5.2894Y-2.002
X5.3878Y-2.002
X5.4665Y-5.3012
X5.565Y-5.3012
X5.6358Y-2.002
X5.7343Y-2.002
X5.8091Y-5.3012
X5.9075Y-5.3012
X5.9287Y-2.9516
X5.9287Y-3.0516
X5.9287Y-3.1516
X5.9287Y-3.3516
X5.9287Y-3.4516
X5.9287Y-3.5516
X5.9287Y-3.7516
X5.9287Y-3.8516
X5.9287Y-3.9516
X5.9287Y-4.1516
X5.9287Y-4.2516
X5.9287Y-4.3516
X5.9823Y-2.002
X6.0236Y-4.3516
X6.0287Y-2.9516
X6.0287Y-3.0516
X6.0287Y-3.1516
X6.0287Y-3.3516
X6.0287Y-3.4516
X6.0287Y-3.5516
X6.0287Y-3.7516
X6.0287Y-3.8516
X6.0287Y-3.9516
X6.0287Y-4.1516
X6.0287Y-4.2516
X6.0807Y-2.002
X6.1516Y-5.3012
X6.25Y-5.3012
X6.3287Y-2.002
X6.4272Y-2.002
X6.4941Y-5.3012
X6.5925Y-5.3012
X6.7362Y-1.815
X6.7362Y-1.9134
X6.7362Y-2.1575
X6.7362Y-2.2559
X6.7362Y-2.5
X6.7362Y-2.5984
X6.7362Y-2.8425
X6.7362Y-2.9409
X6.7362Y-3.185
X6.7362Y-3.2835
X6.7362Y-3.5276
X6.7362Y-3.626
X6.7362Y-3.8701
X6.7362Y-3.9685
X6.7362Y-4.2126
X6.7362Y-4.311
X6.7362Y-4.5551
X6.7362Y-4.6535
X6.7362Y-4.8976
X6.7362Y-4.9961
X6.8366Y-5.3012
X6.935Y-5.3012
T7
X2.8189Y-2.4705
X2.8189Y-2.5689
X2.8189Y-4.8327
X2.8189Y-4.9311
T8
X5.3287Y-4.5516
X5.3291Y-2.7516
X5.4283Y-2.7516
X5.4287Y-4.5516
X5.5287Y-2.7516
X5.5287Y-4.5516
X5.6287Y-2.7516
X5.6287Y-4.5516
X5.7287Y-2.7516
X5.7287Y-4.5516
X5.8287Y-2.7516
X5.8287Y-4.5516
T9
X2.5094Y-3.1516
X2.5094Y-4.1516
X2.6094Y-3.1516
X2.6094Y-4.1516
X2.7094Y-3.1516
X2.7094Y-4.1516
X2.8094Y-3.1516
X2.8094Y-4.1516
X2.9094Y-3.1516
X2.9094Y-4.1516
X3.0094Y-3.1516
X3.0094Y-4.1516
X3.1094Y-3.1516
X3.1094Y-4.1516
X3.2094Y-3.1516
X3.2094Y-4.1516
X3.3094Y-3.1516
X3.3094Y-4.1516
X3.4094Y-3.1516
X3.4094Y-4.1516
X3.5094Y-3.1516
X3.5094Y-4.1516
X3.6094Y-3.1516
X3.6094Y-4.1516
X3.7094Y-3.1516
X3.7094Y-4.1516
X3.8094Y-3.1516
X3.8094Y-4.1516
X3.9094Y-3.1516
X3.9094Y-4.1516
X4.0094Y-3.1516
X4.0094Y-4.1516
X4.1094Y-3.1516
X4.1094Y-4.1516
X4.2094Y-3.1516
X4.2094Y-4.1516
X4.3094Y-3.1516
X4.3094Y-4.1516
T10
X3.2087Y-5.4114
X3.4213Y-5.4114
X4.1929Y-5.4114
X4.4055Y-5.4114
T11
X2.651Y-2.2697
X2.651Y-2.6712
X2.651Y-4.6319
X2.651Y-5.0334
T2
G00X3.215Y-5.0917
M15
G01X3.215Y-5.1311
M16
G05
G00X3.215Y-5.1917
M15
G01X3.215Y-5.2311
M16
G05
G00X3.315Y-5.0917
M15
G01X3.315Y-5.1311
M16
G05
G00X3.315Y-5.1917
M15
G01X3.315Y-5.2311
M16
G05
G00X3.415Y-5.0917
M15
G01X3.415Y-5.1311
M16
G05
G00X3.415Y-5.1917
M15
G01X3.415Y-5.2311
M16
G05
G00X4.1992Y-5.0917
M15
G01X4.1992Y-5.1311
M16
G05
G00X4.1992Y-5.1917
M15
G01X4.1992Y-5.2311
M16
G05
G00X4.2992Y-5.0917
M15
G01X4.2992Y-5.1311
M16
G05
G00X4.2992Y-5.1917
M15
G01X4.2992Y-5.2311
M16
G05
G00X4.3992Y-5.0917
M15
G01X4.3992Y-5.1311
M16
G05
G00X4.3992Y-5.1917
M15
G01X4.3992Y-5.2311
M16
G05
T6
G00X3.1299Y-1.9508
M15
G01X3.1299Y-2.0295
M16
G05
G00X3.3543Y-1.872
M15
G01X3.2756Y-1.872
M16
G05
G00X3.3543Y-2.1083
M15
G01X3.2756Y-2.1083
M16
G05
T0
M30
