%TF.GenerationSoftware,KiCad,Pcbnew,(6.0.4)*%
%TF.CreationDate,2023-06-02T21:22:22+02:00*%
%TF.ProjectId,LED-Zappelin-V2,4c45442d-5a61-4707-9065-6c696e2d5632,rev?*%
%TF.SameCoordinates,Original*%
%TF.FileFunction,Soldermask,Top*%
%TF.FilePolarity,Negative*%
%FSLAX46Y46*%
G04 Gerber Fmt 4.6, Leading zero omitted, Abs format (unit mm)*
G04 Created by KiCad (PCBNEW (6.0.4)) date 2023-06-02 21:22:22*
%MOMM*%
%LPD*%
G01*
G04 APERTURE LIST*
G04 Aperture macros list*
%AMRoundRect*
0 Rectangle with rounded corners*
0 $1 Rounding radius*
0 $2 $3 $4 $5 $6 $7 $8 $9 X,Y pos of 4 corners*
0 Add a 4 corners polygon primitive as box body*
4,1,4,$2,$3,$4,$5,$6,$7,$8,$9,$2,$3,0*
0 Add four circle primitives for the rounded corners*
1,1,$1+$1,$2,$3*
1,1,$1+$1,$4,$5*
1,1,$1+$1,$6,$7*
1,1,$1+$1,$8,$9*
0 Add four rect primitives between the rounded corners*
20,1,$1+$1,$2,$3,$4,$5,0*
20,1,$1+$1,$4,$5,$6,$7,0*
20,1,$1+$1,$6,$7,$8,$9,0*
20,1,$1+$1,$8,$9,$2,$3,0*%
G04 Aperture macros list end*
%ADD10R,0.750000X1.750000*%
%ADD11C,1.850000*%
%ADD12C,1.600000*%
%ADD13O,1.600000X1.600000*%
%ADD14RoundRect,0.250000X0.600000X0.750000X-0.600000X0.750000X-0.600000X-0.750000X0.600000X-0.750000X0*%
%ADD15O,1.700000X2.000000*%
%ADD16RoundRect,0.250000X-0.750000X0.600000X-0.750000X-0.600000X0.750000X-0.600000X0.750000X0.600000X0*%
%ADD17O,2.000000X1.700000*%
%ADD18R,1.500000X1.500000*%
%ADD19C,1.500000*%
%ADD20C,3.000000*%
%ADD21O,2.499360X1.600200*%
%ADD22O,7.000240X3.500120*%
%ADD23RoundRect,0.250000X-0.600000X-0.750000X0.600000X-0.750000X0.600000X0.750000X-0.600000X0.750000X0*%
%ADD24RoundRect,0.250000X-0.725000X0.600000X-0.725000X-0.600000X0.725000X-0.600000X0.725000X0.600000X0*%
%ADD25O,1.950000X1.700000*%
%ADD26R,3.500000X3.500000*%
%ADD27RoundRect,0.750000X-1.000000X0.750000X-1.000000X-0.750000X1.000000X-0.750000X1.000000X0.750000X0*%
%ADD28RoundRect,0.875000X-0.875000X0.875000X-0.875000X-0.875000X0.875000X-0.875000X0.875000X0.875000X0*%
%ADD29RoundRect,0.250000X0.750000X-0.600000X0.750000X0.600000X-0.750000X0.600000X-0.750000X-0.600000X0*%
%ADD30RoundRect,0.250000X0.725000X-0.600000X0.725000X0.600000X-0.725000X0.600000X-0.725000X-0.600000X0*%
%ADD31R,1.800000X1.800000*%
%ADD32C,1.800000*%
%ADD33R,1.560000X1.560000*%
%ADD34C,1.560000*%
%ADD35C,1.981200*%
%ADD36RoundRect,0.101600X-0.889000X-0.889000X0.889000X-0.889000X0.889000X0.889000X-0.889000X0.889000X0*%
G04 APERTURE END LIST*
D10*
%TO.C,SW2*%
X106660000Y-129830000D03*
X109200000Y-129830000D03*
X111740000Y-129830000D03*
X106660000Y-132370000D03*
X109200000Y-132370000D03*
X111740000Y-132370000D03*
D11*
X106500000Y-137450000D03*
X111900000Y-137450000D03*
%TD*%
D12*
%TO.C,R2*%
X92020000Y-113550000D03*
D13*
X76780000Y-113550000D03*
%TD*%
D14*
%TO.C,J23*%
X101650000Y-50850000D03*
D15*
X99150000Y-50850000D03*
%TD*%
D16*
%TO.C,J29*%
X134000000Y-122850000D03*
D17*
X134000000Y-125350000D03*
%TD*%
D18*
%TO.C,Q1*%
X67450000Y-111200000D03*
D19*
X69990000Y-111200000D03*
X72530000Y-111200000D03*
%TD*%
D12*
%TO.C,R1*%
X76780000Y-117350000D03*
D13*
X92020000Y-117350000D03*
%TD*%
D20*
%TO.C,H4*%
X159200000Y-122750000D03*
%TD*%
D21*
%TO.C,J24*%
X71601260Y-122750000D03*
D22*
X67336600Y-127847780D03*
D21*
X71601260Y-125249360D03*
D22*
X67336600Y-117649680D03*
%TD*%
D21*
%TO.C,J25*%
X71601260Y-62750000D03*
D22*
X67336600Y-57649680D03*
D21*
X71601260Y-65249360D03*
D22*
X67336600Y-67847780D03*
%TD*%
D18*
%TO.C,Q2*%
X93000000Y-124900000D03*
D19*
X95540000Y-124900000D03*
X98080000Y-124900000D03*
%TD*%
D14*
%TO.C,J17*%
X154450000Y-50850000D03*
D15*
X151950000Y-50850000D03*
%TD*%
D23*
%TO.C,J3*%
X156250000Y-134650000D03*
D15*
X158750000Y-134650000D03*
%TD*%
D24*
%TO.C,SW3*%
X142400000Y-121650000D03*
D25*
X142400000Y-124150000D03*
X142400000Y-126650000D03*
%TD*%
D14*
%TO.C,J22*%
X110450000Y-50850000D03*
D15*
X107950000Y-50850000D03*
%TD*%
D26*
%TO.C,J30*%
X84200000Y-53550000D03*
D27*
X84200000Y-47550000D03*
D28*
X79500000Y-50550000D03*
%TD*%
D29*
%TO.C,J7*%
X171100000Y-118200000D03*
D17*
X171100000Y-115700000D03*
%TD*%
D29*
%TO.C,J10*%
X171100000Y-92100000D03*
D17*
X171100000Y-89600000D03*
%TD*%
D23*
%TO.C,J1*%
X138850000Y-134650000D03*
D15*
X141350000Y-134650000D03*
%TD*%
D29*
%TO.C,J15*%
X171100000Y-48600000D03*
D17*
X171100000Y-46100000D03*
%TD*%
D23*
%TO.C,J2*%
X147550000Y-134650000D03*
D15*
X150050000Y-134650000D03*
%TD*%
D10*
%TO.C,SW1*%
X81660000Y-129830000D03*
X84200000Y-129830000D03*
X86740000Y-129830000D03*
X81660000Y-132370000D03*
X84200000Y-132370000D03*
X86740000Y-132370000D03*
D11*
X81500000Y-137450000D03*
X86900000Y-137450000D03*
%TD*%
D29*
%TO.C,J6*%
X171100000Y-126900000D03*
D17*
X171100000Y-124400000D03*
%TD*%
D14*
%TO.C,J18*%
X145650000Y-50850000D03*
D15*
X143150000Y-50850000D03*
%TD*%
D20*
%TO.C,H3*%
X79200000Y-122750000D03*
%TD*%
D23*
%TO.C,J5*%
X173650000Y-134650000D03*
D15*
X176150000Y-134650000D03*
%TD*%
D30*
%TO.C,J28*%
X159200000Y-106500000D03*
D25*
X159200000Y-104000000D03*
X159200000Y-101500000D03*
X159200000Y-99000000D03*
X159200000Y-96500000D03*
X159200000Y-94000000D03*
X159200000Y-91500000D03*
X159200000Y-89000000D03*
X159200000Y-86500000D03*
X159200000Y-84000000D03*
X159200000Y-81500000D03*
X159200000Y-79000000D03*
%TD*%
D23*
%TO.C,J0*%
X130150000Y-134650000D03*
D15*
X132650000Y-134650000D03*
%TD*%
D14*
%TO.C,J16*%
X163250000Y-50850000D03*
D15*
X160750000Y-50850000D03*
%TD*%
D31*
%TO.C,D1*%
X77000000Y-137750000D03*
D32*
X74460000Y-137750000D03*
%TD*%
D12*
%TO.C,R7*%
X101380000Y-113550000D03*
D13*
X116620000Y-113550000D03*
%TD*%
D29*
%TO.C,J11*%
X171100000Y-83400000D03*
D17*
X171100000Y-80900000D03*
%TD*%
D33*
%TO.C,U1*%
X109460000Y-80050000D03*
D34*
X106920000Y-80050000D03*
X104380000Y-80050000D03*
X101840000Y-80050000D03*
X99300000Y-80050000D03*
X96760000Y-80050000D03*
X94220000Y-80050000D03*
X91680000Y-80050000D03*
X89140000Y-80050000D03*
X86600000Y-80050000D03*
X84060000Y-80050000D03*
X81520000Y-80050000D03*
X78980000Y-80050000D03*
X76440000Y-80050000D03*
X73900000Y-80050000D03*
X71360000Y-80050000D03*
X68820000Y-80050000D03*
X66280000Y-80050000D03*
X63740000Y-80050000D03*
X109460000Y-105450000D03*
X106920000Y-105450000D03*
X104380000Y-105450000D03*
X101840000Y-105450000D03*
X99300000Y-105450000D03*
X96760000Y-105450000D03*
X94220000Y-105450000D03*
X91680000Y-105450000D03*
X89140000Y-105450000D03*
X86600000Y-105450000D03*
X84060000Y-105450000D03*
X81520000Y-105450000D03*
X78980000Y-105450000D03*
X76440000Y-105450000D03*
X73900000Y-105450000D03*
X71360000Y-105450000D03*
X68820000Y-105450000D03*
X66280000Y-105450000D03*
X63740000Y-105450000D03*
%TD*%
D29*
%TO.C,J12*%
X171100000Y-74700000D03*
D17*
X171100000Y-72200000D03*
%TD*%
D14*
%TO.C,J20*%
X128050000Y-50850000D03*
D15*
X125550000Y-50850000D03*
%TD*%
D12*
%TO.C,R3*%
X76800000Y-109750000D03*
D13*
X92040000Y-109750000D03*
%TD*%
D20*
%TO.C,H1*%
X79200000Y-62750000D03*
%TD*%
D12*
%TO.C,R6*%
X101380000Y-124950000D03*
D13*
X116620000Y-124950000D03*
%TD*%
D31*
%TO.C,D2*%
X93875000Y-137750000D03*
D32*
X91335000Y-137750000D03*
%TD*%
D29*
%TO.C,J9*%
X171100000Y-100800000D03*
D17*
X171100000Y-98300000D03*
%TD*%
D14*
%TO.C,J19*%
X136850000Y-50850000D03*
D15*
X134350000Y-50850000D03*
%TD*%
D31*
%TO.C,D4*%
X102000000Y-137750000D03*
D32*
X99460000Y-137750000D03*
%TD*%
D14*
%TO.C,J21*%
X119250000Y-50850000D03*
D15*
X116750000Y-50850000D03*
%TD*%
D24*
%TO.C,J27*%
X124200000Y-79000000D03*
D25*
X124200000Y-81500000D03*
X124200000Y-84000000D03*
X124200000Y-86500000D03*
X124200000Y-89000000D03*
X124200000Y-91500000D03*
X124200000Y-94000000D03*
X124200000Y-96500000D03*
X124200000Y-99000000D03*
X124200000Y-101500000D03*
X124200000Y-104000000D03*
X124200000Y-106500000D03*
%TD*%
D12*
%TO.C,R4*%
X101380000Y-109750000D03*
D13*
X116620000Y-109750000D03*
%TD*%
D29*
%TO.C,J13*%
X171100000Y-66000000D03*
D17*
X171100000Y-63500000D03*
%TD*%
D24*
%TO.C,J26*%
X150700000Y-121650000D03*
D25*
X150700000Y-124150000D03*
X150700000Y-126650000D03*
%TD*%
D35*
%TO.C,U2*%
X137890000Y-115610000D03*
X137880000Y-69890000D03*
X145510000Y-115610000D03*
X145510000Y-69890000D03*
X142970000Y-115610000D03*
X142970000Y-69890000D03*
X140430000Y-69890000D03*
X132810000Y-74970000D03*
X132810000Y-77510000D03*
X132810000Y-80050000D03*
X132810000Y-85130000D03*
X132810000Y-87670000D03*
X132810000Y-90210000D03*
X132810000Y-95290000D03*
X132810000Y-97830000D03*
X132810000Y-100370000D03*
X132810000Y-105450000D03*
X132810000Y-107990000D03*
X132810000Y-110530000D03*
X150590000Y-110530000D03*
X150590000Y-107990000D03*
X150590000Y-105450000D03*
X150590000Y-100370000D03*
X150590000Y-97830000D03*
X150590000Y-95290000D03*
X150590000Y-90210000D03*
X150590000Y-87670000D03*
X150590000Y-85130000D03*
X150590000Y-80050000D03*
X150590000Y-77510000D03*
X150590000Y-74970000D03*
X140430000Y-115610000D03*
X148050000Y-69890000D03*
X148050000Y-115610000D03*
X130270000Y-110530000D03*
D36*
X130270000Y-95290000D03*
D35*
X153130000Y-87670000D03*
X130270000Y-100370000D03*
D36*
X153130000Y-80050000D03*
D35*
X153130000Y-95290000D03*
X130270000Y-90210000D03*
X153130000Y-97830000D03*
X153130000Y-74970000D03*
D36*
X153130000Y-100370000D03*
D35*
X135350000Y-115610000D03*
D36*
X153130000Y-90210000D03*
D35*
X153130000Y-105450000D03*
X130270000Y-107990000D03*
D36*
X153000000Y-110530000D03*
D35*
X153130000Y-107990000D03*
X130270000Y-77510000D03*
X130270000Y-80050000D03*
X153130000Y-85130000D03*
D36*
X130270000Y-85130000D03*
D35*
X135360000Y-69890000D03*
D36*
X130270000Y-105450000D03*
D35*
X153130000Y-77510000D03*
X130270000Y-87670000D03*
X130270000Y-97830000D03*
D36*
X130270000Y-74970000D03*
%TD*%
D12*
%TO.C,R8*%
X101380000Y-117350000D03*
D13*
X116620000Y-117350000D03*
%TD*%
D29*
%TO.C,J14*%
X171100000Y-57300000D03*
D17*
X171100000Y-54800000D03*
%TD*%
D23*
%TO.C,J4*%
X164950000Y-134650000D03*
D15*
X167450000Y-134650000D03*
%TD*%
D20*
%TO.C,H2*%
X159200000Y-62750000D03*
%TD*%
D29*
%TO.C,J8*%
X171100000Y-109500000D03*
D17*
X171100000Y-107000000D03*
%TD*%
D12*
%TO.C,R5*%
X116600000Y-121150000D03*
D13*
X101360000Y-121150000D03*
%TD*%
D31*
%TO.C,D3*%
X118875000Y-137750000D03*
D32*
X116335000Y-137750000D03*
%TD*%
M02*
