%TF.GenerationSoftware,KiCad,Pcbnew,(6.0.4)*%
%TF.CreationDate,2023-06-02T21:22:22+02:00*%
%TF.ProjectId,LED-Zappelin-V2,4c45442d-5a61-4707-9065-6c696e2d5632,rev?*%
%TF.SameCoordinates,Original*%
%TF.FileFunction,Copper,L1,Top*%
%TF.FilePolarity,Positive*%
%FSLAX46Y46*%
G04 Gerber Fmt 4.6, Leading zero omitted, Abs format (unit mm)*
G04 Created by KiCad (PCBNEW (6.0.4)) date 2023-06-02 21:22:22*
%MOMM*%
%LPD*%
G01*
G04 APERTURE LIST*
G04 Aperture macros list*
%AMRoundRect*
0 Rectangle with rounded corners*
0 $1 Rounding radius*
0 $2 $3 $4 $5 $6 $7 $8 $9 X,Y pos of 4 corners*
0 Add a 4 corners polygon primitive as box body*
4,1,4,$2,$3,$4,$5,$6,$7,$8,$9,$2,$3,0*
0 Add four circle primitives for the rounded corners*
1,1,$1+$1,$2,$3*
1,1,$1+$1,$4,$5*
1,1,$1+$1,$6,$7*
1,1,$1+$1,$8,$9*
0 Add four rect primitives between the rounded corners*
20,1,$1+$1,$2,$3,$4,$5,0*
20,1,$1+$1,$4,$5,$6,$7,0*
20,1,$1+$1,$6,$7,$8,$9,0*
20,1,$1+$1,$8,$9,$2,$3,0*%
G04 Aperture macros list end*
%TA.AperFunction,ComponentPad*%
%ADD10R,0.750000X1.750000*%
%TD*%
%TA.AperFunction,ComponentPad*%
%ADD11C,1.850000*%
%TD*%
%TA.AperFunction,ComponentPad*%
%ADD12C,1.600000*%
%TD*%
%TA.AperFunction,ComponentPad*%
%ADD13O,1.600000X1.600000*%
%TD*%
%TA.AperFunction,ComponentPad*%
%ADD14RoundRect,0.250000X0.600000X0.750000X-0.600000X0.750000X-0.600000X-0.750000X0.600000X-0.750000X0*%
%TD*%
%TA.AperFunction,ComponentPad*%
%ADD15O,1.700000X2.000000*%
%TD*%
%TA.AperFunction,ComponentPad*%
%ADD16RoundRect,0.250000X-0.750000X0.600000X-0.750000X-0.600000X0.750000X-0.600000X0.750000X0.600000X0*%
%TD*%
%TA.AperFunction,ComponentPad*%
%ADD17O,2.000000X1.700000*%
%TD*%
%TA.AperFunction,ComponentPad*%
%ADD18R,1.500000X1.500000*%
%TD*%
%TA.AperFunction,ComponentPad*%
%ADD19C,1.500000*%
%TD*%
%TA.AperFunction,ComponentPad*%
%ADD20O,2.499360X1.600200*%
%TD*%
%TA.AperFunction,ComponentPad*%
%ADD21O,7.000240X3.500120*%
%TD*%
%TA.AperFunction,ComponentPad*%
%ADD22RoundRect,0.250000X-0.600000X-0.750000X0.600000X-0.750000X0.600000X0.750000X-0.600000X0.750000X0*%
%TD*%
%TA.AperFunction,ComponentPad*%
%ADD23RoundRect,0.250000X-0.725000X0.600000X-0.725000X-0.600000X0.725000X-0.600000X0.725000X0.600000X0*%
%TD*%
%TA.AperFunction,ComponentPad*%
%ADD24O,1.950000X1.700000*%
%TD*%
%TA.AperFunction,ComponentPad*%
%ADD25R,3.500000X3.500000*%
%TD*%
%TA.AperFunction,ComponentPad*%
%ADD26RoundRect,0.750000X-1.000000X0.750000X-1.000000X-0.750000X1.000000X-0.750000X1.000000X0.750000X0*%
%TD*%
%TA.AperFunction,ComponentPad*%
%ADD27RoundRect,0.875000X-0.875000X0.875000X-0.875000X-0.875000X0.875000X-0.875000X0.875000X0.875000X0*%
%TD*%
%TA.AperFunction,ComponentPad*%
%ADD28RoundRect,0.250000X0.750000X-0.600000X0.750000X0.600000X-0.750000X0.600000X-0.750000X-0.600000X0*%
%TD*%
%TA.AperFunction,ComponentPad*%
%ADD29RoundRect,0.250000X0.725000X-0.600000X0.725000X0.600000X-0.725000X0.600000X-0.725000X-0.600000X0*%
%TD*%
%TA.AperFunction,ComponentPad*%
%ADD30R,1.800000X1.800000*%
%TD*%
%TA.AperFunction,ComponentPad*%
%ADD31C,1.800000*%
%TD*%
%TA.AperFunction,ComponentPad*%
%ADD32R,1.560000X1.560000*%
%TD*%
%TA.AperFunction,ComponentPad*%
%ADD33C,1.560000*%
%TD*%
%TA.AperFunction,ComponentPad*%
%ADD34C,1.778000*%
%TD*%
%TA.AperFunction,ComponentPad*%
%ADD35R,1.778000X1.778000*%
%TD*%
%TA.AperFunction,ViaPad*%
%ADD36C,0.800000*%
%TD*%
%TA.AperFunction,Conductor*%
%ADD37C,0.250000*%
%TD*%
%TA.AperFunction,Conductor*%
%ADD38C,1.000000*%
%TD*%
G04 APERTURE END LIST*
D10*
%TO.P,SW2,1,A*%
%TO.N,Net-(R4-Pad2)*%
X106660000Y-129830000D03*
%TO.P,SW2,2,B*%
%TO.N,Net-(Q2-Pad2)*%
X109200000Y-129830000D03*
%TO.P,SW2,3,C*%
%TO.N,OE*%
X111740000Y-129830000D03*
%TO.P,SW2,4,A*%
%TO.N,Net-(R5-Pad2)*%
X106660000Y-132370000D03*
%TO.P,SW2,5,B*%
%TO.N,Net-(Q2-Pad1)*%
X109200000Y-132370000D03*
%TO.P,SW2,6,C*%
%TO.N,Net-(R6-Pad2)*%
X111740000Y-132370000D03*
D11*
%TO.P,SW2,7*%
%TO.N,N/C*%
X106500000Y-137450000D03*
%TO.P,SW2,8*%
X111900000Y-137450000D03*
%TD*%
D12*
%TO.P,R2,1*%
%TO.N,Net-(D2-Pad2)*%
X92020000Y-113550000D03*
D13*
%TO.P,R2,2*%
%TO.N,Net-(SW1-Pad4)*%
X76780000Y-113550000D03*
%TD*%
D14*
%TO.P,J23,1,Pin_1*%
%TO.N,TLC 23*%
X101650000Y-50850000D03*
D15*
%TO.P,J23,2,Pin_2*%
%TO.N,Net-(J23-Pad2)*%
X99150000Y-50850000D03*
%TD*%
D16*
%TO.P,J29,1,Pin_1*%
%TO.N,VCC*%
X134000000Y-122850000D03*
D17*
%TO.P,J29,2,Pin_2*%
%TO.N,GNDREF*%
X134000000Y-125350000D03*
%TD*%
D18*
%TO.P,Q1,1,E*%
%TO.N,GNDREF*%
X67450000Y-111200000D03*
D19*
%TO.P,Q1,2,B*%
%TO.N,Net-(Q1-Pad2)*%
X69990000Y-111200000D03*
%TO.P,Q1,3,C*%
%TO.N,OE*%
X72530000Y-111200000D03*
%TD*%
D12*
%TO.P,R1,1*%
%TO.N,Net-(D1-Pad2)*%
X76780000Y-117350000D03*
D13*
%TO.P,R1,2*%
%TO.N,Net-(SW1-Pad6)*%
X92020000Y-117350000D03*
%TD*%
D20*
%TO.P,J24,1,In*%
%TO.N,Trigger*%
X71601260Y-122750000D03*
D21*
%TO.P,J24,2,Ext*%
%TO.N,GNDREF*%
X67336600Y-127847780D03*
D20*
X71601260Y-125249360D03*
D21*
X67336600Y-117649680D03*
%TD*%
D20*
%TO.P,J25,1,In*%
%TO.N,Net-(SW1-Pad2)*%
X71601260Y-62750000D03*
D21*
%TO.P,J25,2,Ext*%
%TO.N,GNDREF*%
X67336600Y-57649680D03*
D20*
X71601260Y-65249360D03*
D21*
X67336600Y-67847780D03*
%TD*%
D18*
%TO.P,Q2,1,E*%
%TO.N,Net-(Q2-Pad1)*%
X93000000Y-124900000D03*
D19*
%TO.P,Q2,2,B*%
%TO.N,Net-(Q2-Pad2)*%
X95540000Y-124900000D03*
%TO.P,Q2,3,C*%
%TO.N,3.3V*%
X98080000Y-124900000D03*
%TD*%
D14*
%TO.P,J17,1,Pin_1*%
%TO.N,TLC 17*%
X154450000Y-50850000D03*
D15*
%TO.P,J17,2,Pin_2*%
%TO.N,Net-(J17-Pad2)*%
X151950000Y-50850000D03*
%TD*%
D22*
%TO.P,J3,1,Pin_1*%
%TO.N,TLC 03*%
X156250000Y-134650000D03*
D15*
%TO.P,J3,2,Pin_2*%
%TO.N,Net-(J27-Pad4)*%
X158750000Y-134650000D03*
%TD*%
D23*
%TO.P,SW3,1,1*%
%TO.N,Net-(J30-Pad1)*%
X142400000Y-121650000D03*
D24*
%TO.P,SW3,2,2*%
%TO.N,VCC*%
X142400000Y-124150000D03*
%TO.P,SW3,3,K*%
%TO.N,GNDREF*%
X142400000Y-126650000D03*
%TD*%
D14*
%TO.P,J22,1,Pin_1*%
%TO.N,TLC 22*%
X110450000Y-50850000D03*
D15*
%TO.P,J22,2,Pin_2*%
%TO.N,Net-(J22-Pad2)*%
X107950000Y-50850000D03*
%TD*%
D25*
%TO.P,J30,1*%
%TO.N,Net-(J30-Pad1)*%
X84200000Y-53550000D03*
D26*
%TO.P,J30,2*%
%TO.N,GNDREF*%
X84200000Y-47550000D03*
D27*
%TO.P,J30,3*%
X79500000Y-50550000D03*
%TD*%
D28*
%TO.P,J7,1,Pin_1*%
%TO.N,TLC 07*%
X171100000Y-118200000D03*
D17*
%TO.P,J7,2,Pin_2*%
%TO.N,Net-(J27-Pad8)*%
X171100000Y-115700000D03*
%TD*%
D28*
%TO.P,J10,1,Pin_1*%
%TO.N,TLC 10*%
X171100000Y-92100000D03*
D17*
%TO.P,J10,2,Pin_2*%
%TO.N,Net-(J10-Pad2)*%
X171100000Y-89600000D03*
%TD*%
D22*
%TO.P,J1,1,Pin_1*%
%TO.N,TLC 01*%
X138850000Y-134650000D03*
D15*
%TO.P,J1,2,Pin_2*%
%TO.N,Net-(J1-Pad2)*%
X141350000Y-134650000D03*
%TD*%
D28*
%TO.P,J15,1,Pin_1*%
%TO.N,TLC 15*%
X171100000Y-48600000D03*
D17*
%TO.P,J15,2,Pin_2*%
%TO.N,Net-(J15-Pad2)*%
X171100000Y-46100000D03*
%TD*%
D22*
%TO.P,J2,1,Pin_1*%
%TO.N,TLC 02*%
X147550000Y-134650000D03*
D15*
%TO.P,J2,2,Pin_2*%
%TO.N,Net-(J2-Pad2)*%
X150050000Y-134650000D03*
%TD*%
D10*
%TO.P,SW1,1,A*%
%TO.N,unconnected-(SW1-Pad1)*%
X81660000Y-129830000D03*
%TO.P,SW1,2,B*%
%TO.N,Net-(SW1-Pad2)*%
X84200000Y-129830000D03*
%TO.P,SW1,3,C*%
%TO.N,Net-(Q2-Pad2)*%
X86740000Y-129830000D03*
%TO.P,SW1,4,A*%
%TO.N,Net-(SW1-Pad4)*%
X81660000Y-132370000D03*
%TO.P,SW1,5,B*%
%TO.N,3.3V*%
X84200000Y-132370000D03*
%TO.P,SW1,6,C*%
%TO.N,Net-(SW1-Pad6)*%
X86740000Y-132370000D03*
D11*
%TO.P,SW1,7*%
%TO.N,N/C*%
X81500000Y-137450000D03*
%TO.P,SW1,8*%
X86900000Y-137450000D03*
%TD*%
D28*
%TO.P,J6,1,Pin_1*%
%TO.N,TLC 06*%
X171100000Y-126900000D03*
D17*
%TO.P,J6,2,Pin_2*%
%TO.N,Net-(J27-Pad7)*%
X171100000Y-124400000D03*
%TD*%
D14*
%TO.P,J18,1,Pin_1*%
%TO.N,TLC 18*%
X145650000Y-50850000D03*
D15*
%TO.P,J18,2,Pin_2*%
%TO.N,Net-(J18-Pad2)*%
X143150000Y-50850000D03*
%TD*%
D22*
%TO.P,J5,1,Pin_1*%
%TO.N,TLC 05*%
X173650000Y-134650000D03*
D15*
%TO.P,J5,2,Pin_2*%
%TO.N,Net-(J27-Pad6)*%
X176150000Y-134650000D03*
%TD*%
D29*
%TO.P,J28,1,Pin_1*%
%TO.N,Net-(J12-Pad2)*%
X159200000Y-106500000D03*
D24*
%TO.P,J28,2,Pin_2*%
%TO.N,Net-(J13-Pad2)*%
X159200000Y-104000000D03*
%TO.P,J28,3,Pin_3*%
%TO.N,Net-(J14-Pad2)*%
X159200000Y-101500000D03*
%TO.P,J28,4,Pin_4*%
%TO.N,Net-(J15-Pad2)*%
X159200000Y-99000000D03*
%TO.P,J28,5,Pin_5*%
%TO.N,Net-(J16-Pad2)*%
X159200000Y-96500000D03*
%TO.P,J28,6,Pin_6*%
%TO.N,Net-(J17-Pad2)*%
X159200000Y-94000000D03*
%TO.P,J28,7,Pin_7*%
%TO.N,Net-(J18-Pad2)*%
X159200000Y-91500000D03*
%TO.P,J28,8,Pin_8*%
%TO.N,Net-(J19-Pad2)*%
X159200000Y-89000000D03*
%TO.P,J28,9,Pin_9*%
%TO.N,Net-(J20-Pad2)*%
X159200000Y-86500000D03*
%TO.P,J28,10,Pin_10*%
%TO.N,Net-(J21-Pad2)*%
X159200000Y-84000000D03*
%TO.P,J28,11,Pin_11*%
%TO.N,Net-(J22-Pad2)*%
X159200000Y-81500000D03*
%TO.P,J28,12,Pin_12*%
%TO.N,Net-(J23-Pad2)*%
X159200000Y-79000000D03*
%TD*%
D22*
%TO.P,J0,1,Pin_1*%
%TO.N,TLC 00*%
X130150000Y-134650000D03*
D15*
%TO.P,J0,2,Pin_2*%
%TO.N,Net-(J0-Pad2)*%
X132650000Y-134650000D03*
%TD*%
D14*
%TO.P,J16,1,Pin_1*%
%TO.N,TLC 16*%
X163250000Y-50850000D03*
D15*
%TO.P,J16,2,Pin_2*%
%TO.N,Net-(J16-Pad2)*%
X160750000Y-50850000D03*
%TD*%
D30*
%TO.P,D1,1,K*%
%TO.N,GNDREF*%
X77000000Y-137750000D03*
D31*
%TO.P,D1,2,A*%
%TO.N,Net-(D1-Pad2)*%
X74460000Y-137750000D03*
%TD*%
D12*
%TO.P,R7,1*%
%TO.N,Net-(R7-Pad1)*%
X101380000Y-113550000D03*
D13*
%TO.P,R7,2*%
%TO.N,OE*%
X116620000Y-113550000D03*
%TD*%
D28*
%TO.P,J11,1,Pin_1*%
%TO.N,TLC 11*%
X171100000Y-83400000D03*
D17*
%TO.P,J11,2,Pin_2*%
%TO.N,Net-(J11-Pad2)*%
X171100000Y-80900000D03*
%TD*%
D32*
%TO.P,U1,1,3V3*%
%TO.N,3.3V*%
X109460000Y-80050000D03*
D33*
%TO.P,U1,2,EN*%
%TO.N,unconnected-(U1-Pad2)*%
X106920000Y-80050000D03*
%TO.P,U1,3,SENSOR_VP*%
%TO.N,unconnected-(U1-Pad3)*%
X104380000Y-80050000D03*
%TO.P,U1,4,SENSOR_VN*%
%TO.N,unconnected-(U1-Pad4)*%
X101840000Y-80050000D03*
%TO.P,U1,5,IO34*%
%TO.N,unconnected-(U1-Pad5)*%
X99300000Y-80050000D03*
%TO.P,U1,6,IO35*%
%TO.N,unconnected-(U1-Pad6)*%
X96760000Y-80050000D03*
%TO.P,U1,7,IO32*%
%TO.N,unconnected-(U1-Pad7)*%
X94220000Y-80050000D03*
%TO.P,U1,8,IO33*%
%TO.N,unconnected-(U1-Pad8)*%
X91680000Y-80050000D03*
%TO.P,U1,9,IO25*%
%TO.N,NeoPixel*%
X89140000Y-80050000D03*
%TO.P,U1,10,IO26*%
%TO.N,Trigger*%
X86600000Y-80050000D03*
%TO.P,U1,11,IO27*%
%TO.N,unconnected-(U1-Pad11)*%
X84060000Y-80050000D03*
%TO.P,U1,12,IO14*%
%TO.N,unconnected-(U1-Pad12)*%
X81520000Y-80050000D03*
%TO.P,U1,13,IO12*%
%TO.N,unconnected-(U1-Pad13)*%
X78980000Y-80050000D03*
%TO.P,U1,14,GND1*%
%TO.N,GNDREF*%
X76440000Y-80050000D03*
%TO.P,U1,15,IO13*%
%TO.N,unconnected-(U1-Pad15)*%
X73900000Y-80050000D03*
%TO.P,U1,16,SD2*%
%TO.N,unconnected-(U1-Pad16)*%
X71360000Y-80050000D03*
%TO.P,U1,17,SD3*%
%TO.N,unconnected-(U1-Pad17)*%
X68820000Y-80050000D03*
%TO.P,U1,18,CMD*%
%TO.N,unconnected-(U1-Pad18)*%
X66280000Y-80050000D03*
%TO.P,U1,19,EXT_5V*%
%TO.N,5V*%
X63740000Y-80050000D03*
%TO.P,U1,20,GND3*%
%TO.N,GNDREF*%
X109460000Y-105450000D03*
%TO.P,U1,21,IO23*%
%TO.N,MOSI*%
X106920000Y-105450000D03*
%TO.P,U1,22,IO22*%
%TO.N,unconnected-(U1-Pad22)*%
X104380000Y-105450000D03*
%TO.P,U1,23,TXD0*%
%TO.N,unconnected-(U1-Pad23)*%
X101840000Y-105450000D03*
%TO.P,U1,24,RXD0*%
%TO.N,unconnected-(U1-Pad24)*%
X99300000Y-105450000D03*
%TO.P,U1,25,IO21*%
%TO.N,unconnected-(U1-Pad25)*%
X96760000Y-105450000D03*
%TO.P,U1,26,GND2*%
%TO.N,GNDREF*%
X94220000Y-105450000D03*
%TO.P,U1,27,IO19*%
%TO.N,MISO*%
X91680000Y-105450000D03*
%TO.P,U1,28,IO18*%
%TO.N,CLK*%
X89140000Y-105450000D03*
%TO.P,U1,29,IO5*%
%TO.N,Latch*%
X86600000Y-105450000D03*
%TO.P,U1,30,IO17*%
%TO.N,Net-(R7-Pad1)*%
X84060000Y-105450000D03*
%TO.P,U1,31,IO16*%
%TO.N,unconnected-(U1-Pad31)*%
X81520000Y-105450000D03*
%TO.P,U1,32,IO4*%
%TO.N,unconnected-(U1-Pad32)*%
X78980000Y-105450000D03*
%TO.P,U1,33,IO0*%
%TO.N,unconnected-(U1-Pad33)*%
X76440000Y-105450000D03*
%TO.P,U1,34,IO2*%
%TO.N,unconnected-(U1-Pad34)*%
X73900000Y-105450000D03*
%TO.P,U1,35,IO15*%
%TO.N,unconnected-(U1-Pad35)*%
X71360000Y-105450000D03*
%TO.P,U1,36,SD1*%
%TO.N,unconnected-(U1-Pad36)*%
X68820000Y-105450000D03*
%TO.P,U1,37,SD0*%
%TO.N,unconnected-(U1-Pad37)*%
X66280000Y-105450000D03*
%TO.P,U1,38,CLK*%
%TO.N,unconnected-(U1-Pad38)*%
X63740000Y-105450000D03*
%TD*%
D28*
%TO.P,J12,1,Pin_1*%
%TO.N,TLC 12*%
X171100000Y-74700000D03*
D17*
%TO.P,J12,2,Pin_2*%
%TO.N,Net-(J12-Pad2)*%
X171100000Y-72200000D03*
%TD*%
D14*
%TO.P,J20,1,Pin_1*%
%TO.N,TLC 20*%
X128050000Y-50850000D03*
D15*
%TO.P,J20,2,Pin_2*%
%TO.N,Net-(J20-Pad2)*%
X125550000Y-50850000D03*
%TD*%
D12*
%TO.P,R3,1*%
%TO.N,OE*%
X76800000Y-109750000D03*
D13*
%TO.P,R3,2*%
%TO.N,5V*%
X92040000Y-109750000D03*
%TD*%
D12*
%TO.P,R6,1*%
%TO.N,Net-(D4-Pad2)*%
X101380000Y-124950000D03*
D13*
%TO.P,R6,2*%
%TO.N,Net-(R6-Pad2)*%
X116620000Y-124950000D03*
%TD*%
D30*
%TO.P,D2,1,K*%
%TO.N,GNDREF*%
X93875000Y-137750000D03*
D31*
%TO.P,D2,2,A*%
%TO.N,Net-(D2-Pad2)*%
X91335000Y-137750000D03*
%TD*%
D28*
%TO.P,J9,1,Pin_1*%
%TO.N,TLC 09*%
X171100000Y-100800000D03*
D17*
%TO.P,J9,2,Pin_2*%
%TO.N,Net-(J27-Pad10)*%
X171100000Y-98300000D03*
%TD*%
D14*
%TO.P,J19,1,Pin_1*%
%TO.N,TLC 19*%
X136850000Y-50850000D03*
D15*
%TO.P,J19,2,Pin_2*%
%TO.N,Net-(J19-Pad2)*%
X134350000Y-50850000D03*
%TD*%
D30*
%TO.P,D4,1,K*%
%TO.N,GNDREF*%
X102000000Y-137750000D03*
D31*
%TO.P,D4,2,A*%
%TO.N,Net-(D4-Pad2)*%
X99460000Y-137750000D03*
%TD*%
D14*
%TO.P,J21,1,Pin_1*%
%TO.N,TLC 21*%
X119250000Y-50850000D03*
D15*
%TO.P,J21,2,Pin_2*%
%TO.N,Net-(J21-Pad2)*%
X116750000Y-50850000D03*
%TD*%
D23*
%TO.P,J27,1,Pin_1*%
%TO.N,Net-(J0-Pad2)*%
X124200000Y-79000000D03*
D24*
%TO.P,J27,2,Pin_2*%
%TO.N,Net-(J1-Pad2)*%
X124200000Y-81500000D03*
%TO.P,J27,3,Pin_3*%
%TO.N,Net-(J2-Pad2)*%
X124200000Y-84000000D03*
%TO.P,J27,4,Pin_4*%
%TO.N,Net-(J27-Pad4)*%
X124200000Y-86500000D03*
%TO.P,J27,5,Pin_5*%
%TO.N,Net-(J27-Pad5)*%
X124200000Y-89000000D03*
%TO.P,J27,6,Pin_6*%
%TO.N,Net-(J27-Pad6)*%
X124200000Y-91500000D03*
%TO.P,J27,7,Pin_7*%
%TO.N,Net-(J27-Pad7)*%
X124200000Y-94000000D03*
%TO.P,J27,8,Pin_8*%
%TO.N,Net-(J27-Pad8)*%
X124200000Y-96500000D03*
%TO.P,J27,9,Pin_9*%
%TO.N,Net-(J27-Pad9)*%
X124200000Y-99000000D03*
%TO.P,J27,10,Pin_10*%
%TO.N,Net-(J27-Pad10)*%
X124200000Y-101500000D03*
%TO.P,J27,11,Pin_11*%
%TO.N,Net-(J10-Pad2)*%
X124200000Y-104000000D03*
%TO.P,J27,12,Pin_12*%
%TO.N,Net-(J11-Pad2)*%
X124200000Y-106500000D03*
%TD*%
D12*
%TO.P,R4,1*%
%TO.N,Net-(Q1-Pad2)*%
X101380000Y-109750000D03*
D13*
%TO.P,R4,2*%
%TO.N,Net-(R4-Pad2)*%
X116620000Y-109750000D03*
%TD*%
D28*
%TO.P,J13,1,Pin_1*%
%TO.N,TLC 13*%
X171100000Y-66000000D03*
D17*
%TO.P,J13,2,Pin_2*%
%TO.N,Net-(J13-Pad2)*%
X171100000Y-63500000D03*
%TD*%
D23*
%TO.P,J26,1,Pin_1*%
%TO.N,GNDREF*%
X150700000Y-121650000D03*
D24*
%TO.P,J26,2,Pin_2*%
%TO.N,NeoPixel*%
X150700000Y-124150000D03*
%TO.P,J26,3,Pin_3*%
%TO.N,3.3V*%
X150700000Y-126650000D03*
%TD*%
D34*
%TO.P,U2,1,GND*%
%TO.N,GNDREF*%
X137890000Y-115610000D03*
X137880000Y-69890000D03*
%TO.P,U2,2,BLANK*%
%TO.N,OE*%
X145510000Y-115610000D03*
X145510000Y-69890000D03*
%TO.P,U2,3,SCLK*%
%TO.N,CLK*%
X142970000Y-115610000D03*
X142970000Y-69890000D03*
%TO.P,U2,4,SIN*%
%TO.N,MOSI*%
X140430000Y-69890000D03*
%TO.P,U2,5,OUT0*%
%TO.N,TLC 00*%
X132810000Y-74970000D03*
%TO.P,U2,6,OUT1*%
%TO.N,TLC 01*%
X132810000Y-77510000D03*
%TO.P,U2,7,OUT2*%
%TO.N,TLC 02*%
X132810000Y-80050000D03*
%TO.P,U2,8,OUT3*%
%TO.N,TLC 03*%
X132810000Y-85130000D03*
%TO.P,U2,9,OUT4*%
%TO.N,TLC 04*%
X132810000Y-87670000D03*
%TO.P,U2,10,OUT5*%
%TO.N,TLC 05*%
X132810000Y-90210000D03*
%TO.P,U2,11,OUT6*%
%TO.N,TLC 06*%
X132810000Y-95290000D03*
%TO.P,U2,12,OUT7*%
%TO.N,TLC 07*%
X132810000Y-97830000D03*
%TO.P,U2,13,OUT8*%
%TO.N,TLC 08*%
X132810000Y-100370000D03*
%TO.P,U2,14,OUT9*%
%TO.N,TLC 09*%
X132810000Y-105450000D03*
%TO.P,U2,15,OUT10*%
%TO.N,TLC 10*%
X132810000Y-107990000D03*
%TO.P,U2,16,OUT11*%
%TO.N,TLC 11*%
X132810000Y-110530000D03*
%TO.P,U2,17,OUT12*%
%TO.N,TLC 12*%
X150590000Y-110530000D03*
%TO.P,U2,18,OUT13*%
%TO.N,TLC 13*%
X150590000Y-107990000D03*
%TO.P,U2,19,OUT14*%
%TO.N,TLC 14*%
X150590000Y-105450000D03*
%TO.P,U2,20,OUT15*%
%TO.N,TLC 15*%
X150590000Y-100370000D03*
%TO.P,U2,21,OUT16*%
%TO.N,TLC 16*%
X150590000Y-97830000D03*
%TO.P,U2,22,OUT17*%
%TO.N,TLC 17*%
X150590000Y-95290000D03*
%TO.P,U2,23,OUT18*%
%TO.N,TLC 18*%
X150590000Y-90210000D03*
%TO.P,U2,24,OUT19*%
%TO.N,TLC 19*%
X150590000Y-87670000D03*
%TO.P,U2,25,OUT20*%
%TO.N,TLC 20*%
X150590000Y-85130000D03*
%TO.P,U2,26,OUT21*%
%TO.N,TLC 21*%
X150590000Y-80050000D03*
%TO.P,U2,27,OUT22*%
%TO.N,TLC 22*%
X150590000Y-77510000D03*
%TO.P,U2,28,OUT23*%
%TO.N,TLC 23*%
X150590000Y-74970000D03*
%TO.P,U2,29,SOUT*%
%TO.N,MISO*%
X140430000Y-115610000D03*
%TO.P,U2,30,XLAT*%
%TO.N,Latch*%
X148050000Y-69890000D03*
X148050000Y-115610000D03*
%TO.P,U2,32,VCC*%
%TO.N,VCC*%
X130270000Y-110530000D03*
D35*
X130270000Y-95290000D03*
D34*
X153130000Y-87670000D03*
X130270000Y-100370000D03*
D35*
X153130000Y-80050000D03*
D34*
X153130000Y-95290000D03*
X130270000Y-90210000D03*
X153130000Y-97830000D03*
X153130000Y-74970000D03*
D35*
X153130000Y-100370000D03*
D34*
X135350000Y-115610000D03*
D35*
X153130000Y-90210000D03*
D34*
X153130000Y-105450000D03*
X130270000Y-107990000D03*
D35*
X153000000Y-110530000D03*
D34*
X153130000Y-107990000D03*
X130270000Y-77510000D03*
X130270000Y-80050000D03*
X153130000Y-85130000D03*
D35*
X130270000Y-85130000D03*
D34*
X135360000Y-69890000D03*
D35*
X130270000Y-105450000D03*
D34*
X153130000Y-77510000D03*
X130270000Y-87670000D03*
X130270000Y-97830000D03*
D35*
X130270000Y-74970000D03*
%TD*%
D12*
%TO.P,R8,1*%
%TO.N,GNDREF*%
X101380000Y-117350000D03*
D13*
%TO.P,R8,2*%
%TO.N,OE*%
X116620000Y-117350000D03*
%TD*%
D28*
%TO.P,J14,1,Pin_1*%
%TO.N,TLC 14*%
X171100000Y-57300000D03*
D17*
%TO.P,J14,2,Pin_2*%
%TO.N,Net-(J14-Pad2)*%
X171100000Y-54800000D03*
%TD*%
D22*
%TO.P,J4,1,Pin_1*%
%TO.N,TLC 04*%
X164950000Y-134650000D03*
D15*
%TO.P,J4,2,Pin_2*%
%TO.N,Net-(J27-Pad5)*%
X167450000Y-134650000D03*
%TD*%
D28*
%TO.P,J8,1,Pin_1*%
%TO.N,TLC 08*%
X171100000Y-109500000D03*
D17*
%TO.P,J8,2,Pin_2*%
%TO.N,Net-(J27-Pad9)*%
X171100000Y-107000000D03*
%TD*%
D12*
%TO.P,R5,1*%
%TO.N,Net-(D3-Pad2)*%
X116600000Y-121150000D03*
D13*
%TO.P,R5,2*%
%TO.N,Net-(R5-Pad2)*%
X101360000Y-121150000D03*
%TD*%
D30*
%TO.P,D3,1,K*%
%TO.N,GNDREF*%
X118875000Y-137750000D03*
D31*
%TO.P,D3,2,A*%
%TO.N,Net-(D3-Pad2)*%
X116335000Y-137750000D03*
%TD*%
D36*
%TO.N,TLC 00*%
X126100000Y-118450000D03*
%TO.N,TLC 01*%
X127200000Y-120750000D03*
%TO.N,TLC 02*%
X128400000Y-123750000D03*
%TO.N,Net-(J27-Pad4)*%
X122500000Y-117850000D03*
X124100000Y-129250000D03*
X124100000Y-137050000D03*
%TO.N,Net-(J27-Pad7)*%
X135700000Y-96450000D03*
%TO.N,Net-(J27-Pad8)*%
X139500000Y-99650000D03*
%TO.N,Net-(J27-Pad9)*%
X139600000Y-96050000D03*
%TO.N,3.3V*%
X83400000Y-115350000D03*
%TO.N,Net-(J0-Pad2)*%
X120000000Y-112850000D03*
%TO.N,OE*%
X138600000Y-87850000D03*
X111760000Y-122210000D03*
X145500000Y-77350000D03*
%TO.N,Net-(J1-Pad2)*%
X121300000Y-130450000D03*
X120700000Y-114150000D03*
X121300000Y-125250000D03*
%TO.N,Net-(J2-Pad2)*%
X122800000Y-133850000D03*
X122800000Y-127350000D03*
X121500000Y-116150000D03*
%TO.N,Net-(J11-Pad2)*%
X135000000Y-76050000D03*
X144500000Y-102550000D03*
%TO.N,MOSI*%
X111500000Y-100950000D03*
%TD*%
D37*
%TO.N,Net-(D2-Pad2)*%
X94300000Y-115830000D02*
X94300000Y-119070000D01*
X92020000Y-113550000D02*
X94300000Y-115830000D01*
X91335000Y-137750000D02*
X91335000Y-122035000D01*
X91335000Y-122035000D02*
X94300000Y-119070000D01*
%TO.N,Net-(D3-Pad2)*%
X116600000Y-121150000D02*
X115100000Y-122650000D01*
X115100000Y-136515000D02*
X115100000Y-136150000D01*
X116335000Y-137750000D02*
X115100000Y-136515000D01*
X115100000Y-122650000D02*
X115100000Y-136150000D01*
%TO.N,Net-(D4-Pad2)*%
X99460000Y-137750000D02*
X99460000Y-126870000D01*
X99460000Y-126870000D02*
X101380000Y-124950000D01*
%TO.N,TLC 00*%
X126100000Y-128950000D02*
X130150000Y-133000000D01*
X126100000Y-118450000D02*
X126100000Y-128950000D01*
X130150000Y-133000000D02*
X130150000Y-134650000D01*
%TO.N,TLC 01*%
X127200000Y-128450000D02*
X127200000Y-120750000D01*
X129400000Y-130650000D02*
X127200000Y-128450000D01*
X136500000Y-130650000D02*
X138850000Y-133000000D01*
X138850000Y-133000000D02*
X138850000Y-134650000D01*
X136500000Y-130650000D02*
X129400000Y-130650000D01*
%TO.N,TLC 02*%
X143900000Y-129350000D02*
X147550000Y-133000000D01*
X128400000Y-123750000D02*
X128400000Y-127150000D01*
X128400000Y-127150000D02*
X130600000Y-129350000D01*
X147550000Y-133000000D02*
X147550000Y-134650000D01*
X130600000Y-129350000D02*
X143900000Y-129350000D01*
%TO.N,TLC 03*%
X137980000Y-85130000D02*
X132810000Y-85130000D01*
X150500000Y-115350000D02*
X141100000Y-105950000D01*
X141100000Y-105950000D02*
X141100000Y-88250000D01*
X147400000Y-121350000D02*
X150500000Y-118250000D01*
X147400000Y-127750000D02*
X147400000Y-121350000D01*
X153000000Y-129750000D02*
X156250000Y-133000000D01*
X153000000Y-129750000D02*
X149400000Y-129750000D01*
X149400000Y-129750000D02*
X147400000Y-127750000D01*
X150500000Y-118250000D02*
X150500000Y-115350000D01*
X141100000Y-88250000D02*
X137980000Y-85130000D01*
X156250000Y-133000000D02*
X156250000Y-134650000D01*
%TO.N,Net-(J27-Pad4)*%
X124100000Y-137050000D02*
X124400000Y-137350000D01*
X124400000Y-137350000D02*
X156050000Y-137350000D01*
X124100000Y-129250000D02*
X124100000Y-124350000D01*
X122500000Y-122750000D02*
X122500000Y-117850000D01*
X156050000Y-137350000D02*
X158750000Y-134650000D01*
X124100000Y-124350000D02*
X122500000Y-122750000D01*
%TO.N,TLC 04*%
X141549520Y-105763802D02*
X153912843Y-118127124D01*
X132810000Y-87670000D02*
X131596489Y-86456489D01*
X138566489Y-83916489D02*
X141549520Y-86899520D01*
X131596489Y-84627346D02*
X132307346Y-83916489D01*
X141549520Y-86899520D02*
X141549520Y-105763802D01*
X153912843Y-118127124D02*
X161800000Y-118127124D01*
X132307346Y-83916489D02*
X138566489Y-83916489D01*
X161800000Y-118127124D02*
X164950000Y-121277124D01*
X164950000Y-121277124D02*
X164950000Y-134650000D01*
X131596489Y-86456489D02*
X131596489Y-84627346D01*
%TO.N,Net-(J27-Pad5)*%
X129506009Y-83466969D02*
X138752687Y-83466969D01*
X141999040Y-86713322D02*
X141999040Y-105577604D01*
X166500000Y-122085718D02*
X166500000Y-132050000D01*
X154099040Y-117677604D02*
X162091886Y-117677604D01*
X166500000Y-132050000D02*
X167450000Y-133000000D01*
X162091886Y-117677604D02*
X166500000Y-122085718D01*
X167450000Y-133000000D02*
X167450000Y-134650000D01*
X124200000Y-88772978D02*
X129506009Y-83466969D01*
X124200000Y-89000000D02*
X124200000Y-88772978D01*
X138752687Y-83466969D02*
X141999040Y-86713322D01*
X141999040Y-105577604D02*
X154099040Y-117677604D01*
%TO.N,TLC 05*%
X125475480Y-85325480D02*
X123588498Y-85325480D01*
X122900480Y-89750480D02*
X123324520Y-90174520D01*
X162278084Y-117228084D02*
X154285238Y-117228084D01*
X131596489Y-91423511D02*
X132810000Y-90210000D01*
X167000000Y-129250000D02*
X167000000Y-121950000D01*
X138938885Y-83017449D02*
X127783511Y-83017449D01*
X124824520Y-90174520D02*
X126073511Y-91423511D01*
X170750000Y-133000000D02*
X167000000Y-129250000D01*
X154285238Y-117228084D02*
X142448560Y-105391406D01*
X173650000Y-134650000D02*
X173650000Y-133800000D01*
X126073511Y-91423511D02*
X131596489Y-91423511D01*
X167000000Y-121950000D02*
X162278084Y-117228084D01*
X142448560Y-105391406D02*
X142448560Y-86527124D01*
X127783511Y-83017449D02*
X125475480Y-85325480D01*
X123588498Y-85325480D02*
X122900480Y-86013498D01*
X122900480Y-86013498D02*
X122900480Y-89750480D01*
X172850000Y-133000000D02*
X170750000Y-133000000D01*
X173650000Y-133800000D02*
X172850000Y-133000000D01*
X142448560Y-86527124D02*
X138938885Y-83017449D01*
X123324520Y-90174520D02*
X124824520Y-90174520D01*
%TO.N,Net-(J27-Pad6)*%
X139125083Y-82567929D02*
X142898080Y-86340927D01*
X123225000Y-91500000D02*
X122450960Y-90725960D01*
X167500000Y-127950000D02*
X168900000Y-129350000D01*
X126382071Y-82567929D02*
X139125083Y-82567929D01*
X122450960Y-83963018D02*
X123663978Y-82750000D01*
X122450960Y-90725960D02*
X122450960Y-83963018D01*
X154471436Y-116778564D02*
X162628564Y-116778564D01*
X162628564Y-116778564D02*
X167500000Y-121650000D01*
X172500000Y-129350000D02*
X176150000Y-133000000D01*
X176150000Y-134650000D02*
X176150000Y-133000000D01*
X168900000Y-129350000D02*
X172500000Y-129350000D01*
X123663978Y-82750000D02*
X126200000Y-82750000D01*
X124200000Y-91500000D02*
X123225000Y-91500000D01*
X126200000Y-82750000D02*
X126382071Y-82567929D01*
X142898080Y-86340927D02*
X142898080Y-105205208D01*
X167500000Y-121650000D02*
X167500000Y-127950000D01*
X142898080Y-105205208D02*
X154471436Y-116778564D01*
%TO.N,Net-(J27-Pad7)*%
X129300000Y-92950000D02*
X132200000Y-92950000D01*
X132200000Y-92950000D02*
X135700000Y-96450000D01*
X124200000Y-94000000D02*
X128250000Y-94000000D01*
X128250000Y-94000000D02*
X129300000Y-92950000D01*
%TO.N,Net-(J27-Pad8)*%
X136800000Y-99650000D02*
X133653511Y-96503511D01*
X124203511Y-96503511D02*
X124200000Y-96500000D01*
X133653511Y-96503511D02*
X124203511Y-96503511D01*
X139500000Y-99650000D02*
X136800000Y-99650000D01*
%TO.N,Net-(J27-Pad9)*%
X122400000Y-94013978D02*
X123588498Y-92825480D01*
X135700000Y-92150000D02*
X139600000Y-96050000D01*
X128224520Y-92825480D02*
X128900000Y-92150000D01*
X128900000Y-92150000D02*
X135700000Y-92150000D01*
X122400000Y-97200000D02*
X122400000Y-94013978D01*
X123588498Y-92825480D02*
X128224520Y-92825480D01*
X124200000Y-99000000D02*
X122400000Y-97200000D01*
%TO.N,Net-(J27-Pad10)*%
X143347600Y-86154730D02*
X143347600Y-105019010D01*
X171650000Y-98300000D02*
X171100000Y-98300000D01*
X124200000Y-101500000D02*
X121950480Y-99250480D01*
X121950480Y-99250480D02*
X121950480Y-81963498D01*
X174500000Y-101150000D02*
X171650000Y-98300000D01*
X123588498Y-80325480D02*
X125675480Y-80325480D01*
X139311281Y-82118409D02*
X143347600Y-86154730D01*
X127468409Y-82118409D02*
X139311281Y-82118409D01*
X174500000Y-112950000D02*
X174500000Y-101150000D01*
X173100000Y-114350000D02*
X174500000Y-112950000D01*
X125675480Y-80325480D02*
X127468409Y-82118409D01*
X152678590Y-114350000D02*
X173100000Y-114350000D01*
X121950480Y-81963498D02*
X123588498Y-80325480D01*
X143347600Y-105019010D02*
X152678590Y-114350000D01*
%TO.N,Net-(J18-Pad2)*%
X159200000Y-91500000D02*
X162449520Y-88250480D01*
X162449520Y-88250480D02*
X162449520Y-75792367D01*
X162449520Y-75792367D02*
X143150000Y-56492847D01*
X143150000Y-56492847D02*
X143150000Y-50850000D01*
%TO.N,Trigger*%
X84200000Y-86350000D02*
X86600000Y-83950000D01*
X61500000Y-118450000D02*
X61500000Y-91350000D01*
X66500000Y-86350000D02*
X84200000Y-86350000D01*
X86600000Y-83950000D02*
X86600000Y-80050000D01*
X65800000Y-122750000D02*
X61500000Y-118450000D01*
X71601260Y-122750000D02*
X65800000Y-122750000D01*
X61500000Y-91350000D02*
X66500000Y-86350000D01*
%TO.N,NeoPixel*%
X163300000Y-138550000D02*
X159500000Y-142350000D01*
X159500000Y-142350000D02*
X69200000Y-142350000D01*
X60000000Y-57650000D02*
X63300000Y-54350000D01*
X77600000Y-54350000D02*
X89140000Y-65890000D01*
X150700000Y-124150000D02*
X156273356Y-118576644D01*
X161613802Y-118576644D02*
X163300000Y-120262842D01*
X89140000Y-65890000D02*
X89140000Y-80050000D01*
X60000000Y-133150000D02*
X60000000Y-57650000D01*
X156273356Y-118576644D02*
X161613802Y-118576644D01*
X63300000Y-54350000D02*
X77600000Y-54350000D01*
X163300000Y-120262842D02*
X163300000Y-138550000D01*
X69200000Y-142350000D02*
X60000000Y-133150000D01*
%TO.N,3.3V*%
X104123533Y-141774511D02*
X156775489Y-141774511D01*
X98080000Y-124900000D02*
X99830000Y-123150000D01*
X99830000Y-123150000D02*
X102200000Y-123150000D01*
X160800000Y-129650000D02*
X157800000Y-126650000D01*
X157800000Y-126650000D02*
X150700000Y-126650000D01*
X66800000Y-87250000D02*
X62000000Y-92050000D01*
X62000000Y-112350000D02*
X65000000Y-115350000D01*
X109460000Y-82890000D02*
X105100000Y-87250000D01*
X62000000Y-92050000D02*
X62000000Y-112350000D01*
X65000000Y-115350000D02*
X83400000Y-115350000D01*
X109460000Y-80050000D02*
X109460000Y-82890000D01*
X103224511Y-140875489D02*
X104123533Y-141774511D01*
X160800000Y-137750000D02*
X160800000Y-129650000D01*
X156775489Y-141774511D02*
X160800000Y-137750000D01*
X105100000Y-87250000D02*
X66800000Y-87250000D01*
X103224511Y-124174511D02*
X103224511Y-140875489D01*
X102200000Y-123150000D02*
X103224511Y-124174511D01*
D38*
%TO.N,VCC*%
X138300000Y-122850000D02*
X139600000Y-124150000D01*
X134000000Y-122850000D02*
X138300000Y-122850000D01*
X139600000Y-124150000D02*
X142400000Y-124150000D01*
D37*
%TO.N,Net-(J0-Pad2)*%
X128724520Y-135974520D02*
X131325480Y-135974520D01*
X120100000Y-112750000D02*
X119975489Y-112874511D01*
X119975489Y-127225489D02*
X128724520Y-135974520D01*
X131325480Y-135974520D02*
X132650000Y-134650000D01*
X119975489Y-112874511D02*
X119975489Y-127225489D01*
%TO.N,OE*%
X147050000Y-68350000D02*
X148800000Y-68350000D01*
X148800000Y-68350000D02*
X150800000Y-70350000D01*
X111760000Y-122210000D02*
X116620000Y-117350000D01*
X116620000Y-113550000D02*
X118920000Y-111250000D01*
X149600000Y-117450000D02*
X149600000Y-115085718D01*
X118920000Y-111250000D02*
X120600000Y-111250000D01*
X148900000Y-118150000D02*
X149600000Y-117450000D01*
X145510000Y-115610000D02*
X148050000Y-118150000D01*
X111760000Y-122210000D02*
X111740000Y-122230000D01*
X127800000Y-118450000D02*
X142670000Y-118450000D01*
X116620000Y-113550000D02*
X116620000Y-117350000D01*
X120600000Y-111250000D02*
X127800000Y-118450000D01*
X150800000Y-70350000D02*
X150800000Y-72050000D01*
X140400000Y-89650000D02*
X138600000Y-87850000D01*
X149600000Y-115085718D02*
X140400000Y-105885717D01*
X142670000Y-118450000D02*
X145510000Y-115610000D01*
X140400000Y-105885717D02*
X140400000Y-89650000D01*
X145510000Y-69890000D02*
X147050000Y-68350000D01*
X148050000Y-118150000D02*
X148900000Y-118150000D01*
X111740000Y-122230000D02*
X111740000Y-129830000D01*
X150800000Y-72050000D02*
X145500000Y-77350000D01*
%TO.N,Net-(J1-Pad2)*%
X121300000Y-130450000D02*
X127300960Y-136450960D01*
X127300960Y-136450960D02*
X139549040Y-136450960D01*
X139549040Y-136450960D02*
X141350000Y-134650000D01*
X120700000Y-124650000D02*
X120700000Y-123950000D01*
X121300000Y-125250000D02*
X120700000Y-124650000D01*
X120700000Y-114150000D02*
X120700000Y-123950000D01*
%TO.N,Net-(J2-Pad2)*%
X122800000Y-133850000D02*
X125850480Y-136900480D01*
X121500000Y-123850000D02*
X122800000Y-125150000D01*
X147799520Y-136900480D02*
X150050000Y-134650000D01*
X121500000Y-116150000D02*
X121500000Y-123850000D01*
X122800000Y-125150000D02*
X122800000Y-127350000D01*
X125850480Y-136900480D02*
X147799520Y-136900480D01*
%TO.N,5V*%
X61050480Y-82739520D02*
X63740000Y-80050000D01*
X65300000Y-123950000D02*
X61050480Y-119700480D01*
X92040000Y-109750000D02*
X88300000Y-113490000D01*
X72441292Y-123950000D02*
X65300000Y-123950000D01*
X61050480Y-119700480D02*
X61050480Y-82739520D01*
X79241292Y-117150000D02*
X72441292Y-123950000D01*
X84600000Y-117150000D02*
X79241292Y-117150000D01*
X88300000Y-113490000D02*
X88260000Y-113490000D01*
X88260000Y-113490000D02*
X84600000Y-117150000D01*
%TO.N,Net-(J10-Pad2)*%
X169350000Y-89600000D02*
X166100000Y-92850000D01*
X156300000Y-107650000D02*
X156300000Y-105150000D01*
X143797120Y-85968530D02*
X139497479Y-81668889D01*
X121500000Y-101300000D02*
X124200000Y-104000000D01*
X166100000Y-92850000D02*
X166100000Y-106212493D01*
X154400000Y-103250000D02*
X147400000Y-103250000D01*
X143797120Y-99647120D02*
X143797120Y-85968530D01*
X139497479Y-81668889D02*
X129518889Y-81668889D01*
X169350000Y-89600000D02*
X171100000Y-89600000D01*
X125600000Y-77750000D02*
X123312507Y-77750000D01*
X162762493Y-109550000D02*
X158200000Y-109550000D01*
X123312507Y-77750000D02*
X121500000Y-79562507D01*
X129518889Y-81668889D02*
X125600000Y-77750000D01*
X147400000Y-103250000D02*
X143797120Y-99647120D01*
X166100000Y-106212493D02*
X162762493Y-109550000D01*
X158200000Y-109550000D02*
X156300000Y-107650000D01*
X156300000Y-105150000D02*
X154400000Y-103250000D01*
X121500000Y-79562507D02*
X121500000Y-101300000D01*
%TO.N,Net-(J11-Pad2)*%
X167000000Y-106950000D02*
X163800000Y-110150000D01*
X135000000Y-76050000D02*
X135000000Y-75443835D01*
X121050480Y-79376310D02*
X121050480Y-103350480D01*
X155850480Y-105336198D02*
X154213802Y-103699520D01*
X155700000Y-108050000D02*
X155850480Y-107899520D01*
X155850480Y-107899520D02*
X155850480Y-105336198D01*
X121050480Y-103350480D02*
X124200000Y-106500000D01*
X163800000Y-110150000D02*
X157800000Y-110150000D01*
X172000000Y-80900000D02*
X173950000Y-82850000D01*
X145649520Y-103699520D02*
X144500000Y-102550000D01*
X157800000Y-110150000D02*
X155700000Y-108050000D01*
X173950000Y-82850000D02*
X173950000Y-91412493D01*
X133106165Y-73550000D02*
X126876790Y-73550000D01*
X167000000Y-98362493D02*
X167000000Y-98900000D01*
X173950000Y-91412493D02*
X167000000Y-98362493D01*
X126876790Y-73550000D02*
X121050480Y-79376310D01*
X135000000Y-75443835D02*
X133106165Y-73550000D01*
X154213802Y-103699520D02*
X145649520Y-103699520D01*
X167000000Y-98900000D02*
X167000000Y-106950000D01*
X171100000Y-80900000D02*
X172000000Y-80900000D01*
%TO.N,Net-(J12-Pad2)*%
X169350000Y-72200000D02*
X165146640Y-76403360D01*
X165146640Y-100553360D02*
X159200000Y-106500000D01*
X169350000Y-72200000D02*
X171100000Y-72200000D01*
X165146640Y-76403360D02*
X165146640Y-100553360D01*
%TO.N,Net-(J13-Pad2)*%
X169687506Y-63500000D02*
X169268753Y-63918753D01*
X164697120Y-68490387D02*
X164697120Y-98502880D01*
X171100000Y-63500000D02*
X169687506Y-63500000D01*
X164697120Y-98502880D02*
X159200000Y-104000000D01*
X169350000Y-63837507D02*
X169268753Y-63918753D01*
X169268753Y-63918753D02*
X164697120Y-68490387D01*
%TO.N,MOSI*%
X111500000Y-76350978D02*
X111500000Y-100950000D01*
X140430000Y-69890000D02*
X136790000Y-66250000D01*
X121600978Y-66250000D02*
X111500000Y-76350978D01*
X136790000Y-66250000D02*
X121600978Y-66250000D01*
%TO.N,MISO*%
X140430000Y-115610000D02*
X138870000Y-114050000D01*
X138870000Y-114050000D02*
X124300000Y-114050000D01*
X93280000Y-103850000D02*
X91680000Y-105450000D01*
X124300000Y-114050000D02*
X114100000Y-103850000D01*
X114100000Y-103850000D02*
X93280000Y-103850000D01*
%TO.N,CLK*%
X82850000Y-104700000D02*
X82850000Y-106150000D01*
X112900000Y-100650000D02*
X111700000Y-101850000D01*
X114235718Y-103350000D02*
X91240000Y-103350000D01*
X87290000Y-107300000D02*
X89140000Y-105450000D01*
X82850000Y-106150000D02*
X84000000Y-107300000D01*
X142970000Y-69890000D02*
X141010000Y-71850000D01*
X124486198Y-113600480D02*
X114235718Y-103350000D01*
X85700000Y-101850000D02*
X82850000Y-104700000D01*
X142970000Y-115610000D02*
X140960480Y-113600480D01*
X112900000Y-79050000D02*
X112900000Y-100650000D01*
X120100000Y-71850000D02*
X112900000Y-79050000D01*
X84000000Y-107300000D02*
X87290000Y-107300000D01*
X111700000Y-101850000D02*
X85700000Y-101850000D01*
X140960480Y-113600480D02*
X124486198Y-113600480D01*
X141010000Y-71850000D02*
X120100000Y-71850000D01*
X91240000Y-103350000D02*
X89140000Y-105450000D01*
%TO.N,Latch*%
X89149520Y-102900480D02*
X86600000Y-105450000D01*
X121000000Y-72850000D02*
X114486197Y-79363803D01*
X148050000Y-69890000D02*
X145090000Y-72850000D01*
X148050000Y-115610000D02*
X145590960Y-113150960D01*
X114486197Y-79363803D02*
X114486197Y-102900480D01*
X145590960Y-113150960D02*
X124736677Y-113150960D01*
X124736677Y-113150960D02*
X114486197Y-102900480D01*
X145090000Y-72850000D02*
X121000000Y-72850000D01*
X114486197Y-102900480D02*
X89149520Y-102900480D01*
%TO.N,Net-(J14-Pad2)*%
X159200000Y-101500000D02*
X164247600Y-96452400D01*
X164247600Y-96452400D02*
X164247600Y-60239907D01*
X164247600Y-60239907D02*
X169687507Y-54800000D01*
X169687507Y-54800000D02*
X171100000Y-54800000D01*
%TO.N,Net-(J15-Pad2)*%
X169350000Y-46100000D02*
X164800000Y-50650000D01*
X164800000Y-55650000D02*
X163798080Y-56651920D01*
X163798080Y-56651920D02*
X163798080Y-94401920D01*
X163798080Y-94401920D02*
X159200000Y-99000000D01*
X164800000Y-50650000D02*
X164800000Y-55650000D01*
X169350000Y-46100000D02*
X171100000Y-46100000D01*
%TO.N,Net-(J16-Pad2)*%
X160750000Y-55100000D02*
X160750000Y-50850000D01*
X163348560Y-57698560D02*
X160750000Y-55100000D01*
X163348560Y-92351440D02*
X163348560Y-57698560D01*
X159200000Y-96500000D02*
X163348560Y-92351440D01*
%TO.N,Net-(J17-Pad2)*%
X162899040Y-75549040D02*
X151950000Y-64600000D01*
X151950000Y-64600000D02*
X151950000Y-50850000D01*
X162899040Y-90300960D02*
X162899040Y-75549040D01*
X159200000Y-94000000D02*
X162899040Y-90300960D01*
%TO.N,Net-(J19-Pad2)*%
X145551920Y-63651920D02*
X149673356Y-63651920D01*
X134500000Y-52600000D02*
X145551920Y-63651920D01*
X149673356Y-63651920D02*
X162000000Y-75978564D01*
X134350000Y-52450000D02*
X134350000Y-50850000D01*
X162000000Y-75978564D02*
X162000000Y-86200000D01*
X134500000Y-52600000D02*
X134350000Y-52450000D01*
X162000000Y-86200000D02*
X159200000Y-89000000D01*
%TO.N,Net-(J20-Pad2)*%
X125550000Y-52600000D02*
X125550000Y-50850000D01*
X161549520Y-76163803D02*
X161549520Y-84150480D01*
X137051440Y-64101440D02*
X149487158Y-64101440D01*
X161549520Y-84150480D02*
X159200000Y-86500000D01*
X149487158Y-64101440D02*
X161549520Y-76163803D01*
X125550000Y-52600000D02*
X137051440Y-64101440D01*
%TO.N,Net-(J21-Pad2)*%
X149300960Y-64550960D02*
X161100000Y-76350000D01*
X116750000Y-52600000D02*
X116750000Y-50850000D01*
X161100000Y-82100000D02*
X159200000Y-84000000D01*
X128700960Y-64550960D02*
X149300960Y-64550960D01*
X161100000Y-76350000D02*
X161100000Y-82100000D01*
X116750000Y-52600000D02*
X128700960Y-64550960D01*
%TO.N,Net-(J22-Pad2)*%
X107950000Y-52600000D02*
X107950000Y-50850000D01*
X148250480Y-65000480D02*
X160600000Y-77350000D01*
X160600000Y-77350000D02*
X160600000Y-80100000D01*
X160600000Y-80100000D02*
X159200000Y-81500000D01*
X120350480Y-65000480D02*
X148250480Y-65000480D01*
X107950000Y-52600000D02*
X120350480Y-65000480D01*
%TO.N,Net-(J23-Pad2)*%
X99150000Y-52600000D02*
X99150000Y-50850000D01*
X99150000Y-52600000D02*
X112000000Y-65450000D01*
X159200000Y-77350000D02*
X159200000Y-79000000D01*
X112000000Y-65450000D02*
X147300000Y-65450000D01*
X147300000Y-65450000D02*
X159200000Y-77350000D01*
%TO.N,Net-(Q1-Pad2)*%
X72840000Y-108350000D02*
X69990000Y-111200000D01*
X101380000Y-109750000D02*
X99980000Y-108350000D01*
X91800000Y-108350000D02*
X72840000Y-108350000D01*
X99980000Y-108350000D02*
X91800000Y-108350000D01*
%TO.N,Net-(R4-Pad2)*%
X106660000Y-129830000D02*
X106660000Y-113590000D01*
X110500000Y-109750000D02*
X116620000Y-109750000D01*
X106660000Y-113590000D02*
X110500000Y-109750000D01*
%TO.N,Net-(R5-Pad2)*%
X104400000Y-121150000D02*
X104900000Y-121650000D01*
X104900000Y-121650000D02*
X104900000Y-134100000D01*
X105450000Y-134650000D02*
X106150000Y-134650000D01*
X104900000Y-134100000D02*
X105450000Y-134650000D01*
X101360000Y-121150000D02*
X104400000Y-121150000D01*
X106150000Y-134650000D02*
X106660000Y-134140000D01*
X106660000Y-134140000D02*
X106660000Y-132370000D01*
%TO.N,Net-(SW1-Pad2)*%
X71601260Y-62750000D02*
X67750421Y-62750000D01*
X82950000Y-130800000D02*
X82950000Y-134350000D01*
X83920000Y-129830000D02*
X82950000Y-130800000D01*
X67900000Y-135150000D02*
X63525000Y-130775000D01*
X84200000Y-129830000D02*
X83920000Y-129830000D01*
X82150000Y-135150000D02*
X67900000Y-135150000D01*
X60550000Y-69950420D02*
X60550000Y-127800000D01*
X67750421Y-62750000D02*
X60550000Y-69950420D01*
X63525000Y-130775000D02*
X63600000Y-130850000D01*
X82950000Y-134350000D02*
X82150000Y-135150000D01*
X60550000Y-127800000D02*
X63525000Y-130775000D01*
%TO.N,Net-(Q2-Pad1)*%
X109200000Y-134200000D02*
X109200000Y-132370000D01*
X95300000Y-122600000D02*
X103450000Y-122600000D01*
X103900000Y-134300000D02*
X104950000Y-135350000D01*
X104950000Y-135350000D02*
X108050000Y-135350000D01*
X103900000Y-123050000D02*
X103900000Y-134300000D01*
X93000000Y-124900000D02*
X95300000Y-122600000D01*
X103450000Y-122600000D02*
X103900000Y-123050000D01*
X108050000Y-135350000D02*
X109200000Y-134200000D01*
%TO.N,Net-(SW1-Pad6)*%
X86740000Y-132370000D02*
X88080000Y-132370000D01*
X92020000Y-117350000D02*
X90385000Y-118985000D01*
X90385000Y-130065000D02*
X90385000Y-118985000D01*
X88080000Y-132370000D02*
X90385000Y-130065000D01*
%TD*%
M02*
