%TF.GenerationSoftware,KiCad,Pcbnew,7.0.8*%
%TF.CreationDate,2024-02-09T14:55:35+01:00*%
%TF.ProjectId,LED-Zappelin-V2-Chrolis,4c45442d-5a61-4707-9065-6c696e2d5632,rev?*%
%TF.SameCoordinates,Original*%
%TF.FileFunction,Legend,Bot*%
%TF.FilePolarity,Positive*%
%FSLAX46Y46*%
G04 Gerber Fmt 4.6, Leading zero omitted, Abs format (unit mm)*
G04 Created by KiCad (PCBNEW 7.0.8) date 2024-02-09 14:55:35*
%MOMM*%
%LPD*%
G01*
G04 APERTURE LIST*
%ADD10C,0.150000*%
%ADD11C,0.120000*%
G04 APERTURE END LIST*
D10*
X61340476Y-157954819D02*
X61911904Y-157954819D01*
X61626190Y-157954819D02*
X61626190Y-156954819D01*
X61626190Y-156954819D02*
X61721428Y-157097676D01*
X61721428Y-157097676D02*
X61816666Y-157192914D01*
X61816666Y-157192914D02*
X61911904Y-157240533D01*
X60911904Y-157954819D02*
X60911904Y-156954819D01*
X60816666Y-157573866D02*
X60530952Y-157954819D01*
X60530952Y-157288152D02*
X60911904Y-157669104D01*
X60149999Y-157954819D02*
X59911904Y-157954819D01*
X59911904Y-157954819D02*
X59911904Y-157764342D01*
X59911904Y-157764342D02*
X60007142Y-157716723D01*
X60007142Y-157716723D02*
X60102380Y-157621485D01*
X60102380Y-157621485D02*
X60149999Y-157478628D01*
X60149999Y-157478628D02*
X60149999Y-157240533D01*
X60149999Y-157240533D02*
X60102380Y-157097676D01*
X60102380Y-157097676D02*
X60007142Y-157002438D01*
X60007142Y-157002438D02*
X59864285Y-156954819D01*
X59864285Y-156954819D02*
X59673809Y-156954819D01*
X59673809Y-156954819D02*
X59530952Y-157002438D01*
X59530952Y-157002438D02*
X59435714Y-157097676D01*
X59435714Y-157097676D02*
X59388095Y-157240533D01*
X59388095Y-157240533D02*
X59388095Y-157478628D01*
X59388095Y-157478628D02*
X59435714Y-157621485D01*
X59435714Y-157621485D02*
X59530952Y-157716723D01*
X59530952Y-157716723D02*
X59626190Y-157764342D01*
X59626190Y-157764342D02*
X59626190Y-157954819D01*
X59626190Y-157954819D02*
X59388095Y-157954819D01*
X61861904Y-175150057D02*
X61814285Y-175102438D01*
X61814285Y-175102438D02*
X61719047Y-175054819D01*
X61719047Y-175054819D02*
X61480952Y-175054819D01*
X61480952Y-175054819D02*
X61385714Y-175102438D01*
X61385714Y-175102438D02*
X61338095Y-175150057D01*
X61338095Y-175150057D02*
X61290476Y-175245295D01*
X61290476Y-175245295D02*
X61290476Y-175340533D01*
X61290476Y-175340533D02*
X61338095Y-175483390D01*
X61338095Y-175483390D02*
X61909523Y-176054819D01*
X61909523Y-176054819D02*
X61290476Y-176054819D01*
X60861904Y-176054819D02*
X60861904Y-175054819D01*
X60766666Y-175673866D02*
X60480952Y-176054819D01*
X60480952Y-175388152D02*
X60861904Y-175769104D01*
X60099999Y-176054819D02*
X59861904Y-176054819D01*
X59861904Y-176054819D02*
X59861904Y-175864342D01*
X59861904Y-175864342D02*
X59957142Y-175816723D01*
X59957142Y-175816723D02*
X60052380Y-175721485D01*
X60052380Y-175721485D02*
X60099999Y-175578628D01*
X60099999Y-175578628D02*
X60099999Y-175340533D01*
X60099999Y-175340533D02*
X60052380Y-175197676D01*
X60052380Y-175197676D02*
X59957142Y-175102438D01*
X59957142Y-175102438D02*
X59814285Y-175054819D01*
X59814285Y-175054819D02*
X59623809Y-175054819D01*
X59623809Y-175054819D02*
X59480952Y-175102438D01*
X59480952Y-175102438D02*
X59385714Y-175197676D01*
X59385714Y-175197676D02*
X59338095Y-175340533D01*
X59338095Y-175340533D02*
X59338095Y-175578628D01*
X59338095Y-175578628D02*
X59385714Y-175721485D01*
X59385714Y-175721485D02*
X59480952Y-175816723D01*
X59480952Y-175816723D02*
X59576190Y-175864342D01*
X59576190Y-175864342D02*
X59576190Y-176054819D01*
X59576190Y-176054819D02*
X59338095Y-176054819D01*
D11*
%TO.C,RV2*%
X49980000Y-163540000D02*
X49980000Y-158500000D01*
X48460000Y-162320000D02*
X48460000Y-159720000D01*
X48460000Y-162320000D02*
X49979000Y-162320000D01*
X49980000Y-163540000D02*
X69220000Y-163540000D01*
X48460000Y-159720000D02*
X49979000Y-159720000D01*
X49979000Y-162320000D02*
X49979000Y-159720000D01*
X49980000Y-158500000D02*
X69220000Y-158500000D01*
X69220000Y-163540000D02*
X69220000Y-158500000D01*
X48460000Y-161020000D02*
X49219000Y-161020000D01*
%TO.C,RV1*%
X49980000Y-181840000D02*
X49980000Y-176800000D01*
X48460000Y-180620000D02*
X48460000Y-178020000D01*
X48460000Y-180620000D02*
X49979000Y-180620000D01*
X49980000Y-181840000D02*
X69220000Y-181840000D01*
X48460000Y-178020000D02*
X49979000Y-178020000D01*
X49979000Y-180620000D02*
X49979000Y-178020000D01*
X49980000Y-176800000D02*
X69220000Y-176800000D01*
X69220000Y-181840000D02*
X69220000Y-176800000D01*
X48460000Y-179320000D02*
X49219000Y-179320000D01*
%TD*%
M02*
