%TF.GenerationSoftware,KiCad,Pcbnew,7.0.8*%
%TF.CreationDate,2024-02-09T14:55:37+01:00*%
%TF.ProjectId,LED-Zappelin-V2-Chrolis,4c45442d-5a61-4707-9065-6c696e2d5632,rev?*%
%TF.SameCoordinates,Original*%
%TF.FileFunction,Drillmap*%
%TF.FilePolarity,Positive*%
%FSLAX45Y45*%
G04 Gerber Fmt 4.5, Leading zero omitted, Abs format (unit mm)*
G04 Created by KiCad (PCBNEW 7.0.8) date 2024-02-09 14:55:37*
%MOMM*%
%LPD*%
G01*
G04 APERTURE LIST*
%ADD10C,0.100000*%
%ADD11C,0.200000*%
%ADD12C,0.300000*%
G04 APERTURE END LIST*
D10*
X5000000Y-5000000D02*
X15000000Y-5000000D01*
X15000000Y-18500000D01*
X5000000Y-18500000D01*
X5000000Y-5000000D01*
D11*
D12*
X6600000Y-6750000D02*
X6900000Y-7050000D01*
X6900000Y-6750000D02*
X6600000Y-7050000D01*
X6600000Y-14850000D02*
X6900000Y-15150000D01*
X6900000Y-14850000D02*
X6600000Y-15150000D01*
X12350000Y-6750000D02*
X12650000Y-7050000D01*
X12650000Y-6750000D02*
X12350000Y-7050000D01*
X12350000Y-14850000D02*
X12650000Y-15150000D01*
X12650000Y-14850000D02*
X12350000Y-15150000D01*
D11*
X5255777Y-18816484D02*
X5255777Y-18616484D01*
X5255777Y-18616484D02*
X5303396Y-18616484D01*
X5303396Y-18616484D02*
X5331967Y-18626008D01*
X5331967Y-18626008D02*
X5351015Y-18645055D01*
X5351015Y-18645055D02*
X5360539Y-18664103D01*
X5360539Y-18664103D02*
X5370063Y-18702198D01*
X5370063Y-18702198D02*
X5370063Y-18730770D01*
X5370063Y-18730770D02*
X5360539Y-18768865D01*
X5360539Y-18768865D02*
X5351015Y-18787912D01*
X5351015Y-18787912D02*
X5331967Y-18806960D01*
X5331967Y-18806960D02*
X5303396Y-18816484D01*
X5303396Y-18816484D02*
X5255777Y-18816484D01*
X5455777Y-18816484D02*
X5455777Y-18683150D01*
X5455777Y-18721246D02*
X5465301Y-18702198D01*
X5465301Y-18702198D02*
X5474824Y-18692674D01*
X5474824Y-18692674D02*
X5493872Y-18683150D01*
X5493872Y-18683150D02*
X5512920Y-18683150D01*
X5579586Y-18816484D02*
X5579586Y-18683150D01*
X5579586Y-18616484D02*
X5570063Y-18626008D01*
X5570063Y-18626008D02*
X5579586Y-18635531D01*
X5579586Y-18635531D02*
X5589110Y-18626008D01*
X5589110Y-18626008D02*
X5579586Y-18616484D01*
X5579586Y-18616484D02*
X5579586Y-18635531D01*
X5703396Y-18816484D02*
X5684348Y-18806960D01*
X5684348Y-18806960D02*
X5674824Y-18787912D01*
X5674824Y-18787912D02*
X5674824Y-18616484D01*
X5808158Y-18816484D02*
X5789110Y-18806960D01*
X5789110Y-18806960D02*
X5779586Y-18787912D01*
X5779586Y-18787912D02*
X5779586Y-18616484D01*
X6036729Y-18816484D02*
X6036729Y-18616484D01*
X6036729Y-18616484D02*
X6103396Y-18759341D01*
X6103396Y-18759341D02*
X6170062Y-18616484D01*
X6170062Y-18616484D02*
X6170062Y-18816484D01*
X6351015Y-18816484D02*
X6351015Y-18711722D01*
X6351015Y-18711722D02*
X6341491Y-18692674D01*
X6341491Y-18692674D02*
X6322443Y-18683150D01*
X6322443Y-18683150D02*
X6284348Y-18683150D01*
X6284348Y-18683150D02*
X6265301Y-18692674D01*
X6351015Y-18806960D02*
X6331967Y-18816484D01*
X6331967Y-18816484D02*
X6284348Y-18816484D01*
X6284348Y-18816484D02*
X6265301Y-18806960D01*
X6265301Y-18806960D02*
X6255777Y-18787912D01*
X6255777Y-18787912D02*
X6255777Y-18768865D01*
X6255777Y-18768865D02*
X6265301Y-18749817D01*
X6265301Y-18749817D02*
X6284348Y-18740293D01*
X6284348Y-18740293D02*
X6331967Y-18740293D01*
X6331967Y-18740293D02*
X6351015Y-18730770D01*
X6446253Y-18683150D02*
X6446253Y-18883150D01*
X6446253Y-18692674D02*
X6465301Y-18683150D01*
X6465301Y-18683150D02*
X6503396Y-18683150D01*
X6503396Y-18683150D02*
X6522443Y-18692674D01*
X6522443Y-18692674D02*
X6531967Y-18702198D01*
X6531967Y-18702198D02*
X6541491Y-18721246D01*
X6541491Y-18721246D02*
X6541491Y-18778389D01*
X6541491Y-18778389D02*
X6531967Y-18797436D01*
X6531967Y-18797436D02*
X6522443Y-18806960D01*
X6522443Y-18806960D02*
X6503396Y-18816484D01*
X6503396Y-18816484D02*
X6465301Y-18816484D01*
X6465301Y-18816484D02*
X6446253Y-18806960D01*
X6627205Y-18797436D02*
X6636729Y-18806960D01*
X6636729Y-18806960D02*
X6627205Y-18816484D01*
X6627205Y-18816484D02*
X6617682Y-18806960D01*
X6617682Y-18806960D02*
X6627205Y-18797436D01*
X6627205Y-18797436D02*
X6627205Y-18816484D01*
X6627205Y-18692674D02*
X6636729Y-18702198D01*
X6636729Y-18702198D02*
X6627205Y-18711722D01*
X6627205Y-18711722D02*
X6617682Y-18702198D01*
X6617682Y-18702198D02*
X6627205Y-18692674D01*
X6627205Y-18692674D02*
X6627205Y-18711722D01*
X4795000Y-19045000D02*
X4995000Y-19245000D01*
X4995000Y-19045000D02*
X4795000Y-19245000D01*
X5236729Y-19036484D02*
X5360539Y-19036484D01*
X5360539Y-19036484D02*
X5293872Y-19112674D01*
X5293872Y-19112674D02*
X5322444Y-19112674D01*
X5322444Y-19112674D02*
X5341491Y-19122198D01*
X5341491Y-19122198D02*
X5351015Y-19131722D01*
X5351015Y-19131722D02*
X5360539Y-19150770D01*
X5360539Y-19150770D02*
X5360539Y-19198389D01*
X5360539Y-19198389D02*
X5351015Y-19217436D01*
X5351015Y-19217436D02*
X5341491Y-19226960D01*
X5341491Y-19226960D02*
X5322444Y-19236484D01*
X5322444Y-19236484D02*
X5265301Y-19236484D01*
X5265301Y-19236484D02*
X5246253Y-19226960D01*
X5246253Y-19226960D02*
X5236729Y-19217436D01*
X5446253Y-19217436D02*
X5455777Y-19226960D01*
X5455777Y-19226960D02*
X5446253Y-19236484D01*
X5446253Y-19236484D02*
X5436729Y-19226960D01*
X5436729Y-19226960D02*
X5446253Y-19217436D01*
X5446253Y-19217436D02*
X5446253Y-19236484D01*
X5579586Y-19036484D02*
X5598634Y-19036484D01*
X5598634Y-19036484D02*
X5617682Y-19046008D01*
X5617682Y-19046008D02*
X5627205Y-19055531D01*
X5627205Y-19055531D02*
X5636729Y-19074579D01*
X5636729Y-19074579D02*
X5646253Y-19112674D01*
X5646253Y-19112674D02*
X5646253Y-19160293D01*
X5646253Y-19160293D02*
X5636729Y-19198389D01*
X5636729Y-19198389D02*
X5627205Y-19217436D01*
X5627205Y-19217436D02*
X5617682Y-19226960D01*
X5617682Y-19226960D02*
X5598634Y-19236484D01*
X5598634Y-19236484D02*
X5579586Y-19236484D01*
X5579586Y-19236484D02*
X5560539Y-19226960D01*
X5560539Y-19226960D02*
X5551015Y-19217436D01*
X5551015Y-19217436D02*
X5541491Y-19198389D01*
X5541491Y-19198389D02*
X5531967Y-19160293D01*
X5531967Y-19160293D02*
X5531967Y-19112674D01*
X5531967Y-19112674D02*
X5541491Y-19074579D01*
X5541491Y-19074579D02*
X5551015Y-19055531D01*
X5551015Y-19055531D02*
X5560539Y-19046008D01*
X5560539Y-19046008D02*
X5579586Y-19036484D01*
X5770062Y-19036484D02*
X5789110Y-19036484D01*
X5789110Y-19036484D02*
X5808158Y-19046008D01*
X5808158Y-19046008D02*
X5817682Y-19055531D01*
X5817682Y-19055531D02*
X5827205Y-19074579D01*
X5827205Y-19074579D02*
X5836729Y-19112674D01*
X5836729Y-19112674D02*
X5836729Y-19160293D01*
X5836729Y-19160293D02*
X5827205Y-19198389D01*
X5827205Y-19198389D02*
X5817682Y-19217436D01*
X5817682Y-19217436D02*
X5808158Y-19226960D01*
X5808158Y-19226960D02*
X5789110Y-19236484D01*
X5789110Y-19236484D02*
X5770062Y-19236484D01*
X5770062Y-19236484D02*
X5751015Y-19226960D01*
X5751015Y-19226960D02*
X5741491Y-19217436D01*
X5741491Y-19217436D02*
X5731967Y-19198389D01*
X5731967Y-19198389D02*
X5722443Y-19160293D01*
X5722443Y-19160293D02*
X5722443Y-19112674D01*
X5722443Y-19112674D02*
X5731967Y-19074579D01*
X5731967Y-19074579D02*
X5741491Y-19055531D01*
X5741491Y-19055531D02*
X5751015Y-19046008D01*
X5751015Y-19046008D02*
X5770062Y-19036484D01*
X5960539Y-19036484D02*
X5979586Y-19036484D01*
X5979586Y-19036484D02*
X5998634Y-19046008D01*
X5998634Y-19046008D02*
X6008158Y-19055531D01*
X6008158Y-19055531D02*
X6017682Y-19074579D01*
X6017682Y-19074579D02*
X6027205Y-19112674D01*
X6027205Y-19112674D02*
X6027205Y-19160293D01*
X6027205Y-19160293D02*
X6017682Y-19198389D01*
X6017682Y-19198389D02*
X6008158Y-19217436D01*
X6008158Y-19217436D02*
X5998634Y-19226960D01*
X5998634Y-19226960D02*
X5979586Y-19236484D01*
X5979586Y-19236484D02*
X5960539Y-19236484D01*
X5960539Y-19236484D02*
X5941491Y-19226960D01*
X5941491Y-19226960D02*
X5931967Y-19217436D01*
X5931967Y-19217436D02*
X5922443Y-19198389D01*
X5922443Y-19198389D02*
X5912920Y-19160293D01*
X5912920Y-19160293D02*
X5912920Y-19112674D01*
X5912920Y-19112674D02*
X5922443Y-19074579D01*
X5922443Y-19074579D02*
X5931967Y-19055531D01*
X5931967Y-19055531D02*
X5941491Y-19046008D01*
X5941491Y-19046008D02*
X5960539Y-19036484D01*
X6112920Y-19236484D02*
X6112920Y-19103150D01*
X6112920Y-19122198D02*
X6122443Y-19112674D01*
X6122443Y-19112674D02*
X6141491Y-19103150D01*
X6141491Y-19103150D02*
X6170063Y-19103150D01*
X6170063Y-19103150D02*
X6189110Y-19112674D01*
X6189110Y-19112674D02*
X6198634Y-19131722D01*
X6198634Y-19131722D02*
X6198634Y-19236484D01*
X6198634Y-19131722D02*
X6208158Y-19112674D01*
X6208158Y-19112674D02*
X6227205Y-19103150D01*
X6227205Y-19103150D02*
X6255777Y-19103150D01*
X6255777Y-19103150D02*
X6274824Y-19112674D01*
X6274824Y-19112674D02*
X6284348Y-19131722D01*
X6284348Y-19131722D02*
X6284348Y-19236484D01*
X6379586Y-19236484D02*
X6379586Y-19103150D01*
X6379586Y-19122198D02*
X6389110Y-19112674D01*
X6389110Y-19112674D02*
X6408158Y-19103150D01*
X6408158Y-19103150D02*
X6436729Y-19103150D01*
X6436729Y-19103150D02*
X6455777Y-19112674D01*
X6455777Y-19112674D02*
X6465301Y-19131722D01*
X6465301Y-19131722D02*
X6465301Y-19236484D01*
X6465301Y-19131722D02*
X6474824Y-19112674D01*
X6474824Y-19112674D02*
X6493872Y-19103150D01*
X6493872Y-19103150D02*
X6522443Y-19103150D01*
X6522443Y-19103150D02*
X6541491Y-19112674D01*
X6541491Y-19112674D02*
X6551015Y-19131722D01*
X6551015Y-19131722D02*
X6551015Y-19236484D01*
X6941491Y-19026960D02*
X6770063Y-19284103D01*
X7198634Y-19036484D02*
X7217682Y-19036484D01*
X7217682Y-19036484D02*
X7236729Y-19046008D01*
X7236729Y-19046008D02*
X7246253Y-19055531D01*
X7246253Y-19055531D02*
X7255777Y-19074579D01*
X7255777Y-19074579D02*
X7265301Y-19112674D01*
X7265301Y-19112674D02*
X7265301Y-19160293D01*
X7265301Y-19160293D02*
X7255777Y-19198389D01*
X7255777Y-19198389D02*
X7246253Y-19217436D01*
X7246253Y-19217436D02*
X7236729Y-19226960D01*
X7236729Y-19226960D02*
X7217682Y-19236484D01*
X7217682Y-19236484D02*
X7198634Y-19236484D01*
X7198634Y-19236484D02*
X7179586Y-19226960D01*
X7179586Y-19226960D02*
X7170063Y-19217436D01*
X7170063Y-19217436D02*
X7160539Y-19198389D01*
X7160539Y-19198389D02*
X7151015Y-19160293D01*
X7151015Y-19160293D02*
X7151015Y-19112674D01*
X7151015Y-19112674D02*
X7160539Y-19074579D01*
X7160539Y-19074579D02*
X7170063Y-19055531D01*
X7170063Y-19055531D02*
X7179586Y-19046008D01*
X7179586Y-19046008D02*
X7198634Y-19036484D01*
X7351015Y-19217436D02*
X7360539Y-19226960D01*
X7360539Y-19226960D02*
X7351015Y-19236484D01*
X7351015Y-19236484D02*
X7341491Y-19226960D01*
X7341491Y-19226960D02*
X7351015Y-19217436D01*
X7351015Y-19217436D02*
X7351015Y-19236484D01*
X7551015Y-19236484D02*
X7436729Y-19236484D01*
X7493872Y-19236484D02*
X7493872Y-19036484D01*
X7493872Y-19036484D02*
X7474825Y-19065055D01*
X7474825Y-19065055D02*
X7455777Y-19084103D01*
X7455777Y-19084103D02*
X7436729Y-19093627D01*
X7741491Y-19236484D02*
X7627206Y-19236484D01*
X7684348Y-19236484D02*
X7684348Y-19036484D01*
X7684348Y-19036484D02*
X7665301Y-19065055D01*
X7665301Y-19065055D02*
X7646253Y-19084103D01*
X7646253Y-19084103D02*
X7627206Y-19093627D01*
X7855777Y-19122198D02*
X7836729Y-19112674D01*
X7836729Y-19112674D02*
X7827206Y-19103150D01*
X7827206Y-19103150D02*
X7817682Y-19084103D01*
X7817682Y-19084103D02*
X7817682Y-19074579D01*
X7817682Y-19074579D02*
X7827206Y-19055531D01*
X7827206Y-19055531D02*
X7836729Y-19046008D01*
X7836729Y-19046008D02*
X7855777Y-19036484D01*
X7855777Y-19036484D02*
X7893872Y-19036484D01*
X7893872Y-19036484D02*
X7912920Y-19046008D01*
X7912920Y-19046008D02*
X7922444Y-19055531D01*
X7922444Y-19055531D02*
X7931967Y-19074579D01*
X7931967Y-19074579D02*
X7931967Y-19084103D01*
X7931967Y-19084103D02*
X7922444Y-19103150D01*
X7922444Y-19103150D02*
X7912920Y-19112674D01*
X7912920Y-19112674D02*
X7893872Y-19122198D01*
X7893872Y-19122198D02*
X7855777Y-19122198D01*
X7855777Y-19122198D02*
X7836729Y-19131722D01*
X7836729Y-19131722D02*
X7827206Y-19141246D01*
X7827206Y-19141246D02*
X7817682Y-19160293D01*
X7817682Y-19160293D02*
X7817682Y-19198389D01*
X7817682Y-19198389D02*
X7827206Y-19217436D01*
X7827206Y-19217436D02*
X7836729Y-19226960D01*
X7836729Y-19226960D02*
X7855777Y-19236484D01*
X7855777Y-19236484D02*
X7893872Y-19236484D01*
X7893872Y-19236484D02*
X7912920Y-19226960D01*
X7912920Y-19226960D02*
X7922444Y-19217436D01*
X7922444Y-19217436D02*
X7931967Y-19198389D01*
X7931967Y-19198389D02*
X7931967Y-19160293D01*
X7931967Y-19160293D02*
X7922444Y-19141246D01*
X7922444Y-19141246D02*
X7912920Y-19131722D01*
X7912920Y-19131722D02*
X7893872Y-19122198D01*
X8122444Y-19236484D02*
X8008158Y-19236484D01*
X8065301Y-19236484D02*
X8065301Y-19036484D01*
X8065301Y-19036484D02*
X8046253Y-19065055D01*
X8046253Y-19065055D02*
X8027206Y-19084103D01*
X8027206Y-19084103D02*
X8008158Y-19093627D01*
X8198634Y-19036484D02*
X8198634Y-19074579D01*
X8274825Y-19036484D02*
X8274825Y-19074579D01*
X8570063Y-19312674D02*
X8560539Y-19303150D01*
X8560539Y-19303150D02*
X8541491Y-19274579D01*
X8541491Y-19274579D02*
X8531968Y-19255531D01*
X8531968Y-19255531D02*
X8522444Y-19226960D01*
X8522444Y-19226960D02*
X8512920Y-19179341D01*
X8512920Y-19179341D02*
X8512920Y-19141246D01*
X8512920Y-19141246D02*
X8522444Y-19093627D01*
X8522444Y-19093627D02*
X8531968Y-19065055D01*
X8531968Y-19065055D02*
X8541491Y-19046008D01*
X8541491Y-19046008D02*
X8560539Y-19017436D01*
X8560539Y-19017436D02*
X8570063Y-19007912D01*
X8731968Y-19103150D02*
X8731968Y-19236484D01*
X8684349Y-19026960D02*
X8636730Y-19169817D01*
X8636730Y-19169817D02*
X8760539Y-19169817D01*
X8989111Y-19236484D02*
X8989111Y-19036484D01*
X9074825Y-19236484D02*
X9074825Y-19131722D01*
X9074825Y-19131722D02*
X9065301Y-19112674D01*
X9065301Y-19112674D02*
X9046253Y-19103150D01*
X9046253Y-19103150D02*
X9017682Y-19103150D01*
X9017682Y-19103150D02*
X8998634Y-19112674D01*
X8998634Y-19112674D02*
X8989111Y-19122198D01*
X9198634Y-19236484D02*
X9179587Y-19226960D01*
X9179587Y-19226960D02*
X9170063Y-19217436D01*
X9170063Y-19217436D02*
X9160539Y-19198389D01*
X9160539Y-19198389D02*
X9160539Y-19141246D01*
X9160539Y-19141246D02*
X9170063Y-19122198D01*
X9170063Y-19122198D02*
X9179587Y-19112674D01*
X9179587Y-19112674D02*
X9198634Y-19103150D01*
X9198634Y-19103150D02*
X9227206Y-19103150D01*
X9227206Y-19103150D02*
X9246253Y-19112674D01*
X9246253Y-19112674D02*
X9255777Y-19122198D01*
X9255777Y-19122198D02*
X9265301Y-19141246D01*
X9265301Y-19141246D02*
X9265301Y-19198389D01*
X9265301Y-19198389D02*
X9255777Y-19217436D01*
X9255777Y-19217436D02*
X9246253Y-19226960D01*
X9246253Y-19226960D02*
X9227206Y-19236484D01*
X9227206Y-19236484D02*
X9198634Y-19236484D01*
X9379587Y-19236484D02*
X9360539Y-19226960D01*
X9360539Y-19226960D02*
X9351015Y-19207912D01*
X9351015Y-19207912D02*
X9351015Y-19036484D01*
X9531968Y-19226960D02*
X9512920Y-19236484D01*
X9512920Y-19236484D02*
X9474825Y-19236484D01*
X9474825Y-19236484D02*
X9455777Y-19226960D01*
X9455777Y-19226960D02*
X9446253Y-19207912D01*
X9446253Y-19207912D02*
X9446253Y-19131722D01*
X9446253Y-19131722D02*
X9455777Y-19112674D01*
X9455777Y-19112674D02*
X9474825Y-19103150D01*
X9474825Y-19103150D02*
X9512920Y-19103150D01*
X9512920Y-19103150D02*
X9531968Y-19112674D01*
X9531968Y-19112674D02*
X9541492Y-19131722D01*
X9541492Y-19131722D02*
X9541492Y-19150770D01*
X9541492Y-19150770D02*
X9446253Y-19169817D01*
X9617682Y-19226960D02*
X9636730Y-19236484D01*
X9636730Y-19236484D02*
X9674825Y-19236484D01*
X9674825Y-19236484D02*
X9693873Y-19226960D01*
X9693873Y-19226960D02*
X9703396Y-19207912D01*
X9703396Y-19207912D02*
X9703396Y-19198389D01*
X9703396Y-19198389D02*
X9693873Y-19179341D01*
X9693873Y-19179341D02*
X9674825Y-19169817D01*
X9674825Y-19169817D02*
X9646253Y-19169817D01*
X9646253Y-19169817D02*
X9627206Y-19160293D01*
X9627206Y-19160293D02*
X9617682Y-19141246D01*
X9617682Y-19141246D02*
X9617682Y-19131722D01*
X9617682Y-19131722D02*
X9627206Y-19112674D01*
X9627206Y-19112674D02*
X9646253Y-19103150D01*
X9646253Y-19103150D02*
X9674825Y-19103150D01*
X9674825Y-19103150D02*
X9693873Y-19112674D01*
X9770063Y-19312674D02*
X9779587Y-19303150D01*
X9779587Y-19303150D02*
X9798634Y-19274579D01*
X9798634Y-19274579D02*
X9808158Y-19255531D01*
X9808158Y-19255531D02*
X9817682Y-19226960D01*
X9817682Y-19226960D02*
X9827206Y-19179341D01*
X9827206Y-19179341D02*
X9827206Y-19141246D01*
X9827206Y-19141246D02*
X9817682Y-19093627D01*
X9817682Y-19093627D02*
X9808158Y-19065055D01*
X9808158Y-19065055D02*
X9798634Y-19046008D01*
X9798634Y-19046008D02*
X9779587Y-19017436D01*
X9779587Y-19017436D02*
X9770063Y-19007912D01*
X10131968Y-19312674D02*
X10122444Y-19303150D01*
X10122444Y-19303150D02*
X10103396Y-19274579D01*
X10103396Y-19274579D02*
X10093873Y-19255531D01*
X10093873Y-19255531D02*
X10084349Y-19226960D01*
X10084349Y-19226960D02*
X10074825Y-19179341D01*
X10074825Y-19179341D02*
X10074825Y-19141246D01*
X10074825Y-19141246D02*
X10084349Y-19093627D01*
X10084349Y-19093627D02*
X10093873Y-19065055D01*
X10093873Y-19065055D02*
X10103396Y-19046008D01*
X10103396Y-19046008D02*
X10122444Y-19017436D01*
X10122444Y-19017436D02*
X10131968Y-19007912D01*
X10208158Y-19103150D02*
X10208158Y-19236484D01*
X10208158Y-19122198D02*
X10217682Y-19112674D01*
X10217682Y-19112674D02*
X10236730Y-19103150D01*
X10236730Y-19103150D02*
X10265301Y-19103150D01*
X10265301Y-19103150D02*
X10284349Y-19112674D01*
X10284349Y-19112674D02*
X10293873Y-19131722D01*
X10293873Y-19131722D02*
X10293873Y-19236484D01*
X10417682Y-19236484D02*
X10398634Y-19226960D01*
X10398634Y-19226960D02*
X10389111Y-19217436D01*
X10389111Y-19217436D02*
X10379587Y-19198389D01*
X10379587Y-19198389D02*
X10379587Y-19141246D01*
X10379587Y-19141246D02*
X10389111Y-19122198D01*
X10389111Y-19122198D02*
X10398634Y-19112674D01*
X10398634Y-19112674D02*
X10417682Y-19103150D01*
X10417682Y-19103150D02*
X10446254Y-19103150D01*
X10446254Y-19103150D02*
X10465301Y-19112674D01*
X10465301Y-19112674D02*
X10474825Y-19122198D01*
X10474825Y-19122198D02*
X10484349Y-19141246D01*
X10484349Y-19141246D02*
X10484349Y-19198389D01*
X10484349Y-19198389D02*
X10474825Y-19217436D01*
X10474825Y-19217436D02*
X10465301Y-19226960D01*
X10465301Y-19226960D02*
X10446254Y-19236484D01*
X10446254Y-19236484D02*
X10417682Y-19236484D01*
X10541492Y-19103150D02*
X10617682Y-19103150D01*
X10570063Y-19036484D02*
X10570063Y-19207912D01*
X10570063Y-19207912D02*
X10579587Y-19226960D01*
X10579587Y-19226960D02*
X10598634Y-19236484D01*
X10598634Y-19236484D02*
X10617682Y-19236484D01*
X10836730Y-19103150D02*
X10836730Y-19303150D01*
X10836730Y-19112674D02*
X10855777Y-19103150D01*
X10855777Y-19103150D02*
X10893873Y-19103150D01*
X10893873Y-19103150D02*
X10912920Y-19112674D01*
X10912920Y-19112674D02*
X10922444Y-19122198D01*
X10922444Y-19122198D02*
X10931968Y-19141246D01*
X10931968Y-19141246D02*
X10931968Y-19198389D01*
X10931968Y-19198389D02*
X10922444Y-19217436D01*
X10922444Y-19217436D02*
X10912920Y-19226960D01*
X10912920Y-19226960D02*
X10893873Y-19236484D01*
X10893873Y-19236484D02*
X10855777Y-19236484D01*
X10855777Y-19236484D02*
X10836730Y-19226960D01*
X11046254Y-19236484D02*
X11027206Y-19226960D01*
X11027206Y-19226960D02*
X11017682Y-19207912D01*
X11017682Y-19207912D02*
X11017682Y-19036484D01*
X11208158Y-19236484D02*
X11208158Y-19131722D01*
X11208158Y-19131722D02*
X11198634Y-19112674D01*
X11198634Y-19112674D02*
X11179587Y-19103150D01*
X11179587Y-19103150D02*
X11141492Y-19103150D01*
X11141492Y-19103150D02*
X11122444Y-19112674D01*
X11208158Y-19226960D02*
X11189111Y-19236484D01*
X11189111Y-19236484D02*
X11141492Y-19236484D01*
X11141492Y-19236484D02*
X11122444Y-19226960D01*
X11122444Y-19226960D02*
X11112920Y-19207912D01*
X11112920Y-19207912D02*
X11112920Y-19188865D01*
X11112920Y-19188865D02*
X11122444Y-19169817D01*
X11122444Y-19169817D02*
X11141492Y-19160293D01*
X11141492Y-19160293D02*
X11189111Y-19160293D01*
X11189111Y-19160293D02*
X11208158Y-19150770D01*
X11274825Y-19103150D02*
X11351015Y-19103150D01*
X11303396Y-19036484D02*
X11303396Y-19207912D01*
X11303396Y-19207912D02*
X11312920Y-19226960D01*
X11312920Y-19226960D02*
X11331968Y-19236484D01*
X11331968Y-19236484D02*
X11351015Y-19236484D01*
X11493873Y-19226960D02*
X11474825Y-19236484D01*
X11474825Y-19236484D02*
X11436730Y-19236484D01*
X11436730Y-19236484D02*
X11417682Y-19226960D01*
X11417682Y-19226960D02*
X11408158Y-19207912D01*
X11408158Y-19207912D02*
X11408158Y-19131722D01*
X11408158Y-19131722D02*
X11417682Y-19112674D01*
X11417682Y-19112674D02*
X11436730Y-19103150D01*
X11436730Y-19103150D02*
X11474825Y-19103150D01*
X11474825Y-19103150D02*
X11493873Y-19112674D01*
X11493873Y-19112674D02*
X11503396Y-19131722D01*
X11503396Y-19131722D02*
X11503396Y-19150770D01*
X11503396Y-19150770D02*
X11408158Y-19169817D01*
X11674825Y-19236484D02*
X11674825Y-19036484D01*
X11674825Y-19226960D02*
X11655777Y-19236484D01*
X11655777Y-19236484D02*
X11617682Y-19236484D01*
X11617682Y-19236484D02*
X11598634Y-19226960D01*
X11598634Y-19226960D02*
X11589111Y-19217436D01*
X11589111Y-19217436D02*
X11579587Y-19198389D01*
X11579587Y-19198389D02*
X11579587Y-19141246D01*
X11579587Y-19141246D02*
X11589111Y-19122198D01*
X11589111Y-19122198D02*
X11598634Y-19112674D01*
X11598634Y-19112674D02*
X11617682Y-19103150D01*
X11617682Y-19103150D02*
X11655777Y-19103150D01*
X11655777Y-19103150D02*
X11674825Y-19112674D01*
X11751015Y-19312674D02*
X11760539Y-19303150D01*
X11760539Y-19303150D02*
X11779587Y-19274579D01*
X11779587Y-19274579D02*
X11789111Y-19255531D01*
X11789111Y-19255531D02*
X11798634Y-19226960D01*
X11798634Y-19226960D02*
X11808158Y-19179341D01*
X11808158Y-19179341D02*
X11808158Y-19141246D01*
X11808158Y-19141246D02*
X11798634Y-19093627D01*
X11798634Y-19093627D02*
X11789111Y-19065055D01*
X11789111Y-19065055D02*
X11779587Y-19046008D01*
X11779587Y-19046008D02*
X11760539Y-19017436D01*
X11760539Y-19017436D02*
X11751015Y-19007912D01*
M02*
