M48
; DRILL file {KiCad 7.0.8} date Fri Feb  9 14:55:38 2024
; FORMAT={-:-/ absolute / inch / decimal}
; #@! TF.CreationDate,2024-02-09T14:55:38+01:00
; #@! TF.GenerationSoftware,Kicad,Pcbnew,7.0.8
; #@! TF.FileFunction,Plated,1,2,PTH
FMAT,2
INCH
; #@! TA.AperFunction,Plated,PTH,ViaDrill
T1C0.0157
; #@! TA.AperFunction,Plated,PTH,ComponentDrill
T2C0.0217
; #@! TA.AperFunction,Plated,PTH,ComponentDrill
T3C0.0236
; #@! TA.AperFunction,Plated,PTH,ComponentDrill
T4C0.0315
; #@! TA.AperFunction,Plated,PTH,ComponentDrill
T5C0.0354
; #@! TA.AperFunction,Plated,PTH,ComponentDrill
T6C0.0374
; #@! TA.AperFunction,Plated,PTH,ComponentDrill
T7C0.0394
; #@! TA.AperFunction,Plated,PTH,ComponentDrill
T8C0.0394
; #@! TA.AperFunction,Plated,PTH,ComponentDrill
T9C0.0409
; #@! TA.AperFunction,Plated,PTH,ComponentDrill
T10C0.0433
; #@! TA.AperFunction,Plated,PTH,ComponentDrill
T11C0.0728
; #@! TA.AperFunction,Plated,PTH,ComponentDrill
T12C0.0866
; #@! TA.AperFunction,Plated,PTH,ComponentDrill
T13C0.1260
%
G90
G05
T1
X2.253Y-4.2697
X2.3474Y-4.1762
X2.4183Y-6.2982
X3.3415Y-2.0571
X3.3415Y-6.2224
X3.437Y-2.0571
X3.4902Y-6.2589
T3
X3.4537Y-6.6776
X3.4537Y-6.7563
X3.5541Y-5.8774
X3.5541Y-5.9561
X4.5276Y-6.9035
X4.5276Y-6.9823
T4
X2.0768Y-2.0386
X2.0768Y-2.6386
X2.2264Y-2.0386
X2.2264Y-2.6386
X2.7677Y-2.9846
X2.7677Y-3.5846
X2.7677Y-4.0411
X2.7677Y-4.6411
X2.8866Y-2.773
X2.8906Y-3.8278
X2.8984Y-5.0098
X2.9014Y-6.0866
X2.9173Y-2.9846
X2.9173Y-3.5846
X2.9173Y-4.0415
X2.9173Y-4.6415
X2.9232Y-6.2925
X2.9232Y-6.8925
X2.9242Y-5.2226
X2.9242Y-5.8226
X2.9866Y-2.773
X2.9906Y-3.8278
X2.9984Y-5.0098
X3.0014Y-6.0866
X3.0669Y-2.9846
X3.0669Y-3.5846
X3.0689Y-4.0415
X3.0689Y-4.6415
X3.0738Y-5.2226
X3.0738Y-5.8226
X3.0807Y-6.2925
X3.0807Y-6.8925
X3.0866Y-2.773
X3.0906Y-3.8278
X3.0984Y-5.0098
X3.1014Y-6.0866
X3.4341Y-4.4106
X3.4341Y-5.0106
X3.4541Y-6.1677
X3.4541Y-6.4677
X3.4695Y-5.1002
X3.4695Y-5.2002
X3.4695Y-5.3002
X3.5541Y-6.1677
X3.5541Y-6.4677
X3.5856Y-4.4106
X3.5856Y-5.0106
X3.6535Y-6.5787
X3.6535Y-6.9724
X3.6541Y-6.1677
X3.6541Y-6.4677
X3.7372Y-4.4106
X3.7372Y-5.0106
X3.752Y-5.0978
X3.752Y-5.1978
X3.752Y-5.2978
X3.7531Y-5.6604
X3.7531Y-6.0541
X3.7541Y-6.1677
X3.7541Y-6.4677
X3.8541Y-6.1677
X3.8541Y-6.4677
X3.8888Y-4.4106
X3.8888Y-5.0106
X3.9537Y-6.5787
X3.9537Y-7.1787
X3.9541Y-6.1677
X3.9541Y-6.4677
X4.0394Y-5.0994
X4.0394Y-5.1994
X4.0394Y-5.2994
X4.0404Y-4.4106
X4.0404Y-5.0106
X4.0533Y-5.4531
X4.0533Y-6.0531
X4.0541Y-6.1677
X4.0541Y-6.4677
X4.251Y-6.1319
X4.251Y-6.7319
X4.3957Y-6.1321
X4.3957Y-6.7321
X4.4839Y-3.8939
X4.4839Y-4.1939
X4.4839Y-4.4805
X4.4839Y-4.7805
X4.4868Y-5.075
X4.4868Y-5.375
X4.5413Y-6.1319
X4.5413Y-6.7319
X4.5839Y-3.8939
X4.5839Y-4.1939
X4.5839Y-4.4805
X4.5839Y-4.7805
X4.5868Y-5.075
X4.5868Y-5.375
X4.6839Y-3.8939
X4.6839Y-4.1939
X4.6839Y-4.4805
X4.6839Y-4.7805
X4.6868Y-5.075
X4.6868Y-5.375
X4.7839Y-3.8939
X4.7839Y-4.1939
X4.7839Y-4.4805
X4.7839Y-4.7805
X4.7868Y-5.075
X4.7868Y-5.375
X4.7972Y-6.1331
X4.7972Y-6.7331
X4.8839Y-3.8939
X4.8839Y-4.1939
X4.8839Y-4.4805
X4.8839Y-4.7805
X4.8868Y-5.075
X4.8868Y-5.375
X4.9429Y-6.1331
X4.9429Y-6.7331
X4.9839Y-3.8939
X4.9839Y-4.1939
X4.9839Y-4.4805
X4.9839Y-4.7805
X4.9868Y-5.075
X4.9868Y-5.375
X5.0839Y-3.8939
X5.0839Y-4.1939
X5.0839Y-4.4805
X5.0839Y-4.7805
X5.0868Y-5.075
X5.0868Y-5.375
X5.0886Y-6.1331
X5.0886Y-6.7331
T5
X2.2047Y-6.2888
X2.2047Y-6.3888
X2.2047Y-7.0093
X2.2047Y-7.1093
X2.2087Y-2.7425
X2.2087Y-2.8425
X2.2087Y-3.4581
X2.2087Y-3.5581
X2.2087Y-3.9226
X2.2087Y-4.0226
X2.2087Y-4.6431
X2.2087Y-4.7431
X2.2087Y-5.1077
X2.2087Y-5.2077
X2.2087Y-5.8281
X2.2087Y-5.9281
T6
X4.3228Y-5.8081
X4.4213Y-5.8081
X4.5197Y-5.8081
X5.4055Y-7.1201
X5.5039Y-7.1201
X5.6024Y-7.1201
T7
X2.1024Y-6.2894
X2.1024Y-7.0098
X2.3024Y-6.3894
X2.3024Y-7.1098
X2.6024Y-6.2894
X2.6024Y-7.0098
X5.3811Y-2.698
X5.3811Y-2.8071
X5.3811Y-2.9161
X5.3811Y-3.0252
X5.3811Y-3.1343
X5.3811Y-3.2433
X5.3811Y-3.3524
X5.3811Y-3.4614
X5.3811Y-3.5705
X5.3811Y-3.6795
X5.3811Y-3.7886
X5.3811Y-3.8976
X5.3811Y-4.0067
X5.3811Y-5.2433
X5.3811Y-5.3524
X5.3811Y-5.4614
X5.3811Y-5.5705
X5.3811Y-5.6795
X5.3811Y-5.7886
X5.3811Y-5.8976
X5.3811Y-6.0067
X5.3811Y-6.1157
X5.3811Y-6.2248
X5.3811Y-6.3339
X5.3811Y-6.4429
X5.3811Y-6.552
X5.4929Y-2.7526
X5.4929Y-2.8616
X5.4929Y-2.9707
X5.4929Y-3.0797
X5.4929Y-3.1888
X5.4929Y-3.2978
X5.4929Y-3.4069
X5.4929Y-3.5159
X5.4929Y-3.625
X5.4929Y-3.7341
X5.4929Y-3.8431
X5.4929Y-3.9522
X5.4929Y-5.2978
X5.4929Y-5.4069
X5.4929Y-5.5159
X5.4929Y-5.625
X5.4929Y-5.7341
X5.4929Y-5.8431
X5.4929Y-5.9522
X5.4929Y-6.0612
X5.4929Y-6.1703
X5.4929Y-6.2793
X5.4929Y-6.3884
X5.4929Y-6.4974
T8
X2.5512Y-2.4514
X2.6496Y-2.4514
X4.8229Y-2.4528
X4.9213Y-2.4528
T9
X3.2874Y-2.1457
X3.2874Y-2.2457
X3.2874Y-2.3457
X3.2874Y-2.4457
X3.2874Y-2.5457
X3.2874Y-2.6457
X3.2874Y-2.7457
X3.2874Y-2.8457
X3.2874Y-2.9457
X3.2874Y-3.0457
X3.2874Y-3.1457
X3.2874Y-3.2457
X3.2874Y-3.3457
X3.2874Y-3.4457
X3.2874Y-3.5457
X3.2874Y-3.6457
X3.2874Y-3.7457
X3.2874Y-3.8457
X3.2874Y-3.9457
X4.2874Y-2.1457
X4.2874Y-2.2457
X4.2874Y-2.3457
X4.2874Y-2.4457
X4.2874Y-2.5457
X4.2874Y-2.6457
X4.2874Y-2.7457
X4.2874Y-2.8457
X4.2874Y-2.9457
X4.2874Y-3.0457
X4.2874Y-3.1457
X4.2874Y-3.2457
X4.2874Y-3.3457
X4.2874Y-3.4457
X4.2874Y-3.5457
X4.2874Y-3.6457
X4.2874Y-3.7457
X4.2874Y-3.8457
X4.2874Y-3.9457
T10
X4.147Y-7.0878
X4.247Y-7.0878
X4.347Y-7.0878
T11
X2.1732Y-3.0433
X2.1732Y-3.2559
X2.1732Y-4.2244
X2.1732Y-4.437
X2.1732Y-5.4055
X2.1732Y-5.6181
X2.1732Y-6.5866
X2.1732Y-6.7992
T12
X2.4489Y-2.2835
X2.8504Y-2.2835
X4.7206Y-2.2849
X5.1221Y-2.2849
T13
X5.437Y-2.4252
X5.437Y-4.2795
X5.437Y-4.9705
X5.437Y-6.8248
T2
G00X2.3929Y-3.0496
M15
G01X2.3535Y-3.0496
M16
G05
G00X2.3929Y-3.1496
M15
G01X2.3535Y-3.1496
M16
G05
G00X2.3929Y-3.2496
M15
G01X2.3535Y-3.2496
M16
G05
G00X2.3929Y-4.2307
M15
G01X2.3535Y-4.2307
M16
G05
G00X2.3929Y-4.3307
M15
G01X2.3535Y-4.3307
M16
G05
G00X2.3929Y-4.4307
M15
G01X2.3535Y-4.4307
M16
G05
G00X2.3929Y-5.4118
M15
G01X2.3535Y-5.4118
M16
G05
G00X2.3929Y-5.5118
M15
G01X2.3535Y-5.5118
M16
G05
G00X2.3929Y-5.6118
M15
G01X2.3535Y-5.6118
M16
G05
G00X2.3929Y-6.5929
M15
G01X2.3535Y-6.5929
M16
G05
G00X2.3929Y-6.6929
M15
G01X2.3535Y-6.6929
M16
G05
G00X2.3929Y-6.7929
M15
G01X2.3535Y-6.7929
M16
G05
G00X2.4929Y-3.0496
M15
G01X2.4535Y-3.0496
M16
G05
G00X2.4929Y-3.1496
M15
G01X2.4535Y-3.1496
M16
G05
G00X2.4929Y-3.2496
M15
G01X2.4535Y-3.2496
M16
G05
G00X2.4929Y-4.2307
M15
G01X2.4535Y-4.2307
M16
G05
G00X2.4929Y-4.3307
M15
G01X2.4535Y-4.3307
M16
G05
G00X2.4929Y-4.4307
M15
G01X2.4535Y-4.4307
M16
G05
G00X2.4929Y-5.4118
M15
G01X2.4535Y-5.4118
M16
G05
G00X2.4929Y-5.5118
M15
G01X2.4535Y-5.5118
M16
G05
G00X2.4929Y-5.6118
M15
G01X2.4535Y-5.6118
M16
G05
G00X2.4929Y-6.5929
M15
G01X2.4535Y-6.5929
M16
G05
G00X2.4929Y-6.6929
M15
G01X2.4535Y-6.6929
M16
G05
G00X2.4929Y-6.7929
M15
G01X2.4535Y-6.7929
M16
G05
T7
G00X4.938Y-6.876
M15
G01X5.0167Y-6.876
M16
G05
G00X4.938Y-7.1122
M15
G01X5.0167Y-7.1122
M16
G05
G00X5.1624Y-7.0335
M15
G01X5.1624Y-6.9547
M16
G05
T0
M30
