%TF.GenerationSoftware,KiCad,Pcbnew,7.0.8*%
%TF.CreationDate,2024-02-09T14:55:35+01:00*%
%TF.ProjectId,LED-Zappelin-V2-Chrolis,4c45442d-5a61-4707-9065-6c696e2d5632,rev?*%
%TF.SameCoordinates,Original*%
%TF.FileFunction,Soldermask,Bot*%
%TF.FilePolarity,Negative*%
%FSLAX46Y46*%
G04 Gerber Fmt 4.6, Leading zero omitted, Abs format (unit mm)*
G04 Created by KiCad (PCBNEW 7.0.8) date 2024-02-09 14:55:35*
%MOMM*%
%LPD*%
G01*
G04 APERTURE LIST*
G04 Aperture macros list*
%AMRoundRect*
0 Rectangle with rounded corners*
0 $1 Rounding radius*
0 $2 $3 $4 $5 $6 $7 $8 $9 X,Y pos of 4 corners*
0 Add a 4 corners polygon primitive as box body*
4,1,4,$2,$3,$4,$5,$6,$7,$8,$9,$2,$3,0*
0 Add four circle primitives for the rounded corners*
1,1,$1+$1,$2,$3*
1,1,$1+$1,$4,$5*
1,1,$1+$1,$6,$7*
1,1,$1+$1,$8,$9*
0 Add four rect primitives between the rounded corners*
20,1,$1+$1,$2,$3,$4,$5,0*
20,1,$1+$1,$4,$5,$6,$7,0*
20,1,$1+$1,$6,$7,$8,$9,0*
20,1,$1+$1,$8,$9,$2,$3,0*%
G04 Aperture macros list end*
%ADD10RoundRect,0.250000X-0.600000X-0.725000X0.600000X-0.725000X0.600000X0.725000X-0.600000X0.725000X0*%
%ADD11O,1.700000X1.950000*%
%ADD12C,1.600000*%
%ADD13O,1.600000X1.600000*%
%ADD14C,4.000000*%
%ADD15R,1.600000X1.600000*%
%ADD16R,1.500000X1.500000*%
%ADD17C,1.500000*%
%ADD18O,1.600000X2.400000*%
%ADD19R,1.600000X2.400000*%
%ADD20C,1.850000*%
%ADD21R,1.750000X0.750000*%
%ADD22C,1.800000*%
%ADD23R,1.800000X1.800000*%
%ADD24C,1.200000*%
%ADD25O,1.600200X2.499360*%
%ADD26O,3.500120X7.000240*%
%ADD27C,1.560000*%
%ADD28R,1.560000X1.560000*%
%ADD29RoundRect,0.250000X0.600000X0.725000X-0.600000X0.725000X-0.600000X-0.725000X0.600000X-0.725000X0*%
%ADD30C,3.000000*%
%ADD31R,3.500000X3.500000*%
%ADD32RoundRect,0.750000X1.000000X-0.750000X1.000000X0.750000X-1.000000X0.750000X-1.000000X-0.750000X0*%
%ADD33RoundRect,0.875000X0.875000X-0.875000X0.875000X0.875000X-0.875000X0.875000X-0.875000X-0.875000X0*%
%ADD34R,1.905000X2.000000*%
%ADD35O,1.905000X2.000000*%
G04 APERTURE END LIST*
D10*
%TO.C,J7*%
X137300000Y-180850000D03*
D11*
X139800000Y-180850000D03*
X142300000Y-180850000D03*
%TD*%
D12*
%TO.C,R23*%
X107975000Y-170990000D03*
D13*
X107975000Y-155750000D03*
%TD*%
D12*
%TO.C,R25*%
X121850000Y-171020000D03*
D13*
X121850000Y-155780000D03*
%TD*%
D12*
%TO.C,R24*%
X125550000Y-171020000D03*
D13*
X125550000Y-155780000D03*
%TD*%
D12*
%TO.C,R22*%
X111650000Y-170995000D03*
D13*
X111650000Y-155755000D03*
%TD*%
D12*
%TO.C,R10*%
X129250000Y-171020000D03*
D13*
X129250000Y-155780000D03*
%TD*%
D12*
%TO.C,R9*%
X115350000Y-170990000D03*
D13*
X115350000Y-155750000D03*
%TD*%
%TO.C,R13*%
X102955000Y-153750000D03*
D12*
X102955000Y-138510000D03*
%TD*%
D14*
%TO.C,J3*%
X138100000Y-173350000D03*
X138100000Y-126250000D03*
D15*
X136680000Y-133180000D03*
D12*
X136680000Y-135950000D03*
X136680000Y-138720000D03*
X136680000Y-141490000D03*
X136680000Y-144260000D03*
X136680000Y-147030000D03*
X136680000Y-149800000D03*
X136680000Y-152570000D03*
X136680000Y-155340000D03*
X136680000Y-158110000D03*
X136680000Y-160880000D03*
X136680000Y-163650000D03*
X136680000Y-166420000D03*
X139520000Y-134565000D03*
X139520000Y-137335000D03*
X139520000Y-140105000D03*
X139520000Y-142875000D03*
X139520000Y-145645000D03*
X139520000Y-148415000D03*
X139520000Y-151185000D03*
X139520000Y-153955000D03*
X139520000Y-156725000D03*
X139520000Y-159495000D03*
X139520000Y-162265000D03*
X139520000Y-165035000D03*
%TD*%
D16*
%TO.C,Q2*%
X78400000Y-70435000D03*
D17*
X75860000Y-70435000D03*
X73320000Y-70435000D03*
%TD*%
D16*
%TO.C,Q1*%
X78500000Y-97225000D03*
D17*
X75960000Y-97225000D03*
X73420000Y-97225000D03*
%TD*%
D18*
%TO.C,U7*%
X87735000Y-156660000D03*
X90275000Y-156660000D03*
X92815000Y-156660000D03*
X95355000Y-156660000D03*
X97895000Y-156660000D03*
X100435000Y-156660000D03*
X102975000Y-156660000D03*
X102975000Y-164280000D03*
X100435000Y-164280000D03*
X97895000Y-164280000D03*
X95355000Y-164280000D03*
X92815000Y-164280000D03*
X90275000Y-164280000D03*
D19*
X87735000Y-164280000D03*
%TD*%
D20*
%TO.C,SW4*%
X55200000Y-172700000D03*
X55200000Y-167300000D03*
D21*
X60280000Y-172540000D03*
X60280000Y-170000000D03*
X60280000Y-167460000D03*
X62820000Y-172540000D03*
X62820000Y-170000000D03*
X62820000Y-167460000D03*
%TD*%
D22*
%TO.C,RV2*%
X66100000Y-159750000D03*
X58480000Y-162290000D03*
X53400000Y-159750000D03*
%TD*%
D13*
%TO.C,R21*%
X74250000Y-159830000D03*
D12*
X74250000Y-175070000D03*
%TD*%
%TO.C,R14*%
X78250000Y-175070000D03*
D13*
X78250000Y-159830000D03*
%TD*%
D16*
%TO.C,Q4*%
X78775000Y-154600000D03*
D17*
X76235000Y-154600000D03*
X73695000Y-154600000D03*
%TD*%
D23*
%TO.C,D8*%
X56000000Y-162275000D03*
D22*
X56000000Y-159735000D03*
%TD*%
D23*
%TO.C,D7*%
X56000000Y-180575000D03*
D22*
X56000000Y-178035000D03*
%TD*%
D24*
%TO.C,C5*%
X90275000Y-151285000D03*
X90275000Y-149285000D03*
%TD*%
D12*
%TO.C,C4*%
X95330000Y-153775000D03*
X95330000Y-143775000D03*
%TD*%
D21*
%TO.C,SW2*%
X62820000Y-107460000D03*
X62820000Y-110000000D03*
X62820000Y-112540000D03*
X60280000Y-107460000D03*
X60280000Y-110000000D03*
X60280000Y-112540000D03*
D20*
X55200000Y-107300000D03*
X55200000Y-112700000D03*
%TD*%
D21*
%TO.C,SW1*%
X62820000Y-77460000D03*
X62820000Y-80000000D03*
X62820000Y-82540000D03*
X60280000Y-77460000D03*
X60280000Y-80000000D03*
X60280000Y-82540000D03*
D20*
X55200000Y-77300000D03*
X55200000Y-82700000D03*
%TD*%
D25*
%TO.C,J1*%
X67299680Y-62264660D03*
D26*
X62201900Y-58000000D03*
D25*
X64800320Y-62264660D03*
D26*
X72400000Y-58000000D03*
%TD*%
D12*
%TO.C,C2*%
X92800000Y-167100000D03*
X92800000Y-177100000D03*
%TD*%
D24*
%TO.C,C3*%
X87725000Y-169610000D03*
X87725000Y-171610000D03*
%TD*%
%TO.C,C1*%
X115000000Y-177350000D03*
X115000000Y-175350000D03*
%TD*%
D22*
%TO.C,RV1*%
X66100000Y-178050000D03*
X58480000Y-180590000D03*
X53400000Y-178050000D03*
%TD*%
D20*
%TO.C,SW3*%
X55200000Y-142700000D03*
X55200000Y-137300000D03*
D21*
X60280000Y-142540000D03*
X60280000Y-140000000D03*
X60280000Y-137460000D03*
X62820000Y-142540000D03*
X62820000Y-140000000D03*
X62820000Y-137460000D03*
%TD*%
D12*
%TO.C,R12*%
X78075000Y-147895000D03*
D13*
X78075000Y-132655000D03*
%TD*%
D16*
%TO.C,Q3*%
X78700000Y-127250000D03*
D17*
X76160000Y-127250000D03*
X73620000Y-127250000D03*
%TD*%
D27*
%TO.C,U1*%
X83500000Y-54500000D03*
X83500000Y-57040000D03*
X83500000Y-59580000D03*
X83500000Y-62120000D03*
X83500000Y-64660000D03*
X83500000Y-67200000D03*
X83500000Y-69740000D03*
X83500000Y-72280000D03*
X83500000Y-74820000D03*
X83500000Y-77360000D03*
X83500000Y-79900000D03*
X83500000Y-82440000D03*
X83500000Y-84980000D03*
X83500000Y-87520000D03*
X83500000Y-90060000D03*
X83500000Y-92600000D03*
X83500000Y-95140000D03*
X83500000Y-97680000D03*
X83500000Y-100220000D03*
X108900000Y-54500000D03*
X108900000Y-57040000D03*
X108900000Y-59580000D03*
X108900000Y-62120000D03*
X108900000Y-64660000D03*
X108900000Y-67200000D03*
X108900000Y-69740000D03*
X108900000Y-72280000D03*
X108900000Y-74820000D03*
X108900000Y-77360000D03*
X108900000Y-79900000D03*
X108900000Y-82440000D03*
X108900000Y-84980000D03*
X108900000Y-87520000D03*
X108900000Y-90060000D03*
X108900000Y-92600000D03*
X108900000Y-95140000D03*
X108900000Y-97680000D03*
D28*
X108900000Y-100220000D03*
%TD*%
D23*
%TO.C,D3*%
X56100000Y-120475000D03*
D22*
X56100000Y-117935000D03*
%TD*%
D29*
%TO.C,J5*%
X114800000Y-147525000D03*
D11*
X112300000Y-147525000D03*
X109800000Y-147525000D03*
%TD*%
D30*
%TO.C,H2*%
X125000000Y-69000000D03*
%TD*%
%TO.C,H1*%
X67500000Y-69000000D03*
%TD*%
D12*
%TO.C,R17*%
X94925000Y-127270000D03*
D13*
X94925000Y-112030000D03*
%TD*%
D22*
%TO.C,D6*%
X56100000Y-129735000D03*
D23*
X56100000Y-132275000D03*
%TD*%
D12*
%TO.C,R4*%
X77900000Y-91050000D03*
D13*
X77900000Y-75810000D03*
%TD*%
D16*
%TO.C,Q5*%
X88125000Y-134625000D03*
D17*
X88125000Y-132085000D03*
X88125000Y-129545000D03*
%TD*%
D31*
%TO.C,J6*%
X126425000Y-174650000D03*
D32*
X126425000Y-180650000D03*
D33*
X131125000Y-177650000D03*
%TD*%
D12*
%TO.C,R11*%
X74275000Y-147895000D03*
D13*
X74275000Y-132655000D03*
%TD*%
D23*
%TO.C,D1*%
X56100000Y-72200000D03*
D22*
X56100000Y-69660000D03*
%TD*%
D17*
%TO.C,Q7*%
X102600000Y-129525000D03*
X102600000Y-132065000D03*
D16*
X102600000Y-134605000D03*
%TD*%
D12*
%TO.C,R18*%
X98775000Y-127270000D03*
D13*
X98775000Y-112030000D03*
%TD*%
D12*
%TO.C,R3*%
X74100000Y-75810000D03*
D13*
X74100000Y-91050000D03*
%TD*%
D34*
%TO.C,U5*%
X110415000Y-180030000D03*
D35*
X107875000Y-180030000D03*
X105335000Y-180030000D03*
%TD*%
D30*
%TO.C,H4*%
X125000000Y-150000000D03*
%TD*%
D19*
%TO.C,U2*%
X113965000Y-136525000D03*
D18*
X116505000Y-136525000D03*
X119045000Y-136525000D03*
X121585000Y-136525000D03*
X124125000Y-136525000D03*
X126665000Y-136525000D03*
X129205000Y-136525000D03*
X129205000Y-128905000D03*
X126665000Y-128905000D03*
X124125000Y-128905000D03*
X121585000Y-128905000D03*
X119045000Y-128905000D03*
X116505000Y-128905000D03*
X113965000Y-128905000D03*
%TD*%
D19*
%TO.C,U4*%
X113890000Y-106525000D03*
D18*
X116430000Y-106525000D03*
X118970000Y-106525000D03*
X121510000Y-106525000D03*
X124050000Y-106525000D03*
X126590000Y-106525000D03*
X129130000Y-106525000D03*
X129130000Y-98905000D03*
X126590000Y-98905000D03*
X124050000Y-98905000D03*
X121510000Y-98905000D03*
X118970000Y-98905000D03*
X116430000Y-98905000D03*
X113890000Y-98905000D03*
%TD*%
D12*
%TO.C,R16*%
X91075000Y-127270000D03*
D13*
X91075000Y-112030000D03*
%TD*%
D30*
%TO.C,H3*%
X67500000Y-150000000D03*
%TD*%
D12*
%TO.C,R8*%
X77950000Y-117895000D03*
D13*
X77950000Y-102655000D03*
%TD*%
D19*
%TO.C,U3*%
X113890000Y-121425000D03*
D18*
X116430000Y-121425000D03*
X118970000Y-121425000D03*
X121510000Y-121425000D03*
X124050000Y-121425000D03*
X126590000Y-121425000D03*
X129130000Y-121425000D03*
X129130000Y-113805000D03*
X126590000Y-113805000D03*
X124050000Y-113805000D03*
X121510000Y-113805000D03*
X118970000Y-113805000D03*
X116430000Y-113805000D03*
X113890000Y-113805000D03*
%TD*%
D16*
%TO.C,Q6*%
X95300000Y-134565000D03*
D17*
X95300000Y-132025000D03*
X95300000Y-129485000D03*
%TD*%
D12*
%TO.C,J4*%
X139520000Y-100385000D03*
X139520000Y-97615000D03*
X139520000Y-94845000D03*
X139520000Y-92075000D03*
X139520000Y-89305000D03*
X139520000Y-86535000D03*
X139520000Y-83765000D03*
X139520000Y-80995000D03*
X139520000Y-78225000D03*
X139520000Y-75455000D03*
X139520000Y-72685000D03*
X139520000Y-69915000D03*
X136680000Y-101770000D03*
X136680000Y-99000000D03*
X136680000Y-96230000D03*
X136680000Y-93460000D03*
X136680000Y-90690000D03*
X136680000Y-87920000D03*
X136680000Y-85150000D03*
X136680000Y-82380000D03*
X136680000Y-79610000D03*
X136680000Y-76840000D03*
X136680000Y-74070000D03*
X136680000Y-71300000D03*
D15*
X136680000Y-68530000D03*
D14*
X138100000Y-61600000D03*
X138100000Y-108700000D03*
%TD*%
D12*
%TO.C,R7*%
X74100000Y-117895000D03*
D13*
X74100000Y-102655000D03*
%TD*%
D12*
%TO.C,R5*%
X70300000Y-102645000D03*
D13*
X70300000Y-117885000D03*
%TD*%
D12*
%TO.C,R6*%
X70300000Y-91050000D03*
D13*
X70300000Y-75810000D03*
%TD*%
D12*
%TO.C,R1*%
X52750000Y-67020000D03*
D13*
X52750000Y-51780000D03*
%TD*%
%TO.C,R19*%
X102625000Y-112030000D03*
D12*
X102625000Y-127270000D03*
%TD*%
D25*
%TO.C,J2*%
X125000000Y-62301260D03*
D26*
X119902220Y-58036600D03*
D25*
X122500640Y-62301260D03*
D26*
X130100320Y-58036600D03*
%TD*%
D23*
%TO.C,D2*%
X56100000Y-90375000D03*
D22*
X56100000Y-87835000D03*
%TD*%
D13*
%TO.C,R15*%
X87225000Y-112030000D03*
D12*
X87225000Y-127270000D03*
%TD*%
D13*
%TO.C,R2*%
X56550000Y-51780000D03*
D12*
X56550000Y-67020000D03*
%TD*%
D13*
%TO.C,R20*%
X100425000Y-167100000D03*
D12*
X100425000Y-182340000D03*
%TD*%
D23*
%TO.C,D4*%
X56100000Y-102175000D03*
D22*
X56100000Y-99635000D03*
%TD*%
%TO.C,D5*%
X56100000Y-148035000D03*
D23*
X56100000Y-150575000D03*
%TD*%
M02*
