%TF.GenerationSoftware,KiCad,Pcbnew,7.0.8*%
%TF.CreationDate,2024-02-09T14:55:35+01:00*%
%TF.ProjectId,LED-Zappelin-V2-Chrolis,4c45442d-5a61-4707-9065-6c696e2d5632,rev?*%
%TF.SameCoordinates,Original*%
%TF.FileFunction,Copper,L1,Top*%
%TF.FilePolarity,Positive*%
%FSLAX46Y46*%
G04 Gerber Fmt 4.6, Leading zero omitted, Abs format (unit mm)*
G04 Created by KiCad (PCBNEW 7.0.8) date 2024-02-09 14:55:35*
%MOMM*%
%LPD*%
G01*
G04 APERTURE LIST*
G04 Aperture macros list*
%AMRoundRect*
0 Rectangle with rounded corners*
0 $1 Rounding radius*
0 $2 $3 $4 $5 $6 $7 $8 $9 X,Y pos of 4 corners*
0 Add a 4 corners polygon primitive as box body*
4,1,4,$2,$3,$4,$5,$6,$7,$8,$9,$2,$3,0*
0 Add four circle primitives for the rounded corners*
1,1,$1+$1,$2,$3*
1,1,$1+$1,$4,$5*
1,1,$1+$1,$6,$7*
1,1,$1+$1,$8,$9*
0 Add four rect primitives between the rounded corners*
20,1,$1+$1,$2,$3,$4,$5,0*
20,1,$1+$1,$4,$5,$6,$7,0*
20,1,$1+$1,$6,$7,$8,$9,0*
20,1,$1+$1,$8,$9,$2,$3,0*%
G04 Aperture macros list end*
%TA.AperFunction,ComponentPad*%
%ADD10RoundRect,0.250000X-0.600000X-0.725000X0.600000X-0.725000X0.600000X0.725000X-0.600000X0.725000X0*%
%TD*%
%TA.AperFunction,ComponentPad*%
%ADD11O,1.700000X1.950000*%
%TD*%
%TA.AperFunction,ComponentPad*%
%ADD12C,1.600000*%
%TD*%
%TA.AperFunction,ComponentPad*%
%ADD13O,1.600000X1.600000*%
%TD*%
%TA.AperFunction,ComponentPad*%
%ADD14C,4.000000*%
%TD*%
%TA.AperFunction,ComponentPad*%
%ADD15R,1.600000X1.600000*%
%TD*%
%TA.AperFunction,ComponentPad*%
%ADD16R,1.500000X1.500000*%
%TD*%
%TA.AperFunction,ComponentPad*%
%ADD17C,1.500000*%
%TD*%
%TA.AperFunction,ComponentPad*%
%ADD18O,1.600000X2.400000*%
%TD*%
%TA.AperFunction,ComponentPad*%
%ADD19R,1.600000X2.400000*%
%TD*%
%TA.AperFunction,ComponentPad*%
%ADD20C,1.850000*%
%TD*%
%TA.AperFunction,ComponentPad*%
%ADD21R,1.750000X0.750000*%
%TD*%
%TA.AperFunction,ComponentPad*%
%ADD22C,1.800000*%
%TD*%
%TA.AperFunction,ComponentPad*%
%ADD23R,1.800000X1.800000*%
%TD*%
%TA.AperFunction,ComponentPad*%
%ADD24C,1.200000*%
%TD*%
%TA.AperFunction,ComponentPad*%
%ADD25O,1.600200X2.499360*%
%TD*%
%TA.AperFunction,ComponentPad*%
%ADD26O,3.500120X7.000240*%
%TD*%
%TA.AperFunction,ComponentPad*%
%ADD27C,1.560000*%
%TD*%
%TA.AperFunction,ComponentPad*%
%ADD28R,1.560000X1.560000*%
%TD*%
%TA.AperFunction,ComponentPad*%
%ADD29RoundRect,0.250000X0.600000X0.725000X-0.600000X0.725000X-0.600000X-0.725000X0.600000X-0.725000X0*%
%TD*%
%TA.AperFunction,ComponentPad*%
%ADD30R,3.500000X3.500000*%
%TD*%
%TA.AperFunction,ComponentPad*%
%ADD31RoundRect,0.750000X1.000000X-0.750000X1.000000X0.750000X-1.000000X0.750000X-1.000000X-0.750000X0*%
%TD*%
%TA.AperFunction,ComponentPad*%
%ADD32RoundRect,0.875000X0.875000X-0.875000X0.875000X0.875000X-0.875000X0.875000X-0.875000X-0.875000X0*%
%TD*%
%TA.AperFunction,ComponentPad*%
%ADD33R,1.905000X2.000000*%
%TD*%
%TA.AperFunction,ComponentPad*%
%ADD34O,1.905000X2.000000*%
%TD*%
%TA.AperFunction,ViaPad*%
%ADD35C,0.800000*%
%TD*%
%TA.AperFunction,Conductor*%
%ADD36C,0.250000*%
%TD*%
%TA.AperFunction,Conductor*%
%ADD37C,1.000000*%
%TD*%
G04 APERTURE END LIST*
D10*
%TO.P,J7,1,Pin_1*%
%TO.N,GNDREF*%
X137300000Y-180850000D03*
D11*
%TO.P,J7,2,Pin_2*%
%TO.N,Net-(J7-Pin_2)*%
X139800000Y-180850000D03*
%TO.P,J7,3,Pin_3*%
%TO.N,+12V*%
X142300000Y-180850000D03*
%TD*%
D12*
%TO.P,R23,1*%
%TO.N,Net-(R22-Pad2)*%
X107975000Y-170990000D03*
D13*
%TO.P,R23,2*%
%TO.N,Net-(U5-ADJ)*%
X107975000Y-155750000D03*
%TD*%
D12*
%TO.P,R25,1*%
%TO.N,GNDREF*%
X121850000Y-171020000D03*
D13*
%TO.P,R25,2*%
%TO.N,Net-(R24-Pad1)*%
X121850000Y-155780000D03*
%TD*%
D12*
%TO.P,R24,1*%
%TO.N,Net-(R24-Pad1)*%
X125550000Y-171020000D03*
D13*
%TO.P,R24,2*%
%TO.N,Net-(R10-Pad2)*%
X125550000Y-155780000D03*
%TD*%
D12*
%TO.P,R22,1*%
%TO.N,Net-(R22-Pad1)*%
X111650000Y-170995000D03*
D13*
%TO.P,R22,2*%
%TO.N,Net-(R22-Pad2)*%
X111650000Y-155755000D03*
%TD*%
D12*
%TO.P,R10,1*%
%TO.N,Net-(U5-ADJ)*%
X129250000Y-171020000D03*
D13*
%TO.P,R10,2*%
%TO.N,Net-(R10-Pad2)*%
X129250000Y-155780000D03*
%TD*%
D12*
%TO.P,R9,1*%
%TO.N,5V*%
X115350000Y-170990000D03*
D13*
%TO.P,R9,2*%
%TO.N,Net-(R22-Pad1)*%
X115350000Y-155750000D03*
%TD*%
%TO.P,R13,2*%
%TO.N,Net-(Q5-C)*%
X102955000Y-153750000D03*
D12*
%TO.P,R13,1*%
%TO.N,5V*%
X102955000Y-138510000D03*
%TD*%
D14*
%TO.P,J3,*%
%TO.N,*%
X138100000Y-173350000D03*
X138100000Y-126250000D03*
D15*
%TO.P,J3,1,1*%
%TO.N,GPIO17*%
X136680000Y-133180000D03*
D12*
%TO.P,J3,2,2*%
%TO.N,GPIO16*%
X136680000Y-135950000D03*
%TO.P,J3,3,3*%
%TO.N,GPIO04*%
X136680000Y-138720000D03*
%TO.P,J3,4,4*%
%TO.N,GPIO00*%
X136680000Y-141490000D03*
%TO.P,J3,5,5*%
%TO.N,GPIO02*%
X136680000Y-144260000D03*
%TO.P,J3,6,6*%
%TO.N,GPIO15*%
X136680000Y-147030000D03*
%TO.P,J3,7,7*%
%TO.N,GPIO Input 6*%
X136680000Y-149800000D03*
%TO.P,J3,8,8*%
%TO.N,GPIO Input 5*%
X136680000Y-152570000D03*
%TO.P,J3,9,9*%
%TO.N,GPIO Input 4*%
X136680000Y-155340000D03*
%TO.P,J3,10,10*%
%TO.N,GPIO Input 3*%
X136680000Y-158110000D03*
%TO.P,J3,11,11*%
%TO.N,GPIO Input 2*%
X136680000Y-160880000D03*
%TO.P,J3,12,12*%
%TO.N,GPIO Input 1*%
X136680000Y-163650000D03*
%TO.P,J3,13,13*%
%TO.N,GNDREF*%
X136680000Y-166420000D03*
%TO.P,J3,14,P14*%
X139520000Y-134565000D03*
%TO.P,J3,15,P15*%
X139520000Y-137335000D03*
%TO.P,J3,16,P16*%
X139520000Y-140105000D03*
%TO.P,J3,17,P17*%
X139520000Y-142875000D03*
%TO.P,J3,18,P18*%
X139520000Y-145645000D03*
%TO.P,J3,19,P19*%
X139520000Y-148415000D03*
%TO.P,J3,20,P20*%
X139520000Y-151185000D03*
%TO.P,J3,21,P21*%
X139520000Y-153955000D03*
%TO.P,J3,22,P22*%
X139520000Y-156725000D03*
%TO.P,J3,23,P23*%
X139520000Y-159495000D03*
%TO.P,J3,24,P24*%
X139520000Y-162265000D03*
%TO.P,J3,25,P25*%
X139520000Y-165035000D03*
%TD*%
D16*
%TO.P,Q2,1,E*%
%TO.N,Net-(Q2-E)*%
X78400000Y-70435000D03*
D17*
%TO.P,Q2,2,B*%
%TO.N,Net-(Q2-B)*%
X75860000Y-70435000D03*
%TO.P,Q2,3,C*%
%TO.N,5V*%
X73320000Y-70435000D03*
%TD*%
D16*
%TO.P,Q1,1,E*%
%TO.N,GNDREF*%
X78500000Y-97225000D03*
D17*
%TO.P,Q1,2,B*%
%TO.N,Net-(Q1-B)*%
X75960000Y-97225000D03*
%TO.P,Q1,3,C*%
%TO.N,Blanking*%
X73420000Y-97225000D03*
%TD*%
D18*
%TO.P,U7,14,VCC*%
%TO.N,5V*%
X87735000Y-156660000D03*
%TO.P,U7,13,DIS*%
%TO.N,Net-(U7B-DIS)*%
X90275000Y-156660000D03*
%TO.P,U7,12,THR*%
X92815000Y-156660000D03*
%TO.P,U7,11,CV*%
%TO.N,Net-(U7B-CV)*%
X95355000Y-156660000D03*
%TO.P,U7,10,R*%
%TO.N,5V*%
X97895000Y-156660000D03*
%TO.P,U7,9,Q*%
%TO.N,BlankingModulated_1ms*%
X100435000Y-156660000D03*
%TO.P,U7,8,TR*%
%TO.N,Net-(Q5-C)*%
X102975000Y-156660000D03*
%TO.P,U7,7,GND*%
%TO.N,GNDREF*%
X102975000Y-164280000D03*
%TO.P,U7,6,TR*%
%TO.N,Net-(Q5-C)*%
X100435000Y-164280000D03*
%TO.P,U7,5,Q*%
%TO.N,BlankingModulated_2ms*%
X97895000Y-164280000D03*
%TO.P,U7,4,R*%
%TO.N,5V*%
X95355000Y-164280000D03*
%TO.P,U7,3,CV*%
%TO.N,Net-(U7A-CV)*%
X92815000Y-164280000D03*
%TO.P,U7,2,THR*%
%TO.N,Net-(U7A-DIS)*%
X90275000Y-164280000D03*
D19*
%TO.P,U7,1,DIS*%
X87735000Y-164280000D03*
%TD*%
D20*
%TO.P,SW4,*%
%TO.N,*%
X55200000Y-172700000D03*
X55200000Y-167300000D03*
D21*
%TO.P,SW4,6,C*%
%TO.N,Net-(R21-Pad2)*%
X60280000Y-172540000D03*
%TO.P,SW4,5,B*%
%TO.N,Net-(Q4-E)*%
X60280000Y-170000000D03*
%TO.P,SW4,4,A*%
%TO.N,Net-(R14-Pad2)*%
X60280000Y-167460000D03*
%TO.P,SW4,3,C*%
%TO.N,BlankingModulated_1ms*%
X62820000Y-172540000D03*
%TO.P,SW4,2,B*%
%TO.N,BlankingModulated*%
X62820000Y-170000000D03*
%TO.P,SW4,1,A*%
%TO.N,BlankingModulated_2ms*%
X62820000Y-167460000D03*
%TD*%
D22*
%TO.P,RV2,1,1*%
%TO.N,GNDREF*%
X66100000Y-159750000D03*
%TO.P,RV2,2,2*%
%TO.N,Net-(U7B-DIS)*%
X58480000Y-162290000D03*
%TO.P,RV2,3,3*%
%TO.N,5V*%
X53400000Y-159750000D03*
%TD*%
D13*
%TO.P,R21,2*%
%TO.N,Net-(R21-Pad2)*%
X74250000Y-159830000D03*
D12*
%TO.P,R21,1*%
%TO.N,Net-(D8-A)*%
X74250000Y-175070000D03*
%TD*%
%TO.P,R14,1*%
%TO.N,Net-(D7-A)*%
X78250000Y-175070000D03*
D13*
%TO.P,R14,2*%
%TO.N,Net-(R14-Pad2)*%
X78250000Y-159830000D03*
%TD*%
D16*
%TO.P,Q4,1,E*%
%TO.N,Net-(Q4-E)*%
X78775000Y-154600000D03*
D17*
%TO.P,Q4,2,B*%
%TO.N,Net-(Q4-B)*%
X76235000Y-154600000D03*
%TO.P,Q4,3,C*%
%TO.N,5V*%
X73695000Y-154600000D03*
%TD*%
D23*
%TO.P,D8,1,K*%
%TO.N,GNDREF*%
X56000000Y-162275000D03*
D22*
%TO.P,D8,2,A*%
%TO.N,Net-(D8-A)*%
X56000000Y-159735000D03*
%TD*%
D23*
%TO.P,D7,1,K*%
%TO.N,GNDREF*%
X56000000Y-180575000D03*
D22*
%TO.P,D7,2,A*%
%TO.N,Net-(D7-A)*%
X56000000Y-178035000D03*
%TD*%
D24*
%TO.P,C5,2*%
%TO.N,Net-(U7B-DIS)*%
X90275000Y-151285000D03*
%TO.P,C5,1*%
%TO.N,GNDREF*%
X90275000Y-149285000D03*
%TD*%
D12*
%TO.P,C4,1*%
%TO.N,Net-(U7B-CV)*%
X95330000Y-153775000D03*
%TO.P,C4,2*%
%TO.N,GNDREF*%
X95330000Y-143775000D03*
%TD*%
D21*
%TO.P,SW2,1,A*%
%TO.N,Net-(R6-Pad2)*%
X62820000Y-107460000D03*
%TO.P,SW2,2,B*%
%TO.N,Net-(SW1-C-Pad3)*%
X62820000Y-110000000D03*
%TO.P,SW2,3,C*%
%TO.N,Blanking*%
X62820000Y-112540000D03*
%TO.P,SW2,4,A*%
%TO.N,Net-(R7-Pad2)*%
X60280000Y-107460000D03*
%TO.P,SW2,5,B*%
%TO.N,Net-(Q2-E)*%
X60280000Y-110000000D03*
%TO.P,SW2,6,C*%
%TO.N,Net-(R8-Pad2)*%
X60280000Y-112540000D03*
D20*
%TO.P,SW2,*%
%TO.N,*%
X55200000Y-107300000D03*
X55200000Y-112700000D03*
%TD*%
D21*
%TO.P,SW1,1,A*%
%TO.N,unconnected-(SW1-A-Pad1)*%
X62820000Y-77460000D03*
%TO.P,SW1,2,B*%
%TO.N,BlankingModulated*%
X62820000Y-80000000D03*
%TO.P,SW1,3,C*%
%TO.N,Net-(SW1-C-Pad3)*%
X62820000Y-82540000D03*
%TO.P,SW1,4,A*%
%TO.N,Net-(R4-Pad2)*%
X60280000Y-77460000D03*
%TO.P,SW1,5,B*%
%TO.N,5V*%
X60280000Y-80000000D03*
%TO.P,SW1,6,C*%
%TO.N,Net-(Q2-B)*%
X60280000Y-82540000D03*
D20*
%TO.P,SW1,*%
%TO.N,*%
X55200000Y-77300000D03*
X55200000Y-82700000D03*
%TD*%
D25*
%TO.P,J1,1,In*%
%TO.N,BlankingSignal*%
X67299680Y-62264660D03*
D26*
%TO.P,J1,2,Ext*%
%TO.N,GNDREF*%
X62201900Y-58000000D03*
D25*
X64800320Y-62264660D03*
D26*
X72400000Y-58000000D03*
%TD*%
D12*
%TO.P,C2,1*%
%TO.N,Net-(U7A-CV)*%
X92800000Y-167100000D03*
%TO.P,C2,2*%
%TO.N,GNDREF*%
X92800000Y-177100000D03*
%TD*%
D24*
%TO.P,C3,2*%
%TO.N,Net-(U7A-DIS)*%
X87725000Y-169610000D03*
%TO.P,C3,1*%
%TO.N,GNDREF*%
X87725000Y-171610000D03*
%TD*%
%TO.P,C1,1*%
%TO.N,5V*%
X115000000Y-177350000D03*
%TO.P,C1,2*%
%TO.N,GNDREF*%
X115000000Y-175350000D03*
%TD*%
D22*
%TO.P,RV1,1,1*%
%TO.N,GNDREF*%
X66100000Y-178050000D03*
%TO.P,RV1,2,2*%
%TO.N,Net-(U7A-DIS)*%
X58480000Y-180590000D03*
%TO.P,RV1,3,3*%
%TO.N,5V*%
X53400000Y-178050000D03*
%TD*%
D20*
%TO.P,SW3,*%
%TO.N,*%
X55200000Y-142700000D03*
X55200000Y-137300000D03*
D21*
%TO.P,SW3,6,C*%
%TO.N,Net-(R12-Pad2)*%
X60280000Y-142540000D03*
%TO.P,SW3,5,B*%
%TO.N,Net-(Q3-E)*%
X60280000Y-140000000D03*
%TO.P,SW3,4,A*%
%TO.N,Net-(Q4-B)*%
X60280000Y-137460000D03*
%TO.P,SW3,3,C*%
%TO.N,BlankingModulated*%
X62820000Y-142540000D03*
%TO.P,SW3,2,B*%
%TO.N,BlankingSignal*%
X62820000Y-140000000D03*
%TO.P,SW3,1,A*%
%TO.N,BlankingToModulate*%
X62820000Y-137460000D03*
%TD*%
D12*
%TO.P,R12,1*%
%TO.N,Net-(D6-A)*%
X78075000Y-147895000D03*
D13*
%TO.P,R12,2*%
%TO.N,Net-(R12-Pad2)*%
X78075000Y-132655000D03*
%TD*%
D16*
%TO.P,Q3,1,E*%
%TO.N,Net-(Q3-E)*%
X78700000Y-127250000D03*
D17*
%TO.P,Q3,2,B*%
%TO.N,Net-(Q2-B)*%
X76160000Y-127250000D03*
%TO.P,Q3,3,C*%
%TO.N,5V*%
X73620000Y-127250000D03*
%TD*%
D27*
%TO.P,U1,38,CLK*%
%TO.N,unconnected-(U1-CLK-Pad38)*%
X83500000Y-54500000D03*
%TO.P,U1,37,SD0*%
%TO.N,unconnected-(U1-SD0-Pad37)*%
X83500000Y-57040000D03*
%TO.P,U1,36,SD1*%
%TO.N,unconnected-(U1-SD1-Pad36)*%
X83500000Y-59580000D03*
%TO.P,U1,35,IO15*%
%TO.N,GPIO15*%
X83500000Y-62120000D03*
%TO.P,U1,34,IO2*%
%TO.N,GPIO02*%
X83500000Y-64660000D03*
%TO.P,U1,33,IO0*%
%TO.N,GPIO00*%
X83500000Y-67200000D03*
%TO.P,U1,32,IO4*%
%TO.N,GPIO04*%
X83500000Y-69740000D03*
%TO.P,U1,31,IO16*%
%TO.N,GPIO16*%
X83500000Y-72280000D03*
%TO.P,U1,30,IO17*%
%TO.N,GPIO17*%
X83500000Y-74820000D03*
%TO.P,U1,29,IO5*%
%TO.N,GPIO05*%
X83500000Y-77360000D03*
%TO.P,U1,28,IO18*%
%TO.N,GPIO18*%
X83500000Y-79900000D03*
%TO.P,U1,27,IO19*%
%TO.N,GPIO19*%
X83500000Y-82440000D03*
%TO.P,U1,26,GND2*%
%TO.N,GNDREF*%
X83500000Y-84980000D03*
%TO.P,U1,25,IO21*%
%TO.N,GPIO21*%
X83500000Y-87520000D03*
%TO.P,U1,24,RXD0*%
%TO.N,unconnected-(U1-RXD0-Pad24)*%
X83500000Y-90060000D03*
%TO.P,U1,23,TXD0*%
%TO.N,unconnected-(U1-TXD0-Pad23)*%
X83500000Y-92600000D03*
%TO.P,U1,22,IO22*%
%TO.N,GPIO22*%
X83500000Y-95140000D03*
%TO.P,U1,21,IO23*%
%TO.N,GPIO23*%
X83500000Y-97680000D03*
%TO.P,U1,20,GND3*%
%TO.N,GNDREF*%
X83500000Y-100220000D03*
%TO.P,U1,19,EXT_5V*%
%TO.N,unconnected-(U1-EXT_5V-Pad19)*%
X108900000Y-54500000D03*
%TO.P,U1,18,CMD*%
%TO.N,unconnected-(U1-CMD-Pad18)*%
X108900000Y-57040000D03*
%TO.P,U1,17,SD3*%
%TO.N,unconnected-(U1-SD3-Pad17)*%
X108900000Y-59580000D03*
%TO.P,U1,16,SD2*%
%TO.N,unconnected-(U1-SD2-Pad16)*%
X108900000Y-62120000D03*
%TO.P,U1,15,IO13*%
%TO.N,GPIO13*%
X108900000Y-64660000D03*
%TO.P,U1,14,GND1*%
%TO.N,GNDREF*%
X108900000Y-67200000D03*
%TO.P,U1,13,IO12*%
%TO.N,GPIO12*%
X108900000Y-69740000D03*
%TO.P,U1,12,IO14*%
%TO.N,GPIO28*%
X108900000Y-72280000D03*
%TO.P,U1,11,IO27*%
%TO.N,GPIO27*%
X108900000Y-74820000D03*
%TO.P,U1,10,IO26*%
%TO.N,GPIO26*%
X108900000Y-77360000D03*
%TO.P,U1,9,IO25*%
%TO.N,GPIO25*%
X108900000Y-79900000D03*
%TO.P,U1,8,IO33*%
%TO.N,Trigger*%
X108900000Y-82440000D03*
%TO.P,U1,7,IO32*%
%TO.N,NeoPixel*%
X108900000Y-84980000D03*
%TO.P,U1,6,IO35*%
%TO.N,Net-(U1-IO35)*%
X108900000Y-87520000D03*
%TO.P,U1,5,IO34*%
%TO.N,unconnected-(U1-IO34-Pad5)*%
X108900000Y-90060000D03*
%TO.P,U1,4,SENSOR_VN*%
%TO.N,unconnected-(U1-SENSOR_VN-Pad4)*%
X108900000Y-92600000D03*
%TO.P,U1,3,SENSOR_VP*%
%TO.N,unconnected-(U1-SENSOR_VP-Pad3)*%
X108900000Y-95140000D03*
%TO.P,U1,2,EN*%
%TO.N,unconnected-(U1-EN-Pad2)*%
X108900000Y-97680000D03*
D28*
%TO.P,U1,1,3V3*%
%TO.N,3.3V*%
X108900000Y-100220000D03*
%TD*%
D23*
%TO.P,D3,1,K*%
%TO.N,GNDREF*%
X56100000Y-120475000D03*
D22*
%TO.P,D3,2,A*%
%TO.N,Net-(D3-A)*%
X56100000Y-117935000D03*
%TD*%
D29*
%TO.P,J5,1,Pin_1*%
%TO.N,GNDREF*%
X114800000Y-147525000D03*
D11*
%TO.P,J5,2,Pin_2*%
%TO.N,NeoPixel*%
X112300000Y-147525000D03*
%TO.P,J5,3,Pin_3*%
%TO.N,5V*%
X109800000Y-147525000D03*
%TD*%
D12*
%TO.P,R17,1*%
%TO.N,Net-(Q5-C)*%
X94925000Y-127270000D03*
D13*
%TO.P,R17,2*%
%TO.N,5V*%
X94925000Y-112030000D03*
%TD*%
D22*
%TO.P,D6,2,A*%
%TO.N,Net-(D6-A)*%
X56100000Y-129735000D03*
D23*
%TO.P,D6,1,K*%
%TO.N,GNDREF*%
X56100000Y-132275000D03*
%TD*%
D12*
%TO.P,R4,1*%
%TO.N,Net-(D2-A)*%
X77900000Y-91050000D03*
D13*
%TO.P,R4,2*%
%TO.N,Net-(R4-Pad2)*%
X77900000Y-75810000D03*
%TD*%
D16*
%TO.P,Q5,1,E*%
%TO.N,Net-(Q5-E)*%
X88125000Y-134625000D03*
D17*
%TO.P,Q5,2,B*%
%TO.N,Net-(Q5-B)*%
X88125000Y-132085000D03*
%TO.P,Q5,3,C*%
%TO.N,Net-(Q5-C)*%
X88125000Y-129545000D03*
%TD*%
D30*
%TO.P,J6,1*%
%TO.N,Net-(J7-Pin_2)*%
X126425000Y-174650000D03*
D31*
%TO.P,J6,2*%
%TO.N,GNDREF*%
X126425000Y-180650000D03*
D32*
X131125000Y-177650000D03*
%TD*%
D12*
%TO.P,R11,1*%
%TO.N,Net-(D5-A)*%
X74275000Y-147895000D03*
D13*
%TO.P,R11,2*%
%TO.N,Net-(Q4-B)*%
X74275000Y-132655000D03*
%TD*%
D23*
%TO.P,D1,1,K*%
%TO.N,GNDREF*%
X56100000Y-72200000D03*
D22*
%TO.P,D1,2,A*%
%TO.N,Net-(D1-A)*%
X56100000Y-69660000D03*
%TD*%
D17*
%TO.P,Q7,3,C*%
%TO.N,Net-(Q7-C)*%
X102600000Y-129525000D03*
%TO.P,Q7,2,B*%
%TO.N,Net-(Q7-B)*%
X102600000Y-132065000D03*
D16*
%TO.P,Q7,1,E*%
%TO.N,GNDREF*%
X102600000Y-134605000D03*
%TD*%
D12*
%TO.P,R18,1*%
%TO.N,5V*%
X98775000Y-127270000D03*
D13*
%TO.P,R18,2*%
%TO.N,Net-(Q7-C)*%
X98775000Y-112030000D03*
%TD*%
D12*
%TO.P,R3,1*%
%TO.N,Net-(D1-A)*%
X74100000Y-75810000D03*
D13*
%TO.P,R3,2*%
%TO.N,Net-(Q2-B)*%
X74100000Y-91050000D03*
%TD*%
D33*
%TO.P,U5,1,ADJ*%
%TO.N,Net-(U5-ADJ)*%
X110415000Y-180030000D03*
D34*
%TO.P,U5,2,VO*%
%TO.N,5V*%
X107875000Y-180030000D03*
%TO.P,U5,3,VI*%
%TO.N,+12V*%
X105335000Y-180030000D03*
%TD*%
D19*
%TO.P,U2,1*%
%TO.N,Blanking*%
X113965000Y-136525000D03*
D18*
%TO.P,U2,2*%
%TO.N,GPIO23*%
X116505000Y-136525000D03*
%TO.P,U2,3*%
%TO.N,GPIO Input 1*%
X119045000Y-136525000D03*
%TO.P,U2,4*%
%TO.N,Blanking*%
X121585000Y-136525000D03*
%TO.P,U2,5*%
%TO.N,GPIO22*%
X124125000Y-136525000D03*
%TO.P,U2,6*%
%TO.N,GPIO Input 2*%
X126665000Y-136525000D03*
%TO.P,U2,7,GND*%
%TO.N,GNDREF*%
X129205000Y-136525000D03*
%TO.P,U2,8*%
%TO.N,GPIO Input 3*%
X129205000Y-128905000D03*
%TO.P,U2,9*%
%TO.N,Blanking*%
X126665000Y-128905000D03*
%TO.P,U2,10*%
%TO.N,GPIO21*%
X124125000Y-128905000D03*
%TO.P,U2,11*%
%TO.N,GPIO Input 4*%
X121585000Y-128905000D03*
%TO.P,U2,12*%
%TO.N,Blanking*%
X119045000Y-128905000D03*
%TO.P,U2,13*%
%TO.N,GPIO19*%
X116505000Y-128905000D03*
%TO.P,U2,14,VCC*%
%TO.N,5V*%
X113965000Y-128905000D03*
%TD*%
D19*
%TO.P,U4,1*%
%TO.N,Blanking*%
X113890000Y-106525000D03*
D18*
%TO.P,U4,2*%
%TO.N,GPIO27*%
X116430000Y-106525000D03*
%TO.P,U4,3*%
%TO.N,GPIO Input 10*%
X118970000Y-106525000D03*
%TO.P,U4,4*%
%TO.N,Blanking*%
X121510000Y-106525000D03*
%TO.P,U4,5*%
%TO.N,GPIO28*%
X124050000Y-106525000D03*
%TO.P,U4,6*%
%TO.N,GPIO Input 9*%
X126590000Y-106525000D03*
%TO.P,U4,7,GND*%
%TO.N,GNDREF*%
X129130000Y-106525000D03*
%TO.P,U4,8*%
%TO.N,GPIO Input 11*%
X129130000Y-98905000D03*
%TO.P,U4,9*%
%TO.N,Blanking*%
X126590000Y-98905000D03*
%TO.P,U4,10*%
%TO.N,GPIO12*%
X124050000Y-98905000D03*
%TO.P,U4,11*%
%TO.N,GPIO Input 12*%
X121510000Y-98905000D03*
%TO.P,U4,12*%
%TO.N,Blanking*%
X118970000Y-98905000D03*
%TO.P,U4,13*%
%TO.N,GPIO13*%
X116430000Y-98905000D03*
%TO.P,U4,14,VCC*%
%TO.N,5V*%
X113890000Y-98905000D03*
%TD*%
D12*
%TO.P,R16,1*%
%TO.N,Net-(Q6-B)*%
X91075000Y-127270000D03*
D13*
%TO.P,R16,2*%
%TO.N,BlankingToModulate*%
X91075000Y-112030000D03*
%TD*%
D12*
%TO.P,R8,1*%
%TO.N,Net-(D4-A)*%
X77950000Y-117895000D03*
D13*
%TO.P,R8,2*%
%TO.N,Net-(R8-Pad2)*%
X77950000Y-102655000D03*
%TD*%
D19*
%TO.P,U3,1*%
%TO.N,Blanking*%
X113890000Y-121425000D03*
D18*
%TO.P,U3,2*%
%TO.N,GPIO18*%
X116430000Y-121425000D03*
%TO.P,U3,3*%
%TO.N,GPIO Input 5*%
X118970000Y-121425000D03*
%TO.P,U3,4*%
%TO.N,Blanking*%
X121510000Y-121425000D03*
%TO.P,U3,5*%
%TO.N,GPIO05*%
X124050000Y-121425000D03*
%TO.P,U3,6*%
%TO.N,GPIO Input 6*%
X126590000Y-121425000D03*
%TO.P,U3,7,GND*%
%TO.N,GNDREF*%
X129130000Y-121425000D03*
%TO.P,U3,8*%
%TO.N,GPIO Input 7*%
X129130000Y-113805000D03*
%TO.P,U3,9*%
%TO.N,Blanking*%
X126590000Y-113805000D03*
%TO.P,U3,10*%
%TO.N,GPIO25*%
X124050000Y-113805000D03*
%TO.P,U3,11*%
%TO.N,GPIO Input 8*%
X121510000Y-113805000D03*
%TO.P,U3,12*%
%TO.N,Blanking*%
X118970000Y-113805000D03*
%TO.P,U3,13*%
%TO.N,GPIO26*%
X116430000Y-113805000D03*
%TO.P,U3,14,VCC*%
%TO.N,5V*%
X113890000Y-113805000D03*
%TD*%
D16*
%TO.P,Q6,1,E*%
%TO.N,GNDREF*%
X95300000Y-134565000D03*
D17*
%TO.P,Q6,2,B*%
%TO.N,Net-(Q6-B)*%
X95300000Y-132025000D03*
%TO.P,Q6,3,C*%
%TO.N,Net-(Q5-E)*%
X95300000Y-129485000D03*
%TD*%
D12*
%TO.P,J4,25,P25*%
%TO.N,GNDREF*%
X139520000Y-100385000D03*
%TO.P,J4,24,P24*%
X139520000Y-97615000D03*
%TO.P,J4,23,P23*%
X139520000Y-94845000D03*
%TO.P,J4,22,P22*%
X139520000Y-92075000D03*
%TO.P,J4,21,P21*%
X139520000Y-89305000D03*
%TO.P,J4,20,P20*%
X139520000Y-86535000D03*
%TO.P,J4,19,P19*%
X139520000Y-83765000D03*
%TO.P,J4,18,P18*%
X139520000Y-80995000D03*
%TO.P,J4,17,P17*%
X139520000Y-78225000D03*
%TO.P,J4,16,P16*%
X139520000Y-75455000D03*
%TO.P,J4,15,P15*%
X139520000Y-72685000D03*
%TO.P,J4,14,P14*%
X139520000Y-69915000D03*
%TO.P,J4,13,13*%
X136680000Y-101770000D03*
%TO.P,J4,12,12*%
%TO.N,GPIO Input 7*%
X136680000Y-99000000D03*
%TO.P,J4,11,11*%
%TO.N,GPIO Input 8*%
X136680000Y-96230000D03*
%TO.P,J4,10,10*%
%TO.N,GPIO Input 9*%
X136680000Y-93460000D03*
%TO.P,J4,9,9*%
%TO.N,GPIO Input 10*%
X136680000Y-90690000D03*
%TO.P,J4,8,8*%
%TO.N,GPIO Input 11*%
X136680000Y-87920000D03*
%TO.P,J4,7,7*%
%TO.N,GPIO Input 12*%
X136680000Y-85150000D03*
%TO.P,J4,6,6*%
%TO.N,unconnected-(J4-Pad6)*%
X136680000Y-82380000D03*
%TO.P,J4,5,5*%
%TO.N,unconnected-(J4-Pad5)*%
X136680000Y-79610000D03*
%TO.P,J4,4,4*%
%TO.N,unconnected-(J4-Pad4)*%
X136680000Y-76840000D03*
%TO.P,J4,3,3*%
%TO.N,unconnected-(J4-Pad3)*%
X136680000Y-74070000D03*
%TO.P,J4,2,2*%
%TO.N,unconnected-(J4-Pad2)*%
X136680000Y-71300000D03*
D15*
%TO.P,J4,1,1*%
%TO.N,unconnected-(J4-Pad1)*%
X136680000Y-68530000D03*
D14*
%TO.P,J4,*%
%TO.N,*%
X138100000Y-61600000D03*
X138100000Y-108700000D03*
%TD*%
D12*
%TO.P,R7,1*%
%TO.N,Net-(D3-A)*%
X74100000Y-117895000D03*
D13*
%TO.P,R7,2*%
%TO.N,Net-(R7-Pad2)*%
X74100000Y-102655000D03*
%TD*%
D12*
%TO.P,R5,1*%
%TO.N,Blanking*%
X70300000Y-102645000D03*
D13*
%TO.P,R5,2*%
%TO.N,5V*%
X70300000Y-117885000D03*
%TD*%
D12*
%TO.P,R6,1*%
%TO.N,Net-(Q1-B)*%
X70300000Y-91050000D03*
D13*
%TO.P,R6,2*%
%TO.N,Net-(R6-Pad2)*%
X70300000Y-75810000D03*
%TD*%
D12*
%TO.P,R1,1*%
%TO.N,Net-(U1-IO35)*%
X52750000Y-67020000D03*
D13*
%TO.P,R1,2*%
%TO.N,BlankingSignal*%
X52750000Y-51780000D03*
%TD*%
%TO.P,R19,2*%
%TO.N,BlankingToModulate*%
X102625000Y-112030000D03*
D12*
%TO.P,R19,1*%
%TO.N,Net-(Q7-B)*%
X102625000Y-127270000D03*
%TD*%
D25*
%TO.P,J2,1,In*%
%TO.N,Trigger*%
X125000000Y-62301260D03*
D26*
%TO.P,J2,2,Ext*%
%TO.N,GNDREF*%
X119902220Y-58036600D03*
D25*
X122500640Y-62301260D03*
D26*
X130100320Y-58036600D03*
%TD*%
D23*
%TO.P,D2,1,K*%
%TO.N,GNDREF*%
X56100000Y-90375000D03*
D22*
%TO.P,D2,2,A*%
%TO.N,Net-(D2-A)*%
X56100000Y-87835000D03*
%TD*%
D13*
%TO.P,R15,2*%
%TO.N,Net-(Q7-C)*%
X87225000Y-112030000D03*
D12*
%TO.P,R15,1*%
%TO.N,Net-(Q5-B)*%
X87225000Y-127270000D03*
%TD*%
D13*
%TO.P,R2,2*%
%TO.N,BlankingSignal*%
X56550000Y-51780000D03*
D12*
%TO.P,R2,1*%
%TO.N,GNDREF*%
X56550000Y-67020000D03*
%TD*%
D13*
%TO.P,R20,2*%
%TO.N,Net-(Q5-C)*%
X100425000Y-167100000D03*
D12*
%TO.P,R20,1*%
%TO.N,5V*%
X100425000Y-182340000D03*
%TD*%
D23*
%TO.P,D4,1,K*%
%TO.N,GNDREF*%
X56100000Y-102175000D03*
D22*
%TO.P,D4,2,A*%
%TO.N,Net-(D4-A)*%
X56100000Y-99635000D03*
%TD*%
%TO.P,D5,2,A*%
%TO.N,Net-(D5-A)*%
X56100000Y-148035000D03*
D23*
%TO.P,D5,1,K*%
%TO.N,GNDREF*%
X56100000Y-150575000D03*
%TD*%
D35*
%TO.N,NeoPixel*%
X87300000Y-52250000D03*
X84875000Y-52250000D03*
%TO.N,Net-(U7B-DIS)*%
X61425000Y-159975000D03*
%TO.N,BlankingModulated_2ms*%
X84875000Y-158050000D03*
%TO.N,BlankingModulated_1ms*%
X88650000Y-158975000D03*
%TO.N,Net-(Q2-B)*%
X59625000Y-106075000D03*
X57225000Y-108450000D03*
%TD*%
D36*
%TO.N,Net-(U5-ADJ)*%
X106150000Y-175765000D02*
X106150000Y-175075000D01*
X110415000Y-180030000D02*
X106150000Y-175765000D01*
X106150000Y-175075000D02*
X106150000Y-157575000D01*
X108205000Y-177820000D02*
X106285000Y-175900000D01*
X106150000Y-157575000D02*
X107975000Y-155750000D01*
%TO.N,5V*%
X105700000Y-177855000D02*
X107875000Y-180030000D01*
X105700000Y-141255000D02*
X105700000Y-177855000D01*
X105172500Y-140727500D02*
X105700000Y-141255000D01*
X107875000Y-181875000D02*
X110275000Y-184275000D01*
X107875000Y-180030000D02*
X107875000Y-181875000D01*
D37*
%TO.N,Net-(J7-Pin_2)*%
X133600000Y-174650000D02*
X139800000Y-180850000D01*
X126425000Y-174650000D02*
X133600000Y-174650000D01*
D36*
%TO.N,GPIO Input 1*%
X119045000Y-152445000D02*
X119045000Y-136525000D01*
X120325000Y-153725000D02*
X119045000Y-152445000D01*
X124025000Y-154550000D02*
X123200000Y-153725000D01*
X123200000Y-153725000D02*
X120325000Y-153725000D01*
X131573222Y-163650000D02*
X124025000Y-156101778D01*
X136680000Y-163650000D02*
X131573222Y-163650000D01*
X124025000Y-156101778D02*
X124025000Y-154550000D01*
%TO.N,Net-(R24-Pad1)*%
X121850000Y-155780000D02*
X121850000Y-167320000D01*
X121850000Y-167320000D02*
X125550000Y-171020000D01*
%TO.N,Net-(U5-ADJ)*%
X109550000Y-154175000D02*
X107975000Y-155750000D01*
X123000000Y-154175000D02*
X109550000Y-154175000D01*
X123575000Y-156288174D02*
X123575000Y-154750000D01*
X123575000Y-154750000D02*
X123000000Y-154175000D01*
X129250000Y-161963174D02*
X123575000Y-156288174D01*
X129250000Y-171020000D02*
X129250000Y-161963174D01*
%TO.N,Net-(R10-Pad2)*%
X129250000Y-155780000D02*
X125550000Y-155780000D01*
%TO.N,Net-(R22-Pad1)*%
X111650000Y-170995000D02*
X111650000Y-159450000D01*
X111650000Y-159450000D02*
X115350000Y-155750000D01*
%TO.N,Net-(R22-Pad2)*%
X107975000Y-170990000D02*
X107975000Y-159430000D01*
X107975000Y-159430000D02*
X111650000Y-155755000D01*
%TO.N,5V*%
X121225000Y-181075000D02*
X121225000Y-176865000D01*
X121225000Y-176865000D02*
X115350000Y-170990000D01*
X124425000Y-184275000D02*
X121225000Y-181075000D01*
X124675000Y-184275000D02*
X124425000Y-184275000D01*
X124675000Y-184275000D02*
X136625000Y-184275000D01*
X118825000Y-184275000D02*
X124675000Y-184275000D01*
X105172500Y-140727500D02*
X109800000Y-145355000D01*
X102955000Y-138510000D02*
X105172500Y-140727500D01*
X109800000Y-145355000D02*
X109800000Y-147525000D01*
%TO.N,NeoPixel*%
X82025000Y-52250000D02*
X84875000Y-52250000D01*
X81200000Y-53075000D02*
X82025000Y-52250000D01*
X81200000Y-100100000D02*
X81200000Y-53075000D01*
X96075000Y-102000000D02*
X83100000Y-102000000D01*
X83100000Y-102000000D02*
X81200000Y-100100000D01*
X96102208Y-101972792D02*
X96075000Y-102000000D01*
X104470406Y-125126802D02*
X104470406Y-110340990D01*
X112300000Y-132956396D02*
X104470406Y-125126802D01*
X112300000Y-147525000D02*
X112300000Y-132956396D01*
X104470406Y-110340990D02*
X96102208Y-101972792D01*
%TO.N,5V*%
X110275000Y-184275000D02*
X104150000Y-184275000D01*
X114525000Y-184275000D02*
X110275000Y-184275000D01*
%TO.N,BlankingSignal*%
X76650000Y-140000000D02*
X62820000Y-140000000D01*
X80750000Y-135900000D02*
X76650000Y-140000000D01*
X80750000Y-69400000D02*
X80750000Y-135900000D01*
X73614660Y-62264660D02*
X80750000Y-69400000D01*
X67299680Y-62264660D02*
X73614660Y-62264660D01*
%TO.N,5V*%
X52214930Y-68439930D02*
X50375000Y-66600000D01*
X57201326Y-68439930D02*
X52214930Y-68439930D01*
X62636396Y-73875000D02*
X57201326Y-68439930D01*
X50375000Y-66600000D02*
X50375000Y-60975000D01*
X50375000Y-70025000D02*
X50375000Y-66600000D01*
X51508741Y-50779863D02*
X50375000Y-51913604D01*
X52104726Y-50205000D02*
X51529863Y-50779863D01*
X137455000Y-50205000D02*
X52104726Y-50205000D01*
X51529863Y-50779863D02*
X51508741Y-50779863D01*
X148400000Y-61150000D02*
X137455000Y-50205000D01*
X148400000Y-72925000D02*
X148400000Y-61150000D01*
X50375000Y-51913604D02*
X50375000Y-53325000D01*
X148400000Y-72925000D02*
X148400000Y-115725000D01*
X148400000Y-72650000D02*
X148400000Y-72925000D01*
X50375000Y-53750000D02*
X50375000Y-53325000D01*
%TO.N,Net-(U1-IO35)*%
X54275000Y-50655000D02*
X84405000Y-50655000D01*
X85350000Y-51600000D02*
X89200000Y-55450000D01*
X84487500Y-50737500D02*
X85350000Y-51600000D01*
X54275000Y-50655000D02*
X54675000Y-50655000D01*
X52291122Y-50655000D02*
X54275000Y-50655000D01*
X84405000Y-50655000D02*
X85350000Y-51600000D01*
X50846122Y-52100000D02*
X52291122Y-50655000D01*
X50825000Y-52100000D02*
X50846122Y-52100000D01*
X50825000Y-61100000D02*
X50825000Y-52100000D01*
X52750000Y-63025000D02*
X50825000Y-61100000D01*
X52750000Y-67020000D02*
X52750000Y-63025000D01*
%TO.N,BlankingSignal*%
X63905000Y-51780000D02*
X65525000Y-53400000D01*
X56550000Y-51780000D02*
X63905000Y-51780000D01*
X65525000Y-53400000D02*
X67299680Y-55174680D01*
X52750000Y-51780000D02*
X56550000Y-51780000D01*
%TO.N,5V*%
X50375000Y-54525000D02*
X50375000Y-53750000D01*
X50375000Y-60975000D02*
X50375000Y-54525000D01*
X51800000Y-71450000D02*
X50375000Y-70025000D01*
X144275000Y-111600000D02*
X148400000Y-115725000D01*
X122800000Y-112325000D02*
X123525000Y-111600000D01*
X121750000Y-115850000D02*
X122800000Y-114800000D01*
X113890000Y-113805000D02*
X115935000Y-115850000D01*
X122800000Y-114800000D02*
X122800000Y-112325000D01*
X123525000Y-111600000D02*
X144275000Y-111600000D01*
X148400000Y-115725000D02*
X148400000Y-179400000D01*
X115935000Y-115850000D02*
X121750000Y-115850000D01*
%TO.N,GPIO Input 8*%
X134275000Y-109375000D02*
X134275000Y-98635000D01*
X132500000Y-111150000D02*
X134275000Y-109375000D01*
X122700000Y-111150000D02*
X132500000Y-111150000D01*
X134275000Y-98635000D02*
X136680000Y-96230000D01*
X121510000Y-113805000D02*
X121510000Y-112340000D01*
X121510000Y-112340000D02*
X122700000Y-111150000D01*
%TO.N,GPIO26*%
X110800000Y-79260000D02*
X108900000Y-77360000D01*
X110800000Y-108461396D02*
X110800000Y-79260000D01*
X116143604Y-113805000D02*
X110800000Y-108461396D01*
X116430000Y-113805000D02*
X116143604Y-113805000D01*
%TO.N,GPIO Input 4*%
X131950000Y-150610000D02*
X136680000Y-155340000D01*
X131950000Y-128694188D02*
X131950000Y-150610000D01*
X123465000Y-127025000D02*
X130280812Y-127025000D01*
X121585000Y-128905000D02*
X123465000Y-127025000D01*
X130280812Y-127025000D02*
X131950000Y-128694188D01*
%TO.N,5V*%
X138200000Y-169200000D02*
X148400000Y-179400000D01*
X135875835Y-153899439D02*
X137574439Y-153899439D01*
X138200000Y-154525000D02*
X138200000Y-169200000D01*
X132400000Y-150423604D02*
X135875835Y-153899439D01*
X137574439Y-153899439D02*
X138200000Y-154525000D01*
X132400000Y-128507792D02*
X132400000Y-150423604D01*
X130467208Y-126575000D02*
X132400000Y-128507792D01*
X113965000Y-128905000D02*
X116295000Y-126575000D01*
X116295000Y-126575000D02*
X130467208Y-126575000D01*
%TO.N,GPIO Input 5*%
X132850000Y-128321396D02*
X132850000Y-148740000D01*
X132850000Y-148740000D02*
X136680000Y-152570000D01*
X130653604Y-126125000D02*
X132850000Y-128321396D01*
X123670000Y-126125000D02*
X130653604Y-126125000D01*
X118970000Y-121425000D02*
X123670000Y-126125000D01*
%TO.N,GPIO Input 6*%
X133300000Y-146420000D02*
X136680000Y-149800000D01*
X133300000Y-128135000D02*
X133300000Y-146420000D01*
X126590000Y-121425000D02*
X133300000Y-128135000D01*
%TO.N,5V*%
X148400000Y-179400000D02*
X148400000Y-183175000D01*
%TO.N,GPIO18*%
X115650292Y-126399708D02*
X116430000Y-125620000D01*
X106720406Y-124194822D02*
X108925292Y-126399708D01*
X106720406Y-109406802D02*
X106720406Y-124194822D01*
X108925292Y-126399708D02*
X115650292Y-126399708D01*
X85600000Y-82000000D02*
X85600000Y-88286396D01*
X85600000Y-88286396D02*
X106720406Y-109406802D01*
X83500000Y-79900000D02*
X85600000Y-82000000D01*
X116430000Y-125620000D02*
X116430000Y-121425000D01*
%TO.N,5V*%
X140075000Y-184275000D02*
X141000000Y-184275000D01*
X136625000Y-184275000D02*
X141000000Y-184275000D01*
X141000000Y-184275000D02*
X147300000Y-184275000D01*
X136625000Y-184275000D02*
X137725000Y-184275000D01*
X147300000Y-184275000D02*
X148400000Y-183175000D01*
X148400000Y-183175000D02*
X147700000Y-183875000D01*
X142200000Y-66450000D02*
X148400000Y-72650000D01*
X135025000Y-66450000D02*
X142200000Y-66450000D01*
X132025000Y-69450000D02*
X135025000Y-66450000D01*
X132025000Y-95063604D02*
X132025000Y-69450000D01*
X130638604Y-96450000D02*
X132025000Y-95063604D01*
X116345000Y-96450000D02*
X130638604Y-96450000D01*
X113890000Y-98905000D02*
X116345000Y-96450000D01*
%TO.N,Trigger*%
X125000000Y-53850000D02*
X125000000Y-62301260D01*
X123250000Y-52100000D02*
X125000000Y-53850000D01*
X93650000Y-52100000D02*
X123250000Y-52100000D01*
X90100000Y-86422436D02*
X90100000Y-55650000D01*
X104852208Y-99625000D02*
X103302564Y-99625000D01*
X105947500Y-98529708D02*
X104852208Y-99625000D01*
X103302564Y-99625000D02*
X90100000Y-86422436D01*
X105947500Y-85392500D02*
X105947500Y-98529708D01*
X90100000Y-55650000D02*
X93650000Y-52100000D01*
X108900000Y-82440000D02*
X105947500Y-85392500D01*
%TO.N,NeoPixel*%
X106397500Y-87482500D02*
X108900000Y-84980000D01*
X106397500Y-98716104D02*
X106397500Y-87482500D01*
X105038604Y-100075000D02*
X106397500Y-98716104D01*
X103116168Y-100075000D02*
X105038604Y-100075000D01*
X89650000Y-86608832D02*
X103116168Y-100075000D01*
X89650000Y-53225000D02*
X89650000Y-86608832D01*
X88675000Y-52250000D02*
X89650000Y-53225000D01*
X87300000Y-52250000D02*
X88675000Y-52250000D01*
%TO.N,Net-(U1-IO35)*%
X106847500Y-89572500D02*
X108900000Y-87520000D01*
X105225000Y-100525000D02*
X106847500Y-98902500D01*
X102929772Y-100525000D02*
X105225000Y-100525000D01*
X89200000Y-86795228D02*
X102929772Y-100525000D01*
X89200000Y-55450000D02*
X89200000Y-86795228D01*
X106847500Y-98902500D02*
X106847500Y-89572500D01*
%TO.N,NeoPixel*%
X84875000Y-52250000D02*
X84975000Y-52250000D01*
%TO.N,Net-(Q7-C)*%
X100725000Y-127650000D02*
X102600000Y-129525000D01*
X100725000Y-116950000D02*
X100725000Y-127650000D01*
X103787500Y-110937500D02*
X103750000Y-110975000D01*
X103400000Y-110550000D02*
X103787500Y-110937500D01*
X103750000Y-110975000D02*
X103750000Y-113925000D01*
X103750000Y-113925000D02*
X100725000Y-116950000D01*
X101425000Y-110550000D02*
X103400000Y-110550000D01*
%TO.N,GPIO Input 12*%
X130825000Y-96900000D02*
X123515000Y-96900000D01*
X123515000Y-96900000D02*
X121510000Y-98905000D01*
X132475000Y-95250000D02*
X130825000Y-96900000D01*
X132475000Y-89355000D02*
X132475000Y-95250000D01*
X136680000Y-85150000D02*
X132475000Y-89355000D01*
%TO.N,GPIO Input 11*%
X129130000Y-102205000D02*
X129130000Y-98905000D01*
X129775000Y-102850000D02*
X129130000Y-102205000D01*
X132163604Y-102850000D02*
X129775000Y-102850000D01*
X132925000Y-102088604D02*
X132163604Y-102850000D01*
X132925000Y-91675000D02*
X132925000Y-102088604D01*
X136680000Y-87920000D02*
X132925000Y-91675000D01*
%TO.N,GPIO Input 10*%
X133375000Y-93995000D02*
X136680000Y-90690000D01*
X133375000Y-102275000D02*
X133375000Y-93995000D01*
X126775000Y-103300000D02*
X132350000Y-103300000D01*
X125300000Y-108950000D02*
X125300000Y-104775000D01*
X124300000Y-109950000D02*
X125300000Y-108950000D01*
X125300000Y-104775000D02*
X126775000Y-103300000D01*
X118970000Y-108995000D02*
X119925000Y-109950000D01*
X132350000Y-103300000D02*
X133375000Y-102275000D01*
X118970000Y-106525000D02*
X118970000Y-108995000D01*
X119925000Y-109950000D02*
X124300000Y-109950000D01*
%TO.N,GPIO Input 9*%
X133825000Y-109188604D02*
X133825000Y-96315000D01*
X132313604Y-110700000D02*
X133825000Y-109188604D01*
X126590000Y-109190000D02*
X128100000Y-110700000D01*
X126590000Y-106525000D02*
X126590000Y-109190000D01*
X128100000Y-110700000D02*
X132313604Y-110700000D01*
X133825000Y-96315000D02*
X136680000Y-93460000D01*
%TO.N,GPIO25*%
X124050000Y-115375000D02*
X124050000Y-113805000D01*
X110350000Y-114063604D02*
X112936396Y-116650000D01*
X110350000Y-81350000D02*
X110350000Y-114063604D01*
X122775000Y-116650000D02*
X124050000Y-115375000D01*
X108900000Y-79900000D02*
X110350000Y-81350000D01*
X112936396Y-116650000D02*
X122775000Y-116650000D01*
%TO.N,GPIO13*%
X112600000Y-68360000D02*
X108900000Y-64660000D01*
X112600000Y-102377208D02*
X112600000Y-68360000D01*
X113997792Y-103775000D02*
X112600000Y-102377208D01*
X115450000Y-103775000D02*
X113997792Y-103775000D01*
X116430000Y-102795000D02*
X115450000Y-103775000D01*
X116430000Y-98905000D02*
X116430000Y-102795000D01*
%TO.N,GPIO12*%
X113811396Y-104225000D02*
X118730000Y-104225000D01*
X112150000Y-102563604D02*
X113811396Y-104225000D01*
X118730000Y-104225000D02*
X124050000Y-98905000D01*
X112150000Y-72990000D02*
X112150000Y-102563604D01*
X108900000Y-69740000D02*
X112150000Y-72990000D01*
%TO.N,GPIO28*%
X111700000Y-75080000D02*
X108900000Y-72280000D01*
X111700000Y-102750000D02*
X111700000Y-75080000D01*
X122200000Y-104675000D02*
X113625000Y-104675000D01*
X124050000Y-106525000D02*
X122200000Y-104675000D01*
X113625000Y-104675000D02*
X111700000Y-102750000D01*
%TO.N,GPIO27*%
X113025000Y-110050000D02*
X115375000Y-110050000D01*
X116430000Y-108995000D02*
X116430000Y-106525000D01*
X111250000Y-108275000D02*
X113025000Y-110050000D01*
X115375000Y-110050000D02*
X116430000Y-108995000D01*
X111250000Y-77170000D02*
X111250000Y-108275000D01*
X108900000Y-74820000D02*
X111250000Y-77170000D01*
%TO.N,GPIO15*%
X112750000Y-117100000D02*
X109900000Y-114250000D01*
X109900000Y-108131624D02*
X88750000Y-86981624D01*
X138370584Y-117100000D02*
X112750000Y-117100000D01*
X109900000Y-114250000D02*
X109900000Y-108131624D01*
X88750000Y-67370000D02*
X83500000Y-62120000D01*
X143200000Y-121929416D02*
X138370584Y-117100000D01*
X139718878Y-147030000D02*
X143200000Y-143548878D01*
X136680000Y-147030000D02*
X139718878Y-147030000D01*
X143200000Y-143548878D02*
X143200000Y-121929416D01*
X88750000Y-86981624D02*
X88750000Y-67370000D01*
%TO.N,GPIO02*%
X88300000Y-69460000D02*
X83500000Y-64660000D01*
X88300000Y-87168020D02*
X88300000Y-69460000D01*
X109450000Y-108318020D02*
X88300000Y-87168020D01*
X112556980Y-117550000D02*
X109450000Y-114443020D01*
X109450000Y-114443020D02*
X109450000Y-108318020D01*
X142750000Y-122115812D02*
X138184188Y-117550000D01*
X139718878Y-144260000D02*
X142750000Y-141228878D01*
X136680000Y-144260000D02*
X139718878Y-144260000D01*
X142750000Y-141228878D02*
X142750000Y-122115812D01*
X138184188Y-117550000D02*
X112556980Y-117550000D01*
%TO.N,GPIO00*%
X87850000Y-71550000D02*
X83500000Y-67200000D01*
X87850000Y-87354416D02*
X87850000Y-71550000D01*
X112370584Y-118000000D02*
X109000000Y-114629416D01*
X137997792Y-118000000D02*
X112370584Y-118000000D01*
X142300000Y-122302208D02*
X137997792Y-118000000D01*
X142300000Y-138908878D02*
X142300000Y-122302208D01*
X109000000Y-114629416D02*
X109000000Y-108504416D01*
X109000000Y-108504416D02*
X87850000Y-87354416D01*
X139718878Y-141490000D02*
X142300000Y-138908878D01*
X136680000Y-141490000D02*
X139718878Y-141490000D01*
%TO.N,GPIO04*%
X87400000Y-87540812D02*
X87400000Y-73640000D01*
X108550000Y-114815812D02*
X108550000Y-108690812D01*
X137811396Y-118450000D02*
X112184188Y-118450000D01*
X87400000Y-73640000D02*
X83500000Y-69740000D01*
X108550000Y-108690812D02*
X87400000Y-87540812D01*
X141850000Y-136700000D02*
X141850000Y-122488604D01*
X139830000Y-138720000D02*
X141850000Y-136700000D01*
X112184188Y-118450000D02*
X108550000Y-114815812D01*
X136680000Y-138720000D02*
X139830000Y-138720000D01*
X141850000Y-122488604D02*
X137811396Y-118450000D01*
%TO.N,GPIO16*%
X86950000Y-75730000D02*
X83500000Y-72280000D01*
X86950000Y-87727208D02*
X86950000Y-75730000D01*
X111997792Y-118900000D02*
X108070406Y-114972614D01*
X108070406Y-114972614D02*
X108070406Y-108847614D01*
X141400000Y-122675000D02*
X137625000Y-118900000D01*
X137625000Y-118900000D02*
X111997792Y-118900000D01*
X141400000Y-135150000D02*
X141400000Y-122675000D01*
X140600000Y-135950000D02*
X141400000Y-135150000D01*
X136680000Y-135950000D02*
X140600000Y-135950000D01*
X108070406Y-108847614D02*
X86950000Y-87727208D01*
%TO.N,GPIO17*%
X86500000Y-77820000D02*
X83500000Y-74820000D01*
X86500000Y-87913604D02*
X86500000Y-77820000D01*
X111811396Y-119350000D02*
X107620406Y-115159010D01*
X107620406Y-115159010D02*
X107620406Y-109034010D01*
X140950000Y-122861396D02*
X137438604Y-119350000D01*
X140950000Y-131325000D02*
X140950000Y-122861396D01*
X137438604Y-119350000D02*
X111811396Y-119350000D01*
X107620406Y-109034010D02*
X86500000Y-87913604D01*
X139095000Y-133180000D02*
X140950000Y-131325000D01*
X136680000Y-133180000D02*
X139095000Y-133180000D01*
%TO.N,GPIO05*%
X86050000Y-79910000D02*
X83500000Y-77360000D01*
X107170406Y-109220406D02*
X86050000Y-88100000D01*
X86050000Y-88100000D02*
X86050000Y-79910000D01*
X107170406Y-115345406D02*
X107170406Y-109220406D01*
X122425000Y-119800000D02*
X111625000Y-119800000D01*
X111625000Y-119800000D02*
X107170406Y-115345406D01*
X124050000Y-121425000D02*
X122425000Y-119800000D01*
%TO.N,GPIO19*%
X116505000Y-130720000D02*
X116505000Y-128905000D01*
X115325000Y-131900000D02*
X116505000Y-130720000D01*
X106270406Y-124381218D02*
X113789188Y-131900000D01*
X106270406Y-109593198D02*
X106270406Y-124381218D01*
X99427208Y-102750000D02*
X106270406Y-109593198D01*
X99425000Y-102750000D02*
X99427208Y-102750000D01*
X85150000Y-88475000D02*
X99425000Y-102750000D01*
X85150000Y-84090000D02*
X85150000Y-88475000D01*
X113789188Y-131900000D02*
X115325000Y-131900000D01*
X83500000Y-82440000D02*
X85150000Y-84090000D01*
%TO.N,GPIO21*%
X124125000Y-132175000D02*
X124125000Y-128905000D01*
X105820406Y-124567614D02*
X115602792Y-134350000D01*
X121950000Y-134350000D02*
X124125000Y-132175000D01*
X105820406Y-109781802D02*
X105820406Y-124567614D01*
X83558604Y-87520000D02*
X105820406Y-109781802D01*
X83500000Y-87520000D02*
X83558604Y-87520000D01*
X115602792Y-134350000D02*
X121950000Y-134350000D01*
%TO.N,GPIO22*%
X122400000Y-134800000D02*
X124125000Y-136525000D01*
X115416396Y-134800000D02*
X122400000Y-134800000D01*
X105370406Y-124754010D02*
X115416396Y-134800000D01*
X105370406Y-109968198D02*
X105370406Y-124754010D01*
X95951104Y-100548896D02*
X105370406Y-109968198D01*
%TO.N,GPIO23*%
X104920406Y-124940406D02*
X116505000Y-136525000D01*
X104920406Y-110154594D02*
X104920406Y-124940406D01*
X92445812Y-97680000D02*
X104920406Y-110154594D01*
X83500000Y-97680000D02*
X92445812Y-97680000D01*
%TO.N,Net-(Q2-E)*%
X54050000Y-103770000D02*
X60280000Y-110000000D01*
X78925000Y-94125000D02*
X58675000Y-94125000D01*
X54050000Y-98750000D02*
X54050000Y-103770000D01*
X80300000Y-92750000D02*
X78925000Y-94125000D01*
X78400000Y-70435000D02*
X80300000Y-72335000D01*
X80300000Y-72335000D02*
X80300000Y-92750000D01*
X58675000Y-94125000D02*
X54050000Y-98750000D01*
%TO.N,GPIO22*%
X90542208Y-95140000D02*
X90300000Y-95140000D01*
X83500000Y-95140000D02*
X90300000Y-95140000D01*
X95951104Y-100548896D02*
X95475000Y-100072792D01*
X95951104Y-100548896D02*
X90542208Y-95140000D01*
%TO.N,GPIO Input 3*%
X131500000Y-152930000D02*
X136680000Y-158110000D01*
X131500000Y-131200000D02*
X131500000Y-152930000D01*
X129205000Y-128905000D02*
X131500000Y-131200000D01*
%TO.N,GPIO Input 2*%
X128725000Y-138585000D02*
X126665000Y-136525000D01*
X128725000Y-152925000D02*
X128725000Y-138585000D01*
X136680000Y-160880000D02*
X128725000Y-152925000D01*
%TO.N,Net-(Q7-C)*%
X100255000Y-110550000D02*
X101425000Y-110550000D01*
X99740000Y-111065000D02*
X100255000Y-110550000D01*
X101425000Y-110550000D02*
X100150000Y-110550000D01*
X99740000Y-111065000D02*
X100150000Y-110655000D01*
X98775000Y-112030000D02*
X99740000Y-111065000D01*
X100150000Y-110655000D02*
X100150000Y-110550000D01*
X100150000Y-110550000D02*
X88705000Y-110550000D01*
X88705000Y-110550000D02*
X87225000Y-112030000D01*
%TO.N,Net-(Q5-C)*%
X97575000Y-148370000D02*
X102955000Y-153750000D01*
X95561396Y-124425000D02*
X97575000Y-126438604D01*
X89325000Y-126325000D02*
X91225000Y-124425000D01*
X97575000Y-126438604D02*
X97575000Y-148370000D01*
X89325000Y-128345000D02*
X89325000Y-126325000D01*
X91225000Y-124425000D02*
X95561396Y-124425000D01*
X88125000Y-129545000D02*
X89325000Y-128345000D01*
%TO.N,Net-(Q6-B)*%
X97125000Y-130200000D02*
X95300000Y-132025000D01*
X95375000Y-124875000D02*
X97125000Y-126625000D01*
X91075000Y-125975000D02*
X92175000Y-124875000D01*
X92175000Y-124875000D02*
X95375000Y-124875000D01*
X91075000Y-127270000D02*
X91075000Y-125975000D01*
X97125000Y-126625000D02*
X97125000Y-130200000D01*
%TO.N,Net-(Q7-B)*%
X104235000Y-132065000D02*
X102600000Y-132065000D01*
X104725000Y-131575000D02*
X104235000Y-132065000D01*
X104725000Y-129370000D02*
X104725000Y-131575000D01*
X102625000Y-127270000D02*
X104725000Y-129370000D01*
%TO.N,Net-(Q5-C)*%
X92650000Y-129545000D02*
X94925000Y-127270000D01*
X88125000Y-129545000D02*
X92650000Y-129545000D01*
%TO.N,Net-(Q5-B)*%
X85775000Y-131525000D02*
X86335000Y-132085000D01*
X85775000Y-128720000D02*
X85775000Y-131525000D01*
X87225000Y-127270000D02*
X85775000Y-128720000D01*
X86335000Y-132085000D02*
X88125000Y-132085000D01*
%TO.N,Net-(Q5-E)*%
X90160000Y-134625000D02*
X95300000Y-129485000D01*
X88125000Y-134625000D02*
X90160000Y-134625000D01*
%TO.N,5V*%
X116575000Y-184275000D02*
X114525000Y-184275000D01*
%TO.N,Net-(U7B-CV)*%
X95330000Y-156635000D02*
X95355000Y-156660000D01*
X95330000Y-153775000D02*
X95330000Y-156635000D01*
%TO.N,Net-(U7B-DIS)*%
X73965000Y-151285000D02*
X90275000Y-151285000D01*
X71475000Y-153775000D02*
X73965000Y-151285000D01*
X67625000Y-153775000D02*
X71475000Y-153775000D01*
X61425000Y-159975000D02*
X67625000Y-153775000D01*
%TO.N,5V*%
X83525000Y-152450000D02*
X87735000Y-156660000D01*
X75845000Y-152450000D02*
X83525000Y-152450000D01*
X73695000Y-154600000D02*
X75845000Y-152450000D01*
%TO.N,BlankingModulated_2ms*%
X75160000Y-154161390D02*
X76421390Y-152900000D01*
X75160000Y-156615000D02*
X75160000Y-154161390D01*
X72250000Y-159525000D02*
X75160000Y-156615000D01*
X72250000Y-166372792D02*
X72250000Y-159525000D01*
X75400000Y-178753020D02*
X75400000Y-169522792D01*
X72553020Y-181600000D02*
X75400000Y-178753020D01*
X76421390Y-152900000D02*
X79725000Y-152900000D01*
X65650000Y-181600000D02*
X72553020Y-181600000D01*
X64275000Y-180225000D02*
X65650000Y-181600000D01*
X64275000Y-167850000D02*
X64275000Y-180225000D01*
X75400000Y-169522792D02*
X72250000Y-166372792D01*
X79725000Y-152900000D02*
X84875000Y-158050000D01*
X63885000Y-167460000D02*
X64275000Y-167850000D01*
X62820000Y-167460000D02*
X63885000Y-167460000D01*
%TO.N,BlankingToModulate*%
X99930000Y-114725000D02*
X102625000Y-112030000D01*
X91075000Y-112030000D02*
X93770000Y-114725000D01*
X93770000Y-114725000D02*
X99930000Y-114725000D01*
%TO.N,Net-(Q2-B)*%
X54592094Y-109844302D02*
X55830698Y-109844302D01*
X58488604Y-93675000D02*
X53600000Y-98563604D01*
X71475000Y-93675000D02*
X58488604Y-93675000D01*
X74100000Y-91050000D02*
X71475000Y-93675000D01*
X53600000Y-98563604D02*
X53600000Y-108852208D01*
X53600000Y-108852208D02*
X54592094Y-109844302D01*
X55830698Y-109844302D02*
X57225000Y-108450000D01*
X77581802Y-100168198D02*
X65531802Y-100168198D01*
X79850000Y-102436396D02*
X77581802Y-100168198D01*
X65531802Y-100168198D02*
X59625000Y-106075000D01*
X76160000Y-110940000D02*
X79850000Y-107250000D01*
X76160000Y-127250000D02*
X76160000Y-110940000D01*
X79850000Y-107250000D02*
X79850000Y-102436396D01*
%TO.N,BlankingModulated_1ms*%
X81225000Y-158975000D02*
X88650000Y-158975000D01*
X76750000Y-163450000D02*
X81225000Y-158975000D01*
X76750000Y-179312208D02*
X76750000Y-163450000D01*
X73112208Y-182950000D02*
X76750000Y-179312208D01*
X63207064Y-182950000D02*
X73112208Y-182950000D01*
X58065000Y-168610000D02*
X57071994Y-169603006D01*
X57071994Y-176814930D02*
X63207064Y-182950000D01*
X61480000Y-170369620D02*
X61480000Y-169490380D01*
X61480000Y-169490380D02*
X60599620Y-168610000D01*
X62820000Y-171709620D02*
X61480000Y-170369620D01*
X57071994Y-169603006D02*
X57071994Y-176814930D01*
X62820000Y-172540000D02*
X62820000Y-171709620D01*
X60599620Y-168610000D02*
X58065000Y-168610000D01*
%TO.N,Net-(Q4-E)*%
X61620000Y-171340000D02*
X60280000Y-170000000D01*
X63579856Y-182050000D02*
X61620000Y-180090144D01*
X72739416Y-182050000D02*
X63579856Y-182050000D01*
X75850000Y-178939416D02*
X72739416Y-182050000D01*
X75850000Y-169336396D02*
X75850000Y-178939416D01*
X61620000Y-180090144D02*
X61620000Y-171340000D01*
X72700000Y-166186396D02*
X75850000Y-169336396D01*
X72700000Y-159796122D02*
X72700000Y-166186396D01*
X74521122Y-157975000D02*
X72700000Y-159796122D01*
X77250000Y-157975000D02*
X74521122Y-157975000D01*
X78775000Y-156450000D02*
X77250000Y-157975000D01*
X78775000Y-154600000D02*
X78775000Y-156450000D01*
%TO.N,Net-(R21-Pad2)*%
X60280000Y-179386540D02*
X60280000Y-172540000D01*
X63393460Y-182500000D02*
X60280000Y-179386540D01*
X72925812Y-182500000D02*
X63393460Y-182500000D01*
X76300000Y-179125812D02*
X72925812Y-182500000D01*
X76300000Y-169150000D02*
X76300000Y-179125812D01*
X74250000Y-167100000D02*
X76300000Y-169150000D01*
X74250000Y-159830000D02*
X74250000Y-167100000D01*
%TO.N,Net-(D7-A)*%
X57655668Y-178035000D02*
X56000000Y-178035000D01*
X78250000Y-178448604D02*
X73298604Y-183400000D01*
X73298604Y-183400000D02*
X63020668Y-183400000D01*
X63020668Y-183400000D02*
X57655668Y-178035000D01*
X78250000Y-175070000D02*
X78250000Y-178448604D01*
%TO.N,Net-(U7A-DIS)*%
X61740000Y-183850000D02*
X58480000Y-180590000D01*
X73485000Y-183850000D02*
X61740000Y-183850000D01*
X87725000Y-169610000D02*
X73485000Y-183850000D01*
%TO.N,BlankingModulated*%
X60980000Y-168160000D02*
X58260000Y-168160000D01*
X58260000Y-168160000D02*
X54625000Y-164525000D01*
X54625000Y-164525000D02*
X54625000Y-144725000D01*
X62820000Y-170000000D02*
X60980000Y-168160000D01*
X54625000Y-144725000D02*
X52337500Y-142437500D01*
%TO.N,Net-(R7-Pad2)*%
X72063198Y-100618198D02*
X74100000Y-102655000D01*
X67121802Y-100618198D02*
X72063198Y-100618198D01*
X60280000Y-107460000D02*
X67121802Y-100618198D01*
%TO.N,Net-(R6-Pad2)*%
X61620000Y-108660000D02*
X62820000Y-107460000D01*
X61620000Y-110509620D02*
X61620000Y-108660000D01*
X60879620Y-111250000D02*
X61620000Y-110509620D01*
X56811396Y-111250000D02*
X60879620Y-111250000D01*
X53150000Y-109038604D02*
X54405698Y-110294302D01*
X53150000Y-87147792D02*
X53150000Y-109038604D01*
X58647792Y-81650000D02*
X53150000Y-87147792D01*
X54405698Y-110294302D02*
X55855698Y-110294302D01*
X55855698Y-110294302D02*
X56811396Y-111250000D01*
X61293604Y-81650000D02*
X58647792Y-81650000D01*
X61480000Y-81836396D02*
X61293604Y-81650000D01*
X61480000Y-82525000D02*
X61480000Y-81836396D01*
%TO.N,Net-(SW1-C-Pad3)*%
X62820000Y-111405000D02*
X62820000Y-110000000D01*
X62525000Y-111700000D02*
X62820000Y-111405000D01*
X54300000Y-110825000D02*
X55750000Y-110825000D01*
X55750000Y-110825000D02*
X56625000Y-111700000D01*
X52700000Y-109225000D02*
X54300000Y-110825000D01*
X52700000Y-83072792D02*
X52700000Y-109225000D01*
X56625000Y-111700000D02*
X62525000Y-111700000D01*
X54572792Y-81200000D02*
X52700000Y-83072792D01*
X62820000Y-82540000D02*
X61480000Y-81200000D01*
X61480000Y-81200000D02*
X54572792Y-81200000D01*
%TO.N,Net-(D4-A)*%
X80300000Y-102250000D02*
X77685000Y-99635000D01*
X80300000Y-108825000D02*
X80300000Y-102250000D01*
X77685000Y-99635000D02*
X56100000Y-99635000D01*
X77950000Y-111175000D02*
X80300000Y-108825000D01*
X77950000Y-117895000D02*
X77950000Y-111175000D01*
%TO.N,Net-(Q2-B)*%
X77900000Y-84150000D02*
X71225000Y-84150000D01*
X79850000Y-86100000D02*
X77900000Y-84150000D01*
X79850000Y-92563604D02*
X79850000Y-86100000D01*
X78881802Y-93531802D02*
X79850000Y-92563604D01*
X76581802Y-93531802D02*
X78881802Y-93531802D01*
X74100000Y-91050000D02*
X76581802Y-93531802D01*
X71225000Y-84150000D02*
X71450000Y-84150000D01*
X61890000Y-84150000D02*
X71225000Y-84150000D01*
%TO.N,Net-(D3-A)*%
X72075000Y-115870000D02*
X74100000Y-117895000D01*
X58210000Y-115825000D02*
X72075000Y-115825000D01*
X72075000Y-115825000D02*
X72075000Y-115870000D01*
X56100000Y-117935000D02*
X58210000Y-115825000D01*
%TO.N,Net-(Q3-E)*%
X79375000Y-129700000D02*
X78700000Y-129025000D01*
X78700000Y-129025000D02*
X78700000Y-127250000D01*
X79375000Y-134925000D02*
X79375000Y-129700000D01*
X75550000Y-138750000D02*
X79375000Y-134925000D01*
X61530000Y-138750000D02*
X75550000Y-138750000D01*
X60280000Y-140000000D02*
X61530000Y-138750000D01*
%TO.N,Net-(R12-Pad2)*%
X52700000Y-136638478D02*
X52700000Y-129500000D01*
X53962500Y-128237500D02*
X58137500Y-128237500D01*
X58137500Y-128237500D02*
X61430000Y-131530000D01*
X58601522Y-142540000D02*
X52700000Y-136638478D01*
X52700000Y-129500000D02*
X53962500Y-128237500D01*
X61430000Y-131530000D02*
X76950000Y-131530000D01*
X60280000Y-142540000D02*
X58601522Y-142540000D01*
X76950000Y-131530000D02*
X78075000Y-132655000D01*
%TO.N,Net-(Q4-B)*%
X65085000Y-132655000D02*
X60280000Y-137460000D01*
X74275000Y-132655000D02*
X65085000Y-132655000D01*
%TO.N,Net-(D6-A)*%
X71480000Y-141300000D02*
X78075000Y-147895000D01*
X59870380Y-141300000D02*
X71480000Y-141300000D01*
X57325000Y-138754620D02*
X59870380Y-141300000D01*
X57325000Y-130960000D02*
X57325000Y-138754620D01*
X56100000Y-129735000D02*
X57325000Y-130960000D01*
%TO.N,5V*%
X70300000Y-117885000D02*
X70300000Y-123930000D01*
X70300000Y-123930000D02*
X73620000Y-127250000D01*
%TO.N,BlankingModulated*%
X60785000Y-144575000D02*
X62820000Y-142540000D01*
X54475000Y-144575000D02*
X60785000Y-144575000D01*
X52250000Y-142350000D02*
X54475000Y-144575000D01*
X52250000Y-82886396D02*
X52250000Y-142350000D01*
X54386396Y-80750000D02*
X52250000Y-82886396D01*
X62070000Y-80750000D02*
X54386396Y-80750000D01*
X62820000Y-80000000D02*
X62070000Y-80750000D01*
%TO.N,5V*%
X51800000Y-82700000D02*
X51800000Y-83025000D01*
X54500000Y-80000000D02*
X51800000Y-82700000D01*
X51800000Y-83025000D02*
X51800000Y-71450000D01*
X51800000Y-158150000D02*
X51800000Y-83025000D01*
X53400000Y-159750000D02*
X51800000Y-158150000D01*
%TO.N,Net-(R6-Pad2)*%
X61480000Y-82525000D02*
X61480000Y-82030380D01*
X61480000Y-83103604D02*
X61480000Y-82525000D01*
X61289620Y-81840000D02*
X59900000Y-81840000D01*
X61480000Y-82030380D02*
X61289620Y-81840000D01*
X62076396Y-83700000D02*
X61480000Y-83103604D01*
X68175000Y-83700000D02*
X62076396Y-83700000D01*
X70300000Y-81575000D02*
X68175000Y-83700000D01*
X70300000Y-75810000D02*
X70300000Y-81575000D01*
%TO.N,Net-(R8-Pad2)*%
X66605000Y-114000000D02*
X77950000Y-102655000D01*
X61740000Y-114000000D02*
X66605000Y-114000000D01*
X60280000Y-112540000D02*
X61740000Y-114000000D01*
%TO.N,Blanking*%
X70300000Y-105060000D02*
X70300000Y-102645000D01*
X62820000Y-112540000D02*
X70300000Y-105060000D01*
%TO.N,Net-(D5-A)*%
X57760000Y-146375000D02*
X72755000Y-146375000D01*
X72755000Y-146375000D02*
X74275000Y-147895000D01*
X56100000Y-148035000D02*
X57760000Y-146375000D01*
%TO.N,Net-(D2-A)*%
X74685000Y-87835000D02*
X77900000Y-91050000D01*
X56100000Y-87835000D02*
X74685000Y-87835000D01*
%TO.N,Net-(Q2-B)*%
X75860000Y-79740000D02*
X75860000Y-70435000D01*
X60280000Y-82540000D02*
X61890000Y-84150000D01*
X71450000Y-84150000D02*
X75860000Y-79740000D01*
%TO.N,5V*%
X72428604Y-73875000D02*
X62636396Y-73875000D01*
X73320000Y-72983604D02*
X72428604Y-73875000D01*
X73320000Y-70435000D02*
X73320000Y-72983604D01*
%TO.N,Net-(D1-A)*%
X57785000Y-69660000D02*
X56100000Y-69660000D01*
X72615000Y-74325000D02*
X62450000Y-74325000D01*
X74100000Y-75810000D02*
X72615000Y-74325000D01*
X62450000Y-74325000D02*
X57785000Y-69660000D01*
%TO.N,5V*%
X53400000Y-81100000D02*
X54500000Y-80000000D01*
X54500000Y-80000000D02*
X60280000Y-80000000D01*
%TO.N,BlankingSignal*%
X67299680Y-55174680D02*
X67299680Y-62264660D01*
%TO.N,Net-(D8-A)*%
X58915000Y-159735000D02*
X74250000Y-175070000D01*
X56000000Y-159735000D02*
X58915000Y-159735000D01*
%TO.N,5V*%
X53400000Y-178050000D02*
X53400000Y-159750000D01*
X55150000Y-184300000D02*
X53400000Y-182550000D01*
X79425000Y-184300000D02*
X55150000Y-184300000D01*
X79500000Y-184225000D02*
X79425000Y-184300000D01*
X97600000Y-184225000D02*
X79500000Y-184225000D01*
X53400000Y-178050000D02*
X53400000Y-182550000D01*
%TO.N,Net-(U7A-DIS)*%
X87725000Y-164290000D02*
X87735000Y-164280000D01*
X87725000Y-169610000D02*
X87725000Y-164290000D01*
%TO.N,Net-(U7B-DIS)*%
X90275000Y-156660000D02*
X90275000Y-151285000D01*
%TO.N,Net-(U7A-CV)*%
X92815000Y-164280000D02*
X92815000Y-167085000D01*
X92815000Y-167085000D02*
X92800000Y-167100000D01*
%TO.N,Net-(Q5-C)*%
X102955000Y-156640000D02*
X102975000Y-156660000D01*
X102955000Y-153750000D02*
X102955000Y-156640000D01*
X100435000Y-159200000D02*
X102975000Y-156660000D01*
X100435000Y-164280000D02*
X100435000Y-159200000D01*
X100425000Y-164290000D02*
X100435000Y-164280000D01*
X100425000Y-167100000D02*
X100425000Y-164290000D01*
%TO.N,5V*%
X97600000Y-184225000D02*
X101100000Y-184225000D01*
X95355000Y-164280000D02*
X95355000Y-181980000D01*
X95355000Y-181980000D02*
X97600000Y-184225000D01*
X118825000Y-184275000D02*
X116575000Y-184275000D01*
X104100000Y-184225000D02*
X104150000Y-184275000D01*
X101100000Y-184225000D02*
X104100000Y-184225000D01*
X100425000Y-183550000D02*
X101100000Y-184225000D01*
X100425000Y-182340000D02*
X100425000Y-183550000D01*
X115000000Y-180450000D02*
X115087500Y-180537500D01*
X115087500Y-180537500D02*
X118825000Y-184275000D01*
X115000000Y-177350000D02*
X115000000Y-180450000D01*
X95355000Y-159200000D02*
X97895000Y-156660000D01*
X95355000Y-164280000D02*
X95355000Y-159200000D01*
X95355000Y-164280000D02*
X87735000Y-156660000D01*
%TO.N,Net-(U7A-DIS)*%
X87735000Y-164280000D02*
X90275000Y-164280000D01*
%TO.N,Net-(U7A-CV)*%
X92800000Y-164295000D02*
X92815000Y-164280000D01*
%TO.N,Net-(U7B-DIS)*%
X90275000Y-156660000D02*
X92815000Y-156660000D01*
%TO.N,Net-(D5-A)*%
X74275000Y-148034620D02*
X74275000Y-147895000D01*
%TO.N,Net-(Q6-B)*%
X91075000Y-127870000D02*
X91075000Y-127270000D01*
%TD*%
M02*
