M48
; DRILL file {KiCad 7.0.8} date Sat Nov 11 13:28:04 2023
; FORMAT={-:-/ absolute / inch / decimal}
; #@! TF.CreationDate,2023-11-11T13:28:04+01:00
; #@! TF.GenerationSoftware,Kicad,Pcbnew,7.0.8
; #@! TF.FileFunction,Plated,1,2,PTH
FMAT,2
INCH
; #@! TA.AperFunction,Plated,PTH,ComponentDrill
T1C0.0217
; #@! TA.AperFunction,Plated,PTH,ComponentDrill
T2C0.0315
; #@! TA.AperFunction,Plated,PTH,ComponentDrill
T3C0.0354
; #@! TA.AperFunction,Plated,PTH,ComponentDrill
T4C0.0374
; #@! TA.AperFunction,Plated,PTH,ComponentDrill
T5C0.0394
; #@! TA.AperFunction,Plated,PTH,ComponentDrill
T6C0.0394
; #@! TA.AperFunction,Plated,PTH,ComponentDrill
T7C0.0409
; #@! TA.AperFunction,Plated,PTH,ComponentDrill
T8C0.0433
; #@! TA.AperFunction,Plated,PTH,ComponentDrill
T9C0.0728
; #@! TA.AperFunction,Plated,PTH,ComponentDrill
T10C0.0866
; #@! TA.AperFunction,Plated,PTH,ComponentDrill
T11C0.1260
%
G90
G05
T2
X2.55Y-3.815
X2.65Y-3.815
X2.7165Y-3.0197
X2.7165Y-3.6197
X2.7165Y-4.8661
X2.7165Y-5.4661
X2.75Y-3.815
X2.8331Y-3.813
X2.8661Y-3.0181
X2.8661Y-3.6181
X2.8661Y-4.0417
X2.8661Y-4.6417
X2.8661Y-4.8661
X2.8661Y-5.4661
X2.9331Y-3.813
X3.0157Y-3.0181
X3.0157Y-3.6181
X3.0157Y-4.0425
X3.0157Y-4.6425
X3.0157Y-4.8661
X3.0157Y-5.4661
X3.0331Y-3.813
X3.0472Y-6.2126
X3.0472Y-6.3622
X3.6472Y-6.2126
X3.6472Y-6.3622
X4.4843Y-3.7953
X4.4843Y-4.0953
X4.4843Y-4.3819
X4.4843Y-4.6819
X4.4872Y-4.9764
X4.4872Y-5.2764
X4.5843Y-3.7953
X4.5843Y-4.0953
X4.5843Y-4.3819
X4.5843Y-4.6819
X4.5872Y-4.9764
X4.5872Y-5.2764
X4.6843Y-3.7953
X4.6843Y-4.0953
X4.6843Y-4.3819
X4.6843Y-4.6819
X4.6872Y-4.9764
X4.6872Y-5.2764
X4.7843Y-3.7953
X4.7843Y-4.0953
X4.7843Y-4.3819
X4.7843Y-4.6819
X4.7872Y-4.9764
X4.7872Y-5.2764
X4.8843Y-3.7953
X4.8843Y-4.0953
X4.8843Y-4.3819
X4.8843Y-4.6819
X4.8872Y-4.9764
X4.8872Y-5.2764
X4.9843Y-3.7953
X4.9843Y-4.0953
X4.9843Y-4.3819
X4.9843Y-4.6819
X4.9872Y-4.9764
X4.9872Y-5.2764
X5.0843Y-3.7953
X5.0843Y-4.0953
X5.0843Y-4.3819
X5.0843Y-4.6819
X5.0872Y-4.9764
X5.0872Y-5.2764
T3
X2.0906Y-2.7425
X2.0906Y-2.8425
X2.0906Y-3.4581
X2.0906Y-3.5581
X2.0906Y-3.9226
X2.0906Y-4.0226
X2.0906Y-4.6431
X2.0906Y-4.7431
T4
X2.7598Y-6.0709
X2.7598Y-6.1693
X2.7598Y-6.2677
T5
X5.3811Y-2.4382
X5.3811Y-2.5472
X5.3811Y-2.6563
X5.3811Y-2.7654
X5.3811Y-2.8744
X5.3811Y-2.9835
X5.3811Y-3.0925
X5.3811Y-3.2016
X5.3811Y-3.3106
X5.3811Y-3.4197
X5.3811Y-3.5287
X5.3811Y-3.6378
X5.3811Y-3.7469
X5.3811Y-4.6272
X5.3811Y-4.7362
X5.3811Y-4.8453
X5.3811Y-4.9543
X5.3811Y-5.0634
X5.3811Y-5.1724
X5.3811Y-5.2815
X5.3811Y-5.3906
X5.3811Y-5.4996
X5.3811Y-5.6087
X5.3811Y-5.7177
X5.3811Y-5.8268
X5.3811Y-5.9358
X5.4929Y-2.4927
X5.4929Y-2.6018
X5.4929Y-2.7108
X5.4929Y-2.8199
X5.4929Y-2.9289
X5.4929Y-3.038
X5.4929Y-3.147
X5.4929Y-3.2561
X5.4929Y-3.3652
X5.4929Y-3.4742
X5.4929Y-3.5833
X5.4929Y-3.6923
X5.4929Y-4.6817
X5.4929Y-4.7907
X5.4929Y-4.8998
X5.4929Y-5.0089
X5.4929Y-5.1179
X5.4929Y-5.227
X5.4929Y-5.336
X5.4929Y-5.4451
X5.4929Y-5.5541
X5.4929Y-5.6632
X5.4929Y-5.7722
X5.4929Y-5.8813
T6
X2.5512Y-2.4514
X2.6496Y-2.4514
X4.8229Y-2.4528
X4.9213Y-2.4528
T7
X3.2874Y-2.1457
X3.2874Y-2.2457
X3.2874Y-2.3457
X3.2874Y-2.4457
X3.2874Y-2.5457
X3.2874Y-2.6457
X3.2874Y-2.7457
X3.2874Y-2.8457
X3.2874Y-2.9457
X3.2874Y-3.0457
X3.2874Y-3.1457
X3.2874Y-3.2457
X3.2874Y-3.3457
X3.2874Y-3.4457
X3.2874Y-3.5457
X3.2874Y-3.6457
X3.2874Y-3.7457
X3.2874Y-3.8457
X3.2874Y-3.9457
X4.2874Y-2.1457
X4.2874Y-2.2457
X4.2874Y-2.3457
X4.2874Y-2.4457
X4.2874Y-2.5457
X4.2874Y-2.6457
X4.2874Y-2.7457
X4.2874Y-2.8457
X4.2874Y-2.9457
X4.2874Y-3.0457
X4.2874Y-3.1457
X4.2874Y-3.2457
X4.2874Y-3.3457
X4.2874Y-3.4457
X4.2874Y-3.5457
X4.2874Y-3.6457
X4.2874Y-3.7457
X4.2874Y-3.8457
X4.2874Y-3.9457
T8
X3.9024Y-6.3622
X4.0024Y-6.3622
X4.1024Y-6.3622
T9
X2.1732Y-3.0433
X2.1732Y-3.2559
X2.1732Y-4.2244
X2.1732Y-4.437
T10
X2.4489Y-2.2835
X2.8504Y-2.2835
X4.7206Y-2.2849
X5.1221Y-2.2849
T11
X5.437Y-2.1654
X5.437Y-4.0197
X5.437Y-4.3543
X5.437Y-6.2087
T1
G00X2.3929Y-3.0496
M15
G01X2.3535Y-3.0496
M16
G05
G00X2.3929Y-3.1496
M15
G01X2.3535Y-3.1496
M16
G05
G00X2.3929Y-3.2496
M15
G01X2.3535Y-3.2496
M16
G05
G00X2.3929Y-4.2307
M15
G01X2.3535Y-4.2307
M16
G05
G00X2.3929Y-4.3307
M15
G01X2.3535Y-4.3307
M16
G05
G00X2.3929Y-4.4307
M15
G01X2.3535Y-4.4307
M16
G05
G00X2.4929Y-3.0496
M15
G01X2.4535Y-3.0496
M16
G05
G00X2.4929Y-3.1496
M15
G01X2.4535Y-3.1496
M16
G05
G00X2.4929Y-3.2496
M15
G01X2.4535Y-3.2496
M16
G05
G00X2.4929Y-4.2307
M15
G01X2.4535Y-4.2307
M16
G05
G00X2.4929Y-4.3307
M15
G01X2.4535Y-4.3307
M16
G05
G00X2.4929Y-4.4307
M15
G01X2.4535Y-4.4307
M16
G05
T5
G00X4.4882Y-6.0945
M15
G01X4.5669Y-6.0945
M16
G05
G00X4.4882Y-6.3307
M15
G01X4.5669Y-6.3307
M16
G05
G00X4.7126Y-6.252
M15
G01X4.7126Y-6.1732
M16
G05
T0
M30
