%TF.GenerationSoftware,KiCad,Pcbnew,7.0.8*%
%TF.CreationDate,2023-11-11T11:33:52+01:00*%
%TF.ProjectId,LED-Zappelin-V2-Chrolis,4c45442d-5a61-4707-9065-6c696e2d5632,rev?*%
%TF.SameCoordinates,Original*%
%TF.FileFunction,Soldermask,Top*%
%TF.FilePolarity,Negative*%
%FSLAX46Y46*%
G04 Gerber Fmt 4.6, Leading zero omitted, Abs format (unit mm)*
G04 Created by KiCad (PCBNEW 7.0.8) date 2023-11-11 11:33:52*
%MOMM*%
%LPD*%
G01*
G04 APERTURE LIST*
G04 Aperture macros list*
%AMRoundRect*
0 Rectangle with rounded corners*
0 $1 Rounding radius*
0 $2 $3 $4 $5 $6 $7 $8 $9 X,Y pos of 4 corners*
0 Add a 4 corners polygon primitive as box body*
4,1,4,$2,$3,$4,$5,$6,$7,$8,$9,$2,$3,0*
0 Add four circle primitives for the rounded corners*
1,1,$1+$1,$2,$3*
1,1,$1+$1,$4,$5*
1,1,$1+$1,$6,$7*
1,1,$1+$1,$8,$9*
0 Add four rect primitives between the rounded corners*
20,1,$1+$1,$2,$3,$4,$5,0*
20,1,$1+$1,$4,$5,$6,$7,0*
20,1,$1+$1,$6,$7,$8,$9,0*
20,1,$1+$1,$8,$9,$2,$3,0*%
G04 Aperture macros list end*
%ADD10C,1.600000*%
%ADD11O,1.600000X1.600000*%
%ADD12C,1.560000*%
%ADD13R,1.560000X1.560000*%
%ADD14C,1.800000*%
%ADD15R,1.800000X1.800000*%
%ADD16O,1.950000X1.700000*%
%ADD17RoundRect,0.250000X-0.725000X0.600000X-0.725000X-0.600000X0.725000X-0.600000X0.725000X0.600000X0*%
%ADD18C,3.000000*%
%ADD19C,1.850000*%
%ADD20R,1.750000X0.750000*%
%ADD21RoundRect,0.875000X0.875000X-0.875000X0.875000X0.875000X-0.875000X0.875000X-0.875000X-0.875000X0*%
%ADD22RoundRect,0.750000X1.000000X-0.750000X1.000000X0.750000X-1.000000X0.750000X-1.000000X-0.750000X0*%
%ADD23R,3.500000X3.500000*%
%ADD24O,1.905000X2.000000*%
%ADD25R,1.905000X2.000000*%
%ADD26C,4.000000*%
%ADD27R,1.600000X1.600000*%
%ADD28O,3.500120X7.000240*%
%ADD29O,1.600200X2.499360*%
%ADD30R,1.600000X2.400000*%
%ADD31O,1.600000X2.400000*%
%ADD32C,1.500000*%
%ADD33R,1.500000X1.500000*%
G04 APERTURE END LIST*
D10*
%TO.C,R5*%
X76600000Y-123600000D03*
D11*
X76600000Y-138840000D03*
%TD*%
D12*
%TO.C,U1*%
X83500000Y-54500000D03*
X83500000Y-57040000D03*
X83500000Y-59580000D03*
X83500000Y-62120000D03*
X83500000Y-64660000D03*
X83500000Y-67200000D03*
X83500000Y-69740000D03*
X83500000Y-72280000D03*
X83500000Y-74820000D03*
X83500000Y-77360000D03*
X83500000Y-79900000D03*
X83500000Y-82440000D03*
X83500000Y-84980000D03*
X83500000Y-87520000D03*
X83500000Y-90060000D03*
X83500000Y-92600000D03*
X83500000Y-95140000D03*
X83500000Y-97680000D03*
X83500000Y-100220000D03*
X108900000Y-54500000D03*
X108900000Y-57040000D03*
X108900000Y-59580000D03*
X108900000Y-62120000D03*
X108900000Y-64660000D03*
X108900000Y-67200000D03*
X108900000Y-69740000D03*
X108900000Y-72280000D03*
X108900000Y-74820000D03*
X108900000Y-77360000D03*
X108900000Y-79900000D03*
X108900000Y-82440000D03*
X108900000Y-84980000D03*
X108900000Y-87520000D03*
X108900000Y-90060000D03*
X108900000Y-92600000D03*
X108900000Y-95140000D03*
X108900000Y-97680000D03*
D13*
X108900000Y-100220000D03*
%TD*%
D11*
%TO.C,R9*%
X92640000Y-161600000D03*
D10*
X77400000Y-161600000D03*
%TD*%
D14*
%TO.C,D3*%
X53100000Y-117935000D03*
D15*
X53100000Y-120475000D03*
%TD*%
D16*
%TO.C,J5*%
X70100000Y-159200000D03*
X70100000Y-156700000D03*
D17*
X70100000Y-154200000D03*
%TD*%
D18*
%TO.C,H2*%
X123000000Y-70000000D03*
%TD*%
%TO.C,H1*%
X70000000Y-70000000D03*
%TD*%
D19*
%TO.C,SW1*%
X55200000Y-82700000D03*
X55200000Y-77300000D03*
D20*
X60280000Y-82540000D03*
X60280000Y-80000000D03*
X60280000Y-77460000D03*
X62820000Y-82540000D03*
X62820000Y-80000000D03*
X62820000Y-77460000D03*
%TD*%
D11*
%TO.C,R4*%
X76600000Y-76660000D03*
D10*
X76600000Y-91900000D03*
%TD*%
D19*
%TO.C,SW2*%
X55200000Y-112700000D03*
X55200000Y-107300000D03*
D20*
X60280000Y-112540000D03*
X60280000Y-110000000D03*
X60280000Y-107460000D03*
X62820000Y-112540000D03*
X62820000Y-110000000D03*
X62820000Y-107460000D03*
%TD*%
D21*
%TO.C,J6*%
X119700000Y-157800000D03*
D22*
X115000000Y-160800000D03*
D23*
X115000000Y-154800000D03*
%TD*%
D14*
%TO.C,D1*%
X53100000Y-69660000D03*
D15*
X53100000Y-72200000D03*
%TD*%
D11*
%TO.C,R3*%
X72800000Y-91900000D03*
D10*
X72800000Y-76660000D03*
%TD*%
D24*
%TO.C,U5*%
X99120000Y-161600000D03*
X101660000Y-161600000D03*
D25*
X104200000Y-161600000D03*
%TD*%
D18*
%TO.C,H4*%
X123000000Y-144900000D03*
%TD*%
D26*
%TO.C,J3*%
X138100000Y-157700000D03*
X138100000Y-110600000D03*
D27*
X136680000Y-117530000D03*
D10*
X136680000Y-120300000D03*
X136680000Y-123070000D03*
X136680000Y-125840000D03*
X136680000Y-128610000D03*
X136680000Y-131380000D03*
X136680000Y-134150000D03*
X136680000Y-136920000D03*
X136680000Y-139690000D03*
X136680000Y-142460000D03*
X136680000Y-145230000D03*
X136680000Y-148000000D03*
X136680000Y-150770000D03*
X139520000Y-118915000D03*
X139520000Y-121685000D03*
X139520000Y-124455000D03*
X139520000Y-127225000D03*
X139520000Y-129995000D03*
X139520000Y-132765000D03*
X139520000Y-135535000D03*
X139520000Y-138305000D03*
X139520000Y-141075000D03*
X139520000Y-143845000D03*
X139520000Y-146615000D03*
X139520000Y-149385000D03*
%TD*%
D28*
%TO.C,J1*%
X72400000Y-58000000D03*
D29*
X64800320Y-62264660D03*
D28*
X62201900Y-58000000D03*
D29*
X67299680Y-62264660D03*
%TD*%
D30*
%TO.C,U2*%
X113975000Y-134020000D03*
D31*
X116515000Y-134020000D03*
X119055000Y-134020000D03*
X121595000Y-134020000D03*
X124135000Y-134020000D03*
X126675000Y-134020000D03*
X129215000Y-134020000D03*
X129215000Y-126400000D03*
X126675000Y-126400000D03*
X124135000Y-126400000D03*
X121595000Y-126400000D03*
X119055000Y-126400000D03*
X116515000Y-126400000D03*
X113975000Y-126400000D03*
%TD*%
D30*
%TO.C,U4*%
X113900000Y-104020000D03*
D31*
X116440000Y-104020000D03*
X118980000Y-104020000D03*
X121520000Y-104020000D03*
X124060000Y-104020000D03*
X126600000Y-104020000D03*
X129140000Y-104020000D03*
X129140000Y-96400000D03*
X126600000Y-96400000D03*
X124060000Y-96400000D03*
X121520000Y-96400000D03*
X118980000Y-96400000D03*
X116440000Y-96400000D03*
X113900000Y-96400000D03*
%TD*%
D18*
%TO.C,H3*%
X70000000Y-144900000D03*
%TD*%
D11*
%TO.C,R8*%
X76600000Y-102680000D03*
D10*
X76600000Y-117920000D03*
%TD*%
D30*
%TO.C,U3*%
X113900000Y-118920000D03*
D31*
X116440000Y-118920000D03*
X118980000Y-118920000D03*
X121520000Y-118920000D03*
X124060000Y-118920000D03*
X126600000Y-118920000D03*
X129140000Y-118920000D03*
X129140000Y-111300000D03*
X126600000Y-111300000D03*
X124060000Y-111300000D03*
X121520000Y-111300000D03*
X118980000Y-111300000D03*
X116440000Y-111300000D03*
X113900000Y-111300000D03*
%TD*%
D26*
%TO.C,J4*%
X138100000Y-102100000D03*
X138100000Y-55000000D03*
D27*
X136680000Y-61930000D03*
D10*
X136680000Y-64700000D03*
X136680000Y-67470000D03*
X136680000Y-70240000D03*
X136680000Y-73010000D03*
X136680000Y-75780000D03*
X136680000Y-78550000D03*
X136680000Y-81320000D03*
X136680000Y-84090000D03*
X136680000Y-86860000D03*
X136680000Y-89630000D03*
X136680000Y-92400000D03*
X136680000Y-95170000D03*
X139520000Y-63315000D03*
X139520000Y-66085000D03*
X139520000Y-68855000D03*
X139520000Y-71625000D03*
X139520000Y-74395000D03*
X139520000Y-77165000D03*
X139520000Y-79935000D03*
X139520000Y-82705000D03*
X139520000Y-85475000D03*
X139520000Y-88245000D03*
X139520000Y-91015000D03*
X139520000Y-93785000D03*
%TD*%
D11*
%TO.C,R7*%
X72800000Y-102660000D03*
D10*
X72800000Y-117900000D03*
%TD*%
D32*
%TO.C,Q2*%
X71960000Y-96850000D03*
X74500000Y-96850000D03*
D33*
X77040000Y-96850000D03*
%TD*%
D11*
%TO.C,R6*%
X69000000Y-76700000D03*
D10*
X69000000Y-91940000D03*
%TD*%
%TO.C,R1*%
X69000000Y-138840000D03*
D11*
X69000000Y-123600000D03*
%TD*%
D10*
%TO.C,R10*%
X92640000Y-157800000D03*
D11*
X77400000Y-157800000D03*
%TD*%
D28*
%TO.C,J2*%
X130100320Y-58036600D03*
D29*
X122500640Y-62301260D03*
D28*
X119902220Y-58036600D03*
D29*
X125000000Y-62301260D03*
%TD*%
D14*
%TO.C,D2*%
X53100000Y-87835000D03*
D15*
X53100000Y-90375000D03*
%TD*%
D32*
%TO.C,Q1*%
X64770000Y-96900000D03*
X67310000Y-96900000D03*
D33*
X69850000Y-96900000D03*
%TD*%
D10*
%TO.C,R2*%
X72800000Y-138840000D03*
D11*
X72800000Y-123600000D03*
%TD*%
D15*
%TO.C,D4*%
X53100000Y-102175000D03*
D14*
X53100000Y-99635000D03*
%TD*%
M02*
